<svg xmlns="http://www.w3.org/2000/svg" width="680.418" height="270.053" viewBox="-140.062 165.944 680.418 270.053"><g fill="#FECA04"><path d="M-33.758 178.078c-6.024 12.652-30.593 65.873-35.948 77.454 15.464 1.875 30.794 11.515 32.668 28.05 1.473 13.255-9.907 44.786-11.58 49.605 17.137-16.468 49.872-46.46 54.76-50.61 6.962-5.89 11.782-10.71 18.074-7.898 6.83 3.012 7.364 13.455 6.83 21.957-1.81 29.522-3.014 41.84 2.743 50.007 4.886 6.962 11.85 10.71 21.22 10.108s21.088-6.158 28.92-13.12c0 0-73.84-159.93-76.784-165.755-2.21-4.35-8.77-11.514-19.815-11.916-12.317-.468-19.548 8.838-21.088 12.118z"/><path d="M111.378 402.743c-4.218-10.845-19.883-43.045-22.494-48.67-8.233 7.432-32.802 21.356-51.747 13.792-7.297-2.945-25.037-10.443-24.903-36.484.066-10.108.4-20.283.335-30.393-5.69 5.355-63.8 60.317-70.36 65.605-4.284 3.48-8.3 4.42-12.585 2.544-4.887-2.075-5.355-9.104-4.017-13.857.804-3.014 15.464-39.632 19.28-59.313 1.473-7.766 1.205-24.1-20.352-28.05 0 0-60.05 129.604-62.057 134.09-8.437 18.744 5.957 31.798 16.4 33.54 12.986 2.14 22.292-4.018 28.183-17.206 4.42-9.974 11.18-14.727 18.678-14.727H47.98c9.574 0 16 7.832 18.745 14.795 4.485 11.246 11.313 15.664 18.678 17.138 15.866 3.28 34.21-11.716 25.975-32.803z"/></g><g fill="#FFF"><path d="M232.68 220.52v77.053h-19.748v-5.69c-6.36 4.285-14.06 6.83-22.56 6.83-24.1 0-38.293-19.415-38.293-39.833 0-20.552 14.19-39.832 38.29-39.832 8.102 0 16 2.544 22.562 6.36v-4.82h19.75v-.068zM213 243.482c-4.82-4.083-11.65-6.694-19.014-6.694-14.058 0-22.828 10.51-22.828 21.958 0 11.648 8.97 22.158 22.828 22.158 7.498 0 14.192-2.41 19.013-6.493v-30.928zM319.574 220.52v77.053h-19.75v-5.088c-5.823 3.95-13.053 6.227-21.02 6.227-22.56 0-32.937-10.51-32.937-35.48V220.52h19.815v42.71c0 11.917 5.824 17.74 16.736 17.74 7.096 0 12.92-2.275 17.473-6.092V220.52h19.684zM411.555 190.53v106.977h-19.882v-4.687c-6.226 3.682-14.326 5.958-22.427 5.958-21.422 0-39.028-16.2-39.028-39.832 0-24.1 17.606-39.83 39.028-39.83 8.234 0 16 2.274 22.427 5.823v-27.114l19.882-7.297zm-19.882 83.747v-30.93c-4.687-3.948-11.38-6.492-18.88-6.492-13.187 0-22.96 9.506-22.96 22.158 0 13.054 9.773 21.958 22.96 21.958 7.433-.066 14.194-2.61 18.88-6.693zM423.002 200.972c0-6.36 5.088-11.647 11.38-11.647 6.227 0 11.18 5.222 11.18 11.647 0 6.36-4.953 11.515-11.18 11.515s-11.38-5.154-11.38-11.515zm1.608 19.883h19.748v77.053H424.61v-77.053zM540.02 258.946c0 21.958-18.877 39.698-42.106 39.698-23.297 0-42.108-17.74-42.108-39.698 0-22.158 18.88-39.83 42.108-39.83 23.295-.068 42.107 17.672 42.107 39.83zm-19.413 0c0-12.184-10.04-22.158-22.693-22.158-12.452 0-22.694 9.908-22.694 22.158 0 12.05 10.242 21.958 22.694 21.958 12.652 0 22.693-9.907 22.693-21.958z"/><g><path d="M199.744 372.82v30.927h-3.55V372.82c0-13.122-8.635-20.15-19.814-20.15-8.77 0-15.396 2.81-20.686 7.43v43.647h-3.548V350.19h3.548v6.495c4.887-4.753 12.318-7.43 20.954-7.43 13.054-.068 23.096 7.965 23.096 23.564zM261.667 378.175H212.33c.803 13.12 11.312 22.493 23.765 22.493 8.033 0 15.8-3.013 20.552-9.038l2.812 2.21c-4.955 6.292-13.523 10.31-23.565 10.31-16.134 0-27.246-12.318-27.246-27.448 0-15.196 11.11-27.514 27.245-27.514 15.933 0 25.773 11.515 25.773 27.85v1.137zm-49.338-3.147h45.855c-.67-13.12-8.97-22.493-22.292-22.493-13.388 0-22.96 9.84-23.564 22.493zM277.065 353.405v33.204c0 10.107 4.887 13.99 11.85 13.99 4.35 0 7.028-.47 8.836-1.004v3.28c-1.873.47-5.087 1.205-9.572 1.205-8.167 0-14.794-5.288-14.794-15.53v-35.213h-9.84v-3.28h9.84V330.91l3.682-1.204v20.418h20.887v3.28h-20.888zM387.924 350.125l-20.887 53.555h-2.21l-17.204-47.396-17.204 47.396h-2.21l-21.088-53.555h3.883l18.41 47.33 16.87-47.33h2.477l17.004 47.33 18.41-47.33h3.748zM448.307 376.7c0 15.13-13.054 27.448-29.054 27.448-16.133 0-29.12-12.317-29.12-27.447 0-15.195 13.054-27.513 29.12-27.513 16 0 29.054 12.318 29.054 27.514zm-3.614 0c0-13.32-11.447-24.03-25.438-24.03-14.126 0-25.573 10.71-25.573 24.03 0 13.257 11.447 23.968 25.573 23.968 14.057 0 25.438-10.78 25.438-23.967zM460.76 362.978c3.078-8.234 9.438-13.724 18.208-13.79 2.878 0 6.092.67 9.238 2.275l-.87 3.48c-3.08-1.473-6.092-2.008-8.636-2.008-10.645 0-17.874 9.907-17.874 22.694v28.115h-3.55V350.19h3.55l-.067 12.788zM534.063 400.668c-3.75-.603-5.89-4.084-8.368-8.1l-6.76-11.18-1.407-2.344h-.066l-3.08-5.02 21.288-24.502-4.552.066-30.058 34.343-.134-54.29-3.48 1.405v72.7h3.547V389.49l11.113-12.787 2.008 3.28 8.3 13.992c1.876 3.146 5.09 9.037 10.913 9.975 1.606.268 4.687.334 7.03-1.14l-1.005-2.944c-1.608 1.005-3.883 1.005-5.29.805z"/></g></g></svg>