<svg xmlns="http://www.w3.org/2000/svg" width="595.158" height="595.281" viewBox="-67.635 36.8 595.158 595.281"><path fill="#FECA04" d="M229.945 36.8c-164.288 0-297.58 133.292-297.58 297.58s133.292 297.7 297.58 297.7c164.41 0 297.58-133.29 297.58-297.578S394.354 36.8 229.944 36.8zm-29.403 91.515c2.205-4.655 12.618-18.13 30.383-17.396 15.804.612 25.237 10.903 28.545 17.15 4.288 8.21 110.505 238.53 110.505 238.53-11.27 10.045-28.178 18.008-41.654 18.866-13.475.857-23.52-4.533-30.504-14.58-8.33-11.76-6.493-29.524-3.92-72.036.734-12.25 0-27.32-9.924-31.607-9.065-4.043-16.05 2.94-25.972 11.394-7.106 6.003-54.15 49.127-78.897 72.895 2.45-6.983 18.744-52.312 16.66-71.425-2.694-23.767-24.746-37.733-47.043-40.306 7.72-16.66 43.124-93.23 51.822-111.485zM372.18 498.91c-10.658-2.204-20.46-8.574-26.952-24.746-4.043-10.046-13.23-21.316-26.953-21.316H142.35c-10.78 0-20.46 6.86-26.953 21.194-8.453 18.99-21.93 27.81-40.55 24.747-15.07-2.45-35.65-21.318-23.646-48.27 2.94-6.494 89.312-193.078 89.312-193.078 30.995 5.758 31.362 29.157 29.28 40.43-5.39 28.3-26.463 80.978-27.688 85.39-1.838 6.86-1.226 16.906 5.758 19.97 6.126 2.57 12.006 1.347 18.132-3.677 9.434-7.596 92.985-86.737 101.193-94.456.123 14.578-.367 29.157-.49 43.736-.244 37.488 25.238 48.27 35.773 52.557 27.197 10.903 62.604-9.188 74.487-19.847 3.798 8.086 26.34 54.395 32.465 70.076 11.885 30.383-14.578 52.067-37.242 47.29z"/></svg>