<svg xmlns="http://www.w3.org/2000/svg" width="250.161" height="140" viewBox="296.514 213.279 250.161 140" enable-background="new 296.514 213.279 250.161 140"><path fill="#FBC61A" d="M484.134 240.925c4.52-2.485 7.343-4.48 12.727-5.083 6.703-.715-2.483 15.927 10.883 6.74 2.222-1.544 8.246-7.53 11.258-5.234 2.41 1.808 3.73 5.422 7.344 4.63 7.492-1.693 10.768-13.366 9.978-20.105-.34-2.75-1.958-6.928-5.008-7.832-4.405-1.317-4.82 9.64-11.183 6.627-2.86-1.318-2.974-4.895-6.212-6.024-3.878-1.355-9.602 6.288-10.882 5.422-6.513-17.546-39.948 2.598-30.912 18.977 2.785 4.97 7.568 4.33 12.01 1.883"/><path fill="#fff" d="M326.41 282.154c0 7.87-4.217 12.162-10.392 12.162-3.916 0-6.1-2.07-6.1-5.573 0-6.175 6.175-7.38 16.492-12.162v5.574zm-2.937-10.317c-2.26 1.47-6.476 1.958-11.974 3.652-9.903 3.05-14.836 6.776-14.836 14.42 0 7.267 5.61 12.65 14.044 12.65 6.853 0 11.973-2.26 15.89-7.34 1.468 5.006 4.894 7.34 10.692 7.34 8.848 0 12.162-5.308 12.162-16.943v-2.07h-5.987c0 7.643-.188 10.806-3.05 10.806-1.47 0-2.26-.98-2.26-3.352V270.37c0-6.777-.413-11.183-5.12-14.345-3.238-2.146-8.32-3.352-14.985-3.352-11.974 0-19.052 5.197-19.052 12.276 0 4.48 3.238 7.643 7.87 7.643 4.103 0 6.852-2.56 6.852-6.25 0-3.352-2.26-5.385-6.175-5.385h-.263c2.372-2.07 5.31-2.86 9.3-2.86 6.476 0 10.09 2.634 10.09 7.454.04 2.973-.864 4.743-3.2 6.287zm29.783-4.895v18.224c0 11.748 3.84 17.057 14.91 17.057 5.573 0 11.07-3.238 16.19-9.64v8.134h19.993v-6.552h-2.562c-5.008 0-5.686-1.356-5.686-5.874v-33.848h-21.988v6.55h4.518c5.008 0 5.686 1.395 5.686 5.913v11.973c0 10.392-5.12 15.814-12.05 15.814-5.496 0-7.266-3.163-7.266-9.526V254.48H345.31v6.55h2.26c4.97.04 5.686 1.394 5.686 5.912M428.748 261.257c6.664 0 11.183 5.798 11.183 16.492 0 10.692-4.518 16.566-11.182 16.566-7.568 0-11.183-5.497-11.183-16.567 0-11.11 3.615-16.493 11.183-16.493m-4.592 40.89c7.53 0 12.537-2.975 15.775-9.413v8.057h20.296v-6.55h-2.824c-5.008 0-5.61-1.355-5.61-5.874v-53.39h-21.574v6.588h4.142c5.008 0 5.61 1.356 5.61 5.874v14.797c-3.238-6.476-8.246-9.488-15.776-9.488-12.463 0-19.918 8.923-19.918 24.7-.04 15.776 7.416 24.7 19.88 24.7zm70.37-7.945h-2.936c-5.008 0-5.686-1.355-5.686-5.874v-33.85h-21.16v6.552h3.614c5.008 0 5.61 1.393 5.61 5.912v21.386c0 4.52-.603 5.874-5.61 5.874h-3.615v6.55h29.82v-6.55h-.036zm25.943-34.527c8.546 0 12.838 5.987 12.838 17.96 0 11.974-4.33 17.848-12.84 17.848-8.546 0-12.726-5.912-12.726-17.848 0-11.973 4.217-17.96 12.727-17.96m0 42.773c15.89 0 26.205-9.94 26.205-24.813 0-14.91-10.317-24.925-26.206-24.925-15.89 0-26.094 10.015-26.094 24.925s10.203 24.813 26.093 24.813zm-206.297 46.538h-2.108c-3.464 0-4.104-.715-4.104-3.652V334.83c0-6.4 3.992-10.393 9.678-10.393 4.857 0 6.363 2.937 6.363 9.563v11.333c0 2.938-.64 3.652-4.103 3.652h-2.108v3.163h17.32v-3.163h-1.394c-3.464 0-4.18-.715-4.18-3.652v-10.505c0-4.367-.15-7.644-1.844-10.016-1.845-2.56-4.67-3.84-8.51-3.84-4.818 0-8.66 2.07-11.144 6.1v-5.196h-11.52v3.087h1.806c3.464 0 4.18.754 4.18 3.69v16.68c0 2.938-.716 3.652-4.18 3.652h-1.807v3.163h17.697v-3.163h-.04zm36.598-25.04c5.687 0 8.397 3.353 8.51 10.205h-17.244c.414-6.626 3.54-10.203 8.735-10.203m13.895 18.262H360.9c-1.432 4.856-4.707 7.417-9.602 7.417-6.1 0-9.413-4.03-9.413-11.673v-.452h23.758c-.075-10.956-5.233-16.792-14.722-16.792-9.148 0-15.248 6.476-15.248 16.303 0 9.94 6.288 16.266 15.25 16.266 7.718.036 12.275-3.69 13.743-11.07zm23.645-2.45h-2.937c0 6.816-.828 9.753-4.67 9.753-2.107 0-3.086-1.13-3.086-3.502v-20.97h9.225v-3.163h-9.225v-11.974h-3.012c-.564 7.832-3.012 11.747-7.87 11.974v3.163h5.385v20.972c0 4.405 2.937 7.23 7.568 7.23 6.213 0 8.66-3.992 8.66-12.728l-.038-.753zm52.412-14.796h.828v-3.087h-13.404v3.087h1.996c2.033 0 2.937.264 2.937 1.28 0 .565-.19 1.47-.565 2.485l-6.627 16.49-6.59-17.094c-.262-.564-.375-1.092-.375-1.656 0-1.355.98-1.47 3.088-1.47h1.846v-3.087h-15.06V325h1.393c2.107 0 2.898.904 3.538 2.675l.452 1.167-6.626 16.38-6.665-17.096c-.265-.64-.453-1.092-.453-1.58 0-1.093.828-1.545 2.447-1.545h2.108v-3.087h-14.685V325h1.167c2.297 0 3.012.942 3.916 3.314l9.526 24.173h3.652l7.38-18.713 7.38 18.713h3.65l9.414-23.797c1.016-2.558 1.958-3.726 4.33-3.726M468.17 337.012c0 8.396-3.765 12.952-10.392 12.952-6.59 0-10.393-4.556-10.393-12.952s3.766-12.99 10.393-12.99c6.59 0 10.392 4.595 10.392 12.99m-26.996 0c0 9.677 7.003 16.23 16.604 16.23 9.6 0 16.604-6.553 16.604-16.23s-6.965-16.303-16.604-16.303c-9.6.037-16.604 6.626-16.604 16.302zm55.35-8.02c0 1.81 1.542 3.276 3.575 3.276 2.258 0 3.915-1.845 3.915-4.556 0-3.69-2.86-6.777-7.305-6.777-3.99 0-7.003 2.41-9.225 7.23v-6.29h-11.483v3.088h1.807c3.463 0 4.18.754 4.18 3.728v16.644c0 2.938-.717 3.652-4.18 3.652H476v3.125h18.713v-3.124h-3.125c-3.465 0-4.104-.715-4.104-3.652v-7.19c0-8.812 4.255-14.233 8.96-14.233 1.47 0 2.562.528 3.616 1.884h-.377c-1.92 0-3.162 1.354-3.162 3.2m17.96 16.34v-3.84l5.31-4.03L528 346.39c.527.525.79.94.79 1.43 0 .753-1.204 1.205-3.65 1.205h-1.658v3.125h18.337v-3.125h-.98c-2.41 0-4.556-.94-6.362-2.9l-10.693-11.784 8.095-6.55c2.56-2.034 4.405-2.75 7.305-2.75h.94v-3.162h-18.9v3.163h2.937c2.297 0 3.39.19 3.39.98 0 .828-.716 1.58-1.92 2.56l-11.146 8.812V309.15H503.38v3.088h1.73c3.464 0 4.104.715 4.104 3.652v29.48c0 2.938-.64 3.653-4.104 3.653h-1.73v3.125h16.68v-3.125h-1.395c-3.506-.037-4.182-.715-4.182-3.69"/></svg>