<svg xmlns="http://www.w3.org/2000/svg" width="14.996" height="12.103" viewBox="0 0 14.996 12.103"><path fill="#fff" d="M14.996 1.315c-.526.264-1.14.438-1.754.526.614-.35 1.14-.964 1.315-1.665-.613.35-1.228.614-1.93.79C12.104.35 11.228 0 10.35 0 8.682 0 7.28 1.403 7.28 3.07c0 .263 0 .437.086.7C4.823 3.685 2.543 2.457 1.053.527c-.264.44-.44.965-.44 1.58 0 1.05.527 2.016 1.404 2.542-.526 0-.965-.176-1.403-.35 0 1.49 1.052 2.717 2.455 2.98-.263.09-.527.09-.79.09-.176 0-.35 0-.614-.09.352 1.23 1.49 2.105 2.895 2.105-1.052.79-2.367 1.315-3.857 1.315H0c1.404.877 2.982 1.403 4.736 1.403 5.7 0 8.77-4.647 8.77-8.77v-.437c.525-.437 1.052-.963 1.49-1.578z"/></svg>