<svg xmlns="http://www.w3.org/2000/svg" width="700" height="223.227" viewBox="8.9 115.108 700 223.227" enable-background="new 8.9 115.108 700 223.227"><g fill="#fff"><path d="M369.36 257.13c3.902 1.772 8.156 2.658 12.767 2.658 4.433 0 8.865-.886 12.766-2.66 3.9-1.596 7.447-4.076 10.46-7.09 3.015-3.016 5.32-6.562 7.093-10.462s2.66-8.155 2.66-12.766c0-4.433-.887-8.865-2.66-12.766s-4.078-7.447-7.092-10.46c-3.015-3.016-6.56-5.32-10.46-7.093-3.902-1.772-8.158-2.658-12.767-2.658-4.61 0-8.865.886-12.766 2.66s-7.446 4.076-10.46 7.09-5.32 6.562-7.092 10.462-2.66 8.333-2.66 12.766c0 4.432.887 8.865 2.66 12.766 1.594 3.9 4.077 7.447 7.092 10.46s6.56 5.32 10.46 7.093zm-4.61-37.767c1.065-2.483 2.307-4.432 3.9-6.205 1.597-1.773 3.547-3.19 5.85-4.256 2.308-1.062 4.79-1.594 7.448-1.594 2.66 0 5.143.532 7.447 1.594 2.307 1.065 4.256 2.483 5.853 4.256 1.594 1.95 3.015 3.9 3.9 6.205 1.064 2.305 1.42 4.788 1.42 7.624 0 2.838-.356 5.32-1.42 7.625-1.064 2.48-2.306 4.433-3.9 6.206-1.597 1.773-3.546 3.19-5.853 4.256-2.304 1.063-4.787 1.594-7.447 1.594s-5.14-.53-7.447-1.594c-2.303-1.065-4.253-2.483-5.85-4.256-1.593-1.773-3.014-3.9-3.9-6.206-1.062-2.483-1.417-4.966-1.417-7.625 0-2.66.53-5.32 1.417-7.624zM51.63 230.887c-.177 1.952-.708 3.725-1.418 5.498-.71 1.594-1.773 3.19-3.015 4.433-1.242 1.24-2.66 2.304-4.253 3.014-1.597.708-3.37 1.063-5.32 1.063-3.013 0-5.675-.887-8.156-2.836-1.773-1.242-3.19-3.015-4.256-5.144-1.062-2.128-1.594-4.077-1.594-6.03v-70.212H8.9v71.278c.176 1.95.355 3.546.71 4.788.177 1.063.708 2.305 1.063 3.546 1.063 2.836 2.483 5.14 4.256 7.447 1.772 2.304 3.9 4.253 6.205 5.85 2.483 1.597 4.964 2.836 7.623 3.546 2.838.71 5.674 1.24 8.512 1.24 2.836 0 5.674-.354 8.333-1.24 1.95-.71 3.722-1.243 5.32-2.13l1.948 3.547h12.946v-87.59c0-4.432 0-7.802.176-10.106h-14.54v70.035h.178zM124.857 206.773c-1.242-2.48-3.19-4.61-5.32-6.56-2.304-1.95-4.61-3.368-7.09-4.254-2.484-1.066-5.32-1.598-8.334-1.953-3.015-.176-5.674.18-8.157 1.065-.708.176-1.594.355-2.48.708-.71.355-1.597.71-2.307 1.065l-2.836-1.952h-14.01V258.9h14.008v-38.65c0-1.598.355-3.192 1.062-4.79.71-1.593 1.597-3.014 2.66-4.076 1.952-2.128 4.432-3.546 7.092-4.078 1.242-.355 2.662-.355 3.9-.18 1.42.356 2.66.71 3.726 1.066 2.483 1.062 4.256 2.835 5.495 5.32.355 1.062.887 2.127 1.242 3.545.178.355.178.708.178 1.063v40.604h14.005V218.65c0-2.124-.353-4.253-.886-6.38 0-1.95-.887-3.724-1.95-5.497zM183.722 199.68c-.886-.53-1.597-1.062-2.483-1.593-.71-.534-1.774-1.065-2.837-1.242-3.725-1.597-7.802-2.483-12.41-2.838-4.433 0-8.513.886-12.59 2.483-4.256 1.597-7.623 4.077-10.638 7.27-1.597 1.595-3.015 3.368-4.256 5.14-1.242 1.774-2.13 3.547-3.015 5.675-1.594 4.256-2.305 8.512-2.305 12.766 0 4.257.71 8.334 2.305 12.235.71 1.952 1.773 3.725 3.014 5.674 1.064 1.772 2.482 3.37 4.077 4.963 3.014 3.193 6.56 5.674 10.64 7.27 3.9 1.598 7.978 2.484 12.587 2.484 4.433-.18 8.688-1.065 12.413-2.838.353-.177.887-.356 1.24-.532.354-.18.71-.355 1.24-.532l2.84 2.836v.18h14.006v-97.874h-13.83v38.473zm-.355 34.753c-1.062 2.483-2.48 4.432-4.253 6.208-1.952 1.774-3.9 3.013-6.384 4.08-2.304 1.06-4.788 1.417-7.092 1.24-2.483 0-4.788-.533-7.27-1.596-2.305-1.063-4.255-2.483-6.028-4.256-2.128-2.128-3.725-4.788-4.432-8.155-.71-3.37-.887-6.384-.355-9.043.176-.53.176-1.062.355-1.773.176-.708.353-1.24.53-1.773.356-1.062 1.064-2.128 1.595-3.37.534-1.24 1.597-1.95 2.483-2.835 1.773-1.95 3.9-3.37 6.03-4.257 1.062-.53 2.127-.886 3.366-1.062 1.242-.178 2.483-.354 3.725-.354 2.483 0 4.788.532 7.092 1.418 2.482 1.065 4.432 2.305 6.383 4.08 1.773 1.773 3.19 3.898 4.253 6.205 1.065 2.304 1.42 4.787 1.42 7.623 0 3.01-.532 5.494-1.42 7.62zM206.594 194.894H220.6v64.008h-14.006zM574.68 195.073c-.71-.18-1.242-.18-2.13-.18-1.24-.175-2.835-.175-4.253 0-1.42.18-2.838.535-4.08.888-.886.18-1.594.356-2.48.71l-2.128 1.064-3.016-2.836h-14.007v64.008h14.007v-36.88c0-1.24.177-2.482.355-3.545.352-1.24.53-2.127.707-2.482.354-.71.71-1.418 1.064-1.95.356-.533.888-1.064 1.243-1.596 2.125-2.128 4.432-3.546 7.092-3.9 1.24-.177 2.48-.356 3.9-.177.354 0 .887.176 1.418.353l3.9-12.942c-.176-.357-.884-.533-1.594-.533zM636.735 217.235c-.176-1.063-.353-1.95-.707-2.836-.18-.887-.532-1.953-.887-2.84-1.24-3.72-3.545-6.912-6.383-9.75-2.836-2.835-5.85-4.788-9.396-6.03-2.127-.707-4.432-1.238-6.738-1.593-2.305-.355-4.433-.355-6.558-.355-1.952 0-3.726.176-5.322.355-1.594.176-2.48.355-3.012.708-1.95.534-3.548 1.242-5.143 2.128-1.597.887-3.19 1.952-4.787 2.838-3.37 2.305-5.85 5.14-7.98 8.334-1.95 3.19-3.37 6.56-4.08 10.106-.706 3.546-.886 7.092-.53 10.814.355 3.546 1.24 7.092 2.66 10.46 1.42 3.37 3.37 6.562 5.853 9.22 2.48 2.84 5.318 4.965 8.686 6.738 1.596.887 3.37 1.597 5.142 2.128 3.546 1.065 7.27 1.597 10.816 1.597 3.015 0 5.85-.355 8.51-1.062 2.66-.71 5.143-1.597 7.447-3.015 3.37-1.952 6.205-4.08 8.688-6.74l-10.638-9.395c-.71.886-1.42 1.596-2.128 2.483-.71.708-1.597 1.418-2.483 1.95-1.95 1.24-3.9 1.948-6.03 2.482-.352.176-1.06.176-1.593.176-.53.176-1.064.176-1.596.176s-1.063-.176-1.595-.176c-.534-.176-1.066-.176-1.598-.176-1.95-.18-3.725-1.065-5.85-2.128-1.952-1.065-3.546-2.483-4.967-4.077-1.418-1.775-2.48-3.548-3.367-5.498-.354-.71-.533-1.242-.71-1.95-.177-.533-.177-1.24-.355-1.95l1.418-1.243h45.924v-6.737c-.176-1.418-.176-2.66-.354-3.37-.177-.53-.177-1.062-.355-1.772zm-43.085-1.063l-.53-1.596c1.24-1.594 2.482-2.836 3.9-3.9 1.24-1.063 3.015-1.95 4.787-2.66 1.773-.532 3.37-.708 5.143-.708 1.773.176 3.546.353 5.14.708 1.598.355 3.016 1.065 4.257 1.597 1.24.708 2.128 1.417 3.015 2.128 1.24 1.243 2.128 2.837 2.836 4.254H593.65v.178zM695.07 161.03v38.65c-.888-.53-1.595-1.062-2.48-1.593-.71-.534-1.776-1.065-2.84-1.242-3.722-1.597-7.802-2.483-12.41-2.838-4.433 0-8.512.886-12.59 2.483-4.256 1.597-7.623 4.077-10.638 7.27-1.597 1.595-3.015 3.368-4.256 5.14s-2.128 3.547-3.015 5.675c-1.593 4.256-2.304 8.512-2.304 12.766 0 4.257.71 8.334 2.305 12.235.71 1.952 1.774 3.725 3.016 5.674 1.065 1.772 2.483 3.37 4.077 4.963 3.015 3.193 6.56 5.674 10.64 7.27 3.9 1.598 7.98 2.484 12.588 2.484 4.436-.18 8.69-1.065 12.414-2.838.353-.177.887-.356 1.24-.532.353-.18.71-.355 1.24-.532l2.838 2.836v.18H708.9v-97.874c0-.18-13.83-.18-13.83-.18zm-.178 73.403c-1.064 2.483-2.482 4.432-4.256 6.208-1.95 1.774-3.9 3.013-6.382 4.08-2.307 1.06-4.787 1.417-7.094 1.24-2.48 0-4.788-.533-7.27-1.596-2.303-1.063-4.255-2.483-6.027-4.256-2.13-2.128-3.723-4.788-4.433-8.155-.71-3.37-.887-6.384-.355-9.043.18-.53.18-1.062.355-1.773.176-.708.354-1.24.53-1.773.356-1.062 1.066-2.128 1.598-3.37.71-1.062 1.597-1.95 2.483-2.835 1.773-1.95 3.9-3.37 6.027-4.257 1.065-.53 2.128-.886 3.37-1.062 1.24-.178 2.482-.354 3.722-.354 2.482 0 4.786.532 7.093 1.418 2.48 1.065 4.433 2.305 6.382 4.08 1.773 1.773 3.19 3.898 4.256 6.205 1.064 2.304 1.42 4.787 1.42 7.623 0 3.01-.53 5.494-1.418 7.62zM220.778 173.442c-.176-.355-.532-.71-.887-1.065-.175-.176-.352-.355-.53-.53-1.773-1.774-4.077-3.902-4.433-4.965H212.623c-.355 1.063-2.838 3.19-4.433 4.964-.18.176-.355.355-.53.53-.356.356-.71.71-.887 1.066-.18.176-.355.53-.355.708-.71 1.242-1.24 2.838-1.24 4.433 0 2.483.885 4.432 2.482 6.205 1.594 1.597 3.722 2.483 6.206 2.483 2.48 0 4.432-.886 6.205-2.482 1.595-1.594 2.482-3.722 2.482-6.205-.176-1.594-.532-3.19-1.24-4.433-.355-.177-.355-.532-.534-.708zM534.43 217.235c-.177-1.063-.353-1.95-.708-2.836-.354-.887-.53-1.953-.887-2.84-1.24-3.72-3.546-6.912-6.384-9.75-2.835-2.835-5.85-4.788-9.395-6.03-2.128-.707-4.432-1.238-6.736-1.593-2.308-.355-4.436-.355-6.562-.355-1.95 0-3.725.176-5.32.355-1.595.176-2.48.355-3.013.708-1.952.534-3.546 1.242-5.143 2.128-.71.355-1.242.71-1.952 1.242-4.785-18.97-14.538-36.348-28.546-50.532-20.744-20.923-48.225-32.624-77.48-32.624-29.254 0-56.914 11.7-77.482 32.623-20.744 21.1-32.092 49.114-32.092 78.9v.71c-.18-.177-.355-.356-.53-.71-3.016-3.545-6.74-5.852-11.704-7.446l-10.106-3.015c-1.242-.355-2.305-1.065-3.015-1.952-.71-.886-1.063-1.594-1.063-2.48 0-1.242.708-2.483 1.95-3.37 1.24-1.063 2.835-1.418 4.963-1.418 1.065 0 1.952.176 3.015.708 1.065.534 1.773 1.065 2.483 1.773l9.75-10.106c-4.076-3.898-9.042-5.85-15.07-5.85-3.013 0-5.673.354-8.156 1.417-2.483.887-4.788 2.128-6.56 3.9-1.95 1.598-3.368 3.547-4.434 5.854-1.062 2.304-1.596 4.608-1.596 7.092 0 4.077 1.24 7.623 3.9 10.814 2.66 3.193 6.03 5.32 10.286 6.74l10.106 3.014c1.95.353 3.366 1.24 4.432 2.48 1.063 1.242 1.597 2.483 1.597 3.725 0 1.95-1.066 3.546-2.84 5.14-1.948 1.42-4.255 2.128-6.736 2.128-2.838 0-5.143-.707-6.916-2.127-1.773-1.418-2.835-3.012-2.835-4.964h-13.83c0 3.014.71 5.673 1.948 8.156 1.243 2.48 2.84 4.788 5.144 6.56 2.128 1.95 4.788 3.368 7.625 4.433 2.835 1.062 5.85 1.593 9.22 1.593 3.19 0 6.204-.53 9.04-1.773 2.838-1.062 5.32-2.66 7.447-4.432s3.725-3.9 4.788-6.206c3.9 22.165 14.362 42.377 30.32 58.688 20.743 21.1 48.227 32.624 77.48 32.624 29.256 0 56.916-11.703 77.484-32.624 14.006-14.362 23.934-31.915 28.72-51.242.712.355 1.243.71 1.953 1.063 1.594.888 3.367 1.598 5.14 2.13 3.546 1.064 7.27 1.596 10.816 1.596 3.014 0 5.85-.355 8.51-1.062 2.66-.71 5.142-1.597 7.446-3.015 3.37-1.953 6.205-4.08 8.688-6.74l-10.638-9.396c-.71.886-1.42 1.596-2.128 2.483-.71.708-1.597 1.418-2.483 1.95-1.95 1.24-3.9 1.948-6.026 2.482-.356.175-1.066.175-1.598.175-.53.176-1.065.176-1.597.176s-1.062-.175-1.594-.175c-.533-.176-1.064-.176-1.596-.176-1.95-.18-3.725-1.066-5.85-2.13-1.953-1.064-3.547-2.482-4.967-4.076-.354-.355-.532-.71-.887-1.065.354-3.015.533-6.206.533-9.397h43.262v-6.74c-.177-1.417-.177-2.658-.355-3.366-1.06-.71-1.24-1.242-1.24-1.952zm-74.998 88.476c-20.568 20.922-48.05 32.625-77.305 32.625-29.256 0-56.56-11.524-77.305-32.624-16.135-16.31-26.418-36.523-30.32-58.864 1.242-2.483 1.774-5.143 1.774-7.98 0-3.9-1.065-7.624-3.546-10.815v-1.064c0-29.61 11.348-57.8 31.914-78.723 20.568-20.92 48.406-32.623 77.483-32.623 29.254 0 56.56 11.524 77.305 32.623 14.007 14.184 23.58 31.56 28.546 50.532-.71.355-1.597 1.065-2.483 1.597-3.37 2.305-5.85 5.143-7.978 8.333-.18.176-.18.355-.355.708-3.546-19.503-12.59-37.41-26.773-51.77-18.262-18.62-42.554-28.726-68.44-28.726s-50.178 10.285-68.44 28.725c-13.475 13.83-22.34 30.85-26.24 49.29-1.066 1.418-2.13 3.015-3.016 4.788-2.304 4.432-3.37 9.572-3.37 15.425 0 3.722.534 7.268 1.597 10.638 1.064 2.838 2.484 5.674 4.434 8.333 3.546 19.15 12.766 36.703 26.597 50.71 18.262 18.616 42.552 28.723 68.44 28.723s50.178-10.284 68.44-28.724c14.36-14.542 23.582-32.98 26.948-53.015 1.065 1.95 2.483 3.902 4.08 5.496 1.95 2.128 4.254 3.9 6.56 5.498-4.612 18.972-14.363 36.525-28.546 50.887zm-160.284-67.02c-.887-1.242-1.597-2.66-2.305-4.078-1.065-2.483-1.597-5.143-1.773-7.98 0-4.43 1.24-8.332 3.546-11.702.177-.176.353-.355.532-.71-.532 4.256-.887 8.333-.887 12.59.178 4.077.533 8.157.888 11.88zm-3.37 15.424c2.66 1.773 5.5 3.015 8.513 4.078 4.254 10.816 10.46 20.747 18.617 29.08 15.78 16.133 36.88 25 59.22 25 22.34 0 43.44-8.867 59.22-25 15.778-16.135 24.467-37.59 24.467-60.285 0-4.254-.355-8.333-.887-12.232l6.736-19.86h-12.056c-4.256-10.46-10.282-20.034-18.44-28.19-15.78-16.136-36.878-25-59.22-25-22.337 0-43.437 8.864-59.217 25-8.157 8.332-14.362 18.083-18.618 28.724-3.9 1.06-7.624 2.834-10.814 5.318-1.597 1.24-3.014 2.48-4.256 3.9 3.9-17.376 12.59-33.51 25.355-46.454 18.085-18.44 42.02-28.37 67.55-28.37 25.535 0 49.47 10.106 67.554 28.546 14.186 14.54 23.23 32.802 26.6 52.483-1.243 2.48-2.13 5.14-2.84 7.624-.707 3.546-.886 7.092-.53 10.816.354 3.546 1.24 7.092 2.658 10.46.177.71.532 1.24.887 1.95-3.015 20.39-12.234 39.184-26.95 53.9-18.084 18.44-42.02 28.547-67.553 28.547-25.53 0-49.47-10.106-67.554-28.546-13.12-13.3-21.807-29.788-25.53-47.52 2.127 2.308 4.43 4.436 7.09 6.03zm167.73-27.128c-.178 22.164-8.51 42.908-23.934 58.688-15.426 15.604-35.817 24.29-57.448 24.29-21.81 0-42.198-8.51-57.447-24.29-7.624-7.623-13.477-16.667-17.554-26.594 1.242.176 2.483.353 3.546.708 1.952.18 3.546.18 5.498 0 .708-.176 1.594-.176 2.48-.355 3.37 6.74 7.803 13.12 13.3 18.795 13.474 13.652 31.206 21.278 50.177 21.278s36.88-7.447 50.177-21.278c5.674-5.674 10.105-12.234 13.476-19.326h3.9l13.298-38.83c.53 2.305.53 4.61.53 6.914zm-81.38 46.278c23.758 0 43.26-18.618 45.212-42.022l4.787 14.184c-7.447 20.923-27.128 35.817-50.18 35.817-20.388 0-38.296-11.88-47.16-29.078 2.127-1.773 4.077-3.9 5.673-6.205 7.447 16.133 23.227 27.304 41.667 27.304zm-39.01-46.278c0-21.986 17.554-39.892 39.185-39.892 21.633 0 39.184 17.906 39.184 39.892 0 21.985-17.55 39.894-39.184 39.894-21.63 0-39.184-17.906-39.184-39.894zm71.987-31.913c-8.333-8.865-19.857-14.362-32.802-14.362-18.44 0-34.22 11.17-41.312 27.13-1.593-2.306-3.545-4.434-5.673-6.03 8.865-17.198 26.597-28.9 46.986-28.9 17.554 0 33.157 8.687 42.91 22.163h-10.108zm-76.063 17.374c-1.597 4.61-2.307 9.575-2.307 14.54s.71 9.752 2.128 14.36l-8.687-4.787c-.18.18-.18.355-.355.53-.53-3.366-.885-6.557-.885-9.926 0-3.546.355-6.737 1.062-10.106.18.176.18.355.18.355l8.865-4.966zM330.885 255c9.93 18.62 29.078 31.207 51.418 31.207 23.05 0 43.264-13.83 52.483-33.687l2.128 6.382h4.785c-3.013 6.03-7.093 11.703-12.057 16.667-12.766 12.943-29.608 20.035-47.517 20.035-18.084 0-34.93-7.092-47.517-20.036-4.967-5.144-9.044-10.64-12.06-16.844 1.42-.355 2.84-.71 4.078-1.42 1.42-.71 2.84-1.42 4.257-2.305zm113.298-21.806h-1.594l-2.13-6.208c0-32.624-26.24-59.218-58.333-59.218-22.164 0-41.312 12.587-51.242 31.026-2.836-1.594-5.495-2.835-8.51-3.546 3.015-6.03 7.092-11.7 12.056-16.667 12.767-12.94 29.612-20.033 47.518-20.033 18.087 0 34.93 7.092 47.52 20.034 10.813 10.994 17.553 25.18 19.326 40.426l-4.61 14.188zm-120.39-22.875c.71.354 1.597 1.064 2.128 1.596-1.24 4.788-1.95 9.93-1.95 15.25 0 5.142.71 10.105 1.95 14.893-.53.354-1.064.886-1.596 1.24-1.95 1.42-4.253 2.305-6.56 2.837-1.774-6.206-2.66-12.59-2.66-19.15 0-6.558.886-12.942 2.66-19.147 1.952.53 3.9 1.416 6.03 2.48zm127.837 1.24c-2.836-13.473-9.396-25.707-19.147-35.637-13.477-13.652-31.385-21.275-50.18-21.275-18.97 0-36.88 7.447-50.176 21.275-5.32 5.498-9.93 11.703-13.12 18.62-3.902-.535-7.624-.535-11.35.175 4.08-9.75 9.93-18.616 17.378-26.242 15.425-15.602 35.814-24.29 57.447-24.29 21.807 0 42.198 8.51 57.445 24.29 7.625 7.625 13.476 16.667 17.553 26.418l-5.85 16.667zm-137.767-4.077c-1.773 6.206-2.66 12.942-2.66 19.503 0 6.74.887 13.12 2.66 19.505-2.304 0-4.432-.354-6.38-1.24-1.953-.71-3.726-1.95-5.32-3.192-.886-4.966-1.24-9.93-1.24-15.072 0-5.32.354-10.46 1.417-15.425 1.24-.886 2.483-1.593 3.9-2.304 2.483-1.24 4.964-1.773 7.623-1.773zm177.13 31.03c-.888-1.242-1.598-2.484-2.13-3.902-.354-.71-.533-1.24-.71-1.95-.176-.532-.176-1.243-.354-1.95l1.417-1.242h2.483c-.355 3.192-.355 6.03-.708 9.044zm.352-22.34l-.177-.18c-.176-.53-.176-1.062-.176-1.773 1.062-1.417 2.305-2.66 3.546-3.546 1.24-1.062 3.012-1.95 4.785-2.66 1.597-.53 3.37-.707 5.143-.707 1.772.176 3.546.353 5.143.708s3.014 1.065 4.255 1.597c1.24.708 2.126 1.417 3.012 2.128 1.242 1.242 2.128 2.836 2.84 4.253h-28.37v.18z"/></g><path fill="none" d="M382.127 187.094c-21.63 0-39.184 17.906-39.184 39.892 0 21.985 17.553 39.894 39.184 39.894 21.63 0 39.184-17.91 39.184-39.894 0-21.986-17.552-39.892-39.183-39.892zm0 73.05c-18.084 0-32.623-14.895-32.623-33.158 0-18.26 14.54-33.155 32.623-33.155 18.085 0 32.624 14.895 32.624 33.156 0 18.263-14.538 33.157-32.623 33.157z"/><linearGradient id="a" gradientUnits="userSpaceOnUse" x1="573.808" y1="-346.261" x2="573.808" y2="-346.261" gradientTransform="matrix(.439 0 0 .439 235.681 274.551)"><stop offset=".153" stop-color="#FBC61A"/><stop offset=".556" stop-color="#7A600D"/><stop offset=".85" stop-color="#221B04"/><stop offset=".982"/></linearGradient><path fill="url(#a)" d="M487.268 122.732"/><linearGradient id="b" gradientUnits="userSpaceOnUse" x1="1014.78" y1="2454.732" x2="958.005" y2="2626.267" gradientTransform="matrix(.292 -.327 .327 .292 -749.389 -247.199)"><stop offset=".692" stop-color="#FBC61A"/><stop offset=".722" stop-color="#FCCF40"/><stop offset=".774" stop-color="#FDDE79"/><stop offset=".823" stop-color="#FEEAA9"/><stop offset=".87" stop-color="#FEF3CE"/><stop offset=".913" stop-color="#FFFAE9"/><stop offset=".952" stop-color="#FFFEF9"/><stop offset=".982" stop-color="#fff"/></linearGradient><path fill="url(#b)" d="M408.9 197.732l4.253-4.788c-17.55-16.49-43.792-16.135-60.814-.886l4.077 4.787c14.538-13.12 37.59-13.12 52.483.887z"/><linearGradient id="c" gradientUnits="userSpaceOnUse" x1="1073.529" y1="2441.429" x2="1020.309" y2="2602.54" gradientTransform="matrix(.288 -.324 .324 .29 -736.792 -250)"><stop offset=".692" stop-color="#FBC61A"/><stop offset=".722" stop-color="#FCCF40"/><stop offset=".774" stop-color="#FDDE79"/><stop offset=".823" stop-color="#FEEAA9"/><stop offset=".87" stop-color="#FEF3CE"/><stop offset=".913" stop-color="#FFFAE9"/><stop offset=".952" stop-color="#FFFEF9"/><stop offset=".982" stop-color="#fff"/></linearGradient><path fill="url(#c)" d="M376.098 115.995c18.084-1.065 35.816 2.304 51.95 9.928 9.753 4.61 19.325 10.816 27.482 18.44l.177-.177c-21.986-19.857-48.404-30.143-79.43-28.546-24.47 1.24-47.166 10.816-65.25 26.418l.176.176c18.088-15.6 40.426-24.997 64.895-26.24z"/><linearGradient id="d" gradientUnits="userSpaceOnUse" x1="1026.81" y1="2452.906" x2="971.521" y2="2619.945" gradientTransform="matrix(.292 -.327 .327 .292 -749.389 -247.199)"><stop offset=".692" stop-color="#FBC61A"/><stop offset=".722" stop-color="#FCCF40"/><stop offset=".774" stop-color="#FDDE79"/><stop offset=".823" stop-color="#FEEAA9"/><stop offset=".87" stop-color="#FEF3CE"/><stop offset=".913" stop-color="#FFFAE9"/><stop offset=".952" stop-color="#FFFEF9"/><stop offset=".982" stop-color="#fff"/></linearGradient><path fill="url(#d)" d="M418.12 187.094l3.367-3.725c-21.985-20.745-55.67-20.745-77.657-1.064l3.367 3.9c20.212-17.906 50.886-18.085 70.923.888z"/><linearGradient id="e" gradientUnits="userSpaceOnUse" x1="1067.228" y1="2440.721" x2="1014.095" y2="2601.248" gradientTransform="matrix(.292 -.327 .327 .292 -749.389 -247.199)"><stop offset=".692" stop-color="#FBC61A"/><stop offset=".722" stop-color="#FCCF40"/><stop offset=".774" stop-color="#FDDE79"/><stop offset=".823" stop-color="#FEEAA9"/><stop offset=".87" stop-color="#FEF3CE"/><stop offset=".913" stop-color="#FFFAE9"/><stop offset=".952" stop-color="#FFFEF9"/><stop offset=".982" stop-color="#fff"/></linearGradient><path fill="url(#e)" d="M377.163 130.002c25.708-1.242 49.466 7.447 68.972 25l1.062-.71c-19.857-18.084-44.15-26.773-70.213-25.532-21.81 1.063-41.843 9.575-57.98 23.58l.888 1.065c16.312-14.007 35.638-22.34 57.27-23.403z"/><linearGradient id="f" gradientUnits="userSpaceOnUse" x1="1053.242" y1="2445.595" x2="999.697" y2="2607.369" gradientTransform="matrix(.292 -.327 .327 .292 -749.389 -247.199)"><stop offset=".692" stop-color="#FBC61A"/><stop offset=".722" stop-color="#FCCF40"/><stop offset=".774" stop-color="#FDDE79"/><stop offset=".823" stop-color="#FEEAA9"/><stop offset=".87" stop-color="#FEF3CE"/><stop offset=".913" stop-color="#FFFAE9"/><stop offset=".952" stop-color="#FFFEF9"/><stop offset=".982" stop-color="#fff"/></linearGradient><path fill="url(#f)" d="M378.402 144.186c21.81-1.065 41.846 6.737 58.333 21.454l1.773-1.773c-17.198-15.78-36.88-22.696-59.396-22.164-18.97.355-38.12 8.512-51.95 20.744l1.594 1.952c14.895-12.767 31.74-19.504 49.646-20.214z"/><linearGradient id="g" gradientUnits="userSpaceOnUse" x1="1040.362" y1="2449.666" x2="985.957" y2="2614.038" gradientTransform="matrix(.292 -.327 .327 .292 -749.389 -247.199)"><stop offset=".692" stop-color="#FBC61A"/><stop offset=".722" stop-color="#FCCF40"/><stop offset=".774" stop-color="#FDDE79"/><stop offset=".823" stop-color="#FEEAA9"/><stop offset=".87" stop-color="#FEF3CE"/><stop offset=".913" stop-color="#FFFAE9"/><stop offset=".952" stop-color="#FFFEF9"/><stop offset=".982" stop-color="#fff"/></linearGradient><path fill="url(#g)" d="M378.58 158.548c18.086-.886 34.93 5.14 49.115 17.906l2.48-3.012c-15.07-13.83-32.623-19.68-51.773-18.795-16.133.708-30.85 7.268-42.73 17.73l2.484 3.014c10.282-9.395 25-16.134 40.425-16.842z"/><g fill="#fff"><path d="M505.707 279.824h-9.043c-.354 0-.708.176-.708.708v16.49c0 .356.176.71.708.71h.18c.353 0 .706-.178.706-.71v-7.978h7.803c.354 0 .71-.18.71-.71v-.176c0-.355-.18-.71-.71-.71h-7.803v-6.205h8.334c.354 0 .71-.176.71-.71v-.176c-.177-.178-.355-.533-.887-.533zM512.268 284.433c-3.015 0-4.61 1.065-4.61 3.37v6.916c0 2.127 1.42 3.366 4.61 3.366 3.015 0 4.608-1.062 4.608-3.367v-7.093c0-2.13-1.418-3.194-4.608-3.194zm0 12.058c-3.015 0-3.015-1.24-3.015-1.95v-6.914c0-.534 0-1.952 3.015-1.952s3.015 1.242 3.015 1.952v6.913c0 .53 0 1.95-3.015 1.95zM528.404 284.612c-.53 0-.71.176-.71.708v9.93c-.71.355-1.95 1.242-3.723 1.242-1.596 0-2.306-.71-2.306-1.952v-9.396c0-.355-.177-.71-.708-.71h-.18c-.354 0-.707.18-.707.71v9.396c0 2.128 1.417 3.37 3.9 3.37 1.24 0 2.66-.355 3.722-1.065v.18c0 .354.18.71.71.71s.708-.18.708-.71V285.32c0-.532-.175-.708-.706-.708zM540.99 285.32c-.708-.708-1.595-1.062-3.015-1.062-1.773 0-3.012.53-3.898 1.062v-.176c0-.355-.18-.71-.71-.71-.532 0-.71.18-.71.71v11.703c0 .353.178.708.71.708h.176c.355 0 .71-.176.71-.708v-9.93c.71-.355 1.95-1.242 3.9-1.242 1.598 0 2.306.71 2.306 1.952v9.396c0 .355.178.71.71.71h.175c.355 0 .71-.18.71-.71v-9.396c-.178-.89-.355-1.597-1.065-2.307zM553.756 279.47c-.53 0-.708.175-.708.71v5.318c-.887-.534-2.128-1.065-3.9-1.065-2.84 0-3.9 1.597-3.9 3.37v6.916c0 2.124 1.417 3.366 3.9 3.366 1.597 0 3.014-.53 3.9-1.062v.176c0 .355.177.71.708.71.355 0 .71-.18.71-.71v-16.667l.177-.176-.353-.71-.534-.178zm-.887 7.623v7.98c-.71.354-1.95 1.24-3.9 1.24-1.596 0-2.306-.708-2.306-1.95v-6.736c0-1.24.887-1.952 2.307-1.952 1.95.176 3.19 1.063 3.9 1.418zM558.722 294.54c-.53 0-.71.178-.71.71v1.948c0 .355.18.71.71.71h.177c.353 0 .71-.176.71-.71v-1.95c-.357-.53-.533-.71-.888-.71zM578.404 296.312h-7.626v-15.78c0-.353-.176-.708-.707-.708-.354 0-.71.176-.71.708v16.49c0 .356.177.71.71.71h8.334c.353 0 .708-.178.708-.71v-.178c-.177-.353-.356-.532-.708-.532zM585.317 284.433c-3.015 0-4.608 1.065-4.608 3.37v6.916c0 2.127 1.417 3.366 4.607 3.366 3.015 0 4.61-1.062 4.61-3.367v-7.093c0-2.13-1.417-3.194-4.61-3.194zm0 12.058c-3.015 0-3.015-1.24-3.015-1.95v-6.914c0-.534 0-1.952 3.015-1.952s3.015 1.242 3.015 1.952v6.913c.178.53.178 1.95-3.015 1.95zM600.566 284.612h-.177c-.355 0-.355.176-.71.176l-.177.176-3.37 9.754-3.37-9.575c0-.18-.176-.53-.707-.53h-.18c-.354 0-.707.352-.707.707l4.076 11.88c0 .178.177.354.532.533l.71-.18.176-.175.18-.18 4.077-11.878v-.176c.356-.356 0-.532-.354-.532zM611.203 291.35c.355 0 .71-.177.71-.71v-3.013c-.18-2.307-1.597-3.37-4.787-3.37-3.015 0-4.61 1.063-4.61 3.37v6.913c0 2.128 1.42 3.37 4.61 3.37 3.015 0 4.608-1.065 4.608-3.37v-.708c0-.355-.176-.71-.708-.71-.354 0-.71.176-.71.71v.708c0 .532 0 1.952-3.015 1.952-3.01 0-3.01-1.242-3.01-1.952v-3.19h6.913zm-7.268-1.42v-2.304c0-.534 0-1.952 3.015-1.952 3.19 0 3.19 1.418 3.19 1.952v2.305h-6.205zM622.906 279.47c-.53 0-.71.175-.71.71v5.318c-.887-.534-2.13-1.065-3.9-1.065-2.837 0-3.902 1.597-3.902 3.37v6.916c0 2.124 1.42 3.366 3.9 3.366 1.598 0 3.016-.53 3.902-1.062v.176c0 .355.18.71.71.71.354 0 .71-.18.71-.71v-16.667c.177-.176.177-.353.177-.353-.177-.356-.355-.71-.887-.71zm-4.61 17.02c-1.596 0-2.306-.71-2.306-1.95v-6.914c0-1.24.887-1.952 2.305-1.952 1.952 0 3.193.887 3.9 1.242v7.98c-.706.71-1.948 1.595-3.9 1.595zM628.05 294.54c-.535 0-.71.178-.71.71v1.948c0 .355.175.71.71.71h.175c.355 0 .71-.176.71-.71v-1.95c-.178-.53-.533-.71-.886-.71zM646.134 288.513l-4.967-1.952c-.353-.175-1.594-.71-1.594-1.948v-1.242c0-1.065.354-2.304 3.722-2.304 3.37 0 3.725 1.062 3.725 2.304v1.242c0 .353.177.708.708.708.355 0 .71-.176.71-.708v-1.242c0-2.483-1.597-3.725-5.143-3.725s-5.14 1.242-5.14 3.725v1.242c0 1.773 1.24 2.835 2.48 3.367l4.966 1.95c.533.177 1.596.71 1.596 1.95v2.128c0 1.063-.355 2.304-3.9 2.304s-3.9-1.24-3.9-2.304v-1.062c0-.355-.178-.71-.71-.71h-.178c-.353 0-.708.176-.708.71v1.24c0 2.482 1.595 3.724 5.32 3.724 3.545 0 5.317-1.24 5.317-3.725v-2.125c.356-1.598-.53-2.84-2.303-3.547zM652.87 284.612c-.53 0-.71.176-.71.708v11.703c0 .355.18.71.71.71h.176c.355 0 .71-.18.71-.71V285.32c-.176-.532-.354-.708-.886-.708zM652.87 279.47c-.53 0-.71.175-.71.71v2.48c0 .355.18.71.71.71h.176c.355 0 .71-.18.71-.71v-2.48c-.176-.534-.354-.71-.886-.71zM665.46 284.612c-.71 0-.71.53-.71.708v.18c-1.063-.535-2.305-1.066-3.9-1.066-2.837 0-3.902 1.597-3.902 3.37v6.916c0 2.125 1.42 3.367 3.9 3.367 1.598 0 3.016-.53 3.9-1.062v2.835c0 .534 0 1.952-3.014 1.952h-3.366c-.355 0-.71.176-.71.708v.18c0 .353.176.706.71.706h3.366c3.015 0 4.61-1.062 4.61-3.367v-14.363c-.177-.534-.177-1.065-.884-1.065zm-4.61 1.24c1.95 0 3.192.886 3.9 1.24v7.98c-.708.355-1.95 1.24-3.9 1.24-1.596 0-2.306-.707-2.306-1.948v-6.737c0-1.242.887-1.776 2.305-1.776zM678.047 285.32c-.708-.708-1.595-1.062-3.013-1.062-1.775 0-3.015.53-3.9 1.062v-.176c0-.355-.18-.71-.71-.71-.355 0-.71.18-.71.71v11.703c0 .353.178.708.71.708h.176c.355 0 .71-.176.71-.708v-9.93c.71-.355 1.95-1.242 3.9-1.242 1.598 0 2.305.71 2.305 1.952v9.396c0 .355.18.71.71.71h.177c.355 0 .71-.18.71-.71v-9.396c-.18-.89-.532-1.597-1.065-2.307zM690.813 291.35c.354 0 .71-.177.71-.71v-3.013c-.177-2.307-1.597-3.37-4.787-3.37-3.015 0-4.61 1.063-4.61 3.37v6.913c0 2.128 1.42 3.37 4.61 3.37 3.014 0 4.61-1.065 4.61-3.37v-.708c0-.355-.18-.71-.71-.71-.354 0-.71.176-.71.71v.708c0 .532 0 1.952-3.012 1.952-3.015 0-3.015-1.242-3.015-1.952v-3.19h6.913zm-7.092-1.42v-2.304c0-.534 0-1.952 3.016-1.952 3.19 0 3.19 1.418 3.19 1.952v2.305h-6.205zM703.047 279.47h-.353c-.534 0-.71.175-.71.71v5.318c-.887-.534-2.13-1.065-3.9-1.065-2.837 0-3.902 1.597-3.902 3.37v6.916c0 2.124 1.418 3.366 3.9 3.366 1.598 0 3.016-.53 3.9-1.062v.176c0 .355.178.71.712.71.353 0 .707-.18.707-.71v-16.667l.18-.176-.18-.355-.353-.533zm-4.964 17.02c-1.597 0-2.305-.71-2.305-1.95v-6.914c0-1.24.887-1.952 2.305-1.952 1.95 0 3.19.887 3.9 1.242v7.98c-.71.71-2.127 1.595-3.9 1.595zM707.658 294.54c-.532 0-.71.178-.71.71v1.948c0 .355.178.71.71.71h.176c.355 0 .71-.176.71-.71v-1.95c-.18-.53-.53-.71-.886-.71z"/></g></svg>