<svg xmlns="http://www.w3.org/2000/svg" width="316.641" height="70" viewBox="262.342 262.852 316.641 70"><g fill="#585657"><path d="M375.43 307.387c1.224.556 2.56.834 4.004.834 1.39 0 2.78-.277 4.003-.833 1.223-.5 2.335-1.278 3.28-2.224s1.668-2.058 2.224-3.28c.557-1.224.835-2.558.835-4.003 0-1.39-.278-2.78-.834-4.003-.555-1.223-1.278-2.335-2.223-3.28s-2.057-1.668-3.28-2.224c-1.224-.556-2.557-.834-4.003-.834-1.445 0-2.78.277-4.003.833s-2.334 1.28-3.28 2.224-1.668 2.057-2.224 3.28c-.556 1.224-.834 2.613-.834 4.003s.278 2.78.834 4.002c.5 1.224 1.278 2.336 2.224 3.28.89.947 2.003 1.67 3.28 2.225zm-1.444-11.897c.333-.78.723-1.39 1.223-1.946.5-.556 1.11-1 1.834-1.335.722-.334 1.5-.5 2.335-.5s1.612.166 2.334.5c.722.332 1.333.778 1.834 1.334.5.61.945 1.223 1.223 1.946.334.723.446 1.5.446 2.39 0 .89-.11 1.668-.445 2.392-.332.778-.722 1.39-1.222 1.946s-1.112 1-1.834 1.333c-.723.335-1.5.502-2.335.502s-1.614-.167-2.336-.5c-.723-.334-1.335-.778-1.835-1.334-.5-.557-.946-1.224-1.224-1.946-.334-.778-.445-1.558-.445-2.39 0-.836.168-1.615.446-2.392zM275.74 299.16c-.055.61-.222 1.167-.444 1.723-.223.5-.556 1-.945 1.39-.39.39-.833.723-1.333.945-.5.223-1.057.333-1.668.333-.946 0-1.78-.276-2.558-.888-.556-.39-1-.945-1.335-1.612-.333-.668-.5-1.28-.5-1.89V277.14h-4.615v22.35c.055.612.11 1.112.223 1.502.055.333.222.723.333 1.112.333.89.78 1.612 1.335 2.335.556.724 1.223 1.335 1.946 1.835.777.5 1.556.89 2.39 1.112.89.223 1.78.39 2.67.39.888 0 1.778-.11 2.612-.39.61-.222 1.167-.39 1.668-.667l.61 1.112h4.06v-8.952-1.112-3.336-4.56-5.003-4.505c0-1.39 0-2.446.055-3.17h-4.56v21.963h.055zM298.76 291.597c-.39-.778-1-1.446-1.67-2.057-.722-.612-1.444-1.057-2.223-1.334-.778-.334-1.667-.5-2.613-.612-.945-.055-1.78.056-2.558.334-.223.055-.5.11-.778.223-.223.11-.5.223-.723.334l-.89-.612h-4.393v20.07h4.393v-12.12c0-.5.11-1 .334-1.5.22-.5.5-.946.833-1.28.61-.667 1.39-1.112 2.224-1.278.39-.11.834-.11 1.223-.056.445.11.834.223 1.167.334.778.333 1.334.89 1.724 1.668.112.333.28.667.39 1.112.056.11.056.223.056.333v12.733h4.392v-12.565c0-.667-.11-1.335-.278-2.002 0-.61-.277-1.166-.61-1.723zM317.163 289.373c-.278-.167-.5-.333-.78-.5-.22-.167-.555-.334-.888-.39-1.168-.5-2.447-.78-3.892-.89-1.39 0-2.67.278-3.948.78-1.334.5-2.39 1.278-3.335 2.28-.5.5-.945 1.055-1.335 1.61-.39.557-.667 1.113-.945 1.78-.5 1.334-.723 2.67-.723 4.003 0 1.335.223 2.613.723 3.836.223.612.556 1.17.945 1.78.334.556.78 1.056 1.28 1.557.944 1 2.056 1.778 3.335 2.278 1.223.5 2.502.778 3.947.778 1.39-.056 2.725-.334 3.893-.89.11-.056.278-.11.39-.167.11-.056.222-.112.388-.167l.89.89V308h4.392v-30.69h-4.337v12.063zm-.055 10.898c-.334.78-.78 1.39-1.335 1.947-.61.556-1.223.945-2.002 1.278-.722.333-1.5.444-2.223.39-.778 0-1.5-.167-2.28-.5-.722-.334-1.333-.78-1.89-1.336-.667-.667-1.167-1.5-1.39-2.558-.223-1.057-.278-2.002-.11-2.836.055-.167.055-.333.11-.556.055-.222.11-.39.167-.556.11-.333.334-.667.5-1.056.167-.39.5-.612.778-.89.556-.61 1.224-1.057 1.89-1.334.335-.167.668-.278 1.058-.333.39-.054.778-.11 1.167-.11.778 0 1.5.167 2.224.445.78.334 1.392.723 2.003 1.28.556.555 1 1.222 1.335 1.945.333.723.444 1.5.444 2.39 0 .89-.167 1.724-.444 2.39zM324.39 287.872h4.393v20.07h-4.392zM439.816 287.928c-.222-.056-.39-.056-.667-.056-.39-.056-.89-.056-1.335 0-.445.056-.89.167-1.28.28-.276.054-.5.11-.777.22l-.667.335-.944-.89h-4.393v20.072h4.393v-11.566c0-.39.056-.78.11-1.112.112-.39.167-.667.224-.78.11-.22.222-.444.333-.61s.278-.334.39-.5c.667-.667 1.39-1.112 2.224-1.224.39-.055.778-.11 1.224-.055.112 0 .278.055.445.11l1.224-4.058c-.115-.112-.282-.167-.504-.167zM459.276 294.877c-.056-.333-.11-.61-.223-.89-.055-.277-.166-.61-.277-.89-.39-1.166-1.112-2.167-2-3.057-.892-.89-1.837-1.5-2.948-1.89-.668-.223-1.39-.39-2.113-.5s-1.39-.112-2.057-.112c-.61 0-1.168.055-1.668.11-.5.056-.78.112-.945.223-.612.168-1.112.39-1.613.668-.5.278-1 .612-1.5.89-1.057.723-1.835 1.613-2.503 2.613-.612 1-1.058 2.058-1.28 3.17-.222 1.112-.277 2.224-.166 3.39.11 1.114.39 2.226.834 3.28.445 1.06 1.057 2.06 1.835 2.894.778.89 1.668 1.557 2.725 2.112.5.278 1.056.5 1.612.667 1.112.334 2.28.5 3.392.5.945 0 1.834-.11 2.67-.333.833-.223 1.61-.5 2.334-.945 1.056-.61 1.946-1.278 2.724-2.113l-3.335-2.946c-.223.278-.445.5-.668.778-.222.222-.5.445-.777.61-.612.39-1.224.613-1.89.78-.112.055-.335.055-.502.055-.167.056-.333.056-.5.056s-.334-.057-.5-.057c-.167-.057-.334-.057-.5-.057-.612-.056-1.17-.334-1.836-.667-.61-.333-1.112-.778-1.557-1.278-.445-.556-.778-1.112-1.057-1.724-.11-.223-.167-.39-.223-.61-.056-.168-.056-.39-.11-.613l.444-.39h14.344v-2c-.056-.444-.056-.834-.11-1.057-.003-.276-.058-.498-.058-.666zm-13.51-.333l-.168-.5c.39-.5.778-.89 1.224-1.224.39-.333.945-.61 1.5-.834.557-.167 1.058-.222 1.613-.222.557.055 1.112.11 1.613.222.5.11.945.334 1.334.5.39.224.667.445.945.668.39.39.667.89.89 1.335h-8.952v.054zM477.57 277.252v12.12c-.28-.166-.502-.332-.78-.5-.222-.166-.556-.333-.89-.39-1.167-.5-2.445-.778-3.892-.89-1.39 0-2.67.28-3.947.78-1.333.5-2.39 1.28-3.335 2.28-.5.5-.945 1.056-1.334 1.612-.39.556-.667 1.112-.944 1.78-.5 1.333-.723 2.668-.723 4.002 0 1.335.222 2.613.723 3.836.222.612.556 1.17.945 1.78.334.556.778 1.056 1.28 1.557.944 1 2.057 1.778 3.335 2.278 1.223.5 2.502.778 3.947.778 1.39-.056 2.725-.334 3.893-.89.11-.056.277-.11.39-.167.11-.056.222-.112.39-.167l.89.89V308h4.39v-30.69h-4.335v-.058zm-.057 23.02c-.334.777-.778 1.39-1.335 1.945-.61.556-1.223.945-2 1.278-.724.333-1.503.444-2.226.39-.778 0-1.5-.167-2.28-.5-.722-.334-1.333-.78-1.89-1.336-.667-.667-1.167-1.5-1.39-2.558-.223-1.057-.278-2.002-.11-2.836.055-.167.055-.333.11-.556.056-.222.11-.39.167-.556.11-.333.332-.667.5-1.056.166-.39.5-.612.777-.89.556-.61 1.224-1.057 1.89-1.334.334-.167.668-.278 1.057-.333.39-.054.78-.11 1.168-.11.778 0 1.502.167 2.225.445.778.334 1.39.723 2 1.28.557.555 1.002 1.222 1.336 1.945s.444 1.5.444 2.39c0 .89-.167 1.724-.444 2.39zM328.783 281.145c-.055-.11-.167-.223-.278-.334-.056-.054-.11-.11-.167-.166-.556-.556-1.278-1.224-1.39-1.557h-.611c-.11.333-.89 1-1.39 1.557l-.167.167c-.11.112-.222.224-.278.335-.055.055-.11.167-.11.222-.223.39-.39.89-.39 1.39 0 .78.278 1.39.778 1.946.5.5 1.168.78 1.947.78.778 0 1.39-.28 1.946-.78.5-.5.778-1.167.778-1.946-.054-.5-.166-1-.388-1.39-.168-.11-.223-.167-.28-.222z"/><path d="M427.14 294.877c-.057-.333-.11-.61-.223-.89-.057-.277-.167-.61-.278-.89-.39-1.166-1.113-2.167-2.003-3.057-.89-.89-1.835-1.5-2.946-1.89-.666-.223-1.39-.39-2.112-.5-.723-.112-1.39-.112-2.057-.112-.61 0-1.167.055-1.668.11-.5.056-.778.112-.944.223-.612.168-1.112.39-1.613.668-.223.11-.39.223-.612.39-1.5-5.95-4.56-11.398-8.952-15.846-6.504-6.56-15.122-10.23-24.296-10.23-9.173 0-17.847 3.67-24.297 10.23-6.505 6.617-10.063 15.4-10.063 24.742v.222c-.056-.055-.11-.11-.167-.222-.945-1.112-2.113-1.835-3.67-2.335l-3.17-.946c-.39-.11-.722-.333-.944-.612-.223-.278-.333-.5-.333-.778 0-.39.222-.778.61-1.057.39-.333.89-.444 1.558-.444.334 0 .612.055.945.223.334.167.556.333.78.556l3.057-3.17c-1.278-1.222-2.836-1.834-4.726-1.834-.945 0-1.78.11-2.558.445-.78.28-1.5.667-2.057 1.223-.612.5-1.057 1.112-1.39 1.835-.334.724-.5 1.446-.5 2.225 0 1.28.388 2.39 1.222 3.39.834 1.002 1.89 1.67 3.225 2.115l3.17.945c.61.11 1.055.39 1.39.777.332.39.5.78.5 1.168 0 .61-.335 1.112-.89 1.613-.612.444-1.335.666-2.113.666-.89 0-1.613-.223-2.17-.667-.61-.446-.888-.945-.888-1.558h-4.337c0 .945.222 1.78.61 2.558.39.78.89 1.5 1.612 2.058.667.612 1.5 1.058 2.392 1.39.89.334 1.834.502 2.89.502 1 0 1.947-.168 2.836-.557.89-.334 1.668-.834 2.335-1.39.667-.556 1.168-1.223 1.5-1.946 1.225 6.95 4.505 13.288 9.51 18.402 6.504 6.616 15.122 10.23 24.296 10.23 9.175 0 17.85-3.67 24.298-10.23 4.393-4.504 7.506-10.008 9.007-16.068.223.11.39.223.612.334.5.278 1.056.5 1.612.667 1.11.334 2.28.5 3.39.5.946 0 1.835-.11 2.67-.333.833-.223 1.61-.5 2.334-.945 1.057-.61 1.946-1.278 2.725-2.113l-3.337-2.946c-.223.278-.445.5-.667.778-.223.222-.5.445-.778.61-.61.39-1.224.613-1.89.78-.11.055-.334.055-.5.055-.167.058-.334.058-.5.058-.168 0-.334-.057-.5-.057-.168-.055-.335-.055-.502-.055-.61-.056-1.168-.334-1.834-.667-.612-.333-1.112-.778-1.557-1.278-.11-.11-.167-.223-.278-.334.11-.945.167-1.946.167-2.946h13.566v-2.058c-.056-.444-.056-.834-.11-1.057-.335-.278-.335-.5-.39-.668zm-23.464 27.745c-6.505 6.562-15.124 10.23-24.242 10.23-9.173 0-17.736-3.614-24.24-10.23-5.06-5.114-8.286-11.453-9.51-18.46.39-.777.557-1.61.557-2.5 0-1.224-.332-2.392-1.11-3.393v-.334c0-9.286 3.557-18.125 10.007-24.687 6.505-6.562 15.124-10.23 24.242-10.23 9.172 0 17.735 3.613 24.24 10.23 4.393 4.447 7.395 9.895 8.953 15.845-.223.11-.5.334-.78.5-1.056.723-1.833 1.613-2.5 2.613-.057.056-.057.11-.112.223-1.11-6.115-3.947-11.73-8.395-16.234-5.727-5.838-13.344-9.008-21.462-9.008s-15.734 3.225-21.46 9.008c-4.227 4.336-7.006 9.674-8.23 15.457-.334.444-.667.945-.945 1.5-.723 1.39-1.057 3.004-1.057 4.838 0 1.168.168 2.28.502 3.336.333.89.778 1.78 1.39 2.613 1.112 6.004 4.003 11.51 8.34 15.9 5.727 5.84 13.343 9.008 21.46 9.008s15.736-3.225 21.463-9.007c4.504-4.56 7.395-10.34 8.45-16.624.335.61.78 1.224 1.28 1.725.61.668 1.334 1.224 2.058 1.724-1.39 5.894-4.45 11.454-8.897 15.958zm-50.262-21.017c-.278-.39-.5-.834-.723-1.278-.332-.78-.5-1.613-.555-2.502 0-1.39.39-2.613 1.112-3.67.055-.055.11-.11.167-.22-.167 1.333-.278 2.612-.278 3.946.056 1.28.11 2.502.278 3.725zm-1.056 4.838c.834.556 1.723.944 2.668 1.278 1.335 3.393 3.28 6.506 5.838 9.12 4.948 5.06 11.565 7.84 18.57 7.84 7.006 0 13.622-2.78 18.57-7.84 4.95-5.06 7.674-11.788 7.674-18.905 0-1.334-.11-2.613-.278-3.836l2.112-6.23h-3.78c-1.335-3.28-3.226-6.28-5.783-8.84-4.95-5.058-11.565-7.84-18.57-7.84s-13.623 2.782-18.57 7.84c-2.56 2.614-4.505 5.672-5.84 9.01-1.222.332-2.39.888-3.39 1.666-.502.39-.946.778-1.336 1.224 1.224-5.45 3.948-10.51 7.95-14.567 5.672-5.782 13.178-8.896 21.185-8.896s15.51 3.17 21.183 8.952c4.448 4.558 7.283 10.285 8.34 16.457-.39.78-.667 1.613-.89 2.39-.223 1.113-.278 2.225-.167 3.393.11 1.11.39 2.224.834 3.28.056.222.167.39.278.61-.945 6.396-3.836 12.29-8.45 16.903-5.672 5.782-13.177 8.95-21.185 8.95-8.006 0-15.512-3.168-21.183-8.95-4.115-4.17-6.84-9.34-8.007-14.9.668.722 1.39 1.39 2.225 1.89zm52.596-8.507c-.055 6.95-2.668 13.456-7.505 18.403-4.838 4.893-11.232 7.617-18.016 7.617-6.838 0-13.232-2.67-18.014-7.618-2.39-2.39-4.225-5.227-5.504-8.34.39.055.778.11 1.112.222.61.056 1.112.056 1.723 0 .224-.056.502-.056.78-.11 1.056 2.112 2.446 4.114 4.17 5.893 4.226 4.282 9.786 6.673 15.734 6.673 5.95 0 11.565-2.336 15.735-6.673 1.778-1.778 3.168-3.836 4.224-6.06h1.224l4.17-12.177c.11.722.166 1.445.166 2.168zm-25.52 14.51c7.45 0 13.567-5.837 14.178-13.176l1.5 4.448c-2.334 6.56-8.506 11.23-15.733 11.23-6.396 0-12.01-3.725-14.79-9.118.666-.556 1.278-1.224 1.778-1.946 2.336 5.06 7.284 8.563 13.066 8.563zm-12.287-14.51c0-6.894 5.504-12.51 12.287-12.51 6.784 0 12.288 5.616 12.288 12.51s-5.504 12.51-12.288 12.51c-6.782 0-12.287-5.616-12.287-12.51zm22.574-10.008c-2.612-2.78-6.226-4.504-10.286-4.504-5.782 0-10.73 3.503-12.955 8.507-.5-.722-1.113-1.39-1.78-1.89 2.78-5.393 8.34-9.063 14.734-9.063 5.504 0 10.398 2.725 13.456 6.95h-3.17zm-23.796 5.393c-.5 1.447-.722 3.003-.722 4.56 0 1.556.222 3.058.667 4.503l-2.726-1.5c-.055.055-.055.11-.11.166-.168-1.058-.28-2.06-.28-3.115 0-1.112.112-2.113.335-3.17.054.056.054.11.054.11l2.78-1.554zm-2.613 13.4c3.115 5.838 9.12 9.786 16.125 9.786 7.23 0 13.567-4.337 16.458-10.564l.667 2h1.5c-.945 1.892-2.224 3.67-3.78 5.228-4.004 4.06-9.286 6.283-14.9 6.283-5.672 0-10.955-2.224-14.9-6.283-1.56-1.61-2.837-3.336-3.782-5.28.444-.112.89-.224 1.278-.446.5-.224.945-.445 1.335-.724zm35.585-6.838h-.5l-.667-1.946c0-10.23-8.23-18.57-18.292-18.57-6.95 0-12.955 3.947-16.068 9.73-.89-.5-1.724-.89-2.67-1.113.946-1.89 2.225-3.67 3.782-5.227 4.003-4.06 9.285-6.282 14.9-6.282 5.67 0 10.953 2.224 14.9 6.282 3.392 3.447 5.505 7.896 6.06 12.677l-1.445 4.45zm-37.808-7.172c.223.11.5.333.667.5-.39 1.5-.612 3.114-.612 4.782 0 1.613.223 3.17.612 4.67-.167.11-.334.278-.5.39-.612.444-1.334.722-2.058.89-.556-1.946-.834-3.948-.834-6.005s.278-4.06.834-6.005c.668.11 1.28.388 1.89.778zm40.087.388c-.89-4.225-2.946-8.062-6.004-11.176-4.226-4.28-9.84-6.67-15.735-6.67-5.95 0-11.564 2.334-15.734 6.67-1.667 1.724-3.113 3.67-4.114 5.838-1.223-.167-2.39-.167-3.558.055 1.28-3.058 3.114-5.837 5.45-8.23 4.836-4.892 11.23-7.616 18.014-7.616 6.838 0 13.233 2.667 18.014 7.616 2.392 2.39 4.226 5.226 5.504 8.285l-1.836 5.228zm-43.2-1.278c-.557 1.946-.835 4.06-.835 6.116 0 2.113.277 4.114.833 6.116-.723 0-1.39-.11-2-.39-.613-.222-1.17-.61-1.668-1-.278-1.557-.39-3.114-.39-4.726 0-1.668.11-3.28.445-4.837.39-.28.778-.5 1.223-.724.778-.39 1.556-.556 2.39-.556zm55.544 9.73c-.278-.39-.5-.778-.667-1.223-.11-.223-.166-.39-.222-.612-.055-.167-.055-.39-.11-.61l.443-.39h.78c-.056.944-.112 1.89-.222 2.835zm.166-7.006l-.056-.055c-.055-.168-.055-.335-.055-.558.333-.444.723-.833 1.112-1.112.39-.333.945-.61 1.5-.834.5-.167 1.058-.222 1.613-.222.556.055 1.112.11 1.612.222.5.11.945.334 1.335.5.39.224.667.445.945.668.39.39.667.89.89 1.335h-8.896v.054z"/></g><path fill="none" d="M379.434 285.426c-6.783 0-12.287 5.616-12.287 12.51s5.504 12.51 12.287 12.51c6.784 0 12.288-5.616 12.288-12.51s-5.504-12.51-12.288-12.51zm0 22.907c-5.67 0-10.23-4.67-10.23-10.397s4.56-10.397 10.23-10.397c5.67 0 10.23 4.67 10.23 10.396 0 5.726-4.614 10.397-10.23 10.397z"/><linearGradient id="a" gradientUnits="userSpaceOnUse" x1="403.064" y1="-21.357" x2="403.064" y2="-21.357" gradientTransform="matrix(.439 0 0 .439 235.681 274.551)"><stop offset=".153" stop-color="#FBC61A"/><stop offset=".556" stop-color="#7A600D"/><stop offset=".85" stop-color="#221B04"/><stop offset=".982"/></linearGradient><linearGradient id="b" gradientUnits="userSpaceOnUse" x1="816.875" y1="2689.325" x2="799.071" y2="2743.118" gradientTransform="matrix(.292 -.327 .327 .292 -749.389 -247.199)"><stop offset=".692" stop-color="#FBC61A"/><stop offset=".982" stop-color="#585657"/></linearGradient><path fill="url(#b)" d="M387.775 288.76l1.334-1.5c-5.504-5.17-13.733-5.06-19.07-.278l1.277 1.5c4.615-4.113 11.787-4.168 16.458.28z"/><linearGradient id="c" gradientUnits="userSpaceOnUse" x1="827.461" y1="2690.773" x2="810.772" y2="2741.296" gradientTransform="matrix(.288 -.324 .324 .29 -736.792 -250)"><stop offset=".692" stop-color="#FBC61A"/><stop offset=".982" stop-color="#585657"/></linearGradient><path fill="url(#c)" d="M377.49 263.13c5.67-.334 11.23.723 16.29 3.113 3.06 1.446 6.06 3.392 8.618 5.782l.056-.055c-6.895-6.227-15.18-9.452-24.908-8.952-7.673.39-14.79 3.392-20.46 8.284l.054.056c5.726-4.892 12.732-7.838 20.35-8.228z"/><linearGradient id="d" gradientUnits="userSpaceOnUse" x1="820.751" y1="2688.791" x2="803.414" y2="2741.169" gradientTransform="matrix(.292 -.327 .327 .292 -749.389 -247.199)"><stop offset=".692" stop-color="#FBC61A"/><stop offset=".982" stop-color="#585657"/></linearGradient><path fill="url(#d)" d="M390.72 285.426l1.058-1.168c-6.895-6.505-17.458-6.505-24.353-.333l1.057 1.223c6.282-5.616 15.9-5.67 22.24.278z"/><linearGradient id="e" gradientUnits="userSpaceOnUse" x1="833.425" y1="2684.968" x2="816.763" y2="2735.308" gradientTransform="matrix(.292 -.327 .327 .292 -749.389 -247.199)"><stop offset=".692" stop-color="#FBC61A"/><stop offset=".982" stop-color="#585657"/></linearGradient><path fill="url(#e)" d="M377.878 267.523c8.062-.39 15.513 2.335 21.628 7.84l.333-.223c-6.228-5.67-13.845-8.396-22.018-8.006-6.84.333-13.122 3.002-18.18 7.395l.277.332c5.114-4.393 11.175-7.06 17.958-7.34z"/><linearGradient id="f" gradientUnits="userSpaceOnUse" x1="829.039" y1="2686.496" x2="812.248" y2="2737.225" gradientTransform="matrix(.292 -.327 .327 .292 -749.389 -247.199)"><stop offset=".692" stop-color="#FBC61A"/><stop offset=".982" stop-color="#585657"/></linearGradient><path fill="url(#f)" d="M378.267 271.97c6.838-.333 13.12 2.113 18.292 6.728l.555-.556c-5.394-4.95-11.564-7.117-18.626-6.95-5.95.11-11.954 2.668-16.292 6.505l.5.61c4.672-4 9.954-6.114 15.57-6.337z"/><linearGradient id="g" gradientUnits="userSpaceOnUse" x1="825.06" y1="2687.792" x2="807.998" y2="2739.338" gradientTransform="matrix(.292 -.327 .327 .292 -749.389 -247.199)"><stop offset=".692" stop-color="#FBC61A"/><stop offset=".982" stop-color="#585657"/></linearGradient><path fill="url(#g)" d="M378.323 276.418c5.67-.278 10.954 1.613 15.4 5.616l.78-.945c-4.727-4.337-10.23-6.173-16.235-5.895-5.06.223-9.674 2.28-13.4 5.56l.78.946c3.223-2.89 7.838-5.004 12.675-5.282z"/><g fill="#585657"><path d="M418.187 314.505h-2.835c-.11 0-.223.056-.223.223v5.17c0 .11.055.223.222.223h.055c.11 0 .223-.055.223-.222v-2.502h2.447c.11 0 .222-.055.222-.222 0-.11-.056-.223-.223-.223h-2.447v-1.944h2.613c.11 0 .222-.057.222-.223-.055-.167-.11-.278-.278-.278zM420.244 315.894c-.944 0-1.445.334-1.445 1.057v2.17c0 .666.444 1.056 1.444 1.056.945 0 1.446-.333 1.446-1.056v-2.17c0-.666-.444-1.056-1.446-1.056zm0 3.837c-.944 0-.944-.39-.944-.61v-2.17c0-.165 0-.61.944-.61.945 0 .945.39.945.61v2.17c0 .166 0 .61-.946.61zM425.304 316.006c-.166 0-.222.056-.222.223v3.112c-.223.11-.612.39-1.168.39-.5 0-.723-.223-.723-.61v-2.948c0-.11-.055-.222-.222-.222-.11 0-.222.055-.222.222v2.947c0 .667.444 1.057 1.223 1.057.388 0 .833-.11 1.167-.333v.055c0 .11.055.222.223.222.11 0 .222-.056.222-.223v-3.67c-.11-.113-.167-.224-.278-.224zM429.252 316.284c-.223-.223-.5-.333-.945-.333-.556 0-.945.167-1.224.334v-.056c0-.11-.055-.223-.223-.223-.11 0-.222.056-.222.223v3.67c0 .11.056.222.222.222.11 0 .223-.056.223-.223v-3.112c.223-.11.61-.39 1.224-.39.5 0 .723.222.723.61v2.948c0 .11.056.222.223.222h.056c.11 0 .222-.056.222-.222v-2.947c0-.332-.113-.556-.28-.722zM433.2 314.393c-.168 0-.223.056-.223.223v1.668c-.278-.167-.668-.333-1.224-.333-.89 0-1.224.5-1.224 1.057v2.168c0 .668.444 1.057 1.223 1.057.5 0 .945-.167 1.224-.334v.057c0 .11.055.222.222.222.11 0 .222-.056.222-.222v-5.227l.055-.056-.166-.278h-.11zm-1.446 2.002c.61 0 1 .278 1.224.39v2.5c-.224.112-.612.39-1.224.39-.5 0-.723-.222-.723-.61v-2.168c0-.28.28-.502.724-.502zM434.756 319.12c-.166 0-.223.055-.223.222v.612c0 .11.057.222.223.222h.056c.11 0 .223-.056.223-.222v-.612c-.056-.167-.112-.222-.28-.222zM440.928 319.62h-2.39v-4.948c0-.11-.057-.223-.224-.223-.11 0-.223.055-.223.222v5.17c0 .112.057.223.224.223h2.613c.11 0 .223-.056.223-.222v-.057c0-.055-.055-.166-.222-.166zM443.153 315.894c-.945 0-1.446.334-1.446 1.057v2.17c0 .666.444 1.056 1.446 1.056.945 0 1.444-.333 1.444-1.056v-2.17c0-.666-.444-1.056-1.444-1.056zm.945 1.057v2.17c0 .166 0 .61-.945.61s-.945-.39-.945-.61v-2.17c0-.165 0-.61.945-.61.945.055.945.445.945.61zM447.933 316.006h-.055c-.11 0-.11.056-.223.056l-.056.056-1.058 3.058-1.056-3.058c-.057-.056-.057-.11-.278-.11-.11 0-.223.11-.223.222l1.278 3.726c0 .055.057.11.167.166l.223-.056.056-.056.055-.055 1.278-3.726v-.057c.058-.056 0-.167-.11-.167zM451.27 318.118c.11 0 .222-.055.222-.222v-.945c-.055-.722-.5-1.056-1.5-1.056-.946 0-1.446.334-1.446 1.057v2.17c0 .666.444 1.056 1.445 1.056.946 0 1.447-.333 1.447-1.056v-.223c0-.11-.057-.223-.223-.223-.11 0-.223.056-.223.223v.223c0 .166 0 .61-.944.61s-.945-.39-.945-.61v-1.002h2.17zm-1.335-1.723c1 0 1 .444 1 .61v.725h-1.945v-.724c0-.22 0-.61.945-.61zM454.94 314.393c-.167 0-.223.056-.223.223v1.668c-.278-.167-.667-.333-1.224-.333-.89 0-1.223.5-1.223 1.057v2.168c0 .668.444 1.057 1.223 1.057.5 0 .945-.167 1.224-.334v.057c0 .11.056.222.222.222.11 0 .222-.056.222-.222v-5.227c.056-.056.056-.11.056-.11-.057-.17-.11-.225-.28-.225zm-1.447 2.002c.61 0 1 .278 1.224.39v2.5c-.223.112-.612.39-1.224.39-.5 0-.723-.222-.723-.61v-2.168c0-.28.28-.502.723-.502zM456.552 319.12c-.167 0-.224.055-.224.222v.612c0 .11.057.222.224.222h.055c.11 0 .223-.056.223-.222v-.612c-.112-.167-.167-.222-.278-.222zM462.223 317.23l-1.557-.613c-.11-.055-.5-.222-.5-.61v-.39c0-.334.11-.723 1.167-.723 1.056 0 1.167.333 1.167.723v.39c0 .11.057.222.223.222.11 0 .223-.057.223-.224v-.39c0-.777-.5-1.167-1.612-1.167s-1.612.39-1.612 1.167v.39c0 .556.39.89.778 1.056l1.557.61c.167.058.5.224.5.613v.666c0 .334-.11.724-1.223.724s-1.224-.39-1.224-.724v-.333c0-.112-.056-.224-.223-.224-.11 0-.222.056-.222.223v.39c0 .776.5 1.166 1.668 1.166 1.167 0 1.668-.39 1.668-1.167v-.67c0-.5-.277-.888-.777-1.11zM464.335 316.006c-.167 0-.222.056-.222.223v3.668c0 .11.055.223.222.223h.056c.112 0 .224-.055.224-.222v-3.67c-.112-.11-.167-.222-.28-.222zM464.335 314.393c-.167 0-.222.056-.222.223v.778c0 .11.055.223.222.223h.056c.112 0 .224-.056.224-.223v-.778c-.112-.167-.167-.223-.28-.223zM468.228 316.006c-.223 0-.223.167-.223.223v.055c-.333-.167-.723-.333-1.224-.333-.888 0-1.222.5-1.222 1.056v2.168c0 .668.445 1.057 1.223 1.057.502 0 .946-.167 1.225-.334v.89c0 .166 0 .61-.945.61h-1.056c-.11 0-.223.057-.223.224v.055c0 .11.056.222.224.222h1.056c.945 0 1.445-.334 1.445-1.057v-4.504c0-.167 0-.334-.277-.334zm-1.447 3.725c-.5 0-.722-.222-.722-.61v-2.17c0-.388.278-.61.723-.61.613 0 1.003.277 1.225.39v2.5c-.222.223-.61.5-1.224.5zM472.23 316.284c-.222-.223-.5-.333-.944-.333-.556 0-.945.167-1.224.334v-.056c0-.11-.055-.223-.223-.223-.11 0-.223.056-.223.223v3.67c0 .11.056.222.222.222.11 0 .222-.056.222-.223v-3.112c.223-.11.61-.39 1.224-.39.5 0 .723.222.723.61v2.948c0 .11.055.222.222.222h.056c.11 0 .223-.056.223-.222v-2.947c0-.332-.112-.556-.28-.722zM476.234 318.118c.11 0 .223-.055.223-.222v-.945c-.056-.722-.5-1.056-1.5-1.056-.946 0-1.447.334-1.447 1.057v2.17c0 .666.445 1.056 1.446 1.056.944 0 1.445-.333 1.445-1.056v-.223c0-.11-.055-.223-.222-.223h-.056c-.11 0-.223.056-.223.223v.223c0 .166 0 .61-.945.61s-.945-.39-.945-.61v-1.002h2.224zm-1.28-1.723c1.002 0 1.002.444 1.002.61v.725h-1.946v-.724c-.056-.22-.056-.61.945-.61zM480.014 314.393h-.11c-.167 0-.223.056-.223.223v1.668c-.276-.167-.666-.333-1.222-.333-.89 0-1.224.5-1.224 1.057v2.168c0 .668.444 1.057 1.224 1.057.5 0 .945-.167 1.223-.334v.057c0 .11.057.222.224.222.11 0 .222-.056.222-.222v-5.227l.057-.056-.057-.11-.112-.17zm-1.5 2.002c.61 0 1 .278 1.223.39v2.5c-.222.112-.61.39-1.224.39-.5 0-.723-.222-.723-.61v-2.168c0-.28.223-.502.723-.502zM481.516 319.12c-.167 0-.222.055-.222.222v.612c0 .11.055.222.222.222h.056c.11 0 .222-.056.222-.222v-.612c-.112-.167-.167-.222-.278-.222z"/></g><g fill="#585657"><path d="M491.412 277.364h.667v42.756h-.668zM516.433 288.04l-3.447-.668-1.112 5.393h-3.392l.89-4.393-3.447-.667-1 5.115h-3.893v3.392h3.225l-.5 2.335h-2.67v3.447h2.058l-.945 4.614 3.447.668 1.112-5.338h3.39l-.944 4.393 3.447.668 1.057-5.116h3.836v-3.446h-3.224l.444-2.335h2.668v-3.39h-2l1-4.67zm-5.728 10.396h-3.39l.5-2.335h3.39l-.5 2.336zM537.227 286.593c-.89-1.112-2.002-1.946-3.28-2.502-1.278-.555-2.725-.888-4.337-.888s-3.058.278-4.337.89c-1.278.61-2.39 1.39-3.28 2.5s-1.612 2.393-2.058 3.95c-.5 1.556-.723 3.28-.723 5.17 0 1.89.223 3.614.723 5.115.5 1.5 1.168 2.835 2.058 3.947s2.002 1.946 3.28 2.503c1.28.556 2.725.89 4.337.89s3.06-.278 4.337-.89c1.278-.612 2.39-1.39 3.28-2.503s1.613-2.39 2.058-3.947c.5-1.557.723-3.28.723-5.116 0-1.945-.223-3.668-.723-5.17-.445-1.555-1.113-2.89-2.058-3.947zm-1.223 12.677c-.223 1.11-.668 2.057-1.224 2.89s-1.224 1.502-2.112 1.947c-.89.5-1.836.667-3.06.667-1.166 0-2.167-.222-3.057-.667s-1.556-1.112-2.112-1.946c-.556-.833-.945-1.778-1.223-2.89-.223-1.112-.39-2.28-.39-3.56 0-1.277.11-2.445.39-3.557.223-1.112.667-2.057 1.223-2.89.557-.835 1.224-1.502 2.113-1.948.89-.444 1.836-.667 3.06-.667 1.167 0 2.167.222 3.058.667.89.5 1.557 1.113 2.112 1.947s.945 1.78 1.224 2.89c.223 1.113.39 2.28.39 3.56 0 1.278-.167 2.446-.39 3.558zM559.69 286.593c-.89-1.112-2.002-1.946-3.28-2.502-1.28-.555-2.726-.888-4.337-.888-1.612 0-3.06.278-4.337.89-1.28.61-2.39 1.39-3.28 2.5-.89 1.113-1.612 2.393-2.058 3.95-.5 1.556-.723 3.28-.723 5.17 0 1.89.223 3.614.723 5.115s1.168 2.835 2.057 3.947c.89 1.112 2.002 1.946 3.28 2.503 1.28.556 2.726.89 4.338.89 1.61 0 3.058-.278 4.336-.89 1.278-.612 2.39-1.39 3.28-2.503.89-1.112 1.612-2.39 2.057-3.947.5-1.557.723-3.28.723-5.116 0-1.945-.223-3.668-.723-5.17-.502-1.555-1.17-2.89-2.057-3.947zm-1.28 12.677c-.223 1.11-.667 2.057-1.223 2.89-.557.835-1.224 1.502-2.113 1.947-.89.5-1.835.667-3.058.667-1.224 0-2.17-.222-3.06-.667-.888-.5-1.556-1.112-2.11-1.946s-.946-1.778-1.225-2.89c-.222-1.112-.388-2.28-.388-3.56 0-1.277.11-2.445.39-3.557.277-1.112.667-2.057 1.223-2.89s1.224-1.502 2.112-1.948c.89-.5 1.835-.667 3.06-.667 1.222 0 2.167.222 3.057.667.89.5 1.557 1.113 2.113 1.947.556.834.945 1.78 1.223 2.89.223 1.113.39 2.28.39 3.56 0 1.278-.11 2.446-.39 3.558zM576.535 299.66v-16.18h-3.67l-8.728 16.18v3.446h8.174l.557.556V308h3.67v-4.894h2.446v-3.447h-2.448zm-3.67-.612l-.555.61h-4.114l4.67-8.728v8.118z"/></g></svg>