<svg xmlns="http://www.w3.org/2000/svg" width="166.405" height="36.998" viewBox="337.109 279.105 166.405 36.998"><g fill="#595758"><path d="M411.792 284.525c-3.423-3.507-7.994-5.41-12.86-5.41s-9.428 1.925-12.858 5.41c-3.423 3.486-5.312 8.162-5.312 13.083 0 4.942 1.883 9.577 5.312 13.084 3.424 3.507 7.994 5.41 12.86 5.41s9.428-1.924 12.858-5.41c3.423-3.507 5.312-8.162 5.312-13.084-.006-4.94-1.868-9.575-5.312-13.083zm-.042 26.146c-3.423 3.51-7.974 5.392-12.84 5.392-4.863 0-9.413-1.925-12.837-5.39-3.423-3.508-5.312-8.12-5.312-13.063 0-4.922 1.884-9.556 5.313-13.063 3.444-3.465 7.974-5.39 12.838-5.39 4.866 0 9.417 1.925 12.84 5.39 3.423 3.507 5.312 8.12 5.312 13.062 0 4.92-1.89 9.554-5.312 13.06z"/><path d="M410.252 286.087c-3.038-3.073-7.035-4.78-11.32-4.78s-8.3 1.707-11.318 4.78c-2.232 2.254-3.71 5.103-4.367 8.183-.203.245-.37.512-.512.777-.37.72-.574 1.582-.574 2.54 0 .617.106 1.212.268 1.765.16.49.413.967.756 1.436.616 3.157 2.114 6.048 4.39 8.365 3.037 3.073 7.034 4.78 11.318 4.78s8.302-1.7 11.32-4.78c3.037-3.073 4.696-7.196 4.696-11.544.062-4.35-1.618-8.45-4.656-11.523zm-.14 22.925c-2.975 3.052-6.972 4.738-11.172 4.738-4.24 0-8.204-1.68-11.172-4.738-2.135-2.19-3.59-4.9-4.242-7.834.33.37.7.7 1.106.966.448.267.882.49 1.372.658.7 1.807 1.743 3.423 3.094 4.816 2.646 2.688 6.11 4.145 9.82 4.145s7.218-1.478 9.82-4.145c2.647-2.688 4.062-6.23 4.062-10.003 0-.7-.042-1.372-.147-2.052l1.127-3.282h-1.987c-.7-1.722-1.723-3.324-3.053-4.676-2.646-2.688-6.11-4.144-9.82-4.144s-7.217 1.477-9.82 4.144c-1.352 1.372-2.423 3.018-3.095 4.78-.658.204-1.253.47-1.807.883-.245.16-.47.393-.657.616.658-2.89 2.094-5.516 4.2-7.672 2.976-3.072 6.95-4.76 11.172-4.76s8.204 1.68 11.173 4.74c2.975 3.052 4.634 7.098 4.634 11.382.047 4.342-1.598 8.388-4.608 11.44zM388.21 294.43c.35.084.698.203 1.02.393.126.084.245.146.35.244-.224.82-.328 1.64-.328 2.52 0 .862.104 1.68.33 2.48-.106.084-.162.146-.268.224-.33.246-.7.393-1.085.47-.288-1.008-.45-2.093-.45-3.178 0-1.06.142-2.102.43-3.152zm10.723 10.872c3.934 0 7.196-3.094 7.504-7.014l.82 2.358c-1.233 3.466-4.495 5.985-8.324 5.985-3.402 0-6.335-1.966-7.812-4.814.35-.287.658-.638.967-1.01 1.148 2.626 3.794 4.496 6.846 4.496zm-6.496-7.694c0-3.646 2.912-6.6 6.503-6.6 3.57 0 6.503 2.953 6.503 6.6s-2.912 6.602-6.503 6.602c-3.577.02-6.503-2.948-6.503-6.602zm11.95-5.306l.02.084c-1.372-1.477-3.324-2.422-5.495-2.422-3.037 0-5.655 1.848-6.846 4.494-.266-.393-.595-.735-.966-1.008 1.478-2.85 4.43-4.795 7.812-4.795 2.912 0 5.495 1.435 7.1 3.646h-1.626v.002zm-14.085 3.71l1.477-.84c-.245.756-.393 1.582-.393 2.443 0 .84.126 1.616.37 2.38l-1.455-.82c-.02.022-.042.085-.084.106-.105-.53-.147-1.105-.147-1.68 0-.595.043-1.147.162-1.7.05.07.07.092.07.112zm.126 6.25c1.617 3.074 4.816 5.168 8.49 5.168 3.837 0 7.154-2.297 8.716-5.622l.37 1.064h.777c-.51 1.008-1.188 1.925-1.986 2.765-2.114 2.136-4.9 3.325-7.875 3.325-2.977 0-5.783-1.19-7.876-3.325-.82-.84-1.478-1.764-2.01-2.786.225-.04.448-.125.658-.223.24-.097.484-.216.736-.364zm18.165-4.674c-.02-5.39-4.326-9.8-9.66-9.8-3.668 0-6.867 2.093-8.49 5.166-.448-.267-.903-.47-1.394-.596.51-1.008 1.188-1.945 1.987-2.785 2.113-2.136 4.9-3.325 7.874-3.325 2.977 0 5.783 1.19 7.877 3.325 1.806 1.848 2.91 4.2 3.198 6.748l-.776 2.297h-.268l-.35-1.03zm-20.195 5.397c.574 1.127 1.31 2.19 2.212 3.094 2.212 2.253 5.188 3.527 8.323 3.527 3.157 0 6.11-1.253 8.323-3.528.945-.967 1.68-2.01 2.232-3.2h.658l2.19-6.398c.022.37.043.735.043 1.106 0 3.668-1.395 7.112-3.936 9.702-2.54 2.583-5.93 4.02-9.534 4.02-3.59 0-6.992-1.437-9.533-4.02-1.253-1.274-2.233-2.765-2.912-4.39.203.043.392.085.595.105.287.02.595.02.903 0 .162.022.31 0 .435-.02zm22.057-7.918c-.47-2.232-1.582-4.283-3.2-5.93-2.21-2.253-5.187-3.527-8.322-3.527-3.157 0-6.11 1.253-8.323 3.528-.902.903-1.638 1.967-2.19 3.073-.638-.104-1.274-.083-1.884.043.658-1.596 1.64-3.073 2.892-4.368 2.54-2.583 5.93-4.018 9.534-4.018 3.61 0 6.993 1.435 9.534 4.018 1.273 1.274 2.232 2.786 2.933 4.43l-.975 2.752zm-24.13-.39c.413-.162.84-.267 1.254-.267-.268 1.02-.45 2.113-.45 3.22s.147 2.19.45 3.262c-.372 0-.723-.084-1.065-.203-.33-.127-.616-.33-.86-.532-.147-.82-.225-1.64-.225-2.48 0-.86.084-1.72.224-2.54.217-.23.427-.357.67-.462zm-1.19 4.864c-.125-.202-.244-.392-.35-.636-.16-.413-.266-.84-.286-1.31 0-.72.2-1.372.594-1.946.02-.02.02-.042.042-.084-.105.658-.147 1.352-.147 2.052.02.63.083 1.288.146 1.925z"/></g><path fill="#595758" d="M398.933 292.156c.756 0 1.456.146 2.114.412.658.287 1.23.658 1.722 1.19.49.49.88 1.064 1.19 1.722.286.658.412 1.352.412 2.114 0 .764-.147 1.456-.413 2.114-.288.658-.66 1.232-1.19 1.722-.49.49-1.064.882-1.723 1.19-.658.308-1.352.413-2.114.413s-1.456-.147-2.114-.413c-.66-.287-1.232-.658-1.723-1.19-.49-.49-.882-1.063-1.19-1.722-.286-.658-.412-1.35-.412-2.114 0-.763.146-1.456.412-2.114.287-.657.658-1.23 1.19-1.722.49-.49 1.063-.882 1.722-1.19.635-.266 1.357-.412 2.113-.412zm0 8.715c.448 0 .84-.083 1.21-.244s.722-.392.988-.7c.267-.287.49-.637.66-1.02.16-.394.243-.842.243-1.275s-.084-.86-.244-1.252c-.162-.393-.394-.735-.66-1.022-.266-.287-.615-.51-.986-.7-.37-.16-.777-.244-1.21-.244-.45 0-.84.084-1.212.245-.37.16-.72.392-.987.7-.266.286-.49.637-.658 1.02-.16.393-.244.82-.244 1.254s.084.862.244 1.275c.16.392.393.734.658 1.02.267.288.616.512.987.7.35.14.763.246 1.21.246z"/><path fill="none" d="M410.112 286.233c-2.975-3.052-6.95-4.738-11.172-4.738-4.24 0-8.204 1.68-11.172 4.738-2.975 3.053-4.634 7.1-4.634 11.383 0 4.305 1.638 8.344 4.634 11.382 2.976 3.053 6.973 4.74 11.172 4.74 4.242 0 8.204-1.68 11.172-4.74 2.97-3.06 4.635-7.098 4.635-11.382.02-4.313-1.625-8.352-4.635-11.383zm-1.358 21.407c-2.646 2.688-6.11 4.144-9.82 4.144s-7.218-1.477-9.822-4.144c-2.646-2.688-4.06-6.23-4.06-10.004 0-3.794 1.456-7.343 4.06-10.003 2.646-2.688 6.11-4.145 9.82-4.145s7.218 1.478 9.822 4.145c2.646 2.688 4.06 6.23 4.06 10.003.02 3.767-1.435 7.316-4.06 10.004z"/><path fill="none" d="M398.933 291.008c-3.57 0-6.503 2.954-6.503 6.6 0 3.648 2.912 6.603 6.503 6.603 3.57 0 6.503-2.953 6.503-6.6 0-3.648-2.933-6.602-6.503-6.602zm0 12.117c-2.975 0-5.41-2.464-5.41-5.517 0-3.052 2.442-5.516 5.41-5.516s5.41 2.464 5.41 5.516c0 3.053-2.436 5.517-5.41 5.517z"/><path fill="none" d="M408.467 287.914c-2.54-2.583-5.93-4.02-9.534-4.02-3.59 0-6.993 1.437-9.534 4.02s-3.935 6.026-3.935 9.702c0 3.675 1.393 7.11 3.934 9.702 2.54 2.583 5.93 4.018 9.533 4.018 3.612 0 6.993-1.435 9.534-4.018s3.934-6.027 3.934-9.702c.03-3.676-1.392-7.12-3.933-9.702zm-1.21 18.207c-2.213 2.255-5.19 3.53-8.324 3.53-3.157 0-6.11-1.254-8.323-3.53-2.212-2.253-3.443-5.27-3.443-8.47 0-3.198 1.23-6.216 3.443-8.47s5.188-3.528 8.323-3.528c3.157 0 6.11 1.253 8.323 3.528 2.212 2.254 3.443 5.27 3.443 8.47.02 3.157-1.204 6.195-3.444 8.47z"/><path fill="none" d="M406.808 289.594c-2.114-2.135-4.9-3.325-7.875-3.325s-5.782 1.19-7.875 3.324c-2.114 2.135-3.283 5.005-3.283 8.036s1.148 5.887 3.283 8.036c2.114 2.135 4.9 3.325 7.875 3.325s5.782-1.19 7.875-3.324c2.114-2.135 3.283-5.005 3.283-8.036s-1.168-5.902-3.282-8.036zm-7.875 17.836c-5.312 0-9.66-4.41-9.66-9.822 0-5.41 4.326-9.82 9.66-9.82s9.66 4.41 9.66 9.82c0 5.42-4.347 9.822-9.66 9.822z"/><path fill="none" d="M411.75 284.567c-3.423-3.507-7.974-5.39-12.84-5.39-4.863 0-9.413 1.925-12.837 5.39-3.423 3.508-5.312 8.12-5.312 13.062s1.884 9.555 5.313 13.06c3.43 3.508 7.974 5.39 12.838 5.39 4.866 0 9.417-1.924 12.84-5.39 3.423-3.506 5.312-8.12 5.312-13.06s-1.89-9.577-5.312-13.063zm-1.498 24.585c-3.038 3.073-7.035 4.78-11.32 4.78s-8.3-1.7-11.318-4.78c-3.038-3.073-4.696-7.196-4.696-11.544 0-4.367 1.68-8.448 4.696-11.543 3.038-3.072 7.035-4.78 11.32-4.78s8.3 1.7 11.318 4.78c3.038 3.073 4.697 7.196 4.697 11.543.02 4.368-1.66 8.47-4.698 11.544z"/><path fill="none" d="M398.933 288.628c-4.88 0-8.82 4.04-8.82 8.98 0 4.942 3.955 8.98 8.82 8.98 4.88 0 8.82-4.038 8.82-8.98 0-4.94-3.94-8.98-8.82-8.98zm0 16.674c-4.165 0-7.546-3.444-7.546-7.672 0-4.242 3.38-7.672 7.546-7.672s7.546 3.443 7.546 7.672c0 4.227-3.382 7.672-7.547 7.672z"/><path fill="#595758" d="M346.524 288.36V302.932h-2.136l-.286-.596c-.245.146-.532.266-.883.37-.47.147-.945.204-1.373.204-.47 0-.966-.084-1.393-.203-.448-.147-.86-.35-1.274-.595-.392-.267-.734-.596-1.02-.967s-.533-.776-.722-1.23c-.084-.226-.147-.414-.203-.597-.042-.202-.084-.447-.126-.776v-11.852h2.44v11.648c0 .33.085.658.246.987.16.35.393.615.7.84.392.33.84.47 1.35.47.33 0 .597-.043.862-.204.266-.127.51-.288.72-.512s.372-.47.49-.756c.127-.287.204-.595.226-.903v-11.544h2.38v1.645zM356.814 302.9h-2.338v-1.063-1.31-1.764-2.478-.147s0-.126-.02-.16c-.085-.225-.127-.414-.204-.596-.224-.392-.51-.7-.902-.882-.203-.084-.393-.126-.616-.16-.225-.043-.448-.022-.658 0-.47.103-.86.328-1.19.657-.16.16-.328.392-.412.658-.127.266-.16.53-.16.818v6.398h-2.36V292.31h2.338l.47.33c.125-.043.244-.127.392-.162.126-.042.266-.104.392-.126.413-.146.86-.203 1.352-.16.49.04.966.125 1.372.286.392.147.776.393 1.147.722.35.33.637.7.882 1.085.16.287.286.615.392.966.104.35.146.7.146 1.062v6.644h-.02v-.055h-.004zM368.322 286.68v16.22h-2.338v-.02l-.47-.47c-.083.022-.146.085-.202.105-.084.02-.126.084-.203.105-.617.266-1.31.448-2.073.47-.734 0-1.435-.147-2.093-.414-.7-.266-1.253-.7-1.764-1.21-.267-.246-.49-.512-.7-.82-.203-.286-.37-.615-.49-.944-.245-.638-.37-1.33-.392-2.05 0-.723.126-1.437.392-2.115.126-.33.287-.638.49-.945.203-.287.448-.574.7-.84.49-.51 1.085-.945 1.764-1.21.637-.268 1.35-.414 2.093-.414.756.02 1.456.203 2.072.47.16.083.328.125.468.224.147.084.267.16.413.266v-6.42l2.332.013zm-5.292 14.107c.392.02.777-.042 1.19-.225.392-.16.734-.392 1.063-.7.287-.286.532-.637.722-1.02.146-.372.224-.778.224-1.254s-.085-.882-.225-1.253c-.203-.393-.413-.735-.722-1.022-.33-.287-.658-.51-1.063-.657-.393-.147-.777-.225-1.19-.225-.224.022-.413.043-.616.085s-.392.105-.574.16c-.37.162-.72.414-.986.722-.147.147-.287.287-.393.47-.103.16-.2.37-.265.53-.02.106-.084.204-.105.288-.02.105-.042.203-.084.287-.084.47-.042.966.084 1.498s.393.987.757 1.352c.287.328.615.53.986.72.4.188.805.245 1.197.245zM372.157 302.9h-2.338v-10.618h2.337v10.62zM377.506 303.06c-.532 0-1.064-.103-1.52-.265-.47-.16-.882-.413-1.253-.735-.35-.33-.637-.7-.84-1.105s-.287-.86-.287-1.352h2.296c0 .287.147.574.47.82.32.244.7.37 1.147.37s.818-.126 1.126-.37c.33-.246.47-.512.47-.84 0-.225-.105-.414-.267-.617s-.45-.35-.736-.413l-1.68-.49c-.72-.224-1.274-.595-1.722-1.105-.448-.51-.638-1.106-.638-1.764 0-.413.105-.82.267-1.19s.414-.7.735-.966c.322-.267.7-.49 1.106-.637.414-.16.862-.244 1.352-.244.987 0 1.827.33 2.52.986l-1.595 1.68c-.105-.104-.245-.202-.393-.286-.16-.084-.33-.126-.49-.126-.35 0-.615.084-.818.245-.203.16-.33.35-.33.573 0 .147.043.267.204.413.126.148.287.246.51.288l1.68.49c.82.224 1.457.637 1.947 1.232s.735 1.253.735 1.987c0 .47-.105.945-.287 1.352-.203.412-.47.775-.84 1.104-.35.33-.757.574-1.232.735-.573.155-1.106.23-1.637.23zM430.53 292.302c.127.02.246.02.35.02.106 0 .225.022.35.043l-.636 2.177c-.104-.02-.16-.042-.224-.042-.245-.02-.47-.02-.637.02-.448.085-.84.288-1.19.64-.084.103-.147.202-.224.265-.085.105-.127.203-.162.33-.02.083-.084.223-.126.412-.042.203-.084.392-.084.595v6.11h-2.338V292.31h2.338l.49.47c.125-.085.244-.127.37-.16.126-.043.245-.106.393-.127.225-.042.45-.105.66-.147.202-.064.426-.064.67-.044zM441.255 298.043h-7.63l-.224.203c.022.104.043.224.085.33.02.103.042.202.104.328.125.33.286.615.53.902.246.267.512.49.82.658.35.203.657.33.986.37.105.022.203.022.267.022h.51c.104 0 .16-.02.245-.02.35-.085.7-.204.986-.393.146-.105.286-.203.412-.33s.245-.244.37-.392l1.766 1.563c-.393.447-.882.818-1.436 1.105-.37.225-.776.393-1.21.49-.45.126-.904.16-1.394.16-.596 0-1.19-.104-1.765-.266-.267-.104-.574-.202-.84-.35-.533-.287-1.022-.658-1.457-1.105-.413-.448-.756-.967-.986-1.52-.225-.574-.37-1.127-.448-1.743-.085-.595-.022-1.21.103-1.764.126-.595.35-1.127.658-1.68.33-.512.757-.987 1.33-1.372.267-.16.512-.33.778-.47.266-.14.53-.266.86-.37.084-.022.245-.085.49-.105.245-.042.532-.084.882-.084.35-.022.722 0 1.085.04.393.043.757.147 1.106.267.596.225 1.107.532 1.583.987s.84.987 1.063 1.596c.042.147.127.287.147.448.042.147.084.287.104.448.02.104.02.203.043.35.02.126.02.33.042.574l.033 1.123zm-5.887-3.59c-.33.103-.595.244-.82.412-.223.168-.447.392-.636.657l.104.267h4.74c-.105-.246-.246-.49-.47-.723-.126-.126-.287-.244-.49-.37s-.448-.203-.72-.267c-.268-.084-.533-.126-.84-.126-.293.03-.56.064-.868.148zM453.107 286.68v16.22h-2.338v-.02l-.47-.47c-.085.022-.147.085-.204.105-.084.02-.126.084-.202.105-.616.266-1.31.448-2.072.47-.735 0-1.436-.147-2.093-.414-.7-.266-1.254-.7-1.766-1.21-.266-.246-.49-.512-.7-.82-.202-.286-.37-.615-.49-.944-.244-.638-.37-1.33-.392-2.05 0-.723.126-1.437.393-2.115.126-.33.287-.638.49-.945.202-.287.447-.574.7-.84.49-.51 1.084-.945 1.764-1.21.636-.268 1.35-.414 2.092-.414.756.02 1.456.203 2.072.47.16.083.33.125.47.224.145.084.265.16.412.266v-6.42l2.33.013zm-5.272 14.107c.393.02.777-.042 1.19-.225.413-.182.734-.392 1.063-.7.287-.286.532-.637.722-1.02.146-.372.224-.778.224-1.254s-.084-.882-.224-1.253c-.203-.393-.413-.735-.722-1.022-.33-.287-.657-.51-1.063-.657-.393-.147-.777-.225-1.19-.225-.224.022-.413.043-.616.085-.203.042-.393.105-.574.16-.37.162-.722.414-.987.722-.148.147-.288.287-.393.47-.105.16-.203.37-.267.53-.02.106-.084.204-.104.288-.02.105-.042.203-.084.287-.084.47-.042.966.084 1.498s.392.987.756 1.352c.287.328.616.53.986.72.38.188.79.245 1.197.245zM372.235 288.858c0-.02-.042-.084-.084-.126s-.103-.126-.145-.16c-.02-.02-.042-.043-.105-.085-.287-.286-.7-.657-.756-.818h-.376c-.084.145-.47.51-.756.817-.02.02-.083.042-.104.085-.042.042-.104.126-.146.16-.042.042-.084.084-.084.126-.126.225-.203.47-.203.735 0 .392.146.735.413 1.008.266.268.615.414 1.008.414.392 0 .734-.146 1.008-.413.266-.265.413-.615.413-1.007.13-.307.046-.532-.08-.735zM424.3 298.043h-7.65l-.224.203c.02.104.042.224.084.33.02.103.042.202.105.328.126.33.286.615.53.902.246.267.513.49.82.658.35.203.658.33.987.37.104.022.203.022.266.022h.511c.104 0 .16-.02.244-.02.35-.085.7-.204.987-.393.147-.105.288-.203.414-.33s.245-.244.37-.392l1.765 1.563c-.393.447-.883.818-1.436 1.105-.37.225-.777.393-1.21.49-.45.126-.904.16-1.395.16-.596 0-1.19-.104-1.765-.266-.267-.104-.574-.202-.84-.35-.532-.287-1.022-.658-1.456-1.105-.414-.448-.758-.967-.988-1.52-.224-.553-.37-1.127-.448-1.743-.084-.595-.02-1.21.105-1.764.125-.595.35-1.127.656-1.68.33-.512.757-.987 1.33-1.372.267-.16.512-.33.777-.47.266-.14.532-.266.86-.37.085-.022.246-.085.49-.105.245-.042.532-.084.883-.084.35-.022.72 0 1.085.04.393.043.757.147 1.106.267.596.225 1.106.532 1.582.987.47.448.84.987 1.064 1.596.042.147.126.287.146.448.042.147.084.287.105.448.02.104.02.203.042.35.02.126.02.33.042.574l.054 1.123zm-5.886-3.59c-.33.103-.596.244-.82.412-.223.16-.447.392-.636.657l.104.267h4.72c-.106-.246-.246-.49-.47-.723-.127-.126-.288-.244-.49-.37-.203-.126-.448-.203-.722-.267-.266-.084-.532-.126-.84-.126-.293.03-.58.064-.846.148z"/><linearGradient id="a" gradientUnits="userSpaceOnUse" x1="229.238" y1="-7360.313" x2="229.238" y2="-7360.313" gradientTransform="matrix(.246 0 0 -.246 359.91 -1532.248)"><stop offset=".153" stop-color="#FBC61C"/><stop offset=".556" stop-color="#7A600E"/><stop offset=".85" stop-color="#221B04"/><stop offset=".982"/></linearGradient><linearGradient id="b" gradientUnits="userSpaceOnUse" x1="791.533" y1="-10091.111" x2="774.77" y2="-10141.756" gradientTransform="matrix(.164 -.184 -.184 -.164 -1591.844 -1224.531)"><stop offset=".692" stop-color="#FBC61C"/><stop offset=".709" stop-color="#E8B930"/><stop offset=".774" stop-color="#B1924F"/><stop offset=".835" stop-color="#887657"/><stop offset=".892" stop-color="#6E6459"/><stop offset=".943" stop-color="#5E5A58"/><stop offset=".982" stop-color="#595758"/></linearGradient><path fill="url(#b)" d="M403.343 292.793l.7-.777c-2.892-2.73-7.238-2.688-10.045-.146l.657.776c2.437-2.19 6.245-2.213 8.688.147z"/><linearGradient id="c" gradientUnits="userSpaceOnUse" x1="801.385" y1="-10091.699" x2="785.674" y2="-10139.262" gradientTransform="matrix(.162 -.182 -.182 -.163 -1571.089 -1217.538)"><stop offset=".692" stop-color="#FBC61C"/><stop offset=".709" stop-color="#E8B930"/><stop offset=".774" stop-color="#B1924F"/><stop offset=".835" stop-color="#887657"/><stop offset=".892" stop-color="#6E6459"/><stop offset=".943" stop-color="#5E5A58"/><stop offset=".982" stop-color="#595758"/></linearGradient><path fill="url(#c)" d="M397.932 279.198c3.017-.16 5.908.393 8.61 1.64 1.616.755 3.178 1.805 4.55 3.072l.02-.042c-3.645-3.305-8.035-4.984-13.187-4.74-4.06.204-7.812 1.807-10.81 4.39l.022.042c3.018-2.597 6.756-4.137 10.795-4.362z"/><linearGradient id="d" gradientUnits="userSpaceOnUse" x1="795.174" y1="-10090.606" x2="778.853" y2="-10139.916" gradientTransform="matrix(.164 -.184 -.184 -.164 -1591.844 -1224.531)"><stop offset=".692" stop-color="#FBC61C"/><stop offset=".709" stop-color="#E8B930"/><stop offset=".774" stop-color="#B1924F"/><stop offset=".835" stop-color="#887657"/><stop offset=".892" stop-color="#6E6459"/><stop offset=".943" stop-color="#5E5A58"/><stop offset=".982" stop-color="#595758"/></linearGradient><path fill="url(#d)" d="M404.883 291.008l.574-.616c-3.647-3.443-9.227-3.423-12.88-.16l.53.637c3.37-2.978 8.45-2.998 11.776.138z"/><linearGradient id="e" gradientUnits="userSpaceOnUse" x1="807.108" y1="-10087.008" x2="791.424" y2="-10134.392" gradientTransform="matrix(.164 -.184 -.184 -.164 -1591.844 -1224.531)"><stop offset=".692" stop-color="#FBC61C"/><stop offset=".709" stop-color="#E8B930"/><stop offset=".774" stop-color="#B1924F"/><stop offset=".835" stop-color="#887657"/><stop offset=".892" stop-color="#6E6459"/><stop offset=".943" stop-color="#5E5A58"/><stop offset=".982" stop-color="#595758"/></linearGradient><path fill="url(#e)" d="M398.114 281.537c4.242-.225 8.184 1.21 11.425 4.144l.16-.125c-3.283-3.017-7.322-4.452-11.648-4.242-3.626.16-6.95 1.582-9.597 3.913l.146.147c2.723-2.282 5.923-3.676 9.514-3.836z"/><linearGradient id="f" gradientUnits="userSpaceOnUse" x1="803.045" y1="-10088.47" x2="787.238" y2="-10136.226" gradientTransform="matrix(.164 -.184 -.184 -.164 -1591.844 -1224.531)"><stop offset=".692" stop-color="#FBC61C"/><stop offset=".709" stop-color="#E8B930"/><stop offset=".774" stop-color="#B1924F"/><stop offset=".835" stop-color="#887657"/><stop offset=".892" stop-color="#6E6459"/><stop offset=".943" stop-color="#5E5A58"/><stop offset=".982" stop-color="#595758"/></linearGradient><path fill="url(#f)" d="M398.317 283.895c3.647-.146 6.95 1.106 9.682 3.55l.286-.287c-2.85-2.604-6.11-3.753-9.843-3.69-3.156.043-6.293 1.436-8.61 3.445l.267.33c2.456-2.122 5.263-3.23 8.217-3.348z"/><linearGradient id="g" gradientUnits="userSpaceOnUse" x1="799.016" y1="-10089.594" x2="782.953" y2="-10138.124" gradientTransform="matrix(.164 -.184 -.184 -.164 -1591.844 -1224.531)"><stop offset=".692" stop-color="#FBC61C"/><stop offset=".709" stop-color="#E8B930"/><stop offset=".774" stop-color="#B1924F"/><stop offset=".835" stop-color="#887657"/><stop offset=".892" stop-color="#6E6459"/><stop offset=".943" stop-color="#5E5A58"/><stop offset=".982" stop-color="#595758"/></linearGradient><path fill="url(#g)" d="M398.338 286.268c3.017-.146 5.78.84 8.12 2.976l.392-.49c-2.52-2.254-5.41-3.283-8.59-3.136-2.687.126-5.123 1.21-7.097 2.933l.392.49c1.778-1.54 4.22-2.646 6.783-2.772z"/><g><path fill="#595758" d="M458.09 286.68h.49V309.3h-.49z"/><g fill="#595758"><path d="M419.415 306.366h-1.498c-.084 0-.147.084-.147.146v2.73c0 .084.084.147.147.147h.02c.085 0 .148-.085.148-.148v-1.274h1.253c.084 0 .146-.084.146-.146 0-.084-.084-.147-.146-.147h-1.253v-.986h1.33c.084 0 .146-.086.146-.148.002-.134-.04-.176-.145-.176zM420.507 307.108c-.51 0-.777.203-.777.595v1.148c0 .393.267.596.777.596s.777-.203.777-.595v-1.147c0-.413-.266-.595-.777-.595zm.47.553v1.15c0 .103 0 .265-.49.265s-.49-.16-.49-.266v-1.15c0-.103 0-.265.49-.265s.49.203.49.266zM423.174 307.122c-.084 0-.146.084-.146.147v1.616c-.105.084-.287.202-.596.202-.245 0-.37-.104-.37-.266v-1.56c0-.086-.085-.148-.162-.148-.084 0-.146.084-.146.147v1.562c0 .37.245.595.658.595.245 0 .447-.084.595-.146.02.085.084.127.147.127.062 0 .146-.084.146-.147v-1.945c.035-.12-.05-.183-.126-.183zM424.79 307.108c-.244 0-.468.084-.615.146 0-.084-.084-.126-.146-.126-.085 0-.148.084-.148.147v1.946c0 .085.084.147.16.147.085 0 .147-.084.147-.146v-1.596c.125-.104.328-.203.615-.203.245 0 .37.106.37.268v1.56c0 .085.085.148.148.148h.02c.085 0 .148-.084.148-.147v-1.562c-.04-.377-.286-.58-.7-.58zM427.353 306.282c-.084 0-.146.084-.146.146v.84c-.147-.083-.37-.146-.616-.146-.412 0-.657.225-.657.595v1.148c0 .37.245.595.658.595.246 0 .47-.084.617-.146 0 .084.084.126.146.126.084 0 .147-.084.147-.147v-2.807c.02-.162-.042-.204-.147-.204zm-1.106 1.38c0-.225.203-.267.37-.267.288 0 .49.126.617.203v1.273c-.147.106-.35.204-.616.204-.16 0-.37-.042-.37-.266v-1.147zM428.194 308.767c-.084 0-.147.084-.147.146v.287c0 .084.084.147.147.147h.02c.085 0 .148-.084.148-.147v-.287c-.022-.062-.084-.146-.168-.146zM431.455 309.075h-1.232v-2.562c0-.084-.084-.146-.16-.146-.085 0-.147.084-.147.146v2.73c0 .084.084.147.146.147h1.372c.084 0 .147-.084.147-.147.015-.105-.04-.168-.125-.168zM432.624 307.108c-.51 0-.777.203-.777.595v1.148c0 .393.267.596.777.596s.777-.203.777-.595v-1.147c.022-.413-.244-.595-.776-.595zm.49.553v1.15c0 .103 0 .265-.49.265s-.49-.16-.49-.266v-1.15c0-.103 0-.265.49-.265s.49.203.49.266zM435.102 307.122c-.084 0-.126.042-.146.105l-.51 1.52-.513-1.5c-.02-.083-.084-.125-.16-.125-.042 0-.105.02-.126.042l-.043.084.7 1.988c.02.042.042.104.105.104l.083.225.042-.245c.042-.02.084-.042.084-.105l.657-1.945.02-.084-.02-.042c-.07 0-.09-.022-.175-.022zM436.23 307.108c-.512 0-.777.203-.777.595v1.148c0 .393.266.596.777.596.51 0 .776-.203.776-.595v-.125c0-.084-.084-.147-.16-.147-.085 0-.147.084-.147.147v.126c0 .105 0 .267-.49.267s-.49-.16-.49-.266v-.49h1.126c.084 0 .147-.083.147-.146v-.51c.04-.414-.246-.596-.763-.596zm-.49.917v-.35c0-.105 0-.267.49-.267s.49.16.49.266v.35h-.98zM438.855 306.282c-.084 0-.147.084-.147.146v.84c-.146-.083-.37-.146-.616-.146-.413 0-.658.225-.658.595v1.148c0 .37.245.595.658.595.245 0 .47-.084.616-.146 0 .084.084.126.147.126.062 0 .146-.084.146-.147v-2.807c.023-.162-.06-.204-.145-.204zm-1.107 1.38c0-.225.203-.267.37-.267.288 0 .49.126.617.203v1.273c-.147.106-.35.204-.616.204-.162 0-.372-.042-.372-.266v-1.147zM439.68 308.767c-.084 0-.146.084-.146.146v.287c0 .084.084.147.146.147h.02c.085 0 .147-.084.147-.147v-.287c-.006-.062-.068-.146-.167-.146zM442.71 307.78l-.817-.33c-.084-.02-.225-.104-.225-.286v-.203c0-.125 0-.35.595-.35.596 0 .596.225.596.35v.226c0 .084.083.146.16.146.084 0 .146-.084.146-.146v-.225c0-.447-.287-.657-.882-.657s-.882.225-.882.658v.204c0 .393.33.532.413.574l.818.33c.126.04.245.145.245.286v.37c0 .127 0 .35-.616.35-.595 0-.595-.223-.595-.35v-.202c0-.084-.084-.147-.16-.147-.085 0-.147.084-.147.147v.203c0 .447.287.657.902.657.616 0 .903-.224.903-.657v-.37c0-.246-.187-.45-.454-.575zM443.796 306.282c-.084 0-.146.084-.146.146v.393c0 .085.084.147.146.147h.02c.085 0 .147-.084.147-.146v-.392c0-.104-.06-.146-.167-.146zM443.796 307.122c-.084 0-.146.084-.146.147v1.944c0 .084.084.147.146.147h.02c.085 0 .147-.083.147-.146v-1.945c0-.085-.06-.148-.167-.148zM445.89 307.122c-.085 0-.147.042-.147.126-.147-.084-.37-.146-.616-.146-.413 0-.658.224-.658.595v1.147c0 .37.244.596.657.596.245 0 .47-.084.616-.147v.393c0 .104 0 .266-.47.266h-.573c-.084 0-.147.084-.147.147 0 .083.084.145.147.145h.532c.53 0 .776-.203.776-.595v-2.38c.028-.085-.014-.148-.12-.148zm-1.128.54c0-.225.203-.267.37-.267.288 0 .49.126.617.203v1.273c-.147.106-.35.204-.617.204-.16 0-.37-.042-.37-.266v-1.147zM447.513 307.108c-.244 0-.47.084-.615.146 0-.084-.084-.126-.147-.126-.06 0-.145.084-.145.147v1.946c0 .085.084.147.16.147.084 0 .147-.084.147-.146v-1.596c.126-.104.33-.203.616-.203.245 0 .37.106.37.268v1.56c0 .085.085.148.147.148h.02c.085 0 .147-.084.147-.147v-1.562c-.026-.377-.27-.58-.7-.58zM449.44 307.108c-.513 0-.778.203-.778.595v1.148c0 .393.266.596.777.596.51 0 .775-.203.775-.595v-.125c0-.084-.084-.147-.16-.147-.085 0-.147.084-.147.147v.126c0 .105 0 .267-.49.267s-.49-.16-.49-.266v-.49h1.128c.084 0 .146-.083.146-.146v-.51c.013-.414-.232-.596-.763-.596zm-.492.917v-.35c0-.105 0-.267.49-.267s.49.16.49.266v.35h-.98zM452.042 306.282c-.084 0-.146.084-.146.146v.84c-.147-.083-.37-.146-.616-.146-.413 0-.658.225-.658.595v1.148c0 .37.245.595.658.595.245 0 .47-.084.616-.146 0 .084.084.126.146.126.084 0 .147-.084.147-.147v-2.807c.035-.162-.042-.204-.148-.204zm-1.105 1.38c0-.225.203-.267.37-.267.287 0 .49.126.616.203v1.273c-.146.106-.35.204-.615.204-.16 0-.37-.042-.37-.266v-1.147zM452.882 308.767c-.084 0-.146.084-.146.146v.287c0 .084.084.147.146.147h.02c.085 0 .147-.084.147-.147v-.287c-.02-.062-.062-.146-.168-.146z"/></g></g><g fill="#595758"><path d="M470.586 294.788h1.085v1.82h-1.463l-.244 1.287h1.708v1.842h-2.086l-.566 2.77-1.862-.377.497-2.394h-1.82l-.588 2.884-1.86-.378.51-2.506h-1.1v-1.842h1.464l.265-1.288h-1.73v-1.82h2.108l.553-2.77 1.862.377-.476 2.395h1.82l.587-2.905 1.86.378-.524 2.528zm-2.317 1.82h-1.82l-.267 1.287h1.84l.246-1.288zM478.258 303.16c-3.473 0-5.62-2.64-5.62-6.763 0-4.137 2.147-6.775 5.62-6.775 3.472 0 5.62 2.64 5.62 6.775 0 4.123-2.148 6.763-5.62 6.763zm3.647-6.763c0-2.75-1.1-4.935-3.646-4.935-2.55 0-3.648 2.184-3.648 4.935s1.1 4.936 3.647 4.936c2.546 0 3.645-2.177 3.645-4.936zM490.41 303.16c-3.473 0-5.62-2.64-5.62-6.763 0-4.137 2.147-6.775 5.62-6.775 3.472 0 5.62 2.64 5.62 6.775 0 4.123-2.148 6.763-5.62 6.763zm3.647-6.763c0-2.75-1.1-4.935-3.646-4.935-2.548 0-3.646 2.184-3.646 4.935s1.1 4.936 3.647 4.936c2.548 0 3.647-2.177 3.647-4.936zM503.514 289.755v1.862l-4.802 11.563-1.785-.742 4.39-10.535-.287-.286h-4.047v-1.862h6.53z"/></g></svg>