<svg xmlns="http://www.w3.org/2000/svg" width="600" height="100.528" viewBox="120.945 168.078 600 100.528"><g fill="#FFF"><path d="M393.185 231.922c1.75.767 3.613 1.206 5.803 1.206 2.082 0 3.943-.44 5.803-1.206 1.754-.767 3.397-1.862 4.71-3.176 1.315-1.313 2.41-2.957 3.176-4.708.767-1.75 1.205-3.613 1.205-5.803 0-2.08-.437-3.943-1.204-5.805-.766-1.75-1.86-3.394-3.175-4.708s-2.956-2.41-4.71-3.176c-1.75-.767-3.612-1.204-5.802-1.204-2.08 0-3.94.438-5.803 1.204-1.862.767-3.396 1.862-4.71 3.176s-2.41 2.957-3.175 4.708c-.767 1.753-1.206 3.724-1.206 5.805 0 2.08.44 3.94 1.206 5.803.765 1.75 1.86 3.396 3.175 4.708 1.314 1.424 2.848 2.41 4.71 3.176zm-2.082-16.975c.44-1.095.986-2.08 1.75-2.847.768-.767 1.645-1.423 2.63-1.862.986-.438 2.08-.656 3.285-.656s2.3.218 3.285.656c.986.44 1.862 1.095 2.628 1.862.768.767 1.315 1.75 1.754 2.847.437.986.657 2.19.657 3.396s-.22 2.41-.656 3.504c-.438 1.095-.986 2.08-1.753 2.847-.766.767-1.642 1.424-2.627 1.862-.984.438-2.08.658-3.285.658-1.204 0-2.3-.22-3.285-.658-.985-.438-1.862-1.095-2.63-1.862-.764-.766-1.31-1.75-1.75-2.847-.438-1.095-.656-2.19-.656-3.504 0-1.205.218-2.3.656-3.396zM250.056 220.204c-.11.876-.22 1.75-.657 2.41-.44.656-.768 1.423-1.315 2.08-.548.658-1.206.986-1.862 1.314-.767.33-1.533.44-2.41.44-1.314 0-2.626-.44-3.613-1.207-.767-.655-1.423-1.312-1.862-2.298-.438-.986-.656-1.862-.656-2.738v-31.538h-6.68v32.085c.108.877.108 1.644.218 2.083.11.437.22.984.437 1.643.44 1.204 1.096 2.3 1.862 3.394.767.986 1.752 1.862 2.847 2.628 1.095.656 2.19 1.204 3.505 1.643 1.314.33 2.627.548 3.833.548 1.204 0 2.518-.11 3.724-.547.875-.218 1.75-.657 2.407-.985l.767 1.534h5.805v-12.813-1.643-4.82-6.57-7.227-6.57c0-1.972 0-3.504.108-4.6h-6.57l.108 31.757zM283.127 209.253c-.656-1.095-1.423-2.08-2.41-2.956-.983-.767-2.08-1.534-3.174-1.862-1.205-.438-2.41-.767-3.724-.767-1.314-.11-2.52.11-3.614.437-.33.11-.767.22-1.097.33-.33.11-.657.328-.985.437l-1.206-.875h-6.352v28.8h6.35v-17.412c0-.656.22-1.423.44-2.19.328-.767.767-1.314 1.204-1.862.877-.985 1.972-1.534 3.176-1.862.658-.108 1.206-.108 1.753-.108.658.11 1.205.22 1.752.437 1.095.437 1.862 1.313 2.41 2.408.22.44.438.986.547 1.534.108.22.108.328.108.44v18.286h6.353V214.51c0-.986-.11-1.862-.438-2.848-.328-.985-.766-1.532-1.095-2.41zM309.52 206.187c-.438-.22-.766-.437-1.205-.767-.328-.218-.767-.437-1.204-.656-1.752-.767-3.503-1.206-5.584-1.206-1.972 0-3.833.44-5.586 1.206-1.862.767-3.504 1.862-4.817 3.285-.658.766-1.314 1.533-1.862 2.3-.546.765-.984 1.642-1.312 2.518-.658 1.862-.986 3.833-.986 5.803 0 1.863.328 3.725.986 5.586.328.767.767 1.75 1.313 2.52.44.766 1.206 1.533 1.863 2.19 1.313 1.422 2.956 2.518 4.817 3.284 1.753.767 3.614 1.206 5.586 1.206 2.08-.11 3.94-.44 5.585-1.206.22-.11.438-.11.548-.22.11-.108.328-.108.547-.217l1.204 1.204v.11h6.35v-44.132h-6.242v17.192zm-.11 15.55c-.438 1.096-1.204 2.08-1.862 2.848-.767.767-1.75 1.314-2.847 1.862-.985.437-2.08.656-3.174.656-1.095 0-2.082-.22-3.285-.656-.985-.44-1.86-1.095-2.737-1.862-.986-.986-1.753-2.19-2.082-3.613-.327-1.425-.437-2.848-.218-4.163.11-.22.11-.438.22-.766.108-.33.108-.548.22-.767.218-.438.437-.986.765-1.534.33-.547.657-.875 1.096-1.314.767-.768 1.75-1.533 2.738-1.863.438-.22.985-.437 1.533-.437.55 0 1.097-.11 1.753-.22 1.095 0 2.08.22 3.175.657 1.097.44 2.082.986 2.848 1.862.767.766 1.423 1.752 1.862 2.847.438.985.656 2.19.656 3.394 0 .987-.218 2.082-.656 3.068zM319.923 203.888h6.35v28.8h-6.35zM485.61 204.106c-.22-.11-.657-.11-.985-.11-.658-.108-1.205-.108-1.86 0-.66.11-1.207.22-1.863.44-.438.108-.767.218-1.095.327-.22.11-.656.328-.986.438l-1.31-1.204h-6.354v28.8h6.353V216.15c0-.547.107-1.094.217-1.642.11-.547.22-.986.33-1.206.108-.328.217-.656.437-.875.22-.22.438-.438.658-.767.984-.984 1.97-1.532 3.174-1.75.548-.11 1.096-.11 1.754-.11.22 0 .437.11.656.11l1.754-5.806c-.334.002-.55.002-.88.002zM513.534 214.07c-.11-.436-.22-.766-.22-1.203-.11-.438-.218-.767-.437-1.206-.656-1.75-1.533-3.174-2.848-4.38-1.205-1.203-2.628-2.08-4.27-2.737-.987-.328-1.974-.656-2.958-.767-.986-.11-2.08-.22-2.957-.11-.876 0-1.753.11-2.41.22-.655.11-1.203.218-1.313.218-.767.22-1.643.658-2.3.986-.657.328-1.424.767-2.08 1.314-1.534.986-2.63 2.3-3.505 3.724-.876 1.423-1.533 2.957-1.86 4.6-.33 1.532-.44 3.175-.22 4.817.11 1.643.547 3.176 1.204 4.71.658 1.53 1.533 2.956 2.63 4.16 1.204 1.206 2.408 2.19 3.94 2.957.77.44 1.535.657 2.3.986 1.645.437 3.287.766 4.82.766 1.314 0 2.628-.218 3.83-.438 1.207-.22 2.302-.767 3.286-1.314 1.534-.767 2.85-1.862 3.943-2.957l-4.82-4.16c-.218.437-.655.766-.984 1.094s-.767.655-1.205.875c-.766.547-1.75.875-2.735 1.095-.22.11-.438.11-.657.11-.22.11-.44.11-.658.11-.22 0-.438-.11-.767-.11-.218-.11-.438-.11-.766-.11-.767-.11-1.753-.438-2.63-.986-.766-.438-1.532-1.095-2.188-1.86-.66-.767-1.207-1.534-1.535-2.41-.108-.22-.22-.547-.22-.767-.108-.22-.108-.548-.218-.767l.657-.547h20.696v-3.066c-.108-.658-.108-1.206-.108-1.534-.327-.764-.438-1.092-.438-1.312zm-19.382-.546l-.22-.767c.548-.657 1.204-1.313 1.753-1.75.657-.44 1.313-.877 2.19-1.207.876-.328 1.532-.328 2.3-.218.766.11 1.533.11 2.3.328.766.22 1.312.437 1.86.767.547.328.986.656 1.314.984.546.66.985 1.207 1.204 1.863h-12.702zM539.818 188.666v17.412c-.438-.22-.77-.438-1.205-.767-.328-.218-.767-.437-1.206-.655-1.75-.767-3.504-1.206-5.584-1.206-1.972 0-3.832.438-5.585 1.205-1.862.765-3.505 1.86-4.82 3.285-.655.765-1.31 1.532-1.86 2.3-.548.766-.985 1.642-1.313 2.518-.657 1.862-.985 3.834-.985 5.805 0 1.862.328 3.722.985 5.584.328.767.766 1.753 1.314 2.52.437.765 1.203 1.532 1.86 2.19 1.313 1.423 2.956 2.518 4.818 3.285 1.753.767 3.613 1.204 5.585 1.204 2.08-.11 3.94-.438 5.584-1.204.22-.11.44-.11.548-.22.11-.108.33-.108.548-.218l1.205 1.205v.108h6.35v-44.132h-6.24v-.22zm-.11 33.072c-.44 1.095-1.206 2.08-1.862 2.847-.768.767-1.75 1.314-2.847 1.862-.987.437-2.082.656-3.178.656-1.095 0-2.19-.22-3.285-.656-.985-.44-1.86-1.095-2.737-1.862-.986-.986-1.753-2.19-2.08-3.613-.33-1.534-.44-2.848-.22-4.163.11-.22.11-.438.22-.766.107-.22.107-.548.22-.767.218-.438.436-.986.766-1.534.218-.438.656-.875 1.095-1.314.767-.768 1.753-1.533 2.738-1.863.438-.22.985-.437 1.532-.437.548 0 1.096-.11 1.753-.22 1.096 0 2.08.22 3.177.657 1.096.44 2.08.986 2.847 1.862.767.766 1.423 1.752 1.86 2.847.44.985.657 2.19.657 3.394 0 .987-.22 2.082-.657 3.068zM326.165 194.25c-.11-.11-.22-.22-.44-.437-.107-.11-.107-.11-.218-.22-.765-.766-1.86-1.752-2.08-2.19h-.878c-.217.44-1.312 1.424-2.08 2.19l-.218.22c-.11.11-.22.218-.438.437l-.218.22c-.33.655-.547 1.203-.547 1.97 0 1.095.436 2.082 1.203 2.738.767.767 1.75 1.206 2.738 1.206 1.096 0 2.082-.44 2.738-1.206.768-.767 1.206-1.75 1.206-2.738-.11-.767-.22-1.423-.658-1.97.11 0-.002-.11-.11-.22z"/><path d="M467.43 214.07c-.108-.436-.217-.766-.217-1.203-.11-.438-.22-.767-.438-1.206-.657-1.75-1.534-3.174-2.85-4.38-1.203-1.203-2.626-2.08-4.27-2.737-.985-.328-1.972-.656-2.956-.767-.987-.11-2.082-.22-2.958-.11-.876 0-1.753.11-2.41.22-.655.11-1.203.218-1.313.218-.768.22-1.644.658-2.3.986-.22.11-.658.328-.877.548-2.19-8.54-6.57-16.317-12.922-22.778-9.417-9.418-21.682-14.783-34.932-14.783-13.14 0-25.625 5.256-34.934 14.783-9.308 9.527-14.455 22.122-14.455 35.48v.22c-.11-.11-.11-.22-.22-.328-1.313-1.534-3.066-2.63-5.256-3.287l-4.6-1.313c-.656-.22-.986-.438-1.314-.767-.33-.328-.437-.767-.437-1.206 0-.657.218-1.096.765-1.533.547-.438 1.314-.658 2.19-.658.438 0 .877.11 1.314.327.438.22.767.438 1.095.767l4.382-4.6c-1.863-1.75-4.163-2.626-6.792-2.626-1.313 0-2.518.218-3.613.657-1.204.438-2.08.986-2.957 1.753-.875.765-1.532 1.643-2.08 2.627-.438.986-.767 2.08-.767 3.176 0 1.863.657 3.395 1.752 4.82 1.205 1.423 2.737 2.41 4.71 2.957l4.6 1.312c.764.218 1.53.657 2.08 1.205.547.547.766 1.095.766 1.75 0 .768-.44 1.535-1.314 2.3-.875.658-1.862.986-3.066.986-1.205 0-2.3-.327-3.176-.984-.875-.658-1.314-1.314-1.314-2.19h-6.242c0 1.314.22 2.52.766 3.613.548 1.205 1.315 2.08 2.3 2.956.985.875 2.08 1.534 3.395 2.08 1.314.438 2.628.768 4.162.768 1.422 0 2.846-.22 4.05-.767 1.313-.438 2.41-1.206 3.395-2.08.986-.768 1.75-1.752 2.19-2.848 1.753 9.963 6.57 19.053 13.69 26.39 9.307 9.528 21.68 14.784 34.93 14.784 13.14 0 25.626-5.256 34.934-14.783 6.35-6.57 10.73-14.345 12.92-23.105.22.11.548.328.768.437.767.44 1.533.658 2.3.986 1.644.437 3.286.767 4.82.767 1.31 0 2.626-.22 3.832-.438 1.203-.22 2.3-.767 3.285-1.314 1.53-.767 2.846-1.862 3.94-2.957l-4.816-4.16c-.22.438-.66.766-.987 1.095-.328.33-.767.657-1.205.876-.766.548-1.752.876-2.738 1.095-.218.11-.437.11-.656.11-.22.11-.438.11-.656.11-.22 0-.438-.11-.767-.11-.22-.11-.437-.11-.766-.11-.768-.108-1.753-.436-2.63-.984-.766-.438-1.53-1.095-2.19-1.862-.107-.11-.218-.328-.436-.438.108-1.314.218-2.737.218-4.16h19.492v-3.067c-.108-.66-.108-1.207-.108-1.535 0-.436 0-.764-.11-.984zm-33.728 39.754c-9.308 9.418-21.683 14.674-34.823 14.674-13.143 0-25.517-5.256-34.826-14.674-7.227-7.337-11.937-16.536-13.58-26.502.548-1.204.768-2.3.768-3.613 0-1.754-.437-3.397-1.532-4.93v-.437c0-13.36 5.147-25.954 14.345-35.48 9.2-9.528 21.683-14.675 34.825-14.675 13.14 0 25.516 5.256 34.823 14.674 6.35 6.353 10.622 14.237 12.812 22.778-.328.22-.768.438-1.096.658-1.533.985-2.628 2.3-3.505 3.722-.11.11-.11.22-.11.22-1.532-8.76-5.693-16.865-12.044-23.326-8.322-8.323-19.164-12.92-30.88-12.92-11.61 0-22.56 4.597-30.774 12.92-6.023 6.133-10.075 13.798-11.826 22.23-.438.658-.986 1.314-1.314 2.08-.986 1.972-1.534 4.272-1.534 6.9 0 1.752.22 3.284.767 4.818.437 1.314 1.205 2.518 1.97 3.724 1.643 8.65 5.805 16.536 11.937 22.887 8.214 8.323 19.165 12.923 30.773 12.923 11.606 0 22.56-4.6 30.77-12.923 6.462-6.57 10.623-14.894 12.156-23.873.438.876 1.096 1.753 1.862 2.41.876.986 1.86 1.75 2.957 2.41-2.08 8.978-6.462 16.97-12.923 23.324zm-72.166-30.115c-.437-.548-.767-1.207-.984-1.863-.44-1.206-.767-2.3-.767-3.504 0-1.97.548-3.724 1.643-5.256l.22-.22c-.22 1.863-.44 3.725-.44 5.695 0 1.642.22 3.394.328 5.147zm-1.532 6.897c1.204.767 2.408 1.314 3.833 1.862 1.862 4.818 4.708 9.307 8.432 13.14 7.117 7.228 16.644 11.17 26.72 11.17 10.074 0 19.6-4.052 26.72-11.17 7.117-7.227 11.06-16.865 11.06-27.16 0-1.86-.11-3.72-.438-5.583l3.065-8.87h-5.476c-1.86-4.71-4.707-8.98-8.32-12.705-7.12-7.227-16.646-11.17-26.72-11.17-10.077 0-19.603 4.053-26.722 11.17-3.613 3.724-6.57 8.104-8.322 12.923-1.753.438-3.396 1.314-4.927 2.41-.66.547-1.315 1.203-1.863 1.75 1.75-7.774 5.694-15.11 11.39-20.916 8.103-8.324 18.943-12.813 30.442-12.813 11.497 0 22.23 4.6 30.442 12.812 6.35 6.57 10.513 14.784 11.937 23.653-.55 1.206-.987 2.3-1.207 3.504-.328 1.534-.437 3.176-.218 4.82.11 1.642.548 3.175 1.204 4.707.108.22.22.658.437.767-1.314 9.2-5.585 17.632-12.155 24.313-8.104 8.323-18.946 12.812-30.443 12.812-11.5 0-22.23-4.6-30.444-12.812-5.914-6.023-9.746-13.47-11.5-21.464.876 1.205 1.863 2.08 3.068 2.847zm75.56-12.264c-.11 9.966-3.832 19.273-10.732 26.39-6.898 7.01-16.206 10.953-25.843 10.953-9.748 0-19.055-3.833-25.845-10.952-3.396-3.504-6.133-7.556-7.994-11.937.55.11 1.096.22 1.644.22.766.11 1.643.11 2.408 0 .33-.11.767-.11 1.095-.11 1.534 3.066 3.504 5.913 6.024 8.54 6.023 6.134 14.017 9.528 22.56 9.528 8.54 0 16.536-3.394 22.56-9.527 2.518-2.628 4.6-5.475 6.13-8.65h1.754l6.022-17.413c.218.987.218 1.97.218 2.958zM398.88 239.26c10.62 0 19.49-8.324 20.367-18.946l2.19 6.353c-3.285 9.417-12.156 16.206-22.56 16.206-9.198 0-17.302-5.365-21.243-13.14.984-.767 1.86-1.753 2.627-2.738 3.178 7.227 10.296 12.264 18.62 12.264zm-17.632-20.917c0-9.966 7.993-17.96 17.63-17.96 9.747 0 17.632 8.105 17.632 17.96s-7.995 17.96-17.63 17.96c-9.64 0-17.632-7.995-17.632-17.96zm32.524-14.237c-3.724-3.942-8.98-6.46-14.784-6.46-8.323 0-15.44 5.037-18.616 12.154-.767-.985-1.643-1.97-2.63-2.738 4.053-7.774 11.938-13.03 21.137-13.03 7.992 0 14.892 3.942 19.272 9.965l-4.38.11zm-34.277 7.666c-.657 2.08-.985 4.27-.985 6.57 0 2.19.328 4.38.985 6.46l-3.942-2.19c-.11.11-.11.22-.22.22-.218-1.534-.437-2.957-.437-4.49s.11-3.067.438-4.6c.11.108.11.108.11.22l4.05-2.19zm-3.722 19.274c4.49 8.323 13.14 14.016 23.106 14.016 10.402 0 19.49-6.242 23.652-15.22l.984 2.847h2.192c-1.314 2.737-3.177 5.255-5.367 7.445-5.804 5.805-13.36 8.98-21.462 8.98s-15.66-3.176-21.464-8.98c-2.19-2.3-4.052-4.817-5.475-7.557.656-.11 1.312-.328 1.86-.656.768-.22 1.425-.548 1.973-.876zm51.03-9.857h-.766l-.986-2.74c0-14.782-11.825-26.718-26.17-26.718-9.967 0-18.618 5.584-23.107 14.018-1.205-.658-2.41-1.206-3.833-1.534 1.313-2.738 3.175-5.256 5.475-7.557 5.804-5.804 13.36-8.98 21.464-8.98s15.658 3.176 21.462 8.98c4.928 4.927 7.884 11.388 8.652 18.178l-2.19 6.35zm-54.206-10.293l.986.656c-.658 2.19-.877 4.49-.877 6.898 0 2.3.22 4.6.767 6.682-.22.22-.437.438-.767.656-.876.658-1.86.986-2.957 1.314-.766-2.738-1.205-5.584-1.205-8.65 0-3.067.44-5.804 1.204-8.65 1.095.108 1.97.547 2.847 1.095zm57.6.547c-1.312-6.024-4.16-11.608-8.65-15.988-6.022-6.133-14.126-9.53-22.558-9.53-8.542 0-16.537 3.397-22.56 9.53-2.41 2.408-4.49 5.256-5.914 8.322-1.75-.22-3.504-.22-5.147.11 1.86-4.38 4.49-8.323 7.775-11.828 6.898-7.01 16.208-10.95 25.844-10.95 9.746 0 19.053 3.833 25.842 10.95 3.396 3.504 6.134 7.556 7.995 11.937l-2.63 7.447zm-62.09-1.862c-.766 2.847-1.206 5.803-1.206 8.76s.44 5.914 1.206 8.76c-.985 0-1.97-.22-2.847-.547-.876-.328-1.754-.767-2.41-1.423-.438-2.19-.656-4.49-.656-6.79 0-2.41.218-4.708.656-7.01.547-.436 1.095-.766 1.753-.984 1.204-.438 2.3-.766 3.503-.766zm79.83 14.016c-.437-.656-.764-1.204-.983-1.75-.11-.22-.22-.548-.22-.768-.108-.22-.108-.548-.22-.767l.66-.547h1.094c-.22 1.095-.22 2.52-.33 3.832zm.11-10.074c-.11-.328-.11-.547-.11-.875.44-.658.987-1.205 1.646-1.644.656-.44 1.313-.876 2.19-1.206.765-.218 1.53-.328 2.298-.218.77.11 1.535.11 2.302.328.766.22 1.312.437 1.86.767.548.328.986.656 1.314.984.548.66.986 1.207 1.205 1.863H448.05z"/></g><path fill="none" d="M398.88 200.492c-9.748 0-17.632 8.104-17.632 17.96 0 9.856 7.993 17.96 17.63 17.96 9.747 0 17.632-8.105 17.632-17.96 0-9.856-7.885-17.96-17.63-17.96zm0 32.853c-8.105 0-14.786-6.68-14.786-14.894 0-8.212 6.57-14.893 14.785-14.893 8.103 0 14.782 6.68 14.782 14.894 0 8.105-6.68 14.895-14.783 14.895z"/><linearGradient id="a" gradientUnits="userSpaceOnUse" x1="479.469" y1="-236.172" x2="479.469" y2="-236.172" gradientTransform="matrix(.439 0 0 .439 236.048 274.924)"><stop offset=".153" stop-color="#FBC61A"/><stop offset=".556" stop-color="#7A600D"/><stop offset=".85" stop-color="#221B04"/><stop offset=".982"/></linearGradient><linearGradient id="b" gradientUnits="userSpaceOnUse" x1="997.627" y1="2575.727" x2="972.061" y2="2652.969" gradientTransform="matrix(.292 -.327 .327 .292 -749.688 -246.823)"><stop offset=".692" stop-color="#FBC61A"/><stop offset=".722" stop-color="#FCCF40"/><stop offset=".774" stop-color="#FDDE79"/><stop offset=".823" stop-color="#FEEAA9"/><stop offset=".87" stop-color="#FEF3CE"/><stop offset=".913" stop-color="#FFFAE9"/><stop offset=".952" stop-color="#FFFEF9"/><stop offset=".982" stop-color="#FFF"/></linearGradient><path fill="url(#b)" d="M410.925 205.202l1.862-2.08c-7.995-7.448-19.712-7.23-27.377-.44l1.862 2.19c6.68-5.912 16.972-6.022 23.653.33z"/><linearGradient id="c" gradientUnits="userSpaceOnUse" x1="1018.806" y1="2574.298" x2="994.841" y2="2646.847" gradientTransform="matrix(.288 -.324 .324 .29 -737.089 -249.869)"><stop offset=".692" stop-color="#FBC61A"/><stop offset=".722" stop-color="#FCCF40"/><stop offset=".774" stop-color="#FDDE79"/><stop offset=".823" stop-color="#FEEAA9"/><stop offset=".87" stop-color="#FEF3CE"/><stop offset=".913" stop-color="#FFFAE9"/><stop offset=".952" stop-color="#FFFEF9"/><stop offset=".982" stop-color="#FFF"/></linearGradient><path fill="url(#c)" d="M396.14 168.406c8.104-.438 16.098.986 23.327 4.49 4.38 2.08 8.65 4.818 12.373 8.322l.11-.108c-9.965-8.98-21.902-13.58-35.7-12.923-10.95.547-21.244 4.82-29.35 11.937l.11.11c8.105-7.01 18.18-11.17 29.13-11.828z"/><linearGradient id="d" gradientUnits="userSpaceOnUse" x1="1003.251" y1="2574.976" x2="978.357" y2="2650.186" gradientTransform="matrix(.292 -.327 .327 .292 -749.688 -246.823)"><stop offset=".692" stop-color="#FBC61A"/><stop offset=".722" stop-color="#FCCF40"/><stop offset=".774" stop-color="#FDDE79"/><stop offset=".823" stop-color="#FEEAA9"/><stop offset=".87" stop-color="#FEF3CE"/><stop offset=".913" stop-color="#FFFAE9"/><stop offset=".952" stop-color="#FFFEF9"/><stop offset=".982" stop-color="#FFF"/></linearGradient><path fill="url(#d)" d="M415.085 200.492l1.534-1.75c-9.967-9.42-25.078-9.31-34.935-.44l1.534 1.753c9.087-8.104 22.886-8.104 31.865.437z"/><linearGradient id="e" gradientUnits="userSpaceOnUse" x1="1021.336" y1="2569.446" x2="997.411" y2="2641.729" gradientTransform="matrix(.292 -.327 .327 .292 -749.688 -246.823)"><stop offset=".692" stop-color="#FBC61A"/><stop offset=".722" stop-color="#FCCF40"/><stop offset=".774" stop-color="#FDDE79"/><stop offset=".823" stop-color="#FEEAA9"/><stop offset=".87" stop-color="#FEF3CE"/><stop offset=".913" stop-color="#FFFAE9"/><stop offset=".952" stop-color="#FFFEF9"/><stop offset=".982" stop-color="#FFF"/></linearGradient><path fill="url(#e)" d="M396.578 174.758c11.608-.548 22.23 3.285 31.102 11.28l.437-.328c-8.87-8.104-19.93-12.047-31.538-11.5-9.856.44-18.836 4.27-26.064 10.623l.44.438c7.226-6.35 15.987-10.074 25.622-10.512z"/><linearGradient id="f" gradientUnits="userSpaceOnUse" x1="1015.056" y1="2571.65" x2="990.946" y2="2644.49" gradientTransform="matrix(.292 -.327 .327 .292 -749.688 -246.823)"><stop offset=".692" stop-color="#FBC61A"/><stop offset=".722" stop-color="#FCCF40"/><stop offset=".774" stop-color="#FDDE79"/><stop offset=".823" stop-color="#FEEAA9"/><stop offset=".87" stop-color="#FEF3CE"/><stop offset=".913" stop-color="#FFFAE9"/><stop offset=".952" stop-color="#FFFEF9"/><stop offset=".982" stop-color="#FFF"/></linearGradient><path fill="url(#f)" d="M397.237 181.11c9.855-.44 18.835 2.957 26.28 9.636l.768-.767c-7.774-7.008-16.536-10.185-26.72-9.965-8.542.11-17.083 3.833-23.435 9.417l.766.877c6.68-5.806 14.237-8.872 22.34-9.2z"/><linearGradient id="g" gradientUnits="userSpaceOnUse" x1="1009.296" y1="2573.494" x2="984.798" y2="2647.51" gradientTransform="matrix(.292 -.327 .327 .292 -749.688 -246.823)"><stop offset=".692" stop-color="#FBC61A"/><stop offset=".722" stop-color="#FCCF40"/><stop offset=".774" stop-color="#FDDE79"/><stop offset=".823" stop-color="#FEEAA9"/><stop offset=".87" stop-color="#FEF3CE"/><stop offset=".913" stop-color="#FFFAE9"/><stop offset=".952" stop-color="#FFFEF9"/><stop offset=".982" stop-color="#FFF"/></linearGradient><path fill="url(#g)" d="M397.345 187.57c8.104-.437 15.77 2.3 22.122 8.104l1.095-1.313c-6.79-6.132-14.784-8.87-23.325-8.542-7.228.33-13.91 3.286-19.273 7.996l1.095 1.312c4.706-4.16 11.277-7.227 18.285-7.555z"/><g><path fill="none" d="M398.88 200.384c-9.748 0-17.632 8.104-17.632 17.96 0 9.965 7.993 17.958 17.63 17.958 9.747 0 17.632-8.104 17.632-17.96.11-9.965-7.885-17.958-17.63-17.958zm0 32.852c-8.105 0-14.676-6.68-14.676-14.894s6.57-14.894 14.675-14.894 14.673 6.68 14.673 14.894-6.57 14.894-14.674 14.894z"/></g><g><path fill="#FBC61A" d="M446.187 171.364zM446.187 171.364z"/><path fill="#FAC51A" d="M446.187 171.364z"/><path fill="#F9C41A" d="M446.187 171.364z"/><path fill="#F8C41A" d="M446.187 171.364z"/><path fill="#F7C31A" d="M446.187 171.364z"/><path fill="#F6C21A" d="M446.187 171.364z"/><path fill="#F4C11A" d="M446.187 171.364z"/><path fill="#F3C01A" d="M446.187 171.364z"/><path fill="#F2BF1A" d="M446.187 171.364z"/><path fill="#F1BF1A" d="M446.187 171.364z"/><path fill="#F0BE1A" d="M446.187 171.364z"/><path fill="#EFBD1A" d="M446.187 171.364z"/><path fill="#EEBC1A" d="M446.187 171.364z"/><path fill="#EDBB1A" d="M446.187 171.364z"/><path fill="#ECBA1A" d="M446.187 171.364z"/><path fill="#EBBA1A" d="M446.187 171.364z"/><path fill="#EAB91A" d="M446.187 171.364z"/><path fill="#E9B81A" d="M446.187 171.364z"/><path fill="#E7B71A" d="M446.187 171.364z"/><path fill="#E6B61A" d="M446.187 171.364z"/><path fill="#E5B61A" d="M446.187 171.364z"/><path fill="#E4B51A" d="M446.187 171.364z"/><path fill="#E3B41A" d="M446.187 171.364z"/><path fill="#E2B31A" d="M446.187 171.364z"/><path fill="#E1B21A" d="M446.187 171.364z"/><path fill="#E0B11A" d="M446.187 171.364z"/><path fill="#DFB11A" d="M446.187 171.364z"/><path fill="#DEB01A" d="M446.187 171.364z"/><path fill="#DDAF1A" d="M446.187 171.364z"/><path fill="#DCAE1A" d="M446.187 171.364z"/><path fill="#DBAD1A" d="M446.187 171.364z"/><path fill="#D9AC1A" d="M446.187 171.364z"/><path fill="#D8AC1A" d="M446.187 171.364z"/><path fill="#D7AB1A" d="M446.187 171.364z"/><path fill="#D6AA1A" d="M446.187 171.364z"/><path fill="#D5A91A" d="M446.187 171.364z"/><path fill="#D4A81A" d="M446.187 171.364z"/><path fill="#D3A81A" d="M446.187 171.364z"/><path fill="#D2A71A" d="M446.187 171.364z"/><path fill="#D1A61A" d="M446.187 171.364z"/><path fill="#D0A51A" d="M446.187 171.364z"/><path fill="#CFA41A" d="M446.187 171.364z"/><path fill="#CEA41A" d="M446.187 171.364z"/><path fill="#CDA31A" d="M446.187 171.364z"/><path fill="#CCA21A" d="M446.187 171.364z"/><path fill="#CAA11A" d="M446.187 171.364z"/><path fill="#C9A01A" d="M446.187 171.364z"/><path fill="#C89F1A" d="M446.187 171.364z"/><path fill="#C79F1A" d="M446.187 171.364z"/><path fill="#C69E1A" d="M446.187 171.364z"/><path fill="#C59D1A" d="M446.187 171.364z"/><path fill="#C49C1A" d="M446.187 171.364z"/><path fill="#C39B1A" d="M446.187 171.364z"/><path fill="#C29B1A" d="M446.187 171.364z"/><path fill="#C19A1A" d="M446.187 171.364z"/><path fill="#C0991A" d="M446.187 171.364z"/><path fill="#BF981A" d="M446.187 171.364z"/><path fill="#BE971A" d="M446.187 171.364z"/><path fill="#BD971A" d="M446.187 171.364z"/><path fill="#BC961A" d="M446.187 171.364z"/><path fill="#BB951A" d="M446.187 171.364z"/><path fill="#B9941A" d="M446.187 171.364z"/><path fill="#B8931A" d="M446.187 171.364z"/><path fill="#B7931A" d="M446.187 171.364z"/><path fill="#B6921A" d="M446.187 171.364z"/><path fill="#B5911A" d="M446.187 171.364z"/><path fill="#B4901A" d="M446.187 171.364z"/><path fill="#B38F1A" d="M446.187 171.364z"/><path fill="#B28E1A" d="M446.187 171.364z"/><path fill="#B18E1A" d="M446.187 171.364z"/><path fill="#B08D1A" d="M446.187 171.364z"/><path fill="#AF8C1A" d="M446.187 171.364z"/><path fill="#AE8B1A" d="M446.187 171.364z"/><path fill="#AD8A1A" d="M446.187 171.364z"/><path fill="#AC8A1A" d="M446.187 171.364z"/><path fill="#AB891A" d="M446.187 171.364z"/><path fill="#AA881A" d="M446.187 171.364z"/><path fill="#A9871A" d="M446.187 171.364z"/><path fill="#A8861A" d="M446.187 171.364z"/><path fill="#A6861A" d="M446.187 171.364z"/><path fill="#A5851A" d="M446.187 171.364z"/><path fill="#A4841A" d="M446.187 171.364z"/><path fill="#A3831A" d="M446.187 171.364z"/><path fill="#A2821A" d="M446.187 171.364z"/><path fill="#A1821A" d="M446.187 171.364z"/><path fill="#A0811A" d="M446.187 171.364z"/><path fill="#9F801A" d="M446.187 171.364z"/><path fill="#9E7F1A" d="M446.187 171.364z"/><path fill="#9D7F1A" d="M446.187 171.364z"/><path fill="#9C7E1A" d="M446.187 171.364z"/><path fill="#9B7D1A" d="M446.187 171.364z"/><path fill="#9A7C1A" d="M446.187 171.364z"/><path fill="#997B1A" d="M446.187 171.364z"/><path fill="#987B1A" d="M446.187 171.364z"/><path fill="#977A1A" d="M446.187 171.364z"/><path fill="#96791A" d="M446.187 171.364z"/><path fill="#95781A" d="M446.187 171.364z"/><path fill="#94771A" d="M446.187 171.364z"/><path fill="#93771A" d="M446.187 171.364z"/><path fill="#92761A" d="M446.187 171.364z"/><path fill="#91751A" d="M446.187 171.364z"/><path fill="#90741A" d="M446.187 171.364z"/><path fill="#8F731A" d="M446.187 171.364z"/><path fill="#8E731A" d="M446.187 171.364z"/><path fill="#8C721A" d="M446.187 171.364z"/><path fill="#8B711B" d="M446.187 171.364z"/><path fill="#8A701B" d="M446.187 171.364z"/><path fill="#89701B" d="M446.187 171.364z"/><path fill="#886F1B" d="M446.187 171.364z"/><path fill="#876E1B" d="M446.187 171.364z"/><path fill="#866D1B" d="M446.187 171.364z"/><path fill="#856C1B" d="M446.187 171.364z"/><path fill="#846C1B" d="M446.187 171.364z"/><path fill="#836B1B" d="M446.187 171.364z"/><path fill="#826A1B" d="M446.187 171.364z"/><path fill="#81691B" d="M446.187 171.364z"/><path fill="#80681B" d="M446.187 171.364z"/><path fill="#7F681B" d="M446.187 171.364z"/><path fill="#7E671B" d="M446.187 171.364z"/><path fill="#7D661B" d="M446.187 171.364z"/><path fill="#7C651B" d="M446.187 171.364z"/><path fill="#7B651B" d="M446.187 171.364z"/><path fill="#7A641B" d="M446.187 171.364z"/><path fill="#79631B" d="M446.187 171.364z"/><path fill="#78621B" d="M446.187 171.364z"/><path fill="#77621B" d="M446.187 171.364z"/><path fill="#76611B" d="M446.187 171.364z"/><path fill="#75601B" d="M446.187 171.364z"/><path fill="#745F1B" d="M446.187 171.364z"/><path fill="#735E1B" d="M446.187 171.364z"/><path fill="#725E1B" d="M446.187 171.364z"/><path fill="#715D1B" d="M446.187 171.364z"/><path fill="#705C1B" d="M446.187 171.364z"/><path fill="#6F5B1B" d="M446.187 171.364z"/><path fill="#6E5B1B" d="M446.187 171.364z"/><path fill="#6D5A1B" d="M446.187 171.364z"/><path fill="#6C591B" d="M446.187 171.364z"/><path fill="#6B581B" d="M446.187 171.364z"/><path fill="#6A581B" d="M446.187 171.364z"/><path fill="#69571B" d="M446.187 171.364z"/><path fill="#68561B" d="M446.187 171.364z"/><path fill="#67551B" d="M446.187 171.364z"/><path fill="#66541B" d="M446.187 171.364z"/><path fill="#65541B" d="M446.187 171.364z"/><path fill="#64531B" d="M446.187 171.364z"/><path fill="#63521B" d="M446.187 171.364z"/><path fill="#62511B" d="M446.187 171.364z"/><path fill="#61511B" d="M446.187 171.364z"/><path fill="#60501B" d="M446.187 171.364z"/><path fill="#5F4F1B" d="M446.187 171.364z"/><path fill="#5E4E1B" d="M446.187 171.364z"/><path fill="#5D4E1B" d="M446.187 171.364z"/><path fill="#5C4D1B" d="M446.187 171.364z"/><path fill="#5B4C1B" d="M446.187 171.364z"/><path fill="#5A4B1B" d="M446.187 171.364z"/><path fill="#594B1B" d="M446.187 171.364z"/><path fill="#584A1B" d="M446.187 171.364z"/><path fill="#57491B" d="M446.187 171.364z"/><path fill="#56481B" d="M446.187 171.364z"/><path fill="#55481B" d="M446.187 171.364z"/><path fill="#54471B" d="M446.187 171.364z"/><path fill="#53461B" d="M446.187 171.364z"/><path fill="#52451B" d="M446.187 171.364z"/><path fill="#51451B" d="M446.187 171.364z"/><path fill="#50441B" d="M446.187 171.364z"/><path fill="#4F431B" d="M446.187 171.364z"/><path fill="#4E421B" d="M446.187 171.364z"/><path fill="#4D421B" d="M446.187 171.364z"/><path fill="#4C411B" d="M446.187 171.364z"/><path fill="#4B401B" d="M446.187 171.364z"/><path fill="#4A401B" d="M446.187 171.364z"/><path fill="#493F1B" d="M446.187 171.364z"/><path fill="#483E1B" d="M446.187 171.364z"/><path fill="#473D1B" d="M446.187 171.364zM446.187 171.364z"/><path fill="#463C1B" d="M446.187 171.364z"/><path fill="#453B1B" d="M446.187 171.364z"/><path fill="#443A1B" d="M446.187 171.364z"/><path fill="#433A1B" d="M446.187 171.364z"/><path fill="#42391B" d="M446.187 171.364z"/><path fill="#41381B" d="M446.187 171.364z"/><path fill="#40381B" d="M446.187 171.364z"/><path fill="#3F371B" d="M446.187 171.364z"/><path fill="#3E361B" d="M446.187 171.364z"/><path fill="#3D351B" d="M446.187 171.364z"/><path fill="#3C351B" d="M446.187 171.364z"/><path fill="#3B341B" d="M446.187 171.364z"/><path fill="#3A331B" d="M446.187 171.364z"/><path fill="#39331B" d="M446.187 171.364z"/><path fill="#38321B" d="M446.187 171.364z"/><path fill="#37311B" d="M446.187 171.364z"/><path fill="#37301B" d="M446.187 171.364z"/><path fill="#36301B" d="M446.187 171.364z"/><path fill="#352F1B" d="M446.187 171.364z"/><path fill="#342E1B" d="M446.187 171.364z"/><path fill="#332E1B" d="M446.187 171.364z"/><path fill="#322D1B" d="M446.187 171.364z"/><path fill="#312C1B" d="M446.187 171.364z"/><path fill="#302C1B" d="M446.187 171.364z"/><path fill="#2F2B1B" d="M446.187 171.364z"/><path fill="#2E2A1B" d="M446.187 171.364z"/><path fill="#2D2A1B" d="M446.187 171.364z"/><path fill="#2D291B" d="M446.187 171.364z"/><path fill="#2C281B" d="M446.187 171.364z"/><path fill="#2B281B" d="M446.187 171.364z"/><path fill="#2A271B" d="M446.187 171.364z"/><path fill="#29261B" d="M446.187 171.364z"/><path fill="#28261B" d="M446.187 171.364z"/><path fill="#27251B" d="M446.187 171.364z"/><path fill="#26241B" d="M446.187 171.364zM446.187 171.364z"/><path fill="#25231B" d="M446.187 171.364z"/><path fill="#24221B" d="M446.187 171.364z"/><path fill="#23221B" d="M446.187 171.364z"/><path fill="#22211B" d="M446.187 171.364z"/><path fill="#21201B" d="M446.187 171.364zM446.187 171.364z"/><path fill="#201F1B" d="M446.187 171.364z"/><path fill="#1F1F1B" d="M446.187 171.364z"/><path fill="#1E1E1B" d="M446.187 171.364z"/><path fill="#1E1D1B" d="M446.187 171.364z"/><path fill="#1D1D1B" d="M446.187 171.364zM446.187 171.364z"/></g><g fill="#FFF"><path d="M579.24 189.214c-9.09 0-11.28 3.285-11.28 7.555v3.286c0 3.614 2.63 5.584 4.82 6.46l13.03 5.038c2.737.986 6.022 3.504 6.022 7.556v5.914c0 4.928-2.737 8.54-12.593 8.54-9.857 0-12.596-3.612-12.596-8.54v-3.067c0-.218.11-.437.44-.437h.218c.218 0 .438.11.438.437v3.067c0 4.27 2.41 7.555 11.5 7.555 9.088 0 11.605-3.286 11.605-7.556v-5.914c0-3.613-2.846-5.585-5.364-6.68l-13.03-5.037c-2.41-.877-5.478-3.176-5.478-7.337v-3.287c0-4.928 2.41-8.542 12.267-8.542 9.854 0 12.264 3.613 12.264 8.54v3.506c0 .22-.11.438-.438.438h-.22c-.218 0-.437-.11-.437-.438v-3.505c0-4.27-2.08-7.556-11.17-7.556zM624.138 216.153c0 .22-.107.438-.438.438h-20.038v9.746c0 3.615 2.08 6.352 9.746 6.352 7.665 0 9.745-2.737 9.745-6.352v-1.86c0-.22.11-.44.438-.44h.22c.22 0 .44.11.44.44v1.86c0 4.162-2.302 7.228-10.734 7.228s-10.732-3.066-10.732-7.228v-18.288c0-4.16 2.3-7.228 10.732-7.228 8.433 0 10.733 3.067 10.733 7.228l-.112 8.105zm-20.368-.657h19.383v-7.556c0-3.615-2.08-6.353-9.745-6.353-7.667 0-9.746 2.738-9.746 6.353l.108 7.556zM648.23 201.04v.438c0 .22-.22.328-.437.328-4.928 0-9.965 3.504-11.607 4.928v25.954c0 .22-.11.438-.438.438h-.22c-.22 0-.437-.11-.437-.438v-31.21c0-.22.112-.438.44-.438h.107c.22 0 .438.11.438.438l.11 4.052c2.08-1.643 6.68-4.928 11.607-4.928.33.11.44.22.44.438zM657.102 194.36c0 .22-.11.438-.44.438h-.218c-.22 0-.438-.11-.438-.437v-6.46c0-.22.11-.438.438-.438h.22c.22 0 .438.11.438.438v6.46zm0 38.328c0 .22-.11.438-.44.438h-.218c-.22 0-.438-.11-.438-.438v-31.1c0-.22.11-.438.438-.438h.22c.22 0 .438.108.438.437v31.1zM690.282 216.153c0 .22-.11.438-.44.438h-19.93v9.746c0 3.615 2.082 6.352 9.748 6.352 7.556 0 9.746-2.737 9.746-6.352v-1.86c0-.22.11-.44.437-.44h.22c.22 0 .44.11.44.44v1.86c0 4.162-2.303 7.228-10.734 7.228s-10.73-3.066-10.73-7.228v-18.288c0-4.16 2.298-7.228 10.73-7.228s10.732 3.067 10.732 7.228l-.22 8.105zm-20.48-.657h19.385v-7.556c0-3.615-2.08-6.353-9.746-6.353-7.556 0-9.745 2.738-9.745 6.353l.108 7.556zM719.412 206.953c0-3.065-2.63-5.475-9.31-5.475-6.68 0-9.198 2.3-9.198 5.475v2.738c0 2.74 2.518 4.38 4.38 4.93l10.514 2.956c2.518.767 5.146 2.628 5.146 5.585v3.942c0 3.615-3.285 6.353-10.84 6.353-7.446 0-10.624-2.738-10.624-6.353v-1.97c0-.22.11-.33.438-.33h.33c.218 0 .327.11.327.33v1.97c0 3.176 2.846 5.475 9.636 5.475 6.79 0 9.747-2.3 9.747-5.475v-3.833c0-2.63-2.3-4.053-4.6-4.71l-10.512-3.065c-2.08-.658-5.037-2.52-5.037-5.805v-2.738c0-3.613 2.956-6.35 10.294-6.35 7.228 0 10.294 2.626 10.294 6.35v2.41c0 .22-.11.328-.44.328h-.327c-.22 0-.33-.11-.33-.328v-2.41h.112z"/></g><g fill="#FFF"><path d="M148.213 188.884c.22 0 .437.11.437.438v.22c0 .22-.11.437-.437.437H135.29v42.817c0 .22-.108.44-.438.44h-.217c-.22 0-.438-.11-.438-.44V189.87h-12.812c-.22 0-.438-.108-.438-.438v-.218c0-.22.11-.438.438-.438l26.828.108zM157.412 204.763c1.862-1.534 5.912-4.16 11.717-4.16 6.13 0 8.65 3.065 8.65 7.226v24.748c0 .22-.11.438-.438.438h-.22c-.218 0-.437-.11-.437-.438v-24.75c0-3.612-2.3-6.35-7.667-6.35-6.132 0-10.184 3.066-11.718 4.38v26.72c0 .218-.108.437-.437.437h-.22c-.218 0-.438-.11-.438-.438v-44.68c0-.218.11-.437.44-.437h.218c.218 0 .437.11.437.438l.112 16.865zM210.742 216.153c0 .22-.11.438-.437.438h-20.04v9.746c0 3.615 2.078 6.352 9.746 6.352 7.557 0 9.747-2.737 9.747-6.352v-1.86c0-.22.11-.44.438-.44h.22c.218 0 .437.11.437.44v1.86c0 4.162-2.3 7.228-10.732 7.228s-10.73-3.066-10.73-7.228v-18.288c0-4.16 2.298-7.228 10.73-7.228s10.732 3.067 10.732 7.228l-.11 8.105zm-20.478-.657h19.382v-7.556c0-3.615-2.08-6.353-9.746-6.353-7.557 0-9.747 2.738-9.747 6.353l.11 7.556z"/></g></svg>