<svg xmlns="http://www.w3.org/2000/svg" viewBox="0 0 2466.1 8503.9"><g fill="#595758"><path d="M1102.3 4064.6c-48.9-50.1-114.2-77.3-183.7-77.3s-134.7 27.5-183.7 77.3c-48.9 49.8-75.9 116.6-75.9 186.9 0 70.6 26.9 136.8 75.9 186.9 48.9 50.1 114.2 77.3 183.7 77.3s134.7-27.5 183.7-77.3c48.9-50.1 75.9-116.6 75.9-186.9-.1-70.6-26.7-136.8-75.9-186.9zm-.6 373.5c-48.9 50.1-113.9 77-183.4 77s-134.5-27.5-183.4-77c-48.9-50.1-75.9-116-75.9-186.6 0-70.3 26.9-136.5 75.9-186.6 49.2-49.5 113.9-77 183.4-77s134.5 27.5 183.4 77c48.9 50.1 75.9 116 75.9 186.6 0 70.3-27 136.5-75.9 186.6z"/><path d="M1080.3 4086.9c-43.4-43.9-100.5-68.3-161.7-68.3S800 4043 756.9 4086.9c-31.9 32.2-53 72.9-62.4 116.9-2.9 3.5-5.3 7.3-7.3 11.1-5.3 10.3-8.2 22.6-8.2 36.3 0 8.8 1.5 17.3 3.8 25.2 2.3 7 5.9 13.8 10.8 20.5 8.8 45.1 30.2 86.4 62.7 119.5 43.4 43.9 100.5 68.3 161.7 68.3 61.2 0 118.6-24.3 161.7-68.3 43.4-43.9 67.1-102.8 67.1-164.9.9-62.1-23.1-120.7-66.5-164.6zm-2 327.5c-42.5 43.6-99.6 67.7-159.6 67.7-60.6 0-117.2-24-159.6-67.7-30.5-31.3-51.3-70-60.6-111.9 4.7 5.3 10 10 15.8 13.8 6.4 3.8 12.6 7 19.6 9.4 10 25.8 24.9 48.9 44.2 68.8 37.8 38.4 87.3 59.2 140.3 59.2s103.1-21.1 140.3-59.2c37.8-38.4 58-89 58-142.9 0-10-.6-19.6-2.1-29.3l16.1-46.9h-28.4c-10-24.6-24.6-47.5-43.6-66.8-37.8-38.4-87.3-59.2-140.3-59.2s-103.1 21.1-140.3 59.2c-19.3 19.6-34.6 43.1-44.2 68.3-9.4 2.9-17.9 6.7-25.8 12.6-3.5 2.3-6.7 5.6-9.4 8.8 9.4-41.3 29.9-78.8 60-109.6 42.5-43.9 99.3-68 159.6-68s117.2 24 159.6 67.7c42.5 43.6 66.2 101.4 66.2 162.6.7 62-22.8 119.8-65.8 163.4zm-312.9-208.3c5 1.2 10 2.9 14.6 5.6 1.8 1.2 3.5 2.1 5 3.5-3.2 11.7-4.7 23.4-4.7 36 0 12.3 1.5 24 4.7 35.4-1.5 1.2-2.3 2.1-3.8 3.2-4.7 3.5-10 5.6-15.5 6.7-4.1-14.4-6.4-29.9-6.4-45.4 0-15.1 2-30 6.1-45zm153.2 155.3c56.2 0 102.8-44.2 107.2-100.2l11.7 33.7c-17.6 49.5-64.2 85.5-118.9 85.5-48.6 0-90.5-28.1-111.6-68.8 5-4.1 9.4-9.1 13.8-14.4 16.4 37.5 54.2 64.2 97.8 64.2zm-92.8-109.9c0-52.1 41.6-94.3 92.9-94.3 51 0 92.9 42.2 92.9 94.3s-41.6 94.3-92.9 94.3c-51.1.3-92.9-42.1-92.9-94.3zm170.7-75.8l.3 1.2c-19.6-21.1-47.5-34.6-78.5-34.6-43.4 0-80.8 26.4-97.8 64.2-3.8-5.6-8.5-10.5-13.8-14.4 21.1-40.7 63.3-68.5 111.6-68.5 41.6 0 78.5 20.5 101.4 52.1h-23.2zm-201.2 53l21.1-12c-3.5 10.8-5.6 22.6-5.6 34.9 0 12 1.8 23.1 5.3 34l-20.8-11.7c-.3.3-.6 1.2-1.2 1.5-1.5-7.6-2.1-15.8-2.1-24 0-8.5.6-16.4 2.3-24.3.7 1 1 1.3 1 1.6zm1.8 89.3c23.1 43.9 68.8 73.8 121.3 73.8 54.8 0 102.2-32.8 124.5-80.3l5.3 15.2h11.1c-7.3 14.4-17 27.5-28.4 39.5-30.2 30.5-70 47.5-112.5 47.5s-82.6-17-112.5-47.5c-11.7-12-21.1-25.2-28.7-39.8 3.2-.6 6.4-1.8 9.4-3.2 3.4-1.4 6.9-3.1 10.5-5.2zm259.5-66.8c-.3-77-61.8-140-138-140-52.4 0-98.1 29.9-121.3 73.8-6.4-3.8-12.9-6.7-19.9-8.5 7.3-14.4 17-27.8 28.4-39.8 30.2-30.5 70-47.5 112.5-47.5s82.6 17 112.5 47.5c25.8 26.4 41.6 60 45.7 96.4l-11.1 32.8h-3.8l-5-14.7zm-288.5 77.1c8.2 16.1 18.7 31.3 31.6 44.2 31.6 32.2 74.1 50.4 118.9 50.4 45.1 0 87.3-17.9 118.9-50.4 13.5-13.8 24-28.7 31.9-45.7h9.4l31.3-91.4c.3 5.3.6 10.5.6 15.8 0 52.4-19.9 101.6-56.2 138.6-36.3 36.9-84.7 57.4-136.2 57.4-51.3 0-99.9-20.5-136.2-57.4-17.9-18.2-31.9-39.5-41.6-62.7 2.9.6 5.6 1.2 8.5 1.5 4.1.3 8.5.3 12.9 0 2.3.3 4.4 0 6.2-.3zm315.1-113.1c-6.7-31.9-22.6-61.2-45.7-84.7-31.6-32.2-74.1-50.4-118.9-50.4-45.1 0-87.3 17.9-118.9 50.4-12.9 12.9-23.4 28.1-31.3 43.9-9.1-1.5-18.2-1.2-26.9.6 9.4-22.8 23.4-43.9 41.3-62.4 36.3-36.9 84.7-57.4 136.2-57.4 51.6 0 99.9 20.5 136.2 57.4 18.2 18.2 31.9 39.8 41.9 63.3l-13.9 39.3zm-344.7-5.6c5.9-2.3 12-3.8 17.9-3.8-3.8 14.6-6.4 30.2-6.4 46s2.1 31.3 6.4 46.6c-5.3 0-10.3-1.2-15.2-2.9-4.7-1.8-8.8-4.7-12.3-7.6-2.1-11.7-3.2-23.4-3.2-35.4 0-12.3 1.2-24.6 3.2-36.3 3.1-3.3 6.1-5.1 9.6-6.6zm-17 69.5c-1.8-2.9-3.5-5.6-5-9.1-2.3-5.9-3.8-12-4.1-18.7 0-10.3 2.9-19.6 8.5-27.8.3-.3.3-.6.6-1.2-1.5 9.4-2.1 19.3-2.1 29.3.3 9 1.2 18.4 2.1 27.5z"/></g><path fill="#595758" d="M918.6 4173.6c10.8 0 20.8 2.1 30.2 5.9 9.4 4.1 17.6 9.4 24.6 17 7 7 12.6 15.2 17 24.6 4.1 9.4 5.9 19.3 5.9 30.2s-2.1 20.8-5.9 30.2c-4.1 9.4-9.4 17.6-17 24.6-7 7-15.2 12.6-24.6 17-9.4 4.4-19.3 5.9-30.2 5.9s-20.8-2.1-30.2-5.9c-9.4-4.1-17.6-9.4-24.6-17-7-7-12.6-15.2-17-24.6-4.1-9.4-5.9-19.3-5.9-30.2s2.1-20.8 5.9-30.2c4.1-9.4 9.4-17.6 17-24.6 7-7 15.2-12.6 24.6-17 9.1-3.8 19.4-5.9 30.2-5.9zm0 124.5c6.4 0 12-1.2 17.3-3.5s10.3-5.6 14.1-10c3.8-4.1 7-9.1 9.4-14.6 2.3-5.6 3.5-12 3.5-18.2s-1.2-12.3-3.5-17.9c-2.3-5.6-5.6-10.5-9.4-14.6-3.8-4.1-8.8-7.3-14.1-10-5.3-2.3-11.1-3.5-17.3-3.5-6.4 0-12 1.2-17.3 3.5-5.3 2.3-10.3 5.6-14.1 10-3.8 4.1-7 9.1-9.4 14.6-2.3 5.6-3.5 11.7-3.5 17.9s1.2 12.3 3.5 18.2c2.3 5.6 5.6 10.5 9.4 14.6 3.8 4.1 8.8 7.3 14.1 10 5 2 10.9 3.5 17.3 3.5z"/><path fill="none" d="M1078.3 4089c-42.5-43.6-99.3-67.7-159.6-67.7-60.6 0-117.2 24-159.6 67.7-42.5 43.6-66.2 101.4-66.2 162.6 0 61.5 23.4 119.2 66.2 162.6 42.5 43.6 99.6 67.7 159.6 67.7 60.6 0 117.2-24 159.6-67.7s66.2-101.4 66.2-162.6c.3-61.6-23.2-119.3-66.2-162.6zm-19.4 305.8c-37.8 38.4-87.3 59.2-140.3 59.2s-103.1-21.1-140.3-59.2c-37.8-38.4-58-89-58-142.9 0-54.2 20.8-104.9 58-142.9 37.8-38.4 87.3-59.2 140.3-59.2s103.1 21.1 140.3 59.2c37.8 38.4 58 89 58 142.9.3 53.8-20.5 104.5-58 142.9z"/><path fill="none" d="M918.6 4157.2c-51 0-92.9 42.2-92.9 94.3s41.6 94.3 92.9 94.3c51 0 92.9-42.2 92.9-94.3 0-52.1-41.9-94.3-92.9-94.3zm0 173.1c-42.5 0-77.3-35.2-77.3-78.8s34.9-78.8 77.3-78.8 77.3 35.2 77.3 78.8-34.8 78.8-77.3 78.8z"/><path fill="none" d="M1054.8 4113c-36.3-36.9-84.7-57.4-136.2-57.4-51.3 0-99.9 20.5-136.2 57.4-36.3 36.9-56.2 86.1-56.2 138.6s19.9 101.6 56.2 138.6c36.3 36.9 84.7 57.4 136.2 57.4 51.6 0 99.9-20.5 136.2-57.4 36.3-36.9 56.2-86.1 56.2-138.6.4-52.5-19.9-101.7-56.2-138.6zm-17.3 260.1c-31.6 32.2-74.1 50.4-118.9 50.4-45.1 0-87.3-17.9-118.9-50.4-31.6-32.2-49.2-75.3-49.2-121s17.6-88.8 49.2-121 74.1-50.4 118.9-50.4c45.1 0 87.3 17.9 118.9 50.4 31.6 32.2 49.2 75.3 49.2 121 .3 45.1-17.2 88.5-49.2 121z"/><path fill="none" d="M1031.1 4137c-30.2-30.5-70-47.5-112.5-47.5s-82.6 17-112.5 47.5c-30.2 30.5-46.9 71.5-46.9 114.8s16.4 84.1 46.9 114.8c30.2 30.5 70 47.5 112.5 47.5s82.6-17 112.5-47.5c30.2-30.5 46.9-71.5 46.9-114.8s-16.7-84.3-46.9-114.8zm-112.5 254.8c-75.9 0-138-63-138-140.3 0-77.3 61.8-140.3 138-140.3s138 63 138 140.3c0 77.4-62.1 140.3-138 140.3z"/><path fill="none" d="M1101.7 4065.2c-48.9-50.1-113.9-77-183.4-77s-134.5 27.5-183.4 77c-48.9 50.1-75.9 116-75.9 186.6s26.9 136.5 75.9 186.6 113.9 77 183.4 77 134.5-27.5 183.4-77c48.9-50.1 75.9-116 75.9-186.6s-27-136.8-75.9-186.6zm-21.4 351.2c-43.4 43.9-100.5 68.3-161.7 68.3s-118.6-24.3-161.7-68.3c-43.4-43.9-67.1-102.8-67.1-164.9 0-62.4 24-120.7 67.1-164.9 43.4-43.9 100.5-68.3 161.7-68.3s118.6 24.3 161.7 68.3c43.4 43.9 67.1 102.8 67.1 164.9.3 62.4-23.7 121-67.1 164.9z"/><path fill="none" d="M918.6 4123.2c-69.7 0-126 57.7-126 128.3s56.5 128.3 126 128.3c69.7 0 126-57.7 126-128.3s-56.3-128.3-126-128.3zm0 238.2c-59.5 0-107.8-49.2-107.8-109.6 0-60.6 48.3-109.6 107.8-109.6s107.8 49.2 107.8 109.6-48.3 109.6-107.8 109.6z"/><path fill="#595758" d="M169.9 4119.4V4327.5h-30.5l-4.1-8.5c-3.5 2.1-7.6 3.8-12.6 5.3-6.7 2.1-13.5 2.9-19.6 2.9-6.7 0-13.8-1.2-19.9-2.9-6.4-2.1-12.3-5-18.2-8.5-5.6-3.8-10.5-8.5-14.6-13.8-4.1-5.3-7.6-11.1-10.3-17.6-1.2-3.2-2.1-5.9-2.9-8.5-.6-2.9-1.2-6.4-1.8-11.1v-169.3h34.9v166.4c0 4.7 1.2 9.4 3.5 14.1 2.3 5 5.6 8.8 10 12 5.6 4.7 12 6.7 19.3 6.7 4.7 0 8.5-.6 12.3-2.9 3.8-1.8 7.3-4.1 10.3-7.3s5.3-6.7 7-10.8c1.8-4.1 2.9-8.5 3.2-12.9v-164.9h34v23.5zM316.9 4327.1h-33.4v-15.2-18.7-25.2-35.4-2.1s0-1.8-.3-2.3c-1.2-3.2-1.8-5.9-2.9-8.5-3.2-5.6-7.3-10-12.9-12.6-2.9-1.2-5.6-1.8-8.8-2.3-3.2-.6-6.4-.3-9.4 0-6.7 1.5-12.3 4.7-17 9.4-2.3 2.3-4.7 5.6-5.9 9.4-1.8 3.8-2.3 7.6-2.3 11.7v91.4h-33.7v-150.9h33.4l6.7 4.7c1.8-.6 3.5-1.8 5.6-2.3 1.8-.6 3.8-1.5 5.6-1.8 5.9-2.1 12.3-2.9 19.3-2.3 7 .6 13.8 1.8 19.6 4.1 5.6 2.1 11.1 5.6 16.4 10.3 5 4.7 9.1 10 12.6 15.5 2.3 4.1 4.1 8.8 5.6 13.8s2.1 10 2.1 15.2v94.9h-.3v-.8zM481.3 4095.4v231.7h-33.4v-.3l-6.7-6.7c-1.2.3-2.1 1.2-2.9 1.5-1.2.3-1.8 1.2-2.9 1.5-8.8 3.8-18.7 6.4-29.6 6.7-10.5 0-20.5-2.1-29.9-5.9-10-3.8-17.9-10-25.2-17.3-3.8-3.5-7-7.3-10-11.7-2.9-4.1-5.3-8.8-7-13.5-3.5-9.1-5.3-19-5.6-29.3 0-10.3 1.8-20.5 5.6-30.2 1.8-4.7 4.1-9.1 7-13.5 2.9-4.1 6.4-8.2 10-12 7-7.3 15.5-13.5 25.2-17.3 9.1-3.8 19.3-5.9 29.9-5.9 10.8.3 20.8 2.9 29.6 6.7 2.3 1.2 4.7 1.8 6.7 3.2 2.1 1.2 3.8 2.3 5.9 3.8v-91.7l33.3.2zm-75.6 201.5c5.6.3 11.1-.6 17-3.2 5.6-2.3 10.5-5.6 15.2-10 4.1-4.1 7.6-9.1 10.3-14.6 2.1-5.3 3.2-11.1 3.2-17.9s-1.2-12.6-3.2-17.9c-2.9-5.6-5.9-10.5-10.3-14.6-4.7-4.1-9.4-7.3-15.2-9.4-5.6-2.1-11.1-3.2-17-3.2-3.2.3-5.9.6-8.8 1.2-2.9.6-5.6 1.5-8.2 2.3-5.3 2.3-10.3 5.9-14.1 10.3-2.1 2.1-4.1 4.1-5.6 6.7-1.5 2.3-2.9 5.3-3.8 7.6-.3 1.5-1.2 2.9-1.5 4.1-.3 1.5-.6 2.9-1.2 4.1-1.2 6.7-.6 13.8 1.2 21.4 1.8 7.6 5.6 14.1 10.8 19.3 4.1 4.7 8.8 7.6 14.1 10.3 5.7 2.7 11.5 3.5 17.1 3.5zM536.1 4327.1h-33.4v-151.7h33.4v151.7zM612.5 4329.4c-7.6 0-15.2-1.5-21.7-3.8-6.7-2.3-12.6-5.9-17.9-10.5-5-4.7-9.1-10-12-15.8s-4.1-12.3-4.1-19.3h32.8c0 4.1 2.1 8.2 6.7 11.7s10 5.3 16.4 5.3c6.4 0 11.7-1.8 16.1-5.3 4.7-3.5 6.7-7.3 6.7-12 0-3.2-1.5-5.9-3.8-8.8-2.3-2.9-6.4-5-10.5-5.9l-24-7c-10.3-3.2-18.2-8.5-24.6-15.8-6.4-7.3-9.1-15.8-9.1-25.2 0-5.9 1.5-11.7 3.8-17 2.3-5.3 5.9-10 10.5-13.8s10-7 15.8-9.1c5.9-2.3 12.3-3.5 19.3-3.5 14.1 0 26.1 4.7 36 14.1l-22.8 24c-1.5-1.5-3.5-2.9-5.6-4.1-2.3-1.2-4.7-1.8-7-1.8-5 0-8.8 1.2-11.7 3.5s-4.7 5-4.7 8.2c0 2.1.6 3.8 2.9 5.9 1.8 2.1 4.1 3.5 7.3 4.1l24 7c11.7 3.2 20.8 9.1 27.8 17.6 7 8.5 10.5 17.9 10.5 28.4 0 6.7-1.5 13.5-4.1 19.3-2.9 5.9-6.7 11.1-12 15.8-5 4.7-10.8 8.2-17.6 10.5-8.2 2.2-15.8 3.3-23.4 3.3zM1370 4175.7c1.8.3 3.5.3 5 .3s3.2.3 5 .6l-9.1 31.1c-1.5-.3-2.3-.6-3.2-.6-3.5-.3-6.7-.3-9.1.3-6.4 1.2-12 4.1-17 9.1-1.2 1.5-2.1 2.9-3.2 3.8-1.2 1.5-1.8 2.9-2.3 4.7-.3 1.2-1.2 3.2-1.8 5.9-.6 2.9-1.2 5.6-1.2 8.5v87.3h-33.4v-150.9h33.4l7 6.7c1.8-1.2 3.5-1.8 5.3-2.3 1.8-.6 3.5-1.5 5.6-1.8 3.2-.6 6.4-1.5 9.4-2.1 2.9-.9 6.1-.9 9.6-.6zM1523.2 4257.7h-109l-3.2 2.9c.3 1.5.6 3.2 1.2 4.7.3 1.5.6 2.9 1.5 4.7 1.8 4.7 4.1 8.8 7.6 12.9 3.5 3.8 7.3 7 11.7 9.4 5 2.9 9.4 4.7 14.1 5.3 1.5.3 2.9.3 3.8.3h7.3c1.5 0 2.3-.3 3.5-.3 5-1.2 10-2.9 14.1-5.6 2.1-1.5 4.1-2.9 5.9-4.7 1.8-1.8 3.5-3.5 5.3-5.6l25.2 22.3c-5.6 6.4-12.6 11.7-20.5 15.8-5.3 3.2-11.1 5.6-17.3 7-6.4 1.8-12.9 2.3-19.9 2.3-8.5 0-17-1.5-25.2-3.8-3.8-1.5-8.2-2.9-12-5-7.6-4.1-14.6-9.4-20.8-15.8-5.9-6.4-10.8-13.8-14.1-21.7-3.2-8.2-5.3-16.1-6.4-24.9-1.2-8.5-.3-17.3 1.5-25.2 1.8-8.5 5-16.1 9.4-24 4.7-7.3 10.8-14.1 19-19.6 3.8-2.3 7.3-4.7 11.1-6.7s7.6-3.8 12.3-5.3c1.2-.3 3.5-1.2 7-1.5 3.5-.6 7.6-1.2 12.6-1.2 5-.3 10.3 0 15.5.6 5.6.6 10.8 2.1 15.8 3.8 8.5 3.2 15.8 7.6 22.6 14.1s12 14.1 15.2 22.8c.6 2.1 1.8 4.1 2.1 6.4.6 2.1 1.2 4.1 1.5 6.4.3 1.5.3 2.9.6 5 .3 1.8.3 4.7.6 8.2l.4 16zm-84.1-51.3c-4.7 1.5-8.5 3.5-11.7 5.9s-6.4 5.6-9.1 9.4l1.5 3.8h67.7c-1.5-3.5-3.5-7-6.7-10.3-1.8-1.8-4.1-3.5-7-5.3-2.9-1.8-6.4-2.9-10.3-3.8-3.8-1.2-7.6-1.8-12-1.8-4.2.4-8 .9-12.4 2.1zM1692.5 4095.4v231.7h-33.4v-.3l-6.7-6.7c-1.2.3-2.1 1.2-2.9 1.5-1.2.3-1.8 1.2-2.9 1.5-8.8 3.8-18.7 6.4-29.6 6.7-10.5 0-20.5-2.1-29.9-5.9-10-3.8-17.9-10-25.2-17.3-3.8-3.5-7-7.3-10-11.7-2.9-4.1-5.3-8.8-7-13.5-3.5-9.1-5.3-19-5.6-29.3 0-10.3 1.8-20.5 5.6-30.2 1.8-4.7 4.1-9.1 7-13.5 2.9-4.1 6.4-8.2 10-12 7-7.3 15.5-13.5 25.2-17.3 9.1-3.8 19.3-5.9 29.9-5.9 10.8.3 20.8 2.9 29.6 6.7 2.3 1.2 4.7 1.8 6.7 3.2 2.1 1.2 3.8 2.3 5.9 3.8v-91.7l33.3.2zm-75.3 201.5c5.6.3 11.1-.6 17-3.2s10.5-5.6 15.2-10c4.1-4.1 7.6-9.1 10.3-14.6 2.1-5.3 3.2-11.1 3.2-17.9s-1.2-12.6-3.2-17.9c-2.9-5.6-5.9-10.5-10.3-14.6-4.7-4.1-9.4-7.3-15.2-9.4-5.6-2.1-11.1-3.2-17-3.2-3.2.3-5.9.6-8.8 1.2-2.9.6-5.6 1.5-8.2 2.3-5.3 2.3-10.3 5.9-14.1 10.3-2.1 2.1-4.1 4.1-5.6 6.7-1.5 2.3-2.9 5.3-3.8 7.6-.3 1.5-1.2 2.9-1.5 4.1-.3 1.5-.6 2.9-1.2 4.1-1.2 6.7-.6 13.8 1.2 21.4s5.6 14.1 10.8 19.3c4.1 4.7 8.8 7.6 14.1 10.3 5.4 2.7 11.3 3.5 17.1 3.5zM537.2 4126.5c0-.3-.6-1.2-1.2-1.8-.6-.6-1.5-1.8-2.1-2.3-.3-.3-.6-.6-1.5-1.2-4.1-4.1-10-9.4-10.8-11.7h-5.4c-1.2 2.1-6.7 7.3-10.8 11.7-.3.3-1.2.6-1.5 1.2-.6.6-1.5 1.8-2.1 2.3-.6.6-1.2 1.2-1.2 1.8-1.8 3.2-2.9 6.7-2.9 10.5 0 5.6 2.1 10.5 5.9 14.4 3.8 3.8 8.8 5.9 14.4 5.9s10.5-2.1 14.4-5.9c3.8-3.8 5.9-8.8 5.9-14.4 1.9-4.4.7-7.6-1.1-10.5zM1281 4257.7h-109.3l-3.2 2.9c.3 1.5.6 3.2 1.2 4.7.3 1.5.6 2.9 1.5 4.7 1.8 4.7 4.1 8.8 7.6 12.9 3.5 3.8 7.3 7 11.7 9.4 5 2.9 9.4 4.7 14.1 5.3 1.5.3 2.9.3 3.8.3h7.3c1.5 0 2.3-.3 3.5-.3 5-1.2 10-2.9 14.1-5.6 2.1-1.5 4.1-2.9 5.9-4.7 1.8-1.8 3.5-3.5 5.3-5.6l25.2 22.3c-5.6 6.4-12.6 11.7-20.5 15.8-5.3 3.2-11.1 5.6-17.3 7-6.4 1.8-12.9 2.3-19.9 2.3-8.5 0-17-1.5-25.2-3.8-3.8-1.5-8.2-2.9-12-5-7.6-4.1-14.6-9.4-20.8-15.8-5.9-6.4-10.8-13.8-14.1-21.7-3.2-7.9-5.3-16.1-6.4-24.9-1.2-8.5-.3-17.3 1.5-25.2 1.8-8.5 5-16.1 9.4-24 4.7-7.3 10.8-14.1 19-19.6 3.8-2.3 7.3-4.7 11.1-6.7s7.6-3.8 12.3-5.3c1.2-.3 3.5-1.2 7-1.5 3.5-.6 7.6-1.2 12.6-1.2 5-.3 10.3 0 15.5.6 5.6.6 10.8 2.1 15.8 3.8 8.5 3.2 15.8 7.6 22.6 14.1 6.7 6.4 12 14.1 15.2 22.8.6 2.1 1.8 4.1 2.1 6.4.6 2.1 1.2 4.1 1.5 6.4.3 1.5.3 2.9.6 5 .3 1.8.3 4.7.6 8.2l.7 16zm-84.1-51.3c-4.7 1.5-8.5 3.5-11.7 5.9-3.2 2.3-6.4 5.6-9.1 9.4l1.5 3.8h67.4c-1.5-3.5-3.5-7-6.7-10.3-1.8-1.8-4.1-3.5-7-5.3-2.9-1.8-6.4-2.9-10.3-3.8-3.8-1.2-7.6-1.8-12-1.8-4.2.4-8.3.9-12.1 2.1z"/><linearGradient id="a" gradientUnits="userSpaceOnUse" x1="331.89" y1="7920.858" x2="331.89" y2="7920.858" gradientTransform="matrix(3.518 0 0 3.518 0 -23861.266)"><stop offset=".153" stop-color="#FBC61C"/><stop offset=".556" stop-color="#7A600E"/><stop offset=".85" stop-color="#221B04"/><stop offset=".982"/></linearGradient><linearGradient id="b" gradientUnits="userSpaceOnUse" x1="885.28" y1="10740.243" x2="868.518" y2="10790.885" gradientTransform="matrix(2.34 -2.627 2.627 2.34 -29445.941 -18765.221)"><stop offset=".692" stop-color="#FBC61C"/><stop offset=".709" stop-color="#E8B930"/><stop offset=".774" stop-color="#B1924F"/><stop offset=".835" stop-color="#887657"/><stop offset=".892" stop-color="#6E6459"/><stop offset=".943" stop-color="#5E5A58"/><stop offset=".982" stop-color="#595758"/></linearGradient><path fill="url(#b)" d="M981.6 4182.7l10-11.1c-41.3-39-103.4-38.4-143.5-2.1l9.4 11.1c34.8-31.3 89.2-31.6 124.1 2.1z"/><linearGradient id="c" gradientUnits="userSpaceOnUse" x1="896.402" y1="10741.5" x2="880.69" y2="10789.064" gradientTransform="matrix(2.31 -2.603 2.601 2.324 -29133.813 -18655.91)"><stop offset=".692" stop-color="#FBC61C"/><stop offset=".709" stop-color="#E8B930"/><stop offset=".774" stop-color="#B1924F"/><stop offset=".835" stop-color="#887657"/><stop offset=".892" stop-color="#6E6459"/><stop offset=".943" stop-color="#5E5A58"/><stop offset=".982" stop-color="#595758"/></linearGradient><path fill="url(#c)" d="M904.3 3988.5c43.1-2.3 84.4 5.6 123 23.4 23.1 10.8 45.4 25.8 65 43.9l.3-.6c-52.1-47.2-114.8-71.2-188.4-67.7-58 2.9-111.6 25.8-154.4 62.7l.3.6c43.1-37.1 96.5-59.1 154.2-62.3z"/><linearGradient id="d" gradientUnits="userSpaceOnUse" x1="888.933" y1="10739.74" x2="872.611" y2="10789.052" gradientTransform="matrix(2.34 -2.627 2.627 2.34 -29445.941 -18765.221)"><stop offset=".692" stop-color="#FBC61C"/><stop offset=".709" stop-color="#E8B930"/><stop offset=".774" stop-color="#B1924F"/><stop offset=".835" stop-color="#887657"/><stop offset=".892" stop-color="#6E6459"/><stop offset=".943" stop-color="#5E5A58"/><stop offset=".982" stop-color="#595758"/></linearGradient><path fill="url(#d)" d="M1003.6 4157.2l8.2-8.8c-52.1-49.2-131.8-48.9-184-2.3l7.6 9.1c48.1-42.5 120.7-42.8 168.2 2z"/><linearGradient id="e" gradientUnits="userSpaceOnUse" x1="900.876" y1="10736.146" x2="885.19" y2="10783.535" gradientTransform="matrix(2.34 -2.627 2.627 2.34 -29445.941 -18765.221)"><stop offset=".692" stop-color="#FBC61C"/><stop offset=".709" stop-color="#E8B930"/><stop offset=".774" stop-color="#B1924F"/><stop offset=".835" stop-color="#887657"/><stop offset=".892" stop-color="#6E6459"/><stop offset=".943" stop-color="#5E5A58"/><stop offset=".982" stop-color="#595758"/></linearGradient><path fill="url(#e)" d="M906.9 4021.9c60.6-3.2 116.9 17.3 163.2 59.2l2.3-1.8c-46.9-43.1-104.6-63.6-166.4-60.6-51.8 2.3-99.3 22.6-137.1 55.9l2.1 2.1c38.9-32.6 84.6-52.5 135.9-54.8z"/><linearGradient id="f" gradientUnits="userSpaceOnUse" x1="896.808" y1="10737.606" x2="881" y2="10785.364" gradientTransform="matrix(2.34 -2.627 2.627 2.34 -29445.941 -18765.221)"><stop offset=".692" stop-color="#FBC61C"/><stop offset=".709" stop-color="#E8B930"/><stop offset=".774" stop-color="#B1924F"/><stop offset=".835" stop-color="#887657"/><stop offset=".892" stop-color="#6E6459"/><stop offset=".943" stop-color="#5E5A58"/><stop offset=".982" stop-color="#595758"/></linearGradient><path fill="url(#f)" d="M909.8 4055.6c52.1-2.1 99.3 15.8 138.3 50.7l4.1-4.1c-40.7-37.2-87.3-53.6-140.6-52.7-45.1.6-89.9 20.5-123 49.2l3.8 4.7c35.1-30.3 75.2-46.1 117.4-47.8z"/><linearGradient id="g" gradientUnits="userSpaceOnUse" x1="892.781" y1="10738.732" x2="876.719" y2="10787.259" gradientTransform="matrix(2.34 -2.627 2.627 2.34 -29445.941 -18765.221)"><stop offset=".692" stop-color="#FBC61C"/><stop offset=".709" stop-color="#E8B930"/><stop offset=".774" stop-color="#B1924F"/><stop offset=".835" stop-color="#887657"/><stop offset=".892" stop-color="#6E6459"/><stop offset=".943" stop-color="#5E5A58"/><stop offset=".982" stop-color="#595758"/></linearGradient><path fill="url(#g)" d="M910.1 4089.5c43.1-2.1 82.6 12 116 42.5l5.6-7c-36-32.2-77.3-46.9-122.7-44.8-38.4 1.8-73.2 17.3-101.4 41.9l5.6 7c25.4-22 60.3-37.8 96.9-39.6z"/><g><path fill="#595758" d="M1763.7 4095.4h7v323.1h-7z"/><g fill="#595758"><path d="M1211.2 4376.6h-21.4c-1.2 0-2.1 1.2-2.1 2.1v39c0 1.2 1.2 2.1 2.1 2.1h.3c1.2 0 2.1-1.2 2.1-2.1v-18.2h17.9c1.2 0 2.1-1.2 2.1-2.1 0-1.2-1.2-2.1-2.1-2.1h-17.9v-14.1h19c1.2 0 2.1-1.2 2.1-2.1 0-1.9-.6-2.5-2.1-2.5zM1226.8 4387.2c-7.3 0-11.1 2.9-11.1 8.5v16.4c0 5.6 3.8 8.5 11.1 8.5s11.1-2.9 11.1-8.5v-16.4c0-5.9-3.8-8.5-11.1-8.5zm6.7 7.9v16.4c0 1.5 0 3.8-7 3.8s-7-2.3-7-3.8v-16.4c0-1.5 0-3.8 7-3.8s7 2.9 7 3.8zM1264.9 4387.4c-1.2 0-2.1 1.2-2.1 2.1v23.1c-1.5 1.2-4.1 2.9-8.5 2.9-3.5 0-5.3-1.5-5.3-3.8v-22.3c0-1.2-1.2-2.1-2.3-2.1-1.2 0-2.1 1.2-2.1 2.1v22.3c0 5.3 3.5 8.5 9.4 8.5 3.5 0 6.4-1.2 8.5-2.1.3 1.2 1.2 1.8 2.1 1.8.9 0 2.1-1.2 2.1-2.1V4390c.5-1.7-.7-2.6-1.8-2.6zM1288 4387.2c-3.5 0-6.7 1.2-8.8 2.1 0-1.2-1.2-1.8-2.1-1.8-1.2 0-2.1 1.2-2.1 2.1v27.8c0 1.2 1.2 2.1 2.3 2.1 1.2 0 2.1-1.2 2.1-2.1v-22.8c1.8-1.5 4.7-2.9 8.8-2.9 3.5 0 5.3 1.5 5.3 3.8v22.3c0 1.2 1.2 2.1 2.1 2.1h.3c1.2 0 2.1-1.2 2.1-2.1v-22.3c-.6-5.4-4.1-8.3-10-8.3zM1324.6 4375.4c-1.2 0-2.1 1.2-2.1 2.1v12c-2.1-1.2-5.3-2.1-8.8-2.1-5.9 0-9.4 3.2-9.4 8.5v16.4c0 5.3 3.5 8.5 9.4 8.5 3.5 0 6.7-1.2 8.8-2.1 0 1.2 1.2 1.8 2.1 1.8 1.2 0 2.1-1.2 2.1-2.1v-40.1c.3-2.3-.6-2.9-2.1-2.9zm-15.8 19.7c0-3.2 2.9-3.8 5.3-3.8 4.1 0 7 1.8 8.8 2.9v18.2c-2.1 1.5-5 2.9-8.8 2.9-2.3 0-5.3-.6-5.3-3.8v-16.4zM1336.6 4410.9c-1.2 0-2.1 1.2-2.1 2.1v4.1c0 1.2 1.2 2.1 2.1 2.1h.3c1.2 0 2.1-1.2 2.1-2.1v-4.1c-.3-.9-1.2-2.1-2.4-2.1zM1383.2 4415.3h-17.6v-36.6c0-1.2-1.2-2.1-2.3-2.1-1.2 0-2.1 1.2-2.1 2.1v39c0 1.2 1.2 2.1 2.1 2.1h19.6c1.2 0 2.1-1.2 2.1-2.1.2-1.5-.6-2.4-1.8-2.4zM1399.9 4387.2c-7.3 0-11.1 2.9-11.1 8.5v16.4c0 5.6 3.8 8.5 11.1 8.5s11.1-2.9 11.1-8.5v-16.4c.3-5.9-3.5-8.5-11.1-8.5zm7 7.9v16.4c0 1.5 0 3.8-7 3.8s-7-2.3-7-3.8v-16.4c0-1.5 0-3.8 7-3.8s7 2.9 7 3.8zM1435.3 4387.4c-1.2 0-1.8.6-2.1 1.5l-7.3 21.7-7.3-21.4c-.3-1.2-1.2-1.8-2.3-1.8-.6 0-1.5.3-1.8.6l-.6 1.2 10 28.4c.3.6.6 1.5 1.5 1.5l1.2 3.2.6-3.5c.6-.3 1.2-.6 1.2-1.5l9.4-27.8.3-1.2-.3-.6c-1 0-1.3-.3-2.5-.3zM1451.4 4387.2c-7.3 0-11.1 2.9-11.1 8.5v16.4c0 5.6 3.8 8.5 11.1 8.5s11.1-2.9 11.1-8.5v-1.8c0-1.2-1.2-2.1-2.3-2.1-1.2 0-2.1 1.2-2.1 2.1v1.8c0 1.5 0 3.8-7 3.8s-7-2.3-7-3.8v-7h16.1c1.2 0 2.1-1.2 2.1-2.1v-7.3c.6-5.9-3.5-8.5-10.9-8.5zm-7 13.1v-5c0-1.5 0-3.8 7-3.8s7 2.3 7 3.8v5h-14zM1488.9 4375.4c-1.2 0-2.1 1.2-2.1 2.1v12c-2.1-1.2-5.3-2.1-8.8-2.1-5.9 0-9.4 3.2-9.4 8.5v16.4c0 5.3 3.5 8.5 9.4 8.5 3.5 0 6.7-1.2 8.8-2.1 0 1.2 1.2 1.8 2.1 1.8.9 0 2.1-1.2 2.1-2.1v-40.1c.3-2.3-.9-2.9-2.1-2.9zm-15.8 19.7c0-3.2 2.9-3.8 5.3-3.8 4.1 0 7 1.8 8.8 2.9v18.2c-2.1 1.5-5 2.9-8.8 2.9-2.3 0-5.3-.6-5.3-3.8v-16.4zM1500.7 4410.9c-1.2 0-2.1 1.2-2.1 2.1v4.1c0 1.2 1.2 2.1 2.1 2.1h.3c1.2 0 2.1-1.2 2.1-2.1v-4.1c-.1-.9-1-2.1-2.4-2.1zM1544 4396.8l-11.7-4.7c-1.2-.3-3.2-1.5-3.2-4.1v-2.9c0-1.8 0-5 8.5-5s8.5 3.2 8.5 5v3.2c0 1.2 1.2 2.1 2.3 2.1 1.2 0 2.1-1.2 2.1-2.1v-3.2c0-6.4-4.1-9.4-12.6-9.4s-12.6 3.2-12.6 9.4v2.9c0 5.6 4.7 7.6 5.9 8.2l11.7 4.7c1.8.6 3.5 2.1 3.5 4.1v5.3c0 1.8 0 5-8.8 5-8.5 0-8.5-3.2-8.5-5v-2.9c0-1.2-1.2-2.1-2.3-2.1-1.2 0-2.1 1.2-2.1 2.1v2.9c0 6.4 4.1 9.4 12.9 9.4s12.9-3.2 12.9-9.4v-5.3c0-3.5-2.7-6.4-6.5-8.2zM1559.5 4375.4c-1.2 0-2.1 1.2-2.1 2.1v5.6c0 1.2 1.2 2.1 2.1 2.1h.3c1.2 0 2.1-1.2 2.1-2.1v-5.6c0-1.5-.9-2.1-2.4-2.1zM1559.5 4387.4c-1.2 0-2.1 1.2-2.1 2.1v27.8c0 1.2 1.2 2.1 2.1 2.1h.3c1.2 0 2.1-1.2 2.1-2.1v-27.8c0-1.2-.9-2.1-2.4-2.1zM1589.4 4387.4c-1.2 0-2.1.6-2.1 1.8-2.1-1.2-5.3-2.1-8.8-2.1-5.9 0-9.4 3.2-9.4 8.5v16.4c0 5.3 3.5 8.5 9.4 8.5 3.5 0 6.7-1.2 8.8-2.1v5.6c0 1.5 0 3.8-6.7 3.8h-8.2c-1.2 0-2.1 1.2-2.1 2.1 0 1.2 1.2 2.1 2.1 2.1h7.6c7.6 0 11.1-2.9 11.1-8.5v-34c.4-1.2-.2-2.1-1.7-2.1zm-16.1 7.7c0-3.2 2.9-3.8 5.3-3.8 4.1 0 7 1.8 8.8 2.9v18.2c-2.1 1.5-5 2.9-8.8 2.9-2.3 0-5.3-.6-5.3-3.8v-16.4zM1612.6 4387.2c-3.5 0-6.7 1.2-8.8 2.1 0-1.2-1.2-1.8-2.1-1.8-.9 0-2.1 1.2-2.1 2.1v27.8c0 1.2 1.2 2.1 2.3 2.1 1.2 0 2.1-1.2 2.1-2.1v-22.8c1.8-1.5 4.7-2.9 8.8-2.9 3.5 0 5.3 1.5 5.3 3.8v22.3c0 1.2 1.2 2.1 2.1 2.1h.3c1.2 0 2.1-1.2 2.1-2.1v-22.3c-.4-5.4-3.9-8.3-10-8.3zM1640.1 4387.2c-7.3 0-11.1 2.9-11.1 8.5v16.4c0 5.6 3.8 8.5 11.1 8.5s11.1-2.9 11.1-8.5v-1.8c0-1.2-1.2-2.1-2.3-2.1-1.2 0-2.1 1.2-2.1 2.1v1.8c0 1.5 0 3.8-7 3.8s-7-2.3-7-3.8v-7h16.1c1.2 0 2.1-1.2 2.1-2.1v-7.3c.2-5.9-3.3-8.5-10.9-8.5zm-7 13.1v-5c0-1.5 0-3.8 7-3.8s7 2.3 7 3.8v5h-14zM1677.3 4375.4c-1.2 0-2.1 1.2-2.1 2.1v12c-2.1-1.2-5.3-2.1-8.8-2.1-5.9 0-9.4 3.2-9.4 8.5v16.4c0 5.3 3.5 8.5 9.4 8.5 3.5 0 6.7-1.2 8.8-2.1 0 1.2 1.2 1.8 2.1 1.8 1.2 0 2.1-1.2 2.1-2.1v-40.1c.5-2.3-.6-2.9-2.1-2.9zm-15.8 19.7c0-3.2 2.9-3.8 5.3-3.8 4.1 0 7 1.8 8.8 2.9v18.2c-2.1 1.5-5 2.9-8.8 2.9-2.3 0-5.3-.6-5.3-3.8v-16.4zM1689.3 4410.9c-1.2 0-2.1 1.2-2.1 2.1v4.1c0 1.2 1.2 2.1 2.1 2.1h.3c1.2 0 2.1-1.2 2.1-2.1v-4.1c-.3-.9-.9-2.1-2.4-2.1z"/></g></g><g fill="#595758"><path d="M1942.2 4211.2h15.5v26h-20.9l-3.5 18.4h24.4v26.3h-29.8l-8.1 39.6-26.6-5.4 7.1-34.2h-26l-8.4 41.2-26.6-5.4 7.3-35.8h-15.7v-26.3h20.9l3.8-18.4h-24.7v-26h30.1l7.9-39.6 26.6 5.4-6.8 34.2h26l8.4-41.5 26.6 5.4-7.5 36.1zm-33.1 26h-26l-3.8 18.4h26.3l3.5-18.4zM2051.8 4330.8c-49.6 0-80.3-37.7-80.3-96.6 0-59.1 30.7-96.8 80.3-96.8s80.3 37.7 80.3 96.8c0 58.9-30.7 96.6-80.3 96.6zm52.1-96.6c0-39.3-15.7-70.5-52.1-70.5s-52.1 31.2-52.1 70.5 15.7 70.5 52.1 70.5 52.1-31.1 52.1-70.5zM2225.4 4330.8c-49.6 0-80.3-37.7-80.3-96.6 0-59.1 30.7-96.8 80.3-96.8s80.3 37.7 80.3 96.8c0 58.9-30.7 96.6-80.3 96.6zm52.1-96.6c0-39.3-15.7-70.5-52.1-70.5s-52.1 31.2-52.1 70.5 15.7 70.5 52.1 70.5 52.1-31.1 52.1-70.5zM2412.6 4139.3v26.6l-68.6 165.2-25.5-10.6 62.7-150.5-4.1-4.1h-57.8v-26.6h93.3z"/></g></svg>