<?xml version="1.0" encoding="utf-8"?>
<!-- Generator: Adobe Illustrator 18.1.1, SVG Export Plug-In . SVG Version: 6.00 Build 0)  -->
<!DOCTYPE svg PUBLIC "-//W3C//DTD SVG 1.1//EN" "http://www.w3.org/Graphics/SVG/1.1/DTD/svg11.dtd">
<svg version="1.1" id="Layer_1" xmlns="http://www.w3.org/2000/svg" xmlns:xlink="http://www.w3.org/1999/xlink" x="0px" y="0px"
	 viewBox="0 0 841.9 595.3" enable-background="new 0 0 841.9 595.3" xml:space="preserve">
<g>
	<g>
		<path fill="#595758" d="M376.3,233.7c-16.7-17.1-39-26.4-62.7-26.4s-46,9.4-62.7,26.4s-25.9,39.8-25.9,63.8
			c0,24.1,9.2,46.7,25.9,63.8c16.7,17.1,39,26.4,62.7,26.4s46-9.4,62.7-26.4c16.7-17.1,25.9-39.8,25.9-63.8
			C402.2,273.4,393.1,250.8,376.3,233.7z M376.1,361.2c-16.7,17.1-38.9,26.3-62.6,26.3s-45.9-9.4-62.6-26.3
			c-16.7-17.1-25.9-39.6-25.9-63.7c0-24,9.2-46.6,25.9-63.7c16.8-16.9,38.9-26.3,62.6-26.3c23.7,0,45.9,9.4,62.6,26.3
			c16.7,17.1,25.9,39.6,25.9,63.7C402,321.5,392.8,344.1,376.1,361.2z"/>
		<path fill="#595758" d="M368.8,241.3c-14.8-15-34.3-23.3-55.2-23.3s-40.5,8.3-55.2,23.3c-10.9,11-18.1,24.9-21.3,39.9
			c-1,1.2-1.8,2.5-2.5,3.8c-1.8,3.5-2.8,7.7-2.8,12.4c0,3,0.5,5.9,1.3,8.6c0.8,2.4,2,4.7,3.7,7c3,15.4,10.3,29.5,21.4,40.8
			c14.8,15,34.3,23.3,55.2,23.3c20.9,0,40.5-8.3,55.2-23.3c14.8-15,22.9-35.1,22.9-56.3C391.8,276.3,383.6,256.3,368.8,241.3z
			 M368.1,353.1c-14.5,14.9-34,23.1-54.5,23.1c-20.7,0-40-8.2-54.5-23.1c-10.4-10.7-17.5-23.9-20.7-38.2c1.6,1.8,3.4,3.4,5.4,4.7
			c2.2,1.3,4.3,2.4,6.7,3.2c3.4,8.8,8.5,16.7,15.1,23.5c12.9,13.1,29.8,20.2,47.9,20.2c18.1,0,35.2-7.2,47.9-20.2
			c12.9-13.1,19.8-30.4,19.8-48.8c0-3.4-0.2-6.7-0.7-10l5.5-16h-9.7c-3.4-8.4-8.4-16.2-14.9-22.8c-12.9-13.1-29.8-20.2-47.9-20.2
			c-18.1,0-35.2,7.2-47.9,20.2c-6.6,6.7-11.8,14.7-15.1,23.3c-3.2,1-6.1,2.3-8.8,4.3c-1.2,0.8-2.3,1.9-3.2,3
			c3.2-14.1,10.2-26.9,20.5-37.4c14.5-15,33.9-23.2,54.5-23.2s40,8.2,54.5,23.1s22.6,34.6,22.6,55.5
			C390.8,318.5,382.8,338.2,368.1,353.1z M261.3,282c1.7,0.4,3.4,1,5,1.9c0.6,0.4,1.2,0.7,1.7,1.2c-1.1,4-1.6,8-1.6,12.3
			c0,4.2,0.5,8.2,1.6,12.1c-0.5,0.4-0.8,0.7-1.3,1.1c-1.6,1.2-3.4,1.9-5.3,2.3c-1.4-4.9-2.2-10.2-2.2-15.5
			C259.2,292.2,259.9,287.1,261.3,282z M313.6,335c19.2,0,35.1-15.1,36.6-34.2l4,11.5c-6,16.9-21.9,29.2-40.6,29.2
			c-16.6,0-30.9-9.6-38.1-23.5c1.7-1.4,3.2-3.1,4.7-4.9C285.8,325.9,298.7,335,313.6,335z M281.9,297.5c0-17.8,14.2-32.2,31.7-32.2
			c17.4,0,31.7,14.4,31.7,32.2s-14.2,32.2-31.7,32.2C296.2,329.8,281.9,315.3,281.9,297.5z M340.2,271.6l0.1,0.4
			c-6.7-7.2-16.2-11.8-26.8-11.8c-14.8,0-27.6,9-33.4,21.9c-1.3-1.9-2.9-3.6-4.7-4.9c7.2-13.9,21.6-23.4,38.1-23.4
			c14.2,0,26.8,7,34.6,17.8h-7.9V271.6z M271.5,289.7l7.2-4.1c-1.2,3.7-1.9,7.7-1.9,11.9c0,4.1,0.6,7.9,1.8,11.6l-7.1-4
			c-0.1,0.1-0.2,0.4-0.4,0.5c-0.5-2.6-0.7-5.4-0.7-8.2c0-2.9,0.2-5.6,0.8-8.3C271.4,289.5,271.5,289.6,271.5,289.7z M272.1,320.2
			c7.9,15,23.5,25.2,41.4,25.2c18.7,0,34.9-11.2,42.5-27.4l1.8,5.2h3.8c-2.5,4.9-5.8,9.4-9.7,13.5c-10.3,10.4-23.9,16.2-38.4,16.2
			s-28.2-5.8-38.4-16.2c-4-4.1-7.2-8.6-9.8-13.6c1.1-0.2,2.2-0.6,3.2-1.1C269.7,321.5,270.9,320.9,272.1,320.2z M360.7,297.4
			c-0.1-26.3-21.1-47.8-47.1-47.8c-17.9,0-33.5,10.2-41.4,25.2c-2.2-1.3-4.4-2.3-6.8-2.9c2.5-4.9,5.8-9.5,9.7-13.6
			c10.3-10.4,23.9-16.2,38.4-16.2s28.2,5.8,38.4,16.2c8.8,9,14.2,20.5,15.6,32.9l-3.8,11.2h-1.3L360.7,297.4z M262.2,323.7
			c2.8,5.5,6.4,10.7,10.8,15.1c10.8,11,25.3,17.2,40.6,17.2c15.4,0,29.8-6.1,40.6-17.2c4.6-4.7,8.2-9.8,10.9-15.6h3.2L379,292
			c0.1,1.8,0.2,3.6,0.2,5.4c0,17.9-6.8,34.7-19.2,47.3c-12.4,12.6-28.9,19.6-46.5,19.6c-17.5,0-34.1-7-46.5-19.6
			c-6.1-6.2-10.9-13.5-14.2-21.4c1,0.2,1.9,0.4,2.9,0.5c1.4,0.1,2.9,0.1,4.4,0C260.9,323.9,261.6,323.8,262.2,323.7z M369.8,285.1
			c-2.3-10.9-7.7-20.9-15.6-28.9c-10.8-11-25.3-17.2-40.6-17.2c-15.4,0-29.8,6.1-40.6,17.2c-4.4,4.4-8,9.6-10.7,15
			c-3.1-0.5-6.2-0.4-9.2,0.2c3.2-7.8,8-15,14.1-21.3c12.4-12.6,28.9-19.6,46.5-19.6s34.1,7,46.5,19.6c6.2,6.2,10.9,13.6,14.3,21.6
			L369.8,285.1z M252.1,283.2c2-0.8,4.1-1.3,6.1-1.3c-1.3,5-2.2,10.3-2.2,15.7s0.7,10.7,2.2,15.9c-1.8,0-3.5-0.4-5.2-1
			c-1.6-0.6-3-1.6-4.2-2.6c-0.7-4-1.1-8-1.1-12.1c0-4.2,0.4-8.4,1.1-12.4C249.9,284.3,250.9,283.7,252.1,283.2z M246.3,306.9
			c-0.6-1-1.2-1.9-1.7-3.1c-0.8-2-1.3-4.1-1.4-6.4c0-3.5,1-6.7,2.9-9.5c0.1-0.1,0.1-0.2,0.2-0.4c-0.5,3.2-0.7,6.6-0.7,10
			C245.7,300.6,246,303.8,246.3,306.9z"/>
	</g>
	<path fill="#595758" d="M313.6,270.9c3.7,0,7.1,0.7,10.3,2c3.2,1.4,6,3.2,8.4,5.8c2.4,2.4,4.3,5.2,5.8,8.4c1.4,3.2,2,6.6,2,10.3
		c0,3.7-0.7,7.1-2,10.3c-1.4,3.2-3.2,6-5.8,8.4c-2.4,2.4-5.2,4.3-8.4,5.8s-6.6,2-10.3,2s-7.1-0.7-10.3-2c-3.2-1.4-6-3.2-8.4-5.8
		c-2.4-2.4-4.3-5.2-5.8-8.4c-1.4-3.2-2-6.6-2-10.3c0-3.7,0.7-7.1,2-10.3c1.4-3.2,3.2-6,5.8-8.4c2.4-2.4,5.2-4.3,8.4-5.8
		C306.4,271.6,309.9,270.9,313.6,270.9z M313.6,313.4c2.2,0,4.1-0.4,5.9-1.2c1.8-0.8,3.5-1.9,4.8-3.4c1.3-1.4,2.4-3.1,3.2-5
		s1.2-4.1,1.2-6.2s-0.4-4.2-1.2-6.1s-1.9-3.6-3.2-5c-1.3-1.4-3-2.5-4.8-3.4c-1.8-0.8-3.8-1.2-5.9-1.2c-2.2,0-4.1,0.4-5.9,1.2
		c-1.8,0.8-3.5,1.9-4.8,3.4c-1.3,1.4-2.4,3.1-3.2,5c-0.8,1.9-1.2,4-1.2,6.1s0.4,4.2,1.2,6.2c0.8,1.9,1.9,3.6,3.2,5
		c1.3,1.4,3,2.5,4.8,3.4C309.4,312.9,311.4,313.4,313.6,313.4z"/>
	<path fill="none" d="M368.1,242c-14.5-14.9-33.9-23.1-54.5-23.1c-20.7,0-40,8.2-54.5,23.1c-14.5,14.9-22.6,34.6-22.6,55.5
		c0,21,8,40.7,22.6,55.5c14.5,14.9,34,23.1,54.5,23.1c20.7,0,40-8.2,54.5-23.1s22.6-34.6,22.6-55.5
		C390.8,276.5,382.8,256.8,368.1,242z M361.5,346.4c-12.9,13.1-29.8,20.2-47.9,20.2c-18.1,0-35.2-7.2-47.9-20.2
		c-12.9-13.1-19.8-30.4-19.8-48.8c0-18.5,7.1-35.8,19.8-48.8c12.9-13.1,29.8-20.2,47.9-20.2s35.2,7.2,47.9,20.2
		c12.9,13.1,19.8,30.4,19.8,48.8C381.4,316,374.3,333.3,361.5,346.4z"/>
	<path fill="none" d="M313.6,265.3c-17.4,0-31.7,14.4-31.7,32.2c0,17.8,14.2,32.2,31.7,32.2c17.4,0,31.7-14.4,31.7-32.2
		C345.3,279.7,331,265.3,313.6,265.3z M313.6,324.4c-14.5,0-26.4-12-26.4-26.9s11.9-26.9,26.4-26.9s26.4,12,26.4,26.9
		S328.1,324.4,313.6,324.4z"/>
	<path fill="none" d="M360.1,250.2c-12.4-12.6-28.9-19.6-46.5-19.6c-17.5,0-34.1,7-46.5,19.6c-12.4,12.6-19.2,29.4-19.2,47.3
		c0,17.9,6.8,34.7,19.2,47.3c12.4,12.6,28.9,19.6,46.5,19.6s34.1-7,46.5-19.6c12.4-12.6,19.2-29.4,19.2-47.3
		C379.4,279.6,372.5,262.8,360.1,250.2z M354.2,339c-10.8,11-25.3,17.2-40.6,17.2c-15.4,0-29.8-6.1-40.6-17.2
		c-10.8-11-16.8-25.7-16.8-41.3s6-30.3,16.8-41.3c10.8-11,25.3-17.2,40.6-17.2c15.4,0,29.8,6.1,40.6,17.2
		c10.8,11,16.8,25.7,16.8,41.3C371.1,313.1,365.1,327.9,354.2,339z"/>
	<path fill="none" d="M352,258.4c-10.3-10.4-23.9-16.2-38.4-16.2s-28.2,5.8-38.4,16.2c-10.3,10.4-16,24.4-16,39.2
		c0,14.8,5.6,28.7,16,39.2c10.3,10.4,23.9,16.2,38.4,16.2s28.2-5.8,38.4-16.2c10.3-10.4,16-24.4,16-39.2S362.3,268.8,352,258.4z
		 M313.6,345.4c-25.9,0-47.1-21.5-47.1-47.9s21.1-47.9,47.1-47.9s47.1,21.5,47.1,47.9S339.5,345.4,313.6,345.4z"/>
	<path fill="none" d="M376.1,233.9c-16.7-17.1-38.9-26.3-62.6-26.3s-45.9,9.4-62.6,26.3c-16.7,17.1-25.9,39.6-25.9,63.7
		s9.2,46.6,25.9,63.7c16.7,17.1,38.9,26.3,62.6,26.3c23.7,0,45.9-9.4,62.6-26.3c16.7-17.1,25.9-39.6,25.9-63.7
		C402,273.5,392.8,250.9,376.1,233.9z M368.8,353.8c-14.8,15-34.3,23.3-55.2,23.3s-40.5-8.3-55.2-23.3c-14.8-15-22.9-35.1-22.9-56.3
		c0-21.3,8.2-41.2,22.9-56.3c14.8-15,34.3-23.3,55.2-23.3s40.5,8.3,55.2,23.3c14.8,15,22.9,35.1,22.9,56.3
		C391.8,318.8,383.6,338.8,368.8,353.8z"/>
	<path fill="none" d="M313.6,253.7c-23.8,0-43,19.7-43,43.8c0,24.1,19.3,43.8,43,43.8c23.8,0,43-19.7,43-43.8
		C356.6,273.4,337.4,253.7,313.6,253.7z M313.6,335c-20.3,0-36.8-16.8-36.8-37.4c0-20.7,16.5-37.4,36.8-37.4
		c20.3,0,36.8,16.8,36.8,37.4S333.9,335,313.6,335z"/>
	<path fill="#595758" d="M58,252.4c0,3.5,0,7.4,0,11.6c0,4.2,0,8.5,0,12.9s0,8.3,0,11.9c0,3.5,0,6.4,0,8.6c0,2.2,0,3.1,0,2.9v23.1
		H47.6l-1.4-2.9c-1.2,0.7-2.6,1.3-4.3,1.8c-2.3,0.7-4.6,1-6.7,1c-2.3,0-4.7-0.4-6.8-1c-2.2-0.7-4.2-1.7-6.2-2.9
		c-1.9-1.3-3.6-2.9-5-4.7c-1.4-1.8-2.6-3.8-3.5-6c-0.4-1.1-0.7-2-1-2.9c-0.2-1-0.4-2.2-0.6-3.8v-57.8h11.9V301
		c0,1.6,0.4,3.2,1.2,4.8c0.8,1.7,1.9,3,3.4,4.1c1.9,1.6,4.1,2.3,6.6,2.3c1.6,0,2.9-0.2,4.2-1c1.3-0.6,2.5-1.4,3.5-2.5
		c1-1.1,1.8-2.3,2.4-3.7c0.6-1.4,1-2.9,1.1-4.4v-56.3H58C58,246.1,58,248.8,58,252.4z"/>
	<path fill="#595758" d="M108.2,323.3H96.8c0-1.7,0-3.4,0-5.2s0-3.8,0-6.4c0-2.4,0-5.3,0-8.6c0-3.4,0-7.3,0-12.1c0-0.2,0-0.5,0-0.7
		c0-0.2,0-0.6-0.1-0.8c-0.4-1.1-0.6-2-1-2.9c-1.1-1.9-2.5-3.4-4.4-4.3c-1-0.4-1.9-0.6-3-0.8c-1.1-0.2-2.2-0.1-3.2,0
		c-2.3,0.5-4.2,1.6-5.8,3.2c-0.8,0.8-1.6,1.9-2,3.2c-0.6,1.3-0.8,2.6-0.8,4v31.2H65v-51.5h11.4l2.3,1.6c0.6-0.2,1.2-0.6,1.9-0.8
		c0.6-0.2,1.3-0.5,1.9-0.6c2-0.7,4.2-1,6.6-0.8s4.7,0.6,6.7,1.4c1.9,0.7,3.8,1.9,5.6,3.5c1.7,1.6,3.1,3.4,4.3,5.3
		c0.8,1.4,1.4,3,1.9,4.7c0.5,1.7,0.7,3.4,0.7,5.2v32.4H108.2z"/>
	<path fill="#595758" d="M164.3,244.2v79.1h-11.4v-0.1l-2.3-2.3c-0.4,0.1-0.7,0.4-1,0.5c-0.4,0.1-0.6,0.4-1,0.5
		c-3,1.3-6.4,2.2-10.1,2.3c-3.6,0-7-0.7-10.2-2c-3.4-1.3-6.1-3.4-8.6-5.9c-1.3-1.2-2.4-2.5-3.4-4c-1-1.4-1.8-3-2.4-4.6
		c-1.2-3.1-1.8-6.5-1.9-10c0-3.5,0.6-7,1.9-10.3c0.6-1.6,1.4-3.1,2.4-4.6c1-1.4,2.2-2.8,3.4-4.1c2.4-2.5,5.3-4.6,8.6-5.9
		c3.1-1.3,6.6-2,10.2-2c3.7,0.1,7.1,1,10.1,2.3c0.8,0.4,1.6,0.6,2.3,1.1c0.7,0.4,1.3,0.8,2,1.3v-31.3H164.3z M138.5,313
		c1.9,0.1,3.8-0.2,5.8-1.1c1.9-0.8,3.6-1.9,5.2-3.4c1.4-1.4,2.6-3.1,3.5-5c0.7-1.8,1.1-3.8,1.1-6.1c0-2.3-0.4-4.3-1.1-6.1
		c-1-1.9-2-3.6-3.5-5c-1.6-1.4-3.2-2.5-5.2-3.2c-1.9-0.7-3.8-1.1-5.8-1.1c-1.1,0.1-2,0.2-3,0.4c-1,0.2-1.9,0.5-2.8,0.8
		c-1.8,0.8-3.5,2-4.8,3.5c-0.7,0.7-1.4,1.4-1.9,2.3c-0.5,0.8-1,1.8-1.3,2.6c-0.1,0.5-0.4,1-0.5,1.4c-0.1,0.5-0.2,1-0.4,1.4
		c-0.4,2.3-0.2,4.7,0.4,7.3c0.6,2.6,1.9,4.8,3.7,6.6c1.4,1.6,3,2.6,4.8,3.5C134.6,312.7,136.6,313,138.5,313z"/>
	<path fill="#595758" d="M183,323.3h-11.4v-51.8H183V323.3z"/>
	<path fill="#595758" d="M209.1,324.1c-2.6,0-5.2-0.5-7.4-1.3c-2.3-0.8-4.3-2-6.1-3.6c-1.7-1.6-3.1-3.4-4.1-5.4
		c-1-2-1.4-4.2-1.4-6.6h11.2c0,1.4,0.7,2.8,2.3,4c1.6,1.2,3.4,1.8,5.6,1.8c2.2,0,4-0.6,5.5-1.8c1.6-1.2,2.3-2.5,2.3-4.1
		c0-1.1-0.5-2-1.3-3c-0.8-1-2.2-1.7-3.6-2l-8.2-2.4c-3.5-1.1-6.2-2.9-8.4-5.4s-3.1-5.4-3.1-8.6c0-2,0.5-4,1.3-5.8
		c0.8-1.8,2-3.4,3.6-4.7s3.4-2.4,5.4-3.1c2-0.8,4.2-1.2,6.6-1.2c4.8,0,8.9,1.6,12.3,4.8l-7.8,8.2c-0.5-0.5-1.2-1-1.9-1.4
		c-0.8-0.4-1.6-0.6-2.4-0.6c-1.7,0-3,0.4-4,1.2c-1,0.8-1.6,1.7-1.6,2.8c0,0.7,0.2,1.3,1,2c0.6,0.7,1.4,1.2,2.5,1.4l8.2,2.4
		c4,1.1,7.1,3.1,9.5,6c2.4,2.9,3.6,6.1,3.6,9.7c0,2.3-0.5,4.6-1.4,6.6c-1,2-2.3,3.8-4.1,5.4c-1.7,1.6-3.7,2.8-6,3.6
		C214.3,323.7,211.7,324.1,209.1,324.1z"/>
	<path fill="#595758" d="M467.7,271.6c0.6,0.1,1.2,0.1,1.7,0.1c0.5,0,1.1,0.1,1.7,0.2l-3.1,10.6c-0.5-0.1-0.8-0.2-1.1-0.2
		c-1.2-0.1-2.3-0.1-3.1,0.1c-2.2,0.4-4.1,1.4-5.8,3.1c-0.4,0.5-0.7,1-1.1,1.3c-0.4,0.5-0.6,1-0.8,1.6c-0.1,0.4-0.4,1.1-0.6,2
		c-0.2,1-0.4,1.9-0.4,2.9v29.8h-11.4v-51.5h11.4l2.4,2.3c0.6-0.4,1.2-0.6,1.8-0.8s1.2-0.5,1.9-0.6c1.1-0.2,2.2-0.5,3.2-0.7
		C465.4,271.5,466.5,271.5,467.7,271.6z"/>
	<path fill="#595758" d="M520,299.6h-37.2l-1.1,1c0.1,0.5,0.2,1.1,0.4,1.6c0.1,0.5,0.2,1,0.5,1.6c0.6,1.6,1.4,3,2.6,4.4
		c1.2,1.3,2.5,2.4,4,3.2c1.7,1,3.2,1.6,4.8,1.8c0.5,0.1,1,0.1,1.3,0.1c0.5,0,1,0,1.3,0c0.4,0,0.8,0,1.2,0c0.5,0,0.8-0.1,1.2-0.1
		c1.7-0.4,3.4-1,4.8-1.9c0.7-0.5,1.4-1,2-1.6s1.2-1.2,1.8-1.9l8.6,7.6c-1.9,2.2-4.3,4-7,5.4c-1.8,1.1-3.8,1.9-5.9,2.4
		c-2.2,0.6-4.4,0.8-6.8,0.8c-2.9,0-5.8-0.5-8.6-1.3c-1.3-0.5-2.8-1-4.1-1.7c-2.6-1.4-5-3.2-7.1-5.4c-2-2.2-3.7-4.7-4.8-7.4
		c-1.1-2.8-1.8-5.5-2.2-8.5c-0.4-2.9-0.1-5.9,0.5-8.6c0.6-2.9,1.7-5.5,3.2-8.2c1.6-2.5,3.7-4.8,6.5-6.7c1.3-0.8,2.5-1.6,3.8-2.3
		c1.3-0.7,2.6-1.3,4.2-1.8c0.4-0.1,1.2-0.4,2.4-0.5c1.2-0.2,2.6-0.4,4.3-0.4c1.7-0.1,3.5,0,5.3,0.2c1.9,0.2,3.7,0.7,5.4,1.3
		c2.9,1.1,5.4,2.6,7.7,4.8s4.1,4.8,5.2,7.8c0.2,0.7,0.6,1.4,0.7,2.2c0.2,0.7,0.4,1.4,0.5,2.2c0.1,0.5,0.1,1,0.2,1.7
		c0.1,0.6,0.1,1.6,0.2,2.8L520,299.6L520,299.6z M491.3,282.1c-1.6,0.5-2.9,1.2-4,2c-1.1,0.8-2.2,1.9-3.1,3.2l0.5,1.3h23.1
		c-0.5-1.2-1.2-2.4-2.3-3.5c-0.6-0.6-1.4-1.2-2.4-1.8s-2.2-1-3.5-1.3c-1.3-0.4-2.6-0.6-4.1-0.6C494.1,281.5,492.8,281.7,491.3,282.1
		z"/>
	<path fill="#595758" d="M577.8,244.2v79.1h-11.4v-0.1l-2.3-2.3c-0.4,0.1-0.7,0.4-1,0.5c-0.4,0.1-0.6,0.4-1,0.5
		c-3,1.3-6.4,2.2-10.1,2.3c-3.6,0-7-0.7-10.2-2c-3.4-1.3-6.1-3.4-8.6-5.9c-1.3-1.2-2.4-2.5-3.4-4c-1-1.4-1.8-3-2.4-4.6
		c-1.2-3.1-1.8-6.5-1.9-10c0-3.5,0.6-7,1.9-10.3c0.6-1.6,1.4-3.1,2.4-4.6c1-1.4,2.2-2.8,3.4-4.1c2.4-2.5,5.3-4.6,8.6-5.9
		c3.1-1.3,6.6-2,10.2-2c3.7,0.1,7.1,1,10.1,2.3c0.8,0.4,1.6,0.6,2.3,1.1c0.7,0.4,1.3,0.8,2,1.3v-31.3H577.8z M552.1,313
		c1.9,0.1,3.8-0.2,5.8-1.1s3.6-1.9,5.2-3.4c1.4-1.4,2.6-3.1,3.5-5c0.7-1.8,1.1-3.8,1.1-6.1c0-2.3-0.4-4.3-1.1-6.1
		c-1-1.9-2-3.6-3.5-5c-1.6-1.4-3.2-2.5-5.2-3.2c-1.9-0.7-3.8-1.1-5.8-1.1c-1.1,0.1-2,0.2-3,0.4c-1,0.2-1.9,0.5-2.8,0.8
		c-1.8,0.8-3.5,2-4.8,3.5c-0.7,0.7-1.4,1.4-1.9,2.3c-0.5,0.8-1,1.8-1.3,2.6c-0.1,0.5-0.4,1-0.5,1.4c-0.1,0.5-0.2,1-0.4,1.4
		c-0.4,2.3-0.2,4.7,0.4,7.3c0.6,2.6,1.9,4.8,3.7,6.6c1.4,1.6,3,2.6,4.8,3.5C548.1,312.7,550.1,313,552.1,313z"/>
	<path fill="#595758" d="M183.4,254.8L183.4,254.8c0-0.1-0.2-0.4-0.4-0.6c-0.2-0.2-0.5-0.6-0.7-0.8c-0.1-0.1-0.2-0.2-0.5-0.4
		c-1.4-1.4-3.4-3.2-3.7-4h-0.4h-0.5h-0.5h-0.4c-0.4,0.7-2.3,2.5-3.7,4c-0.1,0.1-0.4,0.2-0.5,0.4c-0.2,0.2-0.5,0.6-0.7,0.8
		c-0.2,0.2-0.4,0.4-0.4,0.6l0,0c-0.6,1.1-1,2.3-1,3.6c0,1.9,0.7,3.6,2,4.9c1.3,1.3,3,2,4.9,2c1.9,0,3.6-0.7,4.9-2s2-3,2-4.9
		C184.4,256.9,184,255.8,183.4,254.8z"/>
	<path fill="#595758" d="M437.3,299.6H400l-1.1,1c0.1,0.5,0.2,1.1,0.4,1.6c0.1,0.5,0.2,1,0.5,1.6c0.6,1.6,1.4,3,2.6,4.4
		c1.2,1.3,2.5,2.4,4,3.2c1.7,1,3.2,1.6,4.8,1.8c0.5,0.1,1,0.1,1.3,0.1c0.5,0,1,0,1.3,0c0.4,0,0.8,0,1.2,0c0.5,0,0.8-0.1,1.2-0.1
		c1.7-0.4,3.4-1,4.8-1.9c0.7-0.5,1.4-1,2-1.6s1.2-1.2,1.8-1.9l8.6,7.6c-1.9,2.2-4.3,4-7,5.4c-1.8,1.1-3.8,1.9-5.9,2.4
		c-2.2,0.6-4.4,0.8-6.8,0.8c-2.9,0-5.8-0.5-8.6-1.3c-1.3-0.5-2.8-1-4.1-1.7c-2.6-1.4-5-3.2-7.1-5.4c-2-2.2-3.7-4.7-4.8-7.4
		s-1.8-5.5-2.2-8.5c-0.4-2.9-0.1-5.9,0.5-8.6c0.6-2.9,1.7-5.5,3.2-8.2c1.6-2.5,3.7-4.8,6.5-6.7c1.3-0.8,2.5-1.6,3.8-2.3
		c1.3-0.7,2.6-1.3,4.2-1.8c0.4-0.1,1.2-0.4,2.4-0.5c1.2-0.2,2.6-0.4,4.3-0.4c1.7-0.1,3.5,0,5.3,0.2c1.9,0.2,3.7,0.7,5.4,1.3
		c2.9,1.1,5.4,2.6,7.7,4.8s4.1,4.8,5.2,7.8c0.2,0.7,0.6,1.4,0.7,2.2c0.2,0.7,0.4,1.4,0.5,2.2c0.1,0.5,0.1,1,0.2,1.7
		c0.1,0.6,0.1,1.6,0.2,2.8L437.3,299.6L437.3,299.6z M408.6,282.1c-1.6,0.5-2.9,1.2-4,2c-1.1,0.8-2.2,1.9-3.1,3.2l0.5,1.3H425
		c-0.5-1.2-1.2-2.4-2.3-3.5c-0.6-0.6-1.4-1.2-2.4-1.8c-1-0.6-2.2-1-3.5-1.3c-1.3-0.4-2.6-0.6-4.1-0.6
		C411.3,281.5,409.9,281.7,408.6,282.1z"/>
	
		<linearGradient id="SVGID_1_" gradientUnits="userSpaceOnUse" x1="331.9" y1="583.08" x2="331.9" y2="583.08" gradientTransform="matrix(1.201 0 0 -1.201 0 913.4808)">
		<stop  offset="0.153" style="stop-color:#FBC61C"/>
		<stop  offset="0.5562" style="stop-color:#7A600E"/>
		<stop  offset="0.8496" style="stop-color:#221B04"/>
		<stop  offset="0.9818" style="stop-color:#000000"/>
	</linearGradient>
	<path fill="url(#SVGID_1_)" d="M398.6,213.2"/>
	<g>
		
			<linearGradient id="SVGID_2_" gradientUnits="userSpaceOnUse" x1="885.2612" y1="-2236.2974" x2="868.4994" y2="-2286.9387" gradientTransform="matrix(0.7987 -0.8969 -0.8969 -0.7987 -2425.1814 -767.9474)">
			<stop  offset="0.6915" style="stop-color:#FBC61C"/>
			<stop  offset="0.7091" style="stop-color:#E8B930"/>
			<stop  offset="0.7736" style="stop-color:#B1924F"/>
			<stop  offset="0.8351" style="stop-color:#887657"/>
			<stop  offset="0.892" style="stop-color:#6E6459"/>
			<stop  offset="0.9426" style="stop-color:#5E5A58"/>
			<stop  offset="0.9818" style="stop-color:#595758"/>
		</linearGradient>
		<path fill="url(#SVGID_2_)" d="M335.1,274l3.4-3.8c-14.1-13.3-35.3-13.1-49-0.7l3.2,3.8C304.6,262.6,323.2,262.5,335.1,274z"/>
		
			<linearGradient id="SVGID_3_" gradientUnits="userSpaceOnUse" x1="896.4077" y1="-2237.5623" x2="880.6961" y2="-2285.1255" gradientTransform="matrix(0.7887 -0.8885 -0.8879 -0.7933 -2395.1611 -776.5522)">
			<stop  offset="0.6915" style="stop-color:#FBC61C"/>
			<stop  offset="0.7091" style="stop-color:#E8B930"/>
			<stop  offset="0.7736" style="stop-color:#B1924F"/>
			<stop  offset="0.8351" style="stop-color:#887657"/>
			<stop  offset="0.892" style="stop-color:#6E6459"/>
			<stop  offset="0.9426" style="stop-color:#5E5A58"/>
			<stop  offset="0.9818" style="stop-color:#595758"/>
		</linearGradient>
		<path fill="url(#SVGID_3_)" d="M308.7,207.7c14.7-0.8,28.8,1.9,42,8c7.9,3.7,15.5,8.8,22.2,15l0.1-0.2
			c-17.8-16.1-39.2-24.3-64.3-23.1c-19.8,1-38.1,8.8-52.7,21.4l0.1,0.2C270.8,216.3,289,208.8,308.7,207.7z"/>
		
			<linearGradient id="SVGID_4_" gradientUnits="userSpaceOnUse" x1="888.9224" y1="-2235.7971" x2="872.601" y2="-2285.1079" gradientTransform="matrix(0.7987 -0.8969 -0.8969 -0.7987 -2425.1814 -767.9474)">
			<stop  offset="0.6915" style="stop-color:#FBC61C"/>
			<stop  offset="0.7091" style="stop-color:#E8B930"/>
			<stop  offset="0.7736" style="stop-color:#B1924F"/>
			<stop  offset="0.8351" style="stop-color:#887657"/>
			<stop  offset="0.892" style="stop-color:#6E6459"/>
			<stop  offset="0.9426" style="stop-color:#5E5A58"/>
			<stop  offset="0.9818" style="stop-color:#595758"/>
		</linearGradient>
		<path fill="url(#SVGID_4_)" d="M342.6,265.3l2.8-3c-17.8-16.8-45-16.7-62.8-0.8l2.6,3.1C301.6,250.1,326.4,250,342.6,265.3z"/>
		
			<linearGradient id="SVGID_5_" gradientUnits="userSpaceOnUse" x1="900.9151" y1="-2232.2185" x2="885.2294" y2="-2279.6086" gradientTransform="matrix(0.7987 -0.8969 -0.8969 -0.7987 -2425.1814 -767.9474)">
			<stop  offset="0.6915" style="stop-color:#FBC61C"/>
			<stop  offset="0.7091" style="stop-color:#E8B930"/>
			<stop  offset="0.7736" style="stop-color:#B1924F"/>
			<stop  offset="0.8351" style="stop-color:#887657"/>
			<stop  offset="0.892" style="stop-color:#6E6459"/>
			<stop  offset="0.9426" style="stop-color:#5E5A58"/>
			<stop  offset="0.9818" style="stop-color:#595758"/>
		</linearGradient>
		<path fill="url(#SVGID_5_)" d="M309.6,219.1c20.7-1.1,39.9,5.9,55.7,20.2l0.8-0.6c-16-14.7-35.7-21.7-56.8-20.7
			c-17.7,0.8-33.9,7.7-46.8,19.1l0.7,0.7C276.5,226.7,292.1,219.9,309.6,219.1z"/>
		
			<linearGradient id="SVGID_6_" gradientUnits="userSpaceOnUse" x1="896.7975" y1="-2233.6626" x2="880.99" y2="-2281.4209" gradientTransform="matrix(0.7987 -0.8969 -0.8969 -0.7987 -2425.1814 -767.9474)">
			<stop  offset="0.6915" style="stop-color:#FBC61C"/>
			<stop  offset="0.7091" style="stop-color:#E8B930"/>
			<stop  offset="0.7736" style="stop-color:#B1924F"/>
			<stop  offset="0.8351" style="stop-color:#887657"/>
			<stop  offset="0.892" style="stop-color:#6E6459"/>
			<stop  offset="0.9426" style="stop-color:#5E5A58"/>
			<stop  offset="0.9818" style="stop-color:#595758"/>
		</linearGradient>
		<path fill="url(#SVGID_6_)" d="M310.6,230.6c17.8-0.7,33.9,5.4,47.2,17.3l1.4-1.4c-13.9-12.7-29.8-18.3-48-18
			c-15.4,0.2-30.7,7-42,16.8l1.3,1.6C282.5,236.6,296.2,231.2,310.6,230.6z"/>
		
			<linearGradient id="SVGID_7_" gradientUnits="userSpaceOnUse" x1="892.8074" y1="-2234.8013" x2="876.7458" y2="-2283.3274" gradientTransform="matrix(0.7987 -0.8969 -0.8969 -0.7987 -2425.1814 -767.9474)">
			<stop  offset="0.6915" style="stop-color:#FBC61C"/>
			<stop  offset="0.7091" style="stop-color:#E8B930"/>
			<stop  offset="0.7736" style="stop-color:#B1924F"/>
			<stop  offset="0.8351" style="stop-color:#887657"/>
			<stop  offset="0.892" style="stop-color:#6E6459"/>
			<stop  offset="0.9426" style="stop-color:#5E5A58"/>
			<stop  offset="0.9818" style="stop-color:#595758"/>
		</linearGradient>
		<path fill="url(#SVGID_7_)" d="M310.7,242.2c14.7-0.7,28.2,4.1,39.6,14.5l1.9-2.4c-12.3-11-26.4-16-41.9-15.3
			c-13.1,0.6-25,5.9-34.6,14.3l1.9,2.4C286.3,248.2,298.2,242.8,310.7,242.2z"/>
	</g>
</g>
<g>
	<g>
		<rect x="602.1" y="244.2" fill="#595758" width="2.4" height="110.3"/>
	</g>
	<g>
		<path fill="#595758" d="M413.5,340.2h-7.3c-0.4,0-0.7,0.4-0.7,0.7v13.3c0,0.4,0.4,0.7,0.7,0.7h0.1c0.4,0,0.7-0.4,0.7-0.7V348h6.1
			c0.4,0,0.7-0.4,0.7-0.7c0-0.4-0.4-0.7-0.7-0.7H407v-4.8h6.5c0.4,0,0.7-0.4,0.7-0.7C414.2,340.4,414,340.2,413.5,340.2z"/>
		<path fill="#595758" d="M418.8,343.8c-2.5,0-3.8,1-3.8,2.9v5.6c0,1.9,1.3,2.9,3.8,2.9s3.8-1,3.8-2.9v-5.6
			C422.6,344.7,421.3,343.8,418.8,343.8z M421.1,346.5v5.6c0,0.5,0,1.3-2.4,1.3c-2.4,0-2.4-0.8-2.4-1.3v-5.6c0-0.5,0-1.3,2.4-1.3
			C421.1,345.2,421.1,346.2,421.1,346.5z"/>
		<path fill="#595758" d="M431.8,343.9c-0.4,0-0.7,0.4-0.7,0.7v7.9c-0.5,0.4-1.4,1-2.9,1c-1.2,0-1.8-0.5-1.8-1.3v-7.6
			c0-0.4-0.4-0.7-0.8-0.7c-0.4,0-0.7,0.4-0.7,0.7v7.6c0,1.8,1.2,2.9,3.2,2.9c1.2,0,2.2-0.4,2.9-0.7c0.1,0.4,0.4,0.6,0.7,0.6
			s0.7-0.4,0.7-0.7v-9.5C432.6,344.2,432.2,343.9,431.8,343.9z"/>
		<path fill="#595758" d="M439.7,343.8c-1.2,0-2.3,0.4-3,0.7c0-0.4-0.4-0.6-0.7-0.6c-0.4,0-0.7,0.4-0.7,0.7v9.5
			c0,0.4,0.4,0.7,0.8,0.7c0.4,0,0.7-0.4,0.7-0.7v-7.8c0.6-0.5,1.6-1,3-1c1.2,0,1.8,0.5,1.8,1.3v7.6c0,0.4,0.4,0.7,0.7,0.7h0.1
			c0.4,0,0.7-0.4,0.7-0.7v-7.6C442.9,344.8,441.7,343.8,439.7,343.8z"/>
		<path fill="#595758" d="M452.2,339.8c-0.4,0-0.7,0.4-0.7,0.7v4.1c-0.7-0.4-1.8-0.7-3-0.7c-2,0-3.2,1.1-3.2,2.9v5.6
			c0,1.8,1.2,2.9,3.2,2.9c1.2,0,2.3-0.4,3-0.7c0,0.4,0.4,0.6,0.7,0.6c0.4,0,0.7-0.4,0.7-0.7v-13.7C453,340,452.7,339.8,452.2,339.8z
			 M446.8,346.5c0-1.1,1-1.3,1.8-1.3c1.4,0,2.4,0.6,3,1v6.2c-0.7,0.5-1.7,1-3,1c-0.8,0-1.8-0.2-1.8-1.3V346.5z"/>
		<path fill="#595758" d="M456.3,351.9c-0.4,0-0.7,0.4-0.7,0.7v1.4c0,0.4,0.4,0.7,0.7,0.7h0.1c0.4,0,0.7-0.4,0.7-0.7v-1.4
			C457,352.3,456.7,351.9,456.3,351.9z"/>
		<path fill="#595758" d="M472.2,353.4h-6v-12.5c0-0.4-0.4-0.7-0.8-0.7c-0.4,0-0.7,0.4-0.7,0.7v13.3c0,0.4,0.4,0.7,0.7,0.7h6.7
			c0.4,0,0.7-0.4,0.7-0.7C472.9,353.7,472.6,353.4,472.2,353.4z"/>
		<path fill="#595758" d="M477.9,343.8c-2.5,0-3.8,1-3.8,2.9v5.6c0,1.9,1.3,2.9,3.8,2.9s3.8-1,3.8-2.9v-5.6
			C481.8,344.7,480.5,343.8,477.9,343.8z M480.3,346.5v5.6c0,0.5,0,1.3-2.4,1.3s-2.4-0.8-2.4-1.3v-5.6c0-0.5,0-1.3,2.4-1.3
			S480.3,346.2,480.3,346.5z"/>
		<path fill="#595758" d="M490,343.9c-0.4,0-0.6,0.2-0.7,0.5l-2.5,7.4l-2.5-7.3c-0.1-0.4-0.4-0.6-0.8-0.6c-0.2,0-0.5,0.1-0.6,0.2
			l-0.2,0.4l3.4,9.7c0.1,0.2,0.2,0.5,0.5,0.5l0.4,1.1l0.2-1.2c0.2-0.1,0.4-0.2,0.4-0.5l3.2-9.5l0.1-0.4l-0.1-0.2
			C490.5,344,490.4,343.9,490,343.9z"/>
		<path fill="#595758" d="M495.5,343.8c-2.5,0-3.8,1-3.8,2.9v5.6c0,1.9,1.3,2.9,3.8,2.9s3.8-1,3.8-2.9v-0.6c0-0.4-0.4-0.7-0.8-0.7
			c-0.4,0-0.7,0.4-0.7,0.7v0.6c0,0.5,0,1.3-2.4,1.3c-2.4,0-2.4-0.8-2.4-1.3v-2.4h5.5c0.4,0,0.7-0.4,0.7-0.7v-2.5
			C499.4,344.7,498,343.8,495.5,343.8z M493.1,348.3v-1.7c0-0.5,0-1.3,2.4-1.3s2.4,0.8,2.4,1.3v1.7H493.1z"/>
		<path fill="#595758" d="M508.3,339.8c-0.4,0-0.7,0.4-0.7,0.7v4.1c-0.7-0.4-1.8-0.7-3-0.7c-2,0-3.2,1.1-3.2,2.9v5.6
			c0,1.8,1.2,2.9,3.2,2.9c1.2,0,2.3-0.4,3-0.7c0,0.4,0.4,0.6,0.7,0.6s0.7-0.4,0.7-0.7v-13.7C509.1,340,508.7,339.8,508.3,339.8z
			 M502.9,346.5c0-1.1,1-1.3,1.8-1.3c1.4,0,2.4,0.6,3,1v6.2c-0.7,0.5-1.7,1-3,1c-0.8,0-1.8-0.2-1.8-1.3V346.5z"/>
		<path fill="#595758" d="M512.3,351.9c-0.4,0-0.7,0.4-0.7,0.7v1.4c0,0.4,0.4,0.7,0.7,0.7h0.1c0.4,0,0.7-0.4,0.7-0.7v-1.4
			C513.1,352.3,512.8,351.9,512.3,351.9z"/>
		<path fill="#595758" d="M527.1,347.1l-4-1.6c-0.4-0.1-1.1-0.5-1.1-1.4v-1c0-0.6,0-1.7,2.9-1.7c2.9,0,2.9,1.1,2.9,1.7v1.1
			c0,0.4,0.4,0.7,0.8,0.7c0.4,0,0.7-0.4,0.7-0.7v-1.1c0-2.2-1.4-3.2-4.3-3.2c-2.9,0-4.3,1.1-4.3,3.2v1c0,1.9,1.6,2.6,2,2.8l4,1.6
			c0.6,0.2,1.2,0.7,1.2,1.4v1.8c0,0.6,0,1.7-3,1.7c-2.9,0-2.9-1.1-2.9-1.7v-1c0-0.4-0.4-0.7-0.8-0.7c-0.4,0-0.7,0.4-0.7,0.7v1
			c0,2.2,1.4,3.2,4.4,3.2c3,0,4.4-1.1,4.4-3.2v-1.8C529.3,348.7,528.4,347.7,527.1,347.1z"/>
		<path fill="#595758" d="M532.4,339.8c-0.4,0-0.7,0.4-0.7,0.7v1.9c0,0.4,0.4,0.7,0.7,0.7h0.1c0.4,0,0.7-0.4,0.7-0.7v-1.9
			C533.2,340,532.9,339.8,532.4,339.8z"/>
		<path fill="#595758" d="M532.4,343.9c-0.4,0-0.7,0.4-0.7,0.7v9.5c0,0.4,0.4,0.7,0.7,0.7h0.1c0.4,0,0.7-0.4,0.7-0.7v-9.5
			C533.2,344.2,532.9,343.9,532.4,343.9z"/>
		<path fill="#595758" d="M542.6,343.9c-0.4,0-0.7,0.2-0.7,0.6c-0.7-0.4-1.8-0.7-3-0.7c-2,0-3.2,1.1-3.2,2.9v5.6
			c0,1.8,1.2,2.9,3.2,2.9c1.2,0,2.3-0.4,3-0.7v1.9c0,0.5,0,1.3-2.3,1.3h-2.8c-0.4,0-0.7,0.4-0.7,0.7c0,0.4,0.4,0.7,0.7,0.7h2.6
			c2.6,0,3.8-1,3.8-2.9v-11.6C543.3,344.2,543.1,343.9,542.6,343.9z M537.1,346.5c0-1.1,1-1.3,1.8-1.3c1.4,0,2.4,0.6,3,1v6.2
			c-0.7,0.5-1.7,1-3,1c-0.8,0-1.8-0.2-1.8-1.3V346.5z"/>
		<path fill="#595758" d="M550.5,343.8c-1.2,0-2.3,0.4-3,0.7c0-0.4-0.4-0.6-0.7-0.6s-0.7,0.4-0.7,0.7v9.5c0,0.4,0.4,0.7,0.8,0.7
			c0.4,0,0.7-0.4,0.7-0.7v-7.8c0.6-0.5,1.6-1,3-1c1.2,0,1.8,0.5,1.8,1.3v7.6c0,0.4,0.4,0.7,0.7,0.7h0.1c0.4,0,0.7-0.4,0.7-0.7v-7.6
			C553.8,344.8,552.6,343.8,550.5,343.8z"/>
		<path fill="#595758" d="M559.9,343.8c-2.5,0-3.8,1-3.8,2.9v5.6c0,1.9,1.3,2.9,3.8,2.9s3.8-1,3.8-2.9v-0.6c0-0.4-0.4-0.7-0.8-0.7
			c-0.4,0-0.7,0.4-0.7,0.7v0.6c0,0.5,0,1.3-2.4,1.3s-2.4-0.8-2.4-1.3v-2.4h5.5c0.4,0,0.7-0.4,0.7-0.7v-2.5
			C563.7,344.7,562.5,343.8,559.9,343.8z M557.5,348.3v-1.7c0-0.5,0-1.3,2.4-1.3s2.4,0.8,2.4,1.3v1.7H557.5z"/>
		<path fill="#595758" d="M572.6,339.8c-0.4,0-0.7,0.4-0.7,0.7v4.1c-0.7-0.4-1.8-0.7-3-0.7c-2,0-3.2,1.1-3.2,2.9v5.6
			c0,1.8,1.2,2.9,3.2,2.9c1.2,0,2.3-0.4,3-0.7c0,0.4,0.4,0.6,0.7,0.6c0.4,0,0.7-0.4,0.7-0.7v-13.7
			C573.5,340,573.1,339.8,572.6,339.8z M567.2,346.5c0-1.1,1-1.3,1.8-1.3c1.4,0,2.4,0.6,3,1v6.2c-0.7,0.5-1.7,1-3,1
			c-0.8,0-1.8-0.2-1.8-1.3V346.5z"/>
		<path fill="#595758" d="M576.7,351.9c-0.4,0-0.7,0.4-0.7,0.7v1.4c0,0.4,0.4,0.7,0.7,0.7h0.1c0.4,0,0.7-0.4,0.7-0.7v-1.4
			C577.4,352.3,577.2,351.9,576.7,351.9z"/>
	</g>
</g>
<g>
	<path fill="#595758" d="M666.7,272.1l-2.4,12h5.1v8.6h-6.9l-1.2,6h8.1v8.8h-9.9l-2.7,13.1l-8.8-1.8l2.3-11.3h-8.6l-2.8,13.7
		l-8.8-1.8l2.4-11.9h-5.2v-8.8h6.9l1.3-6h-8.2v-8.6h10l2.6-13.1l8.8,1.8l-2.3,11.3h8.6l2.8-13.8L666.7,272.1z M652.1,298.8l1.2-6
		h-8.6l-1.3,6H652.1z"/>
	<path fill="#595758" d="M727.4,291.8c0,4.9-0.6,9.3-1.8,13.2c-1.2,4-3,7.3-5.3,10.1c-2.3,2.8-5.1,4.9-8.4,6.4
		c-3.3,1.5-7,2.3-11.1,2.3c-4.1,0-7.9-0.8-11.1-2.3c-3.3-1.5-6.1-3.6-8.4-6.4c-2.3-2.8-4.1-6.2-5.3-10.1c-1.2-4-1.8-8.4-1.8-13.2
		c0-4.9,0.6-9.4,1.8-13.3c1.2-4,3-7.3,5.3-10.1c2.3-2.8,5.1-4.9,8.4-6.4c3.3-1.5,7-2.3,11.1-2.3c4.1,0,7.9,0.8,11.1,2.3
		c3.3,1.5,6.1,3.6,8.4,6.4c2.3,2.8,4.1,6.2,5.3,10.1C726.8,282.4,727.4,286.8,727.4,291.8z M700.7,315.2c3,0,5.6-0.6,7.8-1.8
		c2.2-1.2,4-2.9,5.4-5c1.4-2.1,2.4-4.6,3.1-7.5c0.7-2.8,1-5.9,1-9.1c0-3.2-0.3-6.3-1-9.1s-1.7-5.3-3.1-7.5c-1.4-2.1-3.2-3.8-5.4-5
		c-2.2-1.2-4.8-1.8-7.8-1.8s-5.6,0.6-7.8,1.8c-2.2,1.2-4,2.9-5.4,5c-1.4,2.1-2.4,4.6-3.1,7.5c-0.7,2.8-1,5.9-1,9.1
		c0,3.2,0.3,6.3,1,9.1c0.7,2.8,1.7,5.3,3.1,7.5c1.4,2.1,3.2,3.8,5.4,5C695.1,314.6,697.7,315.2,700.7,315.2z"/>
	<path fill="#595758" d="M785,291.8c0,4.9-0.6,9.3-1.8,13.2c-1.2,4-3,7.3-5.3,10.1c-2.3,2.8-5.1,4.9-8.4,6.4
		c-3.3,1.5-7,2.3-11.1,2.3c-4.1,0-7.9-0.8-11.1-2.3c-3.3-1.5-6.1-3.6-8.4-6.4c-2.3-2.8-4.1-6.2-5.3-10.1c-1.2-4-1.8-8.4-1.8-13.2
		c0-4.9,0.6-9.4,1.8-13.3c1.2-4,3-7.3,5.3-10.1c2.3-2.8,5.1-4.9,8.4-6.4c3.3-1.5,7-2.3,11.1-2.3c4.1,0,7.9,0.8,11.1,2.3
		c3.3,1.5,6.1,3.6,8.4,6.4c2.3,2.8,4.1,6.2,5.3,10.1C784.4,282.4,785,286.8,785,291.8z M758.3,315.2c3,0,5.6-0.6,7.8-1.8
		c2.2-1.2,4-2.9,5.4-5c1.4-2.1,2.4-4.6,3.1-7.5c0.7-2.8,1-5.9,1-9.1c0-3.2-0.3-6.3-1-9.1s-1.7-5.3-3.1-7.5c-1.4-2.1-3.2-3.8-5.4-5
		c-2.2-1.2-4.8-1.8-7.8-1.8c-3,0-5.6,0.6-7.8,1.8c-2.2,1.2-4,2.9-5.4,5s-2.4,4.6-3.1,7.5c-0.7,2.8-1,5.9-1,9.1c0,3.2,0.3,6.3,1,9.1
		c0.7,2.8,1.7,5.3,3.1,7.5c1.4,2.1,3.2,3.8,5.4,5C752.7,314.6,755.3,315.2,758.3,315.2z"/>
	<path fill="#595758" d="M810.3,282.3c2.9,0,5.6,0.5,8.1,1.6c2.5,1.1,4.7,2.6,6.6,4.5c1.9,1.9,3.4,4.1,4.5,6.6
		c1.1,2.5,1.6,5.2,1.6,8.1c0,2.9-0.5,5.6-1.6,8.1c-1.1,2.5-2.6,4.7-4.5,6.6c-1.9,1.9-4.1,3.4-6.6,4.5c-2.5,1.1-5.2,1.6-8.1,1.6
		c-2.8,0-5.4-0.5-7.9-1.5c-2.5-1-4.6-2.4-6.5-4.2c-1.9-1.8-3.4-3.9-4.6-6.3c-1.1-2.4-1.8-5-1.9-7.8c-0.1-2.2-0.2-4.4-0.1-6.7
		c0-2.2,0.3-4.5,0.8-6.8c0.8-4.7,2.4-9.1,4.8-13.3c1.2-2.1,2.6-4.1,4.1-5.9c1.5-1.8,3.3-3.5,5.2-5c1-0.8,1.9-1.5,2.9-2.2
		c1-0.7,2-1.3,3.1-1.8c0.5-0.3,1.1-0.6,1.6-0.8c0.5-0.2,1.1-0.5,1.7-0.7c0.6-0.2,1.2-0.5,1.8-0.7c0.6-0.2,1.2-0.4,1.9-0.5l1.9,9.2
		c-0.4,0.1-0.7,0.2-1.1,0.3c-0.4,0.1-0.8,0.2-1.2,0.3c-0.5,0.1-0.9,0.3-1.3,0.4c-0.4,0.2-0.8,0.4-1.2,0.5c-0.8,0.4-1.7,0.9-2.4,1.3
		c-0.8,0.4-1.5,0.9-2.3,1.5c-0.7,0.5-1.4,1.1-2.1,1.8c-0.7,0.6-1.3,1.3-1.9,1.9c-0.7,0.7-1.2,1.4-1.8,2.1c-0.5,0.8-1,1.5-1.5,2.3
		c-0.1,0.3-0.3,0.6-0.4,0.8c-0.2,0.2-0.3,0.5-0.4,0.8l0.8,0.9C804.7,282.8,807.3,282.3,810.3,282.3z M810.2,315.1
		c1.6,0,3-0.3,4.4-0.9c1.4-0.6,2.6-1.5,3.6-2.6c1-1.1,1.9-2.3,2.5-3.8c0.6-1.4,0.9-3,0.9-4.6c0-1.7-0.3-3.3-0.9-4.7
		c-0.6-1.4-1.4-2.7-2.5-3.8c-1.1-1.1-2.3-1.9-3.6-2.6c-1.4-0.6-2.9-0.9-4.4-0.9c-1.6,0-3,0.3-4.4,0.9c-1.4,0.6-2.6,1.5-3.6,2.6
		c-1,1.1-1.8,2.3-2.4,3.8c-0.6,1.4-0.9,3-0.9,4.7c0,1.6,0.3,3.2,0.9,4.6c0.6,1.4,1.4,2.7,2.4,3.8c1,1.1,2.2,1.9,3.6,2.6
		C807.2,314.8,808.7,315.1,810.2,315.1z"/>
</g>
</svg>
