<svg xmlns="http://www.w3.org/2000/svg" viewBox="0 0 841.9 595.3"><g fill="#595758"><path d="M376.3 233.7c-16.7-17.1-39-26.4-62.7-26.4s-46 9.4-62.7 26.4-25.9 39.8-25.9 63.8c0 24.1 9.2 46.7 25.9 63.8 16.7 17.1 39 26.4 62.7 26.4s46-9.4 62.7-26.4c16.7-17.1 25.9-39.8 25.9-63.8 0-24.1-9.1-46.7-25.9-63.8zm-.2 127.5c-16.7 17.1-38.9 26.3-62.6 26.3s-45.9-9.4-62.6-26.3c-16.7-17.1-25.9-39.6-25.9-63.7 0-24 9.2-46.6 25.9-63.7 16.8-16.9 38.9-26.3 62.6-26.3 23.7 0 45.9 9.4 62.6 26.3 16.7 17.1 25.9 39.6 25.9 63.7 0 24-9.2 46.6-25.9 63.7z"/><path d="M368.8 241.3c-14.8-15-34.3-23.3-55.2-23.3s-40.5 8.3-55.2 23.3c-10.9 11-18.1 24.9-21.3 39.9-1 1.2-1.8 2.5-2.5 3.8-1.8 3.5-2.8 7.7-2.8 12.4 0 3 .5 5.9 1.3 8.6.8 2.4 2 4.7 3.7 7 3 15.4 10.3 29.5 21.4 40.8 14.8 15 34.3 23.3 55.2 23.3 20.9 0 40.5-8.3 55.2-23.3 14.8-15 22.9-35.1 22.9-56.3.3-21.2-7.9-41.2-22.7-56.2zm-.7 111.8c-14.5 14.9-34 23.1-54.5 23.1-20.7 0-40-8.2-54.5-23.1-10.4-10.7-17.5-23.9-20.7-38.2 1.6 1.8 3.4 3.4 5.4 4.7 2.2 1.3 4.3 2.4 6.7 3.2 3.4 8.8 8.5 16.7 15.1 23.5 12.9 13.1 29.8 20.2 47.9 20.2 18.1 0 35.2-7.2 47.9-20.2 12.9-13.1 19.8-30.4 19.8-48.8 0-3.4-.2-6.7-.7-10l5.5-16h-9.7c-3.4-8.4-8.4-16.2-14.9-22.8-12.9-13.1-29.8-20.2-47.9-20.2-18.1 0-35.2 7.2-47.9 20.2-6.6 6.7-11.8 14.7-15.1 23.3-3.2 1-6.1 2.3-8.8 4.3-1.2.8-2.3 1.9-3.2 3 3.2-14.1 10.2-26.9 20.5-37.4 14.5-15 33.9-23.2 54.5-23.2s40 8.2 54.5 23.1 22.6 34.6 22.6 55.5c.2 21.2-7.8 40.9-22.5 55.8zM261.3 282c1.7.4 3.4 1 5 1.9.6.4 1.2.7 1.7 1.2-1.1 4-1.6 8-1.6 12.3 0 4.2.5 8.2 1.6 12.1-.5.4-.8.7-1.3 1.1-1.6 1.2-3.4 1.9-5.3 2.3-1.4-4.9-2.2-10.2-2.2-15.5 0-5.2.7-10.3 2.1-15.4zm52.3 53c19.2 0 35.1-15.1 36.6-34.2l4 11.5c-6 16.9-21.9 29.2-40.6 29.2-16.6 0-30.9-9.6-38.1-23.5 1.7-1.4 3.2-3.1 4.7-4.9 5.6 12.8 18.5 21.9 33.4 21.9zm-31.7-37.5c0-17.8 14.2-32.2 31.7-32.2 17.4 0 31.7 14.4 31.7 32.2s-14.2 32.2-31.7 32.2c-17.4.1-31.7-14.4-31.7-32.2zm58.3-25.9l.1.4c-6.7-7.2-16.2-11.8-26.8-11.8-14.8 0-27.6 9-33.4 21.9-1.3-1.9-2.9-3.6-4.7-4.9 7.2-13.9 21.6-23.4 38.1-23.4 14.2 0 26.8 7 34.6 17.8h-7.9zm-68.7 18.1l7.2-4.1c-1.2 3.7-1.9 7.7-1.9 11.9 0 4.1.6 7.9 1.8 11.6l-7.1-4c-.1.1-.2.4-.4.5-.5-2.6-.7-5.4-.7-8.2 0-2.9.2-5.6.8-8.3.2.4.3.5.3.6zm.6 30.5c7.9 15 23.5 25.2 41.4 25.2 18.7 0 34.9-11.2 42.5-27.4l1.8 5.2h3.8c-2.5 4.9-5.8 9.4-9.7 13.5-10.3 10.4-23.9 16.2-38.4 16.2s-28.2-5.8-38.4-16.2c-4-4.1-7.2-8.6-9.8-13.6 1.1-.2 2.2-.6 3.2-1.1 1.2-.5 2.4-1.1 3.6-1.8zm88.6-22.8c-.1-26.3-21.1-47.8-47.1-47.8-17.9 0-33.5 10.2-41.4 25.2-2.2-1.3-4.4-2.3-6.8-2.9 2.5-4.9 5.8-9.5 9.7-13.6 10.3-10.4 23.9-16.2 38.4-16.2s28.2 5.8 38.4 16.2c8.8 9 14.2 20.5 15.6 32.9l-3.8 11.2h-1.3l-1.7-5zm-98.5 26.3c2.8 5.5 6.4 10.7 10.8 15.1 10.8 11 25.3 17.2 40.6 17.2 15.4 0 29.8-6.1 40.6-17.2 4.6-4.7 8.2-9.8 10.9-15.6h3.2L379 292c.1 1.8.2 3.6.2 5.4 0 17.9-6.8 34.7-19.2 47.3-12.4 12.6-28.9 19.6-46.5 19.6-17.5 0-34.1-7-46.5-19.6-6.1-6.2-10.9-13.5-14.2-21.4 1 .2 1.9.4 2.9.5 1.4.1 2.9.1 4.4 0 .8.1 1.5 0 2.1-.1zm107.6-38.6c-2.3-10.9-7.7-20.9-15.6-28.9-10.8-11-25.3-17.2-40.6-17.2-15.4 0-29.8 6.1-40.6 17.2-4.4 4.4-8 9.6-10.7 15-3.1-.5-6.2-.4-9.2.2 3.2-7.8 8-15 14.1-21.3 12.4-12.6 28.9-19.6 46.5-19.6s34.1 7 46.5 19.6c6.2 6.2 10.9 13.6 14.3 21.6l-4.7 13.4zm-117.7-1.9c2-.8 4.1-1.3 6.1-1.3-1.3 5-2.2 10.3-2.2 15.7s.7 10.7 2.2 15.9c-1.8 0-3.5-.4-5.2-1-1.6-.6-3-1.6-4.2-2.6-.7-4-1.1-8-1.1-12.1 0-4.2.4-8.4 1.1-12.4 1.1-1.1 2.1-1.7 3.3-2.2zm-5.8 23.7c-.6-1-1.2-1.9-1.7-3.1-.8-2-1.3-4.1-1.4-6.4 0-3.5 1-6.7 2.9-9.5.1-.1.1-.2.2-.4-.5 3.2-.7 6.6-.7 10 .1 3.1.4 6.3.7 9.4z"/></g><path fill="#595758" d="M313.6 270.9c3.7 0 7.1.7 10.3 2 3.2 1.4 6 3.2 8.4 5.8 2.4 2.4 4.3 5.2 5.8 8.4 1.4 3.2 2 6.6 2 10.3 0 3.7-.7 7.1-2 10.3-1.4 3.2-3.2 6-5.8 8.4-2.4 2.4-5.2 4.3-8.4 5.8s-6.6 2-10.3 2-7.1-.7-10.3-2c-3.2-1.4-6-3.2-8.4-5.8-2.4-2.4-4.3-5.2-5.8-8.4-1.4-3.2-2-6.6-2-10.3 0-3.7.7-7.1 2-10.3 1.4-3.2 3.2-6 5.8-8.4 2.4-2.4 5.2-4.3 8.4-5.8 3.1-1.3 6.6-2 10.3-2zm0 42.5c2.2 0 4.1-.4 5.9-1.2 1.8-.8 3.5-1.9 4.8-3.4 1.3-1.4 2.4-3.1 3.2-5s1.2-4.1 1.2-6.2-.4-4.2-1.2-6.1-1.9-3.6-3.2-5c-1.3-1.4-3-2.5-4.8-3.4-1.8-.8-3.8-1.2-5.9-1.2-2.2 0-4.1.4-5.9 1.2-1.8.8-3.5 1.9-4.8 3.4-1.3 1.4-2.4 3.1-3.2 5-.8 1.9-1.2 4-1.2 6.1s.4 4.2 1.2 6.2c.8 1.9 1.9 3.6 3.2 5 1.3 1.4 3 2.5 4.8 3.4 1.7.7 3.7 1.2 5.9 1.2z"/><path fill="none" d="M368.1 242c-14.5-14.9-33.9-23.1-54.5-23.1-20.7 0-40 8.2-54.5 23.1-14.5 14.9-22.6 34.6-22.6 55.5 0 21 8 40.7 22.6 55.5 14.5 14.9 34 23.1 54.5 23.1 20.7 0 40-8.2 54.5-23.1s22.6-34.6 22.6-55.5c.1-21-7.9-40.7-22.6-55.5zm-6.6 104.4c-12.9 13.1-29.8 20.2-47.9 20.2-18.1 0-35.2-7.2-47.9-20.2-12.9-13.1-19.8-30.4-19.8-48.8 0-18.5 7.1-35.8 19.8-48.8 12.9-13.1 29.8-20.2 47.9-20.2s35.2 7.2 47.9 20.2c12.9 13.1 19.8 30.4 19.8 48.8.1 18.4-7 35.7-19.8 48.8z"/><path fill="none" d="M313.6 265.3c-17.4 0-31.7 14.4-31.7 32.2 0 17.8 14.2 32.2 31.7 32.2 17.4 0 31.7-14.4 31.7-32.2 0-17.8-14.3-32.2-31.7-32.2zm0 59.1c-14.5 0-26.4-12-26.4-26.9s11.9-26.9 26.4-26.9 26.4 12 26.4 26.9-11.9 26.9-26.4 26.9z"/><path fill="none" d="M360.1 250.2c-12.4-12.6-28.9-19.6-46.5-19.6-17.5 0-34.1 7-46.5 19.6-12.4 12.6-19.2 29.4-19.2 47.3s6.8 34.7 19.2 47.3c12.4 12.6 28.9 19.6 46.5 19.6s34.1-7 46.5-19.6c12.4-12.6 19.2-29.4 19.2-47.3.1-17.9-6.8-34.7-19.2-47.3zm-5.9 88.8c-10.8 11-25.3 17.2-40.6 17.2-15.4 0-29.8-6.1-40.6-17.2-10.8-11-16.8-25.7-16.8-41.3s6-30.3 16.8-41.3c10.8-11 25.3-17.2 40.6-17.2 15.4 0 29.8 6.1 40.6 17.2 10.8 11 16.8 25.7 16.8 41.3.1 15.4-5.9 30.2-16.8 41.3z"/><path fill="none" d="M352 258.4c-10.3-10.4-23.9-16.2-38.4-16.2s-28.2 5.8-38.4 16.2c-10.3 10.4-16 24.4-16 39.2 0 14.8 5.6 28.7 16 39.2 10.3 10.4 23.9 16.2 38.4 16.2s28.2-5.8 38.4-16.2c10.3-10.4 16-24.4 16-39.2s-5.7-28.8-16-39.2zm-38.4 87c-25.9 0-47.1-21.5-47.1-47.9s21.1-47.9 47.1-47.9 47.1 21.5 47.1 47.9-21.2 47.9-47.1 47.9z"/><path fill="none" d="M376.1 233.9c-16.7-17.1-38.9-26.3-62.6-26.3s-45.9 9.4-62.6 26.3C234.2 251 225 273.5 225 297.6s9.2 46.6 25.9 63.7 38.9 26.3 62.6 26.3c23.7 0 45.9-9.4 62.6-26.3 16.7-17.1 25.9-39.6 25.9-63.7s-9.2-46.7-25.9-63.7zm-7.3 119.9c-14.8 15-34.3 23.3-55.2 23.3s-40.5-8.3-55.2-23.3c-14.8-15-22.9-35.1-22.9-56.3 0-21.3 8.2-41.2 22.9-56.3 14.8-15 34.3-23.3 55.2-23.3s40.5 8.3 55.2 23.3c14.8 15 22.9 35.1 22.9 56.3.1 21.3-8.1 41.3-22.9 56.3z"/><path fill="none" d="M313.6 253.7c-23.8 0-43 19.7-43 43.8 0 24.1 19.3 43.8 43 43.8 23.8 0 43-19.7 43-43.8 0-24.1-19.2-43.8-43-43.8zm0 81.3c-20.3 0-36.8-16.8-36.8-37.4 0-20.7 16.5-37.4 36.8-37.4 20.3 0 36.8 16.8 36.8 37.4S333.9 335 313.6 335z"/><path fill="#595758" d="M58 252.4v71H47.6l-1.4-2.9c-1.2.7-2.6 1.3-4.3 1.8-2.3.7-4.6 1-6.7 1-2.3 0-4.7-.4-6.8-1-2.2-.7-4.2-1.7-6.2-2.9-1.9-1.3-3.6-2.9-5-4.7-1.4-1.8-2.6-3.8-3.5-6-.4-1.1-.7-2-1-2.9-.2-1-.4-2.2-.6-3.8v-57.8H24V301c0 1.6.4 3.2 1.2 4.8.8 1.7 1.9 3 3.4 4.1 1.9 1.6 4.1 2.3 6.6 2.3 1.6 0 2.9-.2 4.2-1 1.3-.6 2.5-1.4 3.5-2.5s1.8-2.3 2.4-3.7c.6-1.4 1-2.9 1.1-4.4v-56.3H58v8.1zM108.2 323.3H96.8v-5.2-6.4-8.6V291v-.7c0-.2 0-.6-.1-.8-.4-1.1-.6-2-1-2.9-1.1-1.9-2.5-3.4-4.4-4.3-1-.4-1.9-.6-3-.8-1.1-.2-2.2-.1-3.2 0-2.3.5-4.2 1.6-5.8 3.2-.8.8-1.6 1.9-2 3.2-.6 1.3-.8 2.6-.8 4v31.2H65v-51.5h11.4l2.3 1.6c.6-.2 1.2-.6 1.9-.8.6-.2 1.3-.5 1.9-.6 2-.7 4.2-1 6.6-.8s4.7.6 6.7 1.4c1.9.7 3.8 1.9 5.6 3.5 1.7 1.6 3.1 3.4 4.3 5.3.8 1.4 1.4 3 1.9 4.7.5 1.7.7 3.4.7 5.2v32.4h-.1zM164.3 244.2v79.1h-11.4v-.1l-2.3-2.3c-.4.1-.7.4-1 .5-.4.1-.6.4-1 .5-3 1.3-6.4 2.2-10.1 2.3-3.6 0-7-.7-10.2-2-3.4-1.3-6.1-3.4-8.6-5.9-1.3-1.2-2.4-2.5-3.4-4-1-1.4-1.8-3-2.4-4.6-1.2-3.1-1.8-6.5-1.9-10 0-3.5.6-7 1.9-10.3.6-1.6 1.4-3.1 2.4-4.6 1-1.4 2.2-2.8 3.4-4.1 2.4-2.5 5.3-4.6 8.6-5.9 3.1-1.3 6.6-2 10.2-2 3.7.1 7.1 1 10.1 2.3.8.4 1.6.6 2.3 1.1.7.4 1.3.8 2 1.3v-31.3h11.4zM138.5 313c1.9.1 3.8-.2 5.8-1.1 1.9-.8 3.6-1.9 5.2-3.4 1.4-1.4 2.6-3.1 3.5-5 .7-1.8 1.1-3.8 1.1-6.1s-.4-4.3-1.1-6.1c-1-1.9-2-3.6-3.5-5-1.6-1.4-3.2-2.5-5.2-3.2-1.9-.7-3.8-1.1-5.8-1.1-1.1.1-2 .2-3 .4s-1.9.5-2.8.8c-1.8.8-3.5 2-4.8 3.5-.7.7-1.4 1.4-1.9 2.3-.5.8-1 1.8-1.3 2.6-.1.5-.4 1-.5 1.4-.1.5-.2 1-.4 1.4-.4 2.3-.2 4.7.4 7.3.6 2.6 1.9 4.8 3.7 6.6 1.4 1.6 3 2.6 4.8 3.5 1.9.9 3.9 1.2 5.8 1.2zM183 323.3h-11.4v-51.8H183v51.8zM209.1 324.1c-2.6 0-5.2-.5-7.4-1.3-2.3-.8-4.3-2-6.1-3.6-1.7-1.6-3.1-3.4-4.1-5.4-1-2-1.4-4.2-1.4-6.6h11.2c0 1.4.7 2.8 2.3 4 1.6 1.2 3.4 1.8 5.6 1.8 2.2 0 4-.6 5.5-1.8 1.6-1.2 2.3-2.5 2.3-4.1 0-1.1-.5-2-1.3-3s-2.2-1.7-3.6-2l-8.2-2.4c-3.5-1.1-6.2-2.9-8.4-5.4s-3.1-5.4-3.1-8.6c0-2 .5-4 1.3-5.8.8-1.8 2-3.4 3.6-4.7s3.4-2.4 5.4-3.1c2-.8 4.2-1.2 6.6-1.2 4.8 0 8.9 1.6 12.3 4.8l-7.8 8.2c-.5-.5-1.2-1-1.9-1.4-.8-.4-1.6-.6-2.4-.6-1.7 0-3 .4-4 1.2-1 .8-1.6 1.7-1.6 2.8 0 .7.2 1.3 1 2 .6.7 1.4 1.2 2.5 1.4l8.2 2.4c4 1.1 7.1 3.1 9.5 6 2.4 2.9 3.6 6.1 3.6 9.7 0 2.3-.5 4.6-1.4 6.6-1 2-2.3 3.8-4.1 5.4-1.7 1.6-3.7 2.8-6 3.6-2.9.7-5.5 1.1-8.1 1.1zM467.7 271.6c.6.1 1.2.1 1.7.1s1.1.1 1.7.2l-3.1 10.6c-.5-.1-.8-.2-1.1-.2-1.2-.1-2.3-.1-3.1.1-2.2.4-4.1 1.4-5.8 3.1-.4.5-.7 1-1.1 1.3-.4.5-.6 1-.8 1.6-.1.4-.4 1.1-.6 2-.2 1-.4 1.9-.4 2.9v29.8h-11.4v-51.5h11.4l2.4 2.3c.6-.4 1.2-.6 1.8-.8s1.2-.5 1.9-.6c1.1-.2 2.2-.5 3.2-.7 1-.3 2.1-.3 3.3-.2zM520 299.6h-37.2l-1.1 1c.1.5.2 1.1.4 1.6.1.5.2 1 .5 1.6.6 1.6 1.4 3 2.6 4.4 1.2 1.3 2.5 2.4 4 3.2 1.7 1 3.2 1.6 4.8 1.8.5.1 1 .1 1.3.1h2.5c.5 0 .8-.1 1.2-.1 1.7-.4 3.4-1 4.8-1.9.7-.5 1.4-1 2-1.6s1.2-1.2 1.8-1.9l8.6 7.6c-1.9 2.2-4.3 4-7 5.4-1.8 1.1-3.8 1.9-5.9 2.4-2.2.6-4.4.8-6.8.8-2.9 0-5.8-.5-8.6-1.3-1.3-.5-2.8-1-4.1-1.7-2.6-1.4-5-3.2-7.1-5.4-2-2.2-3.7-4.7-4.8-7.4-1.1-2.8-1.8-5.5-2.2-8.5-.4-2.9-.1-5.9.5-8.6.6-2.9 1.7-5.5 3.2-8.2 1.6-2.5 3.7-4.8 6.5-6.7 1.3-.8 2.5-1.6 3.8-2.3 1.3-.7 2.6-1.3 4.2-1.8.4-.1 1.2-.4 2.4-.5 1.2-.2 2.6-.4 4.3-.4 1.7-.1 3.5 0 5.3.2 1.9.2 3.7.7 5.4 1.3 2.9 1.1 5.4 2.6 7.7 4.8s4.1 4.8 5.2 7.8c.2.7.6 1.4.7 2.2.2.7.4 1.4.5 2.2.1.5.1 1 .2 1.7.1.6.1 1.6.2 2.8l.2 5.4zm-28.7-17.5c-1.6.5-2.9 1.2-4 2s-2.2 1.9-3.1 3.2l.5 1.3h23.1c-.5-1.2-1.2-2.4-2.3-3.5-.6-.6-1.4-1.2-2.4-1.8s-2.2-1-3.5-1.3c-1.3-.4-2.6-.6-4.1-.6-1.4.1-2.7.3-4.2.7zM577.8 244.2v79.1h-11.4v-.1l-2.3-2.3c-.4.1-.7.4-1 .5-.4.1-.6.4-1 .5-3 1.3-6.4 2.2-10.1 2.3-3.6 0-7-.7-10.2-2-3.4-1.3-6.1-3.4-8.6-5.9-1.3-1.2-2.4-2.5-3.4-4-1-1.4-1.8-3-2.4-4.6-1.2-3.1-1.8-6.5-1.9-10 0-3.5.6-7 1.9-10.3.6-1.6 1.4-3.1 2.4-4.6 1-1.4 2.2-2.8 3.4-4.1 2.4-2.5 5.3-4.6 8.6-5.9 3.1-1.3 6.6-2 10.2-2 3.7.1 7.1 1 10.1 2.3.8.4 1.6.6 2.3 1.1.7.4 1.3.8 2 1.3v-31.3h11.4zM552.1 313c1.9.1 3.8-.2 5.8-1.1s3.6-1.9 5.2-3.4c1.4-1.4 2.6-3.1 3.5-5 .7-1.8 1.1-3.8 1.1-6.1s-.4-4.3-1.1-6.1c-1-1.9-2-3.6-3.5-5-1.6-1.4-3.2-2.5-5.2-3.2-1.9-.7-3.8-1.1-5.8-1.1-1.1.1-2 .2-3 .4s-1.9.5-2.8.8c-1.8.8-3.5 2-4.8 3.5-.7.7-1.4 1.4-1.9 2.3-.5.8-1 1.8-1.3 2.6-.1.5-.4 1-.5 1.4-.1.5-.2 1-.4 1.4-.4 2.3-.2 4.7.4 7.3.6 2.6 1.9 4.8 3.7 6.6 1.4 1.6 3 2.6 4.8 3.5 1.8.9 3.8 1.2 5.8 1.2zM183.4 254.8c0-.1-.2-.4-.4-.6-.2-.2-.5-.6-.7-.8-.1-.1-.2-.2-.5-.4-1.4-1.4-3.4-3.2-3.7-4H176.3c-.4.7-2.3 2.5-3.7 4-.1.1-.4.2-.5.4-.2.2-.5.6-.7.8-.2.2-.4.4-.4.6-.6 1.1-1 2.3-1 3.6 0 1.9.7 3.6 2 4.9 1.3 1.3 3 2 4.9 2 1.9 0 3.6-.7 4.9-2s2-3 2-4.9c.6-1.5.2-2.6-.4-3.6zM437.3 299.6H400l-1.1 1c.1.5.2 1.1.4 1.6.1.5.2 1 .5 1.6.6 1.6 1.4 3 2.6 4.4 1.2 1.3 2.5 2.4 4 3.2 1.7 1 3.2 1.6 4.8 1.8.5.1 1 .1 1.3.1h2.5c.5 0 .8-.1 1.2-.1 1.7-.4 3.4-1 4.8-1.9.7-.5 1.4-1 2-1.6s1.2-1.2 1.8-1.9l8.6 7.6c-1.9 2.2-4.3 4-7 5.4-1.8 1.1-3.8 1.9-5.9 2.4-2.2.6-4.4.8-6.8.8-2.9 0-5.8-.5-8.6-1.3-1.3-.5-2.8-1-4.1-1.7-2.6-1.4-5-3.2-7.1-5.4-2-2.2-3.7-4.7-4.8-7.4s-1.8-5.5-2.2-8.5c-.4-2.9-.1-5.9.5-8.6.6-2.9 1.7-5.5 3.2-8.2 1.6-2.5 3.7-4.8 6.5-6.7 1.3-.8 2.5-1.6 3.8-2.3 1.3-.7 2.6-1.3 4.2-1.8.4-.1 1.2-.4 2.4-.5 1.2-.2 2.6-.4 4.3-.4 1.7-.1 3.5 0 5.3.2 1.9.2 3.7.7 5.4 1.3 2.9 1.1 5.4 2.6 7.7 4.8s4.1 4.8 5.2 7.8c.2.7.6 1.4.7 2.2.2.7.4 1.4.5 2.2.1.5.1 1 .2 1.7.1.6.1 1.6.2 2.8l.3 5.4zm-28.7-17.5c-1.6.5-2.9 1.2-4 2s-2.2 1.9-3.1 3.2l.5 1.3h23c-.5-1.2-1.2-2.4-2.3-3.5-.6-.6-1.4-1.2-2.4-1.8-1-.6-2.2-1-3.5-1.3-1.3-.4-2.6-.6-4.1-.6-1.4.1-2.8.3-4.1.7z"/><linearGradient id="a" gradientUnits="userSpaceOnUse" x1="331.9" y1="583.08" x2="331.9" y2="583.08" gradientTransform="matrix(1.201 0 0 -1.201 0 913.481)"><stop offset=".153" stop-color="#FBC61C"/><stop offset=".556" stop-color="#7A600E"/><stop offset=".85" stop-color="#221B04"/><stop offset=".982"/></linearGradient><linearGradient id="b" gradientUnits="userSpaceOnUse" x1="885.261" y1="-2236.297" x2="868.499" y2="-2286.939" gradientTransform="matrix(.799 -.897 -.897 -.799 -2425.181 -767.947)"><stop offset=".692" stop-color="#FBC61C"/><stop offset=".709" stop-color="#E8B930"/><stop offset=".774" stop-color="#B1924F"/><stop offset=".835" stop-color="#887657"/><stop offset=".892" stop-color="#6E6459"/><stop offset=".943" stop-color="#5E5A58"/><stop offset=".982" stop-color="#595758"/></linearGradient><path fill="url(#b)" d="M335.1 274l3.4-3.8c-14.1-13.3-35.3-13.1-49-.7l3.2 3.8c11.9-10.7 30.5-10.8 42.4.7z"/><linearGradient id="c" gradientUnits="userSpaceOnUse" x1="896.408" y1="-2237.562" x2="880.696" y2="-2285.126" gradientTransform="matrix(.789 -.888 -.888 -.793 -2395.161 -776.552)"><stop offset=".692" stop-color="#FBC61C"/><stop offset=".709" stop-color="#E8B930"/><stop offset=".774" stop-color="#B1924F"/><stop offset=".835" stop-color="#887657"/><stop offset=".892" stop-color="#6E6459"/><stop offset=".943" stop-color="#5E5A58"/><stop offset=".982" stop-color="#595758"/></linearGradient><path fill="url(#c)" d="M308.7 207.7c14.7-.8 28.8 1.9 42 8 7.9 3.7 15.5 8.8 22.2 15l.1-.2c-17.8-16.1-39.2-24.3-64.3-23.1-19.8 1-38.1 8.8-52.7 21.4l.1.2c14.7-12.7 32.9-20.2 52.6-21.3z"/><linearGradient id="d" gradientUnits="userSpaceOnUse" x1="888.922" y1="-2235.797" x2="872.601" y2="-2285.108" gradientTransform="matrix(.799 -.897 -.897 -.799 -2425.181 -767.947)"><stop offset=".692" stop-color="#FBC61C"/><stop offset=".709" stop-color="#E8B930"/><stop offset=".774" stop-color="#B1924F"/><stop offset=".835" stop-color="#887657"/><stop offset=".892" stop-color="#6E6459"/><stop offset=".943" stop-color="#5E5A58"/><stop offset=".982" stop-color="#595758"/></linearGradient><path fill="url(#d)" d="M342.6 265.3l2.8-3c-17.8-16.8-45-16.7-62.8-.8l2.6 3.1c16.4-14.5 41.2-14.6 57.4.7z"/><linearGradient id="e" gradientUnits="userSpaceOnUse" x1="900.915" y1="-2232.218" x2="885.229" y2="-2279.609" gradientTransform="matrix(.799 -.897 -.897 -.799 -2425.181 -767.947)"><stop offset=".692" stop-color="#FBC61C"/><stop offset=".709" stop-color="#E8B930"/><stop offset=".774" stop-color="#B1924F"/><stop offset=".835" stop-color="#887657"/><stop offset=".892" stop-color="#6E6459"/><stop offset=".943" stop-color="#5E5A58"/><stop offset=".982" stop-color="#595758"/></linearGradient><path fill="url(#e)" d="M309.6 219.1c20.7-1.1 39.9 5.9 55.7 20.2l.8-.6c-16-14.7-35.7-21.7-56.8-20.7-17.7.8-33.9 7.7-46.8 19.1l.7.7c13.3-11.1 28.9-17.9 46.4-18.7z"/><linearGradient id="f" gradientUnits="userSpaceOnUse" x1="896.798" y1="-2233.663" x2="880.99" y2="-2281.421" gradientTransform="matrix(.799 -.897 -.897 -.799 -2425.181 -767.947)"><stop offset=".692" stop-color="#FBC61C"/><stop offset=".709" stop-color="#E8B930"/><stop offset=".774" stop-color="#B1924F"/><stop offset=".835" stop-color="#887657"/><stop offset=".892" stop-color="#6E6459"/><stop offset=".943" stop-color="#5E5A58"/><stop offset=".982" stop-color="#595758"/></linearGradient><path fill="url(#f)" d="M310.6 230.6c17.8-.7 33.9 5.4 47.2 17.3l1.4-1.4c-13.9-12.7-29.8-18.3-48-18-15.4.2-30.7 7-42 16.8l1.3 1.6c12-10.3 25.7-15.7 40.1-16.3z"/><linearGradient id="g" gradientUnits="userSpaceOnUse" x1="892.807" y1="-2234.801" x2="876.746" y2="-2283.327" gradientTransform="matrix(.799 -.897 -.897 -.799 -2425.181 -767.947)"><stop offset=".692" stop-color="#FBC61C"/><stop offset=".709" stop-color="#E8B930"/><stop offset=".774" stop-color="#B1924F"/><stop offset=".835" stop-color="#887657"/><stop offset=".892" stop-color="#6E6459"/><stop offset=".943" stop-color="#5E5A58"/><stop offset=".982" stop-color="#595758"/></linearGradient><path fill="url(#g)" d="M310.7 242.2c14.7-.7 28.2 4.1 39.6 14.5l1.9-2.4c-12.3-11-26.4-16-41.9-15.3-13.1.6-25 5.9-34.6 14.3l1.9 2.4c8.7-7.5 20.6-12.9 33.1-13.5z"/><g><path fill="#595758" d="M602.1 244.2h2.4v110.3h-2.4z"/><g fill="#595758"><path d="M413.5 340.2h-7.3c-.4 0-.7.4-.7.7v13.3c0 .4.4.7.7.7h.1c.4 0 .7-.4.7-.7V348h6.1c.4 0 .7-.4.7-.7 0-.4-.4-.7-.7-.7H407v-4.8h6.5c.4 0 .7-.4.7-.7 0-.7-.2-.9-.7-.9zM418.8 343.8c-2.5 0-3.8 1-3.8 2.9v5.6c0 1.9 1.3 2.9 3.8 2.9s3.8-1 3.8-2.9v-5.6c0-2-1.3-2.9-3.8-2.9zm2.3 2.7v5.6c0 .5 0 1.3-2.4 1.3s-2.4-.8-2.4-1.3v-5.6c0-.5 0-1.3 2.4-1.3s2.4 1 2.4 1.3zM431.8 343.9c-.4 0-.7.4-.7.7v7.9c-.5.4-1.4 1-2.9 1-1.2 0-1.8-.5-1.8-1.3v-7.6c0-.4-.4-.7-.8-.7s-.7.4-.7.7v7.6c0 1.8 1.2 2.9 3.2 2.9 1.2 0 2.2-.4 2.9-.7.1.4.4.6.7.6s.7-.4.7-.7v-9.5c.2-.6-.2-.9-.6-.9zM439.7 343.8c-1.2 0-2.3.4-3 .7 0-.4-.4-.6-.7-.6-.4 0-.7.4-.7.7v9.5c0 .4.4.7.8.7s.7-.4.7-.7v-7.8c.6-.5 1.6-1 3-1 1.2 0 1.8.5 1.8 1.3v7.6c0 .4.4.7.7.7h.1c.4 0 .7-.4.7-.7v-7.6c-.2-1.8-1.4-2.8-3.4-2.8zM452.2 339.8c-.4 0-.7.4-.7.7v4.1c-.7-.4-1.8-.7-3-.7-2 0-3.2 1.1-3.2 2.9v5.6c0 1.8 1.2 2.9 3.2 2.9 1.2 0 2.3-.4 3-.7 0 .4.4.6.7.6.4 0 .7-.4.7-.7v-13.7c.1-.8-.2-1-.7-1zm-5.4 6.7c0-1.1 1-1.3 1.8-1.3 1.4 0 2.4.6 3 1v6.2c-.7.5-1.7 1-3 1-.8 0-1.8-.2-1.8-1.3v-5.6zM456.3 351.9c-.4 0-.7.4-.7.7v1.4c0 .4.4.7.7.7h.1c.4 0 .7-.4.7-.7v-1.4c-.1-.3-.4-.7-.8-.7zM472.2 353.4h-6v-12.5c0-.4-.4-.7-.8-.7s-.7.4-.7.7v13.3c0 .4.4.7.7.7h6.7c.4 0 .7-.4.7-.7.1-.5-.2-.8-.6-.8zM477.9 343.8c-2.5 0-3.8 1-3.8 2.9v5.6c0 1.9 1.3 2.9 3.8 2.9s3.8-1 3.8-2.9v-5.6c.1-2-1.2-2.9-3.8-2.9zm2.4 2.7v5.6c0 .5 0 1.3-2.4 1.3s-2.4-.8-2.4-1.3v-5.6c0-.5 0-1.3 2.4-1.3s2.4 1 2.4 1.3zM490 343.9c-.4 0-.6.2-.7.5l-2.5 7.4-2.5-7.3c-.1-.4-.4-.6-.8-.6-.2 0-.5.1-.6.2l-.2.4 3.4 9.7c.1.2.2.5.5.5l.4 1.1.2-1.2c.2-.1.4-.2.4-.5l3.2-9.5.1-.4-.1-.2c-.3 0-.4-.1-.8-.1zM495.5 343.8c-2.5 0-3.8 1-3.8 2.9v5.6c0 1.9 1.3 2.9 3.8 2.9s3.8-1 3.8-2.9v-.6c0-.4-.4-.7-.8-.7s-.7.4-.7.7v.6c0 .5 0 1.3-2.4 1.3s-2.4-.8-2.4-1.3v-2.4h5.5c.4 0 .7-.4.7-.7v-2.5c.2-2-1.2-2.9-3.7-2.9zm-2.4 4.5v-1.7c0-.5 0-1.3 2.4-1.3s2.4.8 2.4 1.3v1.7h-4.8zM508.3 339.8c-.4 0-.7.4-.7.7v4.1c-.7-.4-1.8-.7-3-.7-2 0-3.2 1.1-3.2 2.9v5.6c0 1.8 1.2 2.9 3.2 2.9 1.2 0 2.3-.4 3-.7 0 .4.4.6.7.6s.7-.4.7-.7v-13.7c.1-.8-.3-1-.7-1zm-5.4 6.7c0-1.1 1-1.3 1.8-1.3 1.4 0 2.4.6 3 1v6.2c-.7.5-1.7 1-3 1-.8 0-1.8-.2-1.8-1.3v-5.6zM512.3 351.9c-.4 0-.7.4-.7.7v1.4c0 .4.4.7.7.7h.1c.4 0 .7-.4.7-.7v-1.4c0-.3-.3-.7-.8-.7zM527.1 347.1l-4-1.6c-.4-.1-1.1-.5-1.1-1.4v-1c0-.6 0-1.7 2.9-1.7s2.9 1.1 2.9 1.7v1.1c0 .4.4.7.8.7s.7-.4.7-.7v-1.1c0-2.2-1.4-3.2-4.3-3.2s-4.3 1.1-4.3 3.2v1c0 1.9 1.6 2.6 2 2.8l4 1.6c.6.2 1.2.7 1.2 1.4v1.8c0 .6 0 1.7-3 1.7-2.9 0-2.9-1.1-2.9-1.7v-1c0-.4-.4-.7-.8-.7s-.7.4-.7.7v1c0 2.2 1.4 3.2 4.4 3.2 3 0 4.4-1.1 4.4-3.2v-1.8c0-1.2-.9-2.2-2.2-2.8zM532.4 339.8c-.4 0-.7.4-.7.7v1.9c0 .4.4.7.7.7h.1c.4 0 .7-.4.7-.7v-1.9c0-.5-.3-.7-.8-.7zM532.4 343.9c-.4 0-.7.4-.7.7v9.5c0 .4.4.7.7.7h.1c.4 0 .7-.4.7-.7v-9.5c0-.4-.3-.7-.8-.7zM542.6 343.9c-.4 0-.7.2-.7.6-.7-.4-1.8-.7-3-.7-2 0-3.2 1.1-3.2 2.9v5.6c0 1.8 1.2 2.9 3.2 2.9 1.2 0 2.3-.4 3-.7v1.9c0 .5 0 1.3-2.3 1.3h-2.8c-.4 0-.7.4-.7.7 0 .4.4.7.7.7h2.6c2.6 0 3.8-1 3.8-2.9v-11.6c.1-.4-.1-.7-.6-.7zm-5.5 2.6c0-1.1 1-1.3 1.8-1.3 1.4 0 2.4.6 3 1v6.2c-.7.5-1.7 1-3 1-.8 0-1.8-.2-1.8-1.3v-5.6zM550.5 343.8c-1.2 0-2.3.4-3 .7 0-.4-.4-.6-.7-.6s-.7.4-.7.7v9.5c0 .4.4.7.8.7s.7-.4.7-.7v-7.8c.6-.5 1.6-1 3-1 1.2 0 1.8.5 1.8 1.3v7.6c0 .4.4.7.7.7h.1c.4 0 .7-.4.7-.7v-7.6c-.1-1.8-1.3-2.8-3.4-2.8zM559.9 343.8c-2.5 0-3.8 1-3.8 2.9v5.6c0 1.9 1.3 2.9 3.8 2.9s3.8-1 3.8-2.9v-.6c0-.4-.4-.7-.8-.7s-.7.4-.7.7v.6c0 .5 0 1.3-2.4 1.3s-2.4-.8-2.4-1.3v-2.4h5.5c.4 0 .7-.4.7-.7v-2.5c.1-2-1.1-2.9-3.7-2.9zm-2.4 4.5v-1.7c0-.5 0-1.3 2.4-1.3s2.4.8 2.4 1.3v1.7h-4.8zM572.6 339.8c-.4 0-.7.4-.7.7v4.1c-.7-.4-1.8-.7-3-.7-2 0-3.2 1.1-3.2 2.9v5.6c0 1.8 1.2 2.9 3.2 2.9 1.2 0 2.3-.4 3-.7 0 .4.4.6.7.6.4 0 .7-.4.7-.7v-13.7c.2-.8-.2-1-.7-1zm-5.4 6.7c0-1.1 1-1.3 1.8-1.3 1.4 0 2.4.6 3 1v6.2c-.7.5-1.7 1-3 1-.8 0-1.8-.2-1.8-1.3v-5.6zM576.7 351.9c-.4 0-.7.4-.7.7v1.4c0 .4.4.7.7.7h.1c.4 0 .7-.4.7-.7v-1.4c-.1-.3-.3-.7-.8-.7z"/></g></g><g fill="#595758"><path d="M666.7 272.1l-2.4 12h5.1v8.6h-6.9l-1.2 6h8.1v8.8h-9.9l-2.7 13.1-8.8-1.8 2.3-11.3h-8.6l-2.8 13.7-8.8-1.8 2.4-11.9h-5.2v-8.8h6.9l1.3-6h-8.2v-8.6h10l2.6-13.1 8.8 1.8-2.3 11.3h8.6l2.8-13.8 8.9 1.8zm-14.6 26.7l1.2-6h-8.6l-1.3 6h8.7zM727.4 291.8c0 4.9-.6 9.3-1.8 13.2-1.2 4-3 7.3-5.3 10.1s-5.1 4.9-8.4 6.4c-3.3 1.5-7 2.3-11.1 2.3s-7.9-.8-11.1-2.3c-3.3-1.5-6.1-3.6-8.4-6.4-2.3-2.8-4.1-6.2-5.3-10.1-1.2-4-1.8-8.4-1.8-13.2 0-4.9.6-9.4 1.8-13.3 1.2-4 3-7.3 5.3-10.1s5.1-4.9 8.4-6.4c3.3-1.5 7-2.3 11.1-2.3s7.9.8 11.1 2.3c3.3 1.5 6.1 3.6 8.4 6.4 2.3 2.8 4.1 6.2 5.3 10.1 1.2 3.9 1.8 8.3 1.8 13.3zm-26.7 23.4c3 0 5.6-.6 7.8-1.8 2.2-1.2 4-2.9 5.4-5 1.4-2.1 2.4-4.6 3.1-7.5.7-2.8 1-5.9 1-9.1 0-3.2-.3-6.3-1-9.1s-1.7-5.3-3.1-7.5c-1.4-2.1-3.2-3.8-5.4-5-2.2-1.2-4.8-1.8-7.8-1.8s-5.6.6-7.8 1.8c-2.2 1.2-4 2.9-5.4 5-1.4 2.1-2.4 4.6-3.1 7.5-.7 2.8-1 5.9-1 9.1 0 3.2.3 6.3 1 9.1s1.7 5.3 3.1 7.5c1.4 2.1 3.2 3.8 5.4 5 2.2 1.2 4.8 1.8 7.8 1.8zM785 291.8c0 4.9-.6 9.3-1.8 13.2-1.2 4-3 7.3-5.3 10.1s-5.1 4.9-8.4 6.4c-3.3 1.5-7 2.3-11.1 2.3s-7.9-.8-11.1-2.3c-3.3-1.5-6.1-3.6-8.4-6.4-2.3-2.8-4.1-6.2-5.3-10.1-1.2-4-1.8-8.4-1.8-13.2 0-4.9.6-9.4 1.8-13.3 1.2-4 3-7.3 5.3-10.1s5.1-4.9 8.4-6.4c3.3-1.5 7-2.3 11.1-2.3s7.9.8 11.1 2.3c3.3 1.5 6.1 3.6 8.4 6.4 2.3 2.8 4.1 6.2 5.3 10.1 1.2 3.9 1.8 8.3 1.8 13.3zm-26.7 23.4c3 0 5.6-.6 7.8-1.8 2.2-1.2 4-2.9 5.4-5 1.4-2.1 2.4-4.6 3.1-7.5.7-2.8 1-5.9 1-9.1 0-3.2-.3-6.3-1-9.1s-1.7-5.3-3.1-7.5c-1.4-2.1-3.2-3.8-5.4-5-2.2-1.2-4.8-1.8-7.8-1.8s-5.6.6-7.8 1.8c-2.2 1.2-4 2.9-5.4 5s-2.4 4.6-3.1 7.5c-.7 2.8-1 5.9-1 9.1 0 3.2.3 6.3 1 9.1s1.7 5.3 3.1 7.5c1.4 2.1 3.2 3.8 5.4 5 2.2 1.2 4.8 1.8 7.8 1.8zM810.3 282.3c2.9 0 5.6.5 8.1 1.6s4.7 2.6 6.6 4.5c1.9 1.9 3.4 4.1 4.5 6.6s1.6 5.2 1.6 8.1c0 2.9-.5 5.6-1.6 8.1s-2.6 4.7-4.5 6.6c-1.9 1.9-4.1 3.4-6.6 4.5s-5.2 1.6-8.1 1.6c-2.8 0-5.4-.5-7.9-1.5s-4.6-2.4-6.5-4.2c-1.9-1.8-3.4-3.9-4.6-6.3-1.1-2.4-1.8-5-1.9-7.8-.1-2.2-.2-4.4-.1-6.7 0-2.2.3-4.5.8-6.8.8-4.7 2.4-9.1 4.8-13.3 1.2-2.1 2.6-4.1 4.1-5.9 1.5-1.8 3.3-3.5 5.2-5 1-.8 1.9-1.5 2.9-2.2 1-.7 2-1.3 3.1-1.8.5-.3 1.1-.6 1.6-.8.5-.2 1.1-.5 1.7-.7.6-.2 1.2-.5 1.8-.7.6-.2 1.2-.4 1.9-.5l1.9 9.2c-.4.1-.7.2-1.1.3l-1.2.3c-.5.1-.9.3-1.3.4-.4.2-.8.4-1.2.5-.8.4-1.7.9-2.4 1.3-.8.4-1.5.9-2.3 1.5-.7.5-1.4 1.1-2.1 1.8-.7.6-1.3 1.3-1.9 1.9-.7.7-1.2 1.4-1.8 2.1-.5.8-1 1.5-1.5 2.3-.1.3-.3.6-.4.8-.2.2-.3.5-.4.8l.8.9c2.4-1 5-1.5 8-1.5zm-.1 32.8c1.6 0 3-.3 4.4-.9 1.4-.6 2.6-1.5 3.6-2.6s1.9-2.3 2.5-3.8c.6-1.4.9-3 .9-4.6 0-1.7-.3-3.3-.9-4.7-.6-1.4-1.4-2.7-2.5-3.8-1.1-1.1-2.3-1.9-3.6-2.6-1.4-.6-2.9-.9-4.4-.9-1.6 0-3 .3-4.4.9-1.4.6-2.6 1.5-3.6 2.6s-1.8 2.3-2.4 3.8c-.6 1.4-.9 3-.9 4.7 0 1.6.3 3.2.9 4.6.6 1.4 1.4 2.7 2.4 3.8 1 1.1 2.2 1.9 3.6 2.6 1.4.6 2.9.9 4.4.9z"/></g></svg>