<?xml version="1.0" encoding="utf-8"?>
<!-- Generator: Adobe Illustrator 15.1.0, SVG Export Plug-In . SVG Version: 6.00 Build 0)  -->
<!DOCTYPE svg PUBLIC "-//W3C//DTD SVG 1.1//EN" "http://www.w3.org/Graphics/SVG/1.1/DTD/svg11.dtd">
<svg version="1.1" id="Layer_1" xmlns="http://www.w3.org/2000/svg" xmlns:xlink="http://www.w3.org/1999/xlink" x="0px" y="0px"
	 width="818.973px" height="180.409px" viewBox="12.109 207.278 818.973 180.409"
	 enable-background="new 12.109 207.278 818.973 180.409" xml:space="preserve">
<g>
	<g>
		<path fill="#595758" d="M376.296,233.692c-16.699-17.1-38.999-26.399-62.698-26.399s-45.998,9.4-62.697,26.399
			c-16.699,17-25.899,39.799-25.899,63.798c0,24.1,9.2,46.699,25.899,63.798c16.699,17.1,38.998,26.399,62.697,26.399
			s45.999-9.399,62.698-26.399c16.699-17.099,25.899-39.798,25.899-63.798C402.196,273.391,393.096,250.792,376.296,233.692z
			 M376.096,361.188c-16.699,17.1-38.898,26.299-62.598,26.299s-45.898-9.399-62.598-26.299
			c-16.699-17.1-25.899-39.599-25.899-63.698c0-23.999,9.2-46.599,25.899-63.697c16.799-16.899,38.898-26.3,62.598-26.3
			s45.898,9.4,62.598,26.3c16.7,17.099,25.899,39.599,25.899,63.697C401.995,321.49,392.796,344.089,376.096,361.188z"/>
		<path fill="#595758" d="M368.796,241.292c-14.799-14.999-34.299-23.299-55.198-23.299c-20.898,0-40.498,8.3-55.198,23.299
			c-10.899,11-18.099,24.899-21.299,39.899c-1,1.199-1.8,2.499-2.5,3.8c-1.8,3.499-2.8,7.699-2.8,12.399c0,3,0.5,5.899,1.3,8.6
			c0.8,2.4,2,4.7,3.7,7c3,15.399,10.3,29.499,21.399,40.799c14.799,14.999,34.299,23.299,55.198,23.299s40.498-8.3,55.198-23.299
			c14.799-15,22.898-35.1,22.898-56.299C391.796,276.291,383.596,256.292,368.796,241.292z M368.097,353.089
			c-14.5,14.899-33.999,23.1-54.499,23.1c-20.699,0-39.998-8.2-54.498-23.1c-10.399-10.7-17.499-23.899-20.699-38.199
			c1.601,1.801,3.4,3.4,5.4,4.7c2.199,1.3,4.3,2.4,6.699,3.2c3.4,8.8,8.5,16.699,15.1,23.499
			c12.899,13.1,29.799,20.199,47.898,20.199s35.199-7.199,47.898-20.199c12.899-13.1,19.8-30.399,19.8-48.799
			c0-3.399-0.2-6.699-0.7-9.999l5.5-16h-9.7c-3.399-8.399-8.399-16.199-14.899-22.799c-12.899-13.1-29.799-20.199-47.898-20.199
			s-35.199,7.199-47.898,20.199c-6.6,6.699-11.8,14.699-15.1,23.299c-3.2,1-6.1,2.3-8.8,4.3c-1.199,0.8-2.3,1.9-3.199,3
			c3.199-14.1,10.199-26.899,20.499-37.398c14.499-15,33.898-23.199,54.498-23.199s39.999,8.199,54.498,23.099
			c14.5,14.899,22.6,34.6,22.6,55.498C390.796,318.49,382.796,338.189,368.097,353.089z M261.3,281.991c1.7,0.399,3.4,1,5,1.899
			c0.6,0.4,1.2,0.7,1.7,1.2c-1.101,4-1.601,8-1.601,12.3c0,4.199,0.5,8.199,1.601,12.1c-0.5,0.4-0.801,0.7-1.301,1.1
			c-1.6,1.2-3.399,1.9-5.3,2.3C260,307.99,259.2,302.69,259.2,297.39C259.2,292.19,259.9,287.091,261.3,281.991z M313.598,334.989
			c19.2,0,35.1-15.1,36.6-34.199l3.999,11.5c-5.999,16.899-21.898,29.199-40.599,29.199c-16.599,0-30.898-9.6-38.099-23.499
			c1.7-1.4,3.2-3.101,4.7-4.9C285.799,325.889,298.698,334.989,313.598,334.989z M281.9,297.49
			c0-17.799,14.199-32.199,31.698-32.199c17.399,0,31.699,14.4,31.699,32.199c0,17.8-14.199,32.199-31.699,32.199
			C296.198,329.789,281.9,315.29,281.9,297.49z M340.198,271.591l0.1,0.4c-6.699-7.2-16.199-11.8-26.799-11.8
			c-14.8,0-27.599,9-33.398,21.899c-1.301-1.899-2.9-3.6-4.7-4.899c7.2-13.899,21.6-23.399,38.099-23.399
			c14.199,0,26.799,7,34.599,17.799H340.198L340.198,271.591L340.198,271.591z M271.499,289.69l7.2-4.1
			c-1.2,3.7-1.899,7.7-1.899,11.899c0,4.1,0.6,7.899,1.8,11.6l-7.101-4c-0.1,0.101-0.199,0.4-0.399,0.5
			c-0.5-2.6-0.7-5.399-0.7-8.199c0-2.9,0.2-5.6,0.8-8.3C271.4,289.49,271.499,289.591,271.499,289.69z M272.1,320.189
			c7.899,15,23.499,25.199,41.398,25.199c18.699,0,34.898-11.199,42.499-27.398l1.8,5.199h3.8c-2.5,4.9-5.8,9.4-9.7,13.5
			c-10.3,10.399-23.898,16.199-38.398,16.199c-14.499,0-28.199-5.8-38.398-16.199c-4-4.1-7.2-8.6-9.8-13.6c1.1-0.2,2.2-0.6,3.2-1.1
			C269.699,321.49,270.9,320.889,272.1,320.189z M360.697,297.39c-0.1-26.3-21.099-47.799-47.099-47.799
			c-17.899,0-33.498,10.2-41.398,25.199c-2.199-1.3-4.399-2.3-6.8-2.899c2.5-4.9,5.8-9.5,9.7-13.6
			c10.3-10.4,23.899-16.2,38.398-16.2c14.5,0,28.199,5.8,38.398,16.2c8.8,8.999,14.2,20.499,15.6,32.898l-3.8,11.2h-1.3
			L360.697,297.39z M262.2,323.689c2.8,5.5,6.399,10.7,10.799,15.1c10.8,11,25.3,17.199,40.599,17.199
			c15.4,0,29.8-6.1,40.599-17.199c4.601-4.699,8.2-9.8,10.9-15.6h3.199l10.7-31.199c0.1,1.8,0.2,3.601,0.2,5.4
			c0,17.899-6.8,34.699-19.2,47.299c-12.399,12.6-28.898,19.599-46.498,19.599c-17.499,0-34.099-6.999-46.498-19.599
			c-6.101-6.2-10.9-13.5-14.2-21.399c1,0.2,1.9,0.399,2.9,0.5c1.399,0.1,2.899,0.1,4.399,0
			C260.9,323.889,261.6,323.79,262.2,323.689z M369.796,285.091c-2.3-10.899-7.699-20.899-15.6-28.899
			c-10.799-10.999-25.299-17.199-40.599-17.199c-15.399,0-29.799,6.1-40.599,17.199c-4.399,4.4-7.999,9.6-10.699,15
			c-3.1-0.5-6.2-0.4-9.2,0.2c3.2-7.8,8-15,14.1-21.3c12.4-12.6,28.899-19.6,46.499-19.6s34.099,7,46.498,19.6
			c6.2,6.2,10.899,13.6,14.3,21.6L369.796,285.091z M252.101,283.19c1.999-0.8,4.1-1.3,6.1-1.3c-1.3,5-2.2,10.3-2.2,15.7
			c0,5.399,0.7,10.699,2.2,15.899c-1.8,0-3.5-0.4-5.2-1c-1.6-0.6-3-1.6-4.2-2.6c-0.699-4-1.1-8-1.1-12.101
			c0-4.199,0.4-8.399,1.1-12.399C249.901,284.291,250.901,283.69,252.101,283.19z M246.301,306.89c-0.601-1.001-1.2-1.9-1.7-3.101
			c-0.8-2-1.3-4.1-1.4-6.399c0-3.5,1-6.7,2.9-9.5c0.1-0.1,0.1-0.2,0.2-0.399c-0.5,3.199-0.7,6.6-0.7,9.999
			C245.7,300.59,246,303.79,246.301,306.89z"/>
	</g>
	<path fill="#595758" d="M313.598,270.891c3.7,0,7.101,0.699,10.3,2c3.2,1.399,6,3.199,8.4,5.8c2.399,2.399,4.3,5.199,5.8,8.399
		c1.399,3.2,2,6.6,2,10.3c0,3.699-0.7,7.1-2,10.3c-1.4,3.2-3.2,6-5.8,8.399c-2.4,2.4-5.2,4.3-8.4,5.8c-3.199,1.5-6.6,2-10.3,2
		c-3.699,0-7.1-0.7-10.299-2c-3.2-1.399-6-3.2-8.4-5.8c-2.399-2.399-4.3-5.2-5.8-8.399c-1.399-3.2-2-6.601-2-10.3
		c0-3.7,0.7-7.1,2-10.3c1.4-3.2,3.2-6,5.8-8.399c2.4-2.4,5.2-4.3,8.4-5.8C306.399,271.591,309.899,270.891,313.598,270.891z
		 M313.598,313.389c2.2,0,4.101-0.399,5.9-1.199s3.5-1.9,4.8-3.4c1.3-1.399,2.399-3.1,3.2-5c0.8-1.899,1.199-4.1,1.199-6.199
		c0-2.101-0.399-4.2-1.199-6.101c-0.801-1.899-1.9-3.6-3.2-4.999c-1.3-1.4-3-2.5-4.8-3.4c-1.8-0.8-3.8-1.2-5.9-1.2
		c-2.199,0-4.1,0.4-5.899,1.2s-3.5,1.9-4.8,3.4c-1.3,1.399-2.399,3.1-3.2,4.999c-0.8,1.9-1.199,4-1.199,6.101
		c0,2.1,0.399,4.199,1.199,6.199c0.801,1.9,1.9,3.601,3.2,5c1.3,1.4,3,2.5,4.8,3.4C309.399,312.889,311.399,313.389,313.598,313.389
		z"/>
	<path fill="none" d="M368.097,241.992c-14.5-14.899-33.899-23.1-54.499-23.1c-20.699,0-39.998,8.2-54.498,23.1
		c-14.499,14.899-22.599,34.599-22.599,55.498c0,21,7.999,40.699,22.599,55.499c14.5,14.899,33.999,23.099,54.498,23.099
		c20.7,0,39.999-8.199,54.499-23.099c14.499-14.9,22.599-34.6,22.599-55.499C390.796,276.491,382.796,256.792,368.097,241.992z
		 M361.496,346.388c-12.899,13.1-29.799,20.199-47.898,20.199c-18.099,0-35.198-7.199-47.898-20.199
		c-12.899-13.1-19.799-30.398-19.799-48.798c0-18.5,7.1-35.799,19.799-48.799c12.9-13.1,29.8-20.199,47.898-20.199
		c18.1,0,35.199,7.199,47.898,20.199c12.9,13.1,19.8,30.399,19.8,48.799C381.396,315.99,374.296,333.289,361.496,346.388z"/>
	<path fill="none" d="M313.598,265.291c-17.399,0-31.698,14.4-31.698,32.199c0,17.8,14.199,32.199,31.698,32.199
		c17.399,0,31.699-14.399,31.699-32.199C345.297,279.691,330.997,265.291,313.598,265.291z M313.598,324.389
		c-14.499,0-26.398-11.999-26.398-26.899c0-14.899,11.899-26.899,26.398-26.899c14.5,0,26.399,12,26.399,26.899
		C339.997,312.39,328.098,324.389,313.598,324.389z"/>
	<path fill="none" d="M360.097,250.192c-12.399-12.6-28.899-19.6-46.499-19.6c-17.499,0-34.099,7-46.498,19.6
		s-19.199,29.398-19.199,47.298s6.8,34.699,19.199,47.299s28.899,19.6,46.498,19.6c17.6,0,34.1-7,46.499-19.6
		s19.199-29.399,19.199-47.299C379.396,279.591,372.496,262.792,360.097,250.192z M354.197,338.989
		c-10.799,11-25.299,17.199-40.599,17.199c-15.399,0-29.799-6.1-40.599-17.199c-10.799-11-16.799-25.699-16.799-41.299
		s6-30.299,16.799-41.299c10.8-10.999,25.3-17.199,40.599-17.199c15.4,0,29.8,6.1,40.599,17.199c10.8,11,16.8,25.699,16.8,41.299
		C371.097,313.09,365.097,327.889,354.197,338.989z"/>
	<path fill="none" d="M351.997,258.391c-10.3-10.399-23.899-16.199-38.399-16.199c-14.499,0-28.198,5.8-38.398,16.199
		c-10.3,10.399-15.999,24.399-15.999,39.199s5.6,28.699,15.999,39.198c10.3,10.4,23.899,16.2,38.398,16.2
		c14.5,0,28.199-5.8,38.399-16.2c10.3-10.399,15.999-24.398,15.999-39.198S362.297,268.791,351.997,258.391z M313.598,345.388
		c-25.898,0-47.098-21.499-47.098-47.898s21.099-47.898,47.098-47.898c26,0,47.099,21.499,47.099,47.898
		S339.497,345.388,313.598,345.388z"/>
	<path fill="none" d="M376.096,233.892c-16.699-17.1-38.898-26.299-62.598-26.299s-45.898,9.399-62.598,26.299
		c-16.699,17.1-25.899,39.599-25.899,63.698c0,24.099,9.2,46.599,25.899,63.697c16.699,17.1,38.898,26.3,62.598,26.3
		s45.898-9.4,62.598-26.3c16.7-17.099,25.899-39.599,25.899-63.697C401.995,273.491,392.796,250.891,376.096,233.892z
		 M368.796,353.789c-14.799,14.999-34.299,23.299-55.198,23.299c-20.898,0-40.498-8.3-55.198-23.299
		c-14.799-15-22.898-35.1-22.898-56.299c0-21.299,8.199-41.198,22.898-56.298c14.8-15,34.3-23.3,55.198-23.3
		c20.899,0,40.499,8.3,55.198,23.3c14.8,14.999,22.899,35.099,22.899,56.298C391.796,318.79,383.596,338.789,368.796,353.789z"/>
	<path fill="none" d="M313.598,253.691c-23.799,0-42.998,19.7-42.998,43.799c0,24.1,19.299,43.799,42.998,43.799
		c23.8,0,42.999-19.699,42.999-43.799C356.597,273.391,337.398,253.691,313.598,253.691z M313.598,334.989
		c-20.299,0-36.798-16.8-36.798-37.398c0-20.7,16.499-37.399,36.798-37.399c20.3,0,36.799,16.8,36.799,37.399
		C350.397,318.189,333.898,334.989,313.598,334.989z"/>
	<path fill="#595758" d="M58.007,252.391c0,3.5,0,7.4,0,11.6c0,4.2,0,8.5,0,12.899c0,4.4,0,8.3,0,11.9c0,3.5,0,6.399,0,8.6
		s0,3.1,0,2.899v23.1h-10.4l-1.399-2.899c-1.2,0.699-2.6,1.3-4.3,1.8c-2.3,0.7-4.6,1-6.7,1c-2.3,0-4.699-0.4-6.8-1
		c-2.199-0.7-4.199-1.7-6.199-2.9c-1.9-1.3-3.601-2.899-5-4.699c-1.4-1.801-2.6-3.8-3.5-6c-0.4-1.101-0.7-2-1-2.9
		c-0.2-1-0.4-2.2-0.6-3.8v-57.798h11.899v56.798c0,1.6,0.399,3.2,1.2,4.8c0.8,1.7,1.899,3,3.399,4.101c1.9,1.6,4.1,2.3,6.6,2.3
		c1.601,0,2.9-0.2,4.2-1c1.3-0.601,2.5-1.4,3.5-2.5c1-1.101,1.8-2.301,2.399-3.7c0.601-1.4,1-2.9,1.101-4.4v-56.298h11.6
		C58.007,246.092,58.007,248.792,58.007,252.391z"/>
	<path fill="#595758" d="M108.205,323.29H96.806c0-1.7,0-3.4,0-5.2s0-3.8,0-6.399c0-2.4,0-5.301,0-8.601c0-3.399,0-7.3,0-12.1
		c0-0.199,0-0.5,0-0.699c0-0.2,0-0.601-0.101-0.801c-0.399-1.1-0.6-2-1-2.899c-1.1-1.9-2.5-3.4-4.399-4.3c-1-0.4-1.9-0.601-3-0.8
		c-1.1-0.2-2.2-0.101-3.2,0c-2.3,0.5-4.199,1.6-5.8,3.199c-0.8,0.801-1.6,1.9-2,3.2c-0.6,1.3-0.8,2.6-0.8,4v31.199H65.007v-51.499
		h11.399l2.3,1.601c0.6-0.2,1.2-0.601,1.899-0.8c0.601-0.2,1.301-0.5,1.9-0.601c2-0.699,4.2-1,6.6-0.8c2.4,0.2,4.7,0.601,6.7,1.4
		c1.899,0.699,3.8,1.899,5.6,3.5c1.7,1.6,3.1,3.399,4.3,5.3c0.8,1.399,1.399,2.999,1.899,4.699s0.7,3.4,0.7,5.2v32.399h-0.1V323.29z
		"/>
	<path fill="#595758" d="M164.303,244.192v79.098h-11.399v-0.101l-2.3-2.3c-0.4,0.101-0.7,0.4-1,0.5c-0.4,0.101-0.6,0.4-1,0.5
		c-3,1.3-6.399,2.2-10.1,2.3c-3.6,0-7-0.699-10.199-2c-3.4-1.3-6.101-3.399-8.601-5.899c-1.3-1.2-2.399-2.5-3.399-4
		c-1-1.399-1.8-3-2.4-4.6c-1.199-3.101-1.8-6.5-1.899-10c0-3.5,0.6-7,1.899-10.3c0.601-1.6,1.4-3.1,2.4-4.6c1-1.4,2.2-2.8,3.399-4.1
		c2.4-2.5,5.3-4.601,8.601-5.9c3.1-1.3,6.6-2,10.199-2c3.7,0.101,7.1,1,10.1,2.3c0.8,0.4,1.6,0.601,2.3,1.101
		c0.7,0.399,1.3,0.8,2,1.3v-31.299H164.303z M138.504,312.99c1.9,0.1,3.8-0.2,5.8-1.1c1.9-0.801,3.6-1.9,5.2-3.4
		c1.399-1.4,2.6-3.101,3.5-5c0.699-1.8,1.1-3.8,1.1-6.1s-0.4-4.3-1.1-6.1c-1-1.9-2-3.601-3.5-5c-1.601-1.4-3.2-2.5-5.2-3.2
		c-1.9-0.7-3.8-1.1-5.8-1.1c-1.1,0.1-2,0.199-3,0.399s-1.899,0.5-2.8,0.8c-1.8,0.801-3.5,2-4.8,3.5c-0.7,0.7-1.4,1.4-1.9,2.3
		c-0.5,0.801-1,1.801-1.3,2.601c-0.1,0.5-0.399,1-0.5,1.399c-0.1,0.5-0.2,1-0.399,1.4c-0.4,2.3-0.2,4.699,0.399,7.3
		c0.601,2.6,1.9,4.8,3.7,6.6c1.4,1.601,3,2.6,4.8,3.5C134.605,312.69,136.604,312.99,138.504,312.99z"/>
	<path fill="#595758" d="M183.003,323.29h-11.4v-51.799h11.4V323.29z"/>
	<path fill="#595758" d="M209.102,324.09c-2.6,0-5.2-0.5-7.399-1.3c-2.3-0.8-4.3-2-6.101-3.601c-1.699-1.6-3.1-3.399-4.1-5.399
		s-1.399-4.2-1.399-6.6h11.199c0,1.399,0.7,2.8,2.3,4c1.601,1.2,3.4,1.8,5.6,1.8c2.2,0,4-0.6,5.5-1.8c1.601-1.2,2.3-2.5,2.3-4.101
		c0-1.1-0.5-2-1.3-3s-2.2-1.699-3.6-2l-8.2-2.399c-3.499-1.1-6.199-2.9-8.399-5.4c-2.2-2.499-3.1-5.399-3.1-8.6
		c0-2,0.5-3.999,1.3-5.8c0.8-1.8,2-3.399,3.6-4.699c1.601-1.3,3.4-2.4,5.4-3.101c2-0.8,4.199-1.199,6.6-1.199
		c4.8,0,8.899,1.6,12.3,4.8l-7.8,8.199c-0.5-0.5-1.2-1-1.9-1.399c-0.8-0.4-1.6-0.601-2.399-0.601c-1.7,0-3,0.4-4,1.2
		s-1.601,1.7-1.601,2.8c0,0.7,0.2,1.3,1,2c0.601,0.7,1.4,1.2,2.5,1.4l8.2,2.399c4,1.101,7.1,3.1,9.499,6
		c2.4,2.899,3.601,6.1,3.601,9.7c0,2.3-0.5,4.6-1.4,6.6c-1,2-2.3,3.8-4.1,5.399c-1.7,1.601-3.7,2.8-6,3.601
		C214.302,323.689,211.701,324.09,209.102,324.09z"/>
	<path fill="#595758" d="M467.693,271.591c0.601,0.101,1.2,0.101,1.7,0.101s1.101,0.1,1.7,0.2l-3.1,10.6
		c-0.5-0.101-0.801-0.2-1.101-0.2c-1.2-0.1-2.3-0.1-3.1,0.1c-2.2,0.4-4.1,1.4-5.8,3.101c-0.4,0.5-0.7,1-1.1,1.3
		c-0.4,0.5-0.601,1-0.801,1.6c-0.1,0.4-0.399,1.1-0.6,2c-0.2,1-0.4,1.9-0.4,2.9v29.799h-11.399v-51.499h11.399l2.4,2.301
		c0.6-0.4,1.2-0.601,1.8-0.801c0.6-0.199,1.2-0.5,1.9-0.6c1.1-0.2,2.199-0.5,3.199-0.7
		C465.393,271.491,466.493,271.491,467.693,271.591z"/>
	<path fill="#595758" d="M519.991,299.591h-37.199l-1.1,0.999c0.1,0.5,0.2,1.101,0.399,1.601c0.101,0.5,0.2,1,0.5,1.6
		c0.601,1.601,1.4,3,2.601,4.4c1.2,1.3,2.5,2.399,4,3.2c1.699,1,3.199,1.6,4.8,1.8c0.5,0.1,1,0.1,1.3,0.1c0.5,0,1,0,1.3,0
		c0.4,0,0.8,0,1.2,0c0.5,0,0.8-0.1,1.2-0.1c1.699-0.4,3.399-1,4.799-1.9c0.7-0.5,1.4-1,2-1.6c0.601-0.601,1.2-1.2,1.801-1.9l8.6,7.6
		c-1.9,2.2-4.3,4-7,5.4c-1.8,1.1-3.8,1.899-5.9,2.399c-2.199,0.601-4.399,0.801-6.799,0.801c-2.9,0-5.8-0.5-8.6-1.301
		c-1.301-0.5-2.801-1-4.101-1.699c-2.6-1.4-5-3.2-7.1-5.4c-2-2.2-3.7-4.699-4.8-7.399c-1.1-2.8-1.8-5.5-2.2-8.5
		c-0.399-2.9-0.1-5.899,0.5-8.6c0.601-2.9,1.7-5.5,3.2-8.2c1.6-2.5,3.7-4.8,6.5-6.699c1.3-0.8,2.5-1.601,3.8-2.3
		c1.3-0.7,2.6-1.301,4.2-1.801c0.399-0.1,1.199-0.399,2.399-0.5c1.2-0.199,2.6-0.399,4.3-0.399c1.7-0.101,3.5,0,5.3,0.2
		c1.9,0.199,3.7,0.699,5.399,1.3c2.9,1.1,5.4,2.6,7.7,4.8s4.1,4.8,5.2,7.8c0.199,0.7,0.6,1.399,0.699,2.2
		c0.2,0.699,0.4,1.399,0.5,2.199c0.101,0.5,0.101,1,0.2,1.7c0.101,0.6,0.101,1.6,0.2,2.8L519.991,299.591L519.991,299.591z
		 M491.292,282.091c-1.6,0.5-2.899,1.2-4,2c-1.1,0.8-2.2,1.9-3.1,3.2l0.5,1.3h23.099c-0.5-1.2-1.199-2.4-2.3-3.5
		c-0.6-0.6-1.399-1.2-2.399-1.8s-2.2-1-3.5-1.3c-1.3-0.4-2.6-0.601-4.1-0.601C494.092,281.491,492.792,281.691,491.292,282.091z"/>
	<path fill="#595758" d="M577.789,244.192v79.098H566.39v-0.101l-2.3-2.3c-0.4,0.101-0.7,0.4-1,0.5c-0.4,0.101-0.601,0.4-1,0.5
		c-3,1.3-6.4,2.2-10.1,2.3c-3.6,0-7-0.699-10.2-2c-3.399-1.3-6.1-3.399-8.6-5.899c-1.3-1.2-2.399-2.5-3.399-4
		c-1-1.399-1.801-3-2.4-4.6c-1.2-3.101-1.8-6.5-1.899-10c0-3.5,0.6-7,1.899-10.3c0.6-1.6,1.4-3.1,2.4-4.6c1-1.4,2.199-2.8,3.399-4.1
		c2.4-2.5,5.3-4.601,8.6-5.9c3.101-1.3,6.6-2,10.2-2c3.699,0.101,7.1,1,10.1,2.3c0.8,0.4,1.6,0.601,2.3,1.101
		c0.7,0.399,1.3,0.8,2,1.3v-31.299H577.789z M552.09,312.99c1.9,0.1,3.8-0.2,5.8-1.1c2-0.9,3.6-1.9,5.2-3.4
		c1.399-1.4,2.6-3.101,3.5-5c0.699-1.8,1.1-3.8,1.1-6.1s-0.4-4.3-1.1-6.1c-1-1.9-2-3.601-3.5-5c-1.601-1.4-3.2-2.5-5.2-3.2
		c-1.899-0.7-3.8-1.1-5.8-1.1c-1.1,0.1-2,0.199-3,0.399s-1.899,0.5-2.8,0.8c-1.8,0.801-3.5,2-4.8,3.5c-0.7,0.7-1.4,1.4-1.9,2.3
		c-0.5,0.801-0.999,1.801-1.3,2.601c-0.1,0.5-0.399,1-0.5,1.399c-0.1,0.5-0.199,1-0.399,1.4c-0.4,2.3-0.2,4.699,0.399,7.3
		c0.601,2.6,1.9,4.8,3.7,6.6c1.4,1.601,3,2.6,4.8,3.5S550.09,312.99,552.09,312.99z"/>
	<path fill="#595758" d="M183.403,254.792L183.403,254.792c0-0.101-0.2-0.4-0.399-0.601c-0.2-0.199-0.5-0.6-0.7-0.8
		c-0.101-0.1-0.2-0.2-0.5-0.399c-1.4-1.4-3.4-3.2-3.7-4h-0.4h-0.499h-0.5h-0.4c-0.4,0.7-2.3,2.5-3.7,4
		c-0.1,0.1-0.399,0.199-0.5,0.399c-0.199,0.2-0.5,0.601-0.699,0.8c-0.2,0.2-0.4,0.4-0.4,0.601l0,0c-0.6,1.1-1,2.3-1,3.6
		c0,1.9,0.7,3.6,2,4.9c1.3,1.3,3,1.999,4.899,1.999c1.9,0,3.601-0.699,4.9-1.999c1.3-1.301,2-3,2-4.9
		C184.403,256.891,184.002,255.792,183.403,254.792z"/>
	<path fill="#595758" d="M437.294,299.591h-37.299l-1.1,0.999c0.1,0.5,0.199,1.101,0.399,1.601c0.1,0.5,0.2,1,0.5,1.6
		c0.6,1.601,1.4,3,2.6,4.4c1.2,1.3,2.5,2.399,4,3.2c1.7,1,3.2,1.6,4.8,1.8c0.5,0.1,1,0.1,1.3,0.1c0.5,0,1,0,1.301,0
		c0.399,0,0.8,0,1.199,0c0.5,0,0.801-0.1,1.2-0.1c1.7-0.4,3.4-1,4.8-1.9c0.7-0.5,1.4-1,2-1.6c0.6-0.601,1.2-1.2,1.8-1.9l8.6,7.6
		c-1.899,2.2-4.3,4-6.999,5.4c-1.801,1.1-3.801,1.899-5.9,2.399c-2.2,0.601-4.399,0.801-6.8,0.801c-2.899,0-5.8-0.5-8.6-1.301
		c-1.3-0.5-2.8-1-4.1-1.699c-2.601-1.4-5-3.2-7.1-5.4c-2-2.2-3.7-4.699-4.8-7.399s-1.8-5.5-2.2-8.5c-0.399-2.9-0.1-5.899,0.5-8.6
		c0.601-2.9,1.7-5.5,3.2-8.2c1.6-2.5,3.7-4.8,6.499-6.699c1.3-0.8,2.5-1.601,3.8-2.3c1.301-0.7,2.601-1.301,4.2-1.801
		c0.4-0.1,1.2-0.399,2.4-0.5c1.199-0.199,2.6-0.399,4.3-0.399c1.699-0.101,3.5,0,5.3,0.2c1.899,0.199,3.699,0.699,5.399,1.3
		c2.9,1.1,5.399,2.6,7.7,4.8c2.3,2.2,4.1,4.8,5.199,7.8c0.2,0.7,0.601,1.399,0.7,2.2c0.2,0.699,0.4,1.399,0.5,2.199
		c0.1,0.5,0.1,1,0.2,1.7c0.1,0.6,0.1,1.6,0.2,2.8L437.294,299.591L437.294,299.591z M408.595,282.091c-1.6,0.5-2.899,1.2-4,2
		c-1.1,0.8-2.2,1.9-3.1,3.2l0.5,1.3h22.999c-0.5-1.2-1.2-2.4-2.3-3.5c-0.6-0.6-1.4-1.2-2.4-1.8c-1-0.601-2.199-1-3.499-1.3
		c-1.301-0.4-2.601-0.601-4.101-0.601C411.295,281.491,409.895,281.691,408.595,282.091z"/>
	<g>
		
			<linearGradient id="SVGID_1_" gradientUnits="userSpaceOnUse" x1="866.3792" y1="2820.3601" x2="849.6169" y2="2871.0024" gradientTransform="matrix(0.7987 -0.8969 0.8969 0.7987 -2933.8218 -1251.3457)">
			<stop  offset="0.6915" style="stop-color:#FBC61C"/>
			<stop  offset="0.7091" style="stop-color:#E8B930"/>
			<stop  offset="0.7736" style="stop-color:#B1924F"/>
			<stop  offset="0.8351" style="stop-color:#887657"/>
			<stop  offset="0.892" style="stop-color:#6E6459"/>
			<stop  offset="0.9426" style="stop-color:#5E5A58"/>
			<stop  offset="0.9818" style="stop-color:#595758"/>
		</linearGradient>
		<path fill="url(#SVGID_1_)" d="M335.098,273.991l3.399-3.8c-14.1-13.3-35.299-13.1-48.998-0.7l3.2,3.8
			C304.599,262.592,323.198,262.491,335.098,273.991z"/>
		
			<linearGradient id="SVGID_2_" gradientUnits="userSpaceOnUse" x1="877.2727" y1="2821.4929" x2="861.5611" y2="2869.0562" gradientTransform="matrix(0.7887 -0.8885 0.8879 0.7933 -2898.4417 -1256.7404)">
			<stop  offset="0.6915" style="stop-color:#FBC61C"/>
			<stop  offset="0.7091" style="stop-color:#E8B930"/>
			<stop  offset="0.7736" style="stop-color:#B1924F"/>
			<stop  offset="0.8351" style="stop-color:#887657"/>
			<stop  offset="0.892" style="stop-color:#6E6459"/>
			<stop  offset="0.9426" style="stop-color:#5E5A58"/>
			<stop  offset="0.9818" style="stop-color:#595758"/>
		</linearGradient>
		<path fill="url(#SVGID_2_)" d="M308.698,207.693c14.699-0.8,28.799,1.9,41.999,8c7.899,3.699,15.499,8.8,22.199,14.999l0.1-0.2
			c-17.8-16.099-39.198-24.299-64.298-23.099c-19.799,1-38.099,8.8-52.698,21.399l0.1,0.199
			C270.8,216.293,288.999,208.793,308.698,207.693z"/>
		
			<linearGradient id="SVGID_3_" gradientUnits="userSpaceOnUse" x1="870.0325" y1="2819.8591" x2="853.7111" y2="2869.1699" gradientTransform="matrix(0.7987 -0.8969 0.8969 0.7987 -2933.8218 -1251.3457)">
			<stop  offset="0.6915" style="stop-color:#FBC61C"/>
			<stop  offset="0.7091" style="stop-color:#E8B930"/>
			<stop  offset="0.7736" style="stop-color:#B1924F"/>
			<stop  offset="0.8351" style="stop-color:#887657"/>
			<stop  offset="0.892" style="stop-color:#6E6459"/>
			<stop  offset="0.9426" style="stop-color:#5E5A58"/>
			<stop  offset="0.9818" style="stop-color:#595758"/>
		</linearGradient>
		<path fill="url(#SVGID_3_)" d="M342.597,265.291l2.801-2.999c-17.8-16.8-44.999-16.7-62.798-0.801l2.6,3.101
			C301.599,250.092,326.398,249.992,342.597,265.291z"/>
		
			<linearGradient id="SVGID_4_" gradientUnits="userSpaceOnUse" x1="881.9758" y1="2816.2644" x2="866.2901" y2="2863.6545" gradientTransform="matrix(0.7987 -0.8969 0.8969 0.7987 -2933.8218 -1251.3457)">
			<stop  offset="0.6915" style="stop-color:#FBC61C"/>
			<stop  offset="0.7091" style="stop-color:#E8B930"/>
			<stop  offset="0.7736" style="stop-color:#B1924F"/>
			<stop  offset="0.8351" style="stop-color:#887657"/>
			<stop  offset="0.892" style="stop-color:#6E6459"/>
			<stop  offset="0.9426" style="stop-color:#5E5A58"/>
			<stop  offset="0.9818" style="stop-color:#595758"/>
		</linearGradient>
		<path fill="url(#SVGID_4_)" d="M309.599,219.093c20.699-1.1,39.898,5.9,55.698,20.199l0.8-0.6
			c-16-14.699-35.699-21.699-56.799-20.699c-17.699,0.8-33.898,7.699-46.798,19.1l0.7,0.699
			C276.499,226.692,292.099,219.892,309.599,219.093z"/>
		
			<linearGradient id="SVGID_5_" gradientUnits="userSpaceOnUse" x1="877.9055" y1="2817.7224" x2="862.0978" y2="2865.4812" gradientTransform="matrix(0.7987 -0.8969 0.8969 0.7987 -2933.8218 -1251.3457)">
			<stop  offset="0.6915" style="stop-color:#FBC61C"/>
			<stop  offset="0.7091" style="stop-color:#E8B930"/>
			<stop  offset="0.7736" style="stop-color:#B1924F"/>
			<stop  offset="0.8351" style="stop-color:#887657"/>
			<stop  offset="0.892" style="stop-color:#6E6459"/>
			<stop  offset="0.9426" style="stop-color:#5E5A58"/>
			<stop  offset="0.9818" style="stop-color:#595758"/>
		</linearGradient>
		<path fill="url(#SVGID_5_)" d="M310.599,230.593c17.799-0.7,33.898,5.399,47.198,17.299l1.399-1.399
			c-13.899-12.699-29.799-18.3-47.998-17.999c-15.399,0.199-30.699,6.999-41.999,16.799l1.301,1.601
			C282.499,236.593,296.198,231.192,310.599,230.593z"/>
		
			<linearGradient id="SVGID_6_" gradientUnits="userSpaceOnUse" x1="873.8801" y1="2818.8523" x2="857.8188" y2="2867.3777" gradientTransform="matrix(0.7987 -0.8969 0.8969 0.7987 -2933.8218 -1251.3457)">
			<stop  offset="0.6915" style="stop-color:#FBC61C"/>
			<stop  offset="0.7091" style="stop-color:#E8B930"/>
			<stop  offset="0.7736" style="stop-color:#B1924F"/>
			<stop  offset="0.8351" style="stop-color:#887657"/>
			<stop  offset="0.892" style="stop-color:#6E6459"/>
			<stop  offset="0.9426" style="stop-color:#5E5A58"/>
			<stop  offset="0.9818" style="stop-color:#595758"/>
		</linearGradient>
		<path fill="url(#SVGID_6_)" d="M310.698,242.192c14.699-0.7,28.199,4.1,39.599,14.499l1.9-2.399c-12.3-11-26.399-16-41.899-15.3
			c-13.1,0.601-24.999,5.9-34.599,14.3l1.9,2.399C286.299,248.192,298.198,242.792,310.698,242.192z"/>
	</g>
</g>
<g>
	<g>
		<rect x="602.088" y="244.192" fill="#595758" width="2.4" height="110.296"/>
	</g>
	<g>
		<path fill="#595758" d="M413.494,340.189h-7.299c-0.4,0-0.7,0.399-0.7,0.7v13.299c0,0.4,0.399,0.7,0.7,0.7h0.1
			c0.399,0,0.7-0.4,0.7-0.7v-6.199h6.1c0.399,0,0.7-0.4,0.7-0.7c0-0.4-0.4-0.7-0.7-0.7h-6.1v-4.8h6.499c0.4,0,0.7-0.4,0.7-0.7
			C414.195,340.389,413.994,340.189,413.494,340.189z"/>
		<path fill="#595758" d="M418.794,343.789c-2.499,0-3.8,1-3.8,2.9v5.6c0,1.899,1.301,2.899,3.8,2.899c2.5,0,3.8-1,3.8-2.899v-5.6
			C422.595,344.689,421.294,343.789,418.794,343.789z M421.095,346.489v5.6c0,0.5,0,1.3-2.4,1.3c-2.399,0-2.399-0.8-2.399-1.3v-5.6
			c0-0.5,0-1.3,2.399-1.3C421.095,345.189,421.095,346.189,421.095,346.489z"/>
		<path fill="#595758" d="M431.794,343.888c-0.4,0-0.7,0.4-0.7,0.7v7.9c-0.5,0.399-1.399,0.999-2.899,0.999
			c-1.2,0-1.8-0.499-1.8-1.3v-7.6c0-0.399-0.4-0.7-0.801-0.7c-0.399,0-0.699,0.4-0.699,0.7v7.6c0,1.8,1.199,2.9,3.199,2.9
			c1.2,0,2.2-0.4,2.9-0.7c0.1,0.4,0.399,0.6,0.7,0.6c0.3,0,0.699-0.399,0.699-0.699v-9.5
			C432.594,344.189,432.195,343.888,431.794,343.888z"/>
		<path fill="#595758" d="M439.694,343.789c-1.199,0-2.3,0.4-3,0.7c0-0.4-0.399-0.601-0.699-0.601c-0.4,0-0.7,0.4-0.7,0.7v9.5
			c0,0.399,0.399,0.7,0.8,0.7s0.7-0.4,0.7-0.7v-7.8c0.6-0.5,1.6-1,3-1c1.2,0,1.8,0.5,1.8,1.3v7.6c0,0.4,0.399,0.7,0.7,0.7h0.1
			c0.4,0,0.7-0.4,0.7-0.7v-7.6C442.894,344.789,441.694,343.789,439.694,343.789z"/>
		<path fill="#595758" d="M452.194,339.789c-0.4,0-0.7,0.4-0.7,0.7v4.1c-0.7-0.399-1.8-0.7-3-0.7c-2,0-3.199,1.101-3.199,2.9v5.6
			c0,1.8,1.199,2.9,3.199,2.9c1.2,0,2.3-0.4,3-0.7c0,0.399,0.4,0.6,0.7,0.6c0.4,0,0.7-0.399,0.7-0.7v-13.699
			C452.993,339.989,452.694,339.789,452.194,339.789z M446.793,346.489c0-1.101,1-1.3,1.801-1.3c1.399,0,2.399,0.6,3,1v6.199
			c-0.7,0.5-1.7,1-3,1c-0.801,0-1.801-0.2-1.801-1.3V346.489z"/>
		<path fill="#595758" d="M456.293,351.888c-0.399,0-0.7,0.4-0.7,0.7v1.399c0,0.4,0.4,0.7,0.7,0.7h0.101
			c0.399,0,0.699-0.399,0.699-0.7v-1.399C456.993,352.289,456.694,351.888,456.293,351.888z"/>
		<path fill="#595758" d="M472.193,353.388h-6v-12.499c0-0.4-0.399-0.7-0.8-0.7c-0.399,0-0.699,0.399-0.699,0.7v13.299
			c0,0.4,0.399,0.7,0.699,0.7h6.7c0.399,0,0.7-0.4,0.7-0.7C472.893,353.688,472.593,353.388,472.193,353.388z"/>
		<path fill="#595758" d="M477.893,343.789c-2.5,0-3.8,1-3.8,2.9v5.6c0,1.899,1.3,2.899,3.8,2.899s3.8-1,3.8-2.899v-5.6
			C481.792,344.689,480.492,343.789,477.893,343.789z M480.292,346.489v5.6c0,0.5,0,1.3-2.399,1.3c-2.4,0-2.4-0.8-2.4-1.3v-5.6
			c0-0.5,0-1.3,2.4-1.3C480.292,345.189,480.292,346.189,480.292,346.489z"/>
		<path fill="#595758" d="M489.992,343.888c-0.4,0-0.6,0.2-0.7,0.5l-2.5,7.4l-2.5-7.3c-0.1-0.4-0.399-0.601-0.8-0.601
			c-0.2,0-0.5,0.101-0.6,0.2l-0.2,0.4l3.399,9.699c0.101,0.2,0.2,0.5,0.5,0.5l0.4,1.101l0.2-1.2c0.2-0.101,0.399-0.2,0.399-0.5
			l3.2-9.5l0.1-0.399l-0.1-0.2C490.492,343.989,490.392,343.888,489.992,343.888z"/>
		<path fill="#595758" d="M495.492,343.789c-2.5,0-3.8,1-3.8,2.9v5.6c0,1.899,1.3,2.899,3.8,2.899s3.8-1,3.8-2.899v-0.601
			c0-0.399-0.4-0.699-0.8-0.699c-0.4,0-0.7,0.399-0.7,0.699v0.601c0,0.5,0,1.3-2.4,1.3c-2.399,0-2.399-0.8-2.399-1.3v-2.4h5.5
			c0.399,0,0.699-0.399,0.699-0.7v-2.499C499.392,344.689,497.992,343.789,495.492,343.789z M493.092,348.289v-1.7
			c0-0.5,0-1.3,2.4-1.3c2.399,0,2.399,0.8,2.399,1.3v1.7H493.092z"/>
		<path fill="#595758" d="M508.291,339.789c-0.399,0-0.699,0.4-0.699,0.7v4.1c-0.7-0.399-1.801-0.7-3-0.7c-2,0-3.2,1.101-3.2,2.9
			v5.6c0,1.8,1.2,2.9,3.2,2.9c1.199,0,2.3-0.4,3-0.7c0,0.399,0.399,0.6,0.699,0.6c0.301,0,0.7-0.399,0.7-0.7v-13.699
			C509.092,339.989,508.692,339.789,508.291,339.789z M502.892,346.489c0-1.101,1-1.3,1.8-1.3c1.4,0,2.4,0.6,3,1v6.199
			c-0.7,0.5-1.7,1-3,1c-0.8,0-1.8-0.2-1.8-1.3V346.489z"/>
		<path fill="#595758" d="M512.291,351.888c-0.399,0-0.699,0.4-0.699,0.7v1.399c0,0.4,0.399,0.7,0.699,0.7h0.101
			c0.399,0,0.699-0.399,0.699-0.7v-1.399C513.091,352.289,512.791,351.888,512.291,351.888z"/>
		<path fill="#595758" d="M527.091,347.089l-4-1.6c-0.399-0.101-1.1-0.5-1.1-1.4v-1c0-0.6,0-1.7,2.899-1.7c2.9,0,2.9,1.101,2.9,1.7
			v1.101c0,0.399,0.399,0.699,0.8,0.699s0.7-0.399,0.7-0.699v-1.101c0-2.199-1.4-3.199-4.3-3.199c-2.9,0-4.3,1.1-4.3,3.199v1
			c0,1.9,1.6,2.601,2,2.8l4,1.601c0.6,0.199,1.199,0.699,1.199,1.399v1.8c0,0.601,0,1.7-3,1.7c-2.899,0-2.899-1.1-2.899-1.7v-1
			c0-0.399-0.4-0.699-0.8-0.699c-0.4,0-0.7,0.399-0.7,0.699v1c0,2.2,1.399,3.2,4.399,3.2s4.4-1.1,4.4-3.2v-1.8
			C529.291,348.688,528.391,347.689,527.091,347.089z"/>
		<path fill="#595758" d="M532.391,339.789c-0.4,0-0.7,0.4-0.7,0.7v1.899c0,0.4,0.4,0.7,0.7,0.7h0.1c0.4,0,0.7-0.399,0.7-0.7v-1.899
			C533.191,339.989,532.891,339.789,532.391,339.789z"/>
		<path fill="#595758" d="M532.391,343.888c-0.4,0-0.7,0.4-0.7,0.7v9.5c0,0.399,0.4,0.7,0.7,0.7h0.1c0.4,0,0.7-0.4,0.7-0.7v-9.5
			C533.191,344.189,532.891,343.888,532.391,343.888z"/>
		<path fill="#595758" d="M542.59,343.888c-0.399,0-0.699,0.2-0.699,0.601c-0.7-0.4-1.801-0.7-3-0.7c-2,0-3.2,1.1-3.2,2.9v5.6
			c0,1.8,1.2,2.899,3.2,2.899c1.199,0,2.3-0.399,3-0.7v1.9c0,0.5,0,1.3-2.301,1.3h-2.799c-0.4,0-0.7,0.4-0.7,0.7
			c0,0.399,0.399,0.7,0.7,0.7h2.6c2.6,0,3.8-1,3.8-2.9v-11.6C543.29,344.189,543.09,343.888,542.59,343.888z M537.091,346.489
			c0-1.101,1-1.3,1.8-1.3c1.399,0,2.399,0.6,3,1v6.199c-0.7,0.5-1.7,1-3,1c-0.8,0-1.8-0.2-1.8-1.3V346.489z"/>
		<path fill="#595758" d="M550.49,343.789c-1.2,0-2.3,0.4-3,0.7c0-0.4-0.4-0.601-0.7-0.601s-0.7,0.4-0.7,0.7v9.5
			c0,0.399,0.4,0.7,0.801,0.7c0.399,0,0.699-0.4,0.699-0.7v-7.8c0.601-0.5,1.601-1,3-1c1.2,0,1.8,0.5,1.8,1.3v7.6
			c0,0.4,0.4,0.7,0.7,0.7h0.1c0.4,0,0.7-0.4,0.7-0.7v-7.6C553.79,344.789,552.59,343.789,550.49,343.789z"/>
		<path fill="#595758" d="M559.89,343.789c-2.5,0-3.8,1-3.8,2.9v5.6c0,1.899,1.3,2.899,3.8,2.899s3.8-1,3.8-2.899v-0.601
			c0-0.399-0.4-0.699-0.8-0.699c-0.4,0-0.7,0.399-0.7,0.699v0.601c0,0.5,0,1.3-2.399,1.3c-2.4,0-2.4-0.8-2.4-1.3v-2.4h5.5
			c0.399,0,0.7-0.399,0.7-0.7v-2.499C563.69,344.689,562.49,343.789,559.89,343.789z M557.49,348.289v-1.7c0-0.5,0-1.3,2.399-1.3
			c2.4,0,2.4,0.8,2.4,1.3v1.7H557.49z"/>
		<path fill="#595758" d="M572.589,339.789c-0.399,0-0.699,0.4-0.699,0.7v4.1c-0.7-0.399-1.8-0.7-3-0.7c-2,0-3.2,1.101-3.2,2.9v5.6
			c0,1.8,1.2,2.9,3.2,2.9c1.2,0,2.3-0.4,3-0.7c0,0.399,0.399,0.6,0.699,0.6c0.4,0,0.7-0.399,0.7-0.7v-13.699
			C573.49,339.989,573.089,339.789,572.589,339.789z M567.19,346.489c0-1.101,1-1.3,1.8-1.3c1.4,0,2.4,0.6,3,1v6.199
			c-0.7,0.5-1.7,1-3,1c-0.8,0-1.8-0.2-1.8-1.3V346.489z"/>
		<path fill="#595758" d="M576.69,351.888c-0.4,0-0.7,0.4-0.7,0.7v1.399c0,0.4,0.399,0.7,0.7,0.7h0.1c0.4,0,0.7-0.399,0.7-0.7
			v-1.399C577.389,352.289,577.19,351.888,576.69,351.888z"/>
	</g>
</g>
<g>
	<path fill="#595758" d="M666.687,272.091l-2.4,12h5.1v8.6h-6.899l-1.2,6h8.1v8.8h-9.899l-2.7,13.1l-8.8-1.8l2.301-11.3h-8.601
		l-2.8,13.699l-8.8-1.8l2.4-11.899h-5.2v-8.8h6.9l1.3-6h-8.2v-8.6h10l2.6-13.1l8.8,1.8l-2.3,11.3h8.6l2.8-13.8L666.687,272.091z
		 M652.087,298.79l1.2-5.999h-8.601l-1.3,5.999H652.087z"/>
	<path fill="#595758" d="M727.384,291.791c0,4.899-0.6,9.299-1.8,13.199c-1.199,4-3,7.3-5.3,10.1s-5.1,4.9-8.399,6.4
		s-7,2.3-11.1,2.3s-7.899-0.8-11.1-2.3c-3.3-1.5-6.1-3.601-8.399-6.4s-4.101-6.199-5.3-10.1c-1.2-4-1.801-8.399-1.801-13.199
		c0-4.9,0.601-9.4,1.801-13.3c1.199-4,3-7.3,5.3-10.1s5.1-4.9,8.399-6.4s7-2.3,11.1-2.3s7.899,0.8,11.1,2.3
		c3.3,1.5,6.1,3.601,8.399,6.4s4.101,6.199,5.3,10.1C726.784,282.39,727.384,286.791,727.384,291.791z M700.686,315.19
		c2.999,0,5.6-0.601,7.799-1.8c2.2-1.2,4-2.9,5.4-5c1.4-2.101,2.399-4.601,3.1-7.5c0.7-2.8,1-5.9,1-9.1c0-3.2-0.3-6.3-1-9.101
		c-0.7-2.8-1.7-5.3-3.1-7.499c-1.4-2.101-3.2-3.8-5.4-5c-2.199-1.2-4.8-1.8-7.799-1.8c-3,0-5.601,0.6-7.8,1.8
		c-2.2,1.2-4,2.899-5.4,5c-1.399,2.1-2.399,4.6-3.1,7.499c-0.7,2.801-1,5.9-1,9.101c0,3.199,0.3,6.3,1,9.1s1.7,5.3,3.1,7.5
		c1.4,2.1,3.2,3.8,5.4,5C695.085,314.59,697.686,315.19,700.686,315.19z"/>
	<path fill="#595758" d="M784.983,291.791c0,4.899-0.6,9.299-1.8,13.199c-1.2,4-3,7.3-5.3,10.1s-5.1,4.9-8.4,6.4
		c-3.3,1.5-6.999,2.3-11.1,2.3c-4.1,0-7.899-0.8-11.1-2.3c-3.3-1.5-6.1-3.601-8.399-6.4s-4.1-6.199-5.3-10.1
		c-1.2-4-1.8-8.399-1.8-13.199c0-4.9,0.6-9.4,1.8-13.3c1.2-4,3-7.3,5.3-10.1s5.1-4.9,8.399-6.4s7-2.3,11.1-2.3
		c4.101,0,7.9,0.8,11.1,2.3c3.3,1.5,6.1,3.601,8.4,6.4c2.3,2.8,4.1,6.199,5.3,10.1C784.383,282.39,784.983,286.791,784.983,291.791z
		 M758.283,315.19c3,0,5.6-0.601,7.8-1.8c2.2-1.2,4-2.9,5.399-5c1.4-2.101,2.4-4.601,3.1-7.5c0.7-2.8,1-5.9,1-9.1
		c0-3.2-0.3-6.3-1-9.101c-0.699-2.8-1.699-5.3-3.1-7.499c-1.399-2.101-3.199-3.8-5.399-5s-4.8-1.8-7.8-1.8s-5.6,0.6-7.8,1.8
		s-4,2.899-5.399,5c-1.4,2.1-2.4,4.6-3.101,7.499c-0.7,2.801-1,5.9-1,9.101c0,3.199,0.3,6.3,1,9.1s1.7,5.3,3.101,7.5
		c1.399,2.1,3.199,3.8,5.399,5C752.684,314.59,755.283,315.19,758.283,315.19z"/>
	<path fill="#595758" d="M810.281,282.291c2.9,0,5.6,0.5,8.1,1.6c2.5,1.101,4.7,2.601,6.6,4.5c1.9,1.9,3.4,4.1,4.5,6.6
		c1.101,2.5,1.601,5.2,1.601,8.1c0,2.9-0.5,5.601-1.601,8.101c-1.1,2.5-2.6,4.699-4.5,6.6c-1.899,1.899-4.1,3.399-6.6,4.5
		c-2.5,1.1-5.199,1.6-8.1,1.6c-2.8,0-5.399-0.5-7.899-1.5s-4.6-2.399-6.5-4.2c-1.899-1.8-3.399-3.899-4.6-6.299
		c-1.101-2.4-1.8-5-1.9-7.801c-0.1-2.199-0.2-4.399-0.1-6.699c0-2.2,0.3-4.5,0.8-6.8c0.8-4.7,2.4-9.1,4.8-13.3
		c1.2-2.1,2.6-4.1,4.1-5.899s3.3-3.5,5.2-5c1-0.8,1.9-1.5,2.9-2.2c0.999-0.7,1.999-1.3,3.1-1.8c0.5-0.3,1.1-0.6,1.6-0.8
		s1.1-0.5,1.7-0.7c0.6-0.2,1.2-0.5,1.8-0.7s1.2-0.399,1.9-0.5l1.899,9.2c-0.4,0.1-0.7,0.2-1.1,0.3c-0.4,0.1-0.8,0.2-1.2,0.3
		c-0.5,0.101-0.9,0.3-1.3,0.4c-0.4,0.2-0.8,0.399-1.2,0.5c-0.8,0.399-1.7,0.899-2.4,1.3c-0.8,0.399-1.5,0.899-2.3,1.5
		c-0.699,0.5-1.399,1.1-2.1,1.8c-0.7,0.6-1.3,1.3-1.899,1.899c-0.7,0.7-1.2,1.4-1.801,2.101c-0.5,0.8-1,1.5-1.5,2.3
		c-0.1,0.3-0.3,0.6-0.399,0.8c-0.2,0.2-0.3,0.5-0.4,0.8l0.8,0.9C804.682,282.791,807.281,282.291,810.281,282.291z M810.182,315.09
		c1.6,0,3-0.3,4.399-0.899c1.4-0.601,2.601-1.5,3.601-2.601c1-1.1,1.899-2.3,2.499-3.8c0.601-1.4,0.9-3,0.9-4.6
		c0-1.7-0.3-3.3-0.9-4.7c-0.6-1.399-1.399-2.7-2.499-3.8c-1.101-1.1-2.301-1.899-3.601-2.6c-1.399-0.601-2.899-0.9-4.399-0.9
		c-1.6,0-3,0.3-4.4,0.9c-1.399,0.6-2.6,1.5-3.6,2.6s-1.8,2.3-2.4,3.8c-0.6,1.4-0.899,3-0.899,4.7c0,1.6,0.3,3.199,0.899,4.6
		c0.601,1.4,1.4,2.7,2.4,3.8c1,1.101,2.2,1.9,3.6,2.601C807.182,314.79,808.682,315.09,810.182,315.09z"/>
</g>
</svg>
