<svg xmlns="http://www.w3.org/2000/svg" width="107.19" height="60" viewBox="0 0 107.19 60"><path fill="#FBC61A" d="M80.415 11.847c1.92-1.08 3.148-1.92 5.457-2.188 2.88-.3-1.08 6.835 4.678 2.877.96-.66 3.538-3.208 4.827-2.25 1.02.78 1.59 2.34 3.148 1.98 3.208-.72 4.617-5.727 4.287-8.605-.15-1.17-.84-2.968-2.13-3.358-1.888-.57-2.067 4.138-4.796 2.848-1.23-.57-1.29-2.1-2.67-2.58-1.678-.568-4.106 2.7-4.646 2.34-2.788-7.526-17.12 1.11-13.252 8.125 1.14 2.13 3.178 1.86 5.097.81"/><path fill="#585657" d="M12.833 29.507c0 3.358-1.8 5.217-4.468 5.217-1.68 0-2.608-.87-2.608-2.398 0-2.67 2.64-3.148 7.076-5.217v2.397zm-1.26-4.407c-.958.63-2.788.84-5.126 1.56C2.19 27.977.09 29.566.09 32.835c0 3.118 2.4 5.427 6.028 5.427 2.938 0 5.127-.96 6.806-3.148.63 2.16 2.1 3.148 4.587 3.148 3.78 0 5.218-2.278 5.218-7.256v-.9h-2.55c0 3.27-.09 4.618-1.318 4.618-.63 0-.96-.42-.96-1.438V24.47c0-2.908-.18-4.798-2.187-6.146-1.38-.93-3.568-1.44-6.417-1.44-5.127 0-8.156 2.22-8.156 5.248 0 1.92 1.38 3.268 3.358 3.268 1.77 0 2.938-1.08 2.938-2.698 0-1.438-.96-2.31-2.64-2.31h-.12c1.02-.898 2.28-1.228 3.99-1.228 2.788 0 4.317 1.14 4.317 3.18-.03 1.317-.42 2.066-1.41 2.756zM24.317 23v7.826c0 5.037 1.65 7.315 6.386 7.315 2.4 0 4.737-1.378 6.926-4.106v3.478h8.575v-2.818h-1.08c-2.16 0-2.428-.6-2.428-2.52v-14.51H33.28v2.818h1.95c2.127 0 2.428.6 2.428 2.52v5.127c0 4.466-2.19 6.775-5.157 6.775-2.368 0-3.118-1.35-3.118-4.078V17.664h-8.455v2.818h.96c2.16-.03 2.43.57 2.43 2.518M56.698 20.542c2.85 0 4.798 2.488 4.798 7.076 0 4.587-1.92 7.105-4.798 7.105-3.238 0-4.797-2.34-4.797-7.105 0-4.767 1.56-7.076 4.798-7.076m-1.98 17.54c3.24 0 5.368-1.26 6.777-4.047v3.448h8.695v-2.818h-1.2c-2.158 0-2.398-.6-2.398-2.52V9.3h-9.234v2.817h1.77c2.158 0 2.398.57 2.398 2.518v6.356c-1.38-2.757-3.538-4.076-6.777-4.076-5.338 0-8.546 3.838-8.546 10.584-.03 6.747 3.178 10.585 8.515 10.585zm30.134-3.417h-1.26c-2.158 0-2.428-.6-2.428-2.52v-14.48H72.08v2.817h1.56c2.158 0 2.398.6 2.398 2.52v9.145c0 1.948-.24 2.52-2.398 2.52h-1.56v2.817h12.772v-2.82zm11.124-14.783c3.658 0 5.517 2.55 5.517 7.706 0 5.127-1.858 7.646-5.517 7.646s-5.457-2.52-5.457-7.646c0-5.157 1.798-7.706 5.456-7.706m0 18.32c6.806 0 11.214-4.257 11.214-10.644 0-6.386-4.408-10.674-11.214-10.674-6.807 0-11.184 4.288-11.184 10.674 0 6.387 4.377 10.645 11.184 10.645zm-88.39 19.94h-.9c-1.468 0-1.768-.3-1.768-1.56v-4.498c0-2.76 1.71-4.468 4.138-4.468 2.1 0 2.73 1.26 2.73 4.078v4.857c0 1.26-.27 1.56-1.77 1.56h-.9v1.35h7.405v-1.35h-.6c-1.47 0-1.768-.3-1.768-1.56v-4.497c0-1.858-.06-3.268-.81-4.287-.81-1.08-2.01-1.65-3.658-1.65-2.07 0-3.718.87-4.767 2.61v-2.22H0v1.32h.78c1.47 0 1.77.33 1.77 1.59v7.135c0 1.26-.3 1.56-1.77 1.56H0v1.35h7.586v-1.32zm15.68-10.735c2.43 0 3.6 1.44 3.66 4.378h-7.407c.18-2.82 1.528-4.378 3.747-4.378m5.967 7.826h-1.62c-.6 2.068-2.008 3.178-4.107 3.178-2.608 0-4.048-1.737-4.048-5.006v-.18h10.193c-.03-4.678-2.25-7.196-6.326-7.196-3.928 0-6.537 2.79-6.537 6.986 0 4.258 2.7 6.986 6.537 6.986 3.328 0 5.277-1.59 5.907-4.767zm10.134-1.05h-1.26c0 2.91-.36 4.168-2.008 4.168-.9 0-1.32-.478-1.32-1.498v-8.965h3.96v-1.35h-3.96V41.41h-1.29c-.24 3.358-1.288 5.037-3.387 5.127v1.35h2.31v8.965c0 1.89 1.258 3.088 3.237 3.088 2.668 0 3.718-1.71 3.718-5.457v-.3zm22.458-6.326h.36v-1.32h-5.728v1.32h.87c.87 0 1.26.12 1.26.54 0 .24-.09.63-.24 1.08l-2.85 7.045-2.818-7.315c-.12-.24-.15-.48-.15-.72 0-.57.42-.63 1.32-.63h.78v-1.32h-6.447v1.32h.6c.9 0 1.23.39 1.5 1.14l.18.51-2.85 7.016-2.848-7.315c-.12-.27-.18-.48-.18-.69 0-.48.36-.66 1.05-.66h.9V46.54h-6.298v1.32h.48c.99 0 1.29.42 1.68 1.438l4.077 10.344h1.56l3.147-8.005 3.15 8.005h1.558l4.048-10.194c.45-1.08.87-1.59 1.89-1.59M73.58 53.014c0 3.598-1.62 5.547-4.44 5.547s-4.437-1.948-4.437-5.546 1.62-5.577 4.438-5.577 4.44 1.98 4.44 5.577m-11.575 0c0 4.138 2.998 6.956 7.105 6.956 4.108 0 7.106-2.818 7.106-6.956s-2.998-6.986-7.106-6.986c-4.107 0-7.105 2.848-7.105 6.986zm23.717-3.418c0 .78.66 1.41 1.528 1.41.96 0 1.68-.81 1.68-1.95 0-1.59-1.23-2.908-3.118-2.908-1.71 0-3 1.05-3.958 3.118v-2.698h-4.917v1.32h.78c1.47 0 1.798.33 1.798 1.588v7.136c0 1.26-.3 1.56-1.8 1.56h-.778v1.35h8.005v-1.35h-1.35c-1.498 0-1.77-.3-1.77-1.56v-3.088c0-3.778 1.83-6.087 3.84-6.087.63 0 1.108.21 1.528.81h-.18c-.75-.03-1.288.54-1.288 1.35m7.705 6.985v-1.648l2.28-1.74 3.507 3.84c.21.21.33.42.33.6 0 .33-.51.51-1.56.51h-.72v1.35h7.855v-1.35h-.42c-1.05 0-1.95-.42-2.73-1.23l-4.587-5.037 3.48-2.818c1.108-.87 1.888-1.17 3.117-1.17h.42v-1.35h-8.096v1.35h1.26c.99 0 1.47.09 1.47.42 0 .36-.3.69-.81 1.08l-4.77 3.776V41.05H88.69v1.32h.75c1.5 0 1.77.3 1.77 1.56V56.55c0 1.26-.27 1.56-1.77 1.56h-.75v1.35h7.137v-1.35h-.6c-1.5.03-1.8-.27-1.8-1.53"/></svg>