<svg xmlns="http://www.w3.org/2000/svg" viewBox="0 0 701 165" enable-background="new 0 0 701 165"><g fill="#595758"><path d="M313.3 29.3c-13.9-14.2-32.5-22-52.2-22-19.7 0-38.3 7.8-52.2 22-13.9 14.2-21.6 33.1-21.6 53.1 0 20.1 7.7 38.9 21.6 53.1 13.9 14.2 32.5 22 52.2 22 19.7 0 38.3-7.8 52.2-22 13.9-14.2 21.6-33.1 21.6-53.1 0-20.1-7.6-38.9-21.6-53.1zm-.1 106.1c-13.9 14.2-32.4 21.9-52.1 21.9-19.7 0-38.2-7.8-52.1-21.9-13.9-14.2-21.6-33-21.6-53s7.7-38.8 21.6-53c14-14.1 32.4-21.9 52.1-21.9 19.7 0 38.2 7.8 52.1 21.9 13.9 14.2 21.6 33 21.6 53-.1 20-7.7 38.8-21.6 53zM307.1 35.6c-12.3-12.5-28.6-19.4-46-19.4s-33.7 6.9-46 19.4c-9.1 9.2-15.1 20.7-17.7 33.2-.8 1-1.5 2.1-2.1 3.2-1.5 2.9-2.3 6.4-2.3 10.3 0 2.5.4 4.9 1.1 7.2.7 2 1.7 3.9 3.1 5.8 2.5 12.8 8.6 24.6 17.8 34 12.3 12.5 28.6 19.4 46 19.4s33.7-6.9 46-19.4c12.3-12.5 19.1-29.2 19.1-46.9.1-17.7-6.7-34.3-19-46.8zm-.6 93.1c-12.1 12.4-28.3 19.2-45.4 19.2-17.2 0-33.3-6.8-45.4-19.2-8.7-8.9-14.6-19.9-17.2-31.8 1.3 1.5 2.8 2.8 4.5 3.9 1.8 1.1 3.6 2 5.6 2.7 2.8 7.3 7.1 13.9 12.6 19.6 10.7 10.9 24.8 16.8 39.9 16.8 15.1 0 29.3-6 39.9-16.8 10.7-10.9 16.5-25.3 16.5-40.6 0-2.8-.2-5.6-.6-8.3l4.6-13.3h-8.1c-2.8-7-7-13.5-12.4-19-10.7-10.9-24.8-16.8-39.9-16.8-15.1 0-29.3 6-39.9 16.8-5.5 5.6-9.8 12.2-12.6 19.4-2.7.8-5.1 1.9-7.3 3.6-1 .7-1.9 1.6-2.7 2.5 2.7-11.7 8.5-22.4 17.1-31.1 12.1-12.5 28.2-19.3 45.4-19.3s33.3 6.8 45.4 19.2c12.1 12.4 18.8 28.8 18.8 46.2.1 17.5-6.6 33.9-18.8 46.3zm-88.9-59.2c1.4.3 2.8.8 4.2 1.6.5.3 1 .6 1.4 1-.9 3.3-1.3 6.7-1.3 10.2 0 3.5.4 6.8 1.3 10.1l-1.1.9c-1.3 1-2.8 1.6-4.4 1.9-1.2-4.1-1.8-8.5-1.8-12.9-.1-4.3.5-8.6 1.7-12.8zm43.5 44.1c16 0 29.2-12.6 30.5-28.5l3.3 9.6c-5 14.1-18.2 24.3-33.8 24.3-13.8 0-25.7-8-31.7-19.6 1.4-1.2 2.7-2.6 3.9-4.1 4.7 10.7 15.4 18.3 27.8 18.3zm-26.4-31.2c0-14.8 11.8-26.8 26.4-26.8 14.5 0 26.4 12 26.4 26.8s-11.8 26.8-26.4 26.8c-14.5.1-26.4-12-26.4-26.8zm48.6-21.6l.1.3c-5.6-6-13.5-9.8-22.3-9.8-12.3 0-23 7.5-27.8 18.2-1.1-1.6-2.4-3-3.9-4.1 6-11.6 18-19.5 31.7-19.5 11.8 0 22.3 5.8 28.8 14.8h-6.6zm-57.2 15.1l6-3.4c-1 3.1-1.6 6.4-1.6 9.9 0 3.4.5 6.6 1.5 9.7l-5.9-3.3-.3.4c-.4-2.2-.6-4.5-.6-6.8 0-2.4.2-4.7.7-6.9.1.2.2.3.2.4zm.5 25.4c6.6 12.5 19.6 21 34.5 21 15.6 0 29.1-9.3 35.4-22.8l1.5 4.3h3.2c-2.1 4.1-4.8 7.8-8.1 11.2-8.6 8.7-19.9 13.5-32 13.5-12.1 0-23.5-4.8-32-13.5-3.3-3.4-6-7.2-8.2-11.3.9-.2 1.8-.5 2.7-.9 1-.4 2-.9 3-1.5zm73.7-19c-.1-21.9-17.6-39.8-39.2-39.8-14.9 0-27.9 8.5-34.5 21-1.8-1.1-3.7-1.9-5.7-2.4 2.1-4.1 4.8-7.9 8.1-11.3 8.6-8.7 19.9-13.5 32-13.5 12.1 0 23.5 4.8 32 13.5 7.3 7.5 11.8 17.1 13 27.4l-3.2 9.3h-1.1l-1.4-4.2zm-82 21.9c2.3 4.6 5.3 8.9 9 12.6 9 9.2 21.1 14.3 33.8 14.3 12.8 0 24.8-5.1 33.8-14.3 3.8-3.9 6.8-8.2 9.1-13h2.7l8.9-26c.1 1.5.2 3 .2 4.5 0 14.9-5.7 28.9-16 39.4s-24.1 16.3-38.7 16.3c-14.6 0-28.4-5.8-38.7-16.3-5.1-5.2-9.1-11.2-11.8-17.8.8.2 1.6.3 2.4.4 1.2.1 2.4.1 3.7 0 .5.1 1.1 0 1.6-.1zm89.6-32.1c-1.9-9.1-6.4-17.4-13-24.1-9-9.2-21.1-14.3-33.8-14.3-12.8 0-24.8 5.1-33.8 14.3-3.7 3.7-6.7 8-8.9 12.5-2.6-.4-5.2-.3-7.7.2 2.7-6.5 6.7-12.5 11.7-17.7 10.3-10.5 24.1-16.3 38.7-16.3 14.6 0 28.4 5.8 38.7 16.3 5.2 5.2 9.1 11.3 11.9 18l-3.8 11.1zm-98-1.6c1.7-.7 3.4-1.1 5.1-1.1-1.1 4.2-1.8 8.6-1.8 13.1s.6 8.9 1.8 13.2c-1.5 0-2.9-.3-4.3-.8-1.3-.5-2.5-1.3-3.5-2.2-.6-3.3-.9-6.7-.9-10.1 0-3.5.3-7 .9-10.3.9-.9 1.7-1.4 2.7-1.8zm-4.8 19.7c-.5-.8-1-1.6-1.4-2.6-.7-1.7-1.1-3.4-1.2-5.3 0-2.9.8-5.6 2.4-7.9l.2-.3c-.4 2.7-.6 5.5-.6 8.3.1 2.6.3 5.2.6 7.8z"/></g><path fill="#595758" d="M261.1 60.2c3.1 0 5.9.6 8.6 1.7 2.7 1.2 5 2.7 7 4.8 2 2 3.6 4.3 4.8 7 1.2 2.7 1.7 5.5 1.7 8.6 0 3.1-.6 5.9-1.7 8.6-1.2 2.7-2.7 5-4.8 7-2 2-4.3 3.6-7 4.8-2.7 1.2-5.5 1.7-8.6 1.7-3.1 0-5.9-.6-8.6-1.7-2.7-1.2-5-2.7-7-4.8-2-2-3.6-4.3-4.8-7-1.2-2.7-1.7-5.5-1.7-8.6 0-3.1.6-5.9 1.7-8.6 1.2-2.7 2.7-5 4.8-7 2-2 4.3-3.6 7-4.8 2.6-1.1 5.5-1.7 8.6-1.7zm0 35.4c1.8 0 3.4-.3 4.9-1 1.5-.7 2.9-1.6 4-2.8 1.1-1.2 2-2.6 2.7-4.2.7-1.6 1-3.4 1-5.2 0-1.8-.3-3.5-1-5.1-.7-1.6-1.6-3-2.7-4.2-1.1-1.2-2.5-2.1-4-2.8-1.5-.7-3.2-1-4.9-1-1.8 0-3.4.3-4.9 1-1.5.7-2.9 1.6-4 2.8-1.1 1.2-2 2.6-2.7 4.2-.7 1.6-1 3.3-1 5.1 0 1.8.3 3.5 1 5.2.7 1.6 1.6 3 2.7 4.2 1.1 1.2 2.5 2.1 4 2.8 1.4.6 3.1 1 4.9 1z"/><path d="M306.5 36.2c-12.1-12.4-28.2-19.2-45.4-19.2s-33.3 6.8-45.4 19.2c-12.1 12.4-18.8 28.8-18.8 46.2 0 17.5 6.7 33.9 18.8 46.2 12.1 12.4 28.3 19.2 45.4 19.2 17.2 0 33.3-6.8 45.4-19.2 12.1-12.4 18.8-28.8 18.8-46.2.1-17.5-6.6-33.9-18.8-46.2zm-5.5 86.9c-10.7 10.9-24.8 16.8-39.9 16.8-15.1 0-29.3-6-39.9-16.8-10.7-10.9-16.5-25.3-16.5-40.6 0-15.4 5.9-29.8 16.5-40.6 10.7-10.9 24.8-16.8 39.9-16.8 15.1 0 29.3 6 39.9 16.8 10.7 10.9 16.5 25.3 16.5 40.6.1 15.3-5.8 29.7-16.5 40.6zM261.1 55.6c-14.5 0-26.4 12-26.4 26.8s11.8 26.8 26.4 26.8c14.5 0 26.4-12 26.4-26.8s-11.9-26.8-26.4-26.8zm0 49.2c-12.1 0-22-10-22-22.4s9.9-22.4 22-22.4 22 10 22 22.4-9.9 22.4-22 22.4zM299.8 43c-10.3-10.5-24.1-16.3-38.7-16.3-14.6 0-28.4 5.8-38.7 16.3-10.3 10.5-16 24.5-16 39.4 0 14.9 5.7 28.9 16 39.4s24.1 16.3 38.7 16.3c14.6 0 28.4-5.8 38.7-16.3 10.3-10.5 16-24.5 16-39.4.1-14.9-5.6-28.9-16-39.4zm-4.9 73.9c-9 9.2-21.1 14.3-33.8 14.3-12.8 0-24.8-5.1-33.8-14.3-9-9.2-14-21.4-14-34.4s5-25.2 14-34.4 21.1-14.3 33.8-14.3c12.8 0 24.8 5.1 33.8 14.3 9 9.2 14 21.4 14 34.4.1 12.9-4.9 25.2-14 34.4zM293.1 49.8c-8.6-8.7-19.9-13.5-32-13.5-12.1 0-23.5 4.8-32 13.5-8.6 8.7-13.3 20.3-13.3 32.6s4.7 23.9 13.3 32.6c8.6 8.7 19.9 13.5 32 13.5 12.1 0 23.5-4.8 32-13.5 8.6-8.7 13.3-20.3 13.3-32.6s-4.7-23.9-13.3-32.6zm-32 72.5c-21.6 0-39.2-17.9-39.2-39.9s17.6-39.9 39.2-39.9 39.2 17.9 39.2 39.9-17.6 39.9-39.2 39.9zM313.2 29.4c-13.9-14.2-32.4-21.9-52.1-21.9-19.7 0-38.2 7.8-52.1 21.9-13.9 14.2-21.6 33-21.6 53s7.7 38.8 21.6 53c13.9 14.2 32.4 21.9 52.1 21.9s38.2-7.8 52.1-21.9c13.9-14.2 21.6-33 21.6-53-.1-20-7.7-38.8-21.6-53zm-6.1 99.9c-12.3 12.5-28.6 19.4-46 19.4s-33.7-6.9-46-19.4c-12.3-12.5-19.1-29.2-19.1-46.9s6.8-34.3 19.1-46.9c12.3-12.5 28.6-19.4 46-19.4s33.7 6.9 46 19.4c12.3 12.5 19.1 29.2 19.1 46.9s-6.8 34.4-19.1 46.9zM261.1 45.9c-19.8 0-35.8 16.4-35.8 36.5s16.1 36.5 35.8 36.5c19.8 0 35.8-16.4 35.8-36.5s-16-36.5-35.8-36.5zm0 67.7c-16.9 0-30.6-14-30.6-31.1 0-17.2 13.7-31.1 30.6-31.1 16.9 0 30.6 14 30.6 31.1s-13.7 31.1-30.6 31.1z" fill="none"/><path fill="#595758" d="M48.3 44.8v59.099999999999994h-8.7l-1.2-2.4c-1 .6-2.2 1.1-3.6 1.5-1.9.6-3.8.8-5.6.8-1.9 0-3.9-.3-5.7-.8-1.8-.6-3.5-1.4-5.2-2.4-1.6-1.1-3-2.4-4.2-3.9-1.2-1.5-2.2-3.2-2.9-5-.3-.9-.6-1.7-.8-2.4-.2-.8-.3-1.8-.5-3.2v-48.1h9.9v47.3c0 1.3.3 2.7 1 4 .7 1.4 1.6 2.5 2.8 3.4 1.6 1.3 3.4 1.9 5.5 1.9 1.3 0 2.4-.2 3.5-.8 1.1-.5 2.1-1.2 2.9-2.1.8-.9 1.5-1.9 2-3.1.5-1.2.8-2.4.9-3.7v-46.9h9.9v6.8zM90.1 103.9h-9.5v-27.5c0-.2 0-.5-.1-.7-.3-.9-.5-1.7-.8-2.4-.9-1.6-2.1-2.8-3.7-3.6-.8-.3-1.6-.5-2.5-.7-.9-.2-1.8-.1-2.7 0-1.9.4-3.5 1.3-4.8 2.7-.7.7-1.3 1.6-1.7 2.7-.5 1.1-.7 2.2-.7 3.3v26h-9.5v-42.9h9.5l1.9 1.3c.5-.2 1-.5 1.6-.7.5-.2 1.1-.4 1.6-.5 1.7-.6 3.5-.8 5.5-.7 2 .1 3.9.5 5.6 1.2 1.6.6 3.2 1.6 4.7 2.9 1.4 1.3 2.6 2.8 3.6 4.4.7 1.2 1.2 2.5 1.6 3.9.4 1.4.6 2.8.6 4.3v27zM136.8 38v65.9h-9.5v-.1l-1.9-1.9c-.3.1-.6.3-.8.4l-.8.4c-2.5 1.1-5.3 1.8-8.4 1.9-3 0-5.8-.6-8.5-1.7-2.8-1.1-5.1-2.8-7.2-4.9-1.1-1-2-2.1-2.8-3.3-.8-1.2-1.5-2.5-2-3.8-1-2.6-1.5-5.4-1.6-8.3 0-2.9.5-5.8 1.6-8.6.5-1.3 1.2-2.6 2-3.8.8-1.2 1.8-2.3 2.8-3.4 2-2.1 4.4-3.8 7.2-4.9 2.6-1.1 5.5-1.7 8.5-1.7 3.1.1 5.9.8 8.4 1.9.7.3 1.3.5 1.9.9.6.3 1.1.7 1.7 1.1v-26.1h9.4zm-21.5 57.3c1.6.1 3.2-.2 4.8-.9 1.6-.7 3-1.6 4.3-2.8 1.2-1.2 2.2-2.6 2.9-4.2.6-1.5.9-3.2.9-5.1 0-1.9-.3-3.6-.9-5.1-.8-1.6-1.7-3-2.9-4.2-1.3-1.2-2.7-2.1-4.3-2.7-1.6-.6-3.2-.9-4.8-.9-.9.1-1.7.2-2.5.3-.8.2-1.6.4-2.3.7-1.5.7-2.9 1.7-4 2.9-.6.6-1.2 1.2-1.6 1.9-.4.7-.8 1.5-1.1 2.2l-.4 1.2-.3 1.2c-.3 1.9-.2 3.9.3 6.1.5 2.2 1.6 4 3.1 5.5 1.2 1.3 2.5 2.2 4 2.9 1.6.7 3.2 1 4.8 1zM152.4 103.9h-9.5v-43.1h9.5v43.1zM174.1 104.5c-2.2 0-4.3-.4-6.2-1.1-1.9-.7-3.6-1.7-5.1-3-1.4-1.3-2.6-2.8-3.4-4.5-.8-1.7-1.2-3.5-1.2-5.5h9.3c0 1.2.6 2.3 1.9 3.3 1.3 1 2.8 1.5 4.7 1.5 1.8 0 3.3-.5 4.6-1.5 1.3-1 1.9-2.1 1.9-3.4 0-.9-.4-1.7-1.1-2.5s-1.8-1.4-3-1.7l-6.8-2c-2.9-.9-5.2-2.4-7-4.5-1.8-2.1-2.6-4.5-2.6-7.2 0-1.7.4-3.3 1.1-4.8.7-1.5 1.7-2.8 3-3.9s2.8-2 4.5-2.6c1.7-.7 3.5-1 5.5-1 4 0 7.4 1.3 10.2 4l-6.5 6.8c-.4-.4-1-.8-1.6-1.2-.7-.3-1.3-.5-2-.5-1.4 0-2.5.3-3.3 1-.8.7-1.3 1.4-1.3 2.3 0 .6.2 1.1.8 1.7.5.6 1.2 1 2.1 1.2l6.8 2c3.3.9 5.9 2.6 7.9 5s3 5.1 3 8.1c0 1.9-.4 3.8-1.2 5.5-.8 1.7-1.9 3.2-3.4 4.5-1.4 1.3-3.1 2.3-5 3-2.3.7-4.4 1-6.6 1zM389.4 60.8c.5.1 1 .1 1.4.1.4 0 .9.1 1.4.2l-2.6 8.8c-.4-.1-.7-.2-.9-.2-1-.1-1.9-.1-2.6.1-1.8.3-3.4 1.2-4.8 2.6-.3.4-.6.8-.9 1.1-.3.4-.5.8-.7 1.3-.1.3-.3.9-.5 1.7-.2.8-.3 1.6-.3 2.4v24.8h-9.5v-42.9h9.5l2 1.9c.5-.3 1-.5 1.5-.7.5-.2 1-.4 1.6-.5l2.7-.6c.8-.2 1.7-.2 2.7-.1zM433 84.1h-31l-.9.8.3 1.3c.1.4.2.8.4 1.3.5 1.3 1.2 2.5 2.2 3.7 1 1.1 2.1 2 3.3 2.7 1.4.8 2.7 1.3 4 1.5.4.1.8.1 1.1.1h2.1c.4 0 .7-.1 1-.1 1.4-.3 2.8-.8 4-1.6.6-.4 1.2-.8 1.7-1.3s1-1 1.5-1.6l7.2 6.3c-1.6 1.8-3.6 3.3-5.8 4.5-1.5.9-3.2 1.6-4.9 2-1.8.5-3.7.7-5.7.7-2.4 0-4.8-.4-7.2-1.1-1.1-.4-2.3-.8-3.4-1.4-2.2-1.2-4.2-2.7-5.9-4.5-1.7-1.8-3.1-3.9-4-6.2-.9-2.3-1.5-4.6-1.8-7.1-.3-2.4-.1-4.9.4-7.2.5-2.4 1.4-4.6 2.7-6.8 1.3-2.1 3.1-4 5.4-5.6 1.1-.7 2.1-1.3 3.2-1.9 1.1-.6 2.2-1.1 3.5-1.5.3-.1 1-.3 2-.4 1-.2 2.2-.3 3.6-.3 1.4-.1 2.9 0 4.4.2 1.6.2 3.1.6 4.5 1.1 2.4.9 4.5 2.2 6.4 4 1.9 1.8 3.4 4 4.3 6.5.2.6.5 1.2.6 1.8.2.6.3 1.2.4 1.8.1.4.1.8.2 1.4.1.5.1 1.3.2 2.3v4.6zm-23.9-14.5c-1.3.4-2.4 1-3.3 1.7-.9.7-1.8 1.6-2.6 2.7l.4 1.1h19.2c-.4-1-1-2-1.9-2.9-.5-.5-1.2-1-2-1.5s-1.8-.8-2.9-1.1c-1.1-.3-2.2-.5-3.4-.5-1.2 0-2.3.1-3.5.5zM481.1 38v65.9h-9.5v-.1l-1.9-1.9c-.3.1-.6.3-.8.4l-.8.4c-2.5 1.1-5.3 1.8-8.4 1.9-3 0-5.8-.6-8.5-1.7-2.8-1.1-5.1-2.8-7.2-4.9-1.1-1-2-2.1-2.8-3.3-.8-1.2-1.5-2.5-2-3.8-1-2.6-1.5-5.4-1.6-8.3 0-2.9.5-5.8 1.6-8.6.5-1.3 1.2-2.6 2-3.8.8-1.2 1.8-2.3 2.8-3.4 2-2.1 4.4-3.8 7.2-4.9 2.6-1.1 5.5-1.7 8.5-1.7 3.1.1 5.9.8 8.4 1.9.7.3 1.3.5 1.9.9.6.3 1.1.7 1.7 1.1v-26.1h9.4zm-21.4 57.3c1.6.1 3.2-.2 4.8-.9 1.6-.7 3-1.6 4.3-2.8 1.2-1.2 2.2-2.6 2.9-4.2.6-1.5.9-3.2.9-5.1 0-1.9-.3-3.6-.9-5.1-.8-1.6-1.7-3-2.9-4.2-1.3-1.2-2.7-2.1-4.3-2.7-1.6-.6-3.2-.9-4.8-.9-.9.1-1.7.2-2.5.3-.8.2-1.6.4-2.3.7-1.5.7-2.9 1.7-4 2.9-.6.6-1.2 1.2-1.6 1.9-.4.7-.8 1.5-1.1 2.2l-.4 1.2-.3 1.2c-.3 1.9-.2 3.9.3 6.1.5 2.2 1.6 4 3.1 5.5 1.2 1.3 2.5 2.2 4 2.9 1.5.7 3.1 1 4.8 1zM152.7 46.8c0-.1-.2-.3-.3-.5l-.6-.7c-.1-.1-.2-.2-.4-.3-1.2-1.2-2.8-2.7-3.1-3.3h-1.4000000000000001c-.3.6-1.9 2.1-3.1 3.3l-.4.3-.6.7c-.2.2-.3.3-.3.5-.5.9-.8 1.9-.8 3 0 1.6.6 3 1.7 4.1 1.1 1.1 2.5 1.7 4.1 1.7 1.6 0 3-.6 4.1-1.7 1.1-1.1 1.7-2.5 1.7-4.1.2-1.2-.1-2.1-.6-3zM364.1 84.1h-31l-.9.8.3 1.3c.1.4.2.8.4 1.3.5 1.3 1.2 2.5 2.2 3.7 1 1.1 2.1 2 3.3 2.7 1.4.8 2.7 1.3 4 1.5.4.1.8.1 1.1.1h2.1c.4 0 .7-.1 1-.1 1.4-.3 2.8-.8 4-1.6.6-.4 1.2-.8 1.7-1.3s1-1 1.5-1.6l7.2 6.3c-1.6 1.8-3.6 3.3-5.8 4.5-1.5.9-3.2 1.6-4.9 2-1.8.5-3.7.7-5.7.7-2.4 0-4.8-.4-7.2-1.1-1.1-.4-2.3-.8-3.4-1.4-2.2-1.2-4.2-2.7-5.9-4.5-1.7-1.8-3.1-3.9-4-6.2-.9-2.3-1.5-4.6-1.8-7.1-.3-2.4-.1-4.9.4-7.2.5-2.4 1.4-4.6 2.7-6.8 1.3-2.1 3.1-4 5.4-5.6 1.1-.7 2.1-1.3 3.2-1.9 1.1-.6 2.2-1.1 3.5-1.5.3-.1 1-.3 2-.4 1-.2 2.2-.3 3.6-.3 1.4-.1 2.9 0 4.4.2 1.6.2 3.1.6 4.5 1.1 2.4.9 4.5 2.2 6.4 4 1.9 1.8 3.4 4 4.3 6.5.2.6.5 1.2.6 1.8.2.6.3 1.2.4 1.8.1.4.1.8.2 1.4.1.5.1 1.3.2 2.3v4.6zm-23.9-14.5c-1.3.4-2.4 1-3.3 1.7-.9.7-1.8 1.6-2.6 2.7l.4 1.1h19.2c-.4-1-1-2-1.9-2.9-.5-.5-1.2-1-2-1.5s-1.8-.8-2.9-1.1c-1.1-.3-2.2-.5-3.4-.5-1.2 0-2.4.1-3.5.5z"/><linearGradient id="a" gradientUnits="userSpaceOnUse" x1="331.898" y1="12.155" x2="331.898" y2="12.155"><stop offset=".153" stop-color="#FBC61C"/><stop offset=".556" stop-color="#7A600E"/><stop offset=".85" stop-color="#221B04"/><stop offset=".982"/></linearGradient><path fill="url(#a)" d="M331.9 12.2"/><linearGradient id="b" gradientUnits="userSpaceOnUse" x1="885.31" y1="2831.593" x2="868.548" y2="2882.235" gradientTransform="matrix(.665 -.747 .747 .665 -2463.883 -1200.623)"><stop offset=".692" stop-color="#FBC61C"/><stop offset=".709" stop-color="#E8B930"/><stop offset=".774" stop-color="#B1924F"/><stop offset=".835" stop-color="#887657"/><stop offset=".892" stop-color="#6E6459"/><stop offset=".943" stop-color="#5E5A58"/><stop offset=".982" stop-color="#595758"/></linearGradient><path fill="url(#b)" d="M279 62.8l2.8-3.2c-11.7-11.1-29.4-10.9-40.8-.6l2.7 3.2c9.9-8.9 25.4-9 35.3.6z"/><linearGradient id="c" gradientUnits="userSpaceOnUse" x1="896.227" y1="2832.782" x2="880.515" y2="2880.346" gradientTransform="matrix(.657 -.74 .739 .66 -2434.422 -1205.109)"><stop offset=".692" stop-color="#FBC61C"/><stop offset=".709" stop-color="#E8B930"/><stop offset=".774" stop-color="#B1924F"/><stop offset=".835" stop-color="#887657"/><stop offset=".892" stop-color="#6E6459"/><stop offset=".943" stop-color="#5E5A58"/><stop offset=".982" stop-color="#595758"/></linearGradient><path fill="url(#c)" d="M257 7.6c12.2-.7 24 1.6 35 6.7 6.6 3.1 12.9 7.3 18.5 12.5l.1-.2c-14.8-13.4-32.6-20.2-53.5-19.2-16.5.8-31.7 7.3-43.9 17.8l.1.2c12.2-10.6 27.3-16.9 43.7-17.8z"/><linearGradient id="d" gradientUnits="userSpaceOnUse" x1="889.032" y1="2831.113" x2="872.71" y2="2880.424" gradientTransform="matrix(.665 -.747 .747 .665 -2463.883 -1200.623)"><stop offset=".692" stop-color="#FBC61C"/><stop offset=".709" stop-color="#E8B930"/><stop offset=".774" stop-color="#B1924F"/><stop offset=".835" stop-color="#887657"/><stop offset=".892" stop-color="#6E6459"/><stop offset=".943" stop-color="#5E5A58"/><stop offset=".982" stop-color="#595758"/></linearGradient><path fill="url(#d)" d="M285.3 55.6l2.3-2.5c-14.8-14-37.5-13.9-52.3-.7l2.2 2.6c13.6-12.1 34.3-12.2 47.8.6z"/><linearGradient id="e" gradientUnits="userSpaceOnUse" x1="900.977" y1="2827.519" x2="885.291" y2="2874.909" gradientTransform="matrix(.665 -.747 .747 .665 -2463.883 -1200.623)"><stop offset=".692" stop-color="#FBC61C"/><stop offset=".709" stop-color="#E8B930"/><stop offset=".774" stop-color="#B1924F"/><stop offset=".835" stop-color="#887657"/><stop offset=".892" stop-color="#6E6459"/><stop offset=".943" stop-color="#5E5A58"/><stop offset=".982" stop-color="#595758"/></linearGradient><path fill="url(#e)" d="M257.8 17.1c17.2-.9 33.2 4.9 46.4 16.8l.7-.5c-13.3-12.2-29.7-18.1-47.3-17.2-14.7.7-28.2 6.4-39 15.9l.6.6c11-9.3 24-14.9 38.6-15.6z"/><linearGradient id="f" gradientUnits="userSpaceOnUse" x1="896.815" y1="2828.948" x2="881.007" y2="2876.706" gradientTransform="matrix(.665 -.747 .747 .665 -2463.883 -1200.623)"><stop offset=".692" stop-color="#FBC61C"/><stop offset=".709" stop-color="#E8B930"/><stop offset=".774" stop-color="#B1924F"/><stop offset=".835" stop-color="#887657"/><stop offset=".892" stop-color="#6E6459"/><stop offset=".943" stop-color="#5E5A58"/><stop offset=".982" stop-color="#595758"/></linearGradient><path fill="url(#f)" d="M258.6 26.7c14.8-.6 28.2 4.5 39.3 14.4l1.2-1.2c-11.6-10.6-24.8-15.2-40-15-12.8.2-25.6 5.8-35 14l1.1 1.3c10-8.5 21.4-13 33.4-13.5z"/><linearGradient id="g" gradientUnits="userSpaceOnUse" x1="892.842" y1="2830.093" x2="876.781" y2="2878.619" gradientTransform="matrix(.665 -.747 .747 .665 -2463.883 -1200.623)"><stop offset=".692" stop-color="#FBC61C"/><stop offset=".709" stop-color="#E8B930"/><stop offset=".774" stop-color="#B1924F"/><stop offset=".835" stop-color="#887657"/><stop offset=".892" stop-color="#6E6459"/><stop offset=".943" stop-color="#5E5A58"/><stop offset=".982" stop-color="#595758"/></linearGradient><path fill="url(#g)" d="M258.7 36.3c12.2-.6 23.5 3.4 33 12.1l1.6-2c-10.2-9.2-22-13.3-34.9-12.7-10.9.5-20.8 4.9-28.8 11.9l1.6 2c7.2-6.3 17.1-10.8 27.5-11.3z"/><path fill="#595758" d="M501.3 38h2v91.8h-2z"/><g fill="#595758"><path d="M344.3 117.9h-6.1c-.3 0-.6.3-.6.6v11.1c0 .3.3.6.6.6h.1c.3 0 .6-.3.6-.6v-5.2h5.1c.3 0 .6-.3.6-.6s-.3-.6-.6-.6h-5.1v-4h5.4c.3 0 .6-.3.6-.6 0-.5-.2-.7-.6-.7zM348.7 120.9c-2.1 0-3.2.8-3.2 2.4v4.7c0 1.6 1.1 2.4 3.2 2.4s3.2-.8 3.2-2.4v-4.7c0-1.6-1.1-2.4-3.2-2.4zm1.9 2.3v4.7c0 .4 0 1.1-2 1.1s-2-.7-2-1.1v-4.7c0-.4 0-1.1 2-1.1s2 .8 2 1.1zM359.5 121c-.3 0-.6.3-.6.6v6.6c-.4.3-1.2.8-2.4.8-1 0-1.5-.4-1.5-1.1v-6.3c0-.3-.3-.6-.7-.6-.3 0-.6.3-.6.6v6.3c0 1.5 1 2.4 2.7 2.4 1 0 1.8-.3 2.4-.6.1.3.3.5.6.5s.6-.3.6-.6v-7.9c.2-.4-.1-.7-.5-.7zM366.1 120.9c-1 0-1.9.3-2.5.6 0-.3-.3-.5-.6-.5s-.6.3-.6.6v7.9c0 .3.3.6.7.6.3 0 .6-.3.6-.6v-6.5c.5-.4 1.3-.8 2.5-.8 1 0 1.5.4 1.5 1.1v6.3c0 .3.3.6.6.6h.1c.3 0 .6-.3.6-.6v-6.3c-.2-1.5-1.2-2.4-2.9-2.4zM376.5 117.6c-.3 0-.6.3-.6.6v3.4c-.6-.3-1.5-.6-2.5-.6-1.7 0-2.7.9-2.7 2.4v4.7c0 1.5 1 2.4 2.7 2.4 1 0 1.9-.3 2.5-.6 0 .3.3.5.6.5s.6-.3.6-.6v-11.4c.1-.6-.2-.8-.6-.8zm-4.5 5.6c0-.9.8-1.1 1.5-1.1 1.2 0 2 .5 2.5.8v5.2c-.6.4-1.4.8-2.5.8-.7 0-1.5-.2-1.5-1.1v-4.6zM379.9 127.7c-.3 0-.6.3-.6.6v1.2c0 .3.3.6.6.6h.1c.3 0 .6-.3.6-.6v-1.2c-.1-.3-.3-.6-.7-.6zM393.2 128.9h-5v-10.4c0-.3-.3-.6-.7-.6-.3 0-.6.3-.6.6v11.1c0 .3.3.6.6.6h5.6c.3 0 .6-.3.6-.6.1-.4-.2-.7-.5-.7zM397.9 120.9c-2.1 0-3.2.8-3.2 2.4v4.7c0 1.6 1.1 2.4 3.2 2.4s3.2-.8 3.2-2.4v-4.7c.1-1.6-1-2.4-3.2-2.4zm2 2.3v4.7c0 .4 0 1.1-2 1.1s-2-.7-2-1.1v-4.7c0-.4 0-1.1 2-1.1s2 .8 2 1.1zM408 121c-.3 0-.5.2-.6.4l-2.1 6.2-2.1-6.1c-.1-.3-.3-.5-.7-.5-.2 0-.4.1-.5.2l-.2.3 2.8 8.1c.1.2.2.4.4.4l.3.9.2-1c.2-.1.3-.2.3-.4l2.7-7.9.1-.3-.1-.2c-.1 0-.2-.1-.5-.1zM412.6 120.9c-2.1 0-3.2.8-3.2 2.4v4.7c0 1.6 1.1 2.4 3.2 2.4s3.2-.8 3.2-2.4v-.5c0-.3-.3-.6-.7-.6-.3 0-.6.3-.6.6v.5c0 .4 0 1.1-2 1.1s-2-.7-2-1.1v-2h4.6c.3 0 .6-.3.6-.6v-2.1c.1-1.6-1-2.4-3.1-2.4zm-2 3.8v-1.4c0-.4 0-1.1 2-1.1s2 .7 2 1.1v1.4h-4zM423.2 117.6c-.3 0-.6.3-.6.6v3.4c-.6-.3-1.5-.6-2.5-.6-1.7 0-2.7.9-2.7 2.4v4.7c0 1.5 1 2.4 2.7 2.4 1 0 1.9-.3 2.5-.6 0 .3.3.5.6.5s.6-.3.6-.6v-11.4c.1-.6-.2-.8-.6-.8zm-4.5 5.6c0-.9.8-1.1 1.5-1.1 1.2 0 2 .5 2.5.8v5.2c-.6.4-1.4.8-2.5.8-.7 0-1.5-.2-1.5-1.1v-4.6zM426.6 127.7c-.3 0-.6.3-.6.6v1.2c0 .3.3.6.6.6h.1c.3 0 .6-.3.6-.6v-1.2c-.1-.3-.3-.6-.7-.6zM438.9 123.7l-3.3-1.3c-.3-.1-.9-.4-.9-1.2v-.8c0-.5 0-1.4 2.4-1.4s2.4.9 2.4 1.4v.9c0 .3.3.6.7.6.3 0 .6-.3.6-.6v-.9c0-1.8-1.2-2.7-3.6-2.7-2.4 0-3.6.9-3.6 2.7v.8c0 1.6 1.3 2.2 1.7 2.3l3.3 1.3c.5.2 1 .6 1 1.2v1.5c0 .5 0 1.4-2.5 1.4-2.4 0-2.4-.9-2.4-1.4v-.8c0-.3-.3-.6-.7-.6-.3 0-.6.3-.6.6v.8c0 1.8 1.2 2.7 3.7 2.7s3.7-.9 3.7-2.7v-1.5c-.1-1-.8-1.8-1.9-2.3zM443.3 117.6c-.3 0-.6.3-.6.6v1.6c0 .3.3.6.6.6h.1c.3 0 .6-.3.6-.6v-1.6c0-.4-.3-.6-.7-.6zM443.3 121c-.3 0-.6.3-.6.6v7.9c0 .3.3.6.6.6h.1c.3 0 .6-.3.6-.6v-7.9c0-.3-.3-.6-.7-.6zM451.8 121c-.3 0-.6.2-.6.5-.6-.3-1.5-.6-2.5-.6-1.7 0-2.7.9-2.7 2.4v4.7c0 1.5 1 2.4 2.7 2.4 1 0 1.9-.3 2.5-.6v1.6c0 .4 0 1.1-1.9 1.1h-2.3c-.3 0-.6.3-.6.6s.3.6.6.6h2.2c2.2 0 3.2-.8 3.2-2.4v-9.7c0-.3-.2-.6-.6-.6zm-4.6 2.2c0-.9.8-1.1 1.5-1.1 1.2 0 2 .5 2.5.8v5.2c-.6.4-1.4.8-2.5.8-.7 0-1.5-.2-1.5-1.1v-4.6zM458.4 120.9c-1 0-1.9.3-2.5.6 0-.3-.3-.5-.6-.5s-.6.3-.6.6v7.9c0 .3.3.6.7.6.3 0 .6-.3.6-.6v-6.5c.5-.4 1.3-.8 2.5-.8 1 0 1.5.4 1.5 1.1v6.3c0 .3.3.6.6.6h.1c.3 0 .6-.3.6-.6v-6.3c-.2-1.5-1.2-2.4-2.9-2.4zM466.2 120.9c-2.1 0-3.2.8-3.2 2.4v4.7c0 1.6 1.1 2.4 3.2 2.4s3.2-.8 3.2-2.4v-.5c0-.3-.3-.6-.7-.6-.3 0-.6.3-.6.6v.5c0 .4 0 1.1-2 1.1s-2-.7-2-1.1v-2h4.6c.3 0 .6-.3.6-.6v-2.1c.1-1.6-.9-2.4-3.1-2.4zm-2 3.8v-1.4c0-.4 0-1.1 2-1.1s2 .7 2 1.1v1.4h-4zM476.8 117.6c-.3 0-.6.3-.6.6v3.4c-.6-.3-1.5-.6-2.5-.6-1.7 0-2.7.9-2.7 2.4v4.7c0 1.5 1 2.4 2.7 2.4 1 0 1.9-.3 2.5-.6 0 .3.3.5.6.5s.6-.3.6-.6v-11.4c.1-.6-.2-.8-.6-.8zm-4.5 5.6c0-.9.8-1.1 1.5-1.1 1.2 0 2 .5 2.5.8v5.2c-.6.4-1.4.8-2.5.8-.7 0-1.5-.2-1.5-1.1v-4.6zM480.2 127.7c-.3 0-.6.3-.6.6v1.2c0 .3.3.6.6.6h.1c.3 0 .6-.3.6-.6v-1.2c-.1-.3-.3-.6-.7-.6z"/></g><g fill="#595758"><path d="M555.3 61l-2 10h4.3v7.2h-5.8l-1 5h6.8v7.4h-8.3l-2.3 11-7.4-1.5 2-9.5h-7.2l-2.3 11.4-7.4-1.5 2-9.9h-4.4v-7.4h5.8l1.1-5h-6.8v-7.2h8.4l2.2-11 7.4 1.5-1.9 9.5h7.2l2.3-11.5 7.3 1.5zm-12.2 22.3l1-5h-7.2l-1.1 5h7.3zM606 77.5c0 4.1-.5 7.8-1.5 11.1s-2.5 6.1-4.4 8.5c-1.9 2.3-4.3 4.1-7 5.4-2.7 1.3-5.8 1.9-9.3 1.9s-6.6-.6-9.3-1.9c-2.7-1.3-5.1-3-7-5.4-1.9-2.3-3.4-5.2-4.4-8.5-1-3.3-1.5-7-1.5-11.1s.5-7.8 1.5-11.1 2.5-6.1 4.4-8.5c1.9-2.3 4.3-4.1 7-5.4 2.7-1.3 5.8-1.9 9.3-1.9s6.6.6 9.3 1.9c2.7 1.3 5.1 3 7 5.4 1.9 2.3 3.4 5.2 4.4 8.5 1 3.2 1.5 6.9 1.5 11.1zm-22.3 19.5c2.5 0 4.7-.5 6.5-1.5 1.8-1 3.3-2.4 4.5-4.2 1.2-1.8 2-3.9 2.6-6.2.6-2.4.8-4.9.8-7.6 0-2.7-.3-5.2-.8-7.6-.5-2.4-1.4-4.5-2.6-6.2-1.2-1.8-2.7-3.2-4.5-4.2-1.8-1-4-1.5-6.5-1.5s-4.7.5-6.5 1.5-3.3 2.4-4.5 4.2c-1.2 1.8-2 3.9-2.6 6.2-.5 2.4-.8 4.9-.8 7.6 0 2.7.3 5.2.8 7.6.6 2.4 1.4 4.5 2.6 6.2 1.2 1.8 2.7 3.2 4.5 4.2s4 1.5 6.5 1.5zM654.2 77.5c0 4.1-.5 7.8-1.5 11.1s-2.5 6.1-4.4 8.5c-1.9 2.3-4.3 4.1-7 5.4-2.7 1.3-5.8 1.9-9.3 1.9s-6.6-.6-9.3-1.9c-2.7-1.3-5.1-3-7-5.4-1.9-2.3-3.4-5.2-4.4-8.5-1-3.3-1.5-7-1.5-11.1s.5-7.8 1.5-11.1 2.5-6.1 4.4-8.5c1.9-2.3 4.3-4.1 7-5.4 2.7-1.3 5.8-1.9 9.3-1.9s6.6.6 9.3 1.9c2.7 1.3 5.1 3 7 5.4 1.9 2.3 3.4 5.2 4.4 8.5 1 3.2 1.5 6.9 1.5 11.1zm-22.4 19.5c2.5 0 4.7-.5 6.5-1.5 1.8-1 3.3-2.4 4.5-4.2 1.2-1.8 2-3.9 2.6-6.2.6-2.4.8-4.9.8-7.6 0-2.7-.3-5.2-.8-7.6-.5-2.4-1.4-4.5-2.6-6.2-1.2-1.8-2.7-3.2-4.5-4.2-1.8-1-4-1.5-6.5-1.5s-4.7.5-6.5 1.5-3.3 2.4-4.5 4.2c-1.2 1.8-2 3.9-2.6 6.2-.5 2.4-.8 4.9-.8 7.6 0 2.7.3 5.2.8 7.6.6 2.4 1.4 4.5 2.6 6.2 1.2 1.8 2.7 3.2 4.5 4.2s4 1.5 6.5 1.5zM674.9 69.4c2.4 0 4.6.5 6.7 1.4 2.1.9 3.9 2.2 5.5 3.8 1.6 1.6 2.8 3.4 3.7 5.5.9 2.1 1.4 4.4 1.4 6.8 0 2.4-.5 4.7-1.4 6.8-.9 2.1-2.1 4-3.7 5.5-1.6 1.6-3.4 2.8-5.5 3.7-2.1.9-4.3 1.4-6.7 1.4-2.4 0-4.6-.5-6.7-1.4-2.1-.9-3.9-2.1-5.5-3.7s-2.8-3.4-3.7-5.5c-.9-2.1-1.4-4.4-1.4-6.8h7.4c0 1.4.3 2.6.8 3.9.5 1.2 1.2 2.3 2.1 3.2.9.9 1.9 1.6 3.1 2.1 1.2.5 2.4.8 3.8.8s2.6-.3 3.8-.8c1.2-.5 2.2-1.2 3.1-2.1s1.6-2 2.1-3.2c.5-1.2.8-2.5.8-3.9s-.3-2.7-.8-4c-.5-1.2-1.2-2.3-2.1-3.2s-1.9-1.6-3.1-2.1c-1.2-.5-2.5-.8-3.8-.8-1.7 0-3.3.4-4.7 1.2-1.5.8-2.6 2-3.5 3.4l-6.8-2.6 3.5-20.5 1.2-7.4h22.6v7.4h-16.3l-1.8 10.8 1 1c1.4-.4 3.1-.7 4.9-.7z"/></g></svg>