<svg xmlns="http://www.w3.org/2000/svg" width="700" height="223.217" viewBox="-44.903 42.998 700 223.217" enable-background="new -44.903 42.998 700 223.217"><path fill="#fff" d="M328.19 121.62c4.616 0 8.795.878 12.754 2.638 3.96 1.76 7.477 4.07 10.446 7.037 2.968 2.97 5.277 6.488 7.037 10.447 1.76 3.958 2.64 8.247 2.64 12.755 0 4.617-.88 8.796-2.64 12.755-1.76 3.958-4.07 7.477-7.037 10.446-2.97 2.968-6.487 5.388-10.446 7.037-3.958 1.76-8.247 2.64-12.755 2.64-4.62 0-8.798-.88-12.756-2.64-3.96-1.76-7.478-4.07-10.446-7.037-2.97-2.97-5.39-6.49-7.04-10.446-1.758-3.958-2.638-8.248-2.638-12.755 0-4.51.88-8.797 2.64-12.755 1.76-3.96 4.068-7.478 7.038-10.446 2.968-2.97 6.487-5.278 10.446-7.038 3.958-1.76 8.137-2.64 12.755-2.64zm0 52.56c2.638 0 5.057-.55 7.365-1.54 2.31-.99 4.29-2.42 5.938-4.18 1.65-1.757 2.968-3.847 3.96-6.266.988-2.42 1.428-4.948 1.428-7.697 0-2.75-.438-5.28-1.428-7.588-.99-2.42-2.31-4.4-3.96-6.268-1.648-1.76-3.628-3.19-5.937-4.18-2.308-.988-4.728-1.538-7.366-1.538-2.64 0-5.06.55-7.37 1.54-2.31.988-4.287 2.418-5.937 4.178-1.65 1.758-2.97 3.85-3.96 6.267-.988 2.42-1.43 4.947-1.43 7.587 0 2.75.442 5.277 1.43 7.697.99 2.418 2.31 4.508 3.96 6.267 1.65 1.76 3.628 3.19 5.938 4.18 2.31.99 4.73 1.54 7.37 1.54z"/><path fill="none" d="M395.704 85.882C377.67 67.52 353.7 57.402 328.19 57.402c-25.512 0-49.483 10.117-67.516 28.48-18.034 18.363-27.93 42.774-27.93 68.725 0 25.95 9.896 50.362 27.93 68.724 18.033 18.365 42.004 28.48 67.515 28.48 25.51 0 49.48-10.115 67.514-28.48 18.033-18.36 27.93-42.772 27.93-68.723.108-25.95-9.897-50.362-27.93-68.725zm-8.137 129.09c-15.835 16.166-36.947 24.962-59.27 24.962-22.43 0-43.432-8.906-59.267-24.96-15.833-16.164-24.52-37.606-24.52-60.368s8.687-44.204 24.52-60.368c15.835-16.163 36.947-24.96 59.268-24.96 22.432 0 43.434 8.906 59.27 24.96 15.832 16.164 24.52 37.606 24.52 60.368s-8.687 44.205-24.52 60.367zM328.298 114.69c-21.552 0-39.145 17.925-39.145 39.917 0 21.993 17.593 39.915 39.145 39.915 21.553 0 39.146-17.922 39.146-39.915 0-21.992-17.593-39.916-39.146-39.916zm0 73.125c-18.033 0-32.658-14.956-32.658-33.208 0-18.253 14.625-33.208 32.658-33.208 18.034 0 32.66 14.953 32.66 33.207 0 18.252-14.736 33.208-32.66 33.208zM385.807 95.998c-15.395-15.615-35.847-24.3-57.51-24.3-21.77 0-42.223 8.576-57.507 24.3-15.394 15.614-23.86 36.397-23.86 58.608 0 22.103 8.466 42.884 23.86 58.61 15.395 15.612 35.847 24.3 57.508 24.3 21.772 0 42.225-8.577 57.51-24.3 15.393-15.615 23.86-36.398 23.86-58.61-.11-22.1-8.576-42.883-23.86-58.608zm-7.257 109.74c-13.415 13.636-31.23 21.222-50.252 21.222-19.022 0-36.836-7.478-50.25-21.222-13.417-13.635-20.783-31.78-20.783-51.13 0-19.354 7.366-37.497 20.782-51.13 13.415-13.637 31.23-21.223 50.25-21.223 19.024 0 36.838 7.477 50.253 21.222 13.416 13.635 20.782 31.777 20.782 51.13 0 19.352-7.366 37.496-20.782 51.13zM375.91 106.115C363.157 93.14 346.33 86.102 328.3 86.102c-18.033 0-34.857 7.147-47.612 20.013-12.755 12.976-19.682 30.13-19.682 48.492 0 18.363 7.037 35.517 19.682 48.493 12.755 12.976 29.58 20.013 47.612 20.013 18.034 0 34.858-7.147 47.613-20.013 12.756-12.976 19.683-30.13 19.683-48.493 0-18.363-7.037-35.516-19.682-48.492zM328.3 213.875c-32.108 0-58.277-26.61-58.277-59.27S296.19 95.34 328.3 95.34c32.11 0 58.278 26.61 58.278 59.268s-26.17 59.268-58.278 59.268zM405.6 75.875c-20.673-21.002-48.162-32.547-77.302-32.547-29.25 0-56.628 11.545-77.3 32.547C230.323 96.88 219 124.807 219 154.605c0 29.69 11.325 57.73 31.998 78.73 20.673 21.003 48.162 32.55 77.3 32.55 29.25 0 56.63-11.546 77.303-32.55 20.673-21 32-48.93 32-78.73-.002-29.687-11.328-57.726-32-78.73zm-9.017 148.336c-18.253 18.584-42.554 28.81-68.394 28.81-25.842 0-50.143-10.226-68.396-28.81-18.253-18.582-28.37-43.323-28.37-69.603 0-26.28 10.006-51.02 28.37-69.604 18.253-18.583 42.554-28.81 68.395-28.81 25.84 0 50.14 10.228 68.393 28.81 18.253 18.583 28.37 43.324 28.37 69.604s-10.007 51.02-28.37 69.604zM328.298 129.095c-13.855 0-25.07 11.437-25.07 25.51 0 14.076 11.216 25.51 25.07 25.51 13.856 0 25.07-11.434 25.07-25.51 0-14.073-11.214-25.51-25.07-25.51zM328.298 100.396c-29.36 0-53.22 24.3-53.22 54.21s23.86 54.21 53.22 54.21 53.22-24.3 53.22-54.21-23.86-54.21-53.22-54.21zm0 100.504c-25.07 0-45.413-20.783-45.413-46.293 0-25.51 20.343-46.292 45.413-46.292 25.07 0 45.414 20.782 45.414 46.292S353.37 200.9 328.298 200.9z"/><path fill="#fff" d="M328.298 108.314c-25.07 0-45.413 20.782-45.413 46.292s20.343 46.293 45.413 46.293c25.07 0 45.414-20.784 45.414-46.294 0-25.51-20.343-46.292-45.414-46.292zm0 86.207c-21.552 0-39.145-17.92-39.145-39.914 0-21.992 17.593-39.916 39.145-39.916 21.553 0 39.146 17.924 39.146 39.916 0 21.993-17.593 39.915-39.146 39.915zM378.55 103.476c-13.415-13.636-31.34-21.222-50.252-21.222-19.022 0-36.836 7.477-50.25 21.222-13.417 13.635-20.783 31.777-20.783 51.13s7.366 37.497 20.782 51.13c13.415 13.637 31.23 21.223 50.25 21.223 19.024 0 36.838-7.48 50.253-21.223 13.416-13.635 20.782-31.78 20.782-51.13 0-19.354-7.366-37.496-20.782-51.13zm-2.64 99.623c-12.754 12.975-29.58 20.012-47.612 20.012-18.033 0-34.857-7.147-47.612-20.013-12.755-12.977-19.682-30.13-19.682-48.494 0-18.362 7.037-35.516 19.682-48.492C293.44 93.138 310.266 86.1 328.298 86.1c18.034 0 34.858 7.148 47.613 20.014 12.756 12.976 19.683 30.13 19.683 48.492 0 18.363-7.037 35.517-19.682 48.493zM405.82 75.656c-20.783-21.002-48.272-32.658-77.522-32.658-29.25 0-56.85 11.656-77.52 32.658-20.672 21.112-32.11 49.15-32.11 78.95 0 29.8 11.438 57.84 32.11 78.95 20.67 21.113 48.27 32.66 77.52 32.66 29.25 0 56.85-11.657 77.522-32.66 20.67-21.11 32.107-49.15 32.107-78.95 0-29.8-11.436-57.838-32.107-78.95zm-.22 157.68c-20.673 21.003-48.162 32.55-77.302 32.55-29.25 0-56.628-11.546-77.3-32.55-20.674-21-31.998-48.93-31.998-78.73 0-29.688 11.325-57.728 31.998-78.73 20.673-21.002 48.162-32.548 77.3-32.548 29.25 0 56.63 11.545 77.303 32.55 20.673 21 32 48.93 32 78.728-.002 29.69-11.328 57.73-32 78.73zM396.583 85.002c-18.253-18.583-42.554-28.81-68.394-28.81-25.842 0-50.143 10.228-68.396 28.81-18.143 18.583-28.26 43.324-28.26 69.604s10.006 51.02 28.37 69.604c18.253 18.583 42.554 28.81 68.394 28.81 25.84 0 50.142-10.227 68.395-28.81 18.253-18.583 28.37-43.324 28.37-69.604-.11-26.28-10.117-51.02-28.48-69.604zm-.88 138.328c-18.033 18.364-42.003 28.48-67.514 28.48-25.512 0-49.483-10.116-67.516-28.48-18.034-18.362-27.93-42.773-27.93-68.724 0-25.95 9.896-50.36 27.93-68.725 18.143-18.36 42.114-28.368 67.624-28.368 25.51 0 49.482 10.116 67.516 28.48 18.033 18.362 27.93 42.773 27.93 68.723-.002 25.842-10.007 50.254-28.04 68.615zM328.298 95.338c-32.108 0-58.277 26.61-58.277 59.268s26.17 59.268 58.278 59.268c32.11 0 58.278-26.61 58.278-59.268s-26.17-59.268-58.278-59.268zm0 113.48c-29.36 0-53.22-24.303-53.22-54.212 0-29.91 23.86-54.21 53.22-54.21s53.22 24.3 53.22 54.21-23.86 54.21-53.22 54.21zM387.567 94.24c-15.835-16.164-36.947-24.962-59.27-24.962-22.43 0-43.432 8.907-59.267 24.96-15.833 16.165-24.52 37.607-24.52 60.37s8.687 44.204 24.52 60.366c15.835 16.165 36.947 24.96 59.268 24.96 22.432 0 43.434-8.905 59.27-24.96 15.832-16.163 24.52-37.605 24.52-60.367s-8.687-44.204-24.52-60.368zm-1.76 118.975c-15.395 15.613-35.847 24.3-57.51 24.3-21.77 0-42.223-8.576-57.507-24.3-15.394-15.614-23.86-36.397-23.86-58.61 0-22.1 8.466-42.882 23.86-58.607 15.395-15.615 35.847-24.3 57.508-24.3 21.772 0 42.225 8.576 57.51 24.3 15.393 15.614 23.86 36.396 23.86 58.608-.11 22.103-8.576 42.884-23.86 58.61zM12.166 98.747V186.496H-.81l-1.868-3.52c-1.54.88-3.3 1.54-5.28 2.2-2.748.88-5.607 1.21-8.356 1.21-2.858 0-5.717-.44-8.576-1.21-2.75-.88-5.28-2.09-7.697-3.628-2.31-1.54-4.398-3.52-6.268-5.828-1.87-2.31-3.19-4.73-4.288-7.478-.44-1.32-.88-2.53-1.1-3.63-.33-1.1-.55-2.748-.66-4.727V88.63h14.734v70.266c0 1.98.55 3.96 1.542 6.048.99 2.09 2.418 3.738 4.178 5.058 2.42 1.87 5.168 2.75 8.137 2.75 1.87 0 3.63-.332 5.28-1.1 1.648-.77 3.077-1.76 4.287-3.08s2.2-2.86 2.97-4.51c.768-1.757 1.21-3.517 1.428-5.497V88.63h14.625c-.11 2.31-.11 5.72-.11 10.117zM74.293 186.495H60.218V145.81c0-.33 0-.66-.11-1.1-.33-1.318-.77-2.418-1.208-3.518-1.32-2.42-3.08-4.18-5.498-5.28-1.1-.438-2.31-.768-3.74-1.1-1.318-.218-2.638-.218-3.958.11-2.75.55-5.167 1.87-7.147 4.07-.99.99-1.87 2.418-2.64 4.068-.66 1.65-1.1 3.298-1.1 4.84v38.594H20.744v-63.997h14.074l2.75 1.98c.77-.33 1.538-.77 2.308-1.1.77-.33 1.65-.55 2.42-.77 2.528-.88 5.167-1.21 8.136-.99s5.72.77 8.248 1.87c2.42.88 4.73 2.418 7.037 4.288 2.09 1.98 3.958 4.178 5.278 6.598.99 1.76 1.87 3.628 2.418 5.718.55 2.09.88 4.18.88 6.378v40.027zM143.568 88.63v97.865h-14.075v-.11l-2.75-2.75c-.44.22-.878.33-1.21.55-.328.22-.768.33-1.207.55-3.74 1.65-7.917 2.64-12.426 2.75-4.51 0-8.687-.88-12.535-2.53-4.07-1.648-7.588-4.068-10.666-7.256-1.54-1.54-2.97-3.19-4.07-4.95-1.21-1.87-2.2-3.74-2.968-5.607-1.54-3.96-2.31-8.028-2.31-12.316s.77-8.577 2.31-12.755c.77-1.98 1.758-3.848 2.968-5.608 1.21-1.76 2.64-3.41 4.18-5.058 2.967-3.188 6.486-5.608 10.665-7.258 3.958-1.65 8.138-2.528 12.536-2.528 4.62.22 8.688 1.1 12.426 2.75.99.328 1.98.77 2.75 1.32.88.55 1.648 1.1 2.53 1.648V88.63h13.852zm-31.89 85.11c2.42.11 4.84-.33 7.148-1.32 2.418-.99 4.507-2.31 6.377-4.068 1.76-1.76 3.188-3.848 4.288-6.268.88-2.2 1.43-4.73 1.43-7.586 0-2.75-.44-5.28-1.43-7.588-1.1-2.418-2.528-4.508-4.287-6.267-1.87-1.76-3.96-3.08-6.377-4.07-2.42-.878-4.73-1.428-7.148-1.428-1.318.11-2.528.22-3.738.44-1.21.218-2.31.55-3.41 1.1-2.198.99-4.287 2.417-6.047 4.287-.88.88-1.76 1.76-2.418 2.86-.66 1.1-1.21 2.198-1.65 3.298-.22.55-.33 1.1-.55 1.76-.22.66-.33 1.21-.44 1.76-.44 2.748-.33 5.826.44 9.125.77 3.3 2.31 5.938 4.508 8.137 1.76 1.87 3.74 3.298 6.05 4.29 2.528.988 4.837 1.538 7.255 1.538zM166.77 186.495h-14.076v-63.997h14.075v63.997zM199.097 187.484c-3.298 0-6.378-.55-9.237-1.65-2.86-1.1-5.388-2.527-7.587-4.507-2.2-1.87-3.848-4.068-5.058-6.598-1.21-2.53-1.87-5.17-1.87-8.137h13.856c0 1.868.99 3.518 2.86 4.948 1.87 1.43 4.178 2.2 6.927 2.2 2.64 0 4.838-.77 6.818-2.2 1.868-1.538 2.858-3.187 2.858-5.057 0-1.32-.55-2.528-1.65-3.738s-2.638-2.09-4.506-2.53l-10.117-2.968c-4.288-1.32-7.697-3.52-10.337-6.708-2.64-3.19-3.958-6.71-3.958-10.777 0-2.53.55-4.838 1.65-7.147 1.1-2.2 2.527-4.178 4.507-5.827 1.87-1.65 4.068-2.97 6.598-3.85 2.528-.99 5.167-1.43 8.137-1.43 5.937 0 10.996 1.98 15.064 5.83l-9.676 10.114c-.66-.66-1.43-1.208-2.418-1.758-.99-.55-1.98-.77-2.97-.77-2.088 0-3.737.44-4.947 1.43s-1.87 2.09-1.87 3.408c0 .88.33 1.65 1.1 2.53.77.88 1.758 1.43 3.078 1.868l10.116 2.97c4.84 1.43 8.688 3.848 11.656 7.368 2.97 3.518 4.398 7.586 4.398 11.985 0 2.86-.66 5.608-1.87 8.137-1.208 2.53-2.858 4.73-5.057 6.597-2.198 1.87-4.618 3.408-7.477 4.508-2.75 1.206-5.828 1.756-9.016 1.756zM276.287 144.93c-1.54-3.08-3.738-5.388-6.487-7.037-2.75-1.65-5.608-2.53-8.686-2.75-3.08-.22-6.048.33-8.907 1.65-2.97 1.32-5.388 3.3-7.368 5.827-2.42 3.41-3.63 7.368-3.63 11.766.11 2.75.66 5.388 1.76 7.917 1.1 2.418 2.53 4.617 4.29 6.377 1.76 1.87 3.848 3.188 6.266 4.178 2.42.99 4.95 1.43 7.808 1.21 3.41-.33 6.378-1.32 8.907-3.188 2.53-1.87 4.62-4.178 6.16-6.818l12.315 6.818c-3.96 6.378-9.236 11.106-16.054 13.965-1.538.77-3.298 1.32-5.057 1.65-1.76.33-3.52.55-5.278.768-1.87.22-3.63.22-5.498 0-1.76-.22-3.52-.55-5.28-.99-3.408-.99-6.707-2.528-9.675-4.508-3.08-1.98-5.718-4.398-7.807-7.256-2.31-3.08-4.07-6.27-5.168-9.458-1.1-3.41-1.65-6.928-1.65-10.667 0-5.83 1.1-10.996 3.41-15.394 2.31-4.397 5.277-7.916 8.907-10.666 3.628-2.75 7.697-4.62 12.205-5.718 4.508-1.1 9.015-1.21 13.634-.44s8.907 2.42 12.976 5.06c4.068 2.638 7.587 6.157 10.336 10.774l-12.43 6.93zM518.748 122.498c.77.11 1.43.11 2.09.22.66 0 1.317.11 2.088.33l-3.96 12.976c-.55-.22-.988-.33-1.428-.33-1.54-.22-2.75-.11-3.96.11-2.748.44-5.057 1.76-7.146 3.958l-1.32 1.65c-.438.55-.77 1.208-1.1 1.98-.22.438-.438 1.317-.77 2.527s-.44 2.418-.44 3.628v36.946H488.73v-63.997h14.073l2.97 2.75c.77-.33 1.54-.77 2.2-1.1.77-.33 1.538-.55 2.418-.77 1.32-.33 2.64-.66 4.068-.88 1.54-.108 2.97-.108 4.29 0zM583.622 157.136h-46.07l-1.432 1.21c.22.658.33 1.318.44 1.868.11.66.33 1.21.66 1.87.77 1.98 1.87 3.738 3.298 5.498 1.43 1.65 3.08 3.078 4.948 4.07 2.09 1.207 3.96 1.978 5.828 2.198.55.11 1.1.11 1.65.22.55 0 1.1.11 1.648.11.44 0 .99 0 1.54-.11.55 0 1.1-.11 1.54-.22 2.09-.44 4.178-1.21 6.046-2.42.88-.55 1.76-1.21 2.53-1.978.77-.77 1.54-1.54 2.2-2.42l10.665 9.347c-2.42 2.638-5.278 4.837-8.688 6.707-2.2 1.32-4.728 2.31-7.366 2.97-2.642.658-5.5 1.1-8.47 1.1-3.518 0-7.145-.55-10.775-1.65-1.65-.55-3.41-1.21-5.057-2.09-3.3-1.758-6.158-3.958-8.688-6.707-2.53-2.75-4.51-5.828-5.938-9.237-1.43-3.41-2.31-6.816-2.64-10.446-.33-3.628-.22-7.257.55-10.776.77-3.517 2.09-6.926 4.068-10.115 1.98-3.188 4.618-5.938 7.917-8.247 1.54-.99 3.188-1.98 4.728-2.86 1.54-.88 3.3-1.648 5.17-2.198.438-.22 1.43-.44 2.97-.66s3.298-.44 5.276-.44c2.09-.11 4.29 0 6.6.33 2.308.33 4.617.88 6.706 1.65 3.52 1.32 6.708 3.298 9.457 6.047 2.858 2.75 5.058 5.938 6.378 9.677.33.88.66 1.87.88 2.75.22.878.44 1.76.66 2.748.11.55.22 1.21.33 1.98.11.77.22 1.98.33 3.408v6.818h.112zm-35.515-21.552c-1.87.66-3.52 1.54-4.84 2.64-1.428 1.1-2.748 2.418-3.958 3.957l.55 1.65h28.48c-.55-1.54-1.54-2.97-2.75-4.288-.77-.77-1.76-1.43-2.97-2.2-1.207-.66-2.638-1.21-4.287-1.648-1.54-.44-3.298-.66-5.058-.77s-3.41.11-5.168.66zM655.097 88.63v97.865h-14.075v-.11l-2.75-2.75c-.438.22-.878.33-1.208.55-.33.22-.77.33-1.21.55-3.738 1.65-7.916 2.64-12.425 2.75-4.51 0-8.69-.88-12.537-2.53-4.067-1.648-7.587-4.068-10.665-7.256-1.54-1.54-2.97-3.19-4.07-4.95-1.208-1.87-2.197-3.74-2.968-5.607-1.54-3.96-2.31-8.028-2.31-12.316s.77-8.577 2.31-12.755c.77-1.98 1.76-3.848 2.97-5.608 1.21-1.76 2.64-3.41 4.178-5.058 2.97-3.188 6.488-5.608 10.666-7.258 3.96-1.65 8.137-2.528 12.535-2.528 4.617.22 8.687 1.1 12.425 2.75.99.328 1.98.77 2.75 1.32.88.55 1.648 1.1 2.528 1.648V88.63h13.854zm-31.89 85.11c2.42.11 4.84-.33 7.148-1.32 2.42-.99 4.51-2.31 6.378-4.068 1.76-1.76 3.188-3.848 4.288-6.268.88-2.2 1.43-4.73 1.43-7.586 0-2.75-.438-5.28-1.43-7.588-1.1-2.418-2.527-4.508-4.287-6.267-1.87-1.76-3.958-3.08-6.378-4.07-2.42-.878-4.728-1.428-7.147-1.428-1.32.11-2.528.22-3.738.44-1.21.218-2.31.55-3.408 1.1-2.2.99-4.288 2.417-6.048 4.287-.88.88-1.76 1.76-2.42 2.86s-1.21 2.198-1.65 3.298c-.218.55-.328 1.1-.55 1.76-.218.66-.328 1.21-.438 1.76-.44 2.748-.33 5.826.44 9.125.77 3.3 2.31 5.938 4.508 8.137 1.76 1.87 3.738 3.298 6.048 4.29 2.418.988 4.837 1.538 7.256 1.538zM167.208 101.717c-.11-.22-.22-.44-.44-.66-.22-.33-.55-.66-.878-.99l-.55-.55c-1.76-1.76-4.07-3.958-4.508-4.947h-2.088c-.44.99-2.86 3.188-4.51 4.948-.22.11-.33.33-.55.55-.33.33-.66.66-.88.99-.218.22-.438.55-.438.66-.77 1.318-1.21 2.748-1.21 4.397 0 2.42.88 4.51 2.53 6.158s3.738 2.528 6.158 2.528c2.418 0 4.507-.878 6.156-2.527 1.65-1.65 2.53-3.738 2.53-6.158-.112-1.65-.552-3.19-1.322-4.398zM481.25 157.136H435.18l-1.43 1.21c.222.658.33 1.318.44 1.868.11.66.33 1.21.66 1.87.77 1.98 1.87 3.738 3.3 5.498 1.428 1.65 3.077 3.078 4.947 4.07 2.09 1.207 3.958 1.978 5.828 2.198.55.11 1.1.11 1.65.22.55 0 1.1.11 1.648.11.44 0 .99 0 1.54-.11.55 0 1.1-.11 1.54-.22 2.088-.44 4.178-1.21 6.047-2.42.88-.55 1.76-1.21 2.53-1.978.77-.77 1.538-1.54 2.198-2.42l10.665 9.347c-2.418 2.638-5.277 4.837-8.687 6.707-2.2 1.32-4.728 2.31-7.367 2.97-2.64.658-5.498 1.1-8.466 1.1-3.52 0-7.148-.55-10.776-1.65-1.65-.55-3.41-1.21-5.06-2.09-3.298-1.758-6.157-3.958-8.686-6.707-2.53-2.75-4.51-5.828-5.938-9.237-1.43-3.41-2.31-6.816-2.64-10.446-.33-3.628-.22-7.257.55-10.776.77-3.517 2.09-6.926 4.068-10.115 1.98-3.188 4.62-5.938 7.918-8.247 1.54-.99 3.188-1.98 4.728-2.86 1.54-.88 3.3-1.648 5.168-2.198.44-.22 1.43-.44 2.97-.66 1.54-.22 3.3-.44 5.277-.44 2.088-.11 4.287 0 6.597.33 2.31.33 4.618.88 6.708 1.65 3.52 1.32 6.707 3.298 9.456 6.047 2.86 2.75 5.06 5.938 6.378 9.677.33.88.66 1.87.88 2.75.22.878.44 1.76.66 2.748.11.55.22 1.21.33 1.98.11.77.22 1.98.33 3.408v6.818h.113zm-35.515-21.552c-1.87.66-3.52 1.54-4.838 2.64-1.43 1.1-2.75 2.418-3.96 3.957l.55 1.65h28.48c-.55-1.54-1.54-2.97-2.75-4.288-.77-.77-1.758-1.43-2.968-2.2-1.21-.66-2.64-1.21-4.29-1.648-1.538-.44-3.298-.66-5.058-.77s-3.518.11-5.167.66z"/><linearGradient id="a" gradientUnits="userSpaceOnUse" x1="978.112" y1="-2203.105" x2="949.723" y2="-2288.875" gradientTransform="matrix(.583 -.655 -.655 -.583 -1717.148 -580.423)"><stop offset=".692" stop-color="#FBC61A"/><stop offset=".722" stop-color="#FCCF40"/><stop offset=".774" stop-color="#FDDE79"/><stop offset=".823" stop-color="#FEEAA9"/><stop offset=".87" stop-color="#FEF3CE"/><stop offset=".913" stop-color="#FFFAE9"/><stop offset=".952" stop-color="#FFFEF9"/><stop offset=".982" stop-color="#fff"/></linearGradient><path fill="url(#a)" d="M354.908 125.357l4.18-4.728c-17.594-16.495-43.765-16.165-60.808-.88l4.068 4.838c14.735-13.196 37.716-13.305 52.56.77z"/><linearGradient id="b" gradientUnits="userSpaceOnUse" x1="1002.787" y1="-2200.078" x2="976.176" y2="-2280.637" gradientTransform="matrix(.576 -.649 -.648 -.579 -1694.285 -587.408)"><stop offset=".692" stop-color="#FBC61A"/><stop offset=".722" stop-color="#FCCF40"/><stop offset=".774" stop-color="#FDDE79"/><stop offset=".823" stop-color="#FEEAA9"/><stop offset=".87" stop-color="#FEF3CE"/><stop offset=".913" stop-color="#FFFAE9"/><stop offset=".952" stop-color="#FFFEF9"/><stop offset=".982" stop-color="#fff"/></linearGradient><path fill="url(#b)" d="M322.14 43.548c18.144-.99 35.737 2.31 51.9 10.006 9.787 4.618 19.244 10.775 27.49 18.472l.22-.22c-21.99-19.9-48.492-30.128-79.39-28.59-24.412 1.21-47.174 10.777-65.207 26.392l.22.22c18.035-15.613 40.357-24.96 64.768-26.28z"/><linearGradient id="c" gradientUnits="userSpaceOnUse" x1="984.431" y1="-2202.294" x2="956.786" y2="-2285.814" gradientTransform="matrix(.583 -.655 -.655 -.583 -1717.148 -580.423)"><stop offset=".692" stop-color="#FBC61A"/><stop offset=".722" stop-color="#FCCF40"/><stop offset=".774" stop-color="#FDDE79"/><stop offset=".823" stop-color="#FEEAA9"/><stop offset=".87" stop-color="#FEF3CE"/><stop offset=".913" stop-color="#FFFAE9"/><stop offset=".952" stop-color="#FFFEF9"/><stop offset=".982" stop-color="#fff"/></linearGradient><path fill="url(#c)" d="M364.256 114.69l3.408-3.737c-21.99-20.78-55.64-20.67-77.63-1.1l3.3 3.85c20.12-17.815 50.8-17.924 70.922.988z"/><linearGradient id="d" gradientUnits="userSpaceOnUse" x1="1004.658" y1="-2196.206" x2="978.092" y2="-2276.471" gradientTransform="matrix(.583 -.655 -.655 -.583 -1717.148 -580.423)"><stop offset=".692" stop-color="#FBC61A"/><stop offset=".722" stop-color="#FCCF40"/><stop offset=".774" stop-color="#FDDE79"/><stop offset=".823" stop-color="#FEEAA9"/><stop offset=".87" stop-color="#FEF3CE"/><stop offset=".913" stop-color="#FFFAE9"/><stop offset=".952" stop-color="#FFFEF9"/><stop offset=".982" stop-color="#fff"/></linearGradient><path fill="url(#d)" d="M323.24 57.622c25.73-1.21 49.482 7.367 69.055 25.07l1.1-.768c-19.792-18.144-44.203-26.83-70.153-25.51-21.882 1.1-41.785 9.565-57.95 23.53l.88.99c16.163-13.965 35.517-22.32 57.07-23.312z"/><linearGradient id="e" gradientUnits="userSpaceOnUse" x1="997.605" y1="-2198.626" x2="970.831" y2="-2279.516" gradientTransform="matrix(.583 -.655 -.655 -.583 -1717.148 -580.423)"><stop offset=".692" stop-color="#FBC61A"/><stop offset=".722" stop-color="#FCCF40"/><stop offset=".774" stop-color="#FDDE79"/><stop offset=".823" stop-color="#FEEAA9"/><stop offset=".87" stop-color="#FEF3CE"/><stop offset=".913" stop-color="#FFFAE9"/><stop offset=".952" stop-color="#FFFEF9"/><stop offset=".982" stop-color="#fff"/></linearGradient><path fill="url(#e)" d="M324.56 71.807c21.882-.99 41.895 6.708 58.39 21.442l1.76-1.76c-17.265-15.724-36.838-22.652-59.38-22.213-19.022.33-38.044 8.578-52.01 20.783l1.65 1.98c14.843-12.756 31.667-19.464 49.59-20.233z"/><linearGradient id="f" gradientUnits="userSpaceOnUse" x1="990.941" y1="-2200.585" x2="963.736" y2="-2282.776" gradientTransform="matrix(.583 -.655 -.655 -.583 -1717.148 -580.423)"><stop offset=".692" stop-color="#FBC61A"/><stop offset=".722" stop-color="#FCCF40"/><stop offset=".774" stop-color="#FDDE79"/><stop offset=".823" stop-color="#FEEAA9"/><stop offset=".87" stop-color="#FEF3CE"/><stop offset=".913" stop-color="#FFFAE9"/><stop offset=".952" stop-color="#FFFEF9"/><stop offset=".982" stop-color="#fff"/></linearGradient><path fill="url(#f)" d="M324.67 86.102c18.143-.88 34.967 5.168 49.042 17.924l2.418-2.97c-15.064-13.744-32.658-19.68-51.79-18.802-16.164.77-30.9 7.257-42.774 17.703l2.42 2.97C294.54 93.58 309.275 86.87 324.67 86.1z"/><path fill="#fff" d="M418.026 122.498l-21.993 63.997H383.06l-21.994-63.997h14.515l13.087 38.266h1.65l13.083-38.266h14.626z"/><g enable-background="new" fill="#fff"><path d="M451.858 208.015c.098 0 .147.05.147.148v.073c0 .1-.05.148-.147.148h-8.814v7.386h8.347c.1 0 .148.05.148.148v.074c0 .1-.05.147-.147.147h-8.346v8.47c0 .1-.05.147-.148.147h-.1c-.098 0-.146-.05-.146-.147v-16.448c0-.1.05-.148.146-.148h9.062zM454.27 215.255c0-1.6.887-2.758 4.063-2.758 3.176 0 4.062 1.157 4.062 2.758v6.943c0 1.6-.887 2.758-4.062 2.758-3.177 0-4.063-1.158-4.063-2.758v-6.943zm7.732 0c0-1.354-.788-2.39-3.67-2.39-2.88 0-3.668 1.036-3.668 2.39v6.943c0 1.354.787 2.388 3.67 2.388 2.88 0 3.668-1.034 3.668-2.388v-6.943zM474.264 223.405c-.69.59-2.118 1.552-4.284 1.552-2.315 0-3.3-1.158-3.3-2.758v-9.358c0-.098.05-.147.148-.147h.098c.098 0 .148.05.148.147v9.357c0 1.353.887 2.387 2.905 2.387 2.313 0 3.717-1.132 4.283-1.625v-10.12c0-.1.05-.148.147-.148h.1c.098 0 .146.05.146.147v11.772c0 .1-.05.147-.147.147h-.05c-.1 0-.147-.05-.147-.148l-.05-1.207zM479.73 212.842l.025 1.23c.738-.59 2.265-1.575 4.457-1.575 2.314 0 3.3 1.157 3.3 2.758v9.357c0 .1-.05.147-.148.147h-.1c-.098 0-.146-.05-.146-.148v-9.357c0-1.354-.887-2.39-2.905-2.39-2.34 0-3.866 1.16-4.433 1.65v10.097c0 .1-.05.147-.147.147h-.1c-.098 0-.146-.05-.146-.148v-11.77c0-.1.05-.148.147-.148h.05c.097 0 .147.05.147.148zM499.528 223.405c-.715.566-2.267 1.552-4.433 1.552-2.29 0-3.3-1.158-3.3-2.758v-6.944c0-1.6 1.01-2.758 3.3-2.758 2.166 0 3.693.985 4.433 1.576v-6.378c0-.098.05-.147.146-.147h.1c.098 0 .146.05.146.146v16.917c0 .1-.05.147-.146.147h-.05c-.1 0-.147-.05-.147-.147l-.05-1.208zm-7.338-1.207c0 1.354.91 2.388 2.905 2.388 2.314 0 3.865-1.157 4.433-1.625v-8.445c-.567-.492-2.118-1.65-4.433-1.65-1.994 0-2.905 1.035-2.905 2.39v6.943zM504.896 224.612c0 .1-.05.147-.148.147h-.098c-.1 0-.148-.05-.148-.148v-1.847c0-.1.05-.147.148-.147h.098c.098 0 .148.05.148.147v1.847zM516.32 224.39h8.102c.098 0 .146.05.146.147v.074c0 .1-.05.148-.146.148h-8.373c-.074 0-.123-.05-.123-.147v-16.447c0-.1.05-.148.146-.148h.1c.098 0 .147.05.147.148v16.227zM527.425 215.255c0-1.6.886-2.758 4.062-2.758s4.062 1.157 4.062 2.758v6.943c0 1.6-.888 2.758-4.063 2.758-3.177 0-4.062-1.158-4.062-2.758v-6.943zm7.732 0c0-1.354-.79-2.39-3.67-2.39s-3.67 1.036-3.67 2.39v6.943c0 1.354.79 2.388 3.67 2.388s3.67-1.034 3.67-2.388v-6.943zM542.322 224.76c-.073 0-.146-.05-.172-.147l-4.038-11.77c-.024-.075-.024-.148.073-.148h.148c.073 0 .147.05.172.147l3.595 10.367c.148.417.296.885.296.885s.1-.394.27-.886l3.57-10.368c.025-.098.1-.147.174-.147h.146c.1 0 .1.074.075.147l-4.038 11.77c-.024.1-.1.148-.172.148h-.098zM557.318 218.357c0 .1-.05.148-.147.148h-7.583v3.693c0 1.354.787 2.388 3.67 2.388 2.88 0 3.668-1.034 3.668-2.388v-.714c0-.1.05-.147.147-.147h.1c.098 0 .146.05.146.147v.714c0 1.6-.887 2.758-4.062 2.758-3.177 0-4.063-1.158-4.063-2.758v-6.943c0-1.6.887-2.758 4.063-2.758 3.176 0 4.062 1.157 4.062 2.758v3.102zm-7.732-.222h7.338v-2.88c0-1.354-.788-2.39-3.67-2.39-2.88 0-3.668 1.036-3.668 2.39v2.88zM568.89 223.405c-.714.566-2.266 1.552-4.432 1.552-2.29 0-3.3-1.158-3.3-2.758v-6.944c0-1.6 1.01-2.758 3.3-2.758 2.166 0 3.693.985 4.433 1.576v-6.378c0-.098.05-.147.148-.147h.1c.098 0 .146.05.146.146v16.917c0 .1-.05.147-.147.147h-.05c-.098 0-.146-.05-.146-.147l-.05-1.208zm-7.337-1.207c0 1.354.91 2.388 2.905 2.388 2.314 0 3.866-1.157 4.433-1.625v-8.445c-.565-.492-2.117-1.65-4.432-1.65-1.994 0-2.905 1.035-2.905 2.39v6.943zM574.258 224.612c0 .1-.05.147-.148.147h-.1c-.098 0-.146-.05-.146-.148v-1.847c0-.1.05-.147.147-.147h.1c.1 0 .148.05.148.147v1.847zM589.573 208.188c-3.446 0-4.26 1.23-4.26 2.856v1.256c0 1.354 1.01 2.118 1.822 2.438l4.925 1.896c1.033.394 2.265 1.305 2.265 2.856v2.24c0 1.873-1.034 3.227-4.776 3.227-3.72 0-4.753-1.354-4.753-3.226v-1.156c0-.098.05-.147.146-.147h.1c.098 0 .146.05.146.147v1.157c0 1.626.91 2.857 4.358 2.857 3.447 0 4.383-1.23 4.383-2.856v-2.24c0-1.38-1.083-2.142-2.02-2.51l-4.924-1.897c-.91-.345-2.068-1.207-2.068-2.783v-1.256c0-1.87.91-3.225 4.654-3.225 3.718 0 4.63 1.353 4.63 3.224v1.305c0 .098-.05.146-.148.146h-.1c-.098 0-.146-.05-.146-.147v-1.306c0-1.625-.812-2.856-4.235-2.856zM599.152 210.133c0 .1-.05.148-.147.148h-.1c-.097 0-.147-.048-.147-.147v-2.438c0-.098.05-.147.148-.147h.1c.098 0 .146.05.146.147v2.438zm0 14.48c0 .098-.05.146-.147.146h-.1c-.097 0-.147-.05-.147-.148v-11.77c0-.1.05-.148.148-.148h.1c.098 0 .146.05.146.147v11.772zM603.583 222.198v-6.943c0-1.6 1.01-2.758 3.3-2.758 2.166 0 3.717.985 4.433 1.576l.05-1.23c0-.1.048-.148.145-.148h.052c.098 0 .146.05.146.147v14.356c0 1.6-.836 2.757-4.014 2.757h-3.25c-.098 0-.147-.05-.147-.147v-.074c0-.1.05-.147.147-.147h3.25c2.88 0 3.62-1.034 3.62-2.388v-3.793c-.74.59-2.266 1.552-4.432 1.552-2.29-.003-3.3-1.16-3.3-2.762zm.394 0c0 1.354.91 2.388 2.906 2.388 2.313 0 3.865-1.157 4.433-1.625v-8.445c-.567-.492-2.12-1.65-4.433-1.65-1.995 0-2.906 1.035-2.906 2.39v6.943zM616.78 212.842l.025 1.23c.738-.59 2.266-1.575 4.457-1.575 2.314 0 3.3 1.157 3.3 2.758v9.357c0 .1-.05.147-.148.147h-.098c-.1 0-.148-.05-.148-.148v-9.357c0-1.354-.886-2.39-2.905-2.39-2.34 0-3.865 1.16-4.433 1.65v10.097c0 .1-.05.147-.146.147h-.1c-.098 0-.148-.05-.148-.148v-11.77c0-.1.05-.148.148-.148h.05c.1 0 .147.05.147.148zM636.972 218.357c0 .1-.05.148-.147.148h-7.584v3.693c0 1.354.788 2.388 3.67 2.388 2.88 0 3.67-1.034 3.67-2.388v-.714c0-.1.048-.147.146-.147h.1c.098 0 .146.05.146.147v.714c0 1.6-.887 2.758-4.063 2.758-3.177 0-4.063-1.158-4.063-2.758v-6.943c0-1.6.887-2.758 4.062-2.758 3.176 0 4.062 1.157 4.062 2.758v3.102zm-7.732-.222h7.338v-2.88c0-1.354-.788-2.39-3.67-2.39-2.88 0-3.668 1.036-3.668 2.39v2.88zM648.545 223.405c-.715.566-2.267 1.552-4.433 1.552-2.29 0-3.3-1.158-3.3-2.758v-6.944c0-1.6 1.01-2.758 3.3-2.758 2.166 0 3.693.985 4.433 1.576v-6.378c0-.098.05-.147.147-.147h.1c.097 0 .146.05.146.146v16.917c0 .1-.05.147-.147.147h-.05c-.098 0-.146-.05-.146-.147l-.05-1.208zm-7.338-1.207c0 1.354.91 2.388 2.905 2.388 2.314 0 3.866-1.157 4.433-1.625v-8.445c-.566-.492-2.118-1.65-4.433-1.65-1.994 0-2.905 1.035-2.905 2.39v6.943zM653.913 224.612c0 .1-.05.147-.148.147h-.098c-.1 0-.148-.05-.148-.148v-1.847c0-.1.048-.147.147-.147h.098c.1 0 .148.05.148.147v1.847z"/></g><g enable-background="new" fill="none" stroke="#fff" stroke-miterlimit="10"><path d="M451.858 208.015c.098 0 .147.05.147.148v.073c0 .1-.05.148-.147.148h-8.814v7.386h8.347c.1 0 .148.05.148.148v.074c0 .1-.05.147-.147.147h-8.346v8.47c0 .1-.05.147-.148.147h-.1c-.098 0-.146-.05-.146-.147v-16.448c0-.1.05-.148.146-.148h9.062zM454.27 215.255c0-1.6.887-2.758 4.063-2.758 3.176 0 4.062 1.157 4.062 2.758v6.943c0 1.6-.887 2.758-4.062 2.758-3.177 0-4.063-1.158-4.063-2.758v-6.943zm7.732 0c0-1.354-.788-2.39-3.67-2.39-2.88 0-3.668 1.036-3.668 2.39v6.943c0 1.354.787 2.388 3.67 2.388 2.88 0 3.668-1.034 3.668-2.388v-6.943zM474.264 223.405c-.69.59-2.118 1.552-4.284 1.552-2.315 0-3.3-1.158-3.3-2.758v-9.358c0-.098.05-.147.148-.147h.098c.098 0 .148.05.148.147v9.357c0 1.353.887 2.387 2.905 2.387 2.313 0 3.717-1.132 4.283-1.625v-10.12c0-.1.05-.148.147-.148h.1c.098 0 .146.05.146.147v11.772c0 .1-.05.147-.147.147h-.05c-.1 0-.147-.05-.147-.148l-.05-1.207zM479.73 212.842l.025 1.23c.738-.59 2.265-1.575 4.457-1.575 2.314 0 3.3 1.157 3.3 2.758v9.357c0 .1-.05.147-.148.147h-.1c-.098 0-.146-.05-.146-.148v-9.357c0-1.354-.887-2.39-2.905-2.39-2.34 0-3.866 1.16-4.433 1.65v10.097c0 .1-.05.147-.147.147h-.1c-.098 0-.146-.05-.146-.148v-11.77c0-.1.05-.148.147-.148h.05c.097 0 .147.05.147.148zM499.528 223.405c-.715.566-2.267 1.552-4.433 1.552-2.29 0-3.3-1.158-3.3-2.758v-6.944c0-1.6 1.01-2.758 3.3-2.758 2.166 0 3.693.985 4.433 1.576v-6.378c0-.098.05-.147.146-.147h.1c.098 0 .146.05.146.146v16.917c0 .1-.05.147-.146.147h-.05c-.1 0-.147-.05-.147-.147l-.05-1.208zm-7.338-1.207c0 1.354.91 2.388 2.905 2.388 2.314 0 3.865-1.157 4.433-1.625v-8.445c-.567-.492-2.118-1.65-4.433-1.65-1.994 0-2.905 1.035-2.905 2.39v6.943zM504.896 224.612c0 .1-.05.147-.148.147h-.098c-.1 0-.148-.05-.148-.148v-1.847c0-.1.05-.147.148-.147h.098c.098 0 .148.05.148.147v1.847zM516.32 224.39h8.102c.098 0 .146.05.146.147v.074c0 .1-.05.148-.146.148h-8.373c-.074 0-.123-.05-.123-.147v-16.447c0-.1.05-.148.146-.148h.1c.098 0 .147.05.147.148v16.227zM527.425 215.255c0-1.6.886-2.758 4.062-2.758s4.062 1.157 4.062 2.758v6.943c0 1.6-.888 2.758-4.063 2.758-3.177 0-4.062-1.158-4.062-2.758v-6.943zm7.732 0c0-1.354-.79-2.39-3.67-2.39s-3.67 1.036-3.67 2.39v6.943c0 1.354.79 2.388 3.67 2.388s3.67-1.034 3.67-2.388v-6.943zM542.322 224.76c-.073 0-.146-.05-.172-.147l-4.038-11.77c-.024-.075-.024-.148.073-.148h.148c.073 0 .147.05.172.147l3.595 10.367c.148.417.296.885.296.885s.1-.394.27-.886l3.57-10.368c.025-.098.1-.147.174-.147h.146c.1 0 .1.074.075.147l-4.038 11.77c-.024.1-.1.148-.172.148h-.098zM557.318 218.357c0 .1-.05.148-.147.148h-7.583v3.693c0 1.354.787 2.388 3.67 2.388 2.88 0 3.668-1.034 3.668-2.388v-.714c0-.1.05-.147.147-.147h.1c.098 0 .146.05.146.147v.714c0 1.6-.887 2.758-4.062 2.758-3.177 0-4.063-1.158-4.063-2.758v-6.943c0-1.6.887-2.758 4.063-2.758 3.176 0 4.062 1.157 4.062 2.758v3.102zm-7.732-.222h7.338v-2.88c0-1.354-.788-2.39-3.67-2.39-2.88 0-3.668 1.036-3.668 2.39v2.88zM568.89 223.405c-.714.566-2.266 1.552-4.432 1.552-2.29 0-3.3-1.158-3.3-2.758v-6.944c0-1.6 1.01-2.758 3.3-2.758 2.166 0 3.693.985 4.433 1.576v-6.378c0-.098.05-.147.148-.147h.1c.098 0 .146.05.146.146v16.917c0 .1-.05.147-.147.147h-.05c-.098 0-.146-.05-.146-.147l-.05-1.208zm-7.337-1.207c0 1.354.91 2.388 2.905 2.388 2.314 0 3.866-1.157 4.433-1.625v-8.445c-.565-.492-2.117-1.65-4.432-1.65-1.994 0-2.905 1.035-2.905 2.39v6.943zM574.258 224.612c0 .1-.05.147-.148.147h-.1c-.098 0-.146-.05-.146-.148v-1.847c0-.1.05-.147.147-.147h.1c.1 0 .148.05.148.147v1.847zM589.573 208.188c-3.446 0-4.26 1.23-4.26 2.856v1.256c0 1.354 1.01 2.118 1.822 2.438l4.925 1.896c1.033.394 2.265 1.305 2.265 2.856v2.24c0 1.873-1.034 3.227-4.776 3.227-3.72 0-4.753-1.354-4.753-3.226v-1.156c0-.098.05-.147.146-.147h.1c.098 0 .146.05.146.147v1.157c0 1.626.91 2.857 4.358 2.857 3.447 0 4.383-1.23 4.383-2.856v-2.24c0-1.38-1.083-2.142-2.02-2.51l-4.924-1.897c-.91-.345-2.068-1.207-2.068-2.783v-1.256c0-1.87.91-3.225 4.654-3.225 3.718 0 4.63 1.353 4.63 3.224v1.305c0 .098-.05.146-.148.146h-.1c-.098 0-.146-.05-.146-.147v-1.306c0-1.625-.812-2.856-4.235-2.856zM599.152 210.133c0 .1-.05.148-.147.148h-.1c-.097 0-.147-.048-.147-.147v-2.438c0-.098.05-.147.148-.147h.1c.098 0 .146.05.146.147v2.438zm0 14.48c0 .098-.05.146-.147.146h-.1c-.097 0-.147-.05-.147-.148v-11.77c0-.1.05-.148.148-.148h.1c.098 0 .146.05.146.147v11.772zM603.583 222.198v-6.943c0-1.6 1.01-2.758 3.3-2.758 2.166 0 3.717.985 4.433 1.576l.05-1.23c0-.1.048-.148.145-.148h.052c.098 0 .146.05.146.147v14.356c0 1.6-.836 2.757-4.014 2.757h-3.25c-.098 0-.147-.05-.147-.147v-.074c0-.1.05-.147.147-.147h3.25c2.88 0 3.62-1.034 3.62-2.388v-3.793c-.74.59-2.266 1.552-4.432 1.552-2.29-.003-3.3-1.16-3.3-2.762zm.394 0c0 1.354.91 2.388 2.906 2.388 2.313 0 3.865-1.157 4.433-1.625v-8.445c-.567-.492-2.12-1.65-4.433-1.65-1.995 0-2.906 1.035-2.906 2.39v6.943zM616.78 212.842l.025 1.23c.738-.59 2.266-1.575 4.457-1.575 2.314 0 3.3 1.157 3.3 2.758v9.357c0 .1-.05.147-.148.147h-.098c-.1 0-.148-.05-.148-.148v-9.357c0-1.354-.886-2.39-2.905-2.39-2.34 0-3.865 1.16-4.433 1.65v10.097c0 .1-.05.147-.146.147h-.1c-.098 0-.148-.05-.148-.148v-11.77c0-.1.05-.148.148-.148h.05c.1 0 .147.05.147.148zM636.972 218.357c0 .1-.05.148-.147.148h-7.584v3.693c0 1.354.788 2.388 3.67 2.388 2.88 0 3.67-1.034 3.67-2.388v-.714c0-.1.048-.147.146-.147h.1c.098 0 .146.05.146.147v.714c0 1.6-.887 2.758-4.063 2.758-3.177 0-4.063-1.158-4.063-2.758v-6.943c0-1.6.887-2.758 4.062-2.758 3.176 0 4.062 1.157 4.062 2.758v3.102zm-7.732-.222h7.338v-2.88c0-1.354-.788-2.39-3.67-2.39-2.88 0-3.668 1.036-3.668 2.39v2.88zM648.545 223.405c-.715.566-2.267 1.552-4.433 1.552-2.29 0-3.3-1.158-3.3-2.758v-6.944c0-1.6 1.01-2.758 3.3-2.758 2.166 0 3.693.985 4.433 1.576v-6.378c0-.098.05-.147.147-.147h.1c.097 0 .146.05.146.146v16.917c0 .1-.05.147-.147.147h-.05c-.098 0-.146-.05-.146-.147l-.05-1.208zm-7.338-1.207c0 1.354.91 2.388 2.905 2.388 2.314 0 3.866-1.157 4.433-1.625v-8.445c-.566-.492-2.118-1.65-4.433-1.65-1.994 0-2.905 1.035-2.905 2.39v6.943zM653.913 224.612c0 .1-.05.147-.148.147h-.098c-.1 0-.148-.05-.148-.148v-1.847c0-.1.048-.147.147-.147h.098c.1 0 .148.05.148.147v1.847z"/></g></svg>