<?xml version="1.0" encoding="utf-8"?>
<!DOCTYPE svg PUBLIC "-//W3C//DTD SVG 1.1//EN" "http://www.w3.org/Graphics/SVG/1.1/DTD/svg11.dtd">
<svg version="1.1" xmlns="http://www.w3.org/2000/svg" xmlns:xlink="http://www.w3.org/1999/xlink" x="0px" y="0px"
	 width="680.418px" height="270.053px" viewBox="-140.062 165.944 680.418 270.053"
	 enable-background="new -140.062 165.944 680.418 270.053" xml:space="preserve">
<g>
	<path fill="#FECA04" d="M-33.758,178.078c-6.024,12.652-30.593,65.873-35.948,77.454c15.464,1.875,30.794,11.515,32.668,28.05
		c1.473,13.255-9.907,44.786-11.581,49.605c17.138-16.468,49.873-46.459,54.761-50.609c6.962-5.892,11.782-10.711,18.074-7.899
		c6.829,3.013,7.364,13.456,6.829,21.958c-1.808,29.522-3.013,41.84,2.744,50.007c4.887,6.962,11.85,10.711,21.222,10.108
		s21.087-6.158,28.92-13.121c0,0-73.84-159.93-76.785-165.754c-2.209-4.351-8.77-11.514-19.815-11.916
		C-24.987,165.492-32.218,174.798-33.758,178.078z"/>
	<path fill="#FECA04" d="M111.378,402.743c-4.218-10.845-19.883-43.045-22.494-48.669c-8.233,7.431-32.802,21.355-51.747,13.791
		c-7.297-2.945-25.037-10.443-24.903-36.484c0.066-10.109,0.401-20.284,0.335-30.394c-5.69,5.355-63.798,60.317-70.358,65.605
		c-4.285,3.481-8.302,4.419-12.586,2.544c-4.887-2.075-5.355-9.104-4.017-13.857c0.804-3.013,15.464-39.631,19.28-59.312
		c1.473-7.766,1.205-24.1-20.352-28.05c0,0-60.049,129.604-62.057,134.09c-8.436,18.744,5.958,31.798,16.401,33.539
		c12.986,2.142,22.292-4.017,28.183-17.205c4.419-9.975,11.18-14.728,18.678-14.728c6.694,0,114.14,0,122.24,0
		c9.573,0,16,7.832,18.744,14.795c4.485,11.246,11.313,15.664,18.678,17.138C101.269,438.826,119.612,423.83,111.378,402.743z"/>
</g>
<g>
	<g>
		<g>
			<path fill="#FFFFFF" d="M232.681,220.52v77.053h-19.749v-5.69c-6.359,4.285-14.059,6.829-22.561,6.829
				c-24.1,0-38.292-19.414-38.292-39.832c0-20.552,14.192-39.832,38.292-39.832c8.101,0,16,2.544,22.561,6.359v-4.819h19.749V220.52
				z M212.999,243.482c-4.82-4.083-11.648-6.694-19.013-6.694c-14.058,0-22.828,10.511-22.828,21.958
				c0,11.648,8.971,22.158,22.828,22.158c7.498,0,14.192-2.41,19.013-6.493V243.482z"/>
			<path fill="#FFFFFF" d="M319.574,220.52v77.053h-19.749v-5.088c-5.824,3.95-13.054,6.227-21.021,6.227
				c-22.561,0-32.937-10.511-32.937-35.48V220.52h19.815v42.711c0,11.916,5.824,17.74,16.736,17.74
				c7.096,0,12.92-2.276,17.473-6.093V220.52H319.574L319.574,220.52z"/>
			<path fill="#FFFFFF" d="M411.555,190.529v106.978h-19.882v-4.687c-6.226,3.682-14.326,5.958-22.427,5.958
				c-21.422,0-39.028-16.2-39.028-39.832c0-24.1,17.606-39.831,39.028-39.831c8.234,0,16,2.275,22.427,5.824v-27.113
				L411.555,190.529z M391.673,274.277v-30.929c-4.687-3.949-11.381-6.493-18.879-6.493c-13.188,0-22.961,9.506-22.961,22.158
				c0,13.054,9.773,21.958,22.961,21.958C380.226,280.904,386.987,278.36,391.673,274.277z"/>
			<path fill="#FFFFFF" d="M423.002,200.972c0-6.359,5.088-11.647,11.381-11.647c6.226,0,11.18,5.222,11.18,11.647
				c0,6.36-4.954,11.515-11.18,11.515S423.002,207.333,423.002,200.972z M424.61,220.855h19.748v77.053H424.61V220.855z"/>
			<path fill="#FFFFFF" d="M540.021,258.946c0,21.958-18.878,39.698-42.107,39.698c-23.297,0-42.108-17.74-42.108-39.698
				c0-22.158,18.879-39.831,42.108-39.831C521.209,219.048,540.021,236.788,540.021,258.946z M520.607,258.946
				c0-12.184-10.041-22.158-22.693-22.158c-12.452,0-22.694,9.908-22.694,22.158c0,12.051,10.242,21.958,22.694,21.958
				C510.566,280.904,520.607,270.997,520.607,258.946z"/>
		</g>
		<g>
			<path fill="#FFFFFF" d="M199.744,372.819v30.928h-3.549v-30.928c0-13.121-8.636-20.15-19.815-20.15
				c-8.77,0-15.396,2.812-20.686,7.431v43.647h-3.548v-53.556h3.548v6.494c4.887-4.753,12.318-7.431,20.954-7.431
				C189.702,349.187,199.744,357.22,199.744,372.819z"/>
			<path fill="#FFFFFF" d="M261.667,378.175h-49.338c0.804,13.121,11.313,22.493,23.766,22.493c8.033,0,15.799-3.013,20.552-9.038
				l2.812,2.21c-4.954,6.292-13.522,10.309-23.564,10.309c-16.134,0-27.246-12.317-27.246-27.447
				c0-15.196,11.112-27.514,27.246-27.514c15.933,0,25.773,11.515,25.773,27.849V378.175z M212.329,375.028h45.856
				c-0.669-13.121-8.97-22.493-22.292-22.493C222.505,352.535,212.932,362.376,212.329,375.028z"/>
			<path fill="#FFFFFF" d="M277.065,353.405v33.204c0,10.108,4.887,13.991,11.849,13.991c4.352,0,7.029-0.469,8.837-1.004v3.28
				c-1.874,0.469-5.088,1.205-9.573,1.205c-8.167,0-14.794-5.289-14.794-15.531v-35.213h-9.841v-3.28h9.841v-19.146l3.682-1.205
				v20.418h20.887v3.28H277.065L277.065,353.405z"/>
			<path fill="#FFFFFF" d="M387.924,350.125l-20.887,53.555h-2.209l-17.205-47.396l-17.204,47.396h-2.209l-21.088-53.555h3.883
				l18.409,47.329l16.87-47.329h2.478l17.004,47.329l18.409-47.329H387.924L387.924,350.125z"/>
			<path fill="#FFFFFF" d="M448.307,376.701c0,15.13-13.054,27.447-29.054,27.447c-16.133,0-29.12-12.317-29.12-27.447
				c0-15.196,13.054-27.514,29.12-27.514C435.253,349.187,448.307,361.505,448.307,376.701z M444.693,376.701
				c0-13.321-11.447-24.032-25.438-24.032c-14.126,0-25.573,10.711-25.573,24.032c0,13.256,11.447,23.967,25.573,23.967
				C433.312,400.668,444.693,389.889,444.693,376.701z"/>
			<path fill="#FFFFFF" d="M460.759,362.978c3.079-8.234,9.439-13.724,18.209-13.791c2.878,0,6.092,0.67,9.238,2.276l-0.87,3.481
				c-3.08-1.474-6.092-2.009-8.636-2.009c-10.645,0-17.874,9.907-17.874,22.694v28.116h-3.549v-53.556h3.549L460.759,362.978
				L460.759,362.978z"/>
			<path fill="#FFFFFF" d="M534.063,400.668c-3.749-0.603-5.891-4.084-8.368-8.101l-6.761-11.18l-1.406-2.343h-0.066l-3.08-5.021
				l21.288-24.501l-4.552,0.066l-30.058,34.343l-0.134-54.292l-3.481,1.406v72.701h3.548v-10.645v-3.614l11.113-12.787l2.008,3.28
				l8.301,13.992c1.875,3.146,5.088,9.037,10.912,9.975c1.606,0.268,4.687,0.334,7.029-1.139l-1.004-2.945
				C537.744,400.868,535.469,400.868,534.063,400.668z"/>
		</g>
	</g>
</g>
</svg>
