<?xml version="1.0" encoding="utf-8"?>
<!-- Generator: Adobe Illustrator 15.1.0, SVG Export Plug-In . SVG Version: 6.00 Build 0)  -->
<!DOCTYPE svg PUBLIC "-//W3C//DTD SVG 1.1//EN" "http://www.w3.org/Graphics/SVG/1.1/DTD/svg11.dtd">
<svg version="1.1" id="Layer_1" xmlns="http://www.w3.org/2000/svg" xmlns:xlink="http://www.w3.org/1999/xlink" x="0px" y="0px"
	 width="595.158px" height="595.281px" viewBox="-67.635 36.8 595.158 595.281"
	 enable-background="new -67.635 36.8 595.158 595.281" xml:space="preserve">
<g>
	<path fill="#FECA04" d="M229.945,36.8C65.657,36.8-67.635,170.092-67.635,334.379S65.657,632.081,229.945,632.081
		c164.41,0,297.579-133.292,297.579-297.579S394.355,36.8,229.945,36.8z M200.542,128.315c2.205-4.655,12.618-18.131,30.383-17.396
		c15.804,0.613,25.237,10.904,28.545,17.152c4.288,8.208,110.505,238.528,110.505,238.528
		c-11.271,10.046-28.178,18.009-41.654,18.867c-13.476,0.857-23.521-4.533-30.505-14.579c-8.331-11.761-6.493-29.525-3.92-72.037
		c0.734-12.251,0-27.319-9.924-31.607c-9.065-4.043-16.049,2.94-25.972,11.394c-7.106,6.003-54.15,49.127-78.897,72.895
		c2.45-6.983,18.744-52.312,16.661-71.425c-2.695-23.767-24.747-37.733-47.044-40.306
		C156.439,223.139,191.844,146.57,200.542,128.315z M372.18,498.911c-10.658-2.205-20.459-8.575-26.952-24.747
		c-4.043-10.046-13.231-21.316-26.953-21.316c-11.638,0-166.369,0-175.925,0c-10.781,0-20.46,6.86-26.953,21.194
		c-8.453,18.989-21.929,27.81-40.551,24.747c-15.068-2.45-35.65-21.317-23.645-48.27c2.94-6.493,89.311-193.077,89.311-193.077
		c30.995,5.758,31.362,29.157,29.28,40.429c-5.391,28.3-26.463,80.979-27.688,85.39c-1.838,6.861-1.226,16.907,5.758,19.97
		c6.126,2.572,12.006,1.348,18.132-3.676c9.434-7.596,92.985-86.737,101.193-94.456c0.123,14.579-0.367,29.158-0.489,43.737
		c-0.245,37.488,25.237,48.269,35.772,52.557c27.197,10.903,62.604-9.188,74.487-19.847c3.798,8.086,26.339,54.395,32.465,70.076
		C421.307,482.005,394.844,503.689,372.18,498.911z"/>
</g>
</svg>
