<?xml version="1.0" encoding="utf-8"?>
<!-- Generator: Adobe Illustrator 15.1.0, SVG Export Plug-In . SVG Version: 6.00 Build 0)  -->
<!DOCTYPE svg PUBLIC "-//W3C//DTD SVG 1.1//EN" "http://www.w3.org/Graphics/SVG/1.1/DTD/svg11.dtd">
<svg version="1.1" id="Layer_1" xmlns="http://www.w3.org/2000/svg" xmlns:xlink="http://www.w3.org/1999/xlink" x="0px" y="0px"
	 width="250.161px" height="140px" viewBox="296.514 213.279 250.161 140" enable-background="new 296.514 213.279 250.161 140"
	 xml:space="preserve">
<path fill="#FBC61A" d="M484.134,240.925c4.519-2.485,7.343-4.481,12.727-5.083c6.702-0.715-2.484,15.927,10.882,6.74
	c2.222-1.544,8.246-7.53,11.258-5.234c2.41,1.808,3.728,5.422,7.343,4.631c7.492-1.694,10.768-13.367,9.978-20.106
	c-0.339-2.749-1.958-6.928-5.008-7.832c-4.405-1.318-4.819,9.639-11.183,6.626c-2.861-1.318-2.975-4.895-6.213-6.024
	c-3.878-1.355-9.602,6.288-10.882,5.422c-6.513-17.546-39.948,2.598-30.912,18.977C474.909,244.012,479.692,243.372,484.134,240.925
	"/>
<path fill="#FFFFFF" d="M326.41,282.154c0,7.869-4.217,12.162-10.392,12.162c-3.916,0-6.1-2.071-6.1-5.573
	c0-6.175,6.175-7.379,16.492-12.162V282.154z M323.473,271.837c-2.259,1.469-6.476,1.958-11.974,3.652
	c-9.902,3.05-14.835,6.777-14.835,14.421c0,7.267,5.61,12.651,14.044,12.651c6.853,0,11.973-2.26,15.889-7.342
	c1.469,5.007,4.895,7.342,10.693,7.342c8.848,0,12.162-5.309,12.162-16.944v-2.071h-5.987c0,7.644-0.188,10.807-3.05,10.807
	c-1.469,0-2.259-0.979-2.259-3.352v-20.633c0-6.777-0.414-11.183-5.121-14.345c-3.238-2.146-8.321-3.352-14.985-3.352
	c-11.974,0-19.052,5.196-19.052,12.275c0,4.48,3.238,7.643,7.869,7.643c4.104,0,6.853-2.56,6.853-6.25
	c0-3.351-2.259-5.384-6.175-5.384h-0.263c2.372-2.071,5.309-2.861,9.3-2.861c6.476,0,10.09,2.635,10.09,7.455
	C326.711,268.523,325.808,270.293,323.473,271.837L323.473,271.837z M353.256,266.942v18.224c0,11.748,3.84,17.057,14.91,17.057
	c5.573,0,11.07-3.238,16.19-9.639v8.133h19.993v-6.552h-2.561c-5.008,0-5.686-1.356-5.686-5.874v-33.849h-21.988v6.551h4.518
	c5.008,0,5.686,1.394,5.686,5.912v11.973c0,10.392-5.121,15.814-12.049,15.814c-5.497,0-7.267-3.163-7.267-9.526v-30.687h-19.692
	v6.551h2.259C352.54,261.069,353.256,262.424,353.256,266.942"/>
<path fill="#FFFFFF" d="M428.748,261.257c6.664,0,11.183,5.798,11.183,16.492c0,10.693-4.519,16.567-11.183,16.567
	c-7.568,0-11.183-5.497-11.183-16.567C417.566,266.641,421.18,261.257,428.748,261.257 M424.156,302.147
	c7.529,0,12.537-2.975,15.775-9.413v8.057h20.295v-6.551h-2.824c-5.008,0-5.61-1.355-5.61-5.874v-53.391h-21.574v6.589h4.142
	c5.008,0,5.61,1.356,5.61,5.874v14.797c-3.238-6.476-8.246-9.488-15.776-9.488c-12.463,0-19.918,8.923-19.918,24.7
	C404.237,293.223,411.692,302.147,424.156,302.147L424.156,302.147z M494.527,294.202h-2.937c-5.008,0-5.686-1.355-5.686-5.874
	v-33.849h-21.161v6.551h3.615c5.008,0,5.609,1.393,5.609,5.912v21.386c0,4.519-0.602,5.874-5.609,5.874h-3.615v6.551h29.82v-6.551
	H494.527L494.527,294.202z M520.469,259.675c8.547,0,12.839,5.987,12.839,17.96c0,11.974-4.329,17.848-12.839,17.848
	c-8.547,0-12.727-5.912-12.727-17.848C507.742,265.662,511.959,259.675,520.469,259.675 M520.469,302.448
	c15.89,0,26.206-9.94,26.206-24.813c0-14.91-10.317-24.925-26.206-24.925c-15.89,0-26.093,10.015-26.093,24.925
	C494.376,292.546,504.579,302.448,520.469,302.448z M314.173,348.986h-2.108c-3.464,0-4.104-0.715-4.104-3.652v-10.505
	c0-6.4,3.991-10.392,9.677-10.392c4.857,0,6.363,2.937,6.363,9.563v11.333c0,2.938-0.64,3.652-4.104,3.652h-2.108v3.163h17.32
	v-3.163h-1.393c-3.464,0-4.179-0.715-4.179-3.652v-10.505c0-4.367-0.15-7.644-1.845-10.016c-1.845-2.56-4.669-3.84-8.509-3.84
	c-4.819,0-8.66,2.07-11.145,6.099v-5.195h-11.521v3.087h1.807c3.464,0,4.179,0.754,4.179,3.69v16.68
	c0,2.938-0.715,3.652-4.179,3.652h-1.807v3.163h17.697v-3.163H314.173z M350.771,323.947c5.686,0,8.396,3.352,8.509,10.204h-17.244
	C342.45,327.524,345.575,323.947,350.771,323.947 M364.665,342.209h-3.766c-1.431,4.857-4.706,7.418-9.601,7.418
	c-6.1,0-9.413-4.029-9.413-11.673v-0.452h23.758c-0.075-10.956-5.233-16.792-14.722-16.792c-9.149,0-15.249,6.476-15.249,16.303
	c0,9.94,6.288,16.266,15.249,16.266C358.64,353.316,363.197,349.589,364.665,342.209z M388.31,339.761h-2.937
	c0,6.815-0.828,9.752-4.669,9.752c-2.108,0-3.087-1.13-3.087-3.502V325.04h9.225v-3.163h-9.225v-11.974h-3.012
	c-0.564,7.832-3.012,11.747-7.869,11.974v3.163h5.384v20.972c0,4.405,2.937,7.229,7.568,7.229c6.213,0,8.66-3.991,8.66-12.727
	L388.31,339.761L388.31,339.761z M440.722,324.964h0.828v-3.087h-13.404v3.087h1.996c2.033,0,2.937,0.264,2.937,1.28
	c0,0.565-0.188,1.469-0.564,2.485l-6.627,16.491l-6.589-17.094c-0.263-0.564-0.376-1.092-0.376-1.656
	c0-1.355,0.979-1.469,3.088-1.469h1.845v-3.088h-15.061v3.088h1.394c2.108,0,2.899,0.903,3.539,2.674l0.452,1.167l-6.626,16.379
	l-6.665-17.095c-0.264-0.64-0.452-1.092-0.452-1.581c0-1.092,0.828-1.544,2.447-1.544h2.108v-3.088h-14.685v3.088h1.167
	c2.297,0,3.012,0.941,3.916,3.313l9.526,24.173h3.652l7.379-18.713l7.38,18.713h3.652l9.413-23.797
	C437.408,326.132,438.35,324.964,440.722,324.964"/>
<path fill="#FFFFFF" d="M468.17,337.012c0,8.396-3.765,12.952-10.392,12.952c-6.59,0-10.393-4.556-10.393-12.952
	c0-8.396,3.766-12.99,10.393-12.99C464.367,324.022,468.17,328.617,468.17,337.012 M441.174,337.012
	c0,9.677,7.003,16.229,16.604,16.229c9.601,0,16.604-6.552,16.604-16.229s-6.965-16.303-16.604-16.303
	C448.177,320.747,441.174,327.336,441.174,337.012L441.174,337.012z M496.523,328.993c0,1.808,1.543,3.275,3.576,3.275
	c2.259,0,3.916-1.845,3.916-4.556c0-3.69-2.861-6.777-7.305-6.777c-3.991,0-7.003,2.41-9.225,7.229v-6.288h-11.483v3.087h1.807
	c3.464,0,4.18,0.754,4.18,3.728v16.643c0,2.938-0.716,3.652-4.18,3.652h-1.807v3.125h18.713v-3.125h-3.125
	c-3.465,0-4.104-0.715-4.104-3.652v-7.191c0-8.811,4.255-14.232,8.961-14.232c1.469,0,2.561,0.527,3.615,1.883h-0.377
	C497.765,325.793,496.523,327.148,496.523,328.993 M514.483,345.334v-3.841l5.309-4.028l8.208,8.924
	c0.527,0.526,0.791,0.941,0.791,1.431c0,0.753-1.205,1.205-3.652,1.205h-1.657v3.125h18.337v-3.125h-0.979
	c-2.409,0-4.556-0.941-6.362-2.899l-10.693-11.785l8.095-6.552c2.561-2.033,4.405-2.748,7.305-2.748h0.941v-3.163h-18.901v3.163
	h2.937c2.297,0,3.389,0.188,3.389,0.979c0,0.828-0.715,1.581-1.92,2.561l-11.145,8.811V309.15h-11.107v3.088h1.731
	c3.464,0,4.104,0.715,4.104,3.652v29.481c0,2.937-0.641,3.652-4.104,3.652h-1.731v3.125h16.68v-3.125h-1.394
	C515.159,348.986,514.483,348.308,514.483,345.334"/>
</svg>
