<?xml version="1.0" encoding="utf-8"?>
<!-- Generator: Adobe Illustrator 15.1.0, SVG Export Plug-In . SVG Version: 6.00 Build 0)  -->
<!DOCTYPE svg PUBLIC "-//W3C//DTD SVG 1.1//EN" "http://www.w3.org/Graphics/SVG/1.1/DTD/svg11.dtd">
<svg version="1.1" id="Layer_1" xmlns="http://www.w3.org/2000/svg" xmlns:xlink="http://www.w3.org/1999/xlink" x="0px" y="0px"
	 width="107.19px" height="60px" viewBox="0 0 107.19 60" enable-background="new 0 0 107.19 60" xml:space="preserve">
<path fill="#FBC61A" d="M80.415,11.847c1.919-1.08,3.148-1.919,5.457-2.188c2.879-0.3-1.079,6.836,4.678,2.878
	c0.959-0.66,3.538-3.208,4.827-2.249c1.02,0.779,1.589,2.338,3.148,1.979c3.208-0.719,4.617-5.727,4.287-8.605
	c-0.149-1.169-0.839-2.968-2.129-3.358c-1.889-0.57-2.068,4.138-4.797,2.848c-1.229-0.569-1.289-2.099-2.669-2.579
	c-1.679-0.569-4.107,2.699-4.647,2.339c-2.788-7.526-17.12,1.109-13.252,8.125C76.458,13.167,78.496,12.896,80.415,11.847"/>
<path fill="#585657" d="M12.833,29.507c0,3.358-1.799,5.217-4.468,5.217c-1.679,0-2.608-0.869-2.608-2.398
	c0-2.669,2.639-3.148,7.076-5.217V29.507L12.833,29.507z M11.574,25.1c-0.959,0.629-2.789,0.839-5.127,1.559
	c-4.257,1.319-6.356,2.908-6.356,6.177c0,3.118,2.399,5.427,6.027,5.427c2.938,0,5.127-0.959,6.806-3.148
	c0.629,2.159,2.099,3.148,4.587,3.148c3.778,0,5.217-2.278,5.217-7.256v-0.899h-2.549c0,3.269-0.09,4.617-1.319,4.617
	c-0.629,0-0.959-0.42-0.959-1.438V24.47c0-2.908-0.18-4.798-2.188-6.146c-1.379-0.93-3.568-1.439-6.417-1.439
	c-5.127,0-8.156,2.219-8.156,5.247c0,1.919,1.379,3.268,3.358,3.268c1.769,0,2.938-1.079,2.938-2.698
	c0-1.438-0.959-2.309-2.639-2.309h-0.12c1.02-0.899,2.279-1.229,3.988-1.229c2.789,0,4.318,1.14,4.318,3.179
	C12.953,23.661,12.563,24.41,11.574,25.1L11.574,25.1z M24.316,23v7.826c0,5.037,1.649,7.315,6.386,7.315
	c2.399,0,4.737-1.379,6.926-4.107v3.478h8.575v-2.818h-1.08c-2.159,0-2.428-0.6-2.428-2.519V17.664h-9.415v2.818h1.949
	c2.128,0,2.429,0.6,2.429,2.519v5.128c0,4.467-2.189,6.776-5.157,6.776c-2.369,0-3.119-1.35-3.119-4.078V17.664h-8.455v2.818h0.959
	C24.046,20.453,24.316,21.052,24.316,23"/>
<path fill="#585657" d="M56.698,20.542c2.849,0,4.798,2.488,4.798,7.076c0,4.587-1.919,7.105-4.798,7.105
	c-3.238,0-4.797-2.339-4.797-7.105C51.901,22.851,53.46,20.542,56.698,20.542 M54.719,38.083c3.238,0,5.367-1.26,6.776-4.048v3.448
	h8.695v-2.818h-1.199c-2.159,0-2.399-0.6-2.399-2.519V9.299h-9.234v2.818h1.769c2.159,0,2.399,0.569,2.399,2.518v6.356
	c-1.38-2.758-3.538-4.077-6.777-4.077c-5.337,0-8.545,3.838-8.545,10.584C46.174,34.245,49.382,38.083,54.719,38.083L54.719,38.083z
	 M84.852,34.665h-1.259c-2.159,0-2.429-0.6-2.429-2.519V17.664H72.08v2.818h1.56c2.158,0,2.398,0.6,2.398,2.519v9.146
	c0,1.948-0.24,2.519-2.398,2.519h-1.56v2.818h12.772V34.665L84.852,34.665z M95.976,19.882c3.658,0,5.517,2.549,5.517,7.706
	c0,5.127-1.858,7.646-5.517,7.646s-5.457-2.519-5.457-7.646C90.519,22.431,92.318,19.882,95.976,19.882 M95.976,38.203
	c6.806,0,11.214-4.258,11.214-10.645c0-6.386-4.408-10.674-11.214-10.674c-6.807,0-11.184,4.288-11.184,10.674
	C84.792,33.945,89.169,38.203,95.976,38.203z M7.586,58.141H6.687c-1.469,0-1.769-0.3-1.769-1.56v-4.497
	c0-2.759,1.709-4.468,4.138-4.468c2.099,0,2.729,1.26,2.729,4.078v4.857c0,1.259-0.27,1.559-1.77,1.559H9.115v1.35h7.406v-1.35h-0.6
	c-1.47,0-1.769-0.3-1.769-1.559v-4.498c0-1.858-0.06-3.268-0.81-4.287c-0.81-1.079-2.009-1.649-3.658-1.649
	c-2.069,0-3.718,0.87-4.767,2.608v-2.219H0v1.319h0.78c1.469,0,1.769,0.33,1.769,1.59v7.136c0,1.259-0.3,1.559-1.769,1.559H0v1.35
	h7.586V58.141L7.586,58.141z M23.267,47.407c2.429,0,3.598,1.439,3.658,4.378h-7.406C19.699,48.966,21.048,47.407,23.267,47.407
	 M29.234,55.233h-1.619c-0.6,2.068-2.009,3.178-4.108,3.178c-2.608,0-4.048-1.738-4.048-5.007v-0.18h10.194
	c-0.03-4.678-2.249-7.196-6.326-7.196c-3.928,0-6.537,2.789-6.537,6.986c0,4.258,2.699,6.986,6.537,6.986
	C26.655,60,28.604,58.411,29.234,55.233L29.234,55.233z M39.368,54.183h-1.259c0,2.909-0.36,4.168-2.009,4.168
	c-0.899,0-1.319-0.479-1.319-1.499v-8.965h3.958v-1.35h-3.958v-5.127h-1.29c-0.24,3.358-1.289,5.037-3.388,5.127v1.35h2.309v8.965
	c0,1.889,1.259,3.088,3.238,3.088c2.668,0,3.718-1.709,3.718-5.457V54.183z M61.826,47.857h0.359v-1.319h-5.727v1.319h0.869
	c0.87,0,1.26,0.12,1.26,0.54c0,0.239-0.09,0.629-0.24,1.079l-2.849,7.046l-2.818-7.315c-0.12-0.24-0.15-0.48-0.15-0.72
	c0-0.57,0.42-0.63,1.319-0.63h0.78v-1.319h-6.446v1.319h0.6c0.899,0,1.229,0.39,1.499,1.14l0.18,0.51l-2.849,7.016l-2.848-7.315
	c-0.12-0.271-0.18-0.48-0.18-0.69c0-0.479,0.36-0.659,1.049-0.659h0.9v-1.319h-6.297v1.319h0.48c0.989,0,1.289,0.42,1.679,1.439
	l4.078,10.344h1.559l3.148-8.005l3.148,8.005h1.559l4.048-10.194C60.386,48.367,60.806,47.857,61.826,47.857"/>
<path fill="#585657" d="M73.579,53.014c0,3.598-1.619,5.547-4.438,5.547s-4.438-1.949-4.438-5.547s1.619-5.577,4.438-5.577
	S73.579,49.417,73.579,53.014 M62.005,53.014c0,4.138,2.998,6.956,7.105,6.956c4.108,0,7.106-2.818,7.106-6.956
	s-2.998-6.986-7.106-6.986C65.003,46.028,62.005,48.876,62.005,53.014z M85.722,49.596c0,0.779,0.659,1.409,1.528,1.409
	c0.96,0,1.68-0.81,1.68-1.949c0-1.589-1.229-2.908-3.118-2.908c-1.709,0-2.999,1.05-3.958,3.118v-2.698h-4.917v1.319h0.779
	c1.47,0,1.799,0.33,1.799,1.589v7.136c0,1.26-0.3,1.56-1.799,1.56h-0.779v1.349h8.005v-1.349h-1.349c-1.499,0-1.77-0.3-1.77-1.56
	v-3.088c0-3.778,1.829-6.087,3.838-6.087c0.63,0,1.109,0.21,1.529,0.81h-0.18C86.261,48.217,85.722,48.787,85.722,49.596
	 M93.427,56.582v-1.648l2.279-1.739l3.508,3.838c0.21,0.21,0.33,0.42,0.33,0.6c0,0.33-0.51,0.51-1.56,0.51h-0.72v1.35h7.855v-1.35
	h-0.419c-1.05,0-1.949-0.42-2.729-1.229l-4.588-5.037l3.479-2.818c1.109-0.869,1.889-1.169,3.118-1.169h0.419v-1.35h-8.095v1.35
	h1.259c0.99,0,1.47,0.09,1.47,0.42c0,0.359-0.3,0.689-0.81,1.079l-4.768,3.777V41.05H88.69v1.319h0.75c1.499,0,1.769,0.3,1.769,1.56
	v12.623c0,1.259-0.27,1.559-1.769,1.559h-0.75v1.35h7.137v-1.35h-0.601C93.727,58.141,93.427,57.841,93.427,56.582"/>
</svg>
