<svg xmlns="http://www.w3.org/2000/svg" width="14.996" height="12.103" viewBox="0 0 14.996 12.103"><path fill="#fff" d="M14.996 1.315c-.526.264-1.14.438-1.754.526.614-.351 1.141-.965 1.315-1.666-.613.351-1.228.614-1.929.789-.525-.612-1.402-.964-2.279-.964-1.666 0-3.07 1.403-3.07 3.069 0 .264 0 .438.087.702-2.543-.087-4.823-1.315-6.313-3.245-.264.439-.439.965-.439 1.579 0 1.052.526 2.017 1.403 2.543-.526 0-.965-.176-1.403-.351 0 1.49 1.052 2.718 2.455 2.981-.262.089-.526.089-.789.089-.176 0-.351 0-.614-.088.352 1.228 1.491 2.104 2.895 2.104-1.053.789-2.368 1.315-3.858 1.315h-.702c1.403.877 2.981 1.403 4.735 1.403 5.701 0 8.771-4.648 8.771-8.77v-.438c.524-.437 1.051-.963 1.489-1.578z"/></svg>