<?xml version="1.0" encoding="utf-8"?>
<!-- Generator: Adobe Illustrator 15.1.0, SVG Export Plug-In . SVG Version: 6.00 Build 0)  -->
<!DOCTYPE svg PUBLIC "-//W3C//DTD SVG 1.1//EN" "http://www.w3.org/Graphics/SVG/1.1/DTD/svg11.dtd">
<svg version="1.1" id="Layer_1" xmlns="http://www.w3.org/2000/svg" xmlns:xlink="http://www.w3.org/1999/xlink" x="0px" y="0px"
	 width="316.641px" height="70px" viewBox="262.342 262.852 316.641 70" enable-background="new 262.342 262.852 316.641 70"
	 xml:space="preserve">
<g>
	<g>
		<g>
			<path fill="#585657" d="M375.431,307.387c1.223,0.556,2.558,0.834,4.003,0.834c1.39,0,2.78-0.278,4.003-0.834
				c1.223-0.5,2.335-1.278,3.28-2.224s1.668-2.058,2.224-3.281c0.556-1.223,0.834-2.557,0.834-4.002c0-1.39-0.278-2.78-0.834-4.003
				c-0.556-1.223-1.279-2.335-2.224-3.28s-2.057-1.668-3.28-2.224c-1.224-0.556-2.557-0.834-4.003-0.834
				c-1.445,0-2.78,0.278-4.003,0.834s-2.335,1.279-3.281,2.224s-1.668,2.057-2.224,3.28c-0.556,1.224-0.834,2.613-0.834,4.003
				s0.278,2.78,0.834,4.002c0.5,1.224,1.278,2.336,2.224,3.281C373.041,306.109,374.153,306.832,375.431,307.387z M373.986,295.49
				c0.333-0.779,0.723-1.39,1.223-1.946c0.5-0.556,1.112-1.001,1.835-1.335c0.722-0.333,1.501-0.5,2.335-0.5s1.613,0.167,2.335,0.5
				c0.722,0.333,1.333,0.779,1.834,1.335c0.5,0.611,0.945,1.223,1.223,1.946c0.333,0.723,0.445,1.501,0.445,2.391
				c0,0.89-0.111,1.667-0.445,2.391c-0.333,0.778-0.723,1.39-1.223,1.946c-0.501,0.556-1.112,1-1.834,1.333
				c-0.723,0.334-1.501,0.501-2.335,0.501s-1.613-0.167-2.335-0.501c-0.723-0.333-1.335-0.777-1.835-1.333
				c-0.5-0.557-0.945-1.224-1.223-1.946c-0.334-0.778-0.445-1.558-0.445-2.391C373.541,297.046,373.708,296.267,373.986,295.49z"/>
			<path fill="#585657" d="M275.74,299.159c-0.055,0.611-0.222,1.168-0.444,1.724c-0.223,0.501-0.556,1-0.945,1.39
				c-0.39,0.39-0.834,0.723-1.334,0.945c-0.5,0.223-1.057,0.333-1.668,0.333c-0.945,0-1.779-0.277-2.557-0.889
				c-0.556-0.39-1.001-0.945-1.335-1.612c-0.333-0.668-0.5-1.279-0.5-1.891v-22.017h-4.615v22.351
				c0.055,0.611,0.111,1.111,0.223,1.501c0.055,0.333,0.222,0.723,0.333,1.112c0.333,0.889,0.779,1.612,1.335,2.335
				c0.556,0.723,1.223,1.334,1.946,1.834c0.778,0.501,1.557,0.891,2.391,1.112c0.89,0.223,1.779,0.39,2.669,0.39
				c0.889,0,1.779-0.111,2.613-0.39c0.611-0.222,1.167-0.389,1.668-0.667l0.611,1.112h4.059v-8.952l0,0c0-0.056,0-0.444,0-1.112
				c0-0.89,0-1.946,0-3.336c0-1.334,0-2.891,0-4.559s0-3.392,0-5.004c0-1.668,0-3.114,0-4.504c0-1.39,0-2.446,0.055-3.169h-4.559
				v21.962H275.74z"/>
			<path fill="#585657" d="M298.759,291.597c-0.389-0.778-1-1.446-1.668-2.057c-0.723-0.612-1.445-1.057-2.224-1.334
				c-0.778-0.334-1.667-0.501-2.613-0.612c-0.945-0.055-1.779,0.056-2.558,0.334c-0.223,0.055-0.5,0.111-0.778,0.223
				c-0.223,0.11-0.501,0.222-0.723,0.333l-0.89-0.612h-4.393v20.071h4.393v-12.121c0-0.5,0.111-1,0.334-1.501
				c0.222-0.5,0.5-0.945,0.834-1.279c0.611-0.667,1.39-1.112,2.224-1.278c0.389-0.111,0.834-0.111,1.223-0.056
				c0.445,0.111,0.834,0.223,1.167,0.334c0.778,0.333,1.334,0.889,1.724,1.668c0.111,0.333,0.278,0.667,0.39,1.112
				c0.055,0.111,0.055,0.223,0.055,0.333c0,0.111,0,0.167,0,0.278c0,1.835,0,3.392,0,4.671s0,2.391,0,3.336c0,0.944,0,1.779,0,2.446
				s0,1.334,0,2.002h4.392v-12.565c0-0.667-0.111-1.335-0.278-2.002C299.371,292.71,299.093,292.154,298.759,291.597z"/>
			<path fill="#585657" d="M317.163,289.373c-0.278-0.167-0.501-0.333-0.779-0.5c-0.222-0.167-0.556-0.334-0.889-0.39
				c-1.168-0.5-2.447-0.779-3.892-0.89c-1.39,0-2.669,0.278-3.948,0.779c-1.334,0.501-2.39,1.279-3.335,2.28
				c-0.501,0.5-0.945,1.056-1.335,1.612c-0.389,0.556-0.667,1.112-0.945,1.779c-0.5,1.334-0.723,2.669-0.723,4.003
				c0,1.335,0.223,2.613,0.723,3.836c0.223,0.612,0.556,1.169,0.945,1.779c0.334,0.557,0.779,1.057,1.279,1.558
				c0.945,1.001,2.057,1.779,3.336,2.279c1.223,0.501,2.502,0.778,3.947,0.778c1.39-0.056,2.725-0.334,3.893-0.89
				c0.11-0.056,0.278-0.11,0.389-0.167c0.111-0.055,0.223-0.111,0.389-0.166l0.89,0.889V308h4.392v-30.691h-4.337V289.373z
				 M317.108,300.271c-0.334,0.778-0.779,1.39-1.335,1.946c-0.611,0.556-1.223,0.945-2.002,1.278
				c-0.723,0.333-1.5,0.444-2.224,0.389c-0.778,0-1.501-0.166-2.279-0.5c-0.723-0.333-1.334-0.778-1.891-1.335
				c-0.667-0.666-1.167-1.5-1.39-2.557c-0.223-1.057-0.278-2.002-0.111-2.836c0.056-0.167,0.056-0.333,0.111-0.556
				c0.055-0.222,0.111-0.39,0.167-0.556c0.111-0.333,0.334-0.667,0.5-1.056c0.167-0.39,0.5-0.612,0.778-0.89
				c0.556-0.611,1.224-1.057,1.891-1.334c0.334-0.167,0.667-0.278,1.057-0.333c0.39-0.055,0.778-0.111,1.167-0.111
				c0.778,0,1.501,0.167,2.224,0.445c0.779,0.334,1.391,0.723,2.002,1.279c0.556,0.556,1.001,1.223,1.335,1.946
				c0.333,0.723,0.444,1.501,0.444,2.391C317.552,298.77,317.385,299.604,317.108,300.271z"/>
			<rect x="324.391" y="287.872" fill="#585657" width="4.392" height="20.071"/>
			<path fill="#585657" d="M439.816,287.928c-0.222-0.056-0.389-0.056-0.667-0.056c-0.389-0.056-0.89-0.056-1.334,0
				c-0.445,0.056-0.891,0.167-1.279,0.279c-0.277,0.055-0.5,0.11-0.778,0.222c-0.223,0.111-0.444,0.223-0.667,0.334l-0.945-0.89
				h-4.393v20.072h4.393v-11.565c0-0.39,0.056-0.779,0.111-1.112c0.111-0.39,0.166-0.667,0.223-0.779
				c0.111-0.222,0.222-0.445,0.333-0.611s0.278-0.334,0.39-0.5c0.667-0.667,1.39-1.112,2.224-1.224
				c0.39-0.055,0.778-0.111,1.224-0.055c0.111,0,0.277,0.055,0.444,0.111l1.224-4.059
				C440.205,287.983,440.038,287.928,439.816,287.928z"/>
			<path fill="#585657" d="M459.276,294.877c-0.056-0.333-0.111-0.611-0.223-0.889c-0.055-0.278-0.166-0.612-0.277-0.89
				c-0.39-1.167-1.112-2.168-2.001-3.058c-0.891-0.889-1.836-1.501-2.947-1.89c-0.668-0.223-1.391-0.39-2.113-0.501
				s-1.39-0.111-2.057-0.111c-0.611,0-1.168,0.055-1.668,0.111c-0.501,0.055-0.779,0.111-0.945,0.222
				c-0.612,0.167-1.112,0.389-1.613,0.667c-0.499,0.278-1,0.612-1.501,0.89c-1.056,0.723-1.834,1.613-2.502,2.613
				c-0.611,1-1.057,2.057-1.278,3.169c-0.223,1.112-0.278,2.224-0.167,3.391c0.111,1.113,0.39,2.225,0.834,3.28
				c0.445,1.058,1.057,2.058,1.835,2.893c0.778,0.889,1.668,1.557,2.725,2.112c0.5,0.278,1.056,0.5,1.612,0.667
				c1.112,0.334,2.279,0.5,3.392,0.5c0.945,0,1.834-0.111,2.669-0.333c0.834-0.223,1.612-0.501,2.335-0.945
				c1.056-0.611,1.946-1.278,2.724-2.113l-3.335-2.946c-0.223,0.278-0.445,0.501-0.668,0.778c-0.222,0.222-0.5,0.445-0.777,0.611
				c-0.612,0.39-1.224,0.612-1.891,0.778c-0.111,0.056-0.334,0.056-0.501,0.056c-0.167,0.057-0.333,0.057-0.5,0.057
				s-0.334-0.057-0.501-0.057c-0.166-0.056-0.333-0.056-0.5-0.056c-0.611-0.056-1.168-0.334-1.835-0.667
				c-0.611-0.333-1.112-0.778-1.557-1.278c-0.445-0.556-0.778-1.112-1.057-1.724c-0.111-0.223-0.167-0.39-0.223-0.611
				c-0.056-0.167-0.056-0.39-0.11-0.612l0.444-0.39h14.345v-2.001c-0.056-0.444-0.056-0.834-0.111-1.057
				C459.331,295.267,459.276,295.045,459.276,294.877z M445.765,294.544l-0.167-0.5c0.39-0.5,0.778-0.89,1.224-1.224
				c0.389-0.333,0.945-0.611,1.501-0.834c0.556-0.167,1.057-0.222,1.612-0.222c0.557,0.055,1.112,0.111,1.613,0.222
				c0.5,0.111,0.945,0.334,1.334,0.501c0.389,0.223,0.667,0.444,0.945,0.667c0.389,0.39,0.667,0.89,0.89,1.335h-8.952V294.544z"/>
			<path fill="#585657" d="M477.569,277.252v12.121c-0.278-0.167-0.501-0.333-0.778-0.5c-0.223-0.167-0.557-0.334-0.891-0.39
				c-1.167-0.5-2.445-0.779-3.892-0.89c-1.39,0-2.669,0.278-3.947,0.779c-1.334,0.501-2.391,1.279-3.336,2.28
				c-0.5,0.5-0.945,1.056-1.334,1.612c-0.39,0.556-0.668,1.112-0.945,1.779c-0.501,1.334-0.723,2.669-0.723,4.003
				c0,1.335,0.222,2.613,0.723,3.836c0.222,0.612,0.556,1.169,0.945,1.779c0.333,0.557,0.777,1.057,1.278,1.558
				c0.945,1.001,2.058,1.779,3.336,2.279c1.223,0.501,2.502,0.778,3.947,0.778c1.391-0.056,2.725-0.334,3.893-0.89
				c0.111-0.056,0.277-0.11,0.389-0.167c0.111-0.055,0.223-0.111,0.39-0.166l0.89,0.889V308h4.392v-30.691h-4.336V277.252z
				 M477.513,300.271c-0.334,0.778-0.778,1.39-1.335,1.946c-0.611,0.556-1.223,0.945-2.001,1.278
				c-0.723,0.333-1.502,0.444-2.225,0.389c-0.778,0-1.501-0.166-2.279-0.5c-0.723-0.333-1.334-0.778-1.89-1.335
				c-0.668-0.666-1.168-1.5-1.392-2.557c-0.222-1.057-0.277-2.002-0.11-2.836c0.056-0.167,0.056-0.333,0.11-0.556
				c0.057-0.222,0.111-0.39,0.168-0.556c0.11-0.333,0.333-0.667,0.5-1.056c0.167-0.39,0.501-0.612,0.778-0.89
				c0.556-0.611,1.224-1.057,1.891-1.334c0.333-0.167,0.667-0.278,1.056-0.333c0.39-0.055,0.779-0.111,1.168-0.111
				c0.778,0,1.502,0.167,2.225,0.445c0.778,0.334,1.39,0.723,2.001,1.279c0.556,0.556,1.001,1.223,1.335,1.946
				s0.444,1.501,0.444,2.391C477.957,298.77,477.79,299.604,477.513,300.271z"/>
			<path fill="#585657" d="M328.783,281.145c-0.055-0.111-0.167-0.223-0.278-0.334c-0.056-0.055-0.111-0.111-0.167-0.167
				c-0.556-0.556-1.278-1.224-1.39-1.557h-0.111h-0.167h-0.223h-0.11c-0.111,0.333-0.89,1-1.39,1.557
				c-0.056,0.055-0.111,0.111-0.167,0.167c-0.11,0.111-0.222,0.223-0.278,0.334c-0.055,0.055-0.11,0.167-0.11,0.222
				c-0.223,0.389-0.39,0.89-0.39,1.39c0,0.779,0.278,1.39,0.778,1.946c0.501,0.501,1.168,0.779,1.947,0.779
				c0.778,0,1.39-0.278,1.946-0.779c0.5-0.5,0.778-1.167,0.778-1.946c-0.055-0.5-0.167-1-0.389-1.39
				C328.894,281.256,328.839,281.2,328.783,281.145z"/>
			<path fill="#585657" d="M427.139,294.877c-0.056-0.333-0.11-0.611-0.222-0.889c-0.057-0.278-0.167-0.612-0.278-0.89
				c-0.39-1.167-1.112-2.168-2.002-3.058c-0.89-0.889-1.835-1.501-2.946-1.89c-0.667-0.223-1.39-0.39-2.113-0.501
				c-0.723-0.111-1.391-0.111-2.057-0.111c-0.612,0-1.168,0.055-1.669,0.111c-0.5,0.055-0.778,0.111-0.944,0.222
				c-0.612,0.167-1.112,0.389-1.613,0.667c-0.223,0.111-0.389,0.223-0.612,0.39c-1.5-5.949-4.559-11.398-8.952-15.846
				c-6.505-6.561-15.123-10.23-24.297-10.23c-9.173,0-17.847,3.669-24.297,10.23c-6.505,6.617-10.063,15.401-10.063,24.742
				c0,0.056,0,0.111,0,0.222c-0.056-0.055-0.111-0.111-0.167-0.222c-0.945-1.112-2.113-1.835-3.67-2.335l-3.169-0.945
				c-0.39-0.111-0.723-0.333-0.945-0.612c-0.223-0.278-0.333-0.5-0.333-0.778c0-0.389,0.222-0.778,0.611-1.057
				c0.389-0.333,0.889-0.444,1.557-0.444c0.334,0,0.612,0.055,0.945,0.223c0.334,0.167,0.556,0.333,0.779,0.556l3.058-3.169
				c-1.278-1.223-2.836-1.835-4.726-1.835c-0.945,0-1.779,0.111-2.558,0.445c-0.779,0.279-1.501,0.667-2.057,1.223
				c-0.611,0.5-1.056,1.112-1.39,1.835c-0.333,0.723-0.5,1.445-0.5,2.224c0,1.279,0.389,2.391,1.223,3.391
				c0.834,1.001,1.891,1.668,3.225,2.114l3.169,0.945c0.611,0.111,1.056,0.389,1.39,0.777c0.333,0.39,0.5,0.779,0.5,1.168
				c0,0.611-0.334,1.112-0.89,1.613c-0.611,0.444-1.334,0.666-2.112,0.666c-0.89,0-1.613-0.222-2.169-0.666
				c-0.611-0.446-0.889-0.945-0.889-1.558h-4.337c0,0.945,0.223,1.779,0.611,2.558c0.389,0.779,0.89,1.501,1.612,2.058
				c0.667,0.611,1.501,1.057,2.392,1.39c0.889,0.333,1.834,0.501,2.891,0.501c1,0,1.946-0.168,2.835-0.557
				c0.89-0.334,1.668-0.834,2.335-1.39c0.667-0.556,1.168-1.223,1.501-1.946c1.224,6.95,4.504,13.289,9.508,18.403
				c6.505,6.616,15.123,10.23,24.297,10.23c9.174,0,17.848-3.669,24.297-10.23c4.393-4.504,7.506-10.008,9.007-16.068
				c0.223,0.111,0.389,0.223,0.612,0.334c0.5,0.278,1.056,0.5,1.612,0.667c1.112,0.334,2.28,0.5,3.392,0.5
				c0.945,0,1.834-0.111,2.668-0.333c0.834-0.223,1.612-0.501,2.335-0.945c1.057-0.611,1.946-1.278,2.725-2.113l-3.336-2.946
				c-0.223,0.278-0.445,0.501-0.667,0.778c-0.223,0.222-0.501,0.445-0.778,0.611c-0.611,0.39-1.224,0.612-1.89,0.778
				c-0.111,0.056-0.334,0.056-0.5,0.056c-0.167,0.057-0.334,0.057-0.501,0.057c-0.167,0-0.333-0.057-0.5-0.057
				c-0.167-0.056-0.334-0.056-0.501-0.056c-0.611-0.056-1.168-0.334-1.834-0.667c-0.612-0.333-1.112-0.778-1.557-1.278
				c-0.111-0.111-0.167-0.223-0.278-0.334c0.111-0.945,0.167-1.946,0.167-2.946h13.566v-2.058c-0.056-0.444-0.056-0.834-0.111-1.057
				C427.195,295.267,427.195,295.045,427.139,294.877z M403.676,322.622c-6.505,6.562-15.124,10.23-24.242,10.23
				c-9.173,0-17.736-3.614-24.241-10.23c-5.06-5.114-8.285-11.453-9.508-18.459c0.39-0.778,0.556-1.612,0.556-2.502
				c0-1.223-0.333-2.391-1.112-3.392c0-0.111,0-0.223,0-0.333c0-9.286,3.558-18.125,10.008-24.687
				c6.505-6.561,15.124-10.23,24.242-10.23c9.173,0,17.736,3.614,24.242,10.23c4.392,4.448,7.394,9.896,8.952,15.846
				c-0.223,0.111-0.501,0.334-0.779,0.5c-1.057,0.723-1.834,1.613-2.502,2.613c-0.056,0.056-0.056,0.111-0.111,0.223
				c-1.112-6.116-3.948-11.732-8.396-16.235c-5.727-5.838-13.344-9.008-21.462-9.008s-15.734,3.225-21.461,9.008
				c-4.226,4.336-7.005,9.674-8.229,15.457c-0.334,0.444-0.667,0.945-0.945,1.501c-0.723,1.39-1.057,3.003-1.057,4.837
				c0,1.167,0.167,2.28,0.501,3.335c0.333,0.891,0.778,1.779,1.39,2.613c1.112,6.005,4.003,11.51,8.34,15.902
				c5.727,5.838,13.343,9.007,21.461,9.007s15.735-3.225,21.462-9.007c4.504-4.56,7.395-10.342,8.451-16.625
				c0.334,0.611,0.779,1.224,1.279,1.725c0.611,0.667,1.334,1.223,2.058,1.723C411.182,312.558,408.124,318.118,403.676,322.622z
				 M353.414,301.605c-0.278-0.39-0.5-0.834-0.723-1.278c-0.333-0.779-0.501-1.613-0.556-2.502c0-1.39,0.39-2.613,1.112-3.669
				c0.055-0.056,0.111-0.111,0.167-0.222c-0.167,1.334-0.278,2.613-0.278,3.947C353.192,299.159,353.247,300.382,353.414,301.605z
				 M352.358,306.443c0.834,0.556,1.723,0.944,2.668,1.278c1.335,3.392,3.281,6.505,5.838,9.118c4.948,5.06,11.565,7.84,18.57,7.84
				c7.006,0,13.622-2.78,18.571-7.84c4.948-5.06,7.673-11.787,7.673-18.904c0-1.334-0.111-2.613-0.278-3.836l2.112-6.228h-3.781
				c-1.334-3.28-3.225-6.282-5.782-8.84c-4.948-5.059-11.564-7.84-18.57-7.84s-13.622,2.781-18.57,7.84
				c-2.558,2.613-4.504,5.671-5.838,9.008c-1.223,0.333-2.391,0.889-3.392,1.667c-0.501,0.39-0.945,0.778-1.335,1.224
				c1.224-5.449,3.948-10.509,7.951-14.567c5.671-5.782,13.177-8.896,21.184-8.896s15.512,3.169,21.184,8.952
				c4.448,4.559,7.283,10.286,8.34,16.458c-0.39,0.779-0.667,1.613-0.89,2.391c-0.223,1.112-0.278,2.224-0.167,3.392
				c0.111,1.111,0.389,2.224,0.834,3.28c0.056,0.222,0.167,0.389,0.278,0.611c-0.945,6.395-3.836,12.288-8.451,16.902
				c-5.671,5.782-13.176,8.951-21.184,8.951c-8.006,0-15.512-3.169-21.183-8.951c-4.115-4.17-6.839-9.341-8.007-14.9
				C350.801,305.275,351.524,305.942,352.358,306.443z M404.954,297.936c-0.055,6.95-2.668,13.456-7.505,18.403
				c-4.837,4.894-11.231,7.618-18.015,7.618c-6.838,0-13.232-2.669-18.014-7.618c-2.391-2.39-4.225-5.226-5.504-8.339
				c0.389,0.055,0.778,0.111,1.112,0.222c0.611,0.056,1.112,0.056,1.723,0c0.223-0.056,0.501-0.056,0.779-0.11
				c1.056,2.112,2.446,4.114,4.17,5.893c4.226,4.282,9.786,6.673,15.734,6.673c5.949,0,11.565-2.336,15.735-6.673
				c1.779-1.778,3.169-3.836,4.225-6.061h1.224l4.169-12.176C404.899,296.49,404.954,297.213,404.954,297.936z M379.434,312.447
				c7.451,0,13.567-5.838,14.178-13.177l1.501,4.448c-2.335,6.561-8.507,11.23-15.734,11.23c-6.395,0-12.009-3.725-14.79-9.118
				c0.667-0.556,1.279-1.224,1.779-1.946C368.704,308.945,373.652,312.447,379.434,312.447z M367.147,297.936
				c0-6.894,5.504-12.51,12.287-12.51c6.784,0,12.288,5.616,12.288,12.51s-5.504,12.51-12.288,12.51
				C372.652,310.446,367.147,304.83,367.147,297.936z M389.721,287.928c-2.613-2.78-6.227-4.504-10.287-4.504
				c-5.782,0-10.73,3.503-12.955,8.507c-0.5-0.723-1.112-1.39-1.779-1.891c2.78-5.393,8.34-9.063,14.734-9.063
				c5.504,0,10.398,2.725,13.456,6.951H389.721L389.721,287.928z M365.924,293.321c-0.5,1.446-0.722,3.002-0.722,4.559
				c0,1.556,0.222,3.058,0.667,4.503l-2.725-1.501c-0.055,0.056-0.055,0.111-0.111,0.167c-0.167-1.057-0.278-2.058-0.278-3.114
				c0-1.112,0.111-2.113,0.334-3.169c0.055,0.055,0.055,0.11,0.055,0.11L365.924,293.321z M363.311,306.72
				c3.114,5.838,9.118,9.786,16.124,9.786c7.229,0,13.567-4.337,16.458-10.564l0.667,2.001h1.5c-0.945,1.891-2.224,3.67-3.781,5.227
				c-4.003,4.06-9.285,6.283-14.9,6.283c-5.671,0-10.954-2.224-14.9-6.283c-1.558-1.611-2.836-3.336-3.781-5.281
				c0.444-0.111,0.89-0.223,1.278-0.445C362.477,307.22,362.921,306.999,363.311,306.72z M398.895,299.882h-0.5l-0.667-1.946l0,0
				c0-10.231-8.229-18.57-18.292-18.57c-6.95,0-12.955,3.947-16.068,9.729c-0.89-0.5-1.724-0.889-2.669-1.112
				c0.945-1.89,2.224-3.669,3.781-5.227c4.003-4.059,9.285-6.282,14.9-6.282c5.671,0,10.953,2.224,14.9,6.282
				c3.392,3.447,5.505,7.896,6.061,12.677L398.895,299.882z M361.087,292.71c0.223,0.11,0.5,0.333,0.667,0.5
				c-0.39,1.501-0.612,3.114-0.612,4.782c0,1.613,0.223,3.169,0.612,4.67c-0.167,0.111-0.334,0.278-0.501,0.39
				c-0.611,0.444-1.333,0.722-2.057,0.889c-0.556-1.945-0.834-3.947-0.834-6.004s0.278-4.059,0.834-6.005
				C359.864,292.042,360.475,292.32,361.087,292.71z M401.174,293.098c-0.889-4.225-2.946-8.062-6.004-11.176
				c-4.226-4.281-9.841-6.671-15.735-6.671c-5.949,0-11.564,2.335-15.734,6.671c-1.668,1.724-3.114,3.67-4.115,5.838
				c-1.223-0.167-2.39-0.167-3.558,0.055c1.279-3.058,3.114-5.837,5.449-8.229c4.837-4.893,11.231-7.617,18.015-7.617
				c6.838,0,13.233,2.668,18.014,7.617c2.392,2.391,4.226,5.226,5.504,8.285L401.174,293.098z M357.973,291.82
				c-0.556,1.946-0.834,4.059-0.834,6.116c0,2.113,0.278,4.114,0.834,6.116c-0.723,0-1.39-0.111-2.001-0.39
				c-0.612-0.222-1.168-0.61-1.667-1c-0.278-1.557-0.39-3.114-0.39-4.726c0-1.668,0.111-3.28,0.445-4.837
				c0.389-0.278,0.778-0.5,1.223-0.723C356.361,291.986,357.139,291.82,357.973,291.82z M413.518,301.55
				c-0.278-0.389-0.501-0.778-0.667-1.223c-0.111-0.223-0.167-0.39-0.223-0.612c-0.055-0.167-0.055-0.389-0.111-0.611l0.444-0.39
				h0.779C413.684,299.659,413.628,300.604,413.518,301.55z M413.684,294.544l-0.056-0.055c-0.055-0.167-0.055-0.334-0.055-0.557
				c0.333-0.444,0.723-0.833,1.112-1.112c0.389-0.333,0.945-0.611,1.501-0.834c0.5-0.167,1.057-0.222,1.612-0.222
				c0.556,0.055,1.112,0.111,1.612,0.222c0.501,0.111,0.945,0.334,1.335,0.501c0.389,0.223,0.667,0.444,0.945,0.667
				c0.389,0.39,0.667,0.89,0.889,1.335h-8.895V294.544z"/>
		</g>
		<path fill="none" d="M379.434,285.426c-6.783,0-12.287,5.616-12.287,12.51s5.504,12.51,12.287,12.51
			c6.784,0,12.288-5.616,12.288-12.51S386.218,285.426,379.434,285.426z M379.434,308.333c-5.671,0-10.23-4.671-10.23-10.397
			c0-5.727,4.559-10.397,10.23-10.397c5.671,0,10.231,4.67,10.231,10.397C389.665,303.662,385.05,308.333,379.434,308.333z"/>
		
			<linearGradient id="SVGID_1_" gradientUnits="userSpaceOnUse" x1="403.0637" y1="-21.3567" x2="403.0637" y2="-21.3567" gradientTransform="matrix(0.4385 0 0 0.4385 235.6808 274.5511)">
			<stop  offset="0.153" style="stop-color:#FBC61A"/>
			<stop  offset="0.5562" style="stop-color:#7A600D"/>
			<stop  offset="0.8496" style="stop-color:#221B04"/>
			<stop  offset="0.9818" style="stop-color:#000000"/>
		</linearGradient>
		<path fill="url(#SVGID_1_)" d="M412.405,265.187"/>
		<g>
			
				<linearGradient id="SVGID_2_" gradientUnits="userSpaceOnUse" x1="816.8752" y1="2689.325" x2="799.0705" y2="2743.1177" gradientTransform="matrix(0.2916 -0.3274 0.3274 0.2916 -749.3892 -247.1987)">
				<stop  offset="0.6915" style="stop-color:#FBC61A"/>
				<stop  offset="0.9818" style="stop-color:#585657"/>
			</linearGradient>
			<path fill="url(#SVGID_2_)" d="M387.775,288.761l1.334-1.501c-5.503-5.17-13.732-5.06-19.07-0.278l1.278,1.501
				C375.932,284.369,383.104,284.314,387.775,288.761z"/>
			
				<linearGradient id="SVGID_3_" gradientUnits="userSpaceOnUse" x1="827.4612" y1="2690.7732" x2="810.7718" y2="2741.2964" gradientTransform="matrix(0.2879 -0.3243 0.3241 0.2896 -736.7921 -249.9996)">
				<stop  offset="0.6915" style="stop-color:#FBC61A"/>
				<stop  offset="0.9818" style="stop-color:#585657"/>
			</linearGradient>
			<path fill="url(#SVGID_3_)" d="M377.489,263.13c5.671-0.334,11.231,0.723,16.291,3.113c3.059,1.446,6.061,3.392,8.618,5.782
				l0.056-0.055c-6.895-6.227-15.179-9.452-24.908-8.952c-7.673,0.39-14.79,3.392-20.461,8.284l0.055,0.056
				C362.866,266.466,369.872,263.52,377.489,263.13z"/>
			
				<linearGradient id="SVGID_4_" gradientUnits="userSpaceOnUse" x1="820.7512" y1="2688.7908" x2="803.4144" y2="2741.1692" gradientTransform="matrix(0.2916 -0.3274 0.3274 0.2916 -749.3892 -247.1987)">
				<stop  offset="0.6915" style="stop-color:#FBC61A"/>
				<stop  offset="0.9818" style="stop-color:#585657"/>
			</linearGradient>
			<path fill="url(#SVGID_4_)" d="M390.721,285.426l1.057-1.168c-6.895-6.505-17.458-6.505-24.353-0.333l1.057,1.223
				C374.764,279.532,384.383,279.477,390.721,285.426z"/>
			
				<linearGradient id="SVGID_5_" gradientUnits="userSpaceOnUse" x1="833.425" y1="2684.9685" x2="816.7633" y2="2735.3076" gradientTransform="matrix(0.2916 -0.3274 0.3274 0.2916 -749.3892 -247.1987)">
				<stop  offset="0.6915" style="stop-color:#FBC61A"/>
				<stop  offset="0.9818" style="stop-color:#585657"/>
			</linearGradient>
			<path fill="url(#SVGID_5_)" d="M377.878,267.523c8.062-0.389,15.513,2.335,21.628,7.84l0.333-0.223
				c-6.227-5.671-13.844-8.396-22.017-8.006c-6.839,0.333-13.122,3.002-18.181,7.395l0.278,0.333
				C365.034,270.469,371.095,267.801,377.878,267.523z"/>
			
				<linearGradient id="SVGID_6_" gradientUnits="userSpaceOnUse" x1="829.0393" y1="2686.4958" x2="812.2482" y2="2737.2253" gradientTransform="matrix(0.2916 -0.3274 0.3274 0.2916 -749.3892 -247.1987)">
				<stop  offset="0.6915" style="stop-color:#FBC61A"/>
				<stop  offset="0.9818" style="stop-color:#585657"/>
			</linearGradient>
			<path fill="url(#SVGID_6_)" d="M378.267,271.97c6.838-0.333,13.121,2.113,18.292,6.728l0.556-0.556
				c-5.394-4.949-11.564-7.117-18.626-6.951c-5.949,0.111-11.953,2.669-16.291,6.506l0.501,0.611
				C367.37,274.306,372.652,272.193,378.267,271.97z"/>
			
				<linearGradient id="SVGID_7_" gradientUnits="userSpaceOnUse" x1="825.0598" y1="2687.7917" x2="807.9983" y2="2739.3384" gradientTransform="matrix(0.2916 -0.3274 0.3274 0.2916 -749.3892 -247.1987)">
				<stop  offset="0.6915" style="stop-color:#FBC61A"/>
				<stop  offset="0.9818" style="stop-color:#585657"/>
			</linearGradient>
			<path fill="url(#SVGID_7_)" d="M378.323,276.418c5.671-0.278,10.954,1.613,15.401,5.616l0.779-0.945
				c-4.727-4.336-10.231-6.172-16.235-5.894c-5.06,0.223-9.674,2.28-13.4,5.561l0.779,0.945
				C368.871,278.809,373.486,276.696,378.323,276.418z"/>
		</g>
	</g>
	<g>
		<path fill="#585657" d="M418.187,314.505h-2.835c-0.111,0-0.223,0.056-0.223,0.223v5.17c0,0.111,0.056,0.223,0.223,0.223h0.055
			c0.111,0,0.223-0.056,0.223-0.223v-2.502h2.447c0.11,0,0.222-0.055,0.222-0.222c0-0.111-0.055-0.223-0.222-0.223h-2.447v-1.945
			h2.613c0.111,0,0.222-0.057,0.222-0.223C418.41,314.616,418.355,314.505,418.187,314.505z"/>
		<path fill="#585657" d="M420.244,315.894c-0.944,0-1.445,0.334-1.445,1.057v2.169c0,0.666,0.445,1.056,1.445,1.056
			c0.945,0,1.446-0.333,1.446-1.056v-2.169C421.691,316.284,421.246,315.894,420.244,315.894z M420.244,319.731
			c-0.944,0-0.944-0.39-0.944-0.611v-2.169c0-0.166,0-0.612,0.944-0.612c0.945,0,0.945,0.39,0.945,0.612v2.169
			C421.19,319.286,421.19,319.731,420.244,319.731z"/>
		<path fill="#585657" d="M425.304,316.006c-0.166,0-0.222,0.056-0.222,0.223v3.113c-0.223,0.111-0.612,0.39-1.168,0.39
			c-0.501,0-0.723-0.223-0.723-0.611v-2.947c0-0.111-0.056-0.222-0.223-0.222c-0.111,0-0.222,0.055-0.222,0.222v2.947
			c0,0.666,0.444,1.056,1.223,1.056c0.389,0,0.834-0.111,1.168-0.333v0.055c0,0.111,0.055,0.223,0.223,0.223
			c0.11,0,0.222-0.056,0.222-0.223v-3.669C425.471,316.117,425.415,316.006,425.304,316.006z"/>
		<path fill="#585657" d="M429.252,316.284c-0.223-0.223-0.501-0.333-0.945-0.333c-0.556,0-0.945,0.166-1.224,0.333v-0.056
			c0-0.111-0.055-0.223-0.223-0.223c-0.11,0-0.222,0.056-0.222,0.223v3.669c0,0.111,0.056,0.223,0.222,0.223
			c0.111,0,0.223-0.056,0.223-0.223v-3.112c0.223-0.111,0.611-0.39,1.224-0.39c0.501,0,0.723,0.222,0.723,0.611v2.947
			c0,0.11,0.056,0.222,0.223,0.222h0.056c0.111,0,0.223-0.056,0.223-0.222v-2.947C429.531,316.674,429.419,316.45,429.252,316.284z"
			/>
		<path fill="#585657" d="M433.199,314.393c-0.167,0-0.222,0.056-0.222,0.223v1.668c-0.278-0.167-0.668-0.333-1.224-0.333
			c-0.89,0-1.224,0.499-1.224,1.056v2.168c0,0.668,0.445,1.057,1.224,1.057c0.501,0,0.945-0.167,1.224-0.334v0.057
			c0,0.11,0.055,0.222,0.222,0.222c0.111,0,0.223-0.056,0.223-0.222v-5.227l0.055-0.056l-0.166-0.278H433.199L433.199,314.393z
			 M431.754,316.395c0.611,0,1,0.278,1.224,0.39v2.501c-0.224,0.111-0.612,0.39-1.224,0.39c-0.501,0-0.723-0.223-0.723-0.612v-2.167
			C431.031,316.617,431.31,316.395,431.754,316.395z"/>
		<path fill="#585657" d="M434.756,319.12c-0.166,0-0.223,0.055-0.223,0.222v0.612c0,0.11,0.057,0.222,0.223,0.222h0.056
			c0.111,0,0.223-0.056,0.223-0.222v-0.612C434.979,319.175,434.923,319.12,434.756,319.12z"/>
		<path fill="#585657" d="M440.928,319.62h-2.391v-4.948c0-0.111-0.056-0.223-0.223-0.223l0,0c-0.111,0-0.223,0.056-0.223,0.223
			v5.171c0,0.111,0.056,0.222,0.223,0.222h2.613c0.111,0,0.223-0.056,0.223-0.222v-0.057
			C441.151,319.731,441.095,319.62,440.928,319.62z"/>
		<path fill="#585657" d="M443.153,315.894c-0.945,0-1.446,0.334-1.446,1.057v2.169c0,0.666,0.444,1.056,1.446,1.056
			c0.945,0,1.444-0.333,1.444-1.056v-2.169C444.597,316.284,444.153,315.894,443.153,315.894z M444.098,316.951v2.169
			c0,0.166,0,0.611-0.945,0.611s-0.945-0.39-0.945-0.611v-2.169c0-0.166,0-0.612,0.945-0.612
			C444.098,316.395,444.098,316.785,444.098,316.951z"/>
		<path fill="#585657" d="M447.933,316.006h-0.055c-0.111,0-0.111,0.056-0.223,0.056l-0.056,0.056l-1.057,3.058l-1.056-3.058
			c-0.057-0.056-0.057-0.111-0.278-0.111c-0.111,0-0.223,0.111-0.223,0.223l1.278,3.726c0,0.055,0.057,0.11,0.167,0.166l0.223-0.056
			c0,0,0,0,0.056-0.056l0.056-0.055l1.278-3.726v-0.056C448.101,316.117,448.044,316.006,447.933,316.006z"/>
		<path fill="#585657" d="M451.27,318.118c0.11,0,0.222-0.055,0.222-0.222v-0.945c-0.055-0.723-0.5-1.057-1.501-1.057
			c-0.945,0-1.445,0.334-1.445,1.057v2.169c0,0.666,0.444,1.056,1.445,1.056c0.945,0,1.446-0.333,1.446-1.056v-0.223
			c0-0.111-0.057-0.223-0.223-0.223c-0.111,0-0.223,0.056-0.223,0.223v0.223c0,0.166,0,0.611-0.945,0.611s-0.945-0.39-0.945-0.611
			v-1.002H451.27z M449.935,316.395c1.001,0,1.001,0.444,1.001,0.611v0.724h-1.946v-0.724
			C448.99,316.785,448.99,316.395,449.935,316.395z"/>
		<path fill="#585657" d="M454.939,314.393c-0.166,0-0.222,0.056-0.222,0.223v1.668c-0.278-0.167-0.667-0.333-1.224-0.333
			c-0.89,0-1.223,0.499-1.223,1.056v2.168c0,0.668,0.444,1.057,1.223,1.057c0.5,0,0.945-0.167,1.224-0.334v0.057
			c0,0.11,0.056,0.222,0.222,0.222c0.111,0,0.223-0.056,0.223-0.222v-5.227c0.056-0.056,0.056-0.111,0.056-0.111
			C455.161,314.449,455.107,314.393,454.939,314.393z M453.493,316.395c0.611,0,1.001,0.278,1.224,0.39v2.501
			c-0.223,0.111-0.612,0.39-1.224,0.39c-0.5,0-0.723-0.223-0.723-0.612v-2.167C452.771,316.617,453.049,316.395,453.493,316.395z"/>
		<path fill="#585657" d="M456.552,319.12c-0.167,0-0.224,0.055-0.224,0.222v0.612c0,0.11,0.057,0.222,0.224,0.222h0.055
			c0.111,0,0.223-0.056,0.223-0.222v-0.612C456.718,319.175,456.663,319.12,456.552,319.12z"/>
		<path fill="#585657" d="M462.223,317.229l-1.557-0.612c-0.111-0.055-0.501-0.222-0.501-0.611v-0.389
			c0-0.334,0.111-0.723,1.168-0.723c1.056,0,1.167,0.333,1.167,0.723v0.389c0,0.111,0.057,0.223,0.223,0.223
			c0.111,0,0.223-0.056,0.223-0.223v-0.389c0-0.778-0.5-1.168-1.612-1.168s-1.612,0.39-1.612,1.168v0.389
			c0,0.557,0.389,0.891,0.778,1.057l1.557,0.611c0.167,0.057,0.501,0.223,0.501,0.612v0.666c0,0.334-0.111,0.724-1.224,0.724
			s-1.224-0.39-1.224-0.724v-0.333c0-0.111-0.056-0.223-0.223-0.223c-0.111,0-0.222,0.056-0.222,0.223v0.39
			c0,0.777,0.5,1.167,1.668,1.167c1.167,0,1.668-0.39,1.668-1.167v-0.668C463.001,317.841,462.723,317.452,462.223,317.229z"/>
		<path fill="#585657" d="M464.335,316.006c-0.167,0-0.222,0.056-0.222,0.223v3.669c0,0.111,0.055,0.223,0.222,0.223h0.056
			c0.111,0,0.223-0.056,0.223-0.223v-3.669C464.502,316.117,464.447,316.006,464.335,316.006z"/>
		<path fill="#585657" d="M464.335,314.393c-0.167,0-0.222,0.056-0.222,0.223v0.778c0,0.111,0.055,0.223,0.222,0.223h0.056
			c0.111,0,0.223-0.056,0.223-0.223v-0.778C464.502,314.449,464.447,314.393,464.335,314.393z"/>
		<path fill="#585657" d="M468.228,316.006c-0.223,0-0.223,0.167-0.223,0.223v0.056c-0.333-0.167-0.723-0.333-1.224-0.333
			c-0.889,0-1.223,0.499-1.223,1.056v2.168c0,0.668,0.445,1.057,1.223,1.057c0.501,0,0.945-0.167,1.224-0.334v0.891
			c0,0.166,0,0.611-0.945,0.611h-1.056c-0.111,0-0.223,0.056-0.223,0.223v0.055c0,0.111,0.055,0.223,0.223,0.223h1.056
			c0.945,0,1.445-0.334,1.445-1.057v-4.504C468.505,316.173,468.505,316.006,468.228,316.006z M466.781,319.731
			c-0.5,0-0.723-0.223-0.723-0.611v-2.169c0-0.389,0.278-0.612,0.723-0.612c0.612,0,1.002,0.278,1.224,0.39v2.502
			C467.783,319.453,467.394,319.731,466.781,319.731z"/>
		<path fill="#585657" d="M472.231,316.284c-0.223-0.223-0.501-0.333-0.945-0.333c-0.556,0-0.945,0.166-1.224,0.333v-0.056
			c0-0.111-0.055-0.223-0.223-0.223c-0.11,0-0.222,0.056-0.222,0.223v3.669c0,0.111,0.056,0.223,0.222,0.223
			c0.111,0,0.223-0.056,0.223-0.223v-3.112c0.223-0.111,0.611-0.39,1.224-0.39c0.501,0,0.723,0.222,0.723,0.611v2.947
			c0,0.11,0.056,0.222,0.223,0.222h0.056c0.111,0,0.223-0.056,0.223-0.222v-2.947C472.509,316.674,472.398,316.45,472.231,316.284z"
			/>
		<path fill="#585657" d="M476.234,318.118c0.111,0,0.223-0.055,0.223-0.222v-0.945c-0.056-0.723-0.5-1.057-1.501-1.057
			c-0.945,0-1.446,0.334-1.446,1.057v2.169c0,0.666,0.445,1.056,1.446,1.056c0.944,0,1.445-0.333,1.445-1.056v-0.223
			c0-0.111-0.056-0.223-0.223-0.223h-0.056c-0.111,0-0.223,0.056-0.223,0.223v0.223c0,0.166,0,0.611-0.944,0.611
			c-0.945,0-0.945-0.39-0.945-0.611v-1.002H476.234z M474.955,316.395c1.001,0,1.001,0.444,1.001,0.611v0.724h-1.946v-0.724
			C473.954,316.785,473.954,316.395,474.955,316.395z"/>
		<path fill="#585657" d="M480.014,314.393h-0.11c-0.167,0-0.223,0.056-0.223,0.223v1.668c-0.277-0.167-0.667-0.333-1.223-0.333
			c-0.89,0-1.224,0.499-1.224,1.056v2.168c0,0.668,0.444,1.057,1.224,1.057c0.5,0,0.945-0.167,1.223-0.334v0.057
			c0,0.11,0.056,0.222,0.223,0.222c0.11,0,0.222-0.056,0.222-0.222v-5.227l0.057-0.056l-0.057-0.111L480.014,314.393z
			 M478.513,316.395c0.612,0,1.002,0.278,1.224,0.39v2.501c-0.222,0.111-0.611,0.39-1.224,0.39c-0.5,0-0.723-0.223-0.723-0.612
			v-2.167C477.79,316.617,478.013,316.395,478.513,316.395z"/>
		<path fill="#585657" d="M481.516,319.12c-0.167,0-0.222,0.055-0.222,0.222v0.612c0,0.11,0.055,0.222,0.222,0.222h0.056
			c0.11,0,0.222-0.056,0.222-0.222v-0.612C481.682,319.175,481.627,319.12,481.516,319.12z"/>
	</g>
</g>
<g>
	<rect x="491.412" y="277.364" fill="#585657" width="0.667" height="42.756"/>
	<path fill="#585657" d="M516.433,288.039l-3.447-0.667l-1.112,5.393h-3.392l0.89-4.393l-3.447-0.667l-1.001,5.115h-3.892v3.392
		h3.225l-0.5,2.335h-2.669v3.447h2.057l-0.945,4.614l3.447,0.668l1.112-5.338h3.392l-0.945,4.393l3.447,0.667l1.057-5.116h3.836
		v-3.446h-3.224l0.444-2.335h2.668v-3.391h-2.001L516.433,288.039z M510.705,298.436h-3.391l0.5-2.335h3.392L510.705,298.436z"/>
	<path fill="#585657" d="M537.227,286.593c-0.89-1.112-2.002-1.946-3.28-2.502c-1.278-0.556-2.725-0.889-4.337-0.889
		s-3.058,0.278-4.337,0.889c-1.278,0.611-2.391,1.39-3.28,2.502s-1.612,2.392-2.058,3.948c-0.5,1.557-0.723,3.281-0.723,5.17
		c0,1.891,0.223,3.615,0.723,5.116c0.501,1.501,1.168,2.835,2.058,3.947s2.002,1.946,3.28,2.503
		c1.279,0.556,2.725,0.889,4.337,0.889s3.059-0.277,4.337-0.889c1.278-0.612,2.391-1.391,3.28-2.503s1.613-2.391,2.058-3.947
		c0.5-1.557,0.723-3.28,0.723-5.116c0-1.946-0.223-3.669-0.723-5.17C538.84,288.985,538.172,287.65,537.227,286.593z
		 M536.004,299.27c-0.223,1.111-0.668,2.057-1.224,2.891s-1.224,1.501-2.112,1.946c-0.891,0.5-1.836,0.667-3.059,0.667
		c-1.167,0-2.168-0.222-3.058-0.667s-1.557-1.112-2.113-1.946c-0.556-0.834-0.945-1.779-1.223-2.891
		c-0.223-1.112-0.39-2.28-0.39-3.559c0-1.278,0.111-2.446,0.39-3.558c0.223-1.112,0.667-2.057,1.223-2.891
		c0.557-0.834,1.224-1.501,2.113-1.947c0.89-0.444,1.835-0.667,3.058-0.667c1.168,0,2.168,0.222,3.059,0.667
		c0.889,0.5,1.557,1.113,2.112,1.947s0.945,1.779,1.224,2.891c0.223,1.112,0.389,2.279,0.389,3.558
		C536.393,296.99,536.227,298.158,536.004,299.27z"/>
	<path fill="#585657" d="M559.69,286.593c-0.891-1.112-2.002-1.946-3.281-2.502c-1.278-0.556-2.725-0.889-4.336-0.889
		c-1.612,0-3.059,0.278-4.337,0.889c-1.279,0.611-2.391,1.39-3.281,2.502c-0.889,1.112-1.611,2.392-2.057,3.948
		c-0.5,1.557-0.723,3.281-0.723,5.17c0,1.891,0.223,3.615,0.723,5.116s1.168,2.835,2.057,3.947c0.891,1.112,2.002,1.946,3.281,2.503
		c1.278,0.556,2.725,0.889,4.337,0.889c1.611,0,3.058-0.277,4.336-0.889c1.279-0.612,2.391-1.391,3.281-2.503
		c0.889-1.112,1.612-2.391,2.057-3.947c0.501-1.557,0.723-3.28,0.723-5.116c0-1.946-0.223-3.669-0.723-5.17
		C561.245,288.985,560.578,287.65,559.69,286.593z M558.41,299.27c-0.223,1.111-0.667,2.057-1.223,2.891
		c-0.557,0.834-1.224,1.501-2.113,1.946c-0.89,0.5-1.835,0.667-3.058,0.667c-1.224,0-2.169-0.222-3.059-0.667
		c-0.889-0.5-1.557-1.112-2.112-1.946s-0.945-1.779-1.224-2.891c-0.223-1.112-0.389-2.28-0.389-3.559
		c0-1.278,0.111-2.446,0.389-3.558c0.278-1.112,0.668-2.057,1.224-2.891s1.224-1.501,2.112-1.947c0.89-0.5,1.835-0.667,3.059-0.667
		c1.223,0,2.168,0.222,3.058,0.667c0.89,0.5,1.557,1.113,2.113,1.947c0.556,0.834,0.945,1.779,1.223,2.891
		c0.223,1.112,0.389,2.279,0.389,3.558C558.799,296.99,558.689,298.158,558.41,299.27z"/>
	<path fill="#585657" d="M576.535,299.659V283.48h-3.669l-8.729,16.179v3.447h8.174l0.556,0.556V308h3.669v-4.894h2.447v-3.447
		H576.535z M572.866,299.048l-0.556,0.611h-4.114l4.67-8.729V299.048z"/>
</g>
</svg>
