<?xml version="1.0" encoding="utf-8"?>
<!-- Generator: Adobe Illustrator 15.1.0, SVG Export Plug-In . SVG Version: 6.00 Build 0)  -->
<!DOCTYPE svg PUBLIC "-//W3C//DTD SVG 1.1//EN" "http://www.w3.org/Graphics/SVG/1.1/DTD/svg11.dtd">
<svg version="1.1" id="Layer_1" xmlns="http://www.w3.org/2000/svg" xmlns:xlink="http://www.w3.org/1999/xlink" x="0px" y="0px"
	 width="700px" height="223.217px" viewBox="-44.903 42.998 700 223.217" enable-background="new -44.903 42.998 700 223.217"
	 xml:space="preserve">
<g>
	<path fill="#FFFFFF" d="M328.189,121.619c4.617,0,8.796,0.879,12.755,2.639c3.959,1.76,7.477,4.069,10.446,7.037
		c2.968,2.969,5.277,6.488,7.037,10.447c1.76,3.958,2.639,8.247,2.639,12.755c0,4.617-0.879,8.796-2.639,12.755
		c-1.759,3.958-4.069,7.477-7.037,10.446c-2.969,2.968-6.487,5.388-10.446,7.037c-3.958,1.76-8.247,2.639-12.755,2.639
		c-4.619,0-8.797-0.879-12.755-2.639c-3.959-1.759-7.478-4.069-10.446-7.037c-2.97-2.97-5.389-6.489-7.039-10.446
		c-1.759-3.958-2.639-8.248-2.639-12.755c0-4.509,0.879-8.797,2.639-12.755c1.76-3.959,4.069-7.478,7.039-10.446
		c2.968-2.969,6.487-5.278,10.446-7.038C319.392,122.498,323.571,121.619,328.189,121.619z M328.189,174.179
		c2.639,0,5.058-0.549,7.366-1.539c2.31-0.989,4.29-2.419,5.938-4.179c1.649-1.758,2.968-3.848,3.959-6.267
		c0.989-2.419,1.429-4.948,1.429-7.697c0-2.749-0.439-5.279-1.429-7.588c-0.991-2.418-2.31-4.398-3.959-6.267
		c-1.649-1.76-3.629-3.19-5.938-4.179c-2.308-0.989-4.728-1.539-7.366-1.539c-2.64,0-5.059,0.55-7.368,1.539
		c-2.31,0.989-4.288,2.419-5.938,4.179c-1.649,1.758-2.969,3.849-3.959,6.267c-0.989,2.42-1.43,4.948-1.43,7.588
		c0,2.749,0.441,5.277,1.43,7.697c0.99,2.418,2.31,4.508,3.959,6.267c1.649,1.76,3.628,3.19,5.938,4.179
		C323.131,173.63,325.549,174.179,328.189,174.179z"/>
	<path fill="none" d="M395.704,85.882c-18.034-18.362-42.004-28.479-67.515-28.479c-25.511,0-49.482,10.116-67.515,28.479
		c-18.034,18.363-27.93,42.774-27.93,68.725c0,25.951,9.896,50.362,27.93,68.724c18.033,18.364,42.004,28.48,67.515,28.48
		c25.51,0,49.48-10.116,67.515-28.48c18.033-18.362,27.929-42.773,27.929-68.724C423.742,128.656,413.737,104.245,395.704,85.882z
		 M387.567,214.973c-15.835,16.165-36.947,24.961-59.269,24.961c-22.431,0-43.433-8.906-59.268-24.961
		c-15.833-16.163-24.52-37.605-24.52-60.367s8.687-44.204,24.52-60.368c15.835-16.163,36.947-24.961,59.268-24.961
		c22.432,0,43.434,8.907,59.269,24.961c15.833,16.164,24.52,37.606,24.52,60.368S403.401,198.811,387.567,214.973z"/>
	<path fill="none" d="M328.298,114.691c-21.552,0-39.145,17.924-39.145,39.916c0,21.993,17.593,39.915,39.145,39.915
		c21.553,0,39.146-17.922,39.146-39.915C367.444,132.615,349.851,114.691,328.298,114.691z M328.298,187.815
		c-18.033,0-32.658-14.956-32.658-33.208c0-18.253,14.625-33.208,32.658-33.208c18.034,0,32.659,14.954,32.659,33.208
		C360.957,172.859,346.222,187.815,328.298,187.815z"/>
	<path fill="none" d="M385.807,95.998c-15.395-15.615-35.847-24.301-57.509-24.301c-21.771,0-42.224,8.577-57.508,24.301
		c-15.394,15.614-23.861,36.397-23.861,58.608c0,22.103,8.467,42.884,23.861,58.609c15.395,15.613,35.847,24.301,57.508,24.301
		c21.772,0,42.225-8.577,57.509-24.301c15.394-15.614,23.861-36.397,23.861-58.609C409.559,132.505,401.092,111.723,385.807,95.998z
		 M378.55,205.738c-13.415,13.636-31.229,21.222-50.252,21.222c-19.022,0-36.836-7.478-50.251-21.222
		c-13.416-13.635-20.782-31.779-20.782-51.131c0-19.353,7.366-37.496,20.782-51.13c13.415-13.636,31.229-21.222,50.251-21.222
		c19.023,0,36.837,7.477,50.252,21.222c13.416,13.635,20.782,31.777,20.782,51.13C399.332,173.959,391.966,192.103,378.55,205.738z"
		/>
	<path fill="none" d="M375.911,106.115c-12.755-12.976-29.58-20.013-47.613-20.013c-18.033,0-34.857,7.147-47.612,20.013
		c-12.755,12.976-19.682,30.129-19.682,48.492c0,18.363,7.037,35.517,19.682,48.493c12.755,12.976,29.58,20.013,47.612,20.013
		c18.034,0,34.858-7.147,47.613-20.013c12.755-12.976,19.682-30.129,19.682-48.493C395.594,136.244,388.556,119.091,375.911,106.115
		z M328.298,213.874c-32.108,0-58.277-26.61-58.277-59.268s26.169-59.268,58.277-59.268c32.109,0,58.278,26.61,58.278,59.268
		S360.407,213.874,328.298,213.874z"/>
	<path fill="none" d="M405.6,75.875c-20.673-21.002-48.162-32.547-77.302-32.547c-29.249,0-56.628,11.545-77.301,32.547
		C230.324,96.879,219,124.807,219,154.606c0,29.689,11.325,57.729,31.998,78.73c20.673,21.002,48.162,32.549,77.301,32.549
		c29.25,0,56.629-11.546,77.302-32.549c20.672-21.002,31.998-48.931,31.998-78.73C437.598,124.918,426.272,96.879,405.6,75.875z
		 M396.583,224.211c-18.253,18.583-42.554,28.81-68.394,28.81c-25.841,0-50.142-10.227-68.395-28.81
		c-18.253-18.583-28.37-43.324-28.37-69.604c0-26.28,10.006-51.021,28.37-69.604c18.253-18.583,42.554-28.809,68.395-28.809
		c25.84,0,50.141,10.227,68.394,28.809c18.253,18.583,28.37,43.324,28.37,69.604C424.952,180.887,414.946,205.627,396.583,224.211z"
		/>
	<path fill="none" d="M328.298,129.095c-13.855,0-25.07,11.437-25.07,25.511c0,14.075,11.216,25.51,25.07,25.51
		c13.856,0,25.071-11.435,25.071-25.51C353.369,140.532,342.154,129.095,328.298,129.095z"/>
	<path fill="none" d="M328.298,100.396c-29.359,0-53.219,24.301-53.219,54.21c0,29.909,23.86,54.211,53.219,54.211
		c29.36,0,53.22-24.302,53.22-54.211C381.518,124.697,357.658,100.396,328.298,100.396z M328.298,200.9
		c-25.07,0-45.413-20.783-45.413-46.293c0-25.511,20.343-46.292,45.413-46.292c25.071,0,45.414,20.782,45.414,46.292
		C373.712,180.116,353.369,200.9,328.298,200.9z"/>
	<path fill="#FFFFFF" d="M328.298,108.314c-25.07,0-45.413,20.782-45.413,46.292c0,25.51,20.343,46.293,45.413,46.293
		c25.071,0,45.414-20.783,45.414-46.293C373.712,129.095,353.369,108.314,328.298,108.314z M328.298,194.521
		c-21.552,0-39.145-17.922-39.145-39.915c0-21.992,17.593-39.916,39.145-39.916c21.553,0,39.146,17.924,39.146,39.916
		C367.444,176.599,349.851,194.521,328.298,194.521z"/>
	<path fill="#FFFFFF" d="M378.55,103.476c-13.415-13.636-31.339-21.222-50.252-21.222c-19.022,0-36.836,7.477-50.251,21.222
		c-13.416,13.635-20.782,31.777-20.782,51.13c0,19.353,7.366,37.497,20.782,51.131c13.415,13.636,31.229,21.222,50.251,21.222
		c19.023,0,36.837-7.478,50.252-21.222c13.416-13.635,20.782-31.779,20.782-51.131C399.332,135.253,391.966,117.111,378.55,103.476z
		 M375.911,203.099c-12.755,12.976-29.58,20.013-47.613,20.013c-18.033,0-34.857-7.147-47.612-20.013
		c-12.755-12.976-19.682-30.129-19.682-48.493c0-18.362,7.037-35.516,19.682-48.492c12.755-12.976,29.58-20.013,47.612-20.013
		c18.034,0,34.858,7.147,47.613,20.013c12.755,12.976,19.682,30.129,19.682,48.492C395.594,172.969,388.556,190.123,375.911,203.099
		z"/>
	<path fill="#FFFFFF" d="M405.82,75.656c-20.783-21.002-48.272-32.658-77.522-32.658c-29.249,0-56.849,11.656-77.521,32.658
		c-20.671,21.112-32.108,49.151-32.108,78.95c0,29.8,11.437,57.839,32.108,78.951c20.672,21.112,48.272,32.658,77.521,32.658
		c29.25,0,56.85-11.656,77.522-32.658c20.671-21.112,32.107-49.151,32.107-78.951C437.927,124.807,426.491,96.768,405.82,75.656z
		 M405.6,233.337c-20.673,21.002-48.162,32.549-77.302,32.549c-29.249,0-56.628-11.546-77.301-32.549
		C230.324,212.335,219,184.406,219,154.606c0-29.688,11.325-57.728,31.998-78.729c20.673-21.003,48.162-32.549,77.301-32.549
		c29.25,0,56.629,11.545,77.302,32.549c20.672,21.002,31.998,48.931,31.998,78.729C437.598,184.296,426.272,212.335,405.6,233.337z"
		/>
	<path fill="#FFFFFF" d="M396.583,85.002c-18.253-18.583-42.554-28.809-68.394-28.809c-25.841,0-50.142,10.227-68.395,28.809
		c-18.143,18.583-28.26,43.324-28.26,69.604c0,26.281,10.006,51.021,28.37,69.604c18.253,18.583,42.554,28.81,68.394,28.81
		c25.841,0,50.142-10.227,68.395-28.81c18.253-18.583,28.37-43.324,28.37-69.604C424.952,128.326,414.946,103.585,396.583,85.002z
		 M395.704,223.33c-18.034,18.364-42.004,28.48-67.515,28.48c-25.511,0-49.482-10.116-67.515-28.48
		c-18.034-18.362-27.93-42.773-27.93-68.724c0-25.95,9.896-50.361,27.93-68.725c18.143-18.362,42.114-28.369,67.624-28.369
		c25.51,0,49.482,10.116,67.516,28.479c18.033,18.363,27.929,42.774,27.929,68.724C423.742,180.557,413.737,204.969,395.704,223.33z
		"/>
	<path fill="#FFFFFF" d="M328.298,95.338c-32.108,0-58.277,26.61-58.277,59.268s26.169,59.268,58.277,59.268
		c32.109,0,58.278-26.61,58.278-59.268S360.407,95.338,328.298,95.338z M328.298,208.817c-29.359,0-53.219-24.302-53.219-54.211
		c0-29.909,23.86-54.21,53.219-54.21c29.36,0,53.22,24.301,53.22,54.21C381.518,184.515,357.658,208.817,328.298,208.817z"/>
	<path fill="#FFFFFF" d="M387.567,94.239c-15.835-16.163-36.947-24.961-59.269-24.961c-22.431,0-43.433,8.907-59.268,24.961
		c-15.833,16.164-24.52,37.606-24.52,60.368s8.687,44.205,24.52,60.367c15.835,16.165,36.947,24.961,59.268,24.961
		c22.432,0,43.434-8.906,59.269-24.961c15.833-16.163,24.52-37.605,24.52-60.367S403.401,110.403,387.567,94.239z M385.807,213.215
		c-15.395,15.613-35.847,24.301-57.509,24.301c-21.771,0-42.224-8.577-57.508-24.301c-15.394-15.614-23.861-36.397-23.861-58.609
		c0-22.102,8.467-42.883,23.861-58.608c15.395-15.615,35.847-24.301,57.508-24.301c21.772,0,42.225,8.577,57.509,24.301
		c15.394,15.614,23.861,36.396,23.861,58.608C409.559,176.709,401.092,197.49,385.807,213.215z"/>
	<path fill="#FFFFFF" d="M12.166,98.747c0,4.398,0,9.127,0,14.404c0,5.168,0,10.556,0,15.944c0,5.389,0,10.337,0,14.625
		c0,4.398,0,7.917,0,10.667s0,3.958,0,3.628v28.48H-0.809l-1.869-3.519c-1.539,0.88-3.299,1.539-5.279,2.199
		c-2.749,0.88-5.608,1.209-8.357,1.209c-2.858,0-5.717-0.439-8.576-1.209c-2.749-0.879-5.279-2.089-7.697-3.628
		c-2.31-1.539-4.398-3.519-6.268-5.828c-1.87-2.31-3.189-4.728-4.288-7.477c-0.44-1.32-0.88-2.53-1.1-3.629
		c-0.331-1.1-0.55-2.749-0.66-4.728V88.631h14.734v70.265c0,1.979,0.55,3.959,1.541,6.048c0.989,2.089,2.418,3.738,4.178,5.058
		c2.42,1.869,5.168,2.749,8.137,2.749c1.87,0,3.629-0.331,5.279-1.1c1.649-0.77,3.078-1.76,4.288-3.08
		c1.209-1.319,2.199-2.859,2.969-4.508c0.769-1.758,1.21-3.518,1.429-5.498V88.631h14.625C12.166,90.94,12.166,94.349,12.166,98.747
		z"/>
	<path fill="#FFFFFF" d="M74.293,186.495H60.218c0-2.089,0-4.179,0-6.378c0-2.199,0-4.838,0-7.807c0-3.078,0-6.597,0-10.665
		c0-4.069,0-9.127,0-14.955c0-0.331,0-0.55,0-0.88c0-0.329,0-0.66-0.11-1.1c-0.329-1.318-0.769-2.418-1.208-3.518
		c-1.32-2.419-3.08-4.179-5.498-5.279c-1.099-0.439-2.309-0.769-3.739-1.1c-1.319-0.219-2.639-0.219-3.959,0.11
		c-2.749,0.55-5.167,1.87-7.147,4.069c-0.989,0.989-1.869,2.418-2.639,4.068c-0.66,1.649-1.1,3.298-1.1,4.839v38.595H20.743v-63.997
		h14.074l2.749,1.98c0.77-0.331,1.539-0.771,2.309-1.1c0.771-0.331,1.649-0.55,2.42-0.771c2.528-0.879,5.167-1.209,8.136-0.989
		s5.718,0.77,8.247,1.87c2.419,0.879,4.729,2.418,7.037,4.288c2.09,1.979,3.958,4.178,5.278,6.598
		c0.989,1.759,1.869,3.628,2.418,5.718c0.55,2.089,0.88,4.178,0.88,6.377V186.495z"/>
	<path fill="#FFFFFF" d="M143.568,88.631v97.864h-14.075v-0.11l-2.749-2.749c-0.44,0.22-0.879,0.329-1.21,0.549
		c-0.329,0.221-0.769,0.33-1.208,0.55c-3.74,1.649-7.917,2.639-12.426,2.749c-4.509,0-8.687-0.879-12.535-2.528
		c-4.069-1.649-7.588-4.069-10.666-7.257c-1.54-1.54-2.969-3.19-4.069-4.948c-1.21-1.87-2.199-3.74-2.968-5.608
		c-1.541-3.959-2.31-8.028-2.31-12.316s0.769-8.577,2.31-12.755c0.769-1.979,1.758-3.848,2.968-5.608
		c1.209-1.76,2.639-3.409,4.179-5.058c2.968-3.188,6.487-5.608,10.666-7.258c3.958-1.649,8.138-2.528,12.536-2.528
		c4.618,0.22,8.687,1.1,12.425,2.749c0.991,0.329,1.98,0.77,2.749,1.32c0.88,0.55,1.649,1.1,2.53,1.649V88.631H143.568z
		 M111.678,173.74c2.42,0.11,4.839-0.331,7.148-1.32c2.418-0.989,4.507-2.31,6.377-4.068c1.759-1.759,3.188-3.848,4.288-6.268
		c0.88-2.199,1.43-4.729,1.43-7.586c0-2.749-0.44-5.279-1.43-7.588c-1.1-2.418-2.529-4.508-4.288-6.267
		c-1.87-1.76-3.959-3.08-6.377-4.069c-2.419-0.879-4.729-1.429-7.148-1.429c-1.318,0.109-2.528,0.219-3.738,0.439
		c-1.209,0.219-2.309,0.55-3.409,1.1c-2.199,0.99-4.288,2.418-6.048,4.288c-0.879,0.879-1.759,1.76-2.418,2.859
		c-0.66,1.1-1.21,2.199-1.649,3.299c-0.221,0.55-0.331,1.1-0.55,1.759c-0.221,0.66-0.331,1.21-0.441,1.76
		c-0.439,2.749-0.33,5.827,0.441,9.126c0.769,3.299,2.308,5.938,4.507,8.137c1.759,1.87,3.739,3.298,6.049,4.289
		C106.951,173.19,109.26,173.74,111.678,173.74z"/>
	<path fill="#FFFFFF" d="M166.769,186.495h-14.075v-63.997h14.075V186.495z"/>
	<path fill="#FFFFFF" d="M199.097,187.484c-3.298,0-6.378-0.55-9.237-1.649c-2.859-1.1-5.388-2.528-7.587-4.508
		c-2.199-1.869-3.848-4.068-5.058-6.598c-1.21-2.528-1.869-5.168-1.869-8.136h13.855c0,1.868,0.989,3.518,2.858,4.948
		c1.87,1.429,4.179,2.199,6.928,2.199c2.639,0,4.838-0.77,6.818-2.199c1.868-1.539,2.858-3.188,2.858-5.058
		c0-1.32-0.55-2.528-1.649-3.738s-2.639-2.09-4.507-2.53l-10.117-2.968c-4.288-1.32-7.697-3.519-10.337-6.708
		c-2.639-3.188-3.958-6.708-3.958-10.776c0-2.529,0.55-4.838,1.649-7.147c1.1-2.199,2.528-4.178,4.508-5.827
		c1.869-1.649,4.068-2.969,6.598-3.849c2.528-0.99,5.167-1.43,8.137-1.43c5.937,0,10.996,1.98,15.064,5.829l-9.677,10.115
		c-0.66-0.659-1.429-1.208-2.418-1.758c-0.991-0.55-1.98-0.77-2.969-0.77c-2.089,0-3.738,0.439-4.948,1.429
		c-1.21,0.991-1.87,2.09-1.87,3.409c0,0.88,0.331,1.649,1.1,2.53c0.77,0.879,1.759,1.429,3.079,1.868l10.116,2.97
		c4.839,1.429,8.688,3.848,11.656,7.368c2.969,3.518,4.398,7.586,4.398,11.985c0,2.859-0.659,5.608-1.869,8.137
		c-1.209,2.53-2.859,4.729-5.058,6.597c-2.199,1.87-4.619,3.409-7.478,4.509C205.364,186.934,202.285,187.484,199.097,187.484z"/>
	<path fill="#FFFFFF" d="M276.287,144.93c-1.539-3.08-3.738-5.388-6.487-7.037c-2.749-1.649-5.608-2.53-8.686-2.749
		c-3.08-0.22-6.048,0.33-8.907,1.649c-2.97,1.319-5.388,3.299-7.368,5.827c-2.419,3.409-3.628,7.368-3.628,11.766
		c0.109,2.749,0.659,5.388,1.76,7.917c1.1,2.418,2.528,4.617,4.288,6.377c1.76,1.87,3.849,3.188,6.267,4.178
		c2.42,0.991,4.95,1.43,7.808,1.21c3.409-0.33,6.378-1.319,8.907-3.188c2.53-1.87,4.619-4.178,6.158-6.818l12.316,6.818
		c-3.959,6.378-9.236,11.106-16.054,13.965c-1.539,0.769-3.299,1.319-5.058,1.649c-1.76,0.33-3.519,0.55-5.278,0.769
		c-1.87,0.22-3.629,0.22-5.498,0c-1.76-0.219-3.519-0.55-5.279-0.989c-3.409-0.99-6.708-2.529-9.676-4.509
		c-3.08-1.979-5.718-4.398-7.807-7.256c-2.31-3.08-4.069-6.268-5.168-9.457c-1.1-3.409-1.649-6.928-1.649-10.667
		c0-5.829,1.1-10.996,3.409-15.394c2.309-4.398,5.277-7.917,8.907-10.667c3.628-2.749,7.697-4.619,12.205-5.718
		c4.509-1.1,9.016-1.209,13.635-0.439s8.907,2.419,12.976,5.058c4.068,2.639,7.587,6.158,10.336,10.775L276.287,144.93z"/>
	<path fill="#FFFFFF" d="M518.748,122.498c0.769,0.11,1.429,0.11,2.089,0.22c0.66,0,1.318,0.11,2.089,0.33l-3.959,12.976
		c-0.55-0.221-0.989-0.33-1.429-0.33c-1.539-0.22-2.749-0.11-3.959,0.109c-2.749,0.441-5.058,1.76-7.147,3.959
		c-0.439,0.55-0.879,1.1-1.319,1.649c-0.439,0.55-0.77,1.209-1.1,1.98c-0.22,0.439-0.439,1.318-0.77,2.528s-0.44,2.419-0.44,3.629
		v36.946h-14.074v-63.997h14.074l2.97,2.749c0.77-0.329,1.539-0.769,2.199-1.1c0.77-0.329,1.539-0.55,2.419-0.769
		c1.319-0.331,2.639-0.66,4.067-0.88C515.999,122.389,517.428,122.389,518.748,122.498z"/>
	<path fill="#FFFFFF" d="M583.622,157.136h-46.071l-1.431,1.209c0.221,0.659,0.331,1.319,0.44,1.869
		c0.109,0.66,0.33,1.21,0.659,1.87c0.771,1.979,1.87,3.738,3.299,5.498c1.431,1.649,3.08,3.078,4.948,4.069
		c2.09,1.208,3.959,1.979,5.828,2.199c0.55,0.109,1.1,0.109,1.649,0.219c0.55,0,1.1,0.11,1.649,0.11c0.44,0,0.989,0,1.539-0.11
		c0.55,0,1.1-0.11,1.54-0.219c2.09-0.441,4.179-1.21,6.047-2.419c0.881-0.55,1.76-1.21,2.53-1.979
		c0.769-0.77,1.539-1.54,2.199-2.419l10.666,9.346c-2.42,2.639-5.278,4.838-8.688,6.708c-2.199,1.32-4.728,2.309-7.366,2.969
		c-2.641,0.659-5.498,1.1-8.468,1.1c-3.519,0-7.146-0.55-10.776-1.649c-1.649-0.55-3.409-1.21-5.057-2.09
		c-3.3-1.758-6.158-3.958-8.688-6.707c-2.529-2.75-4.509-5.828-5.938-9.237c-1.431-3.409-2.31-6.816-2.639-10.446
		c-0.331-3.628-0.221-7.257,0.55-10.776c0.769-3.518,2.089-6.927,4.067-10.116c1.979-3.188,4.618-5.938,7.917-8.247
		c1.539-0.991,3.188-1.98,4.728-2.859c1.541-0.881,3.301-1.649,5.169-2.199c0.439-0.221,1.431-0.44,2.97-0.66
		s3.299-0.439,5.277-0.439c2.09-0.11,4.289,0,6.598,0.329c2.309,0.331,4.618,0.88,6.707,1.649c3.52,1.32,6.708,3.299,9.457,6.048
		c2.858,2.749,5.058,5.938,6.378,9.677c0.329,0.879,0.659,1.869,0.879,2.749c0.221,0.879,0.439,1.76,0.66,2.749
		c0.11,0.55,0.22,1.209,0.329,1.979c0.11,0.771,0.221,1.98,0.331,3.409v6.818H583.622z M548.107,135.584
		c-1.869,0.66-3.519,1.54-4.839,2.639c-1.429,1.1-2.749,2.419-3.959,3.958l0.552,1.649h28.479c-0.55-1.539-1.539-2.969-2.749-4.288
		c-0.771-0.77-1.76-1.43-2.97-2.199c-1.208-0.66-2.639-1.21-4.288-1.649c-1.539-0.441-3.298-0.66-5.058-0.77
		S549.865,135.034,548.107,135.584z"/>
	<path fill="#FFFFFF" d="M655.097,88.631v97.864h-14.075v-0.11l-2.749-2.749c-0.439,0.22-0.879,0.329-1.209,0.549
		c-0.33,0.221-0.77,0.33-1.21,0.55c-3.738,1.649-7.916,2.639-12.425,2.749c-4.509,0-8.688-0.879-12.536-2.528
		c-4.067-1.649-7.587-4.069-10.665-7.257c-1.54-1.54-2.97-3.19-4.069-4.948c-1.209-1.87-2.198-3.74-2.969-5.608
		c-1.539-3.959-2.31-8.028-2.31-12.316s0.771-8.577,2.31-12.755c0.771-1.979,1.76-3.848,2.969-5.608
		c1.21-1.76,2.64-3.409,4.179-5.058c2.969-3.188,6.488-5.608,10.666-7.258c3.959-1.649,8.137-2.528,12.535-2.528
		c4.618,0.22,8.688,1.1,12.426,2.749c0.989,0.329,1.979,0.77,2.749,1.32c0.88,0.55,1.649,1.1,2.529,1.649V88.631H655.097z
		 M623.208,173.74c2.42,0.11,4.838-0.331,7.147-1.32c2.42-0.989,4.509-2.31,6.378-4.068c1.759-1.759,3.188-3.848,4.288-6.268
		c0.88-2.199,1.43-4.729,1.43-7.586c0-2.749-0.439-5.279-1.43-7.588c-1.1-2.418-2.528-4.508-4.288-6.267
		c-1.869-1.76-3.958-3.08-6.378-4.069c-2.419-0.879-4.728-1.429-7.147-1.429c-1.319,0.109-2.528,0.219-3.738,0.439
		c-1.209,0.219-2.309,0.55-3.408,1.1c-2.199,0.99-4.288,2.418-6.048,4.288c-0.881,0.879-1.76,1.76-2.42,2.859
		s-1.21,2.199-1.649,3.299c-0.219,0.55-0.329,1.1-0.55,1.759c-0.219,0.66-0.329,1.21-0.439,1.76
		c-0.439,2.749-0.329,5.827,0.439,9.126c0.771,3.299,2.31,5.938,4.509,8.137c1.76,1.87,3.738,3.298,6.048,4.289
		C618.37,173.19,620.789,173.74,623.208,173.74z"/>
	<path fill="#FFFFFF" d="M167.208,101.717L167.208,101.717c-0.11-0.221-0.219-0.44-0.439-0.66c-0.221-0.329-0.55-0.66-0.879-0.989
		c-0.22-0.221-0.331-0.331-0.55-0.55c-1.759-1.76-4.069-3.959-4.508-4.948h-0.439h-0.55h-0.66h-0.439
		c-0.441,0.989-2.859,3.188-4.509,4.948c-0.22,0.11-0.331,0.329-0.55,0.55c-0.331,0.329-0.66,0.66-0.88,0.989
		c-0.219,0.22-0.439,0.55-0.439,0.66l0,0c-0.77,1.319-1.21,2.749-1.21,4.398c0,2.42,0.88,4.509,2.53,6.158s3.738,2.528,6.158,2.528
		c2.418,0,4.507-0.879,6.156-2.528c1.649-1.649,2.53-3.738,2.53-6.158C168.418,104.466,167.978,102.926,167.208,101.717z"/>
	<path fill="#FFFFFF" d="M481.251,157.136h-46.073l-1.429,1.209c0.221,0.659,0.329,1.319,0.439,1.869
		c0.11,0.66,0.331,1.21,0.66,1.87c0.771,1.979,1.869,3.738,3.299,5.498c1.429,1.649,3.078,3.078,4.948,4.069
		c2.089,1.208,3.958,1.979,5.828,2.199c0.55,0.109,1.1,0.109,1.649,0.219c0.55,0,1.1,0.11,1.649,0.11c0.439,0,0.989,0,1.539-0.11
		c0.55,0,1.1-0.11,1.539-0.219c2.089-0.441,4.179-1.21,6.048-2.419c0.88-0.55,1.76-1.21,2.529-1.979
		c0.77-0.77,1.539-1.54,2.199-2.419l10.665,9.346c-2.418,2.639-5.277,4.838-8.687,6.708c-2.199,1.32-4.728,2.309-7.367,2.969
		c-2.639,0.659-5.498,1.1-8.466,1.1c-3.52,0-7.148-0.55-10.776-1.649c-1.649-0.55-3.409-1.21-5.059-2.09
		c-3.299-1.758-6.158-3.958-8.687-6.707c-2.529-2.75-4.509-5.828-5.938-9.237c-1.43-3.409-2.309-6.816-2.639-10.446
		c-0.331-3.628-0.22-7.257,0.549-10.776c0.77-3.518,2.09-6.927,4.068-10.116c1.979-3.188,4.619-5.938,7.918-8.247
		c1.539-0.991,3.188-1.98,4.728-2.859c1.539-0.881,3.299-1.649,5.168-2.199c0.44-0.221,1.43-0.44,2.97-0.66
		c1.539-0.22,3.299-0.439,5.277-0.439c2.089-0.11,4.288,0,6.598,0.329c2.31,0.331,4.618,0.88,6.708,1.649
		c3.519,1.32,6.707,3.299,9.456,6.048c2.859,2.749,5.059,5.938,6.377,9.677c0.331,0.879,0.66,1.869,0.881,2.749
		c0.219,0.879,0.439,1.76,0.659,2.749c0.109,0.55,0.22,1.209,0.33,1.979c0.11,0.771,0.221,1.98,0.329,3.409v6.818H481.251z
		 M445.735,135.584c-1.869,0.66-3.519,1.54-4.838,2.639c-1.43,1.1-2.749,2.419-3.959,3.958l0.55,1.649h28.479
		c-0.55-1.539-1.539-2.969-2.749-4.288c-0.77-0.77-1.759-1.43-2.969-2.199c-1.21-0.66-2.639-1.21-4.288-1.649
		c-1.539-0.441-3.299-0.66-5.059-0.77S447.384,135.034,445.735,135.584z"/>
	<g>
		
			<linearGradient id="SVGID_1_" gradientUnits="userSpaceOnUse" x1="978.1116" y1="-2203.1052" x2="949.7226" y2="-2288.8752" gradientTransform="matrix(0.5832 -0.6549 -0.6549 -0.5832 -1717.1484 -580.4227)">
			<stop  offset="0.6915" style="stop-color:#FBC61A"/>
			<stop  offset="0.7223" style="stop-color:#FCCF40"/>
			<stop  offset="0.7736" style="stop-color:#FDDE79"/>
			<stop  offset="0.8232" style="stop-color:#FEEAA9"/>
			<stop  offset="0.8701" style="stop-color:#FEF3CE"/>
			<stop  offset="0.9135" style="stop-color:#FFFAE9"/>
			<stop  offset="0.952" style="stop-color:#FFFEF9"/>
			<stop  offset="0.9818" style="stop-color:#FFFFFF"/>
		</linearGradient>
		<path fill="url(#SVGID_1_)" d="M354.908,125.357l4.179-4.728c-17.593-16.494-43.764-16.164-60.807-0.88l4.068,4.839
			C317.083,111.392,340.064,111.283,354.908,125.357z"/>
		
			<linearGradient id="SVGID_2_" gradientUnits="userSpaceOnUse" x1="1002.7874" y1="-2200.0779" x2="976.1763" y2="-2280.637" gradientTransform="matrix(0.5759 -0.6488 -0.6483 -0.5792 -1694.2847 -587.408)">
			<stop  offset="0.6915" style="stop-color:#FBC61A"/>
			<stop  offset="0.7223" style="stop-color:#FCCF40"/>
			<stop  offset="0.7736" style="stop-color:#FDDE79"/>
			<stop  offset="0.8232" style="stop-color:#FEEAA9"/>
			<stop  offset="0.8701" style="stop-color:#FEF3CE"/>
			<stop  offset="0.9135" style="stop-color:#FFFAE9"/>
			<stop  offset="0.952" style="stop-color:#FFFEF9"/>
			<stop  offset="0.9818" style="stop-color:#FFFFFF"/>
		</linearGradient>
		<path fill="url(#SVGID_2_)" d="M322.141,43.548c18.143-0.989,35.736,2.31,51.9,10.006c9.786,4.618,19.243,10.775,27.489,18.472
			l0.22-0.219c-21.991-19.902-48.492-30.129-79.391-28.59c-24.411,1.21-47.173,10.776-65.206,26.391l0.221,0.219
			C275.408,54.215,297.73,44.867,322.141,43.548z"/>
		
			<linearGradient id="SVGID_3_" gradientUnits="userSpaceOnUse" x1="984.4309" y1="-2202.2942" x2="956.7864" y2="-2285.8145" gradientTransform="matrix(0.5832 -0.6549 -0.6549 -0.5832 -1717.1484 -580.4227)">
			<stop  offset="0.6915" style="stop-color:#FBC61A"/>
			<stop  offset="0.7223" style="stop-color:#FCCF40"/>
			<stop  offset="0.7736" style="stop-color:#FDDE79"/>
			<stop  offset="0.8232" style="stop-color:#FEEAA9"/>
			<stop  offset="0.8701" style="stop-color:#FEF3CE"/>
			<stop  offset="0.9135" style="stop-color:#FFFAE9"/>
			<stop  offset="0.952" style="stop-color:#FFFEF9"/>
			<stop  offset="0.9818" style="stop-color:#FFFFFF"/>
		</linearGradient>
		<path fill="url(#SVGID_3_)" d="M364.256,114.691l3.408-3.738c-21.991-20.781-55.639-20.671-77.63-1.1l3.299,3.849
			C313.454,95.888,344.133,95.779,364.256,114.691z"/>
		
			<linearGradient id="SVGID_4_" gradientUnits="userSpaceOnUse" x1="1004.6584" y1="-2196.2063" x2="978.0917" y2="-2276.4707" gradientTransform="matrix(0.5832 -0.6549 -0.6549 -0.5832 -1717.1484 -580.4227)">
			<stop  offset="0.6915" style="stop-color:#FBC61A"/>
			<stop  offset="0.7223" style="stop-color:#FCCF40"/>
			<stop  offset="0.7736" style="stop-color:#FDDE79"/>
			<stop  offset="0.8232" style="stop-color:#FEEAA9"/>
			<stop  offset="0.8701" style="stop-color:#FEF3CE"/>
			<stop  offset="0.9135" style="stop-color:#FFFAE9"/>
			<stop  offset="0.952" style="stop-color:#FFFEF9"/>
			<stop  offset="0.9818" style="stop-color:#FFFFFF"/>
		</linearGradient>
		<path fill="url(#SVGID_4_)" d="M323.241,57.622c25.73-1.209,49.481,7.367,69.054,25.071l1.1-0.769
			c-19.792-18.144-44.203-26.831-70.153-25.511c-21.882,1.1-41.785,9.566-57.949,23.531l0.88,0.989
			C282.335,66.969,301.689,58.613,323.241,57.622z"/>
		
			<linearGradient id="SVGID_5_" gradientUnits="userSpaceOnUse" x1="997.6047" y1="-2198.6257" x2="970.8307" y2="-2279.5159" gradientTransform="matrix(0.5832 -0.6549 -0.6549 -0.5832 -1717.1484 -580.4227)">
			<stop  offset="0.6915" style="stop-color:#FBC61A"/>
			<stop  offset="0.7223" style="stop-color:#FCCF40"/>
			<stop  offset="0.7736" style="stop-color:#FDDE79"/>
			<stop  offset="0.8232" style="stop-color:#FEEAA9"/>
			<stop  offset="0.8701" style="stop-color:#FEF3CE"/>
			<stop  offset="0.9135" style="stop-color:#FFFAE9"/>
			<stop  offset="0.952" style="stop-color:#FFFEF9"/>
			<stop  offset="0.9818" style="stop-color:#FFFFFF"/>
		</linearGradient>
		<path fill="url(#SVGID_5_)" d="M324.56,71.807c21.882-0.989,41.895,6.708,58.389,21.442l1.76-1.76
			c-17.264-15.723-36.837-22.651-59.378-22.212c-19.023,0.331-38.045,8.578-52.01,20.783l1.649,1.979
			C289.813,79.284,306.637,72.576,324.56,71.807z"/>
		
			<linearGradient id="SVGID_6_" gradientUnits="userSpaceOnUse" x1="990.9407" y1="-2200.5852" x2="963.7361" y2="-2282.7764" gradientTransform="matrix(0.5832 -0.6549 -0.6549 -0.5832 -1717.1484 -580.4227)">
			<stop  offset="0.6915" style="stop-color:#FBC61A"/>
			<stop  offset="0.7223" style="stop-color:#FCCF40"/>
			<stop  offset="0.7736" style="stop-color:#FDDE79"/>
			<stop  offset="0.8232" style="stop-color:#FEEAA9"/>
			<stop  offset="0.8701" style="stop-color:#FEF3CE"/>
			<stop  offset="0.9135" style="stop-color:#FFFAE9"/>
			<stop  offset="0.952" style="stop-color:#FFFEF9"/>
			<stop  offset="0.9818" style="stop-color:#FFFFFF"/>
		</linearGradient>
		<path fill="url(#SVGID_6_)" d="M324.67,86.102c18.143-0.879,34.967,5.168,49.042,17.924l2.418-2.969
			c-15.064-13.745-32.658-19.682-51.79-18.803c-16.164,0.77-30.899,7.257-42.774,17.703l2.419,2.969
			C294.541,93.58,309.276,86.872,324.67,86.102z"/>
	</g>
	<path fill="#FFFFFF" d="M418.026,122.498l-21.993,63.997h-12.974l-21.993-63.997h14.515l13.086,38.266h1.649l13.084-38.266H418.026
		z"/>
</g>
<g>
	<g enable-background="new    ">
		<path fill="#FFFFFF" d="M451.858,208.015c0.098,0,0.147,0.05,0.147,0.148v0.073c0,0.099-0.05,0.148-0.147,0.148h-8.814v7.386
			h8.347c0.098,0,0.147,0.05,0.147,0.148v0.074c0,0.099-0.05,0.147-0.147,0.147h-8.347v8.471c0,0.099-0.051,0.147-0.148,0.147h-0.1
			c-0.098,0-0.146-0.049-0.146-0.147v-16.448c0-0.099,0.049-0.148,0.146-0.148H451.858z"/>
		<path fill="#FFFFFF" d="M454.27,215.255c0-1.601,0.887-2.758,4.063-2.758c3.176,0,4.062,1.157,4.062,2.758v6.943
			c0,1.601-0.887,2.758-4.062,2.758c-3.177,0-4.063-1.158-4.063-2.758V215.255z M462.002,215.255c0-1.354-0.788-2.389-3.669-2.389
			c-2.882,0-3.669,1.035-3.669,2.389v6.943c0,1.354,0.787,2.388,3.669,2.388c2.881,0,3.669-1.034,3.669-2.388V215.255z"/>
		<path fill="#FFFFFF" d="M474.264,223.405c-0.69,0.591-2.118,1.552-4.284,1.552c-2.315,0-3.3-1.158-3.3-2.758v-9.357
			c0-0.098,0.049-0.147,0.148-0.147h0.098c0.098,0,0.148,0.049,0.148,0.147v9.357c0,1.354,0.887,2.388,2.905,2.388
			c2.314,0,3.718-1.132,4.284-1.625v-10.121c0-0.098,0.05-0.147,0.147-0.147h0.099c0.099,0,0.147,0.049,0.147,0.147v11.771
			c0,0.099-0.049,0.147-0.147,0.147h-0.05c-0.098,0-0.146-0.049-0.146-0.147L474.264,223.405z"/>
		<path fill="#FFFFFF" d="M479.731,212.842l0.024,1.231c0.738-0.591,2.265-1.576,4.457-1.576c2.314,0,3.3,1.157,3.3,2.758v9.357
			c0,0.099-0.05,0.147-0.148,0.147h-0.099c-0.099,0-0.147-0.049-0.147-0.147v-9.357c0-1.354-0.887-2.389-2.905-2.389
			c-2.339,0-3.866,1.158-4.433,1.65v10.096c0,0.099-0.049,0.147-0.147,0.147h-0.099c-0.099,0-0.147-0.049-0.147-0.147v-11.771
			c0-0.098,0.049-0.147,0.147-0.147h0.049C479.681,212.694,479.731,212.743,479.731,212.842z"/>
		<path fill="#FFFFFF" d="M499.528,223.405c-0.715,0.566-2.267,1.552-4.433,1.552c-2.29,0-3.3-1.158-3.3-2.758v-6.943
			c0-1.601,1.01-2.758,3.3-2.758c2.166,0,3.693,0.985,4.433,1.576v-6.378c0-0.098,0.049-0.147,0.146-0.147h0.1
			c0.098,0,0.146,0.05,0.146,0.147v16.917c0,0.099-0.049,0.147-0.146,0.147h-0.05c-0.099,0-0.147-0.049-0.147-0.147L499.528,223.405
			z M492.19,222.198c0,1.354,0.911,2.388,2.905,2.388c2.314,0,3.865-1.157,4.433-1.625v-8.446c-0.567-0.492-2.118-1.65-4.433-1.65
			c-1.994,0-2.905,1.035-2.905,2.389V222.198z"/>
		<path fill="#FFFFFF" d="M504.896,224.612c0,0.099-0.051,0.147-0.148,0.147h-0.098c-0.1,0-0.148-0.049-0.148-0.147v-1.847
			c0-0.099,0.049-0.147,0.148-0.147h0.098c0.098,0,0.148,0.049,0.148,0.147V224.612z"/>
		<path fill="#FFFFFF" d="M516.32,224.39h8.102c0.098,0,0.146,0.049,0.146,0.147v0.074c0,0.099-0.049,0.147-0.146,0.147h-8.373
			c-0.073,0-0.122-0.049-0.122-0.147v-16.448c0-0.099,0.049-0.148,0.146-0.148h0.1c0.098,0,0.147,0.05,0.147,0.148V224.39z"/>
		<path fill="#FFFFFF" d="M527.425,215.255c0-1.601,0.886-2.758,4.062-2.758c3.176,0,4.062,1.157,4.062,2.758v6.943
			c0,1.601-0.887,2.758-4.062,2.758c-3.177,0-4.062-1.158-4.062-2.758V215.255z M535.157,215.255c0-1.354-0.789-2.389-3.67-2.389
			s-3.669,1.035-3.669,2.389v6.943c0,1.354,0.788,2.388,3.669,2.388s3.67-1.034,3.67-2.388V215.255z"/>
		<path fill="#FFFFFF" d="M542.322,224.76c-0.073,0-0.146-0.049-0.172-0.147l-4.038-11.771c-0.024-0.074-0.024-0.147,0.073-0.147
			h0.148c0.073,0,0.147,0.049,0.172,0.147l3.595,10.367c0.148,0.418,0.296,0.886,0.296,0.886s0.099-0.394,0.271-0.886l3.57-10.367
			c0.024-0.098,0.098-0.147,0.173-0.147h0.146c0.1,0,0.1,0.074,0.075,0.147l-4.039,11.771c-0.024,0.099-0.099,0.147-0.172,0.147
			H542.322z"/>
		<path fill="#FFFFFF" d="M557.318,218.357c0,0.099-0.049,0.148-0.147,0.148h-7.584v3.693c0,1.354,0.787,2.388,3.669,2.388
			c2.881,0,3.669-1.034,3.669-2.388v-0.714c0-0.099,0.05-0.147,0.147-0.147h0.099c0.099,0,0.147,0.049,0.147,0.147v0.714
			c0,1.601-0.887,2.758-4.062,2.758c-3.177,0-4.063-1.158-4.063-2.758v-6.943c0-1.601,0.887-2.758,4.063-2.758
			c3.176,0,4.062,1.157,4.062,2.758V218.357z M549.586,218.135h7.338v-2.88c0-1.354-0.788-2.389-3.669-2.389
			c-2.882,0-3.669,1.035-3.669,2.389V218.135z"/>
		<path fill="#FFFFFF" d="M568.891,223.405c-0.715,0.566-2.267,1.552-4.433,1.552c-2.289,0-3.3-1.158-3.3-2.758v-6.943
			c0-1.601,1.011-2.758,3.3-2.758c2.166,0,3.693,0.985,4.433,1.576v-6.378c0-0.098,0.05-0.147,0.147-0.147h0.099
			c0.099,0,0.147,0.05,0.147,0.147v16.917c0,0.099-0.049,0.147-0.147,0.147h-0.05c-0.098,0-0.146-0.049-0.146-0.147L568.891,223.405
			z M561.553,222.198c0,1.354,0.911,2.388,2.905,2.388c2.314,0,3.866-1.157,4.433-1.625v-8.446c-0.566-0.492-2.118-1.65-4.433-1.65
			c-1.994,0-2.905,1.035-2.905,2.389V222.198z"/>
		<path fill="#FFFFFF" d="M574.258,224.612c0,0.099-0.05,0.147-0.148,0.147h-0.099c-0.099,0-0.147-0.049-0.147-0.147v-1.847
			c0-0.099,0.049-0.147,0.147-0.147h0.099c0.099,0,0.148,0.049,0.148,0.147V224.612z"/>
		<path fill="#FFFFFF" d="M589.573,208.188c-3.446,0-4.26,1.231-4.26,2.856v1.256c0,1.354,1.009,2.118,1.822,2.438l4.925,1.896
			c1.033,0.394,2.265,1.305,2.265,2.856v2.241c0,1.872-1.034,3.226-4.776,3.226c-3.719,0-4.752-1.354-4.752-3.226v-1.157
			c0-0.098,0.049-0.147,0.146-0.147h0.1c0.098,0,0.146,0.049,0.146,0.147v1.157c0,1.625,0.911,2.856,4.359,2.856
			c3.447,0,4.383-1.23,4.383-2.856v-2.241c0-1.379-1.084-2.142-2.02-2.511l-4.925-1.896c-0.911-0.345-2.068-1.207-2.068-2.783
			v-1.256c0-1.871,0.911-3.225,4.654-3.225c3.718,0,4.629,1.354,4.629,3.225v1.305c0,0.099-0.049,0.147-0.147,0.147h-0.099
			c-0.099,0-0.147-0.049-0.147-0.147v-1.305C593.809,209.419,592.996,208.188,589.573,208.188z"/>
		<path fill="#FFFFFF" d="M599.152,210.133c0,0.099-0.049,0.148-0.147,0.148h-0.099c-0.098,0-0.148-0.049-0.148-0.148v-2.438
			c0-0.098,0.051-0.147,0.148-0.147h0.099c0.099,0,0.147,0.05,0.147,0.147V210.133z M599.152,224.612
			c0,0.099-0.049,0.147-0.147,0.147h-0.099c-0.098,0-0.148-0.049-0.148-0.147v-11.771c0-0.098,0.051-0.147,0.148-0.147h0.099
			c0.099,0,0.147,0.049,0.147,0.147V224.612z"/>
		<path fill="#FFFFFF" d="M603.583,222.198v-6.943c0-1.601,1.01-2.758,3.3-2.758c2.166,0,3.717,0.985,4.433,1.576l0.049-1.231
			c0-0.098,0.049-0.147,0.146-0.147h0.051c0.098,0,0.146,0.049,0.146,0.147v14.356c0,1.6-0.836,2.757-4.014,2.757h-3.25
			c-0.098,0-0.147-0.049-0.147-0.147v-0.074c0-0.099,0.05-0.147,0.147-0.147h3.25c2.881,0,3.621-1.034,3.621-2.388v-3.792
			c-0.74,0.591-2.267,1.552-4.433,1.552C604.593,224.957,603.583,223.799,603.583,222.198z M603.977,222.198
			c0,1.354,0.911,2.388,2.906,2.388c2.313,0,3.865-1.157,4.433-1.625v-8.446c-0.567-0.492-2.119-1.65-4.433-1.65
			c-1.995,0-2.906,1.035-2.906,2.389V222.198z"/>
		<path fill="#FFFFFF" d="M616.781,212.842l0.024,1.231c0.738-0.591,2.266-1.576,4.457-1.576c2.314,0,3.3,1.157,3.3,2.758v9.357
			c0,0.099-0.05,0.147-0.148,0.147h-0.098c-0.099,0-0.148-0.049-0.148-0.147v-9.357c0-1.354-0.886-2.389-2.905-2.389
			c-2.339,0-3.865,1.158-4.433,1.65v10.096c0,0.099-0.049,0.147-0.146,0.147h-0.1c-0.098,0-0.148-0.049-0.148-0.147v-11.771
			c0-0.098,0.051-0.147,0.148-0.147h0.049C616.733,212.694,616.781,212.743,616.781,212.842z"/>
		<path fill="#FFFFFF" d="M636.972,218.357c0,0.099-0.049,0.148-0.147,0.148h-7.584v3.693c0,1.354,0.787,2.388,3.668,2.388
			c2.882,0,3.67-1.034,3.67-2.388v-0.714c0-0.099,0.049-0.147,0.147-0.147h0.099c0.099,0,0.147,0.049,0.147,0.147v0.714
			c0,1.601-0.887,2.758-4.063,2.758c-3.176,0-4.062-1.158-4.062-2.758v-6.943c0-1.601,0.887-2.758,4.062-2.758
			c3.177,0,4.063,1.157,4.063,2.758V218.357z M629.24,218.135h7.338v-2.88c0-1.354-0.788-2.389-3.67-2.389
			c-2.881,0-3.668,1.035-3.668,2.389V218.135z"/>
		<path fill="#FFFFFF" d="M648.545,223.405c-0.715,0.566-2.267,1.552-4.433,1.552c-2.29,0-3.3-1.158-3.3-2.758v-6.943
			c0-1.601,1.01-2.758,3.3-2.758c2.166,0,3.693,0.985,4.433,1.576v-6.378c0-0.098,0.049-0.147,0.147-0.147h0.099
			c0.098,0,0.147,0.05,0.147,0.147v16.917c0,0.099-0.05,0.147-0.147,0.147h-0.05c-0.099,0-0.147-0.049-0.147-0.147L648.545,223.405z
			 M641.207,222.198c0,1.354,0.911,2.388,2.905,2.388c2.314,0,3.866-1.157,4.433-1.625v-8.446c-0.566-0.492-2.118-1.65-4.433-1.65
			c-1.994,0-2.905,1.035-2.905,2.389V222.198z"/>
		<path fill="#FFFFFF" d="M653.913,224.612c0,0.099-0.05,0.147-0.148,0.147h-0.098c-0.1,0-0.148-0.049-0.148-0.147v-1.847
			c0-0.099,0.049-0.147,0.148-0.147h0.098c0.099,0,0.148,0.049,0.148,0.147V224.612z"/>
	</g>
	<g enable-background="new    ">
		<path fill="none" stroke="#FFFFFF" stroke-miterlimit="10" d="M451.858,208.015c0.098,0,0.147,0.05,0.147,0.148v0.073
			c0,0.099-0.05,0.148-0.147,0.148h-8.814v7.386h8.347c0.098,0,0.147,0.05,0.147,0.148v0.074c0,0.099-0.05,0.147-0.147,0.147h-8.347
			v8.471c0,0.099-0.051,0.147-0.148,0.147h-0.1c-0.098,0-0.146-0.049-0.146-0.147v-16.448c0-0.099,0.049-0.148,0.146-0.148H451.858z
			"/>
		<path fill="none" stroke="#FFFFFF" stroke-miterlimit="10" d="M454.27,215.255c0-1.601,0.887-2.758,4.063-2.758
			c3.176,0,4.062,1.157,4.062,2.758v6.943c0,1.601-0.887,2.758-4.062,2.758c-3.177,0-4.063-1.158-4.063-2.758V215.255z
			 M462.002,215.255c0-1.354-0.788-2.389-3.669-2.389c-2.882,0-3.669,1.035-3.669,2.389v6.943c0,1.354,0.787,2.388,3.669,2.388
			c2.881,0,3.669-1.034,3.669-2.388V215.255z"/>
		<path fill="none" stroke="#FFFFFF" stroke-miterlimit="10" d="M474.264,223.405c-0.69,0.591-2.118,1.552-4.284,1.552
			c-2.315,0-3.3-1.158-3.3-2.758v-9.357c0-0.098,0.049-0.147,0.148-0.147h0.098c0.098,0,0.148,0.049,0.148,0.147v9.357
			c0,1.354,0.887,2.388,2.905,2.388c2.314,0,3.718-1.132,4.284-1.625v-10.121c0-0.098,0.05-0.147,0.147-0.147h0.099
			c0.099,0,0.147,0.049,0.147,0.147v11.771c0,0.099-0.049,0.147-0.147,0.147h-0.05c-0.098,0-0.146-0.049-0.146-0.147
			L474.264,223.405z"/>
		<path fill="none" stroke="#FFFFFF" stroke-miterlimit="10" d="M479.731,212.842l0.024,1.231c0.738-0.591,2.265-1.576,4.457-1.576
			c2.314,0,3.3,1.157,3.3,2.758v9.357c0,0.099-0.05,0.147-0.148,0.147h-0.099c-0.099,0-0.147-0.049-0.147-0.147v-9.357
			c0-1.354-0.887-2.389-2.905-2.389c-2.339,0-3.866,1.158-4.433,1.65v10.096c0,0.099-0.049,0.147-0.147,0.147h-0.099
			c-0.099,0-0.147-0.049-0.147-0.147v-11.771c0-0.098,0.049-0.147,0.147-0.147h0.049
			C479.681,212.694,479.731,212.743,479.731,212.842z"/>
		<path fill="none" stroke="#FFFFFF" stroke-miterlimit="10" d="M499.528,223.405c-0.715,0.566-2.267,1.552-4.433,1.552
			c-2.29,0-3.3-1.158-3.3-2.758v-6.943c0-1.601,1.01-2.758,3.3-2.758c2.166,0,3.693,0.985,4.433,1.576v-6.378
			c0-0.098,0.049-0.147,0.146-0.147h0.1c0.098,0,0.146,0.05,0.146,0.147v16.917c0,0.099-0.049,0.147-0.146,0.147h-0.05
			c-0.099,0-0.147-0.049-0.147-0.147L499.528,223.405z M492.19,222.198c0,1.354,0.911,2.388,2.905,2.388
			c2.314,0,3.865-1.157,4.433-1.625v-8.446c-0.567-0.492-2.118-1.65-4.433-1.65c-1.994,0-2.905,1.035-2.905,2.389V222.198z"/>
		<path fill="none" stroke="#FFFFFF" stroke-miterlimit="10" d="M504.896,224.612c0,0.099-0.051,0.147-0.148,0.147h-0.098
			c-0.1,0-0.148-0.049-0.148-0.147v-1.847c0-0.099,0.049-0.147,0.148-0.147h0.098c0.098,0,0.148,0.049,0.148,0.147V224.612z"/>
		<path fill="none" stroke="#FFFFFF" stroke-miterlimit="10" d="M516.32,224.39h8.102c0.098,0,0.146,0.049,0.146,0.147v0.074
			c0,0.099-0.049,0.147-0.146,0.147h-8.373c-0.073,0-0.122-0.049-0.122-0.147v-16.448c0-0.099,0.049-0.148,0.146-0.148h0.1
			c0.098,0,0.147,0.05,0.147,0.148V224.39z"/>
		<path fill="none" stroke="#FFFFFF" stroke-miterlimit="10" d="M527.425,215.255c0-1.601,0.886-2.758,4.062-2.758
			c3.176,0,4.062,1.157,4.062,2.758v6.943c0,1.601-0.887,2.758-4.062,2.758c-3.177,0-4.062-1.158-4.062-2.758V215.255z
			 M535.157,215.255c0-1.354-0.789-2.389-3.67-2.389s-3.669,1.035-3.669,2.389v6.943c0,1.354,0.788,2.388,3.669,2.388
			s3.67-1.034,3.67-2.388V215.255z"/>
		<path fill="none" stroke="#FFFFFF" stroke-miterlimit="10" d="M542.322,224.76c-0.073,0-0.146-0.049-0.172-0.147l-4.038-11.771
			c-0.024-0.074-0.024-0.147,0.073-0.147h0.148c0.073,0,0.147,0.049,0.172,0.147l3.595,10.367c0.148,0.418,0.296,0.886,0.296,0.886
			s0.099-0.394,0.271-0.886l3.57-10.367c0.024-0.098,0.098-0.147,0.173-0.147h0.146c0.1,0,0.1,0.074,0.075,0.147l-4.039,11.771
			c-0.024,0.099-0.099,0.147-0.172,0.147H542.322z"/>
		<path fill="none" stroke="#FFFFFF" stroke-miterlimit="10" d="M557.318,218.357c0,0.099-0.049,0.148-0.147,0.148h-7.584v3.693
			c0,1.354,0.787,2.388,3.669,2.388c2.881,0,3.669-1.034,3.669-2.388v-0.714c0-0.099,0.05-0.147,0.147-0.147h0.099
			c0.099,0,0.147,0.049,0.147,0.147v0.714c0,1.601-0.887,2.758-4.062,2.758c-3.177,0-4.063-1.158-4.063-2.758v-6.943
			c0-1.601,0.887-2.758,4.063-2.758c3.176,0,4.062,1.157,4.062,2.758V218.357z M549.586,218.135h7.338v-2.88
			c0-1.354-0.788-2.389-3.669-2.389c-2.882,0-3.669,1.035-3.669,2.389V218.135z"/>
		<path fill="none" stroke="#FFFFFF" stroke-miterlimit="10" d="M568.891,223.405c-0.715,0.566-2.267,1.552-4.433,1.552
			c-2.289,0-3.3-1.158-3.3-2.758v-6.943c0-1.601,1.011-2.758,3.3-2.758c2.166,0,3.693,0.985,4.433,1.576v-6.378
			c0-0.098,0.05-0.147,0.147-0.147h0.099c0.099,0,0.147,0.05,0.147,0.147v16.917c0,0.099-0.049,0.147-0.147,0.147h-0.05
			c-0.098,0-0.146-0.049-0.146-0.147L568.891,223.405z M561.553,222.198c0,1.354,0.911,2.388,2.905,2.388
			c2.314,0,3.866-1.157,4.433-1.625v-8.446c-0.566-0.492-2.118-1.65-4.433-1.65c-1.994,0-2.905,1.035-2.905,2.389V222.198z"/>
		<path fill="none" stroke="#FFFFFF" stroke-miterlimit="10" d="M574.258,224.612c0,0.099-0.05,0.147-0.148,0.147h-0.099
			c-0.099,0-0.147-0.049-0.147-0.147v-1.847c0-0.099,0.049-0.147,0.147-0.147h0.099c0.099,0,0.148,0.049,0.148,0.147V224.612z"/>
		<path fill="none" stroke="#FFFFFF" stroke-miterlimit="10" d="M589.573,208.188c-3.446,0-4.26,1.231-4.26,2.856v1.256
			c0,1.354,1.009,2.118,1.822,2.438l4.925,1.896c1.033,0.394,2.265,1.305,2.265,2.856v2.241c0,1.872-1.034,3.226-4.776,3.226
			c-3.719,0-4.752-1.354-4.752-3.226v-1.157c0-0.098,0.049-0.147,0.146-0.147h0.1c0.098,0,0.146,0.049,0.146,0.147v1.157
			c0,1.625,0.911,2.856,4.359,2.856c3.447,0,4.383-1.23,4.383-2.856v-2.241c0-1.379-1.084-2.142-2.02-2.511l-4.925-1.896
			c-0.911-0.345-2.068-1.207-2.068-2.783v-1.256c0-1.871,0.911-3.225,4.654-3.225c3.718,0,4.629,1.354,4.629,3.225v1.305
			c0,0.099-0.049,0.147-0.147,0.147h-0.099c-0.099,0-0.147-0.049-0.147-0.147v-1.305
			C593.809,209.419,592.996,208.188,589.573,208.188z"/>
		<path fill="none" stroke="#FFFFFF" stroke-miterlimit="10" d="M599.152,210.133c0,0.099-0.049,0.148-0.147,0.148h-0.099
			c-0.098,0-0.148-0.049-0.148-0.148v-2.438c0-0.098,0.051-0.147,0.148-0.147h0.099c0.099,0,0.147,0.05,0.147,0.147V210.133z
			 M599.152,224.612c0,0.099-0.049,0.147-0.147,0.147h-0.099c-0.098,0-0.148-0.049-0.148-0.147v-11.771
			c0-0.098,0.051-0.147,0.148-0.147h0.099c0.099,0,0.147,0.049,0.147,0.147V224.612z"/>
		<path fill="none" stroke="#FFFFFF" stroke-miterlimit="10" d="M603.583,222.198v-6.943c0-1.601,1.01-2.758,3.3-2.758
			c2.166,0,3.717,0.985,4.433,1.576l0.049-1.231c0-0.098,0.049-0.147,0.146-0.147h0.051c0.098,0,0.146,0.049,0.146,0.147v14.356
			c0,1.6-0.836,2.757-4.014,2.757h-3.25c-0.098,0-0.147-0.049-0.147-0.147v-0.074c0-0.099,0.05-0.147,0.147-0.147h3.25
			c2.881,0,3.621-1.034,3.621-2.388v-3.792c-0.74,0.591-2.267,1.552-4.433,1.552C604.593,224.957,603.583,223.799,603.583,222.198z
			 M603.977,222.198c0,1.354,0.911,2.388,2.906,2.388c2.313,0,3.865-1.157,4.433-1.625v-8.446c-0.567-0.492-2.119-1.65-4.433-1.65
			c-1.995,0-2.906,1.035-2.906,2.389V222.198z"/>
		<path fill="none" stroke="#FFFFFF" stroke-miterlimit="10" d="M616.781,212.842l0.024,1.231c0.738-0.591,2.266-1.576,4.457-1.576
			c2.314,0,3.3,1.157,3.3,2.758v9.357c0,0.099-0.05,0.147-0.148,0.147h-0.098c-0.099,0-0.148-0.049-0.148-0.147v-9.357
			c0-1.354-0.886-2.389-2.905-2.389c-2.339,0-3.865,1.158-4.433,1.65v10.096c0,0.099-0.049,0.147-0.146,0.147h-0.1
			c-0.098,0-0.148-0.049-0.148-0.147v-11.771c0-0.098,0.051-0.147,0.148-0.147h0.049
			C616.733,212.694,616.781,212.743,616.781,212.842z"/>
		<path fill="none" stroke="#FFFFFF" stroke-miterlimit="10" d="M636.972,218.357c0,0.099-0.049,0.148-0.147,0.148h-7.584v3.693
			c0,1.354,0.787,2.388,3.668,2.388c2.882,0,3.67-1.034,3.67-2.388v-0.714c0-0.099,0.049-0.147,0.147-0.147h0.099
			c0.099,0,0.147,0.049,0.147,0.147v0.714c0,1.601-0.887,2.758-4.063,2.758c-3.176,0-4.062-1.158-4.062-2.758v-6.943
			c0-1.601,0.887-2.758,4.062-2.758c3.177,0,4.063,1.157,4.063,2.758V218.357z M629.24,218.135h7.338v-2.88
			c0-1.354-0.788-2.389-3.67-2.389c-2.881,0-3.668,1.035-3.668,2.389V218.135z"/>
		<path fill="none" stroke="#FFFFFF" stroke-miterlimit="10" d="M648.545,223.405c-0.715,0.566-2.267,1.552-4.433,1.552
			c-2.29,0-3.3-1.158-3.3-2.758v-6.943c0-1.601,1.01-2.758,3.3-2.758c2.166,0,3.693,0.985,4.433,1.576v-6.378
			c0-0.098,0.049-0.147,0.147-0.147h0.099c0.098,0,0.147,0.05,0.147,0.147v16.917c0,0.099-0.05,0.147-0.147,0.147h-0.05
			c-0.099,0-0.147-0.049-0.147-0.147L648.545,223.405z M641.207,222.198c0,1.354,0.911,2.388,2.905,2.388
			c2.314,0,3.866-1.157,4.433-1.625v-8.446c-0.566-0.492-2.118-1.65-4.433-1.65c-1.994,0-2.905,1.035-2.905,2.389V222.198z"/>
		<path fill="none" stroke="#FFFFFF" stroke-miterlimit="10" d="M653.913,224.612c0,0.099-0.05,0.147-0.148,0.147h-0.098
			c-0.1,0-0.148-0.049-0.148-0.147v-1.847c0-0.099,0.049-0.147,0.148-0.147h0.098c0.099,0,0.148,0.049,0.148,0.147V224.612z"/>
	</g>
</g>
</svg>
