<?xml version="1.0" encoding="utf-8"?>
<!-- Generator: Adobe Illustrator 15.1.0, SVG Export Plug-In . SVG Version: 6.00 Build 0)  -->
<!DOCTYPE svg PUBLIC "-//W3C//DTD SVG 1.1//EN" "http://www.w3.org/Graphics/SVG/1.1/DTD/svg11.dtd">
<svg version="1.1" id="Layer_1" xmlns="http://www.w3.org/2000/svg" xmlns:xlink="http://www.w3.org/1999/xlink" x="0px" y="0px"
	 width="166.405px" height="36.998px" viewBox="337.109 279.105 166.405 36.998"
	 enable-background="new 337.109 279.105 166.405 36.998" xml:space="preserve">
<g>
	<g>
		<path fill="#595758" d="M411.792,284.525c-3.423-3.507-7.994-5.411-12.859-5.411s-9.429,1.926-12.859,5.411
			c-3.423,3.486-5.312,8.162-5.312,13.083c0,4.942,1.883,9.577,5.312,13.084c3.424,3.507,7.994,5.411,12.859,5.411
			s9.429-1.925,12.859-5.411c3.423-3.507,5.312-8.162,5.312-13.084C417.098,292.667,415.236,288.033,411.792,284.525z
			 M411.75,310.671c-3.423,3.508-7.974,5.391-12.839,5.391c-4.864,0-9.414-1.925-12.838-5.391c-3.423-3.507-5.312-8.12-5.312-13.062
			c0-4.921,1.883-9.555,5.312-13.062c3.444-3.465,7.974-5.391,12.838-5.391c4.865,0,9.416,1.926,12.839,5.391
			c3.423,3.507,5.312,8.12,5.312,13.062C417.063,302.53,415.173,307.164,411.75,310.671z"/>
		<path fill="#595758" d="M410.252,286.087c-3.038-3.073-7.035-4.781-11.319-4.781s-8.302,1.708-11.319,4.781
			c-2.232,2.254-3.71,5.103-4.367,8.183c-0.203,0.245-0.371,0.512-0.512,0.777c-0.371,0.721-0.574,1.582-0.574,2.541
			c0,0.616,0.105,1.211,0.267,1.764c0.161,0.49,0.413,0.967,0.756,1.436c0.616,3.157,2.114,6.048,4.389,8.365
			c3.038,3.073,7.035,4.781,11.319,4.781s8.302-1.701,11.319-4.781c3.038-3.073,4.697-7.196,4.697-11.544
			C414.97,293.261,413.29,289.16,410.252,286.087z M410.112,309.012c-2.975,3.052-6.972,4.738-11.172,4.738
			c-4.241,0-8.204-1.68-11.172-4.738c-2.135-2.191-3.591-4.9-4.242-7.834c0.329,0.371,0.7,0.7,1.106,0.966
			c0.448,0.267,0.882,0.49,1.372,0.658c0.7,1.807,1.743,3.423,3.094,4.816c2.646,2.688,6.111,4.145,9.821,4.145
			s7.217-1.478,9.82-4.145c2.646-2.688,4.061-6.23,4.061-10.003c0-0.7-0.042-1.372-0.147-2.052l1.127-3.282h-1.987
			c-0.7-1.723-1.723-3.325-3.053-4.677c-2.646-2.688-6.11-4.144-9.82-4.144s-7.217,1.477-9.821,4.144
			c-1.351,1.372-2.422,3.018-3.094,4.781c-0.658,0.203-1.253,0.469-1.807,0.882c-0.245,0.161-0.469,0.393-0.657,0.616
			c0.657-2.891,2.093-5.516,4.199-7.672c2.976-3.073,6.951-4.76,11.172-4.76c4.222,0,8.204,1.68,11.173,4.738
			c2.975,3.053,4.634,7.099,4.634,11.383C414.767,301.914,413.122,305.96,410.112,309.012z M388.209,294.43
			c0.35,0.084,0.699,0.203,1.021,0.393c0.126,0.084,0.245,0.146,0.351,0.244c-0.225,0.819-0.329,1.639-0.329,2.521
			c0,0.861,0.104,1.68,0.329,2.478c-0.105,0.085-0.161,0.147-0.267,0.225c-0.329,0.245-0.7,0.392-1.085,0.469
			c-0.287-1.008-0.448-2.093-0.448-3.178C387.781,296.523,387.922,295.48,388.209,294.43z M398.933,305.302
			c3.934,0,7.196-3.094,7.504-7.014l0.819,2.358c-1.232,3.466-4.494,5.985-8.323,5.985c-3.402,0-6.335-1.967-7.812-4.815
			c0.35-0.287,0.657-0.638,0.966-1.009C393.235,303.432,395.881,305.302,398.933,305.302z M392.437,297.608
			c0-3.646,2.912-6.601,6.503-6.601c3.57,0,6.503,2.954,6.503,6.601c0,3.647-2.912,6.602-6.503,6.602
			C395.363,304.231,392.437,301.262,392.437,297.608z M404.386,292.302l0.021,0.084c-1.372-1.477-3.324-2.422-5.495-2.422
			c-3.037,0-5.655,1.848-6.846,4.494c-0.266-0.393-0.595-0.735-0.966-1.008c1.478-2.85,4.431-4.795,7.812-4.795
			c2.912,0,5.495,1.435,7.099,3.646H404.386L404.386,292.302L404.386,292.302z M390.302,296.012l1.477-0.84
			c-0.244,0.756-0.392,1.582-0.392,2.443c0,0.84,0.126,1.616,0.371,2.38l-1.456-0.819c-0.021,0.021-0.042,0.084-0.084,0.105
			c-0.105-0.532-0.147-1.106-0.147-1.681c0-0.595,0.042-1.147,0.161-1.701C390.281,295.97,390.302,295.992,390.302,296.012z
			 M390.428,302.263c1.617,3.073,4.816,5.167,8.491,5.167c3.836,0,7.153-2.297,8.715-5.622l0.371,1.064h0.776
			c-0.511,1.008-1.189,1.925-1.987,2.765c-2.114,2.136-4.9,3.325-7.875,3.325c-2.976,0-5.782-1.189-7.875-3.325
			c-0.819-0.84-1.478-1.764-2.009-2.786c0.224-0.042,0.447-0.126,0.657-0.224C389.931,302.53,390.176,302.411,390.428,302.263z
			 M408.593,297.588c-0.021-5.39-4.326-9.8-9.66-9.8c-3.668,0-6.867,2.093-8.491,5.166c-0.447-0.267-0.902-0.47-1.393-0.596
			c0.511-1.008,1.189-1.945,1.988-2.785c2.113-2.136,4.899-3.325,7.874-3.325c2.976,0,5.782,1.189,7.876,3.325
			c1.806,1.848,2.911,4.199,3.198,6.748l-0.776,2.296h-0.267L408.593,297.588z M388.398,302.985c0.574,1.127,1.31,2.19,2.212,3.094
			c2.212,2.254,5.188,3.528,8.323,3.528c3.157,0,6.111-1.253,8.323-3.528c0.945-0.966,1.68-2.009,2.232-3.199h0.658l2.191-6.398
			c0.021,0.371,0.042,0.735,0.042,1.106c0,3.668-1.394,7.112-3.935,9.702c-2.541,2.583-5.929,4.019-9.534,4.019
			c-3.591,0-6.992-1.436-9.533-4.019c-1.253-1.274-2.233-2.765-2.912-4.389c0.203,0.042,0.392,0.084,0.595,0.104
			c0.287,0.021,0.595,0.021,0.903,0C388.125,303.027,388.272,303.006,388.398,302.985z M410.455,295.067
			c-0.47-2.232-1.582-4.283-3.199-5.929c-2.212-2.254-5.188-3.528-8.323-3.528c-3.157,0-6.111,1.253-8.323,3.528
			c-0.902,0.903-1.638,1.967-2.19,3.073c-0.638-0.105-1.274-0.084-1.884,0.042c0.658-1.596,1.639-3.073,2.892-4.368
			c2.541-2.583,5.929-4.018,9.534-4.018c3.611,0,6.993,1.435,9.534,4.018c1.273,1.274,2.232,2.786,2.933,4.431L410.455,295.067z
			 M386.325,294.676c0.413-0.161,0.841-0.266,1.254-0.266c-0.267,1.021-0.448,2.113-0.448,3.22s0.146,2.191,0.448,3.262
			c-0.371,0-0.722-0.084-1.064-0.203c-0.329-0.126-0.616-0.328-0.861-0.531c-0.146-0.819-0.224-1.639-0.224-2.479
			c0-0.86,0.084-1.722,0.224-2.541C385.871,294.907,386.081,294.781,386.325,294.676z M385.136,299.541
			c-0.126-0.203-0.245-0.393-0.351-0.637c-0.16-0.413-0.266-0.841-0.286-1.31c0-0.721,0.202-1.372,0.595-1.946
			c0.021-0.021,0.021-0.042,0.042-0.084c-0.105,0.658-0.147,1.352-0.147,2.052C385.01,298.246,385.073,298.904,385.136,299.541z"/>
	</g>
	<path fill="#595758" d="M398.933,292.156c0.756,0,1.456,0.146,2.114,0.412c0.658,0.287,1.231,0.658,1.722,1.19
		c0.49,0.49,0.882,1.064,1.19,1.722c0.287,0.658,0.413,1.352,0.413,2.114c0,0.764-0.147,1.456-0.413,2.114
		c-0.287,0.658-0.658,1.232-1.19,1.722c-0.49,0.49-1.063,0.882-1.722,1.19c-0.658,0.308-1.352,0.413-2.114,0.413
		s-1.456-0.147-2.114-0.413c-0.658-0.287-1.231-0.658-1.722-1.19c-0.49-0.489-0.882-1.063-1.19-1.722
		c-0.286-0.658-0.412-1.351-0.412-2.114c0-0.763,0.146-1.456,0.412-2.114c0.287-0.657,0.658-1.231,1.19-1.722
		c0.49-0.49,1.063-0.882,1.722-1.19C397.455,292.302,398.177,292.156,398.933,292.156z M398.933,300.871
		c0.448,0,0.84-0.084,1.211-0.245s0.721-0.392,0.987-0.7c0.266-0.287,0.49-0.637,0.658-1.021c0.16-0.393,0.244-0.841,0.244-1.274
		s-0.084-0.861-0.244-1.253c-0.161-0.393-0.393-0.735-0.658-1.022c-0.267-0.287-0.616-0.511-0.987-0.699
		c-0.371-0.161-0.777-0.245-1.211-0.245c-0.448,0-0.84,0.084-1.211,0.245c-0.371,0.16-0.721,0.392-0.987,0.699
		c-0.266,0.287-0.49,0.638-0.658,1.022c-0.16,0.392-0.244,0.819-0.244,1.253s0.084,0.861,0.244,1.274
		c0.161,0.392,0.393,0.734,0.658,1.021c0.267,0.287,0.616,0.511,0.987,0.7C398.072,300.765,398.485,300.871,398.933,300.871z"/>
	<path fill="none" d="M410.112,286.233c-2.975-3.052-6.951-4.738-11.172-4.738c-4.241,0-8.204,1.68-11.172,4.738
		c-2.975,3.053-4.634,7.099-4.634,11.383c0,4.305,1.638,8.344,4.634,11.382c2.976,3.053,6.973,4.739,11.172,4.739
		c4.242,0,8.204-1.68,11.172-4.739c2.969-3.059,4.635-7.098,4.635-11.382C414.767,293.303,413.122,289.264,410.112,286.233z
		 M408.754,307.64c-2.646,2.688-6.111,4.144-9.821,4.144s-7.217-1.477-9.821-4.144c-2.646-2.688-4.06-6.23-4.06-10.004
		c0-3.794,1.456-7.343,4.06-10.003c2.646-2.688,6.111-4.145,9.821-4.145s7.217,1.478,9.821,4.145c2.646,2.688,4.06,6.23,4.06,10.003
		C412.835,301.403,411.379,304.952,408.754,307.64z"/>
	<path fill="none" d="M398.933,291.008c-3.57,0-6.503,2.954-6.503,6.601c0,3.647,2.912,6.602,6.503,6.602
		c3.57,0,6.503-2.954,6.503-6.602C405.436,293.962,402.503,291.008,398.933,291.008z M398.933,303.125
		c-2.975,0-5.411-2.464-5.411-5.517c0-3.052,2.443-5.516,5.411-5.516s5.411,2.464,5.411,5.516
		C404.344,300.661,401.907,303.125,398.933,303.125z"/>
	<path fill="none" d="M408.467,287.914c-2.541-2.583-5.929-4.019-9.534-4.019c-3.591,0-6.993,1.436-9.534,4.019
		s-3.934,6.026-3.934,9.702c0,3.675,1.393,7.111,3.934,9.702c2.541,2.583,5.93,4.018,9.534,4.018c3.612,0,6.993-1.435,9.534-4.018
		s3.934-6.027,3.934-9.702C412.429,293.94,411.008,290.497,408.467,287.914z M407.256,306.121c-2.212,2.254-5.188,3.528-8.323,3.528
		c-3.157,0-6.111-1.253-8.323-3.528c-2.212-2.254-3.443-5.271-3.443-8.47c0-3.199,1.231-6.217,3.443-8.471s5.188-3.528,8.323-3.528
		c3.157,0,6.111,1.253,8.323,3.528c2.212,2.254,3.443,5.271,3.443,8.471C410.721,300.807,409.496,303.845,407.256,306.121z"/>
	<path fill="none" d="M406.808,289.594c-2.114-2.135-4.9-3.325-7.875-3.325s-5.782,1.19-7.875,3.325
		c-2.114,2.135-3.283,5.005-3.283,8.036s1.148,5.887,3.283,8.036c2.114,2.135,4.9,3.325,7.875,3.325s5.782-1.19,7.875-3.325
		c2.114-2.135,3.283-5.005,3.283-8.036S408.922,291.728,406.808,289.594z M398.933,307.43c-5.312,0-9.66-4.411-9.66-9.822
		c0-5.41,4.326-9.82,9.66-9.82s9.66,4.41,9.66,9.82C408.593,303.027,404.246,307.43,398.933,307.43z"/>
	<path fill="none" d="M411.75,284.567c-3.423-3.507-7.974-5.39-12.839-5.39c-4.864,0-9.414,1.925-12.838,5.39
		c-3.423,3.508-5.312,8.12-5.312,13.062s1.883,9.556,5.312,13.062c3.431,3.507,7.974,5.39,12.838,5.39
		c4.865,0,9.416-1.925,12.839-5.39c3.423-3.507,5.312-8.12,5.312-13.062S415.173,288.053,411.75,284.567z M410.252,309.152
		c-3.038,3.073-7.035,4.781-11.319,4.781s-8.302-1.701-11.319-4.781c-3.038-3.073-4.696-7.196-4.696-11.544
		c0-4.367,1.68-8.448,4.696-11.543c3.038-3.072,7.035-4.78,11.319-4.78s8.302,1.7,11.319,4.78c3.038,3.073,4.697,7.196,4.697,11.543
		C414.97,301.976,413.29,306.079,410.252,309.152z"/>
	<path fill="none" d="M398.933,288.628c-4.879,0-8.82,4.039-8.82,8.98c0,4.942,3.955,8.981,8.82,8.981
		c4.879,0,8.82-4.039,8.82-8.981C407.753,292.667,403.812,288.628,398.933,288.628z M398.933,305.302
		c-4.165,0-7.546-3.444-7.546-7.672c0-4.242,3.381-7.672,7.546-7.672s7.546,3.443,7.546,7.672
		C406.479,301.857,403.098,305.302,398.933,305.302z"/>
	<path fill="#595758" d="M346.524,288.361c0,0.722,0,1.52,0,2.381c0,0.86,0,1.742,0,2.646s0,1.701,0,2.443c0,0.721,0,1.309,0,1.764
		s0,0.637,0,0.595v4.739h-2.136l-0.286-0.595c-0.245,0.146-0.532,0.266-0.883,0.371c-0.469,0.146-0.944,0.203-1.372,0.203
		c-0.469,0-0.966-0.084-1.393-0.203c-0.448-0.147-0.861-0.351-1.274-0.595c-0.392-0.267-0.734-0.596-1.021-0.967
		s-0.532-0.776-0.721-1.231c-0.084-0.225-0.147-0.413-0.203-0.596c-0.042-0.202-0.084-0.447-0.126-0.776v-11.852h2.442v11.648
		c0,0.329,0.084,0.658,0.245,0.987c0.161,0.35,0.393,0.615,0.7,0.84c0.392,0.329,0.84,0.469,1.351,0.469
		c0.329,0,0.596-0.042,0.861-0.203c0.266-0.126,0.511-0.287,0.721-0.511s0.371-0.469,0.49-0.756
		c0.126-0.287,0.203-0.595,0.225-0.903v-11.543h2.38C346.524,287.074,346.524,287.627,346.524,288.361z"/>
	<path fill="#595758" d="M356.814,302.901h-2.338c0-0.351,0-0.7,0-1.064c0-0.371,0-0.777,0-1.309c0-0.49,0-1.085,0-1.765
		c0-0.7,0-1.498,0-2.478c0-0.042,0-0.105,0-0.147s0-0.126-0.021-0.161c-0.084-0.224-0.126-0.413-0.203-0.595
		c-0.224-0.392-0.511-0.7-0.902-0.882c-0.203-0.084-0.393-0.126-0.616-0.161c-0.225-0.042-0.448-0.021-0.658,0
		c-0.469,0.104-0.861,0.329-1.19,0.658c-0.16,0.161-0.328,0.392-0.412,0.658c-0.127,0.266-0.161,0.531-0.161,0.818v6.398h-2.359
		v-10.563h2.338l0.469,0.329c0.126-0.042,0.245-0.126,0.393-0.161c0.126-0.042,0.266-0.104,0.392-0.126
		c0.413-0.146,0.861-0.203,1.352-0.161c0.489,0.042,0.966,0.126,1.372,0.287c0.392,0.147,0.776,0.393,1.147,0.722
		c0.351,0.329,0.637,0.699,0.882,1.085c0.161,0.287,0.287,0.615,0.393,0.966c0.104,0.35,0.146,0.7,0.146,1.063v6.644h-0.021V302.901
		L356.814,302.901z"/>
	<path fill="#595758" d="M368.322,286.681v16.22h-2.338v-0.021l-0.469-0.469c-0.084,0.021-0.147,0.084-0.203,0.104
		c-0.084,0.021-0.126,0.084-0.203,0.105c-0.616,0.266-1.309,0.448-2.072,0.469c-0.734,0-1.435-0.146-2.093-0.413
		c-0.7-0.266-1.253-0.7-1.764-1.211c-0.267-0.245-0.49-0.511-0.7-0.819c-0.203-0.286-0.371-0.615-0.49-0.944
		c-0.245-0.638-0.371-1.33-0.392-2.051c0-0.722,0.126-1.436,0.392-2.114c0.126-0.329,0.287-0.638,0.49-0.945
		c0.203-0.287,0.448-0.574,0.7-0.84c0.489-0.511,1.085-0.945,1.764-1.211c0.637-0.267,1.351-0.413,2.093-0.413
		c0.756,0.021,1.456,0.203,2.072,0.469c0.161,0.084,0.329,0.126,0.469,0.225c0.147,0.084,0.267,0.16,0.413,0.266v-6.419
		L368.322,286.681L368.322,286.681z M363.03,300.787c0.392,0.021,0.777-0.042,1.19-0.225c0.392-0.16,0.734-0.392,1.063-0.699
		c0.287-0.287,0.532-0.638,0.722-1.022c0.146-0.371,0.224-0.777,0.224-1.253s-0.084-0.882-0.224-1.253
		c-0.203-0.393-0.413-0.735-0.722-1.022c-0.329-0.287-0.658-0.511-1.063-0.657c-0.393-0.147-0.777-0.225-1.19-0.225
		c-0.224,0.021-0.413,0.042-0.616,0.084s-0.392,0.105-0.574,0.161c-0.37,0.161-0.721,0.413-0.986,0.721
		c-0.147,0.147-0.287,0.287-0.393,0.47c-0.104,0.16-0.202,0.37-0.266,0.531c-0.021,0.105-0.084,0.203-0.105,0.287
		c-0.021,0.105-0.042,0.203-0.084,0.287c-0.084,0.469-0.042,0.966,0.084,1.498s0.393,0.987,0.757,1.352
		c0.287,0.328,0.615,0.531,0.986,0.721C362.232,300.73,362.638,300.787,363.03,300.787z"/>
	<path fill="#595758" d="M372.157,302.901h-2.338v-10.619h2.338V302.901z"/>
	<path fill="#595758" d="M377.506,303.061c-0.532,0-1.064-0.104-1.52-0.266c-0.469-0.161-0.882-0.413-1.253-0.735
		c-0.35-0.329-0.637-0.699-0.84-1.105s-0.287-0.861-0.287-1.352h2.296c0,0.287,0.147,0.574,0.469,0.819
		c0.322,0.245,0.7,0.371,1.148,0.371s0.819-0.126,1.127-0.371c0.329-0.245,0.469-0.511,0.469-0.84c0-0.224-0.104-0.413-0.266-0.616
		s-0.448-0.35-0.735-0.413l-1.68-0.49c-0.721-0.224-1.274-0.595-1.722-1.105c-0.448-0.511-0.638-1.106-0.638-1.764
		c0-0.413,0.105-0.819,0.267-1.19s0.413-0.7,0.734-0.966c0.322-0.267,0.7-0.49,1.106-0.637c0.413-0.161,0.861-0.245,1.351-0.245
		c0.987,0,1.827,0.329,2.521,0.986l-1.596,1.681c-0.105-0.105-0.245-0.203-0.393-0.287c-0.161-0.084-0.329-0.126-0.49-0.126
		c-0.35,0-0.615,0.084-0.818,0.245c-0.203,0.16-0.329,0.35-0.329,0.573c0,0.147,0.042,0.267,0.203,0.413
		c0.126,0.147,0.287,0.245,0.511,0.287l1.68,0.49c0.819,0.224,1.456,0.637,1.946,1.232c0.49,0.595,0.735,1.253,0.735,1.987
		c0,0.47-0.105,0.945-0.287,1.352c-0.203,0.413-0.47,0.776-0.84,1.105c-0.351,0.329-0.757,0.574-1.232,0.735
		C378.57,302.985,378.037,303.061,377.506,303.061z"/>
	<path fill="#595758" d="M430.531,292.302c0.126,0.021,0.245,0.021,0.35,0.021c0.105,0,0.224,0.021,0.35,0.042l-0.637,2.177
		c-0.104-0.021-0.161-0.042-0.224-0.042c-0.245-0.021-0.469-0.021-0.637,0.021c-0.448,0.084-0.841,0.287-1.19,0.638
		c-0.084,0.104-0.147,0.203-0.224,0.266c-0.084,0.105-0.126,0.203-0.161,0.329c-0.021,0.084-0.084,0.224-0.126,0.413
		c-0.042,0.203-0.084,0.392-0.084,0.595v6.111h-2.338v-10.563h2.338l0.489,0.47c0.126-0.085,0.245-0.127,0.371-0.161
		c0.126-0.042,0.245-0.105,0.393-0.126c0.224-0.042,0.448-0.105,0.658-0.147C430.062,292.282,430.286,292.282,430.531,292.302z"/>
	<path fill="#595758" d="M441.255,298.043h-7.63l-0.224,0.203c0.021,0.104,0.042,0.224,0.084,0.329
		c0.021,0.104,0.042,0.203,0.104,0.329c0.126,0.329,0.287,0.615,0.532,0.902c0.245,0.267,0.511,0.49,0.819,0.658
		c0.35,0.203,0.657,0.329,0.986,0.371c0.105,0.021,0.203,0.021,0.267,0.021c0.104,0,0.203,0,0.266,0c0.084,0,0.161,0,0.245,0
		c0.104,0,0.161-0.021,0.245-0.021c0.35-0.084,0.7-0.203,0.987-0.392c0.146-0.105,0.286-0.203,0.412-0.329s0.245-0.245,0.371-0.393
		l1.765,1.562c-0.393,0.447-0.882,0.818-1.436,1.105c-0.371,0.225-0.776,0.393-1.211,0.49c-0.448,0.126-0.903,0.161-1.393,0.161
		c-0.596,0-1.19-0.105-1.765-0.267c-0.266-0.104-0.573-0.202-0.84-0.35c-0.532-0.287-1.021-0.658-1.456-1.105
		c-0.413-0.448-0.756-0.967-0.986-1.52c-0.225-0.574-0.371-1.127-0.448-1.743c-0.084-0.595-0.021-1.211,0.104-1.764
		c0.126-0.595,0.351-1.127,0.658-1.681c0.329-0.511,0.756-0.986,1.33-1.371c0.266-0.161,0.511-0.329,0.777-0.47
		c0.266-0.14,0.531-0.266,0.86-0.371c0.084-0.021,0.245-0.084,0.49-0.104c0.245-0.042,0.532-0.084,0.882-0.084
		c0.351-0.021,0.722,0,1.085,0.042c0.393,0.042,0.757,0.146,1.106,0.266c0.595,0.225,1.106,0.532,1.582,0.987
		s0.84,0.987,1.063,1.596c0.042,0.147,0.127,0.287,0.147,0.448c0.042,0.147,0.084,0.287,0.104,0.448
		c0.021,0.104,0.021,0.203,0.043,0.35c0.021,0.126,0.021,0.329,0.042,0.574L441.255,298.043L441.255,298.043z M435.368,294.452
		c-0.329,0.104-0.595,0.245-0.819,0.413c-0.224,0.168-0.448,0.392-0.637,0.657l0.104,0.267h4.739
		c-0.104-0.245-0.245-0.49-0.469-0.722c-0.126-0.126-0.287-0.244-0.49-0.37s-0.448-0.203-0.721-0.267
		c-0.267-0.084-0.532-0.126-0.84-0.126C435.943,294.333,435.676,294.368,435.368,294.452z"/>
	<path fill="#595758" d="M453.107,286.681v16.22h-2.338v-0.021l-0.47-0.469c-0.084,0.021-0.146,0.084-0.203,0.104
		c-0.084,0.021-0.126,0.084-0.202,0.105c-0.616,0.266-1.31,0.448-2.072,0.469c-0.735,0-1.436-0.146-2.093-0.413
		c-0.7-0.266-1.253-0.7-1.765-1.211c-0.266-0.245-0.489-0.511-0.7-0.819c-0.202-0.286-0.37-0.615-0.489-0.944
		c-0.245-0.638-0.371-1.33-0.393-2.051c0-0.722,0.126-1.436,0.393-2.114c0.126-0.329,0.287-0.638,0.489-0.945
		c0.203-0.287,0.448-0.574,0.7-0.84c0.49-0.511,1.085-0.945,1.765-1.211c0.637-0.267,1.351-0.413,2.093-0.413
		c0.756,0.021,1.456,0.203,2.072,0.469c0.161,0.084,0.329,0.126,0.469,0.225c0.146,0.084,0.266,0.16,0.413,0.266v-6.419
		L453.107,286.681L453.107,286.681z M447.835,300.787c0.393,0.021,0.777-0.042,1.19-0.225c0.413-0.182,0.734-0.392,1.063-0.699
		c0.287-0.287,0.532-0.638,0.722-1.022c0.146-0.371,0.224-0.777,0.224-1.253s-0.084-0.882-0.224-1.253
		c-0.203-0.393-0.413-0.735-0.722-1.022c-0.329-0.287-0.657-0.511-1.063-0.657c-0.393-0.147-0.777-0.225-1.19-0.225
		c-0.224,0.021-0.413,0.042-0.616,0.084c-0.202,0.042-0.392,0.105-0.573,0.161c-0.371,0.161-0.722,0.413-0.987,0.721
		c-0.147,0.147-0.287,0.287-0.392,0.47c-0.105,0.16-0.203,0.37-0.267,0.531c-0.021,0.105-0.084,0.203-0.104,0.287
		c-0.021,0.105-0.042,0.203-0.084,0.287c-0.084,0.469-0.042,0.966,0.084,1.498s0.392,0.987,0.756,1.352
		c0.287,0.328,0.616,0.531,0.986,0.721C447.017,300.73,447.429,300.787,447.835,300.787z"/>
	<path fill="#595758" d="M372.235,288.858L372.235,288.858c0-0.021-0.042-0.084-0.084-0.126s-0.104-0.126-0.146-0.16
		c-0.021-0.021-0.042-0.043-0.105-0.085c-0.287-0.286-0.7-0.657-0.756-0.818h-0.084h-0.105h-0.104h-0.084
		c-0.084,0.146-0.469,0.511-0.756,0.818c-0.021,0.021-0.084,0.042-0.105,0.085c-0.042,0.042-0.104,0.126-0.146,0.16
		c-0.042,0.042-0.084,0.084-0.084,0.126l0,0c-0.126,0.225-0.203,0.47-0.203,0.735c0,0.392,0.146,0.735,0.413,1.008
		c0.266,0.267,0.615,0.413,1.008,0.413c0.392,0,0.734-0.146,1.008-0.413c0.266-0.266,0.413-0.616,0.413-1.008
		C372.445,289.286,372.361,289.061,372.235,288.858z"/>
	<path fill="#595758" d="M424.301,298.043h-7.651l-0.224,0.203c0.021,0.104,0.042,0.224,0.084,0.329
		c0.021,0.104,0.042,0.203,0.105,0.329c0.126,0.329,0.286,0.615,0.531,0.902c0.245,0.267,0.512,0.49,0.819,0.658
		c0.35,0.203,0.658,0.329,0.987,0.371c0.104,0.021,0.203,0.021,0.266,0.021c0.105,0,0.203,0,0.266,0c0.084,0,0.161,0,0.245,0
		c0.105,0,0.161-0.021,0.245-0.021c0.351-0.084,0.7-0.203,0.987-0.392c0.146-0.105,0.287-0.203,0.413-0.329s0.245-0.245,0.371-0.393
		l1.764,1.562c-0.392,0.447-0.882,0.818-1.435,1.105c-0.371,0.225-0.777,0.393-1.211,0.49c-0.448,0.126-0.903,0.161-1.394,0.161
		c-0.595,0-1.189-0.105-1.764-0.267c-0.267-0.104-0.574-0.202-0.84-0.35c-0.532-0.287-1.022-0.658-1.456-1.105
		c-0.413-0.448-0.757-0.967-0.987-1.52c-0.224-0.553-0.371-1.127-0.448-1.743c-0.084-0.595-0.021-1.211,0.105-1.764
		c0.126-0.595,0.35-1.127,0.657-1.681c0.329-0.511,0.757-0.986,1.33-1.371c0.267-0.161,0.512-0.329,0.777-0.47
		c0.266-0.14,0.532-0.266,0.861-0.371c0.084-0.021,0.245-0.084,0.49-0.104c0.244-0.042,0.531-0.084,0.882-0.084
		c0.35-0.021,0.721,0,1.085,0.042c0.392,0.042,0.756,0.146,1.105,0.266c0.596,0.225,1.106,0.532,1.582,0.987
		c0.47,0.448,0.84,0.987,1.064,1.596c0.042,0.147,0.126,0.287,0.146,0.448c0.042,0.147,0.084,0.287,0.105,0.448
		c0.021,0.104,0.021,0.203,0.042,0.35c0.021,0.126,0.021,0.329,0.042,0.574L424.301,298.043L424.301,298.043z M418.414,294.452
		c-0.329,0.104-0.596,0.245-0.819,0.413c-0.224,0.16-0.448,0.392-0.637,0.657l0.104,0.267h4.719c-0.105-0.245-0.245-0.49-0.47-0.722
		c-0.126-0.126-0.287-0.244-0.489-0.37c-0.203-0.126-0.448-0.203-0.722-0.267c-0.266-0.084-0.532-0.126-0.84-0.126
		C418.967,294.333,418.68,294.368,418.414,294.452z"/>
	
		<linearGradient id="SVGID_1_" gradientUnits="userSpaceOnUse" x1="229.2375" y1="-7360.3125" x2="229.2375" y2="-7360.3125" gradientTransform="matrix(0.2463 0 0 -0.2463 359.9104 -1532.2478)">
		<stop  offset="0.153" style="stop-color:#FBC61C"/>
		<stop  offset="0.5562" style="stop-color:#7A600E"/>
		<stop  offset="0.8496" style="stop-color:#221B04"/>
		<stop  offset="0.9818" style="stop-color:#000000"/>
	</linearGradient>
	<path fill="url(#SVGID_1_)" d="M416.364,280.325"/>
	<g>
		
			<linearGradient id="SVGID_2_" gradientUnits="userSpaceOnUse" x1="791.5325" y1="-10091.1113" x2="774.7698" y2="-10141.7559" gradientTransform="matrix(0.1638 -0.1839 -0.1839 -0.1638 -1591.8442 -1224.5305)">
			<stop  offset="0.6915" style="stop-color:#FBC61C"/>
			<stop  offset="0.7091" style="stop-color:#E8B930"/>
			<stop  offset="0.7736" style="stop-color:#B1924F"/>
			<stop  offset="0.8351" style="stop-color:#887657"/>
			<stop  offset="0.892" style="stop-color:#6E6459"/>
			<stop  offset="0.9426" style="stop-color:#5E5A58"/>
			<stop  offset="0.9818" style="stop-color:#595758"/>
		</linearGradient>
		<path fill="url(#SVGID_2_)" d="M403.343,292.793l0.7-0.777c-2.892-2.729-7.238-2.688-10.045-0.146l0.657,0.776
			C397.092,290.455,400.9,290.433,403.343,292.793z"/>
		
			<linearGradient id="SVGID_3_" gradientUnits="userSpaceOnUse" x1="801.385" y1="-10091.6992" x2="785.6737" y2="-10139.2617" gradientTransform="matrix(0.1617 -0.1822 -0.1821 -0.1627 -1571.0894 -1217.5382)">
			<stop  offset="0.6915" style="stop-color:#FBC61C"/>
			<stop  offset="0.7091" style="stop-color:#E8B930"/>
			<stop  offset="0.7736" style="stop-color:#B1924F"/>
			<stop  offset="0.8351" style="stop-color:#887657"/>
			<stop  offset="0.892" style="stop-color:#6E6459"/>
			<stop  offset="0.9426" style="stop-color:#5E5A58"/>
			<stop  offset="0.9818" style="stop-color:#595758"/>
		</linearGradient>
		<path fill="url(#SVGID_3_)" d="M397.932,279.198c3.017-0.16,5.908,0.393,8.61,1.639c1.616,0.756,3.178,1.806,4.55,3.073
			l0.021-0.042c-3.646-3.305-8.036-4.984-13.188-4.739c-4.061,0.203-7.812,1.806-10.809,4.389l0.021,0.042
			C390.155,280.963,393.893,279.423,397.932,279.198z"/>
		
			<linearGradient id="SVGID_4_" gradientUnits="userSpaceOnUse" x1="795.1741" y1="-10090.6064" x2="778.8533" y2="-10139.916" gradientTransform="matrix(0.1638 -0.1839 -0.1839 -0.1638 -1591.8442 -1224.5305)">
			<stop  offset="0.6915" style="stop-color:#FBC61C"/>
			<stop  offset="0.7091" style="stop-color:#E8B930"/>
			<stop  offset="0.7736" style="stop-color:#B1924F"/>
			<stop  offset="0.8351" style="stop-color:#887657"/>
			<stop  offset="0.892" style="stop-color:#6E6459"/>
			<stop  offset="0.9426" style="stop-color:#5E5A58"/>
			<stop  offset="0.9818" style="stop-color:#595758"/>
		</linearGradient>
		<path fill="url(#SVGID_4_)" d="M404.883,291.008l0.574-0.616c-3.647-3.443-9.227-3.423-12.88-0.161l0.531,0.638
			C396.476,287.892,401.558,287.872,404.883,291.008z"/>
		
			<linearGradient id="SVGID_5_" gradientUnits="userSpaceOnUse" x1="807.1077" y1="-10087.0078" x2="791.424" y2="-10134.3916" gradientTransform="matrix(0.1638 -0.1839 -0.1839 -0.1638 -1591.8442 -1224.5305)">
			<stop  offset="0.6915" style="stop-color:#FBC61C"/>
			<stop  offset="0.7091" style="stop-color:#E8B930"/>
			<stop  offset="0.7736" style="stop-color:#B1924F"/>
			<stop  offset="0.8351" style="stop-color:#887657"/>
			<stop  offset="0.892" style="stop-color:#6E6459"/>
			<stop  offset="0.9426" style="stop-color:#5E5A58"/>
			<stop  offset="0.9818" style="stop-color:#595758"/>
		</linearGradient>
		<path fill="url(#SVGID_5_)" d="M398.114,281.537c4.242-0.225,8.184,1.211,11.425,4.144l0.16-0.126
			c-3.282-3.017-7.321-4.452-11.647-4.242c-3.626,0.161-6.951,1.582-9.597,3.913l0.146,0.147
			C391.323,283.091,394.523,281.697,398.114,281.537z"/>
		
			<linearGradient id="SVGID_6_" gradientUnits="userSpaceOnUse" x1="803.0452" y1="-10088.4697" x2="787.2382" y2="-10136.2256" gradientTransform="matrix(0.1638 -0.1839 -0.1839 -0.1638 -1591.8442 -1224.5305)">
			<stop  offset="0.6915" style="stop-color:#FBC61C"/>
			<stop  offset="0.7091" style="stop-color:#E8B930"/>
			<stop  offset="0.7736" style="stop-color:#B1924F"/>
			<stop  offset="0.8351" style="stop-color:#887657"/>
			<stop  offset="0.892" style="stop-color:#6E6459"/>
			<stop  offset="0.9426" style="stop-color:#5E5A58"/>
			<stop  offset="0.9818" style="stop-color:#595758"/>
		</linearGradient>
		<path fill="url(#SVGID_6_)" d="M398.317,283.895c3.647-0.146,6.951,1.106,9.682,3.549l0.287-0.286
			c-2.85-2.604-6.111-3.753-9.843-3.689c-3.156,0.042-6.293,1.435-8.609,3.444l0.266,0.329
			C392.556,285.121,395.363,284.014,398.317,283.895z"/>
		
			<linearGradient id="SVGID_7_" gradientUnits="userSpaceOnUse" x1="799.0159" y1="-10089.5938" x2="782.9532" y2="-10138.124" gradientTransform="matrix(0.1638 -0.1839 -0.1839 -0.1638 -1591.8442 -1224.5305)">
			<stop  offset="0.6915" style="stop-color:#FBC61C"/>
			<stop  offset="0.7091" style="stop-color:#E8B930"/>
			<stop  offset="0.7736" style="stop-color:#B1924F"/>
			<stop  offset="0.8351" style="stop-color:#887657"/>
			<stop  offset="0.892" style="stop-color:#6E6459"/>
			<stop  offset="0.9426" style="stop-color:#5E5A58"/>
			<stop  offset="0.9818" style="stop-color:#595758"/>
		</linearGradient>
		<path fill="url(#SVGID_7_)" d="M398.338,286.268c3.017-0.146,5.781,0.84,8.12,2.976l0.392-0.49
			c-2.52-2.254-5.411-3.283-8.589-3.136c-2.688,0.126-5.124,1.211-7.098,2.933l0.392,0.49
			C393.333,287.501,395.776,286.394,398.338,286.268z"/>
	</g>
</g>
<g>
	<g>
		<rect x="458.09" y="286.681" fill="#595758" width="0.49" height="22.617"/>
	</g>
	<g>
		<path fill="#595758" d="M419.415,306.366h-1.498c-0.084,0-0.147,0.084-0.147,0.146v2.73c0,0.084,0.084,0.147,0.147,0.147h0.021
			c0.084,0,0.147-0.084,0.147-0.147v-1.274h1.253c0.084,0,0.146-0.084,0.146-0.146c0-0.084-0.084-0.147-0.146-0.147h-1.253v-0.986
			h1.33c0.084,0,0.146-0.085,0.146-0.147C419.562,306.408,419.52,306.366,419.415,306.366z"/>
		<path fill="#595758" d="M420.507,307.108c-0.511,0-0.777,0.203-0.777,0.595v1.148c0,0.392,0.267,0.595,0.777,0.595
			s0.777-0.203,0.777-0.595v-1.148C421.284,307.29,421.018,307.108,420.507,307.108z M420.976,307.661v1.148
			c0,0.104,0,0.266-0.489,0.266c-0.49,0-0.49-0.161-0.49-0.266v-1.148c0-0.104,0-0.266,0.49-0.266
			C420.976,307.395,420.976,307.598,420.976,307.661z"/>
		<path fill="#595758" d="M423.174,307.122c-0.084,0-0.146,0.084-0.146,0.147v1.617c-0.105,0.084-0.287,0.202-0.596,0.202
			c-0.245,0-0.371-0.104-0.371-0.266v-1.561c0-0.085-0.084-0.147-0.161-0.147c-0.084,0-0.146,0.084-0.146,0.147v1.561
			c0,0.371,0.245,0.595,0.658,0.595c0.245,0,0.447-0.084,0.595-0.146c0.021,0.084,0.084,0.126,0.147,0.126
			c0.062,0,0.146-0.084,0.146-0.147v-1.945C423.335,307.185,423.251,307.122,423.174,307.122z"/>
		<path fill="#595758" d="M424.791,307.108c-0.245,0-0.469,0.084-0.616,0.146c0-0.084-0.084-0.126-0.146-0.126
			c-0.084,0-0.147,0.084-0.147,0.147v1.946c0,0.084,0.084,0.146,0.161,0.146c0.084,0,0.146-0.084,0.146-0.146v-1.597
			c0.126-0.104,0.329-0.203,0.616-0.203c0.245,0,0.371,0.105,0.371,0.267v1.561c0,0.084,0.084,0.147,0.147,0.147h0.021
			c0.084,0,0.147-0.084,0.147-0.147v-1.561C425.449,307.311,425.204,307.108,424.791,307.108z"/>
		<path fill="#595758" d="M427.353,306.282c-0.084,0-0.146,0.084-0.146,0.146v0.841c-0.147-0.084-0.371-0.147-0.616-0.147
			c-0.413,0-0.658,0.225-0.658,0.595v1.148c0,0.371,0.245,0.595,0.658,0.595c0.245,0,0.469-0.084,0.616-0.146
			c0,0.084,0.084,0.126,0.146,0.126c0.084,0,0.147-0.084,0.147-0.147v-2.807C427.521,306.324,427.458,306.282,427.353,306.282z
			 M426.247,307.661c0-0.224,0.203-0.266,0.371-0.266c0.287,0,0.489,0.126,0.616,0.203v1.273c-0.147,0.105-0.351,0.203-0.616,0.203
			c-0.161,0-0.371-0.042-0.371-0.266V307.661z"/>
		<path fill="#595758" d="M428.194,308.767c-0.084,0-0.147,0.084-0.147,0.146v0.287c0,0.084,0.084,0.147,0.147,0.147h0.021
			c0.084,0,0.147-0.084,0.147-0.147v-0.287C428.34,308.851,428.278,308.767,428.194,308.767z"/>
		<path fill="#595758" d="M431.455,309.075h-1.232v-2.562c0-0.084-0.084-0.146-0.161-0.146c-0.084,0-0.146,0.084-0.146,0.146v2.73
			c0,0.084,0.084,0.147,0.146,0.147h1.372c0.084,0,0.147-0.084,0.147-0.147C431.595,309.138,431.539,309.075,431.455,309.075z"/>
		<path fill="#595758" d="M432.624,307.108c-0.511,0-0.777,0.203-0.777,0.595v1.148c0,0.392,0.267,0.595,0.777,0.595
			s0.777-0.203,0.777-0.595v-1.148C433.422,307.29,433.156,307.108,432.624,307.108z M433.115,307.661v1.148
			c0,0.104,0,0.266-0.49,0.266s-0.49-0.161-0.49-0.266v-1.148c0-0.104,0-0.266,0.49-0.266S433.115,307.598,433.115,307.661z"/>
		<path fill="#595758" d="M435.102,307.122c-0.084,0-0.126,0.042-0.146,0.105l-0.511,1.519l-0.512-1.498
			c-0.021-0.084-0.084-0.126-0.161-0.126c-0.041,0-0.104,0.021-0.125,0.042l-0.043,0.084l0.7,1.988
			c0.021,0.042,0.042,0.104,0.105,0.104l0.084,0.225l0.042-0.245c0.042-0.021,0.084-0.042,0.084-0.105l0.658-1.945l0.021-0.084
			l-0.021-0.042C435.207,307.143,435.186,307.122,435.102,307.122z"/>
		<path fill="#595758" d="M436.23,307.108c-0.512,0-0.777,0.203-0.777,0.595v1.148c0,0.392,0.266,0.595,0.777,0.595
			c0.511,0,0.776-0.203,0.776-0.595v-0.126c0-0.084-0.084-0.147-0.161-0.147c-0.084,0-0.146,0.084-0.146,0.147v0.126
			c0,0.104,0,0.266-0.49,0.266s-0.49-0.161-0.49-0.266v-0.49h1.127c0.084,0,0.147-0.084,0.147-0.147v-0.511
			C437.034,307.29,436.747,307.108,436.23,307.108z M435.74,308.025v-0.351c0-0.104,0-0.266,0.49-0.266
			c0.489,0,0.489,0.161,0.489,0.266v0.351H435.74z"/>
		<path fill="#595758" d="M438.855,306.282c-0.084,0-0.147,0.084-0.147,0.146v0.841c-0.146-0.084-0.371-0.147-0.616-0.147
			c-0.413,0-0.658,0.225-0.658,0.595v1.148c0,0.371,0.245,0.595,0.658,0.595c0.245,0,0.47-0.084,0.616-0.146
			c0,0.084,0.084,0.126,0.147,0.126c0.062,0,0.146-0.084,0.146-0.147v-2.807C439.023,306.324,438.939,306.282,438.855,306.282z
			 M437.748,307.661c0-0.224,0.203-0.266,0.371-0.266c0.287,0,0.49,0.126,0.616,0.203v1.273c-0.147,0.105-0.351,0.203-0.616,0.203
			c-0.161,0-0.371-0.042-0.371-0.266V307.661z"/>
		<path fill="#595758" d="M439.68,308.767c-0.084,0-0.146,0.084-0.146,0.146v0.287c0,0.084,0.084,0.147,0.146,0.147h0.021
			c0.084,0,0.146-0.084,0.146-0.147v-0.287C439.841,308.851,439.779,308.767,439.68,308.767z"/>
		<path fill="#595758" d="M442.711,307.78l-0.818-0.329c-0.084-0.021-0.225-0.105-0.225-0.287v-0.203c0-0.126,0-0.35,0.595-0.35
			c0.596,0,0.596,0.224,0.596,0.35v0.225c0,0.084,0.084,0.146,0.161,0.146c0.084,0,0.146-0.084,0.146-0.146v-0.225
			c0-0.448-0.287-0.658-0.882-0.658s-0.882,0.225-0.882,0.658v0.203c0,0.393,0.329,0.532,0.413,0.574l0.818,0.329
			c0.126,0.042,0.245,0.146,0.245,0.287v0.371c0,0.126,0,0.35-0.616,0.35c-0.595,0-0.595-0.224-0.595-0.35v-0.203
			c0-0.084-0.084-0.147-0.161-0.147c-0.084,0-0.146,0.084-0.146,0.147v0.203c0,0.447,0.287,0.657,0.902,0.657
			c0.616,0,0.903-0.224,0.903-0.657v-0.371C443.166,308.109,442.978,307.906,442.711,307.78z"/>
		<path fill="#595758" d="M443.796,306.282c-0.084,0-0.146,0.084-0.146,0.146v0.393c0,0.084,0.084,0.146,0.146,0.146h0.021
			c0.084,0,0.146-0.084,0.146-0.146v-0.393C443.964,306.324,443.902,306.282,443.796,306.282z"/>
		<path fill="#595758" d="M443.796,307.122c-0.084,0-0.146,0.084-0.146,0.147v1.945c0,0.084,0.084,0.147,0.146,0.147h0.021
			c0.084,0,0.146-0.084,0.146-0.147v-1.945C443.964,307.185,443.902,307.122,443.796,307.122z"/>
		<path fill="#595758" d="M445.889,307.122c-0.084,0-0.146,0.042-0.146,0.126c-0.147-0.084-0.371-0.146-0.616-0.146
			c-0.413,0-0.658,0.224-0.658,0.595v1.147c0,0.371,0.245,0.596,0.658,0.596c0.245,0,0.469-0.084,0.616-0.147v0.393
			c0,0.104,0,0.266-0.469,0.266h-0.574c-0.084,0-0.147,0.084-0.147,0.147c0,0.084,0.084,0.146,0.147,0.146h0.532
			c0.531,0,0.776-0.203,0.776-0.595v-2.38C446.036,307.185,445.994,307.122,445.889,307.122z M444.762,307.661
			c0-0.224,0.203-0.266,0.371-0.266c0.287,0,0.49,0.126,0.616,0.203v1.273c-0.146,0.105-0.35,0.203-0.616,0.203
			c-0.161,0-0.371-0.042-0.371-0.266V307.661z"/>
		<path fill="#595758" d="M447.513,307.108c-0.244,0-0.469,0.084-0.615,0.146c0-0.084-0.084-0.126-0.147-0.126
			c-0.062,0-0.146,0.084-0.146,0.147v1.946c0,0.084,0.084,0.146,0.16,0.146c0.084,0,0.147-0.084,0.147-0.146v-1.597
			c0.126-0.104,0.329-0.203,0.616-0.203c0.245,0,0.371,0.105,0.371,0.267v1.561c0,0.084,0.084,0.147,0.146,0.147h0.021
			c0.084,0,0.146-0.084,0.146-0.147v-1.561C448.186,307.311,447.941,307.108,447.513,307.108z"/>
		<path fill="#595758" d="M449.439,307.108c-0.512,0-0.777,0.203-0.777,0.595v1.148c0,0.392,0.266,0.595,0.777,0.595
			c0.511,0,0.776-0.203,0.776-0.595v-0.126c0-0.084-0.084-0.147-0.16-0.147c-0.085,0-0.147,0.084-0.147,0.147v0.126
			c0,0.104,0,0.266-0.49,0.266s-0.49-0.161-0.49-0.266v-0.49h1.128c0.084,0,0.146-0.084,0.146-0.147v-0.511
			C450.215,307.29,449.97,307.108,449.439,307.108z M448.948,308.025v-0.351c0-0.104,0-0.266,0.49-0.266
			c0.489,0,0.489,0.161,0.489,0.266v0.351H448.948z"/>
		<path fill="#595758" d="M452.042,306.282c-0.084,0-0.146,0.084-0.146,0.146v0.841c-0.147-0.084-0.371-0.147-0.616-0.147
			c-0.413,0-0.658,0.225-0.658,0.595v1.148c0,0.371,0.245,0.595,0.658,0.595c0.245,0,0.469-0.084,0.616-0.146
			c0,0.084,0.084,0.126,0.146,0.126c0.084,0,0.147-0.084,0.147-0.147v-2.807C452.225,306.324,452.148,306.282,452.042,306.282z
			 M450.937,307.661c0-0.224,0.203-0.266,0.371-0.266c0.286,0,0.489,0.126,0.615,0.203v1.273c-0.146,0.105-0.35,0.203-0.615,0.203
			c-0.161,0-0.371-0.042-0.371-0.266V307.661z"/>
		<path fill="#595758" d="M452.882,308.767c-0.084,0-0.146,0.084-0.146,0.146v0.287c0,0.084,0.084,0.147,0.146,0.147h0.021
			c0.084,0,0.146-0.084,0.146-0.147v-0.287C453.03,308.851,452.988,308.767,452.882,308.767z"/>
	</g>
</g>
<g>
	<path fill="#595758" d="M470.586,294.788h1.085v1.819h-1.464l-0.244,1.288h1.708v1.842h-2.087l-0.566,2.771l-1.862-0.378
		l0.497-2.394h-1.82l-0.588,2.884l-1.861-0.378l0.511-2.506h-1.1v-1.842h1.464l0.266-1.288h-1.729v-1.819h2.107l0.553-2.772
		l1.862,0.378l-0.476,2.395h1.819l0.588-2.905l1.862,0.378L470.586,294.788z M468.269,296.607h-1.82l-0.266,1.288h1.841
		L468.269,296.607z"/>
	<path fill="#595758" d="M478.258,303.16c-3.473,0-5.621-2.64-5.621-6.763c0-4.137,2.148-6.775,5.621-6.775
		c3.472,0,5.621,2.639,5.621,6.775C483.879,300.52,481.73,303.16,478.258,303.16z M481.905,296.397c0-2.751-1.099-4.935-3.646-4.935
		c-2.549,0-3.647,2.184-3.647,4.935s1.099,4.936,3.647,4.936C480.806,301.333,481.905,299.156,481.905,296.397z"/>
	<path fill="#595758" d="M490.41,303.16c-3.473,0-5.621-2.64-5.621-6.763c0-4.137,2.148-6.775,5.621-6.775
		c3.472,0,5.621,2.639,5.621,6.775C496.031,300.52,493.882,303.16,490.41,303.16z M494.057,296.397c0-2.751-1.099-4.935-3.646-4.935
		c-2.549,0-3.647,2.184-3.647,4.935s1.099,4.936,3.647,4.936C492.958,301.333,494.057,299.156,494.057,296.397z"/>
	<path fill="#595758" d="M503.514,289.755v1.862l-4.802,11.563l-1.785-0.742l4.389-10.535l-0.286-0.286h-4.047v-1.862H503.514z"/>
</g>
</svg>
