<?xml version="1.0" encoding="utf-8"?>
<!-- Generator: Adobe Illustrator 15.1.0, SVG Export Plug-In . SVG Version: 6.00 Build 0)  -->
<!DOCTYPE svg PUBLIC "-//W3C//DTD SVG 1.1//EN" "http://www.w3.org/Graphics/SVG/1.1/DTD/svg11.dtd">
<svg version="1.1" id="Layer_1" xmlns="http://www.w3.org/2000/svg" xmlns:xlink="http://www.w3.org/1999/xlink" x="0px" y="0px"
	 width="700px" height="223.227px" viewBox="8.9 115.108 700 223.227" enable-background="new 8.9 115.108 700 223.227"
	 xml:space="preserve">
<g>
	<g>
		<g>
			<path fill="#FFFFFF" d="M369.361,257.129c3.901,1.773,8.155,2.659,12.766,2.659c4.433,0,8.865-0.886,12.766-2.659
				c3.901-1.597,7.447-4.077,10.461-7.092c3.014-3.015,5.319-6.561,7.092-10.461s2.659-8.155,2.659-12.766
				c0-4.433-0.886-8.865-2.659-12.766s-4.078-7.447-7.092-10.461c-3.015-3.015-6.561-5.319-10.461-7.092
				c-3.901-1.773-8.157-2.659-12.766-2.659c-4.611,0-8.865,0.886-12.766,2.659s-7.447,4.077-10.461,7.092s-5.319,6.561-7.092,10.461
				s-2.66,8.333-2.66,12.766c0,4.432,0.887,8.865,2.66,12.766c1.594,3.901,4.077,7.447,7.092,10.461S365.46,255.356,369.361,257.129
				z M364.75,219.363c1.065-2.483,2.307-4.432,3.901-6.205c1.596-1.773,3.546-3.191,5.85-4.256c2.307-1.062,4.788-1.594,7.447-1.594
				c2.66,0,5.143,0.532,7.447,1.594c2.307,1.065,4.256,2.483,5.853,4.256c1.594,1.949,3.015,3.901,3.901,6.205
				c1.063,2.305,1.418,4.788,1.418,7.624c0,2.838-0.355,5.321-1.418,7.625c-1.065,2.48-2.307,4.433-3.901,6.206
				c-1.597,1.773-3.546,3.19-5.853,4.256c-2.304,1.063-4.787,1.594-7.447,1.594c-2.659,0-5.14-0.531-7.447-1.594
				c-2.304-1.065-4.254-2.483-5.85-4.256c-1.594-1.773-3.015-3.901-3.901-6.206c-1.062-2.483-1.417-4.966-1.417-7.625
				C363.332,224.326,363.864,221.667,364.75,219.363z"/>
			<path fill="#FFFFFF" d="M51.63,230.887c-0.177,1.952-0.708,3.725-1.418,5.498c-0.71,1.594-1.773,3.191-3.015,4.433
				c-1.242,1.241-2.66,2.304-4.253,3.014c-1.597,0.708-3.37,1.063-5.321,1.063c-3.012,0-5.674-0.887-8.155-2.836
				c-1.773-1.241-3.191-3.014-4.256-5.143c-1.062-2.128-1.594-4.077-1.594-6.029v-70.213H8.9v71.278
				c0.176,1.95,0.355,3.546,0.71,4.788c0.177,1.063,0.708,2.305,1.063,3.546c1.063,2.836,2.483,5.14,4.256,7.447
				c1.773,2.304,3.901,4.253,6.206,5.85c2.483,1.597,4.964,2.836,7.623,3.546c2.838,0.71,5.674,1.242,8.512,1.242
				c2.836,0,5.674-0.355,8.333-1.242c1.949-0.71,3.722-1.242,5.319-2.128l1.949,3.546h12.945V230l0,0c0-0.176,0-1.417,0-3.546
				c0-2.835,0-6.205,0-10.638c0-4.256,0-9.22,0-14.539s0-10.816,0-15.957c0-5.321,0-9.93,0-14.363c0-4.432,0-7.802,0.176-10.106
				H51.453v70.034H51.63z"/>
			<path fill="#FFFFFF" d="M124.857,206.773c-1.242-2.48-3.191-4.609-5.319-6.561c-2.305-1.949-4.611-3.367-7.092-4.253
				c-2.483-1.065-5.319-1.597-8.333-1.952c-3.015-0.176-5.674,0.179-8.157,1.065c-0.708,0.176-1.594,0.355-2.48,0.708
				c-0.71,0.355-1.597,0.71-2.307,1.065l-2.835-1.952H74.325v64.008h14.007v-38.652c0-1.597,0.355-3.191,1.062-4.788
				c0.71-1.594,1.597-3.015,2.66-4.077c1.952-2.128,4.432-3.546,7.092-4.078c1.242-0.355,2.662-0.355,3.901-0.179
				c1.42,0.355,2.66,0.71,3.725,1.065c2.483,1.062,4.256,2.835,5.495,5.319c0.355,1.063,0.887,2.128,1.242,3.546
				c0.179,0.355,0.179,0.708,0.179,1.063c0,0.355,0,0.531,0,0.886c0,5.853,0,10.816,0,14.894c0,4.077,0,7.625,0,10.638
				c0,3.014,0,5.674,0,7.802s0,4.256,0,6.384h14.005v-40.073c0-2.125-0.353-4.254-0.886-6.382
				C126.806,210.319,125.92,208.546,124.857,206.773z"/>
			<path fill="#FFFFFF" d="M183.722,199.681c-0.886-0.531-1.597-1.063-2.483-1.594c-0.708-0.534-1.773-1.065-2.836-1.242
				c-3.725-1.597-7.802-2.483-12.411-2.838c-4.432,0-8.512,0.886-12.589,2.483c-4.256,1.597-7.623,4.077-10.638,7.271
				c-1.597,1.594-3.015,3.367-4.256,5.14c-1.241,1.773-2.128,3.546-3.014,5.674c-1.594,4.256-2.305,8.512-2.305,12.766
				c0,4.256,0.71,8.333,2.305,12.234c0.71,1.952,1.773,3.725,3.014,5.674c1.065,1.773,2.483,3.37,4.078,4.964
				c3.014,3.193,6.561,5.674,10.64,7.271c3.901,1.597,7.978,2.483,12.587,2.483c4.433-0.179,8.688-1.065,12.413-2.838
				c0.353-0.176,0.887-0.355,1.239-0.531c0.355-0.179,0.71-0.355,1.242-0.532l2.838,2.836v0.179h14.007v-97.873h-13.831V199.681z
				 M183.367,234.433c-1.062,2.483-2.48,4.432-4.253,6.208c-1.952,1.773-3.901,3.012-6.384,4.078
				c-2.304,1.062-4.788,1.418-7.092,1.242c-2.483,0-4.788-0.534-7.271-1.597c-2.304-1.063-4.254-2.483-6.027-4.256
				c-2.128-2.128-3.725-4.788-4.432-8.155c-0.71-3.369-0.887-6.384-0.355-9.043c0.176-0.531,0.176-1.062,0.355-1.773
				c0.176-0.708,0.353-1.241,0.531-1.773c0.355-1.062,1.063-2.128,1.594-3.37c0.534-1.239,1.597-1.949,2.483-2.835
				c1.773-1.949,3.901-3.37,6.029-4.256c1.063-0.531,2.128-0.886,3.367-1.062c1.242-0.179,2.483-0.355,3.725-0.355
				c2.483,0,4.788,0.532,7.092,1.418c2.483,1.065,4.433,2.305,6.384,4.08c1.773,1.773,3.191,3.898,4.253,6.205
				c1.065,2.305,1.42,4.788,1.42,7.624C184.785,229.824,184.254,232.307,183.367,234.433z"/>
			<rect x="206.594" y="194.894" fill="#FFFFFF" width="14.007" height="64.008"/>
			<path fill="#FFFFFF" d="M574.679,195.073c-0.71-0.179-1.241-0.179-2.128-0.179c-1.241-0.176-2.836-0.176-4.254,0
				c-1.42,0.179-2.838,0.534-4.08,0.887c-0.886,0.179-1.594,0.355-2.48,0.71c-0.71,0.355-1.42,0.71-2.128,1.063l-3.015-2.836
				h-14.007v64.008h14.007v-36.879c0-1.242,0.177-2.483,0.355-3.546c0.353-1.242,0.531-2.128,0.708-2.483
				c0.354-0.71,0.71-1.418,1.064-1.949c0.355-0.534,0.887-1.065,1.242-1.597c2.125-2.128,4.432-3.546,7.092-3.901
				c1.241-0.176,2.48-0.355,3.9-0.176c0.354,0,0.887,0.176,1.418,0.353l3.901-12.942
				C576.097,195.249,575.389,195.073,574.679,195.073z"/>
			<path fill="#FFFFFF" d="M636.735,217.235c-0.176-1.063-0.353-1.949-0.707-2.836c-0.179-0.886-0.532-1.952-0.887-2.838
				c-1.242-3.722-3.546-6.913-6.384-9.751c-2.836-2.835-5.851-4.788-9.396-6.029c-2.128-0.708-4.433-1.239-6.739-1.594
				c-2.305-0.355-4.433-0.355-6.558-0.355c-1.952,0-3.726,0.176-5.322,0.355c-1.594,0.176-2.48,0.355-3.012,0.708
				c-1.951,0.534-3.548,1.242-5.143,2.128c-1.597,0.887-3.19,1.952-4.787,2.838c-3.37,2.304-5.851,5.14-7.979,8.333
				c-1.952,3.191-3.37,6.561-4.08,10.106c-0.707,3.546-0.887,7.092-0.531,10.814c0.355,3.546,1.241,7.092,2.659,10.461
				c1.421,3.37,3.37,6.561,5.854,9.22c2.48,2.838,5.318,4.964,8.686,6.737c1.597,0.887,3.37,1.597,5.143,2.128
				c3.546,1.065,7.271,1.597,10.816,1.597c3.015,0,5.851-0.355,8.51-1.062c2.659-0.71,5.143-1.597,7.447-3.015
				c3.369-1.952,6.205-4.08,8.688-6.739l-10.638-9.396c-0.711,0.886-1.421,1.596-2.128,2.483c-0.711,0.708-1.597,1.418-2.483,1.949
				c-1.949,1.242-3.901,1.949-6.029,2.483c-0.353,0.176-1.062,0.176-1.594,0.176c-0.532,0.176-1.065,0.176-1.597,0.176
				s-1.063-0.176-1.595-0.176c-0.533-0.176-1.065-0.176-1.597-0.176c-1.949-0.179-3.725-1.065-5.85-2.128
				c-1.952-1.065-3.546-2.483-4.967-4.077c-1.418-1.775-2.48-3.548-3.367-5.498c-0.354-0.71-0.533-1.242-0.71-1.949
				c-0.177-0.534-0.177-1.242-0.355-1.952l1.418-1.242h45.923v-6.737c-0.176-1.418-0.176-2.66-0.354-3.37
				C636.913,218.476,636.913,217.945,636.735,217.235z M593.65,216.172l-0.531-1.596c1.242-1.594,2.483-2.836,3.901-3.901
				c1.241-1.062,3.015-1.949,4.787-2.659c1.773-0.532,3.37-0.708,5.143-0.708c1.773,0.176,3.546,0.353,5.141,0.708
				c1.597,0.355,3.015,1.065,4.256,1.597c1.241,0.708,2.128,1.417,3.015,2.128c1.241,1.242,2.128,2.836,2.836,4.253H593.65V216.172z
				"/>
			<path fill="#FFFFFF" d="M695.069,161.029v38.652c-0.887-0.531-1.594-1.063-2.48-1.594c-0.71-0.534-1.775-1.065-2.839-1.242
				c-3.722-1.597-7.802-2.483-12.41-2.838c-4.433,0-8.512,0.886-12.59,2.483c-4.256,1.597-7.623,4.077-10.638,7.271
				c-1.597,1.594-3.015,3.367-4.256,5.14s-2.128,3.546-3.015,5.674c-1.594,4.256-2.305,8.512-2.305,12.766
				c0,4.256,0.711,8.333,2.305,12.234c0.71,1.952,1.773,3.725,3.015,5.674c1.065,1.773,2.483,3.37,4.077,4.964
				c3.015,3.193,6.561,5.674,10.641,7.271c3.9,1.597,7.979,2.483,12.587,2.483c4.435-0.179,8.688-1.065,12.413-2.838
				c0.353-0.176,0.887-0.355,1.239-0.531c0.354-0.179,0.71-0.355,1.241-0.532l2.838,2.836v0.179H708.9v-97.873
				C708.9,161.029,695.069,161.029,695.069,161.029z M694.892,234.433c-1.064,2.483-2.482,4.432-4.256,6.208
				c-1.949,1.773-3.9,3.012-6.382,4.078c-2.307,1.062-4.787,1.418-7.094,1.242c-2.48,0-4.788-0.534-7.269-1.597
				c-2.304-1.063-4.256-2.483-6.028-4.256c-2.129-2.128-3.723-4.788-4.433-8.155c-0.71-3.369-0.887-6.384-0.355-9.043
				c0.179-0.531,0.179-1.062,0.355-1.773c0.176-0.708,0.354-1.241,0.531-1.773c0.355-1.062,1.065-2.128,1.597-3.37
				c0.71-1.062,1.597-1.949,2.483-2.835c1.772-1.949,3.898-3.37,6.026-4.256c1.065-0.531,2.128-0.886,3.369-1.062
				c1.242-0.179,2.483-0.355,3.723-0.355c2.483,0,4.787,0.532,7.094,1.418c2.481,1.065,4.433,2.305,6.382,4.08
				c1.773,1.773,3.191,3.898,4.256,6.205c1.063,2.305,1.418,4.788,1.418,7.624C696.31,229.824,695.779,232.307,694.892,234.433z"/>
			<path fill="#FFFFFF" d="M220.778,173.442c-0.176-0.355-0.532-0.71-0.887-1.065c-0.176-0.176-0.353-0.355-0.531-0.531
				c-1.773-1.773-4.077-3.901-4.433-4.964h-0.355h-0.886h-0.708h-0.355c-0.355,1.063-2.838,3.191-4.433,4.964
				c-0.179,0.176-0.355,0.355-0.531,0.531c-0.355,0.355-0.71,0.71-0.886,1.065c-0.179,0.176-0.355,0.531-0.355,0.708
				c-0.71,1.242-1.241,2.838-1.241,4.433c0,2.483,0.886,4.432,2.483,6.205c1.594,1.597,3.722,2.483,6.206,2.483
				c2.48,0,4.432-0.887,6.205-2.483c1.594-1.594,2.481-3.722,2.481-6.205c-0.176-1.594-0.532-3.191-1.239-4.433
				C220.957,173.973,220.957,173.618,220.778,173.442z"/>
			<path fill="#FFFFFF" d="M534.43,217.235c-0.177-1.063-0.353-1.949-0.708-2.836c-0.354-0.886-0.531-1.952-0.887-2.838
				c-1.241-3.722-3.546-6.913-6.384-9.751c-2.836-2.835-5.851-4.788-9.396-6.029c-2.128-0.708-4.432-1.239-6.736-1.594
				c-2.307-0.355-4.435-0.355-6.561-0.355c-1.951,0-3.725,0.176-5.321,0.355c-1.594,0.176-2.48,0.355-3.012,0.708
				c-1.952,0.534-3.546,1.242-5.143,2.128c-0.71,0.355-1.242,0.71-1.952,1.242c-4.785-18.971-14.538-36.348-28.546-50.532
				c-20.744-20.923-48.225-32.624-77.481-32.624c-29.253,0-56.913,11.701-77.481,32.624c-20.744,21.099-32.092,49.114-32.092,78.901
				c0,0.177,0,0.353,0,0.708c-0.179-0.176-0.355-0.355-0.531-0.708c-3.015-3.546-6.739-5.853-11.703-7.447l-10.106-3.015
				c-1.242-0.355-2.305-1.065-3.015-1.952c-0.71-0.886-1.063-1.594-1.063-2.48c0-1.242,0.708-2.483,1.949-3.37
				c1.242-1.063,2.836-1.418,4.964-1.418c1.065,0,1.952,0.176,3.015,0.708c1.065,0.534,1.773,1.065,2.483,1.773l9.751-10.106
				c-4.077-3.898-9.043-5.851-15.07-5.851c-3.014,0-5.674,0.355-8.157,1.418c-2.483,0.887-4.788,2.128-6.561,3.901
				c-1.949,1.597-3.367,3.546-4.433,5.853c-1.062,2.304-1.596,4.608-1.596,7.092c0,4.077,1.241,7.623,3.901,10.814
				c2.659,3.193,6.029,5.319,10.285,6.739l10.106,3.015c1.95,0.353,3.367,1.239,4.433,2.48c1.063,1.242,1.597,2.483,1.597,3.725
				c0,1.949-1.065,3.546-2.838,5.14c-1.949,1.42-4.256,2.128-6.737,2.128c-2.838,0-5.143-0.708-6.916-2.128
				c-1.773-1.418-2.835-3.012-2.835-4.964h-13.831c0,3.015,0.71,5.674,1.949,8.157c1.242,2.48,2.838,4.788,5.143,6.561
				c2.128,1.949,4.788,3.367,7.625,4.432c2.836,1.063,5.851,1.594,9.22,1.594c3.19,0,6.205-0.531,9.041-1.773
				c2.838-1.062,5.319-2.659,7.447-4.432s3.725-3.901,4.788-6.206c3.901,22.165,14.362,42.377,30.319,58.688
				c20.744,21.1,48.228,32.624,77.481,32.624c29.256,0,56.916-11.703,77.484-32.624c14.007-14.362,23.935-31.915,28.722-51.242
				c0.711,0.355,1.242,0.71,1.952,1.063c1.594,0.887,3.367,1.597,5.14,2.128c3.546,1.065,7.271,1.597,10.816,1.597
				c3.015,0,5.851-0.355,8.51-1.062c2.66-0.71,5.143-1.597,7.447-3.015c3.37-1.952,6.205-4.08,8.688-6.739l-10.638-9.396
				c-0.71,0.886-1.42,1.596-2.128,2.483c-0.71,0.708-1.597,1.418-2.483,1.949c-1.949,1.242-3.9,1.949-6.026,2.483
				c-0.355,0.176-1.065,0.176-1.597,0.176c-0.531,0.176-1.065,0.176-1.597,0.176s-1.062-0.176-1.594-0.176
				c-0.534-0.176-1.065-0.176-1.597-0.176c-1.949-0.179-3.725-1.065-5.851-2.128c-1.952-1.065-3.546-2.483-4.966-4.077
				c-0.354-0.355-0.532-0.71-0.887-1.065c0.354-3.014,0.533-6.205,0.533-9.396h43.262v-6.739c-0.177-1.418-0.177-2.659-0.355-3.367
				C534.609,218.476,534.43,217.945,534.43,217.235z M459.432,305.711c-20.568,20.921-48.051,32.624-77.305,32.624
				c-29.256,0-56.561-11.524-77.305-32.624c-16.135-16.312-26.418-36.524-30.319-58.865c1.241-2.483,1.773-5.143,1.773-7.981
				c0-3.898-1.065-7.623-3.546-10.814c0-0.355,0-0.71,0-1.065c0-29.609,11.348-57.8,31.914-78.723
				c20.568-20.92,48.406-32.623,77.483-32.623c29.254,0,56.561,11.524,77.305,32.623c14.007,14.184,23.58,31.561,28.546,50.532
				c-0.71,0.355-1.597,1.065-2.483,1.597c-3.369,2.305-5.85,5.143-7.978,8.333c-0.18,0.176-0.18,0.355-0.355,0.708
				c-3.546-19.503-12.59-37.411-26.773-51.771c-18.261-18.619-42.553-28.725-68.44-28.725s-50.177,10.285-68.438,28.725
				c-13.476,13.829-22.341,30.851-26.242,49.29c-1.065,1.418-2.128,3.015-3.015,4.788c-2.304,4.432-3.37,9.572-3.37,15.425
				c0,3.722,0.534,7.268,1.597,10.638c1.063,2.838,2.483,5.674,4.433,8.333c3.546,19.15,12.766,36.703,26.597,50.71
				c18.261,18.616,42.551,28.723,68.438,28.723s50.179-10.283,68.44-28.723c14.362-14.542,23.583-32.981,26.949-53.015
				c1.065,1.949,2.483,3.901,4.08,5.495c1.949,2.128,4.254,3.901,6.561,5.498C483.366,273.796,473.615,291.349,459.432,305.711z
				 M299.148,238.689c-0.887-1.241-1.597-2.659-2.305-4.077c-1.065-2.483-1.597-5.143-1.773-7.979c0-4.432,1.239-8.333,3.546-11.703
				c0.177-0.176,0.353-0.355,0.532-0.71c-0.532,4.256-0.887,8.333-0.887,12.59C298.438,230.887,298.793,234.967,299.148,238.689z
				 M295.779,254.114c2.659,1.773,5.498,3.015,8.512,4.078c4.253,10.816,10.459,20.747,18.616,29.08c15.78,16.133,36.88,25,59.22,25
				c22.341,0,43.44-8.867,59.22-25c15.778-16.135,24.467-37.589,24.467-60.285c0-4.254-0.355-8.333-0.887-12.232l6.736-19.86
				h-12.056c-4.256-10.459-10.282-20.034-18.439-28.191c-15.78-16.135-36.879-25-59.22-25c-22.338,0-43.438,8.865-59.218,25
				c-8.157,8.333-14.362,18.084-18.618,28.725c-3.901,1.062-7.624,2.835-10.814,5.319c-1.597,1.241-3.014,2.48-4.256,3.901
				c3.901-17.377,12.589-33.512,25.355-46.455c18.085-18.439,42.02-28.37,67.551-28.37c25.534,0,49.469,10.106,67.553,28.546
				c14.185,14.539,23.228,32.802,26.598,52.483c-1.242,2.481-2.128,5.14-2.839,7.624c-0.707,3.546-0.886,7.092-0.531,10.816
				c0.355,3.546,1.242,7.092,2.659,10.461c0.177,0.708,0.532,1.239,0.887,1.949c-3.015,20.389-12.234,39.184-26.949,53.901
				c-18.085,18.44-42.022,28.546-67.554,28.546c-25.531,0-49.469-10.106-67.554-28.546c-13.121-13.3-21.807-29.788-25.531-47.52
				C290.815,250.392,293.119,252.52,295.779,254.114z M463.509,226.986c-0.179,22.164-8.51,42.908-23.935,58.688
				c-15.426,15.604-35.817,24.29-57.448,24.29c-21.809,0-42.198-8.51-57.447-24.29c-7.623-7.623-13.476-16.667-17.553-26.594
				c1.242,0.176,2.483,0.353,3.546,0.708c1.952,0.179,3.546,0.179,5.498,0c0.708-0.176,1.594-0.176,2.481-0.355
				c3.37,6.739,7.802,13.121,13.3,18.795c13.473,13.652,31.205,21.278,50.176,21.278s36.879-7.447,50.177-21.278
				c5.674-5.674,10.105-12.234,13.476-19.326h3.901l13.297-38.829C463.509,222.377,463.509,224.681,463.509,226.986z
				 M382.127,273.264c23.759,0,43.261-18.618,45.213-42.022l4.787,14.184c-7.447,20.923-27.128,35.817-50.179,35.817
				c-20.389,0-38.297-11.879-47.162-29.078c2.128-1.773,4.078-3.901,5.674-6.205C347.907,262.093,363.687,273.264,382.127,273.264z
				 M343.119,226.986c0-21.986,17.553-39.892,39.184-39.892c21.633,0,39.184,17.906,39.184,39.892
				c0,21.985-17.55,39.894-39.184,39.894C360.673,266.88,343.119,248.974,343.119,226.986z M415.105,195.073
				c-8.333-8.865-19.857-14.362-32.802-14.362c-18.439,0-34.22,11.169-41.312,27.128c-1.594-2.305-3.546-4.433-5.674-6.029
				c8.865-17.198,26.597-28.901,46.986-28.901c17.554,0,33.157,8.688,42.909,22.164H415.105L415.105,195.073z M339.042,212.447
				c-1.597,4.611-2.307,9.575-2.307,14.539c0,4.966,0.71,9.753,2.128,14.362l-8.687-4.788c-0.179,0.179-0.179,0.355-0.355,0.531
				c-0.531-3.367-0.886-6.558-0.886-9.927c0-3.546,0.355-6.737,1.062-10.106c0.179,0.176,0.179,0.355,0.179,0.355L339.042,212.447z
				 M330.885,255.001c9.93,18.618,29.078,31.206,51.418,31.206c23.051,0,43.264-13.829,52.483-33.687l2.128,6.382h4.785
				c-3.012,6.029-7.092,11.703-12.056,16.667c-12.766,12.944-29.608,20.036-47.517,20.036c-18.084,0-34.93-7.092-47.517-20.036
				c-4.966-5.143-9.043-10.638-12.058-16.843c1.418-0.355,2.838-0.71,4.077-1.42C328.049,256.597,329.467,255.887,330.885,255.001z
				 M444.183,233.194h-1.594l-2.129-6.208l0,0c0-32.624-26.241-59.218-58.333-59.218c-22.164,0-41.312,12.587-51.242,31.026
				c-2.836-1.594-5.495-2.835-8.51-3.546c3.015-6.029,7.092-11.7,12.056-16.667c12.766-12.942,29.611-20.034,47.517-20.034
				c18.087,0,34.93,7.092,47.52,20.034c10.813,10.993,17.553,25.179,19.326,40.425L444.183,233.194z M323.793,210.319
				c0.71,0.355,1.597,1.065,2.128,1.597c-1.242,4.788-1.952,9.93-1.952,15.249c0,5.143,0.71,10.106,1.952,14.894
				c-0.531,0.355-1.065,0.887-1.597,1.242c-1.949,1.418-4.253,2.304-6.561,2.836c-1.773-6.206-2.659-12.59-2.659-19.15
				c0-6.558,0.886-12.942,2.659-19.147C319.716,208.37,321.665,209.256,323.793,210.319z M451.63,211.561
				c-2.836-13.474-9.396-25.708-19.147-35.638c-13.477-13.652-31.385-21.275-50.18-21.275c-18.971,0-36.879,7.447-50.176,21.275
				c-5.319,5.498-9.93,11.703-13.121,18.619c-3.901-0.534-7.623-0.534-11.348,0.176c4.08-9.751,9.93-18.616,17.377-26.242
				c15.425-15.602,35.814-24.29,57.447-24.29c21.807,0,42.198,8.51,57.445,24.29c7.625,7.625,13.476,16.667,17.553,26.418
				L451.63,211.561z M313.863,207.483c-1.773,6.206-2.659,12.942-2.659,19.503c0,6.739,0.886,13.121,2.659,19.505
				c-2.304,0-4.432-0.355-6.381-1.242c-1.952-0.71-3.725-1.949-5.319-3.191c-0.886-4.966-1.241-9.93-1.241-15.072
				c0-5.319,0.355-10.459,1.418-15.425c1.241-0.887,2.483-1.594,3.901-2.305C308.723,208.015,311.204,207.483,313.863,207.483z
				 M490.992,238.512c-0.887-1.241-1.597-2.483-2.128-3.901c-0.355-0.71-0.534-1.242-0.71-1.952
				c-0.177-0.531-0.177-1.242-0.355-1.949l1.418-1.242h2.483C491.345,232.66,491.345,235.498,490.992,238.512z M491.345,216.172
				l-0.177-0.179c-0.176-0.531-0.176-1.062-0.176-1.773c1.062-1.417,2.305-2.659,3.546-3.546c1.239-1.062,3.012-1.949,4.785-2.659
				c1.597-0.532,3.369-0.708,5.143-0.708c1.772,0.176,3.546,0.353,5.143,0.708s3.015,1.065,4.256,1.597
				c1.239,0.708,2.126,1.417,3.012,2.128c1.242,1.242,2.128,2.836,2.839,4.253h-28.37V216.172z"/>
		</g>
		<path fill="none" d="M382.127,187.094c-21.63,0-39.184,17.906-39.184,39.892c0,21.985,17.553,39.894,39.184,39.894
			c21.631,0,39.184-17.909,39.184-39.894C421.311,205,403.758,187.094,382.127,187.094z M382.127,260.143
			c-18.084,0-32.623-14.894-32.623-33.157c0-18.261,14.539-33.155,32.623-33.155c18.085,0,32.624,14.894,32.624,33.155
			C414.75,245.249,400.212,260.143,382.127,260.143z"/>
		
			<linearGradient id="SVGID_1_" gradientUnits="userSpaceOnUse" x1="573.8079" y1="-346.261" x2="573.8079" y2="-346.261" gradientTransform="matrix(0.4385 0 0 0.4385 235.6808 274.5511)">
			<stop  offset="0.153" style="stop-color:#FBC61A"/>
			<stop  offset="0.5562" style="stop-color:#7A600D"/>
			<stop  offset="0.8496" style="stop-color:#221B04"/>
			<stop  offset="0.9818" style="stop-color:#000000"/>
		</linearGradient>
		<path fill="url(#SVGID_1_)" d="M487.268,122.732"/>
		<g>
			
				<linearGradient id="SVGID_2_" gradientUnits="userSpaceOnUse" x1="1014.7805" y1="2454.7322" x2="958.0054" y2="2626.2666" gradientTransform="matrix(0.2916 -0.3274 0.3274 0.2916 -749.3892 -247.1987)">
				<stop  offset="0.6915" style="stop-color:#FBC61A"/>
				<stop  offset="0.7223" style="stop-color:#FCCF40"/>
				<stop  offset="0.7736" style="stop-color:#FDDE79"/>
				<stop  offset="0.8232" style="stop-color:#FEEAA9"/>
				<stop  offset="0.8701" style="stop-color:#FEF3CE"/>
				<stop  offset="0.9135" style="stop-color:#FFFAE9"/>
				<stop  offset="0.952" style="stop-color:#FFFEF9"/>
				<stop  offset="0.9818" style="stop-color:#FFFFFF"/>
			</linearGradient>
			<path fill="url(#SVGID_2_)" d="M408.9,197.732l4.253-4.788c-17.551-16.49-43.792-16.135-60.814-0.886l4.078,4.787
				C370.955,183.725,394.006,183.725,408.9,197.732z"/>
			
				<linearGradient id="SVGID_3_" gradientUnits="userSpaceOnUse" x1="1073.5286" y1="2441.4294" x2="1020.3093" y2="2602.54" gradientTransform="matrix(0.2879 -0.3243 0.3241 0.2896 -736.7921 -249.9996)">
				<stop  offset="0.6915" style="stop-color:#FBC61A"/>
				<stop  offset="0.7223" style="stop-color:#FCCF40"/>
				<stop  offset="0.7736" style="stop-color:#FDDE79"/>
				<stop  offset="0.8232" style="stop-color:#FEEAA9"/>
				<stop  offset="0.8701" style="stop-color:#FEF3CE"/>
				<stop  offset="0.9135" style="stop-color:#FFFAE9"/>
				<stop  offset="0.952" style="stop-color:#FFFEF9"/>
				<stop  offset="0.9818" style="stop-color:#FFFFFF"/>
			</linearGradient>
			<path fill="url(#SVGID_3_)" d="M376.098,115.995c18.084-1.065,35.816,2.304,51.949,9.928
				c9.754,4.611,19.326,10.816,27.483,18.439l0.177-0.176c-21.986-19.857-48.404-30.143-79.431-28.546
				c-24.469,1.241-47.165,10.816-65.249,26.418l0.176,0.176C329.291,126.633,351.629,117.237,376.098,115.995z"/>
			
				<linearGradient id="SVGID_4_" gradientUnits="userSpaceOnUse" x1="1026.8098" y1="2452.906" x2="971.5212" y2="2619.9448" gradientTransform="matrix(0.2916 -0.3274 0.3274 0.2916 -749.3892 -247.1987)">
				<stop  offset="0.6915" style="stop-color:#FBC61A"/>
				<stop  offset="0.7223" style="stop-color:#FCCF40"/>
				<stop  offset="0.7736" style="stop-color:#FDDE79"/>
				<stop  offset="0.8232" style="stop-color:#FEEAA9"/>
				<stop  offset="0.8701" style="stop-color:#FEF3CE"/>
				<stop  offset="0.9135" style="stop-color:#FFFAE9"/>
				<stop  offset="0.952" style="stop-color:#FFFEF9"/>
				<stop  offset="0.9818" style="stop-color:#FFFFFF"/>
			</linearGradient>
			<path fill="url(#SVGID_4_)" d="M418.12,187.094l3.367-3.725c-21.985-20.744-55.671-20.744-77.657-1.063l3.367,3.901
				C367.409,168.3,398.083,168.121,418.12,187.094z"/>
			
				<linearGradient id="SVGID_5_" gradientUnits="userSpaceOnUse" x1="1067.2278" y1="2440.7214" x2="1014.0948" y2="2601.2478" gradientTransform="matrix(0.2916 -0.3274 0.3274 0.2916 -749.3892 -247.1987)">
				<stop  offset="0.6915" style="stop-color:#FBC61A"/>
				<stop  offset="0.7223" style="stop-color:#FCCF40"/>
				<stop  offset="0.7736" style="stop-color:#FDDE79"/>
				<stop  offset="0.8232" style="stop-color:#FEEAA9"/>
				<stop  offset="0.8701" style="stop-color:#FEF3CE"/>
				<stop  offset="0.9135" style="stop-color:#FFFAE9"/>
				<stop  offset="0.952" style="stop-color:#FFFEF9"/>
				<stop  offset="0.9818" style="stop-color:#FFFFFF"/>
			</linearGradient>
			<path fill="url(#SVGID_5_)" d="M377.163,130.002c25.708-1.242,49.466,7.447,68.972,25l1.062-0.71
				c-19.857-18.084-44.15-26.773-70.213-25.532c-21.809,1.063-41.843,9.575-57.979,23.58l0.887,1.065
				C336.204,139.398,355.53,131.065,377.163,130.002z"/>
			
				<linearGradient id="SVGID_6_" gradientUnits="userSpaceOnUse" x1="1053.2424" y1="2445.5955" x2="999.6968" y2="2607.3689" gradientTransform="matrix(0.2916 -0.3274 0.3274 0.2916 -749.3892 -247.1987)">
				<stop  offset="0.6915" style="stop-color:#FBC61A"/>
				<stop  offset="0.7223" style="stop-color:#FCCF40"/>
				<stop  offset="0.7736" style="stop-color:#FDDE79"/>
				<stop  offset="0.8232" style="stop-color:#FEEAA9"/>
				<stop  offset="0.8701" style="stop-color:#FEF3CE"/>
				<stop  offset="0.9135" style="stop-color:#FFFAE9"/>
				<stop  offset="0.952" style="stop-color:#FFFEF9"/>
				<stop  offset="0.9818" style="stop-color:#FFFFFF"/>
			</linearGradient>
			<path fill="url(#SVGID_6_)" d="M378.402,144.186c21.81-1.065,41.846,6.737,58.333,21.454l1.773-1.773
				c-17.198-15.78-36.879-22.696-59.396-22.164c-18.971,0.355-38.121,8.512-51.95,20.744l1.594,1.952
				C343.651,151.633,360.496,144.896,378.402,144.186z"/>
			
				<linearGradient id="SVGID_7_" gradientUnits="userSpaceOnUse" x1="1040.3625" y1="2449.6658" x2="985.9574" y2="2614.0378" gradientTransform="matrix(0.2916 -0.3274 0.3274 0.2916 -749.3892 -247.1987)">
				<stop  offset="0.6915" style="stop-color:#FBC61A"/>
				<stop  offset="0.7223" style="stop-color:#FCCF40"/>
				<stop  offset="0.7736" style="stop-color:#FDDE79"/>
				<stop  offset="0.8232" style="stop-color:#FEEAA9"/>
				<stop  offset="0.8701" style="stop-color:#FEF3CE"/>
				<stop  offset="0.9135" style="stop-color:#FFFAE9"/>
				<stop  offset="0.952" style="stop-color:#FFFEF9"/>
				<stop  offset="0.9818" style="stop-color:#FFFFFF"/>
			</linearGradient>
			<path fill="url(#SVGID_7_)" d="M378.581,158.548c18.085-0.886,34.928,5.14,49.114,17.906l2.48-3.012
				c-15.07-13.831-32.623-19.681-51.773-18.795c-16.133,0.708-30.85,7.268-42.729,17.729l2.483,3.015
				C348.438,165.995,363.156,159.256,378.581,158.548z"/>
		</g>
	</g>
	<g>
		<path fill="#FFFFFF" d="M505.707,279.824h-9.043c-0.354,0-0.708,0.176-0.708,0.708v16.491c0,0.355,0.176,0.71,0.708,0.71h0.179
			c0.354,0,0.707-0.179,0.707-0.71v-7.979h7.803c0.354,0,0.71-0.179,0.71-0.71v-0.176c0-0.355-0.179-0.71-0.71-0.71h-7.803v-6.205
			h8.334c0.354,0,0.71-0.176,0.71-0.71v-0.176C506.417,280.179,506.239,279.824,505.707,279.824z"/>
		<path fill="#FFFFFF" d="M512.268,284.433c-3.015,0-4.611,1.065-4.611,3.37v6.916c0,2.128,1.421,3.367,4.611,3.367
			c3.015,0,4.608-1.062,4.608-3.367v-7.092C516.876,285.498,515.458,284.433,512.268,284.433z M512.268,296.491
			c-3.015,0-3.015-1.242-3.015-1.952v-6.913c0-0.534,0-1.952,3.015-1.952s3.015,1.242,3.015,1.952v6.913
			C515.282,295.071,515.282,296.491,512.268,296.491z"/>
		<path fill="#FFFFFF" d="M528.404,284.612c-0.531,0-0.711,0.176-0.711,0.708v9.93c-0.71,0.355-1.949,1.242-3.722,1.242
			c-1.597,0-2.307-0.71-2.307-1.952v-9.396c0-0.355-0.177-0.71-0.708-0.71h-0.179c-0.355,0-0.708,0.179-0.708,0.71v9.396
			c0,2.128,1.418,3.37,3.901,3.37c1.239,0,2.659-0.355,3.722-1.065v0.179c0,0.355,0.18,0.71,0.711,0.71s0.707-0.179,0.707-0.71
			V285.32C529.111,284.788,528.935,284.612,528.404,284.612z"/>
		<path fill="#FFFFFF" d="M540.99,285.32c-0.708-0.708-1.595-1.062-3.015-1.062c-1.773,0-3.012,0.531-3.898,1.062v-0.176
			c0-0.355-0.179-0.71-0.71-0.71c-0.532,0-0.711,0.179-0.711,0.71v11.703c0,0.353,0.179,0.708,0.711,0.708h0.176
			c0.355,0,0.71-0.176,0.71-0.708v-9.93c0.711-0.355,1.949-1.242,3.901-1.242c1.597,0,2.305,0.71,2.305,1.952v9.396
			c0,0.355,0.179,0.71,0.71,0.71h0.176c0.355,0,0.711-0.179,0.711-0.71v-9.396C541.877,286.738,541.7,286.03,540.99,285.32z"/>
		<path fill="#FFFFFF" d="M553.756,279.469c-0.531,0-0.708,0.176-0.708,0.71v5.319c-0.887-0.534-2.128-1.065-3.9-1.065
			c-2.839,0-3.901,1.597-3.901,3.37v6.916c0,2.125,1.418,3.367,3.901,3.367c1.597,0,3.014-0.531,3.9-1.062v0.176
			c0,0.355,0.177,0.71,0.708,0.71c0.355,0,0.71-0.179,0.71-0.71v-16.667l0.177-0.176l-0.353-0.71L553.756,279.469L553.756,279.469z
			 M552.869,287.093v7.979c-0.708,0.355-1.949,1.241-3.898,1.241c-1.597,0-2.307-0.708-2.307-1.949v-6.737
			c0-1.241,0.887-1.952,2.307-1.952C550.92,285.851,552.161,286.738,552.869,287.093z"/>
		<path fill="#FFFFFF" d="M558.722,294.539c-0.531,0-0.71,0.179-0.71,0.71v1.949c0,0.355,0.179,0.71,0.71,0.71h0.177
			c0.354,0,0.71-0.176,0.71-0.71v-1.949C559.253,294.719,559.077,294.539,558.722,294.539z"/>
		<path fill="#FFFFFF" d="M578.404,296.312h-7.626v-15.78c0-0.353-0.176-0.708-0.707-0.708c-0.355,0-0.711,0.176-0.711,0.708v16.491
			c0,0.355,0.177,0.71,0.711,0.71h8.333c0.353,0,0.708-0.179,0.708-0.71v-0.179C578.935,296.491,578.756,296.312,578.404,296.312z"
			/>
		<path fill="#FFFFFF" d="M585.317,284.433c-3.015,0-4.608,1.065-4.608,3.37v6.916c0,2.128,1.418,3.367,4.608,3.367
			c3.015,0,4.611-1.062,4.611-3.367v-7.092C589.928,285.498,588.51,284.433,585.317,284.433z M585.317,296.491
			c-3.015,0-3.015-1.242-3.015-1.952v-6.913c0-0.534,0-1.952,3.015-1.952s3.015,1.242,3.015,1.952v6.913
			C588.51,295.071,588.51,296.491,585.317,296.491z"/>
		<path fill="#FFFFFF" d="M600.566,284.612h-0.177c-0.354,0-0.354,0.176-0.71,0.176l-0.176,0.176l-3.37,9.754l-3.369-9.575
			c0-0.179-0.177-0.531-0.708-0.531h-0.179c-0.355,0-0.708,0.353-0.708,0.708l4.077,11.879c0,0.179,0.177,0.355,0.532,0.534
			l0.71-0.179c0,0,0,0,0.176-0.176l0.179-0.179l4.078-11.879v-0.176C601.276,284.788,600.921,284.612,600.566,284.612z"/>
		<path fill="#FFFFFF" d="M611.203,291.349c0.355,0,0.71-0.176,0.71-0.71v-3.012c-0.179-2.307-1.597-3.369-4.787-3.369
			c-3.015,0-4.611,1.062-4.611,3.369v6.913c0,2.128,1.42,3.37,4.611,3.37c3.015,0,4.608-1.065,4.608-3.37v-0.708
			c0-0.355-0.176-0.71-0.708-0.71c-0.354,0-0.71,0.176-0.71,0.71v0.708c0,0.532,0,1.952-3.015,1.952
			c-3.012,0-3.012-1.242-3.012-1.952v-3.19H611.203z M603.935,289.931v-2.305c0-0.534,0-1.952,3.015-1.952
			c3.191,0,3.191,1.418,3.191,1.952v2.305H603.935z"/>
		<path fill="#FFFFFF" d="M622.906,279.469c-0.531,0-0.71,0.176-0.71,0.71v5.319c-0.887-0.534-2.129-1.065-3.901-1.065
			c-2.836,0-3.901,1.597-3.901,3.37v6.916c0,2.125,1.421,3.367,3.901,3.367c1.597,0,3.015-0.531,3.901-1.062v0.176
			c0,0.355,0.179,0.71,0.71,0.71c0.354,0,0.71-0.179,0.71-0.71v-16.667c0.177-0.176,0.177-0.353,0.177-0.353
			C623.616,279.824,623.438,279.469,622.906,279.469z M618.295,296.491c-1.595,0-2.305-0.71-2.305-1.952v-6.913
			c0-1.241,0.887-1.952,2.305-1.952c1.952,0,3.193,0.887,3.901,1.242v7.979C621.489,295.605,620.247,296.491,618.295,296.491z"/>
		<path fill="#FFFFFF" d="M628.049,294.539c-0.534,0-0.71,0.179-0.71,0.71v1.949c0,0.355,0.176,0.71,0.71,0.71h0.176
			c0.355,0,0.711-0.176,0.711-0.71v-1.949C628.757,294.719,628.402,294.539,628.049,294.539z"/>
		<path fill="#FFFFFF" d="M646.134,288.513l-4.967-1.952c-0.353-0.176-1.594-0.71-1.594-1.949v-1.242
			c0-1.065,0.354-2.304,3.722-2.304c3.37,0,3.725,1.062,3.725,2.304v1.242c0,0.353,0.177,0.708,0.708,0.708
			c0.355,0,0.71-0.176,0.71-0.708v-1.242c0-2.483-1.597-3.725-5.143-3.725s-5.14,1.242-5.14,3.725v1.242
			c0,1.773,1.239,2.835,2.48,3.367l4.966,1.952c0.532,0.176,1.595,0.708,1.595,1.949v2.128c0,1.063-0.355,2.304-3.901,2.304
			s-3.9-1.241-3.9-2.304v-1.062c0-0.355-0.177-0.71-0.708-0.71h-0.179c-0.353,0-0.708,0.176-0.708,0.71v1.239
			c0,2.483,1.595,3.725,5.319,3.725c3.546,0,5.318-1.241,5.318-3.725v-2.125C648.793,290.462,647.906,289.22,646.134,288.513z"/>
		<path fill="#FFFFFF" d="M652.87,284.612c-0.531,0-0.71,0.176-0.71,0.708v11.703c0,0.355,0.179,0.71,0.71,0.71h0.176
			c0.355,0,0.711-0.179,0.711-0.71V285.32C653.58,284.788,653.402,284.612,652.87,284.612z"/>
		<path fill="#FFFFFF" d="M652.87,279.469c-0.531,0-0.71,0.176-0.71,0.71v2.481c0,0.355,0.179,0.71,0.71,0.71h0.176
			c0.355,0,0.711-0.179,0.711-0.71v-2.481C653.58,279.646,653.402,279.469,652.87,279.469z"/>
		<path fill="#FFFFFF" d="M665.46,284.612c-0.711,0-0.711,0.531-0.711,0.708v0.179c-1.062-0.534-2.304-1.065-3.9-1.065
			c-2.836,0-3.901,1.597-3.901,3.37v6.916c0,2.125,1.421,3.367,3.901,3.367c1.597,0,3.015-0.531,3.9-1.062v2.835
			c0,0.534,0,1.952-3.015,1.952h-3.366c-0.355,0-0.711,0.176-0.711,0.708v0.179c0,0.354,0.177,0.707,0.711,0.707h3.366
			c3.015,0,4.611-1.062,4.611-3.367v-14.362C666.167,285.143,666.167,284.612,665.46,284.612z M660.849,285.851
			c1.951,0,3.193,0.887,3.9,1.242v7.979c-0.707,0.355-1.949,1.241-3.9,1.241c-1.595,0-2.305-0.708-2.305-1.949v-6.737
			C658.544,286.385,659.431,285.851,660.849,285.851z"/>
		<path fill="#FFFFFF" d="M678.047,285.32c-0.708-0.708-1.595-1.062-3.013-1.062c-1.775,0-3.015,0.531-3.9,1.062v-0.176
			c0-0.355-0.179-0.71-0.711-0.71c-0.354,0-0.71,0.179-0.71,0.71v11.703c0,0.353,0.179,0.708,0.71,0.708h0.177
			c0.355,0,0.71-0.176,0.71-0.708v-9.93c0.71-0.355,1.949-1.242,3.901-1.242c1.597,0,2.304,0.71,2.304,1.952v9.396
			c0,0.355,0.18,0.71,0.711,0.71h0.176c0.355,0,0.71-0.179,0.71-0.71v-9.396C678.933,286.738,678.58,286.03,678.047,285.32z"/>
		<path fill="#FFFFFF" d="M690.813,291.349c0.354,0,0.71-0.176,0.71-0.71v-3.012c-0.177-2.307-1.597-3.369-4.787-3.369
			c-3.015,0-4.609,1.062-4.609,3.369v6.913c0,2.128,1.418,3.37,4.609,3.37c3.014,0,4.61-1.065,4.61-3.37v-0.708
			c0-0.355-0.179-0.71-0.71-0.71c-0.354,0-0.71,0.176-0.71,0.71v0.708c0,0.532,0,1.952-3.012,1.952
			c-3.015,0-3.015-1.242-3.015-1.952v-3.19H690.813z M683.721,289.931v-2.305c0-0.534,0-1.952,3.015-1.952
			c3.19,0,3.19,1.418,3.19,1.952v2.305H683.721z"/>
		<path fill="#FFFFFF" d="M703.047,279.469h-0.353c-0.534,0-0.711,0.176-0.711,0.71v5.319c-0.886-0.534-2.128-1.065-3.9-1.065
			c-2.836,0-3.901,1.597-3.901,3.37v6.916c0,2.125,1.418,3.367,3.901,3.367c1.597,0,3.015-0.531,3.9-1.062v0.176
			c0,0.355,0.177,0.71,0.711,0.71c0.353,0,0.707-0.179,0.707-0.71v-16.667l0.18-0.176l-0.18-0.355L703.047,279.469z
			 M698.083,296.491c-1.597,0-2.305-0.71-2.305-1.952v-6.913c0-1.241,0.887-1.952,2.305-1.952c1.951,0,3.19,0.887,3.9,1.242v7.979
			C701.274,295.605,699.856,296.491,698.083,296.491z"/>
		<path fill="#FFFFFF" d="M707.658,294.539c-0.532,0-0.711,0.179-0.711,0.71v1.949c0,0.355,0.179,0.71,0.711,0.71h0.176
			c0.355,0,0.71-0.176,0.71-0.71v-1.949C708.365,294.719,708.013,294.539,707.658,294.539z"/>
	</g>
</g>
</svg>
