<?xml version="1.0" encoding="utf-8"?>
<!-- Generator: Adobe Illustrator 15.1.0, SVG Export Plug-In . SVG Version: 6.00 Build 0)  -->
<!DOCTYPE svg PUBLIC "-//W3C//DTD SVG 1.1//EN" "http://www.w3.org/Graphics/SVG/1.1/DTD/svg11.dtd">
<svg version="1.1" id="Layer_1" xmlns="http://www.w3.org/2000/svg" xmlns:xlink="http://www.w3.org/1999/xlink" x="0px" y="0px"
	 width="600px" height="100.528px" viewBox="120.945 168.078 600 100.528" enable-background="new 120.945 168.078 600 100.528"
	 xml:space="preserve">
<g>
	<g>
		<g>
			<g>
				<path fill="#FFFFFF" d="M393.185,231.922c1.751,0.767,3.613,1.206,5.803,1.206c2.082,0,3.943-0.439,5.803-1.206
					c1.753-0.767,3.396-1.862,4.71-3.176c1.314-1.313,2.409-2.957,3.175-4.708c0.767-1.751,1.205-3.613,1.205-5.803
					c0-2.081-0.438-3.943-1.205-5.805c-0.766-1.751-1.86-3.394-3.175-4.708s-2.957-2.41-4.71-3.176
					c-1.751-0.767-3.613-1.204-5.803-1.204c-2.081,0-3.941,0.438-5.803,1.204c-1.862,0.767-3.396,1.862-4.71,3.176
					s-2.41,2.957-3.175,4.708c-0.767,1.753-1.206,3.724-1.206,5.805c0,2.08,0.439,3.941,1.206,5.803
					c0.765,1.751,1.86,3.396,3.175,4.708C389.789,230.17,391.323,231.155,393.185,231.922z M391.103,214.947
					c0.439-1.095,0.986-2.08,1.751-2.847c0.767-0.767,1.644-1.423,2.629-1.862c0.986-0.438,2.081-0.656,3.285-0.656
					c1.205,0,2.301,0.218,3.285,0.656c0.986,0.439,1.862,1.095,2.628,1.862c0.767,0.767,1.314,1.751,1.753,2.847
					c0.437,0.986,0.657,2.191,0.657,3.396s-0.22,2.409-0.657,3.504c-0.438,1.095-0.986,2.081-1.753,2.847
					c-0.767,0.767-1.643,1.424-2.628,1.862c-0.984,0.438-2.08,0.658-3.285,0.658c-1.204,0-2.299-0.219-3.285-0.658
					c-0.985-0.438-1.862-1.095-2.629-1.862c-0.765-0.766-1.312-1.751-1.751-2.847c-0.438-1.095-0.656-2.19-0.656-3.504
					C390.447,217.138,390.665,216.044,391.103,214.947z"/>
				<path fill="#FFFFFF" d="M250.056,220.204c-0.109,0.876-0.22,1.751-0.657,2.41c-0.439,0.656-0.767,1.423-1.314,2.08
					c-0.548,0.658-1.206,0.986-1.862,1.314c-0.767,0.329-1.533,0.439-2.41,0.439c-1.314,0-2.626-0.439-3.613-1.206
					c-0.767-0.656-1.423-1.313-1.862-2.299c-0.438-0.986-0.656-1.862-0.656-2.738v-31.538h-6.681v32.085
					c0.109,0.876,0.109,1.643,0.219,2.082c0.109,0.437,0.22,0.984,0.437,1.643c0.439,1.204,1.096,2.299,1.862,3.394
					c0.768,0.986,1.753,1.862,2.848,2.628c1.095,0.656,2.19,1.204,3.505,1.643c1.314,0.328,2.627,0.547,3.833,0.547
					c1.204,0,2.518-0.11,3.724-0.547c0.876-0.219,1.751-0.658,2.408-0.986l0.767,1.534h5.805v-12.812l0,0c0-0.11,0-0.658,0-1.643
					c0-1.206,0-2.848,0-4.819c0-1.862,0-4.162,0-6.57c0-2.409,0-4.818,0-7.228c0-2.409,0-4.491,0-6.57c0-1.972,0-3.504,0.109-4.599
					h-6.57L250.056,220.204L250.056,220.204z"/>
				<path fill="#FFFFFF" d="M283.127,209.253c-0.656-1.095-1.423-2.08-2.409-2.956c-0.984-0.767-2.08-1.534-3.175-1.862
					c-1.205-0.438-2.409-0.767-3.724-0.767c-1.313-0.111-2.518,0.109-3.613,0.437c-0.33,0.11-0.767,0.219-1.097,0.33
					c-0.328,0.109-0.656,0.328-0.984,0.437l-1.206-0.875h-6.351v28.8h6.351v-17.412c0-0.656,0.22-1.423,0.439-2.19
					c0.328-0.767,0.767-1.314,1.204-1.862c0.877-0.985,1.972-1.534,3.176-1.862c0.658-0.109,1.206-0.109,1.753-0.109
					c0.657,0.109,1.204,0.219,1.751,0.437c1.095,0.438,1.862,1.314,2.41,2.409c0.219,0.439,0.438,0.986,0.547,1.534
					c0.109,0.22,0.109,0.328,0.109,0.439c0,0.109,0,0.218,0,0.437c0,2.628,0,4.928,0,6.681c0,1.751,0,3.394,0,4.818
					c0,1.313,0,2.519,0,3.505c0,0.984,0,1.86,0,2.846h6.353V214.51c0-0.986-0.111-1.862-0.439-2.848
					C283.894,210.677,283.456,210.13,283.127,209.253z"/>
				<path fill="#FFFFFF" d="M309.519,206.187c-0.437-0.219-0.765-0.437-1.204-0.767c-0.328-0.218-0.767-0.437-1.204-0.656
					c-1.753-0.767-3.504-1.206-5.585-1.206c-1.972,0-3.833,0.439-5.586,1.206c-1.862,0.767-3.504,1.862-4.817,3.285
					c-0.658,0.767-1.314,1.534-1.862,2.3c-0.547,0.766-0.985,1.643-1.313,2.519c-0.658,1.862-0.986,3.833-0.986,5.803
					c0,1.862,0.328,3.724,0.986,5.585c0.328,0.767,0.767,1.751,1.313,2.519c0.438,0.767,1.205,1.534,1.862,2.19
					c1.313,1.423,2.956,2.519,4.817,3.285c1.753,0.767,3.614,1.206,5.586,1.206c2.081-0.11,3.941-0.439,5.585-1.206
					c0.218-0.109,0.437-0.109,0.547-0.219c0.109-0.109,0.328-0.109,0.547-0.218l1.204,1.204v0.109h6.351v-44.131h-6.242V206.187
					L309.519,206.187z M309.41,221.738c-0.438,1.095-1.204,2.08-1.862,2.847c-0.767,0.767-1.751,1.314-2.847,1.862
					c-0.986,0.437-2.081,0.656-3.175,0.656c-1.095,0-2.082-0.219-3.285-0.656c-0.986-0.439-1.862-1.095-2.738-1.862
					c-0.986-0.986-1.753-2.19-2.082-3.613c-0.328-1.425-0.438-2.848-0.219-4.163c0.11-0.218,0.11-0.437,0.219-0.765
					c0.109-0.33,0.109-0.548,0.22-0.767c0.219-0.438,0.438-0.986,0.766-1.534c0.329-0.547,0.657-0.875,1.096-1.314
					c0.767-0.767,1.751-1.532,2.738-1.862c0.437-0.219,0.984-0.437,1.532-0.437c0.549,0,1.097-0.11,1.753-0.219
					c1.095,0,2.081,0.219,3.175,0.656c1.096,0.439,2.081,0.986,2.847,1.862c0.767,0.767,1.423,1.753,1.862,2.848
					c0.438,0.985,0.656,2.19,0.656,3.394C310.066,219.657,309.848,220.752,309.41,221.738z"/>
				<rect x="319.923" y="203.888" fill="#FFFFFF" width="6.351" height="28.8"/>
				<path fill="#FFFFFF" d="M485.609,204.106c-0.218-0.109-0.656-0.109-0.984-0.109c-0.658-0.109-1.205-0.109-1.861,0
					c-0.658,0.109-1.206,0.219-1.862,0.438c-0.438,0.109-0.767,0.219-1.095,0.328c-0.22,0.109-0.656,0.328-0.986,0.438l-1.312-1.205
					h-6.353v28.8h6.353v-16.645c0-0.548,0.108-1.095,0.218-1.643c0.11-0.547,0.219-0.986,0.329-1.206
					c0.109-0.328,0.218-0.656,0.438-0.875c0.219-0.22,0.438-0.438,0.658-0.767c0.984-0.984,1.971-1.532,3.174-1.751
					c0.548-0.11,1.096-0.11,1.754-0.11c0.219,0,0.437,0.11,0.656,0.11l1.754-5.805C486.156,204.106,485.939,204.106,485.609,204.106
					z"/>
				<path fill="#FFFFFF" d="M513.534,214.071c-0.109-0.437-0.219-0.767-0.219-1.204c-0.11-0.438-0.219-0.767-0.438-1.206
					c-0.656-1.751-1.533-3.175-2.848-4.38c-1.204-1.204-2.627-2.08-4.27-2.738c-0.986-0.328-1.973-0.656-2.957-0.767
					c-0.986-0.109-2.081-0.22-2.957-0.109c-0.876,0-1.753,0.109-2.409,0.219c-0.656,0.109-1.204,0.218-1.314,0.218
					c-0.767,0.219-1.643,0.658-2.299,0.986c-0.658,0.328-1.425,0.767-2.081,1.314c-1.534,0.986-2.629,2.299-3.505,3.724
					c-0.876,1.423-1.533,2.957-1.861,4.6c-0.328,1.532-0.438,3.175-0.22,4.817c0.11,1.643,0.548,3.176,1.205,4.709
					c0.657,1.532,1.532,2.957,2.629,4.161c1.204,1.206,2.408,2.19,3.941,2.957c0.768,0.439,1.534,0.657,2.3,0.986
					c1.644,0.437,3.286,0.766,4.818,0.766c1.315,0,2.629-0.218,3.832-0.438c1.206-0.219,2.301-0.767,3.285-1.314
					c1.534-0.767,2.849-1.862,3.943-2.957l-4.818-4.161c-0.219,0.438-0.656,0.767-0.985,1.095s-0.767,0.656-1.205,0.876
					c-0.767,0.547-1.751,0.875-2.736,1.095c-0.221,0.109-0.438,0.109-0.657,0.109c-0.22,0.11-0.439,0.11-0.658,0.11
					c-0.22,0-0.438-0.11-0.767-0.11c-0.218-0.109-0.438-0.109-0.766-0.109c-0.767-0.109-1.753-0.438-2.629-0.986
					c-0.767-0.438-1.533-1.095-2.189-1.86c-0.658-0.767-1.206-1.534-1.534-2.41c-0.108-0.219-0.219-0.547-0.219-0.767
					c-0.109-0.219-0.109-0.548-0.219-0.767l0.657-0.547h20.696v-3.066c-0.108-0.658-0.108-1.206-0.108-1.534
					C513.645,214.619,513.534,214.291,513.534,214.071z M494.152,213.524l-0.22-0.767c0.548-0.657,1.204-1.313,1.753-1.751
					c0.657-0.439,1.313-0.876,2.19-1.206c0.876-0.328,1.532-0.328,2.299-0.218c0.767,0.109,1.534,0.109,2.301,0.328
					c0.766,0.219,1.312,0.437,1.86,0.767c0.547,0.328,0.986,0.656,1.314,0.984c0.547,0.658,0.986,1.206,1.205,1.862H494.152
					L494.152,213.524z"/>
				<path fill="#FFFFFF" d="M539.818,188.666v17.412c-0.438-0.219-0.769-0.438-1.205-0.767c-0.328-0.219-0.767-0.438-1.206-0.656
					c-1.751-0.767-3.504-1.206-5.584-1.206c-1.972,0-3.832,0.439-5.585,1.206c-1.862,0.765-3.505,1.86-4.819,3.285
					c-0.656,0.765-1.312,1.532-1.86,2.299c-0.549,0.767-0.986,1.643-1.314,2.519c-0.657,1.862-0.985,3.834-0.985,5.805
					c0,1.862,0.328,3.722,0.985,5.584c0.328,0.767,0.766,1.753,1.314,2.52c0.438,0.765,1.204,1.532,1.86,2.19
					c1.314,1.423,2.957,2.518,4.819,3.285c1.753,0.767,3.613,1.204,5.585,1.204c2.08-0.109,3.941-0.438,5.584-1.204
					c0.22-0.11,0.439-0.11,0.548-0.219c0.11-0.109,0.33-0.109,0.548-0.219l1.205,1.205v0.109h6.351v-44.132h-6.24V188.666z
					 M539.707,221.738c-0.438,1.095-1.205,2.08-1.861,2.847c-0.768,0.767-1.751,1.314-2.847,1.862
					c-0.986,0.437-2.081,0.656-3.177,0.656c-1.095,0-2.189-0.219-3.285-0.656c-0.985-0.439-1.861-1.095-2.737-1.862
					c-0.986-0.986-1.753-2.19-2.081-3.613c-0.328-1.534-0.438-2.848-0.22-4.163c0.11-0.218,0.11-0.437,0.22-0.765
					c0.108-0.219,0.108-0.548,0.22-0.767c0.219-0.438,0.437-0.986,0.767-1.534c0.218-0.438,0.656-0.875,1.095-1.314
					c0.766-0.767,1.752-1.532,2.737-1.862c0.438-0.219,0.985-0.437,1.532-0.437c0.548,0,1.096-0.11,1.753-0.219
					c1.096,0,2.08,0.219,3.177,0.656c1.096,0.439,2.079,0.986,2.847,1.862c0.767,0.767,1.423,1.753,1.861,2.848
					c0.438,0.985,0.656,2.19,0.656,3.394C540.364,219.657,540.145,220.752,539.707,221.738z"/>
				<path fill="#FFFFFF" d="M326.165,194.25c-0.11-0.109-0.219-0.219-0.439-0.437c-0.108-0.11-0.108-0.11-0.219-0.219
					c-0.765-0.767-1.86-1.753-2.08-2.19h-0.219h-0.219h-0.219h-0.219c-0.218,0.438-1.313,1.423-2.08,2.19
					c-0.11,0.109-0.11,0.109-0.219,0.219c-0.109,0.109-0.219,0.218-0.438,0.437c-0.109,0.11-0.218,0.219-0.218,0.219
					c-0.33,0.656-0.547,1.204-0.547,1.971c0,1.095,0.437,2.082,1.204,2.738c0.767,0.767,1.751,1.206,2.738,1.206
					c1.095,0,2.081-0.439,2.737-1.206c0.768-0.767,1.206-1.751,1.206-2.738c-0.11-0.767-0.219-1.423-0.658-1.971
					C326.385,194.469,326.274,194.361,326.165,194.25z"/>
				<path fill="#FFFFFF" d="M467.431,214.071c-0.109-0.437-0.218-0.767-0.218-1.204c-0.11-0.438-0.22-0.767-0.438-1.206
					c-0.657-1.751-1.534-3.175-2.849-4.38c-1.204-1.204-2.627-2.08-4.27-2.738c-0.986-0.328-1.973-0.656-2.957-0.767
					c-0.986-0.109-2.081-0.22-2.957-0.109c-0.876,0-1.753,0.109-2.409,0.219c-0.656,0.109-1.204,0.218-1.314,0.218
					c-0.767,0.219-1.643,0.658-2.299,0.986c-0.22,0.11-0.658,0.328-0.877,0.548c-2.19-8.541-6.57-16.317-12.922-22.778
					c-9.418-9.418-21.683-14.783-34.933-14.783c-13.141,0-25.625,5.256-34.934,14.783c-9.308,9.527-14.455,22.122-14.455,35.481
					c0,0.109,0,0.219,0,0.219c-0.109-0.11-0.109-0.219-0.219-0.328c-1.313-1.534-3.066-2.629-5.256-3.287l-4.6-1.313
					c-0.656-0.219-0.986-0.438-1.314-0.767c-0.329-0.328-0.437-0.767-0.437-1.206c0-0.656,0.218-1.095,0.765-1.532
					c0.547-0.438,1.314-0.658,2.19-0.658c0.438,0,0.877,0.11,1.314,0.328c0.438,0.219,0.767,0.438,1.095,0.767l4.382-4.599
					c-1.862-1.751-4.162-2.627-6.791-2.627c-1.313,0-2.518,0.218-3.613,0.657c-1.204,0.438-2.081,0.986-2.957,1.753
					c-0.875,0.765-1.532,1.643-2.08,2.627c-0.438,0.986-0.767,2.081-0.767,3.176c0,1.862,0.656,3.394,1.751,4.819
					c1.205,1.423,2.737,2.409,4.71,2.957l4.599,1.312c0.765,0.219,1.532,0.658,2.08,1.206c0.548,0.547,0.767,1.095,0.767,1.751
					c0,0.767-0.439,1.534-1.314,2.3c-0.875,0.657-1.862,0.985-3.066,0.985c-1.205,0-2.3-0.328-3.176-0.985
					c-0.875-0.658-1.314-1.314-1.314-2.19h-6.242c0,1.314,0.219,2.519,0.766,3.613c0.548,1.206,1.315,2.081,2.301,2.957
					c0.984,0.875,2.08,1.534,3.394,2.081c1.314,0.437,2.628,0.767,4.162,0.767c1.423,0,2.847-0.22,4.05-0.767
					c1.314-0.438,2.41-1.206,3.396-2.081c0.986-0.767,1.751-1.751,2.19-2.847c1.753,9.964,6.57,19.054,13.689,26.392
					c9.308,9.527,21.681,14.783,34.932,14.783c13.14,0,25.625-5.256,34.933-14.783c6.352-6.57,10.731-14.346,12.922-23.106
					c0.219,0.109,0.547,0.328,0.767,0.437c0.767,0.439,1.533,0.658,2.301,0.986c1.643,0.437,3.285,0.767,4.818,0.767
					c1.312,0,2.627-0.219,3.833-0.438c1.203-0.219,2.299-0.767,3.285-1.314c1.531-0.767,2.846-1.862,3.941-2.957l-4.817-4.161
					c-0.22,0.439-0.658,0.767-0.986,1.096c-0.328,0.328-0.767,0.656-1.205,0.875c-0.766,0.548-1.752,0.876-2.738,1.095
					c-0.218,0.11-0.437,0.11-0.656,0.11c-0.219,0.109-0.438,0.109-0.656,0.109c-0.22,0-0.438-0.109-0.767-0.109
					c-0.22-0.11-0.438-0.11-0.767-0.11c-0.768-0.109-1.753-0.437-2.629-0.985c-0.767-0.438-1.532-1.095-2.19-1.862
					c-0.108-0.11-0.219-0.328-0.437-0.438c0.108-1.314,0.218-2.737,0.218-4.161h19.492v-3.066c-0.108-0.658-0.108-1.206-0.108-1.534
					C467.541,214.619,467.541,214.291,467.431,214.071z M433.702,253.824c-9.308,9.418-21.683,14.674-34.823,14.674
					c-13.142,0-25.516-5.256-34.825-14.674c-7.227-7.337-11.937-16.536-13.579-26.502c0.547-1.204,0.767-2.299,0.767-3.613
					c0-1.753-0.437-3.396-1.532-4.928c0-0.11,0-0.219,0-0.438c0-13.36,5.147-25.954,14.345-35.481
					c9.199-9.527,21.683-14.674,34.825-14.674c13.14,0,25.516,5.256,34.823,14.674c6.351,6.353,10.622,14.237,12.812,22.778
					c-0.328,0.219-0.768,0.438-1.096,0.658c-1.532,0.985-2.627,2.299-3.504,3.722c-0.109,0.11-0.109,0.219-0.109,0.219
					c-1.533-8.76-5.694-16.864-12.045-23.325c-8.323-8.323-19.165-12.921-30.882-12.921c-11.608,0-22.559,4.598-30.773,12.921
					c-6.023,6.133-10.075,13.798-11.826,22.23c-0.438,0.658-0.986,1.314-1.314,2.081c-0.986,1.971-1.534,4.271-1.534,6.898
					c0,1.753,0.22,3.285,0.767,4.819c0.438,1.314,1.206,2.518,1.971,3.724c1.643,8.651,5.805,16.536,11.937,22.887
					c8.214,8.323,19.165,12.923,30.773,12.923c11.606,0,22.559-4.6,30.771-12.923c6.461-6.57,10.622-14.894,12.155-23.873
					c0.438,0.876,1.096,1.753,1.862,2.41c0.876,0.986,1.861,1.751,2.957,2.409C444.544,239.478,440.163,247.471,433.702,253.824z
					 M361.536,223.709c-0.437-0.547-0.767-1.206-0.984-1.862c-0.439-1.206-0.767-2.3-0.767-3.504c0-1.971,0.548-3.724,1.643-5.256
					c0.109-0.11,0.219-0.219,0.219-0.219c-0.219,1.862-0.438,3.724-0.438,5.694C361.208,220.204,361.427,221.956,361.536,223.709z
					 M360.004,230.607c1.204,0.767,2.408,1.314,3.833,1.862c1.862,4.819,4.708,9.308,8.432,13.142
					c7.118,7.227,16.645,11.169,26.72,11.169c10.075,0,19.602-4.052,26.721-11.169c7.117-7.228,11.059-16.866,11.059-27.16
					c0-1.86-0.108-3.722-0.437-5.584l3.065-8.871h-5.476c-1.861-4.708-4.708-8.979-8.322-12.704
					c-7.118-7.227-16.645-11.169-26.72-11.169c-10.076,0-19.602,4.052-26.721,11.169c-3.613,3.724-6.57,8.104-8.322,12.923
					c-1.753,0.438-3.396,1.314-4.927,2.409c-0.658,0.548-1.314,1.204-1.862,1.751c1.751-7.774,5.694-15.111,11.389-20.916
					c8.104-8.323,18.944-12.812,30.443-12.812c11.498,0,22.23,4.599,30.443,12.812c6.351,6.57,10.513,14.785,11.937,23.654
					c-0.548,1.206-0.986,2.3-1.206,3.504c-0.328,1.534-0.437,3.176-0.218,4.819c0.109,1.643,0.548,3.176,1.204,4.708
					c0.109,0.219,0.22,0.658,0.438,0.767c-1.314,9.199-5.585,17.631-12.155,24.312c-8.104,8.323-18.946,12.812-30.443,12.812
					c-11.5,0-22.23-4.599-30.443-12.812c-5.914-6.023-9.746-13.47-11.499-21.464C357.812,228.965,358.799,229.841,360.004,230.607z
					 M435.564,218.343c-0.11,9.966-3.832,19.273-10.732,26.391c-6.898,7.009-16.206,10.952-25.843,10.952
					c-9.747,0-19.054-3.833-25.844-10.952c-3.396-3.504-6.133-7.556-7.994-11.937c0.548,0.11,1.095,0.219,1.643,0.219
					c0.766,0.111,1.643,0.111,2.408,0c0.33-0.109,0.767-0.109,1.095-0.109c1.534,3.066,3.504,5.913,6.024,8.541
					c6.022,6.133,14.016,9.527,22.559,9.527c8.541,0,16.536-3.394,22.559-9.527c2.519-2.628,4.6-5.475,6.132-8.651h1.753
					l6.022-17.412C435.564,216.372,435.564,217.356,435.564,218.343z M398.879,239.259c10.622,0,19.492-8.323,20.368-18.945
					l2.19,6.353c-3.285,9.417-12.156,16.206-22.559,16.206c-9.199,0-17.303-5.365-21.244-13.14c0.984-0.767,1.86-1.753,2.627-2.738
					C383.438,234.222,390.556,239.259,398.879,239.259z M381.248,218.343c0-9.966,7.993-17.959,17.631-17.959
					c9.746,0,17.631,8.104,17.631,17.959s-7.995,17.959-17.631,17.959C389.241,236.302,381.248,228.308,381.248,218.343z
					 M413.772,204.106c-3.724-3.942-8.981-6.46-14.784-6.46c-8.323,0-15.441,5.037-18.616,12.154
					c-0.767-0.985-1.643-1.971-2.629-2.738c4.052-7.774,11.937-13.031,21.136-13.031c7.993,0,14.893,3.943,19.273,9.966
					L413.772,204.106L413.772,204.106z M379.495,211.772c-0.657,2.08-0.985,4.27-0.985,6.57c0,2.19,0.328,4.38,0.985,6.461
					l-3.942-2.19c-0.11,0.108-0.11,0.219-0.219,0.219c-0.219-1.534-0.438-2.957-0.438-4.491s0.11-3.066,0.438-4.6
					c0.109,0.109,0.109,0.109,0.109,0.22L379.495,211.772z M375.773,231.046c4.489,8.323,13.14,14.016,23.106,14.016
					c10.403,0,19.492-6.242,23.653-15.221l0.984,2.848h2.192c-1.314,2.738-3.177,5.256-5.367,7.446
					c-5.805,5.805-13.36,8.979-21.463,8.979s-15.66-3.175-21.464-8.979c-2.19-2.299-4.052-4.817-5.475-7.557
					c0.657-0.109,1.313-0.328,1.86-0.656C374.568,231.702,375.225,231.374,375.773,231.046z M426.804,221.189h-0.767l-0.986-2.738
					l0,0c0-14.783-11.826-26.719-26.172-26.719c-9.966,0-18.617,5.584-23.106,14.018c-1.205-0.658-2.409-1.206-3.833-1.534
					c1.313-2.738,3.175-5.256,5.475-7.557c5.804-5.803,13.36-8.979,21.464-8.979s15.659,3.176,21.463,8.979
					c4.928,4.928,7.884,11.389,8.652,18.179L426.804,221.189z M372.597,210.897c0.328,0.218,0.656,0.437,0.986,0.656
					c-0.658,2.19-0.877,4.491-0.877,6.898c0,2.3,0.219,4.6,0.767,6.681c-0.219,0.219-0.437,0.438-0.767,0.656
					c-0.876,0.658-1.86,0.986-2.957,1.314c-0.765-2.738-1.204-5.584-1.204-8.651c0-3.066,0.439-5.803,1.204-8.65
					C370.845,209.91,371.721,210.349,372.597,210.897z M430.198,211.444c-1.313-6.024-4.16-11.608-8.651-15.988
					c-6.022-6.133-14.126-9.529-22.558-9.529c-8.541,0-16.536,3.396-22.559,9.529c-2.41,2.408-4.489,5.256-5.914,8.322
					c-1.751-0.22-3.504-0.22-5.147,0.11c1.862-4.38,4.491-8.323,7.776-11.828c6.898-7.009,16.208-10.95,25.844-10.95
					c9.747,0,19.054,3.833,25.843,10.95c3.396,3.504,6.134,7.556,7.995,11.937L430.198,211.444z M368.106,209.582
					c-0.765,2.847-1.205,5.803-1.205,8.76s0.439,5.914,1.205,8.76c-0.985,0-1.971-0.219-2.847-0.547
					c-0.875-0.328-1.753-0.767-2.409-1.423c-0.438-2.19-0.656-4.491-0.656-6.79c0-2.409,0.218-4.708,0.656-7.009
					c0.547-0.437,1.095-0.767,1.753-0.985C365.807,209.91,366.902,209.582,368.106,209.582z M447.938,223.598
					c-0.438-0.656-0.765-1.204-0.984-1.751c-0.11-0.219-0.22-0.547-0.22-0.767c-0.108-0.22-0.108-0.548-0.219-0.767l0.658-0.547
					h1.095C448.048,220.861,448.048,222.285,447.938,223.598z M448.048,213.524L448.048,213.524c-0.11-0.328-0.11-0.547-0.11-0.875
					c0.438-0.657,0.986-1.204,1.645-1.643c0.656-0.439,1.313-0.876,2.189-1.206c0.766-0.218,1.532-0.328,2.299-0.218
					c0.768,0.109,1.534,0.109,2.301,0.328c0.766,0.219,1.312,0.437,1.86,0.767c0.548,0.328,0.986,0.656,1.314,0.984
					c0.548,0.658,0.986,1.206,1.205,1.862H448.048L448.048,213.524z"/>
			</g>
			<path fill="none" d="M398.879,200.492c-9.747,0-17.631,8.104-17.631,17.959c0,9.857,7.993,17.96,17.631,17.96
				c9.746,0,17.631-8.104,17.631-17.96C416.51,208.596,408.625,200.492,398.879,200.492z M398.879,233.345
				c-8.104,0-14.785-6.679-14.785-14.894c0-8.213,6.57-14.894,14.785-14.894c8.104,0,14.783,6.681,14.783,14.894
				C413.662,226.555,406.983,233.345,398.879,233.345z"/>
			
				<linearGradient id="SVGID_1_" gradientUnits="userSpaceOnUse" x1="479.469" y1="-236.1721" x2="479.469" y2="-236.1721" gradientTransform="matrix(0.4385 0 0 0.4385 236.048 274.9243)">
				<stop  offset="0.153" style="stop-color:#FBC61A"/>
				<stop  offset="0.5562" style="stop-color:#7A600D"/>
				<stop  offset="0.8496" style="stop-color:#221B04"/>
				<stop  offset="0.9818" style="stop-color:#000000"/>
			</linearGradient>
			<path fill="url(#SVGID_1_)" d="M446.295,171.364"/>
			<g>
				
					<linearGradient id="SVGID_2_" gradientUnits="userSpaceOnUse" x1="997.6272" y1="2575.7273" x2="972.0612" y2="2652.969" gradientTransform="matrix(0.2916 -0.3274 0.3274 0.2916 -749.6878 -246.8229)">
					<stop  offset="0.6915" style="stop-color:#FBC61A"/>
					<stop  offset="0.7223" style="stop-color:#FCCF40"/>
					<stop  offset="0.7736" style="stop-color:#FDDE79"/>
					<stop  offset="0.8232" style="stop-color:#FEEAA9"/>
					<stop  offset="0.8701" style="stop-color:#FEF3CE"/>
					<stop  offset="0.9135" style="stop-color:#FFFAE9"/>
					<stop  offset="0.952" style="stop-color:#FFFEF9"/>
					<stop  offset="0.9818" style="stop-color:#FFFFFF"/>
				</linearGradient>
				<path fill="url(#SVGID_2_)" d="M410.925,205.202l1.862-2.081c-7.995-7.447-19.712-7.228-27.377-0.438l1.862,2.19
					C393.951,198.96,404.244,198.85,410.925,205.202z"/>
				
					<linearGradient id="SVGID_3_" gradientUnits="userSpaceOnUse" x1="1018.8059" y1="2574.2976" x2="994.8405" y2="2646.8474" gradientTransform="matrix(0.2879 -0.3243 0.3241 0.2896 -737.0889 -249.8691)">
					<stop  offset="0.6915" style="stop-color:#FBC61A"/>
					<stop  offset="0.7223" style="stop-color:#FCCF40"/>
					<stop  offset="0.7736" style="stop-color:#FDDE79"/>
					<stop  offset="0.8232" style="stop-color:#FEEAA9"/>
					<stop  offset="0.8701" style="stop-color:#FEF3CE"/>
					<stop  offset="0.9135" style="stop-color:#FFFAE9"/>
					<stop  offset="0.952" style="stop-color:#FFFEF9"/>
					<stop  offset="0.9818" style="stop-color:#FFFFFF"/>
				</linearGradient>
				<path fill="url(#SVGID_3_)" d="M396.141,168.406c8.103-0.438,16.097,0.986,23.326,4.489c4.38,2.081,8.649,4.819,12.373,8.323
					l0.11-0.108c-9.965-8.98-21.902-13.579-35.7-12.923c-10.95,0.547-21.244,4.819-29.349,11.937l0.109,0.11
					C375.115,173.225,385.19,169.063,396.141,168.406z"/>
				
					<linearGradient id="SVGID_4_" gradientUnits="userSpaceOnUse" x1="1003.2512" y1="2574.9763" x2="978.3574" y2="2650.1855" gradientTransform="matrix(0.2916 -0.3274 0.3274 0.2916 -749.6878 -246.8229)">
					<stop  offset="0.6915" style="stop-color:#FBC61A"/>
					<stop  offset="0.7223" style="stop-color:#FCCF40"/>
					<stop  offset="0.7736" style="stop-color:#FDDE79"/>
					<stop  offset="0.8232" style="stop-color:#FEEAA9"/>
					<stop  offset="0.8701" style="stop-color:#FEF3CE"/>
					<stop  offset="0.9135" style="stop-color:#FFFAE9"/>
					<stop  offset="0.952" style="stop-color:#FFFEF9"/>
					<stop  offset="0.9818" style="stop-color:#FFFFFF"/>
				</linearGradient>
				<path fill="url(#SVGID_4_)" d="M415.085,200.492l1.534-1.751c-9.966-9.418-25.077-9.31-34.934-0.439l1.534,1.753
					C392.307,191.951,406.106,191.951,415.085,200.492z"/>
				
					<linearGradient id="SVGID_5_" gradientUnits="userSpaceOnUse" x1="1021.3362" y1="2569.446" x2="997.4111" y2="2641.729" gradientTransform="matrix(0.2916 -0.3274 0.3274 0.2916 -749.6878 -246.8229)">
					<stop  offset="0.6915" style="stop-color:#FBC61A"/>
					<stop  offset="0.7223" style="stop-color:#FCCF40"/>
					<stop  offset="0.7736" style="stop-color:#FDDE79"/>
					<stop  offset="0.8232" style="stop-color:#FEEAA9"/>
					<stop  offset="0.8701" style="stop-color:#FEF3CE"/>
					<stop  offset="0.9135" style="stop-color:#FFFAE9"/>
					<stop  offset="0.952" style="stop-color:#FFFEF9"/>
					<stop  offset="0.9818" style="stop-color:#FFFFFF"/>
				</linearGradient>
				<path fill="url(#SVGID_5_)" d="M396.578,174.758c11.608-0.548,22.23,3.285,31.102,11.28l0.437-0.328
					c-8.869-8.104-19.93-12.047-31.538-11.5c-9.855,0.439-18.835,4.271-26.063,10.623l0.439,0.438
					C378.182,178.92,386.943,175.196,396.578,174.758z"/>
				
					<linearGradient id="SVGID_6_" gradientUnits="userSpaceOnUse" x1="1015.0559" y1="2571.6501" x2="990.9464" y2="2644.4902" gradientTransform="matrix(0.2916 -0.3274 0.3274 0.2916 -749.6878 -246.8229)">
					<stop  offset="0.6915" style="stop-color:#FBC61A"/>
					<stop  offset="0.7223" style="stop-color:#FCCF40"/>
					<stop  offset="0.7736" style="stop-color:#FDDE79"/>
					<stop  offset="0.8232" style="stop-color:#FEEAA9"/>
					<stop  offset="0.8701" style="stop-color:#FEF3CE"/>
					<stop  offset="0.9135" style="stop-color:#FFFAE9"/>
					<stop  offset="0.952" style="stop-color:#FFFEF9"/>
					<stop  offset="0.9818" style="stop-color:#FFFFFF"/>
				</linearGradient>
				<path fill="url(#SVGID_6_)" d="M397.237,181.11c9.855-0.439,18.835,2.957,26.28,9.636l0.768-0.767
					c-7.774-7.007-16.536-10.184-26.72-9.964c-8.542,0.109-17.083,3.833-23.435,9.417l0.766,0.877
					C381.576,184.504,389.133,181.438,397.237,181.11z"/>
				
					<linearGradient id="SVGID_7_" gradientUnits="userSpaceOnUse" x1="1009.2961" y1="2573.4939" x2="984.7976" y2="2647.5103" gradientTransform="matrix(0.2916 -0.3274 0.3274 0.2916 -749.6878 -246.8229)">
					<stop  offset="0.6915" style="stop-color:#FBC61A"/>
					<stop  offset="0.7223" style="stop-color:#FCCF40"/>
					<stop  offset="0.7736" style="stop-color:#FDDE79"/>
					<stop  offset="0.8232" style="stop-color:#FEEAA9"/>
					<stop  offset="0.8701" style="stop-color:#FEF3CE"/>
					<stop  offset="0.9135" style="stop-color:#FFFAE9"/>
					<stop  offset="0.952" style="stop-color:#FFFEF9"/>
					<stop  offset="0.9818" style="stop-color:#FFFFFF"/>
				</linearGradient>
				<path fill="url(#SVGID_7_)" d="M397.345,187.571c8.104-0.438,15.769,2.299,22.122,8.103l1.095-1.313
					c-6.79-6.133-14.784-8.871-23.325-8.543c-7.228,0.329-13.909,3.286-19.273,7.996l1.095,1.312
					C383.766,190.965,390.337,187.899,397.345,187.571z"/>
			</g>
		</g>
	</g>
	<g>
		<path fill="none" d="M398.879,200.384c-9.747,0-17.631,8.104-17.631,17.959c0,9.966,7.993,17.959,17.631,17.959
			c9.746,0,17.631-8.104,17.631-17.959C416.619,208.377,408.625,200.384,398.879,200.384z M398.879,233.236
			c-8.104,0-14.675-6.681-14.675-14.894s6.571-14.894,14.675-14.894s14.674,6.681,14.674,14.894S406.983,233.236,398.879,233.236z"
			/>
	</g>
	<g>
		<g>
			<g>
				<path fill="none" d="M446.187,171.364"/>
				<path fill="#FBC61A" d="M446.187,171.364L446.187,171.364L446.187,171.364z"/>
			</g>
			<g>
				<path fill="none" d="M446.187,171.364"/>
				<path fill="#FBC61A" d="M446.187,171.364L446.187,171.364L446.187,171.364z"/>
			</g>
			<g>
				<path fill="none" d="M446.187,171.364"/>
				<path fill="#FAC51A" d="M446.187,171.364L446.187,171.364L446.187,171.364z"/>
			</g>
			<g>
				<path fill="none" d="M446.187,171.364"/>
				<path fill="#F9C41A" d="M446.187,171.364L446.187,171.364L446.187,171.364z"/>
			</g>
			<g>
				<path fill="none" d="M446.187,171.364"/>
				<path fill="#F8C41A" d="M446.187,171.364L446.187,171.364L446.187,171.364z"/>
			</g>
			<g>
				<path fill="none" d="M446.187,171.364"/>
				<path fill="#F7C31A" d="M446.187,171.364L446.187,171.364L446.187,171.364z"/>
			</g>
			<g>
				<path fill="none" d="M446.187,171.364"/>
				<path fill="#F6C21A" d="M446.187,171.364L446.187,171.364L446.187,171.364z"/>
			</g>
			<g>
				<path fill="none" d="M446.187,171.364"/>
				<path fill="#F4C11A" d="M446.187,171.364L446.187,171.364L446.187,171.364z"/>
			</g>
			<g>
				<path fill="none" d="M446.187,171.364"/>
				<path fill="#F3C01A" d="M446.187,171.364L446.187,171.364L446.187,171.364z"/>
			</g>
			<g>
				<path fill="none" d="M446.187,171.364"/>
				<path fill="#F2BF1A" d="M446.187,171.364L446.187,171.364L446.187,171.364z"/>
			</g>
			<g>
				<path fill="none" d="M446.187,171.364"/>
				<path fill="#F1BF1A" d="M446.187,171.364L446.187,171.364L446.187,171.364z"/>
			</g>
			<g>
				<path fill="none" d="M446.187,171.364"/>
				<path fill="#F0BE1A" d="M446.187,171.364L446.187,171.364L446.187,171.364z"/>
			</g>
			<g>
				<path fill="none" d="M446.187,171.364"/>
				<path fill="#EFBD1A" d="M446.187,171.364L446.187,171.364L446.187,171.364z"/>
			</g>
			<g>
				<path fill="none" d="M446.187,171.364"/>
				<path fill="#EEBC1A" d="M446.187,171.364L446.187,171.364L446.187,171.364z"/>
			</g>
			<g>
				<path fill="none" d="M446.187,171.364"/>
				<path fill="#EDBB1A" d="M446.187,171.364L446.187,171.364L446.187,171.364z"/>
			</g>
			<g>
				<path fill="none" d="M446.187,171.364"/>
				<path fill="#ECBA1A" d="M446.187,171.364L446.187,171.364L446.187,171.364z"/>
			</g>
			<g>
				<path fill="none" d="M446.187,171.364"/>
				<path fill="#EBBA1A" d="M446.187,171.364L446.187,171.364L446.187,171.364z"/>
			</g>
			<g>
				<path fill="none" d="M446.187,171.364"/>
				<path fill="#EAB91A" d="M446.187,171.364L446.187,171.364L446.187,171.364z"/>
			</g>
			<g>
				<path fill="none" d="M446.187,171.364"/>
				<path fill="#E9B81A" d="M446.187,171.364L446.187,171.364L446.187,171.364z"/>
			</g>
			<g>
				<path fill="none" d="M446.187,171.364"/>
				<path fill="#E7B71A" d="M446.187,171.364L446.187,171.364L446.187,171.364z"/>
			</g>
			<g>
				<path fill="none" d="M446.187,171.364"/>
				<path fill="#E6B61A" d="M446.187,171.364L446.187,171.364L446.187,171.364z"/>
			</g>
			<g>
				<path fill="none" d="M446.187,171.364"/>
				<path fill="#E5B61A" d="M446.187,171.364L446.187,171.364L446.187,171.364z"/>
			</g>
			<g>
				<path fill="none" d="M446.187,171.364"/>
				<path fill="#E4B51A" d="M446.187,171.364L446.187,171.364L446.187,171.364z"/>
			</g>
			<g>
				<path fill="none" d="M446.187,171.364"/>
				<path fill="#E3B41A" d="M446.187,171.364L446.187,171.364L446.187,171.364z"/>
			</g>
			<g>
				<path fill="none" d="M446.187,171.364"/>
				<path fill="#E2B31A" d="M446.187,171.364L446.187,171.364L446.187,171.364z"/>
			</g>
			<g>
				<path fill="none" d="M446.187,171.364"/>
				<path fill="#E1B21A" d="M446.187,171.364L446.187,171.364L446.187,171.364z"/>
			</g>
			<g>
				<path fill="none" d="M446.187,171.364"/>
				<path fill="#E0B11A" d="M446.187,171.364L446.187,171.364L446.187,171.364z"/>
			</g>
			<g>
				<path fill="none" d="M446.187,171.364"/>
				<path fill="#DFB11A" d="M446.187,171.364L446.187,171.364L446.187,171.364z"/>
			</g>
			<g>
				<path fill="none" d="M446.187,171.364"/>
				<path fill="#DEB01A" d="M446.187,171.364L446.187,171.364L446.187,171.364z"/>
			</g>
			<g>
				<path fill="none" d="M446.187,171.364"/>
				<path fill="#DDAF1A" d="M446.187,171.364L446.187,171.364L446.187,171.364z"/>
			</g>
			<g>
				<path fill="none" d="M446.187,171.364"/>
				<path fill="#DCAE1A" d="M446.187,171.364L446.187,171.364L446.187,171.364z"/>
			</g>
			<g>
				<path fill="none" d="M446.187,171.364"/>
				<path fill="#DBAD1A" d="M446.187,171.364L446.187,171.364L446.187,171.364z"/>
			</g>
			<g>
				<path fill="none" d="M446.187,171.364"/>
				<path fill="#D9AC1A" d="M446.187,171.364L446.187,171.364L446.187,171.364z"/>
			</g>
			<g>
				<path fill="none" d="M446.187,171.364"/>
				<path fill="#D8AC1A" d="M446.187,171.364L446.187,171.364L446.187,171.364z"/>
			</g>
			<g>
				<path fill="none" d="M446.187,171.364"/>
				<path fill="#D7AB1A" d="M446.187,171.364L446.187,171.364L446.187,171.364z"/>
			</g>
			<g>
				<path fill="none" d="M446.187,171.364"/>
				<path fill="#D6AA1A" d="M446.187,171.364L446.187,171.364L446.187,171.364z"/>
			</g>
			<g>
				<path fill="none" d="M446.187,171.364"/>
				<path fill="#D5A91A" d="M446.187,171.364L446.187,171.364L446.187,171.364z"/>
			</g>
			<g>
				<path fill="none" d="M446.187,171.364"/>
				<path fill="#D4A81A" d="M446.187,171.364L446.187,171.364L446.187,171.364z"/>
			</g>
			<g>
				<path fill="none" d="M446.187,171.364"/>
				<path fill="#D3A81A" d="M446.187,171.364L446.187,171.364L446.187,171.364z"/>
			</g>
			<g>
				<path fill="none" d="M446.187,171.364"/>
				<path fill="#D2A71A" d="M446.187,171.364L446.187,171.364L446.187,171.364z"/>
			</g>
			<g>
				<path fill="none" d="M446.187,171.364"/>
				<path fill="#D1A61A" d="M446.187,171.364L446.187,171.364L446.187,171.364z"/>
			</g>
			<g>
				<path fill="none" d="M446.187,171.364"/>
				<path fill="#D0A51A" d="M446.187,171.364L446.187,171.364L446.187,171.364z"/>
			</g>
			<g>
				<path fill="none" d="M446.187,171.364"/>
				<path fill="#CFA41A" d="M446.187,171.364L446.187,171.364L446.187,171.364z"/>
			</g>
			<g>
				<path fill="none" d="M446.187,171.364"/>
				<path fill="#CEA41A" d="M446.187,171.364L446.187,171.364L446.187,171.364z"/>
			</g>
			<g>
				<path fill="none" d="M446.187,171.364"/>
				<path fill="#CDA31A" d="M446.187,171.364L446.187,171.364L446.187,171.364z"/>
			</g>
			<g>
				<path fill="none" d="M446.187,171.364"/>
				<path fill="#CCA21A" d="M446.187,171.364L446.187,171.364L446.187,171.364z"/>
			</g>
			<g>
				<path fill="none" d="M446.187,171.364"/>
				<path fill="#CAA11A" d="M446.187,171.364L446.187,171.364L446.187,171.364z"/>
			</g>
			<g>
				<path fill="none" d="M446.187,171.364"/>
				<path fill="#C9A01A" d="M446.187,171.364L446.187,171.364L446.187,171.364z"/>
			</g>
			<g>
				<path fill="none" d="M446.187,171.364"/>
				<path fill="#C89F1A" d="M446.187,171.364L446.187,171.364L446.187,171.364z"/>
			</g>
			<g>
				<path fill="none" d="M446.187,171.364"/>
				<path fill="#C79F1A" d="M446.187,171.364L446.187,171.364L446.187,171.364z"/>
			</g>
			<g>
				<path fill="none" d="M446.187,171.364"/>
				<path fill="#C69E1A" d="M446.187,171.364L446.187,171.364L446.187,171.364z"/>
			</g>
			<g>
				<path fill="none" d="M446.187,171.364"/>
				<path fill="#C59D1A" d="M446.187,171.364L446.187,171.364L446.187,171.364z"/>
			</g>
			<g>
				<path fill="none" d="M446.187,171.364"/>
				<path fill="#C49C1A" d="M446.187,171.364L446.187,171.364L446.187,171.364z"/>
			</g>
			<g>
				<path fill="none" d="M446.187,171.364"/>
				<path fill="#C39B1A" d="M446.187,171.364L446.187,171.364L446.187,171.364z"/>
			</g>
			<g>
				<path fill="none" d="M446.187,171.364"/>
				<path fill="#C29B1A" d="M446.187,171.364L446.187,171.364L446.187,171.364z"/>
			</g>
			<g>
				<path fill="none" d="M446.187,171.364"/>
				<path fill="#C19A1A" d="M446.187,171.364L446.187,171.364L446.187,171.364z"/>
			</g>
			<g>
				<path fill="none" d="M446.187,171.364"/>
				<path fill="#C0991A" d="M446.187,171.364L446.187,171.364L446.187,171.364z"/>
			</g>
			<g>
				<path fill="none" d="M446.187,171.364"/>
				<path fill="#BF981A" d="M446.187,171.364L446.187,171.364L446.187,171.364z"/>
			</g>
			<g>
				<path fill="none" d="M446.187,171.364"/>
				<path fill="#BE971A" d="M446.187,171.364L446.187,171.364L446.187,171.364z"/>
			</g>
			<g>
				<path fill="none" d="M446.187,171.364"/>
				<path fill="#BD971A" d="M446.187,171.364L446.187,171.364L446.187,171.364z"/>
			</g>
			<g>
				<path fill="none" d="M446.187,171.364"/>
				<path fill="#BC961A" d="M446.187,171.364L446.187,171.364L446.187,171.364z"/>
			</g>
			<g>
				<path fill="none" d="M446.187,171.364"/>
				<path fill="#BB951A" d="M446.187,171.364L446.187,171.364L446.187,171.364z"/>
			</g>
			<g>
				<path fill="none" d="M446.187,171.364"/>
				<path fill="#B9941A" d="M446.187,171.364L446.187,171.364L446.187,171.364z"/>
			</g>
			<g>
				<path fill="none" d="M446.187,171.364"/>
				<path fill="#B8931A" d="M446.187,171.364L446.187,171.364L446.187,171.364z"/>
			</g>
			<g>
				<path fill="none" d="M446.187,171.364"/>
				<path fill="#B7931A" d="M446.187,171.364L446.187,171.364L446.187,171.364z"/>
			</g>
			<g>
				<path fill="none" d="M446.187,171.364"/>
				<path fill="#B6921A" d="M446.187,171.364L446.187,171.364L446.187,171.364z"/>
			</g>
			<g>
				<path fill="none" d="M446.187,171.364"/>
				<path fill="#B5911A" d="M446.187,171.364L446.187,171.364L446.187,171.364z"/>
			</g>
			<g>
				<path fill="none" d="M446.187,171.364"/>
				<path fill="#B4901A" d="M446.187,171.364L446.187,171.364L446.187,171.364z"/>
			</g>
			<g>
				<path fill="none" d="M446.187,171.364"/>
				<path fill="#B38F1A" d="M446.187,171.364L446.187,171.364L446.187,171.364z"/>
			</g>
			<g>
				<path fill="none" d="M446.187,171.364"/>
				<path fill="#B28E1A" d="M446.187,171.364L446.187,171.364L446.187,171.364z"/>
			</g>
			<g>
				<path fill="none" d="M446.187,171.364"/>
				<path fill="#B18E1A" d="M446.187,171.364L446.187,171.364L446.187,171.364z"/>
			</g>
			<g>
				<path fill="none" d="M446.187,171.364"/>
				<path fill="#B08D1A" d="M446.187,171.364L446.187,171.364L446.187,171.364z"/>
			</g>
			<g>
				<path fill="none" d="M446.187,171.364"/>
				<path fill="#AF8C1A" d="M446.187,171.364L446.187,171.364L446.187,171.364z"/>
			</g>
			<g>
				<path fill="none" d="M446.187,171.364"/>
				<path fill="#AE8B1A" d="M446.187,171.364L446.187,171.364L446.187,171.364z"/>
			</g>
			<g>
				<path fill="none" d="M446.187,171.364"/>
				<path fill="#AD8A1A" d="M446.187,171.364L446.187,171.364L446.187,171.364z"/>
			</g>
			<g>
				<path fill="none" d="M446.187,171.364"/>
				<path fill="#AC8A1A" d="M446.187,171.364L446.187,171.364L446.187,171.364z"/>
			</g>
			<g>
				<path fill="none" d="M446.187,171.364"/>
				<path fill="#AB891A" d="M446.187,171.364L446.187,171.364L446.187,171.364z"/>
			</g>
			<g>
				<path fill="none" d="M446.187,171.364"/>
				<path fill="#AA881A" d="M446.187,171.364L446.187,171.364L446.187,171.364z"/>
			</g>
			<g>
				<path fill="none" d="M446.187,171.364"/>
				<path fill="#A9871A" d="M446.187,171.364L446.187,171.364L446.187,171.364z"/>
			</g>
			<g>
				<path fill="none" d="M446.187,171.364"/>
				<path fill="#A8861A" d="M446.187,171.364L446.187,171.364L446.187,171.364z"/>
			</g>
			<g>
				<path fill="none" d="M446.187,171.364"/>
				<path fill="#A6861A" d="M446.187,171.364L446.187,171.364L446.187,171.364z"/>
			</g>
			<g>
				<path fill="none" d="M446.187,171.364"/>
				<path fill="#A5851A" d="M446.187,171.364L446.187,171.364L446.187,171.364z"/>
			</g>
			<g>
				<path fill="none" d="M446.187,171.364"/>
				<path fill="#A4841A" d="M446.187,171.364L446.187,171.364L446.187,171.364z"/>
			</g>
			<g>
				<path fill="none" d="M446.187,171.364"/>
				<path fill="#A3831A" d="M446.187,171.364L446.187,171.364L446.187,171.364z"/>
			</g>
			<g>
				<path fill="none" d="M446.187,171.364"/>
				<path fill="#A2821A" d="M446.187,171.364L446.187,171.364L446.187,171.364z"/>
			</g>
			<g>
				<path fill="none" d="M446.187,171.364"/>
				<path fill="#A1821A" d="M446.187,171.364L446.187,171.364L446.187,171.364z"/>
			</g>
			<g>
				<path fill="none" d="M446.187,171.364"/>
				<path fill="#A0811A" d="M446.187,171.364L446.187,171.364L446.187,171.364z"/>
			</g>
			<g>
				<path fill="none" d="M446.187,171.364"/>
				<path fill="#9F801A" d="M446.187,171.364L446.187,171.364L446.187,171.364z"/>
			</g>
			<g>
				<path fill="none" d="M446.187,171.364"/>
				<path fill="#9E7F1A" d="M446.187,171.364L446.187,171.364L446.187,171.364z"/>
			</g>
			<g>
				<path fill="none" d="M446.187,171.364"/>
				<path fill="#9D7F1A" d="M446.187,171.364L446.187,171.364L446.187,171.364z"/>
			</g>
			<g>
				<path fill="none" d="M446.187,171.364"/>
				<path fill="#9C7E1A" d="M446.187,171.364L446.187,171.364L446.187,171.364z"/>
			</g>
			<g>
				<path fill="none" d="M446.187,171.364"/>
				<path fill="#9B7D1A" d="M446.187,171.364L446.187,171.364L446.187,171.364z"/>
			</g>
			<g>
				<path fill="none" d="M446.187,171.364"/>
				<path fill="#9A7C1A" d="M446.187,171.364L446.187,171.364L446.187,171.364z"/>
			</g>
			<g>
				<path fill="none" d="M446.187,171.364"/>
				<path fill="#997B1A" d="M446.187,171.364L446.187,171.364L446.187,171.364z"/>
			</g>
			<g>
				<path fill="none" d="M446.187,171.364"/>
				<path fill="#987B1A" d="M446.187,171.364L446.187,171.364L446.187,171.364z"/>
			</g>
			<g>
				<path fill="none" d="M446.187,171.364"/>
				<path fill="#977A1A" d="M446.187,171.364L446.187,171.364L446.187,171.364z"/>
			</g>
			<g>
				<path fill="none" d="M446.187,171.364"/>
				<path fill="#96791A" d="M446.187,171.364L446.187,171.364L446.187,171.364z"/>
			</g>
			<g>
				<path fill="none" d="M446.187,171.364"/>
				<path fill="#95781A" d="M446.187,171.364L446.187,171.364L446.187,171.364z"/>
			</g>
			<g>
				<path fill="none" d="M446.187,171.364"/>
				<path fill="#94771A" d="M446.187,171.364L446.187,171.364L446.187,171.364z"/>
			</g>
			<g>
				<path fill="none" d="M446.187,171.364"/>
				<path fill="#93771A" d="M446.187,171.364L446.187,171.364L446.187,171.364z"/>
			</g>
			<g>
				<path fill="none" d="M446.187,171.364"/>
				<path fill="#92761A" d="M446.187,171.364L446.187,171.364L446.187,171.364z"/>
			</g>
			<g>
				<path fill="none" d="M446.187,171.364"/>
				<path fill="#91751A" d="M446.187,171.364L446.187,171.364L446.187,171.364z"/>
			</g>
			<g>
				<path fill="none" d="M446.187,171.364"/>
				<path fill="#90741A" d="M446.187,171.364L446.187,171.364L446.187,171.364z"/>
			</g>
			<g>
				<path fill="none" d="M446.187,171.364"/>
				<path fill="#8F731A" d="M446.187,171.364L446.187,171.364L446.187,171.364z"/>
			</g>
			<g>
				<path fill="none" d="M446.187,171.364"/>
				<path fill="#8E731A" d="M446.187,171.364L446.187,171.364L446.187,171.364z"/>
			</g>
			<g>
				<path fill="none" d="M446.187,171.364"/>
				<path fill="#8C721A" d="M446.187,171.364L446.187,171.364L446.187,171.364z"/>
			</g>
			<g>
				<path fill="none" d="M446.187,171.364"/>
				<path fill="#8B711B" d="M446.187,171.364L446.187,171.364L446.187,171.364z"/>
			</g>
			<g>
				<path fill="none" d="M446.187,171.364"/>
				<path fill="#8A701B" d="M446.187,171.364L446.187,171.364L446.187,171.364z"/>
			</g>
			<g>
				<path fill="none" d="M446.187,171.364"/>
				<path fill="#89701B" d="M446.187,171.364L446.187,171.364L446.187,171.364z"/>
			</g>
			<g>
				<path fill="none" d="M446.187,171.364"/>
				<path fill="#886F1B" d="M446.187,171.364L446.187,171.364L446.187,171.364z"/>
			</g>
			<g>
				<path fill="none" d="M446.187,171.364"/>
				<path fill="#876E1B" d="M446.187,171.364L446.187,171.364L446.187,171.364z"/>
			</g>
			<g>
				<path fill="none" d="M446.187,171.364"/>
				<path fill="#866D1B" d="M446.187,171.364L446.187,171.364L446.187,171.364z"/>
			</g>
			<g>
				<path fill="none" d="M446.187,171.364"/>
				<path fill="#856C1B" d="M446.187,171.364L446.187,171.364L446.187,171.364z"/>
			</g>
			<g>
				<path fill="none" d="M446.187,171.364"/>
				<path fill="#846C1B" d="M446.187,171.364L446.187,171.364L446.187,171.364z"/>
			</g>
			<g>
				<path fill="none" d="M446.187,171.364"/>
				<path fill="#836B1B" d="M446.187,171.364L446.187,171.364L446.187,171.364z"/>
			</g>
			<g>
				<path fill="none" d="M446.187,171.364"/>
				<path fill="#826A1B" d="M446.187,171.364L446.187,171.364L446.187,171.364z"/>
			</g>
			<g>
				<path fill="none" d="M446.187,171.364"/>
				<path fill="#81691B" d="M446.187,171.364L446.187,171.364L446.187,171.364z"/>
			</g>
			<g>
				<path fill="none" d="M446.187,171.364"/>
				<path fill="#80681B" d="M446.187,171.364L446.187,171.364L446.187,171.364z"/>
			</g>
			<g>
				<path fill="none" d="M446.187,171.364"/>
				<path fill="#7F681B" d="M446.187,171.364L446.187,171.364L446.187,171.364z"/>
			</g>
			<g>
				<path fill="none" d="M446.187,171.364"/>
				<path fill="#7E671B" d="M446.187,171.364L446.187,171.364L446.187,171.364z"/>
			</g>
			<g>
				<path fill="none" d="M446.187,171.364"/>
				<path fill="#7D661B" d="M446.187,171.364L446.187,171.364L446.187,171.364z"/>
			</g>
			<g>
				<path fill="none" d="M446.187,171.364"/>
				<path fill="#7C651B" d="M446.187,171.364L446.187,171.364L446.187,171.364z"/>
			</g>
			<g>
				<path fill="none" d="M446.187,171.364"/>
				<path fill="#7B651B" d="M446.187,171.364L446.187,171.364L446.187,171.364z"/>
			</g>
			<g>
				<path fill="none" d="M446.187,171.364"/>
				<path fill="#7A641B" d="M446.187,171.364L446.187,171.364L446.187,171.364z"/>
			</g>
			<g>
				<path fill="none" d="M446.187,171.364"/>
				<path fill="#79631B" d="M446.187,171.364L446.187,171.364L446.187,171.364z"/>
			</g>
			<g>
				<path fill="none" d="M446.187,171.364"/>
				<path fill="#78621B" d="M446.187,171.364L446.187,171.364L446.187,171.364z"/>
			</g>
			<g>
				<path fill="none" d="M446.187,171.364"/>
				<path fill="#77621B" d="M446.187,171.364L446.187,171.364L446.187,171.364z"/>
			</g>
			<g>
				<path fill="none" d="M446.187,171.364"/>
				<path fill="#76611B" d="M446.187,171.364L446.187,171.364L446.187,171.364z"/>
			</g>
			<g>
				<path fill="none" d="M446.187,171.364"/>
				<path fill="#75601B" d="M446.187,171.364L446.187,171.364L446.187,171.364z"/>
			</g>
			<g>
				<path fill="none" d="M446.187,171.364"/>
				<path fill="#745F1B" d="M446.187,171.364L446.187,171.364L446.187,171.364z"/>
			</g>
			<g>
				<path fill="none" d="M446.187,171.364"/>
				<path fill="#735E1B" d="M446.187,171.364L446.187,171.364L446.187,171.364z"/>
			</g>
			<g>
				<path fill="none" d="M446.187,171.364"/>
				<path fill="#725E1B" d="M446.187,171.364L446.187,171.364L446.187,171.364z"/>
			</g>
			<g>
				<path fill="none" d="M446.187,171.364"/>
				<path fill="#715D1B" d="M446.187,171.364L446.187,171.364L446.187,171.364z"/>
			</g>
			<g>
				<path fill="none" d="M446.187,171.364"/>
				<path fill="#705C1B" d="M446.187,171.364L446.187,171.364L446.187,171.364z"/>
			</g>
			<g>
				<path fill="none" d="M446.187,171.364"/>
				<path fill="#6F5B1B" d="M446.187,171.364L446.187,171.364L446.187,171.364z"/>
			</g>
			<g>
				<path fill="none" d="M446.187,171.364"/>
				<path fill="#6E5B1B" d="M446.187,171.364L446.187,171.364L446.187,171.364z"/>
			</g>
			<g>
				<path fill="none" d="M446.187,171.364"/>
				<path fill="#6D5A1B" d="M446.187,171.364L446.187,171.364L446.187,171.364z"/>
			</g>
			<g>
				<path fill="none" d="M446.187,171.364"/>
				<path fill="#6C591B" d="M446.187,171.364L446.187,171.364L446.187,171.364z"/>
			</g>
			<g>
				<path fill="none" d="M446.187,171.364"/>
				<path fill="#6B581B" d="M446.187,171.364L446.187,171.364L446.187,171.364z"/>
			</g>
			<g>
				<path fill="none" d="M446.187,171.364"/>
				<path fill="#6A581B" d="M446.187,171.364L446.187,171.364L446.187,171.364z"/>
			</g>
			<g>
				<path fill="none" d="M446.187,171.364"/>
				<path fill="#69571B" d="M446.187,171.364L446.187,171.364L446.187,171.364z"/>
			</g>
			<g>
				<path fill="none" d="M446.187,171.364"/>
				<path fill="#68561B" d="M446.187,171.364L446.187,171.364L446.187,171.364z"/>
			</g>
			<g>
				<path fill="none" d="M446.187,171.364"/>
				<path fill="#67551B" d="M446.187,171.364L446.187,171.364L446.187,171.364z"/>
			</g>
			<g>
				<path fill="none" d="M446.187,171.364"/>
				<path fill="#66541B" d="M446.187,171.364L446.187,171.364L446.187,171.364z"/>
			</g>
			<g>
				<path fill="none" d="M446.187,171.364"/>
				<path fill="#65541B" d="M446.187,171.364L446.187,171.364L446.187,171.364z"/>
			</g>
			<g>
				<path fill="none" d="M446.187,171.364"/>
				<path fill="#64531B" d="M446.187,171.364L446.187,171.364L446.187,171.364z"/>
			</g>
			<g>
				<path fill="none" d="M446.187,171.364"/>
				<path fill="#63521B" d="M446.187,171.364L446.187,171.364L446.187,171.364z"/>
			</g>
			<g>
				<path fill="none" d="M446.187,171.364"/>
				<path fill="#62511B" d="M446.187,171.364L446.187,171.364L446.187,171.364z"/>
			</g>
			<g>
				<path fill="none" d="M446.187,171.364"/>
				<path fill="#61511B" d="M446.187,171.364L446.187,171.364L446.187,171.364z"/>
			</g>
			<g>
				<path fill="none" d="M446.187,171.364"/>
				<path fill="#60501B" d="M446.187,171.364L446.187,171.364L446.187,171.364z"/>
			</g>
			<g>
				<path fill="none" d="M446.187,171.364"/>
				<path fill="#5F4F1B" d="M446.187,171.364L446.187,171.364L446.187,171.364z"/>
			</g>
			<g>
				<path fill="none" d="M446.187,171.364"/>
				<path fill="#5E4E1B" d="M446.187,171.364L446.187,171.364L446.187,171.364z"/>
			</g>
			<g>
				<path fill="none" d="M446.187,171.364"/>
				<path fill="#5D4E1B" d="M446.187,171.364L446.187,171.364L446.187,171.364z"/>
			</g>
			<g>
				<path fill="none" d="M446.187,171.364"/>
				<path fill="#5C4D1B" d="M446.187,171.364L446.187,171.364L446.187,171.364z"/>
			</g>
			<g>
				<path fill="none" d="M446.187,171.364"/>
				<path fill="#5B4C1B" d="M446.187,171.364L446.187,171.364L446.187,171.364z"/>
			</g>
			<g>
				<path fill="none" d="M446.187,171.364"/>
				<path fill="#5A4B1B" d="M446.187,171.364L446.187,171.364L446.187,171.364z"/>
			</g>
			<g>
				<path fill="none" d="M446.187,171.364"/>
				<path fill="#594B1B" d="M446.187,171.364L446.187,171.364L446.187,171.364z"/>
			</g>
			<g>
				<path fill="none" d="M446.187,171.364"/>
				<path fill="#584A1B" d="M446.187,171.364L446.187,171.364L446.187,171.364z"/>
			</g>
			<g>
				<path fill="none" d="M446.187,171.364"/>
				<path fill="#57491B" d="M446.187,171.364L446.187,171.364L446.187,171.364z"/>
			</g>
			<g>
				<path fill="none" d="M446.187,171.364"/>
				<path fill="#56481B" d="M446.187,171.364L446.187,171.364L446.187,171.364z"/>
			</g>
			<g>
				<path fill="none" d="M446.187,171.364"/>
				<path fill="#55481B" d="M446.187,171.364L446.187,171.364L446.187,171.364z"/>
			</g>
			<g>
				<path fill="none" d="M446.187,171.364"/>
				<path fill="#54471B" d="M446.187,171.364L446.187,171.364L446.187,171.364z"/>
			</g>
			<g>
				<path fill="none" d="M446.187,171.364"/>
				<path fill="#53461B" d="M446.187,171.364L446.187,171.364L446.187,171.364z"/>
			</g>
			<g>
				<path fill="none" d="M446.187,171.364"/>
				<path fill="#52451B" d="M446.187,171.364L446.187,171.364L446.187,171.364z"/>
			</g>
			<g>
				<path fill="none" d="M446.187,171.364"/>
				<path fill="#51451B" d="M446.187,171.364L446.187,171.364L446.187,171.364z"/>
			</g>
			<g>
				<path fill="none" d="M446.187,171.364"/>
				<path fill="#50441B" d="M446.187,171.364L446.187,171.364L446.187,171.364z"/>
			</g>
			<g>
				<path fill="none" d="M446.187,171.364"/>
				<path fill="#4F431B" d="M446.187,171.364L446.187,171.364L446.187,171.364z"/>
			</g>
			<g>
				<path fill="none" d="M446.187,171.364"/>
				<path fill="#4E421B" d="M446.187,171.364L446.187,171.364L446.187,171.364z"/>
			</g>
			<g>
				<path fill="none" d="M446.187,171.364"/>
				<path fill="#4D421B" d="M446.187,171.364L446.187,171.364L446.187,171.364z"/>
			</g>
			<g>
				<path fill="none" d="M446.187,171.364"/>
				<path fill="#4C411B" d="M446.187,171.364L446.187,171.364L446.187,171.364z"/>
			</g>
			<g>
				<path fill="none" d="M446.187,171.364"/>
				<path fill="#4B401B" d="M446.187,171.364L446.187,171.364L446.187,171.364z"/>
			</g>
			<g>
				<path fill="none" d="M446.187,171.364"/>
				<path fill="#4A401B" d="M446.187,171.364L446.187,171.364L446.187,171.364z"/>
			</g>
			<g>
				<path fill="none" d="M446.187,171.364"/>
				<path fill="#493F1B" d="M446.187,171.364L446.187,171.364L446.187,171.364z"/>
			</g>
			<g>
				<path fill="none" d="M446.187,171.364"/>
				<path fill="#483E1B" d="M446.187,171.364L446.187,171.364L446.187,171.364z"/>
			</g>
			<g>
				<path fill="none" d="M446.187,171.364"/>
				<path fill="#473D1B" d="M446.187,171.364L446.187,171.364L446.187,171.364z"/>
			</g>
			<g>
				<path fill="none" d="M446.187,171.364"/>
				<path fill="#473D1B" d="M446.187,171.364L446.187,171.364L446.187,171.364z"/>
			</g>
			<g>
				<path fill="none" d="M446.187,171.364"/>
				<path fill="#463C1B" d="M446.187,171.364L446.187,171.364L446.187,171.364z"/>
			</g>
			<g>
				<path fill="none" d="M446.187,171.364"/>
				<path fill="#453B1B" d="M446.187,171.364L446.187,171.364L446.187,171.364z"/>
			</g>
			<g>
				<path fill="none" d="M446.187,171.364"/>
				<path fill="#443A1B" d="M446.187,171.364L446.187,171.364L446.187,171.364z"/>
			</g>
			<g>
				<path fill="none" d="M446.187,171.364"/>
				<path fill="#433A1B" d="M446.187,171.364L446.187,171.364L446.187,171.364z"/>
			</g>
			<g>
				<path fill="none" d="M446.187,171.364"/>
				<path fill="#42391B" d="M446.187,171.364L446.187,171.364L446.187,171.364z"/>
			</g>
			<g>
				<path fill="none" d="M446.187,171.364"/>
				<path fill="#41381B" d="M446.187,171.364L446.187,171.364L446.187,171.364z"/>
			</g>
			<g>
				<path fill="none" d="M446.187,171.364"/>
				<path fill="#40381B" d="M446.187,171.364L446.187,171.364L446.187,171.364z"/>
			</g>
			<g>
				<path fill="none" d="M446.187,171.364"/>
				<path fill="#3F371B" d="M446.187,171.364L446.187,171.364L446.187,171.364z"/>
			</g>
			<g>
				<path fill="none" d="M446.187,171.364"/>
				<path fill="#3E361B" d="M446.187,171.364L446.187,171.364L446.187,171.364z"/>
			</g>
			<g>
				<path fill="none" d="M446.187,171.364"/>
				<path fill="#3D351B" d="M446.187,171.364L446.187,171.364L446.187,171.364z"/>
			</g>
			<g>
				<path fill="none" d="M446.187,171.364"/>
				<path fill="#3C351B" d="M446.187,171.364L446.187,171.364L446.187,171.364z"/>
			</g>
			<g>
				<path fill="none" d="M446.187,171.364"/>
				<path fill="#3B341B" d="M446.187,171.364L446.187,171.364L446.187,171.364z"/>
			</g>
			<g>
				<path fill="none" d="M446.187,171.364"/>
				<path fill="#3A331B" d="M446.187,171.364L446.187,171.364L446.187,171.364z"/>
			</g>
			<g>
				<path fill="none" d="M446.187,171.364"/>
				<path fill="#39331B" d="M446.187,171.364L446.187,171.364L446.187,171.364z"/>
			</g>
			<g>
				<path fill="none" d="M446.187,171.364"/>
				<path fill="#38321B" d="M446.187,171.364L446.187,171.364L446.187,171.364z"/>
			</g>
			<g>
				<path fill="none" d="M446.187,171.364"/>
				<path fill="#37311B" d="M446.187,171.364L446.187,171.364L446.187,171.364z"/>
			</g>
			<g>
				<path fill="none" d="M446.187,171.364"/>
				<path fill="#37301B" d="M446.187,171.364L446.187,171.364L446.187,171.364z"/>
			</g>
			<g>
				<path fill="none" d="M446.187,171.364"/>
				<path fill="#36301B" d="M446.187,171.364L446.187,171.364L446.187,171.364z"/>
			</g>
			<g>
				<path fill="none" d="M446.187,171.364"/>
				<path fill="#352F1B" d="M446.187,171.364L446.187,171.364L446.187,171.364z"/>
			</g>
			<g>
				<path fill="none" d="M446.187,171.364"/>
				<path fill="#342E1B" d="M446.187,171.364L446.187,171.364L446.187,171.364z"/>
			</g>
			<g>
				<path fill="none" d="M446.187,171.364"/>
				<path fill="#332E1B" d="M446.187,171.364L446.187,171.364L446.187,171.364z"/>
			</g>
			<g>
				<path fill="none" d="M446.187,171.364"/>
				<path fill="#322D1B" d="M446.187,171.364L446.187,171.364L446.187,171.364z"/>
			</g>
			<g>
				<path fill="none" d="M446.187,171.364"/>
				<path fill="#312C1B" d="M446.187,171.364L446.187,171.364L446.187,171.364z"/>
			</g>
			<g>
				<path fill="none" d="M446.187,171.364"/>
				<path fill="#302C1B" d="M446.187,171.364L446.187,171.364L446.187,171.364z"/>
			</g>
			<g>
				<path fill="none" d="M446.187,171.364"/>
				<path fill="#2F2B1B" d="M446.187,171.364L446.187,171.364L446.187,171.364z"/>
			</g>
			<g>
				<path fill="none" d="M446.187,171.364"/>
				<path fill="#2E2A1B" d="M446.187,171.364L446.187,171.364L446.187,171.364z"/>
			</g>
			<g>
				<path fill="none" d="M446.187,171.364"/>
				<path fill="#2D2A1B" d="M446.187,171.364L446.187,171.364L446.187,171.364z"/>
			</g>
			<g>
				<path fill="none" d="M446.187,171.364"/>
				<path fill="#2D291B" d="M446.187,171.364L446.187,171.364L446.187,171.364z"/>
			</g>
			<g>
				<path fill="none" d="M446.187,171.364"/>
				<path fill="#2C281B" d="M446.187,171.364L446.187,171.364L446.187,171.364z"/>
			</g>
			<g>
				<path fill="none" d="M446.187,171.364"/>
				<path fill="#2B281B" d="M446.187,171.364L446.187,171.364L446.187,171.364z"/>
			</g>
			<g>
				<path fill="none" d="M446.187,171.364"/>
				<path fill="#2A271B" d="M446.187,171.364L446.187,171.364L446.187,171.364z"/>
			</g>
			<g>
				<path fill="none" d="M446.187,171.364"/>
				<path fill="#29261B" d="M446.187,171.364L446.187,171.364L446.187,171.364z"/>
			</g>
			<g>
				<path fill="none" d="M446.187,171.364"/>
				<path fill="#28261B" d="M446.187,171.364L446.187,171.364L446.187,171.364z"/>
			</g>
			<g>
				<path fill="none" d="M446.187,171.364"/>
				<path fill="#27251B" d="M446.187,171.364L446.187,171.364L446.187,171.364z"/>
			</g>
			<g>
				<path fill="none" d="M446.187,171.364"/>
				<path fill="#26241B" d="M446.187,171.364L446.187,171.364L446.187,171.364z"/>
			</g>
			<g>
				<path fill="none" d="M446.187,171.364"/>
				<path fill="#26241B" d="M446.187,171.364L446.187,171.364L446.187,171.364z"/>
			</g>
			<g>
				<path fill="none" d="M446.187,171.364"/>
				<path fill="#25231B" d="M446.187,171.364L446.187,171.364L446.187,171.364z"/>
			</g>
			<g>
				<path fill="none" d="M446.187,171.364"/>
				<path fill="#24221B" d="M446.187,171.364L446.187,171.364L446.187,171.364z"/>
			</g>
			<g>
				<path fill="none" d="M446.187,171.364"/>
				<path fill="#23221B" d="M446.187,171.364L446.187,171.364L446.187,171.364z"/>
			</g>
			<g>
				<path fill="none" d="M446.187,171.364"/>
				<path fill="#22211B" d="M446.187,171.364L446.187,171.364L446.187,171.364z"/>
			</g>
			<g>
				<path fill="none" d="M446.187,171.364"/>
				<path fill="#21201B" d="M446.187,171.364L446.187,171.364L446.187,171.364z"/>
			</g>
			<g>
				<path fill="none" d="M446.187,171.364"/>
				<path fill="#21201B" d="M446.187,171.364L446.187,171.364L446.187,171.364z"/>
			</g>
			<g>
				<path fill="none" d="M446.187,171.364"/>
				<path fill="#201F1B" d="M446.187,171.364L446.187,171.364L446.187,171.364z"/>
			</g>
			<g>
				<path fill="none" d="M446.187,171.364"/>
				<path fill="#1F1F1B" d="M446.187,171.364L446.187,171.364L446.187,171.364z"/>
			</g>
			<g>
				<path fill="none" d="M446.187,171.364"/>
				<path fill="#1E1E1B" d="M446.187,171.364L446.187,171.364L446.187,171.364z"/>
			</g>
			<g>
				<path fill="none" d="M446.187,171.364"/>
				<path fill="#1E1D1B" d="M446.187,171.364L446.187,171.364L446.187,171.364z"/>
			</g>
			<g>
				<path fill="none" d="M446.187,171.364"/>
				<path fill="#1D1D1B" d="M446.187,171.364L446.187,171.364L446.187,171.364z"/>
			</g>
			<g>
				<path fill="none" d="M446.187,171.364"/>
				<path fill="#1D1D1B" d="M446.187,171.364L446.187,171.364L446.187,171.364z"/>
			</g>
		</g>
	</g>
	<g>
		<path fill="#FFFFFF" d="M579.24,189.214c-9.09,0-11.28,3.285-11.28,7.555v3.287c0,3.614,2.629,5.584,4.819,6.46l13.031,5.038
			c2.737,0.986,6.022,3.504,6.022,7.556v5.914c0,4.928-2.737,8.541-12.593,8.541c-9.856,0-12.595-3.613-12.595-8.541v-3.067
			c0-0.218,0.11-0.437,0.439-0.437h0.219c0.218,0,0.438,0.109,0.438,0.437v3.067c0,4.27,2.409,7.555,11.499,7.555
			c9.089,0,11.606-3.285,11.606-7.555v-5.914c0-3.613-2.846-5.585-5.364-6.68l-13.031-5.037c-2.41-0.877-5.478-3.176-5.478-7.337
			v-3.287c0-4.927,2.41-8.541,12.267-8.541c9.855,0,12.265,3.613,12.265,8.541v3.505c0,0.219-0.11,0.438-0.438,0.438h-0.22
			c-0.218,0-0.437-0.109-0.437-0.438v-3.505C590.41,192.499,588.329,189.214,579.24,189.214z"/>
		<path fill="#FFFFFF" d="M624.138,216.153c0,0.219-0.107,0.438-0.438,0.438h-20.038v9.745c0,3.615,2.079,6.352,9.746,6.352
			c7.665,0,9.745-2.737,9.745-6.352v-1.86c0-0.22,0.11-0.439,0.438-0.439h0.219c0.221,0,0.439,0.109,0.439,0.439v1.86
			c0,4.162-2.301,7.228-10.733,7.228c-8.432,0-10.732-3.066-10.732-7.228v-18.288c0-4.161,2.301-7.228,10.732-7.228
			c8.433,0,10.733,3.067,10.733,7.228L624.138,216.153L624.138,216.153z M603.77,215.496h19.383v-7.556
			c0-3.615-2.08-6.353-9.745-6.353c-7.667,0-9.746,2.738-9.746,6.353L603.77,215.496L603.77,215.496z"/>
		<path fill="#FFFFFF" d="M648.231,201.04v0.438c0,0.219-0.22,0.328-0.438,0.328c-4.928,0-9.965,3.504-11.607,4.928v25.954
			c0,0.219-0.11,0.438-0.438,0.438h-0.219c-0.22,0-0.438-0.109-0.438-0.438v-31.21c0-0.22,0.111-0.438,0.438-0.438h0.108
			c0.22,0,0.438,0.11,0.438,0.438l0.11,4.052c2.08-1.643,6.68-4.928,11.607-4.928C648.122,200.712,648.231,200.821,648.231,201.04z"
			/>
		<path fill="#FFFFFF" d="M657.102,194.361c0,0.218-0.11,0.437-0.439,0.437h-0.219c-0.22,0-0.438-0.109-0.438-0.437v-6.461
			c0-0.219,0.109-0.438,0.438-0.438h0.219c0.22,0,0.439,0.11,0.439,0.438V194.361z M657.102,232.688c0,0.219-0.11,0.438-0.439,0.438
			h-0.219c-0.22,0-0.438-0.109-0.438-0.438v-31.101c0-0.219,0.109-0.437,0.438-0.437h0.219c0.22,0,0.439,0.108,0.439,0.437V232.688z
			"/>
		<path fill="#FFFFFF" d="M690.282,216.153c0,0.219-0.109,0.438-0.439,0.438h-19.93v9.745c0,3.615,2.081,6.352,9.747,6.352
			c7.556,0,9.746-2.737,9.746-6.352v-1.86c0-0.22,0.109-0.439,0.437-0.439h0.22c0.22,0,0.439,0.109,0.439,0.439v1.86
			c0,4.162-2.302,7.228-10.733,7.228s-10.73-3.066-10.73-7.228v-18.288c0-4.161,2.299-7.228,10.73-7.228s10.733,3.067,10.733,7.228
			L690.282,216.153L690.282,216.153z M669.803,215.496h19.384v-7.556c0-3.615-2.081-6.353-9.746-6.353
			c-7.557,0-9.746,2.738-9.746,6.353L669.803,215.496L669.803,215.496z"/>
		<path fill="#FFFFFF" d="M719.412,206.953c0-3.065-2.629-5.475-9.309-5.475c-6.682,0-9.199,2.299-9.199,5.475v2.738
			c0,2.738,2.518,4.38,4.38,4.928l10.514,2.957c2.518,0.767,5.146,2.628,5.146,5.585v3.941c0,3.615-3.285,6.353-10.841,6.353
			c-7.445,0-10.623-2.738-10.623-6.353v-1.97c0-0.22,0.109-0.329,0.438-0.329h0.329c0.219,0,0.328,0.109,0.328,0.329v1.97
			c0,3.176,2.846,5.475,9.636,5.475c6.789,0,9.746-2.299,9.746-5.475v-3.833c0-2.629-2.299-4.052-4.6-4.708l-10.512-3.066
			c-2.081-0.658-5.037-2.52-5.037-5.805v-2.738c0-3.613,2.956-6.351,10.294-6.351c7.228,0,10.294,2.627,10.294,6.351v2.41
			c0,0.219-0.109,0.328-0.439,0.328h-0.328c-0.218,0-0.328-0.109-0.328-0.328v-2.41H719.412z"/>
	</g>
	<g>
		<path fill="#FFFFFF" d="M148.213,188.884c0.219,0,0.437,0.11,0.437,0.438v0.219c0,0.22-0.109,0.438-0.437,0.438H135.29v42.818
			c0,0.219-0.108,0.439-0.438,0.439h-0.217c-0.219,0-0.438-0.11-0.438-0.439V189.87h-12.812c-0.219,0-0.438-0.108-0.438-0.438
			v-0.218c0-0.219,0.11-0.438,0.438-0.438L148.213,188.884L148.213,188.884z"/>
		<path fill="#FFFFFF" d="M157.412,204.763c1.862-1.534,5.912-4.161,11.717-4.161c6.131,0,8.651,3.066,8.651,7.227v24.749
			c0,0.219-0.11,0.438-0.438,0.438h-0.22c-0.218,0-0.437-0.109-0.437-0.438v-24.749c0-3.613-2.3-6.351-7.667-6.351
			c-6.132,0-10.184,3.066-11.718,4.38v26.719c0,0.219-0.108,0.438-0.437,0.438h-0.219c-0.219,0-0.439-0.109-0.439-0.438v-44.679
			c0-0.219,0.11-0.438,0.439-0.438h0.219c0.218,0,0.437,0.11,0.437,0.438L157.412,204.763L157.412,204.763z"/>
		<path fill="#FFFFFF" d="M210.742,216.153c0,0.219-0.109,0.438-0.437,0.438h-20.041v9.745c0,3.615,2.079,6.352,9.747,6.352
			c7.556,0,9.746-2.737,9.746-6.352v-1.86c0-0.22,0.109-0.439,0.438-0.439h0.219c0.219,0,0.438,0.109,0.438,0.439v1.86
			c0,4.162-2.3,7.228-10.732,7.228s-10.731-3.066-10.731-7.228v-18.288c0-4.161,2.299-7.228,10.731-7.228s10.732,3.067,10.732,7.228
			L210.742,216.153L210.742,216.153z M190.264,215.496h19.382v-7.556c0-3.615-2.079-6.353-9.746-6.353
			c-7.557,0-9.747,2.738-9.747,6.353L190.264,215.496L190.264,215.496z"/>
	</g>
</g>
</svg>
