<?xml version="1.0" encoding="utf-8"?>
<!-- Generator: Adobe Illustrator 18.1.1, SVG Export Plug-In . SVG Version: 6.00 Build 0)  -->
<svg version="1.1" id="Layer_1" xmlns="http://www.w3.org/2000/svg" xmlns:xlink="http://www.w3.org/1999/xlink" x="0px" y="0px"
	 viewBox="0 0 2466.1 8503.9" enable-background="new 0 0 2466.1 8503.9" xml:space="preserve">
<g>
	<g>
		<path fill="#595758" d="M1102.3,4064.6c-48.9-50.1-114.2-77.3-183.7-77.3s-134.7,27.5-183.7,77.3
			c-48.9,49.8-75.9,116.6-75.9,186.9c0,70.6,26.9,136.8,75.9,186.9c48.9,50.1,114.2,77.3,183.7,77.3s134.7-27.5,183.7-77.3
			c48.9-50.1,75.9-116.6,75.9-186.9C1178.1,4180.9,1151.5,4114.7,1102.3,4064.6z M1101.7,4438.1c-48.9,50.1-113.9,77-183.4,77
			s-134.5-27.5-183.4-77c-48.9-50.1-75.9-116-75.9-186.6c0-70.3,26.9-136.5,75.9-186.6c49.2-49.5,113.9-77,183.4-77
			s134.5,27.5,183.4,77c48.9,50.1,75.9,116,75.9,186.6C1177.6,4321.8,1150.6,4388,1101.7,4438.1z"/>
		<path fill="#595758" d="M1080.3,4086.9c-43.4-43.9-100.5-68.3-161.7-68.3S800,4043,756.9,4086.9c-31.9,32.2-53,72.9-62.4,116.9
			c-2.9,3.5-5.3,7.3-7.3,11.1c-5.3,10.3-8.2,22.6-8.2,36.3c0,8.8,1.5,17.3,3.8,25.2c2.3,7,5.9,13.8,10.8,20.5
			c8.8,45.1,30.2,86.4,62.7,119.5c43.4,43.9,100.5,68.3,161.7,68.3c61.2,0,118.6-24.3,161.7-68.3c43.4-43.9,67.1-102.8,67.1-164.9
			C1147.7,4189.4,1123.7,4130.8,1080.3,4086.9z M1078.3,4414.4c-42.5,43.6-99.6,67.7-159.6,67.7c-60.6,0-117.2-24-159.6-67.7
			c-30.5-31.3-51.3-70-60.6-111.9c4.7,5.3,10,10,15.8,13.8c6.4,3.8,12.6,7,19.6,9.4c10,25.8,24.9,48.9,44.2,68.8
			c37.8,38.4,87.3,59.2,140.3,59.2s103.1-21.1,140.3-59.2c37.8-38.4,58-89,58-142.9c0-10-0.6-19.6-2.1-29.3l16.1-46.9h-28.4
			c-10-24.6-24.6-47.5-43.6-66.8c-37.8-38.4-87.3-59.2-140.3-59.2s-103.1,21.1-140.3,59.2c-19.3,19.6-34.6,43.1-44.2,68.3
			c-9.4,2.9-17.9,6.7-25.8,12.6c-3.5,2.3-6.7,5.6-9.4,8.8c9.4-41.3,29.9-78.8,60-109.6c42.5-43.9,99.3-68,159.6-68
			s117.2,24,159.6,67.7c42.5,43.6,66.2,101.4,66.2,162.6C1144.8,4313,1121.3,4370.8,1078.3,4414.4z M765.4,4206.1
			c5,1.2,10,2.9,14.6,5.6c1.8,1.2,3.5,2.1,5,3.5c-3.2,11.7-4.7,23.4-4.7,36c0,12.3,1.5,24,4.7,35.4c-1.5,1.2-2.3,2.1-3.8,3.2
			c-4.7,3.5-10,5.6-15.5,6.7c-4.1-14.4-6.4-29.9-6.4-45.4C759.3,4236,761.3,4221.1,765.4,4206.1z M918.6,4361.4
			c56.2,0,102.8-44.2,107.2-100.2l11.7,33.7c-17.6,49.5-64.2,85.5-118.9,85.5c-48.6,0-90.5-28.1-111.6-68.8c5-4.1,9.4-9.1,13.8-14.4
			C837.2,4334.7,875,4361.4,918.6,4361.4z M825.8,4251.5c0-52.1,41.6-94.3,92.9-94.3c51,0,92.9,42.2,92.9,94.3s-41.6,94.3-92.9,94.3
			C867.6,4346.1,825.8,4303.7,825.8,4251.5z M996.5,4175.7l0.3,1.2c-19.6-21.1-47.5-34.6-78.5-34.6c-43.4,0-80.8,26.4-97.8,64.2
			c-3.8-5.6-8.5-10.5-13.8-14.4c21.1-40.7,63.3-68.5,111.6-68.5c41.6,0,78.5,20.5,101.4,52.1H996.5L996.5,4175.7L996.5,4175.7z
			 M795.3,4228.7l21.1-12c-3.5,10.8-5.6,22.6-5.6,34.9c0,12,1.8,23.1,5.3,34l-20.8-11.7c-0.3,0.3-0.6,1.2-1.2,1.5
			c-1.5-7.6-2.1-15.8-2.1-24c0-8.5,0.6-16.4,2.3-24.3C795,4228.1,795.3,4228.4,795.3,4228.7z M797.1,4318
			c23.1,43.9,68.8,73.8,121.3,73.8c54.8,0,102.2-32.8,124.5-80.3l5.3,15.2h11.1c-7.3,14.4-17,27.5-28.4,39.5
			c-30.2,30.5-70,47.5-112.5,47.5s-82.6-17-112.5-47.5c-11.7-12-21.1-25.2-28.7-39.8c3.2-0.6,6.4-1.8,9.4-3.2
			C790,4321.8,793.5,4320.1,797.1,4318z M1056.6,4251.2c-0.3-77-61.8-140-138-140c-52.4,0-98.1,29.9-121.3,73.8
			c-6.4-3.8-12.9-6.7-19.9-8.5c7.3-14.4,17-27.8,28.4-39.8c30.2-30.5,70-47.5,112.5-47.5s82.6,17,112.5,47.5
			c25.8,26.4,41.6,60,45.7,96.4l-11.1,32.8h-3.8L1056.6,4251.2z M768.1,4328.3c8.2,16.1,18.7,31.3,31.6,44.2
			c31.6,32.2,74.1,50.4,118.9,50.4c45.1,0,87.3-17.9,118.9-50.4c13.5-13.8,24-28.7,31.9-45.7h9.4l31.3-91.4
			c0.3,5.3,0.6,10.5,0.6,15.8c0,52.4-19.9,101.6-56.2,138.6c-36.3,36.9-84.7,57.4-136.2,57.4c-51.3,0-99.9-20.5-136.2-57.4
			c-17.9-18.2-31.9-39.5-41.6-62.7c2.9,0.6,5.6,1.2,8.5,1.5c4.1,0.3,8.5,0.3,12.9,0C764.2,4328.9,766.3,4328.6,768.1,4328.3z
			 M1083.2,4215.2c-6.7-31.9-22.6-61.2-45.7-84.7c-31.6-32.2-74.1-50.4-118.9-50.4c-45.1,0-87.3,17.9-118.9,50.4
			c-12.9,12.9-23.4,28.1-31.3,43.9c-9.1-1.5-18.2-1.2-26.9,0.6c9.4-22.8,23.4-43.9,41.3-62.4c36.3-36.9,84.7-57.4,136.2-57.4
			c51.6,0,99.9,20.5,136.2,57.4c18.2,18.2,31.9,39.8,41.9,63.3L1083.2,4215.2z M738.5,4209.6c5.9-2.3,12-3.8,17.9-3.8
			c-3.8,14.6-6.4,30.2-6.4,46c0,15.8,2.1,31.3,6.4,46.6c-5.3,0-10.3-1.2-15.2-2.9c-4.7-1.8-8.8-4.7-12.3-7.6
			c-2.1-11.7-3.2-23.4-3.2-35.4c0-12.3,1.2-24.6,3.2-36.3C732,4212.9,735,4211.1,738.5,4209.6z M721.5,4279.1
			c-1.8-2.9-3.5-5.6-5-9.1c-2.3-5.9-3.8-12-4.1-18.7c0-10.3,2.9-19.6,8.5-27.8c0.3-0.3,0.3-0.6,0.6-1.2c-1.5,9.4-2.1,19.3-2.1,29.3
			C719.7,4260.6,720.6,4270,721.5,4279.1z"/>
	</g>
	<path fill="#595758" d="M918.6,4173.6c10.8,0,20.8,2.1,30.2,5.9c9.4,4.1,17.6,9.4,24.6,17c7,7,12.6,15.2,17,24.6
		c4.1,9.4,5.9,19.3,5.9,30.2s-2.1,20.8-5.9,30.2c-4.1,9.4-9.4,17.6-17,24.6c-7,7-15.2,12.6-24.6,17c-9.4,4.4-19.3,5.9-30.2,5.9
		s-20.8-2.1-30.2-5.9c-9.4-4.1-17.6-9.4-24.6-17c-7-7-12.6-15.2-17-24.6c-4.1-9.4-5.9-19.3-5.9-30.2s2.1-20.8,5.9-30.2
		c4.1-9.4,9.4-17.6,17-24.6c7-7,15.2-12.6,24.6-17C897.5,4175.7,907.8,4173.6,918.6,4173.6z M918.6,4298.1c6.4,0,12-1.2,17.3-3.5
		s10.3-5.6,14.1-10c3.8-4.1,7-9.1,9.4-14.6c2.3-5.6,3.5-12,3.5-18.2s-1.2-12.3-3.5-17.9c-2.3-5.6-5.6-10.5-9.4-14.6
		c-3.8-4.1-8.8-7.3-14.1-10c-5.3-2.3-11.1-3.5-17.3-3.5c-6.4,0-12,1.2-17.3,3.5c-5.3,2.3-10.3,5.6-14.1,10c-3.8,4.1-7,9.1-9.4,14.6
		c-2.3,5.6-3.5,11.7-3.5,17.9s1.2,12.3,3.5,18.2c2.3,5.6,5.6,10.5,9.4,14.6c3.8,4.1,8.8,7.3,14.1,10
		C906.3,4296.6,912.2,4298.1,918.6,4298.1z"/>
	<path fill="none" d="M1078.3,4089c-42.5-43.6-99.3-67.7-159.6-67.7c-60.6,0-117.2,24-159.6,67.7c-42.5,43.6-66.2,101.4-66.2,162.6
		c0,61.5,23.4,119.2,66.2,162.6c42.5,43.6,99.6,67.7,159.6,67.7c60.6,0,117.2-24,159.6-67.7s66.2-101.4,66.2-162.6
		C1144.8,4190,1121.3,4132.3,1078.3,4089z M1058.9,4394.8c-37.8,38.4-87.3,59.2-140.3,59.2s-103.1-21.1-140.3-59.2
		c-37.8-38.4-58-89-58-142.9c0-54.2,20.8-104.9,58-142.9c37.8-38.4,87.3-59.2,140.3-59.2s103.1,21.1,140.3,59.2
		c37.8,38.4,58,89,58,142.9C1117.2,4305.7,1096.4,4356.4,1058.9,4394.8z"/>
	<path fill="none" d="M918.6,4157.2c-51,0-92.9,42.2-92.9,94.3s41.6,94.3,92.9,94.3c51,0,92.9-42.2,92.9-94.3
		C1011.5,4199.4,969.6,4157.2,918.6,4157.2z M918.6,4330.3c-42.5,0-77.3-35.2-77.3-78.8s34.9-78.8,77.3-78.8s77.3,35.2,77.3,78.8
		S961.1,4330.3,918.6,4330.3z"/>
	<path fill="none" d="M1054.8,4113c-36.3-36.9-84.7-57.4-136.2-57.4c-51.3,0-99.9,20.5-136.2,57.4c-36.3,36.9-56.2,86.1-56.2,138.6
		s19.9,101.6,56.2,138.6c36.3,36.9,84.7,57.4,136.2,57.4c51.6,0,99.9-20.5,136.2-57.4c36.3-36.9,56.2-86.1,56.2-138.6
		C1111.4,4199.1,1091.1,4149.9,1054.8,4113z M1037.5,4373.1c-31.6,32.2-74.1,50.4-118.9,50.4c-45.1,0-87.3-17.9-118.9-50.4
		c-31.6-32.2-49.2-75.3-49.2-121s17.6-88.8,49.2-121c31.6-32.2,74.1-50.4,118.9-50.4c45.1,0,87.3,17.9,118.9,50.4
		c31.6,32.2,49.2,75.3,49.2,121C1087,4297.2,1069.5,4340.6,1037.5,4373.1z"/>
	<path fill="none" d="M1031.1,4137c-30.2-30.5-70-47.5-112.5-47.5s-82.6,17-112.5,47.5c-30.2,30.5-46.9,71.5-46.9,114.8
		s16.4,84.1,46.9,114.8c30.2,30.5,70,47.5,112.5,47.5s82.6-17,112.5-47.5c30.2-30.5,46.9-71.5,46.9-114.8S1061.3,4167.5,1031.1,4137
		z M918.6,4391.8c-75.9,0-138-63-138-140.3c0-77.3,61.8-140.3,138-140.3s138,63,138,140.3C1056.6,4328.9,994.5,4391.8,918.6,4391.8z
		"/>
	<path fill="none" d="M1101.7,4065.2c-48.9-50.1-113.9-77-183.4-77s-134.5,27.5-183.4,77c-48.9,50.1-75.9,116-75.9,186.6
		s26.9,136.5,75.9,186.6s113.9,77,183.4,77s134.5-27.5,183.4-77c48.9-50.1,75.9-116,75.9-186.6S1150.6,4115,1101.7,4065.2z
		 M1080.3,4416.4c-43.4,43.9-100.5,68.3-161.7,68.3s-118.6-24.3-161.7-68.3c-43.4-43.9-67.1-102.8-67.1-164.9
		c0-62.4,24-120.7,67.1-164.9c43.4-43.9,100.5-68.3,161.7-68.3s118.6,24.3,161.7,68.3c43.4,43.9,67.1,102.8,67.1,164.9
		C1147.7,4313.9,1123.7,4372.5,1080.3,4416.4z"/>
	<path fill="none" d="M918.6,4123.2c-69.7,0-126,57.7-126,128.3s56.5,128.3,126,128.3c69.7,0,126-57.7,126-128.3
		S988.3,4123.2,918.6,4123.2z M918.6,4361.4c-59.5,0-107.8-49.2-107.8-109.6c0-60.6,48.3-109.6,107.8-109.6
		c59.5,0,107.8,49.2,107.8,109.6S978.1,4361.4,918.6,4361.4z"/>
	<path fill="#595758" d="M169.9,4119.4c0,10.3,0,21.7,0,34c0,12.3,0,24.9,0,37.8s0,24.3,0,34.9c0,10.3,0,18.7,0,25.2s0,9.1,0,8.5
		v67.7h-30.5l-4.1-8.5c-3.5,2.1-7.6,3.8-12.6,5.3c-6.7,2.1-13.5,2.9-19.6,2.9c-6.7,0-13.8-1.2-19.9-2.9c-6.4-2.1-12.3-5-18.2-8.5
		c-5.6-3.8-10.5-8.5-14.6-13.8c-4.1-5.3-7.6-11.1-10.3-17.6c-1.2-3.2-2.1-5.9-2.9-8.5c-0.6-2.9-1.2-6.4-1.8-11.1v-169.3h34.9v166.4
		c0,4.7,1.2,9.4,3.5,14.1c2.3,5,5.6,8.8,10,12c5.6,4.7,12,6.7,19.3,6.7c4.7,0,8.5-0.6,12.3-2.9c3.8-1.8,7.3-4.1,10.3-7.3
		s5.3-6.7,7-10.8c1.8-4.1,2.9-8.5,3.2-12.9v-164.9h34C169.9,4101,169.9,4108.9,169.9,4119.4z"/>
	<path fill="#595758" d="M316.9,4327.1h-33.4c0-5,0-10,0-15.2c0-5.3,0-11.1,0-18.7c0-7,0-15.5,0-25.2c0-10,0-21.4,0-35.4
		c0-0.6,0-1.5,0-2.1s0-1.8-0.3-2.3c-1.2-3.2-1.8-5.9-2.9-8.5c-3.2-5.6-7.3-10-12.9-12.6c-2.9-1.2-5.6-1.8-8.8-2.3
		c-3.2-0.6-6.4-0.3-9.4,0c-6.7,1.5-12.3,4.7-17,9.4c-2.3,2.3-4.7,5.6-5.9,9.4c-1.8,3.8-2.3,7.6-2.3,11.7v91.4h-33.7v-150.9h33.4
		l6.7,4.7c1.8-0.6,3.5-1.8,5.6-2.3c1.8-0.6,3.8-1.5,5.6-1.8c5.9-2.1,12.3-2.9,19.3-2.3c7,0.6,13.8,1.8,19.6,4.1
		c5.6,2.1,11.1,5.6,16.4,10.3c5,4.7,9.1,10,12.6,15.5c2.3,4.1,4.1,8.8,5.6,13.8c1.5,5,2.1,10,2.1,15.2v94.9h-0.3V4327.1z"/>
	<path fill="#595758" d="M481.3,4095.4v231.7h-33.4v-0.3l-6.7-6.7c-1.2,0.3-2.1,1.2-2.9,1.5c-1.2,0.3-1.8,1.2-2.9,1.5
		c-8.8,3.8-18.7,6.4-29.6,6.7c-10.5,0-20.5-2.1-29.9-5.9c-10-3.8-17.9-10-25.2-17.3c-3.8-3.5-7-7.3-10-11.7c-2.9-4.1-5.3-8.8-7-13.5
		c-3.5-9.1-5.3-19-5.6-29.3c0-10.3,1.8-20.5,5.6-30.2c1.8-4.7,4.1-9.1,7-13.5c2.9-4.1,6.4-8.2,10-12c7-7.3,15.5-13.5,25.2-17.3
		c9.1-3.8,19.3-5.9,29.9-5.9c10.8,0.3,20.8,2.9,29.6,6.7c2.3,1.2,4.7,1.8,6.7,3.2c2.1,1.2,3.8,2.3,5.9,3.8v-91.7L481.3,4095.4
		L481.3,4095.4z M405.7,4296.9c5.6,0.3,11.1-0.6,17-3.2c5.6-2.3,10.5-5.6,15.2-10c4.1-4.1,7.6-9.1,10.3-14.6
		c2.1-5.3,3.2-11.1,3.2-17.9s-1.2-12.6-3.2-17.9c-2.9-5.6-5.9-10.5-10.3-14.6c-4.7-4.1-9.4-7.3-15.2-9.4c-5.6-2.1-11.1-3.2-17-3.2
		c-3.2,0.3-5.9,0.6-8.8,1.2c-2.9,0.6-5.6,1.5-8.2,2.3c-5.3,2.3-10.3,5.9-14.1,10.3c-2.1,2.1-4.1,4.1-5.6,6.7
		c-1.5,2.3-2.9,5.3-3.8,7.6c-0.3,1.5-1.2,2.9-1.5,4.1c-0.3,1.5-0.6,2.9-1.2,4.1c-1.2,6.7-0.6,13.8,1.2,21.4
		c1.8,7.6,5.6,14.1,10.8,19.3c4.1,4.7,8.8,7.6,14.1,10.3C394.3,4296.1,400.1,4296.9,405.7,4296.9z"/>
	<path fill="#595758" d="M536.1,4327.1h-33.4v-151.7h33.4V4327.1z"/>
	<path fill="#595758" d="M612.5,4329.4c-7.6,0-15.2-1.5-21.7-3.8c-6.7-2.3-12.6-5.9-17.9-10.5c-5-4.7-9.1-10-12-15.8
		s-4.1-12.3-4.1-19.3h32.8c0,4.1,2.1,8.2,6.7,11.7s10,5.3,16.4,5.3c6.4,0,11.7-1.8,16.1-5.3c4.7-3.5,6.7-7.3,6.7-12
		c0-3.2-1.5-5.9-3.8-8.8c-2.3-2.9-6.4-5-10.5-5.9l-24-7c-10.3-3.2-18.2-8.5-24.6-15.8c-6.4-7.3-9.1-15.8-9.1-25.2
		c0-5.9,1.5-11.7,3.8-17c2.3-5.3,5.9-10,10.5-13.8s10-7,15.8-9.1c5.9-2.3,12.3-3.5,19.3-3.5c14.1,0,26.1,4.7,36,14.1l-22.8,24
		c-1.5-1.5-3.5-2.9-5.6-4.1c-2.3-1.2-4.7-1.8-7-1.8c-5,0-8.8,1.2-11.7,3.5s-4.7,5-4.7,8.2c0,2.1,0.6,3.8,2.9,5.9
		c1.8,2.1,4.1,3.5,7.3,4.1l24,7c11.7,3.2,20.8,9.1,27.8,17.6c7,8.5,10.5,17.9,10.5,28.4c0,6.7-1.5,13.5-4.1,19.3
		c-2.9,5.9-6.7,11.1-12,15.8c-5,4.7-10.8,8.2-17.6,10.5C627.7,4328.3,620.1,4329.4,612.5,4329.4z"/>
	<path fill="#595758" d="M1370,4175.7c1.8,0.3,3.5,0.3,5,0.3c1.5,0,3.2,0.3,5,0.6l-9.1,31.1c-1.5-0.3-2.3-0.6-3.2-0.6
		c-3.5-0.3-6.7-0.3-9.1,0.3c-6.4,1.2-12,4.1-17,9.1c-1.2,1.5-2.1,2.9-3.2,3.8c-1.2,1.5-1.8,2.9-2.3,4.7c-0.3,1.2-1.2,3.2-1.8,5.9
		c-0.6,2.9-1.2,5.6-1.2,8.5v87.3h-33.4v-150.9h33.4l7,6.7c1.8-1.2,3.5-1.8,5.3-2.3c1.8-0.6,3.5-1.5,5.6-1.8c3.2-0.6,6.4-1.5,9.4-2.1
		C1363.3,4175.4,1366.5,4175.4,1370,4175.7z"/>
	<path fill="#595758" d="M1523.2,4257.7h-109l-3.2,2.9c0.3,1.5,0.6,3.2,1.2,4.7c0.3,1.5,0.6,2.9,1.5,4.7c1.8,4.7,4.1,8.8,7.6,12.9
		c3.5,3.8,7.3,7,11.7,9.4c5,2.9,9.4,4.7,14.1,5.3c1.5,0.3,2.9,0.3,3.8,0.3c1.5,0,2.9,0,3.8,0c1.2,0,2.3,0,3.5,0
		c1.5,0,2.3-0.3,3.5-0.3c5-1.2,10-2.9,14.1-5.6c2.1-1.5,4.1-2.9,5.9-4.7c1.8-1.8,3.5-3.5,5.3-5.6l25.2,22.3
		c-5.6,6.4-12.6,11.7-20.5,15.8c-5.3,3.2-11.1,5.6-17.3,7c-6.4,1.8-12.9,2.3-19.9,2.3c-8.5,0-17-1.5-25.2-3.8c-3.8-1.5-8.2-2.9-12-5
		c-7.6-4.1-14.6-9.4-20.8-15.8c-5.9-6.4-10.8-13.8-14.1-21.7c-3.2-8.2-5.3-16.1-6.4-24.9c-1.2-8.5-0.3-17.3,1.5-25.2
		c1.8-8.5,5-16.1,9.4-24c4.7-7.3,10.8-14.1,19-19.6c3.8-2.3,7.3-4.7,11.1-6.7s7.6-3.8,12.3-5.3c1.2-0.3,3.5-1.2,7-1.5
		c3.5-0.6,7.6-1.2,12.6-1.2c5-0.3,10.3,0,15.5,0.6c5.6,0.6,10.8,2.1,15.8,3.8c8.5,3.2,15.8,7.6,22.6,14.1s12,14.1,15.2,22.8
		c0.6,2.1,1.8,4.1,2.1,6.4c0.6,2.1,1.2,4.1,1.5,6.4c0.3,1.5,0.3,2.9,0.6,5c0.3,1.8,0.3,4.7,0.6,8.2L1523.2,4257.7L1523.2,4257.7z
		 M1439.1,4206.4c-4.7,1.5-8.5,3.5-11.7,5.9s-6.4,5.6-9.1,9.4l1.5,3.8h67.7c-1.5-3.5-3.5-7-6.7-10.3c-1.8-1.8-4.1-3.5-7-5.3
		c-2.9-1.8-6.4-2.9-10.3-3.8c-3.8-1.2-7.6-1.8-12-1.8C1447.3,4204.7,1443.5,4205.2,1439.1,4206.4z"/>
	<path fill="#595758" d="M1692.5,4095.4v231.7h-33.4v-0.3l-6.7-6.7c-1.2,0.3-2.1,1.2-2.9,1.5c-1.2,0.3-1.8,1.2-2.9,1.5
		c-8.8,3.8-18.7,6.4-29.6,6.7c-10.5,0-20.5-2.1-29.9-5.9c-10-3.8-17.9-10-25.2-17.3c-3.8-3.5-7-7.3-10-11.7c-2.9-4.1-5.3-8.8-7-13.5
		c-3.5-9.1-5.3-19-5.6-29.3c0-10.3,1.8-20.5,5.6-30.2c1.8-4.7,4.1-9.1,7-13.5c2.9-4.1,6.4-8.2,10-12c7-7.3,15.5-13.5,25.2-17.3
		c9.1-3.8,19.3-5.9,29.9-5.9c10.8,0.3,20.8,2.9,29.6,6.7c2.3,1.2,4.7,1.8,6.7,3.2c2.1,1.2,3.8,2.3,5.9,3.8v-91.7L1692.5,4095.4
		L1692.5,4095.4z M1617.2,4296.9c5.6,0.3,11.1-0.6,17-3.2c5.9-2.6,10.5-5.6,15.2-10c4.1-4.1,7.6-9.1,10.3-14.6
		c2.1-5.3,3.2-11.1,3.2-17.9s-1.2-12.6-3.2-17.9c-2.9-5.6-5.9-10.5-10.3-14.6c-4.7-4.1-9.4-7.3-15.2-9.4c-5.6-2.1-11.1-3.2-17-3.2
		c-3.2,0.3-5.9,0.6-8.8,1.2c-2.9,0.6-5.6,1.5-8.2,2.3c-5.3,2.3-10.3,5.9-14.1,10.3c-2.1,2.1-4.1,4.1-5.6,6.7
		c-1.5,2.3-2.9,5.3-3.8,7.6c-0.3,1.5-1.2,2.9-1.5,4.1c-0.3,1.5-0.6,2.9-1.2,4.1c-1.2,6.7-0.6,13.8,1.2,21.4s5.6,14.1,10.8,19.3
		c4.1,4.7,8.8,7.6,14.1,10.3C1605.5,4296.1,1611.4,4296.9,1617.2,4296.9z"/>
	<path fill="#595758" d="M537.2,4126.5L537.2,4126.5c0-0.3-0.6-1.2-1.2-1.8c-0.6-0.6-1.5-1.8-2.1-2.3c-0.3-0.3-0.6-0.6-1.5-1.2
		c-4.1-4.1-10-9.4-10.8-11.7h-1.2h-1.5h-1.5h-1.2c-1.2,2.1-6.7,7.3-10.8,11.7c-0.3,0.3-1.2,0.6-1.5,1.2c-0.6,0.6-1.5,1.8-2.1,2.3
		c-0.6,0.6-1.2,1.2-1.2,1.8l0,0c-1.8,3.2-2.9,6.7-2.9,10.5c0,5.6,2.1,10.5,5.9,14.4c3.8,3.8,8.8,5.9,14.4,5.9
		c5.6,0,10.5-2.1,14.4-5.9c3.8-3.8,5.9-8.8,5.9-14.4C540.2,4132.6,539,4129.4,537.2,4126.5z"/>
	<path fill="#595758" d="M1281,4257.7h-109.3l-3.2,2.9c0.3,1.5,0.6,3.2,1.2,4.7c0.3,1.5,0.6,2.9,1.5,4.7c1.8,4.7,4.1,8.8,7.6,12.9
		c3.5,3.8,7.3,7,11.7,9.4c5,2.9,9.4,4.7,14.1,5.3c1.5,0.3,2.9,0.3,3.8,0.3c1.5,0,2.9,0,3.8,0c1.2,0,2.3,0,3.5,0
		c1.5,0,2.3-0.3,3.5-0.3c5-1.2,10-2.9,14.1-5.6c2.1-1.5,4.1-2.9,5.9-4.7c1.8-1.8,3.5-3.5,5.3-5.6l25.2,22.3
		c-5.6,6.4-12.6,11.7-20.5,15.8c-5.3,3.2-11.1,5.6-17.3,7c-6.4,1.8-12.9,2.3-19.9,2.3c-8.5,0-17-1.5-25.2-3.8c-3.8-1.5-8.2-2.9-12-5
		c-7.6-4.1-14.6-9.4-20.8-15.8c-5.9-6.4-10.8-13.8-14.1-21.7c-3.2-7.9-5.3-16.1-6.4-24.9c-1.2-8.5-0.3-17.3,1.5-25.2
		c1.8-8.5,5-16.1,9.4-24c4.7-7.3,10.8-14.1,19-19.6c3.8-2.3,7.3-4.7,11.1-6.7s7.6-3.8,12.3-5.3c1.2-0.3,3.5-1.2,7-1.5
		c3.5-0.6,7.6-1.2,12.6-1.2c5-0.3,10.3,0,15.5,0.6c5.6,0.6,10.8,2.1,15.8,3.8c8.5,3.2,15.8,7.6,22.6,14.1c6.7,6.4,12,14.1,15.2,22.8
		c0.6,2.1,1.8,4.1,2.1,6.4c0.6,2.1,1.2,4.1,1.5,6.4c0.3,1.5,0.3,2.9,0.6,5c0.3,1.8,0.3,4.7,0.6,8.2L1281,4257.7L1281,4257.7z
		 M1196.9,4206.4c-4.7,1.5-8.5,3.5-11.7,5.9c-3.2,2.3-6.4,5.6-9.1,9.4l1.5,3.8h67.4c-1.5-3.5-3.5-7-6.7-10.3c-1.8-1.8-4.1-3.5-7-5.3
		c-2.9-1.8-6.4-2.9-10.3-3.8c-3.8-1.2-7.6-1.8-12-1.8C1204.8,4204.7,1200.7,4205.2,1196.9,4206.4z"/>
	
		<linearGradient id="SVGID_1_" gradientUnits="userSpaceOnUse" x1="331.8901" y1="7920.8584" x2="331.8901" y2="7920.8584" gradientTransform="matrix(3.518 0 0 3.518 0 -23861.2656)">
		<stop  offset="0.153" style="stop-color:#FBC61C"/>
		<stop  offset="0.5562" style="stop-color:#7A600E"/>
		<stop  offset="0.8496" style="stop-color:#221B04"/>
		<stop  offset="0.9818" style="stop-color:#000000"/>
	</linearGradient>
	<path fill="url(#SVGID_1_)" d="M1167.6,4004.6"/>
	<g>
		
			<linearGradient id="SVGID_2_" gradientUnits="userSpaceOnUse" x1="885.2799" y1="10740.2432" x2="868.5181" y2="10790.8848" gradientTransform="matrix(2.3396 -2.6272 2.6272 2.3396 -29445.9414 -18765.2207)">
			<stop  offset="0.6915" style="stop-color:#FBC61C"/>
			<stop  offset="0.7091" style="stop-color:#E8B930"/>
			<stop  offset="0.7736" style="stop-color:#B1924F"/>
			<stop  offset="0.8351" style="stop-color:#887657"/>
			<stop  offset="0.892" style="stop-color:#6E6459"/>
			<stop  offset="0.9426" style="stop-color:#5E5A58"/>
			<stop  offset="0.9818" style="stop-color:#595758"/>
		</linearGradient>
		<path fill="url(#SVGID_2_)" d="M981.6,4182.7l10-11.1c-41.3-39-103.4-38.4-143.5-2.1l9.4,11.1
			C892.3,4149.3,946.7,4149,981.6,4182.7z"/>
		
			<linearGradient id="SVGID_3_" gradientUnits="userSpaceOnUse" x1="896.4017" y1="10741.5" x2="880.6901" y2="10789.0635" gradientTransform="matrix(2.3103 -2.6026 2.6009 2.3238 -29133.8125 -18655.9102)">
			<stop  offset="0.6915" style="stop-color:#FBC61C"/>
			<stop  offset="0.7091" style="stop-color:#E8B930"/>
			<stop  offset="0.7736" style="stop-color:#B1924F"/>
			<stop  offset="0.8351" style="stop-color:#887657"/>
			<stop  offset="0.892" style="stop-color:#6E6459"/>
			<stop  offset="0.9426" style="stop-color:#5E5A58"/>
			<stop  offset="0.9818" style="stop-color:#595758"/>
		</linearGradient>
		<path fill="url(#SVGID_3_)" d="M904.3,3988.5c43.1-2.3,84.4,5.6,123,23.4c23.1,10.8,45.4,25.8,65,43.9l0.3-0.6
			c-52.1-47.2-114.8-71.2-188.4-67.7c-58,2.9-111.6,25.8-154.4,62.7l0.3,0.6C793.2,4013.7,846.6,3991.7,904.3,3988.5z"/>
		
			<linearGradient id="SVGID_4_" gradientUnits="userSpaceOnUse" x1="888.9328" y1="10739.7402" x2="872.6114" y2="10789.0518" gradientTransform="matrix(2.3396 -2.6272 2.6272 2.3396 -29445.9414 -18765.2207)">
			<stop  offset="0.6915" style="stop-color:#FBC61C"/>
			<stop  offset="0.7091" style="stop-color:#E8B930"/>
			<stop  offset="0.7736" style="stop-color:#B1924F"/>
			<stop  offset="0.8351" style="stop-color:#887657"/>
			<stop  offset="0.892" style="stop-color:#6E6459"/>
			<stop  offset="0.9426" style="stop-color:#5E5A58"/>
			<stop  offset="0.9818" style="stop-color:#595758"/>
		</linearGradient>
		<path fill="url(#SVGID_4_)" d="M1003.6,4157.2l8.2-8.8c-52.1-49.2-131.8-48.9-184-2.3l7.6,9.1
			C883.5,4112.7,956.1,4112.4,1003.6,4157.2z"/>
		
			<linearGradient id="SVGID_5_" gradientUnits="userSpaceOnUse" x1="900.8758" y1="10736.1455" x2="885.19" y2="10783.5352" gradientTransform="matrix(2.3396 -2.6272 2.6272 2.3396 -29445.9414 -18765.2207)">
			<stop  offset="0.6915" style="stop-color:#FBC61C"/>
			<stop  offset="0.7091" style="stop-color:#E8B930"/>
			<stop  offset="0.7736" style="stop-color:#B1924F"/>
			<stop  offset="0.8351" style="stop-color:#887657"/>
			<stop  offset="0.892" style="stop-color:#6E6459"/>
			<stop  offset="0.9426" style="stop-color:#5E5A58"/>
			<stop  offset="0.9818" style="stop-color:#595758"/>
		</linearGradient>
		<path fill="url(#SVGID_5_)" d="M906.9,4021.9c60.6-3.2,116.9,17.3,163.2,59.2l2.3-1.8c-46.9-43.1-104.6-63.6-166.4-60.6
			c-51.8,2.3-99.3,22.6-137.1,55.9l2.1,2.1C809.9,4044.1,855.6,4024.2,906.9,4021.9z"/>
		
			<linearGradient id="SVGID_6_" gradientUnits="userSpaceOnUse" x1="896.8079" y1="10737.6064" x2="881.0004" y2="10785.3643" gradientTransform="matrix(2.3396 -2.6272 2.6272 2.3396 -29445.9414 -18765.2207)">
			<stop  offset="0.6915" style="stop-color:#FBC61C"/>
			<stop  offset="0.7091" style="stop-color:#E8B930"/>
			<stop  offset="0.7736" style="stop-color:#B1924F"/>
			<stop  offset="0.8351" style="stop-color:#887657"/>
			<stop  offset="0.892" style="stop-color:#6E6459"/>
			<stop  offset="0.9426" style="stop-color:#5E5A58"/>
			<stop  offset="0.9818" style="stop-color:#595758"/>
		</linearGradient>
		<path fill="url(#SVGID_6_)" d="M909.8,4055.6c52.1-2.1,99.3,15.8,138.3,50.7l4.1-4.1c-40.7-37.2-87.3-53.6-140.6-52.7
			c-45.1,0.6-89.9,20.5-123,49.2l3.8,4.7C827.5,4073.1,867.6,4057.3,909.8,4055.6z"/>
		
			<linearGradient id="SVGID_7_" gradientUnits="userSpaceOnUse" x1="892.7806" y1="10738.7324" x2="876.7191" y2="10787.2588" gradientTransform="matrix(2.3396 -2.6272 2.6272 2.3396 -29445.9414 -18765.2207)">
			<stop  offset="0.6915" style="stop-color:#FBC61C"/>
			<stop  offset="0.7091" style="stop-color:#E8B930"/>
			<stop  offset="0.7736" style="stop-color:#B1924F"/>
			<stop  offset="0.8351" style="stop-color:#887657"/>
			<stop  offset="0.892" style="stop-color:#6E6459"/>
			<stop  offset="0.9426" style="stop-color:#5E5A58"/>
			<stop  offset="0.9818" style="stop-color:#595758"/>
		</linearGradient>
		<path fill="url(#SVGID_7_)" d="M910.1,4089.5c43.1-2.1,82.6,12,116,42.5l5.6-7c-36-32.2-77.3-46.9-122.7-44.8
			c-38.4,1.8-73.2,17.3-101.4,41.9l5.6,7C838.6,4107.1,873.5,4091.3,910.1,4089.5z"/>
	</g>
</g>
<g>
	<g>
		<rect x="1763.7" y="4095.4" fill="#595758" width="7" height="323.1"/>
	</g>
	<g>
		<path fill="#595758" d="M1211.2,4376.6h-21.4c-1.2,0-2.1,1.2-2.1,2.1v39c0,1.2,1.2,2.1,2.1,2.1h0.3c1.2,0,2.1-1.2,2.1-2.1v-18.2
			h17.9c1.2,0,2.1-1.2,2.1-2.1c0-1.2-1.2-2.1-2.1-2.1h-17.9v-14.1h19c1.2,0,2.1-1.2,2.1-2.1
			C1213.3,4377.2,1212.7,4376.6,1211.2,4376.6z"/>
		<path fill="#595758" d="M1226.8,4387.2c-7.3,0-11.1,2.9-11.1,8.5v16.4c0,5.6,3.8,8.5,11.1,8.5s11.1-2.9,11.1-8.5v-16.4
			C1237.9,4389.8,1234.1,4387.2,1226.8,4387.2z M1233.5,4395.1v16.4c0,1.5,0,3.8-7,3.8s-7-2.3-7-3.8v-16.4c0-1.5,0-3.8,7-3.8
			S1233.5,4394.2,1233.5,4395.1z"/>
		<path fill="#595758" d="M1264.9,4387.4c-1.2,0-2.1,1.2-2.1,2.1v23.1c-1.5,1.2-4.1,2.9-8.5,2.9c-3.5,0-5.3-1.5-5.3-3.8v-22.3
			c0-1.2-1.2-2.1-2.3-2.1c-1.2,0-2.1,1.2-2.1,2.1v22.3c0,5.3,3.5,8.5,9.4,8.5c3.5,0,6.4-1.2,8.5-2.1c0.3,1.2,1.2,1.8,2.1,1.8
			c0.9,0,2.1-1.2,2.1-2.1v-27.8C1267.2,4388.3,1266,4387.4,1264.9,4387.4z"/>
		<path fill="#595758" d="M1288,4387.2c-3.5,0-6.7,1.2-8.8,2.1c0-1.2-1.2-1.8-2.1-1.8c-1.2,0-2.1,1.2-2.1,2.1v27.8
			c0,1.2,1.2,2.1,2.3,2.1c1.2,0,2.1-1.2,2.1-2.1v-22.8c1.8-1.5,4.7-2.9,8.8-2.9c3.5,0,5.3,1.5,5.3,3.8v22.3c0,1.2,1.2,2.1,2.1,2.1
			h0.3c1.2,0,2.1-1.2,2.1-2.1v-22.3C1297.4,4390.1,1293.9,4387.2,1288,4387.2z"/>
		<path fill="#595758" d="M1324.6,4375.4c-1.2,0-2.1,1.2-2.1,2.1v12c-2.1-1.2-5.3-2.1-8.8-2.1c-5.9,0-9.4,3.2-9.4,8.5v16.4
			c0,5.3,3.5,8.5,9.4,8.5c3.5,0,6.7-1.2,8.8-2.1c0,1.2,1.2,1.8,2.1,1.8c1.2,0,2.1-1.2,2.1-2.1v-40.1
			C1327,4376,1326.1,4375.4,1324.6,4375.4z M1308.8,4395.1c0-3.2,2.9-3.8,5.3-3.8c4.1,0,7,1.8,8.8,2.9v18.2c-2.1,1.5-5,2.9-8.8,2.9
			c-2.3,0-5.3-0.6-5.3-3.8V4395.1z"/>
		<path fill="#595758" d="M1336.6,4410.9c-1.2,0-2.1,1.2-2.1,2.1v4.1c0,1.2,1.2,2.1,2.1,2.1h0.3c1.2,0,2.1-1.2,2.1-2.1v-4.1
			C1338.7,4412.1,1337.8,4410.9,1336.6,4410.9z"/>
		<path fill="#595758" d="M1383.2,4415.3h-17.6v-36.6c0-1.2-1.2-2.1-2.3-2.1c-1.2,0-2.1,1.2-2.1,2.1v39c0,1.2,1.2,2.1,2.1,2.1h19.6
			c1.2,0,2.1-1.2,2.1-2.1C1385.2,4416.2,1384.4,4415.3,1383.2,4415.3z"/>
		<path fill="#595758" d="M1399.9,4387.2c-7.3,0-11.1,2.9-11.1,8.5v16.4c0,5.6,3.8,8.5,11.1,8.5s11.1-2.9,11.1-8.5v-16.4
			C1411.3,4389.8,1407.5,4387.2,1399.9,4387.2z M1406.9,4395.1v16.4c0,1.5,0,3.8-7,3.8c-7,0-7-2.3-7-3.8v-16.4c0-1.5,0-3.8,7-3.8
			C1406.9,4391.3,1406.9,4394.2,1406.9,4395.1z"/>
		<path fill="#595758" d="M1435.3,4387.4c-1.2,0-1.8,0.6-2.1,1.5l-7.3,21.7l-7.3-21.4c-0.3-1.2-1.2-1.8-2.3-1.8
			c-0.6,0-1.5,0.3-1.8,0.6l-0.6,1.2l10,28.4c0.3,0.6,0.6,1.5,1.5,1.5l1.2,3.2l0.6-3.5c0.6-0.3,1.2-0.6,1.2-1.5l9.4-27.8l0.3-1.2
			l-0.3-0.6C1436.8,4387.7,1436.5,4387.4,1435.3,4387.4z"/>
		<path fill="#595758" d="M1451.4,4387.2c-7.3,0-11.1,2.9-11.1,8.5v16.4c0,5.6,3.8,8.5,11.1,8.5c7.3,0,11.1-2.9,11.1-8.5v-1.8
			c0-1.2-1.2-2.1-2.3-2.1c-1.2,0-2.1,1.2-2.1,2.1v1.8c0,1.5,0,3.8-7,3.8c-7,0-7-2.3-7-3.8v-7h16.1c1.2,0,2.1-1.2,2.1-2.1v-7.3
			C1462.9,4389.8,1458.8,4387.2,1451.4,4387.2z M1444.4,4400.3v-5c0-1.5,0-3.8,7-3.8c7,0,7,2.3,7,3.8v5H1444.4z"/>
		<path fill="#595758" d="M1488.9,4375.4c-1.2,0-2.1,1.2-2.1,2.1v12c-2.1-1.2-5.3-2.1-8.8-2.1c-5.9,0-9.4,3.2-9.4,8.5v16.4
			c0,5.3,3.5,8.5,9.4,8.5c3.5,0,6.7-1.2,8.8-2.1c0,1.2,1.2,1.8,2.1,1.8c0.9,0,2.1-1.2,2.1-2.1v-40.1
			C1491.3,4376,1490.1,4375.4,1488.9,4375.4z M1473.1,4395.1c0-3.2,2.9-3.8,5.3-3.8c4.1,0,7,1.8,8.8,2.9v18.2
			c-2.1,1.5-5,2.9-8.8,2.9c-2.3,0-5.3-0.6-5.3-3.8V4395.1z"/>
		<path fill="#595758" d="M1500.7,4410.9c-1.2,0-2.1,1.2-2.1,2.1v4.1c0,1.2,1.2,2.1,2.1,2.1h0.3c1.2,0,2.1-1.2,2.1-2.1v-4.1
			C1503,4412.1,1502.1,4410.9,1500.7,4410.9z"/>
		<path fill="#595758" d="M1544,4396.8l-11.7-4.7c-1.2-0.3-3.2-1.5-3.2-4.1v-2.9c0-1.8,0-5,8.5-5s8.5,3.2,8.5,5v3.2
			c0,1.2,1.2,2.1,2.3,2.1c1.2,0,2.1-1.2,2.1-2.1v-3.2c0-6.4-4.1-9.4-12.6-9.4c-8.5,0-12.6,3.2-12.6,9.4v2.9c0,5.6,4.7,7.6,5.9,8.2
			l11.7,4.7c1.8,0.6,3.5,2.1,3.5,4.1v5.3c0,1.8,0,5-8.8,5c-8.5,0-8.5-3.2-8.5-5v-2.9c0-1.2-1.2-2.1-2.3-2.1c-1.2,0-2.1,1.2-2.1,2.1
			v2.9c0,6.4,4.1,9.4,12.9,9.4c8.8,0,12.9-3.2,12.9-9.4v-5.3C1550.5,4401.5,1547.8,4398.6,1544,4396.8z"/>
		<path fill="#595758" d="M1559.5,4375.4c-1.2,0-2.1,1.2-2.1,2.1v5.6c0,1.2,1.2,2.1,2.1,2.1h0.3c1.2,0,2.1-1.2,2.1-2.1v-5.6
			C1561.9,4376,1561,4375.4,1559.5,4375.4z"/>
		<path fill="#595758" d="M1559.5,4387.4c-1.2,0-2.1,1.2-2.1,2.1v27.8c0,1.2,1.2,2.1,2.1,2.1h0.3c1.2,0,2.1-1.2,2.1-2.1v-27.8
			C1561.9,4388.3,1561,4387.4,1559.5,4387.4z"/>
		<path fill="#595758" d="M1589.4,4387.4c-1.2,0-2.1,0.6-2.1,1.8c-2.1-1.2-5.3-2.1-8.8-2.1c-5.9,0-9.4,3.2-9.4,8.5v16.4
			c0,5.3,3.5,8.5,9.4,8.5c3.5,0,6.7-1.2,8.8-2.1v5.6c0,1.5,0,3.8-6.7,3.8h-8.2c-1.2,0-2.1,1.2-2.1,2.1c0,1.2,1.2,2.1,2.1,2.1h7.6
			c7.6,0,11.1-2.9,11.1-8.5v-34C1591.5,4388.3,1590.9,4387.4,1589.4,4387.4z M1573.3,4395.1c0-3.2,2.9-3.8,5.3-3.8
			c4.1,0,7,1.8,8.8,2.9v18.2c-2.1,1.5-5,2.9-8.8,2.9c-2.3,0-5.3-0.6-5.3-3.8V4395.1z"/>
		<path fill="#595758" d="M1612.6,4387.2c-3.5,0-6.7,1.2-8.8,2.1c0-1.2-1.2-1.8-2.1-1.8c-0.9,0-2.1,1.2-2.1,2.1v27.8
			c0,1.2,1.2,2.1,2.3,2.1c1.2,0,2.1-1.2,2.1-2.1v-22.8c1.8-1.5,4.7-2.9,8.8-2.9c3.5,0,5.3,1.5,5.3,3.8v22.3c0,1.2,1.2,2.1,2.1,2.1
			h0.3c1.2,0,2.1-1.2,2.1-2.1v-22.3C1622.2,4390.1,1618.7,4387.2,1612.6,4387.2z"/>
		<path fill="#595758" d="M1640.1,4387.2c-7.3,0-11.1,2.9-11.1,8.5v16.4c0,5.6,3.8,8.5,11.1,8.5s11.1-2.9,11.1-8.5v-1.8
			c0-1.2-1.2-2.1-2.3-2.1c-1.2,0-2.1,1.2-2.1,2.1v1.8c0,1.5,0,3.8-7,3.8s-7-2.3-7-3.8v-7h16.1c1.2,0,2.1-1.2,2.1-2.1v-7.3
			C1651.2,4389.8,1647.7,4387.2,1640.1,4387.2z M1633.1,4400.3v-5c0-1.5,0-3.8,7-3.8s7,2.3,7,3.8v5H1633.1z"/>
		<path fill="#595758" d="M1677.3,4375.4c-1.2,0-2.1,1.2-2.1,2.1v12c-2.1-1.2-5.3-2.1-8.8-2.1c-5.9,0-9.4,3.2-9.4,8.5v16.4
			c0,5.3,3.5,8.5,9.4,8.5c3.5,0,6.7-1.2,8.8-2.1c0,1.2,1.2,1.8,2.1,1.8c1.2,0,2.1-1.2,2.1-2.1v-40.1
			C1679.9,4376,1678.8,4375.4,1677.3,4375.4z M1661.5,4395.1c0-3.2,2.9-3.8,5.3-3.8c4.1,0,7,1.8,8.8,2.9v18.2
			c-2.1,1.5-5,2.9-8.8,2.9c-2.3,0-5.3-0.6-5.3-3.8V4395.1z"/>
		<path fill="#595758" d="M1689.3,4410.9c-1.2,0-2.1,1.2-2.1,2.1v4.1c0,1.2,1.2,2.1,2.1,2.1h0.3c1.2,0,2.1-1.2,2.1-2.1v-4.1
			C1691.4,4412.1,1690.8,4410.9,1689.3,4410.9z"/>
	</g>
</g>
<g>
	<path fill="#595758" d="M1942.2,4211.2h15.5v26h-20.9l-3.5,18.4h24.4v26.3h-29.8l-8.1,39.6l-26.6-5.4l7.1-34.2h-26l-8.4,41.2
		l-26.6-5.4l7.3-35.8h-15.7v-26.3h20.9l3.8-18.4h-24.7v-26h30.1l7.9-39.6l26.6,5.4l-6.8,34.2h26l8.4-41.5l26.6,5.4L1942.2,4211.2z
		 M1909.1,4237.2h-26l-3.8,18.4h26.3L1909.1,4237.2z"/>
	<path fill="#595758" d="M2051.8,4330.8c-49.6,0-80.3-37.7-80.3-96.6c0-59.1,30.7-96.8,80.3-96.8s80.3,37.7,80.3,96.8
		C2132.1,4293.1,2101.4,4330.8,2051.8,4330.8z M2103.9,4234.2c0-39.3-15.7-70.5-52.1-70.5s-52.1,31.2-52.1,70.5s15.7,70.5,52.1,70.5
		S2103.9,4273.6,2103.9,4234.2z"/>
	<path fill="#595758" d="M2225.4,4330.8c-49.6,0-80.3-37.7-80.3-96.6c0-59.1,30.7-96.8,80.3-96.8s80.3,37.7,80.3,96.8
		C2305.7,4293.1,2275,4330.8,2225.4,4330.8z M2277.5,4234.2c0-39.3-15.7-70.5-52.1-70.5s-52.1,31.2-52.1,70.5s15.7,70.5,52.1,70.5
		S2277.5,4273.6,2277.5,4234.2z"/>
	<path fill="#595758" d="M2412.6,4139.3v26.6l-68.6,165.2l-25.5-10.6l62.7-150.5l-4.1-4.1h-57.8v-26.6H2412.6z"/>
</g>
</svg>
